<svg viewBox="0 0 56 58" fill="none" xmlns="http://www.w3.org/2000/svg">
<path d="M32.0567 0.0302734L52.7923 35.9212H11.3211L32.0567 0.0302734Z" fill="#0087FF"/>
<path d="M15.5391 6.1394V56.0303" stroke="#000E33" stroke-width="3" stroke-linecap="square" stroke-linejoin="round"/>
<path d="M26.8212 14.5955H9.89767C7.80307 14.5955 5.79427 15.4641 4.31317 17.0103C2.83207 18.5564 2 20.6535 2 22.8401C2 25.0268 2.83207 27.1238 4.31317 28.67C5.79427 30.2162 7.80307 31.0848 9.89767 31.0848H21.18C23.2746 31.0848 25.2834 31.9535 26.7645 33.4996C28.2456 35.0458 29.0777 37.1429 29.0777 39.3295C29.0777 41.5161 28.2456 43.6132 26.7645 45.1594C25.2834 46.7056 23.2746 47.5742 21.18 47.5742H2" stroke="#000E33" stroke-width="3" stroke-linecap="square" stroke-linejoin="round"/>
</svg>
