<svg width="1440" height="1883" viewBox="0 0 1440 1883" fill="none" xmlns="http://www.w3.org/2000/svg">
<mask id="vision-mask0" mask-type="alpha" maskUnits="userSpaceOnUse" x="-782" y="-1029" width="3004" height="2912">
<path d="M597.809 1307.93C393.611 1281.62 204.492 1189.45 60.9182 1046.24V1046.24L-775 215.621C-721.789 207.166 -667.916 203.253 -614 203.929C-467.138 204.787 -322.659 239.995 -192.834 306.562C-110.967 348.951 -36.3499 403.353 28.3736 467.842L336.686 774.07C338.505 776.019 340.515 777.968 342.525 780.009C439.429 876.341 571.606 931.742 710.378 934.192C849.15 936.641 983.32 885.941 1083.78 793.093L761.776 1097.65C696.454 1159.29 641.168 1230.19 597.809 1307.93V1307.93Z" stroke="#001B66" stroke-width="6"/>
<path d="M1358.31 1065.93L501.427 1876.32C468.743 1681.63 502.555 1481.92 597.721 1307.57C641.067 1229.9 696.32 1159.07 761.592 1097.48L1083.59 792.92C1134.13 746.293 1174.61 690.405 1202.7 628.496C1230.79 566.587 1245.92 499.888 1247.22 432.267C1248.52 364.645 1235.96 297.446 1210.27 234.566C1184.58 171.685 1146.28 114.373 1097.57 65.9531L1411.53 378.027C1476.23 442.509 1550.86 496.883 1632.74 539.215C1605.8 739.96 1508.99 925.777 1358.31 1065.93V1065.93Z" stroke="#001B66" stroke-width="6"/>
<path d="M2215 630.701C2161.81 639.08 2107.98 642.961 2054.1 642.301C1907.23 641.374 1762.76 606.137 1632.93 539.575C1551.05 497.244 1476.43 442.87 1411.72 378.388L1097.48 66.128C1049.15 18.0196 991.526 -20.3846 927.886 -46.8896C864.247 -73.3945 795.843 -87.4805 726.584 -88.3423C657.326 -89.2041 588.571 -76.8249 524.251 -51.9122C459.93 -26.9995 401.305 9.95822 351.725 56.8483L669.418 -243.627C737.177 -307.482 794.128 -381.295 838.172 -462.348C1043.77 -436.66 1234.33 -344.224 1378.8 -200.105L2215 630.701Z" stroke="#001B66" stroke-width="6"/>
<path d="M336.525 774.26L28.2129 468.032C-36.5105 403.543 -111.127 349.14 -192.995 306.752C-166.654 110.074 -73.1826 -72.4018 72.5311 -211.609L929.508 -1022C938.201 -970.443 942.205 -918.246 941.473 -866.009C940.552 -725.307 905.083 -586.84 838 -462.067C793.956 -381.014 737.005 -307.201 669.246 -243.345L351.553 57.1293C252.461 150.828 195.345 278.544 192.534 412.711C189.722 546.878 241.44 676.737 336.525 774.26V774.26Z" stroke="#001B66" stroke-width="6"/>
<path d="M698.746 608.095C662.297 603.276 629.763 586.166 605.373 561.142L605.352 561.163L460 412.138C469.112 410.644 478.456 409.928 487.989 410.054C514.715 410.37 539.484 416.894 561.201 428.469C575.427 436.046 588.348 445.79 599.67 457.386L653.29 512.358C653.627 512.716 653.964 513.073 654.3 513.431C670.694 530.226 693.484 540.77 718.801 541.107C743.738 541.422 766.487 531.741 783.196 515.788L727.239 570.402C715.854 581.514 706.258 594.184 698.746 608.095Z" stroke="#001B66" stroke-width="5" stroke-miterlimit="10"/>
<path d="M830.881 564.615L681.847 709.999C680.353 700.886 679.637 691.542 679.763 682.008C680.1 654.964 686.771 629.899 698.619 607.99C706.132 594.058 715.728 581.409 727.113 570.297L783.111 515.662C800.367 499.225 811.247 476.117 811.563 450.399C811.878 425.081 801.925 402.036 785.531 385.241L840.141 441.223C851.462 452.84 864.384 462.564 878.609 470.14C873.79 507.096 856.387 540.033 830.881 564.615Z" stroke="#001B66" stroke-width="5" stroke-miterlimit="10"/>
<path d="M653.374 512.295L599.754 457.324C588.432 445.706 575.511 435.983 561.285 428.407C565.999 392.187 582.813 359.819 607.477 335.426L756.491 190.042C757.985 199.134 758.7 208.499 758.574 218.033C758.258 244.424 751.903 268.943 740.581 290.494C732.942 305.036 723.051 318.211 711.246 329.723L655.984 383.642C639.191 400.037 628.626 422.83 628.311 448.169C628.016 472.961 637.57 495.564 653.374 512.295Z" stroke="#001B66" stroke-width="5" stroke-miterlimit="10"/>
<path d="M979.958 486.598C970.846 488.092 961.502 488.808 951.969 488.681C925.243 488.366 900.453 481.841 878.715 470.245C864.489 462.669 851.568 452.946 840.246 441.328L785.595 385.304C769.222 368.489 746.411 357.945 721.073 357.629C695.736 357.313 672.693 367.289 655.9 383.705L711.141 329.807C722.946 318.294 732.837 305.099 740.476 290.577C777.219 295.27 810.006 312.402 834.564 337.572L979.958 486.598Z" stroke="#001B66" stroke-width="5" stroke-miterlimit="10"/>
</mask>
<g mask="url(#vision-mask0)">
<rect y="-0.1875" width="1440" height="1936" fill="url(#vision-paint0_linear)"/>
</g>
<rect x="1241" y="471" width="8" height="8" fill="#99EC79"/>
<rect width="8" height="8" transform="matrix(0.869567 0.493816 -0.479211 0.8777 634.834 303)" fill="#FF5D00"/>
<rect x="1332.49" y="292.414" width="10" height="10" transform="rotate(45 1332.49 292.414)" stroke="#CB68FD" stroke-width="2"/>
<path d="M104 537L109.196 546H98.8038L104 537Z" stroke="#0087FF" stroke-width="2"/>
<circle cx="947" cy="489" r="4" fill="#CCCCCD"/>
<circle cx="380" cy="31" r="6" stroke="#A803FC" stroke-width="2"/>
<defs>
<linearGradient id="vision-paint0_linear" x1="720" y1="-0.1875" x2="720" y2="1935.81" gradientUnits="userSpaceOnUse">
<stop stop-color="#001B66"/>
<stop offset="0.5" stop-color="#000E33"/>
</linearGradient>
</defs>
</svg>
