<svg width="1440" height="1883" viewBox="0 0 1440 1883" fill="none" xmlns="http://www.w3.org/2000/svg">
<mask id="vision-mask0" mask-type="alpha" maskUnits="userSpaceOnUse" x="-782" y="-1029" width="3004" height="2912">
<path d="M597.809 1307.93C393.611 1281.62 204.492 1189.45 60.9182 1046.24V1046.24L-775 215.621C-721.789 207.166 -667.916 203.253 -614 203.929C-467.138 204.787 -322.659 239.995 -192.834 306.562C-110.967 348.951 -36.3499 403.353 28.3736 467.842L336.686 774.07C338.505 776.019 340.515 777.968 342.525 780.009C439.429 876.341 571.606 931.742 710.378 934.192C849.15 936.641 983.32 885.941 1083.78 793.093L761.776 1097.65C696.454 1159.29 641.168 1230.19 597.809 1307.93V1307.93Z" stroke="#001B66" stroke-width="6"/>
<path d="M1358.31 1065.93L501.427 1876.32C468.743 1681.63 502.555 1481.92 597.721 1307.57C641.067 1229.9 696.32 1159.07 761.592 1097.48L1083.59 792.92C1134.13 746.293 1174.61 690.405 1202.7 628.496C1230.79 566.587 1245.92 499.888 1247.22 432.267C1248.52 364.645 1235.96 297.446 1210.27 234.566C1184.58 171.685 1146.28 114.373 1097.57 65.9531L1411.53 378.027C1476.23 442.509 1550.86 496.883 1632.74 539.215C1605.8 739.96 1508.99 925.777 1358.31 1065.93V1065.93Z" stroke="#001B66" stroke-width="6"/>
<path d="M2215 630.702C2161.81 639.081 2107.98 642.962 2054.1 642.302C1907.23 641.375 1762.76 606.138 1632.93 539.576C1551.05 497.245 1476.43 442.871 1411.72 378.389L1097.48 66.1289C1049.15 18.0206 991.526 -20.3836 927.886 -46.8886C864.247 -73.3936 795.843 -87.4796 726.584 -88.3414C657.326 -89.2032 588.571 -76.8239 524.251 -51.9112C459.93 -26.9985 401.305 9.9592 351.725 56.8493L669.418 -243.626C737.177 -307.481 794.128 -381.294 838.172 -462.347C1043.77 -436.659 1234.33 -344.223 1378.8 -200.104L2215 630.702Z" stroke="#001B66" stroke-width="6"/>
<path d="M336.525 774.26L28.2129 468.032C-36.5105 403.543 -111.127 349.14 -192.995 306.752C-166.654 110.074 -73.1826 -72.4018 72.5311 -211.609L929.508 -1022C938.201 -970.443 942.205 -918.246 941.473 -866.009C940.552 -725.307 905.083 -586.84 838 -462.067C793.956 -381.014 737.005 -307.201 669.246 -243.345L351.553 57.1293C252.461 150.828 195.345 278.544 192.534 412.711C189.722 546.878 241.44 676.737 336.525 774.26V774.26Z" stroke="#001B66" stroke-width="6"/>
<path d="M751.689 682.914C806.086 675.722 854.641 650.186 891.042 612.84L891.073 612.871L1108 390.462C1094.4 388.232 1080.46 387.164 1066.23 387.352C1026.34 387.823 989.376 397.56 956.965 414.835C935.734 426.143 916.45 440.685 899.553 457.992L819.528 540.033C819.026 540.567 818.523 541.101 818.021 541.635C793.555 566.7 759.541 582.436 721.759 582.938C684.542 583.409 650.591 568.961 625.654 545.153L709.165 626.66C726.156 643.244 740.477 662.153 751.689 682.914Z" stroke="#001B66" stroke-width="6" stroke-miterlimit="10"/>
<path d="M554.486 618.02L776.909 834.996C779.139 821.396 780.207 807.45 780.019 793.222C779.516 752.861 769.56 715.452 751.878 682.755C740.666 661.962 726.344 643.085 709.353 626.501L625.78 544.962C600.026 520.431 583.789 485.944 583.318 447.562C582.846 409.776 597.702 375.383 622.168 350.318L540.667 433.867C523.77 451.205 504.486 465.716 483.255 477.024C490.448 532.178 516.421 581.334 554.486 618.02Z" stroke="#001B66" stroke-width="6" stroke-miterlimit="10"/>
<path d="M819.403 539.939L899.427 457.898C916.324 440.56 935.608 426.049 956.839 414.741C949.804 360.686 924.71 312.378 887.901 275.975L665.509 58.999C663.279 72.5679 662.211 86.545 662.4 100.773C662.871 140.161 672.356 176.753 689.253 208.916C700.653 230.62 715.415 250.282 733.034 267.463L815.508 347.934C840.571 372.402 856.337 406.418 856.808 444.235C857.248 481.235 842.989 514.969 819.403 539.939Z" stroke="#001B66" stroke-width="6" stroke-miterlimit="10"/>
<path d="M332 501.589C345.599 503.819 359.544 504.887 373.771 504.698C413.658 504.227 450.655 494.49 483.098 477.184C504.329 465.876 523.613 451.365 540.51 434.027L622.073 350.416C646.508 325.319 680.553 309.583 718.367 309.112C756.18 308.641 790.571 323.529 815.634 348.028L733.191 267.589C715.571 250.408 700.81 230.714 689.41 209.042C634.573 216.046 585.641 241.613 548.99 279.179L332 501.589Z" stroke="#001B66" stroke-width="6" stroke-miterlimit="10"/>
</mask>
<g mask="url(#vision-mask0)">
<rect y="-0.1875" width="1440" height="1936" fill="url(#paint0_linear)"/>
</g>
<defs>
<linearGradient id="paint0_linear" x1="720" y1="-0.1875" x2="720" y2="1935.81" gradientUnits="userSpaceOnUse">
<stop stop-color="#001B66"/>
<stop offset="0.5" stop-color="#000E33"/>
</linearGradient>
</defs>
</svg>
