<svg width="380" height="844" viewBox="0 0 380 844" fill="none" xmlns="http://www.w3.org/2000/svg">
<path fill-rule="evenodd" clip-rule="evenodd" d="M16 0C13.7909 0 12 1.79088 12 4.00002V813.727C12 815.936 13.7909 817.727 16 817.727H368C370.209 817.727 372 815.936 372 813.727V4C372 1.79086 370.209 0 368 0H16ZM60 844L76 817.728H60V844Z" fill="#001B66"/>
<rect y="2.56224" width="18.7513" height="18.7513" transform="matrix(0.52014 0.854081 -0.52014 0.854081 13.3405 652.257)" stroke="#A803FC" stroke-width="3"/>
<rect x="364" y="197.042" width="16" height="26.2724" fill="#99EC79"/>
<path d="M63.9631 81H72.1449V75.4261C72.1449 71.4119 73.4744 68.267 75.392 65.25L70.5852 62.4119C67.0312 65.3011 63.9631 70.7983 63.9631 75.4773V81ZM76.875 81H85.0568V75.4261C85.0568 71.4119 86.3864 68.267 88.304 65.25L83.4972 62.4119C79.9432 65.3011 76.875 70.7983 76.875 75.4773V81Z" fill="#FF5D00"/>
</svg>
