<svg width="370" height="494" viewBox="0 0 370 494" fill="none" xmlns="http://www.w3.org/2000/svg">
<path fill-rule="evenodd" clip-rule="evenodd" d="M14 10C11.7909 10 10 11.7909 10 14V474C10 476.209 11.7909 478 14 478H58V494L74 478H366C368.209 478 370 476.209 370 474V14C370 11.7909 368.209 10 366 10H14Z" fill="#001B66"/>
<path d="M10 412L16.9282 424H3.0718L10 412Z" stroke="#0087FF" stroke-width="3"/>
<circle cx="314" cy="10" r="8" stroke="#A803FC" stroke-width="3"/>
<path d="M61.9631 91H70.1449V85.4261C70.1449 81.4119 71.4744 78.267 73.392 75.25L68.5852 72.4119C65.0312 75.3011 61.9631 80.7983 61.9631 85.4773V91ZM74.875 91H83.0568V85.4261C83.0568 81.4119 84.3864 78.267 86.304 75.25L81.4972 72.4119C77.9432 75.3011 74.875 80.7983 74.875 85.4773V91Z" fill="#FF5D00"/>
</svg>
