<svg width="380" height="514" viewBox="0 0 380 514" fill="none" xmlns="http://www.w3.org/2000/svg">
<path fill-rule="evenodd" clip-rule="evenodd" d="M16 0C13.7909 0 12 1.79087 12 4.00001V494C12 496.209 13.7909 498 16 498H60V514L76 498H368C370.209 498 372 496.209 372 494V4C372 1.79086 370.209 0 368 0H16Z" fill="#001B66"/>
<rect x="12.002" y="399.121" width="13" height="13" transform="rotate(45 12.002 399.121)" stroke="#A803FC" stroke-width="3"/>
<rect x="364" y="120" width="16" height="16" fill="#99EC79"/>
<path d="M63.9631 81H72.1449V75.4261C72.1449 71.4119 73.4744 68.267 75.392 65.25L70.5852 62.4119C67.0312 65.3011 63.9631 70.7983 63.9631 75.4773V81ZM76.875 81H85.0568V75.4261C85.0568 71.4119 86.3864 68.267 88.304 65.25L83.4972 62.4119C79.9432 65.3011 76.875 70.7983 76.875 75.4773V81Z" fill="#FF5D00"/>
</svg>
