<svg width="1440" height="1883" viewBox="0 0 1440 1883" fill="none" xmlns="http://www.w3.org/2000/svg">
<mask id="mask0" mask-type="alpha" maskUnits="userSpaceOnUse" x="-781" y="-1107" width="3003" height="3131">
<path d="M597.809 1405.45C393.611 1377.16 204.492 1278.03 60.9182 1124.03V1124.03L-775 230.761C-721.789 221.668 -667.916 217.46 -614 218.187C-467.138 219.109 -322.659 256.972 -192.834 328.56C-110.967 374.146 -36.3499 432.651 28.3736 502.004L336.686 831.328C338.505 833.423 340.515 835.519 342.525 837.714C439.429 941.312 571.606 1000.89 710.378 1003.53C849.15 1006.16 983.32 951.636 1083.78 851.786L761.776 1179.31C696.454 1245.6 641.168 1321.85 597.809 1405.45V1405.45Z" stroke="#001B66" stroke-width="6"/>
<path d="M1358.31 1145.2L501.427 2016.71C468.743 1807.33 502.555 1592.56 597.721 1405.06C641.067 1321.54 696.32 1245.36 761.592 1179.13L1083.59 851.599C1134.13 801.455 1174.61 741.352 1202.7 674.774C1230.79 608.195 1245.92 536.466 1247.22 463.745C1248.52 391.024 1235.96 318.757 1210.27 251.133C1184.58 183.51 1146.28 121.876 1097.57 69.8041L1411.53 405.415C1476.23 474.76 1550.86 533.235 1632.74 578.759C1605.8 794.645 1508.99 994.476 1358.31 1145.2V1145.2Z" stroke="#001B66" stroke-width="6"/>
<path d="M2215 677.146C2161.81 686.157 2107.98 690.331 2054.1 689.621C1907.23 688.624 1762.76 650.729 1632.93 579.148C1551.05 533.623 1476.43 475.149 1411.72 405.804L1097.48 69.993C1049.15 18.2563 991.526 -23.0444 927.886 -51.5483C864.247 -80.0523 795.843 -95.2006 726.584 -96.1274C657.326 -97.0542 588.571 -83.7414 524.251 -56.9498C459.93 -30.1582 401.305 9.58691 351.725 60.0135L669.418 -263.123C737.177 -331.795 794.128 -411.175 838.172 -498.34C1043.77 -470.715 1234.33 -371.308 1378.8 -216.319L2215 677.146Z" stroke="#001B66" stroke-width="6"/>
<path d="M336.525 831.531L28.2129 502.207C-36.5105 432.855 -111.127 374.349 -192.995 328.764C-166.654 117.253 -73.1826 -78.9854 72.5311 -228.692L929.508 -1100.2C938.201 -1044.76 942.205 -988.622 941.473 -932.446C940.552 -781.133 905.083 -632.223 838 -498.039C793.956 -410.873 737.005 -331.493 669.246 -262.822L351.553 60.3149C252.461 161.081 195.345 298.428 192.534 442.714C189.722 587 241.44 726.653 336.525 831.531V831.531Z" stroke="#001B66" stroke-width="6"/>
<path d="M845.106 549.11C843.219 556.155 838.243 562.063 831.275 565.535C824.306 569.007 815.916 569.758 807.948 567.623L567.626 503.229C559.659 501.095 552.768 496.249 548.469 489.758C544.17 483.267 542.816 475.662 544.703 468.617L594.526 282.678C596.413 275.633 601.389 269.725 608.357 266.253C615.325 262.781 623.716 262.03 631.683 264.164L706.784 284.288L726.148 332.181L861.329 368.403C869.297 370.538 876.188 375.383 880.487 381.875C884.785 388.366 886.14 395.97 884.252 403.015L845.106 549.11Z" stroke="#0036CC" stroke-width="6" stroke-linecap="round" stroke-linejoin="round"/>
<path d="M730.935 464.677L766.153 443.761C761.08 442.482 755.775 442.423 750.672 443.588C747.395 444.352 744.255 445.617 741.364 447.339L741.36 447.342L726.363 456.244C726.235 456.324 726.079 456.417 726.068 456.424L726.054 456.432L726.04 456.441C720.635 459.653 714.181 460.603 708.079 459.087C707.562 458.959 707.052 458.813 706.549 458.652L707.685 460.565C709.32 463.31 710.607 466.246 711.518 469.303C718.293 469.779 725.07 468.175 730.93 464.68L730.935 464.677Z" fill="url(#paint0_linear)" stroke="black" stroke-width="6"/>
<path d="M682.614 454.73L706.83 495.499C710.139 488.15 710.957 479.921 709.16 472.065C708.323 468.555 706.958 465.193 705.112 462.093L696.012 446.772C694.572 444.414 693.614 441.793 693.194 439.061C692.774 436.33 692.9 433.543 693.565 430.86C694.231 428.178 695.422 425.655 697.07 423.436C698.718 421.218 700.789 419.349 703.165 417.937L687.852 427.035C684.695 428.917 681.264 430.298 677.684 431.129C676.591 439.328 678.331 447.654 682.614 454.73Z" fill="url(#paint1_linear)"/>
<path d="M654.446 428.772C656.393 429.648 658.412 430.353 660.48 430.879C666.109 432.348 672.01 432.439 677.681 431.143C681.262 430.312 684.692 428.931 687.85 427.049L703.175 417.947C705.533 416.544 708.144 415.619 710.859 415.225C713.575 414.831 716.341 414.977 719 415.653C721.659 416.329 724.159 417.522 726.356 419.165C728.554 420.808 730.406 422.867 731.807 425.226L722.829 410.11C720.912 406.895 719.514 403.398 718.686 399.748C710.548 398.654 702.279 400.348 695.227 404.555L654.446 428.772Z" fill="url(#paint2_linear)"/>
<path d="M724.795 453.695L739.83 444.77C742.988 442.888 746.419 441.506 749.999 440.673C751.071 432.64 749.425 424.48 745.322 417.492L721.102 376.722C720.224 378.668 719.519 380.687 718.995 382.756C717.542 388.319 717.435 394.147 718.682 399.76C719.51 403.41 720.909 406.907 722.826 410.122L731.804 425.238C734.604 429.952 735.439 435.578 734.128 440.902C732.817 446.226 729.464 450.821 724.795 453.695Z" fill="url(#paint3_linear)"/>
<circle cx="720" cy="416" r="349" stroke="#002999" stroke-width="6"/>
</mask>
<g mask="url(#mask0)">
<rect y="-1" width="1440" height="1439" fill="url(#paint4_linear)"/>
</g>
<rect x="1292" y="278" width="16.9119" height="17.2478" fill="#99EC79"/>
<rect width="16.992" height="17.1689" transform="matrix(0.869567 0.493816 -0.479211 0.8777 1243.23 490)" fill="#FF5D00"/>
<rect x="1014.2" y="218.121" width="13.9119" height="14.2478" transform="rotate(45 1014.2 218.121)" stroke="#CB68FD" stroke-width="3"/>
<path d="M260.945 183.998L258.616 204.854L241.864 192.733L260.945 183.998Z" fill="#CCCCCD"/>
<ellipse cx="1042.46" cy="550.609" rx="7.46114" ry="7.60934" fill="#CCCCCD"/>
<ellipse cx="472.461" cy="169.609" rx="7.46114" ry="7.60934" stroke="#A803FC" stroke-width="3"/>
<defs>
<linearGradient id="paint0_linear" x1="780.276" y1="429.622" x2="715.485" y2="452.167" gradientUnits="userSpaceOnUse">
<stop stop-color="#C906F9"/>
<stop offset="0.448312" stop-color="#A803FC"/>
<stop offset="0.862484" stop-color="#8700FF"/>
</linearGradient>
<linearGradient id="paint1_linear" x1="686.243" y1="427.701" x2="659.449" y2="474.385" gradientUnits="userSpaceOnUse">
<stop stop-color="#0044FF"/>
<stop offset="0.489583" stop-color="#0087FF"/>
<stop offset="1" stop-color="#00CAFF"/>
</linearGradient>
<linearGradient id="paint2_linear" x1="653.906" y1="430.291" x2="678.966" y2="445.891" gradientUnits="userSpaceOnUse">
<stop stop-color="#B0FF33"/>
<stop offset="0.494792" stop-color="#55DF20"/>
<stop offset="1" stop-color="#0AC222"/>
</linearGradient>
<linearGradient id="paint3_linear" x1="701.888" y1="447.12" x2="750.964" y2="448.525" gradientUnits="userSpaceOnUse">
<stop stop-color="#FF8100"/>
<stop offset="0.0001" stop-color="#FF8100"/>
<stop offset="0.5" stop-color="#FF5D00"/>
<stop offset="1" stop-color="#FF3600"/>
</linearGradient>
<linearGradient id="paint4_linear" x1="720" y1="-1" x2="720" y2="1438" gradientUnits="userSpaceOnUse">
<stop stop-color="#001B66"/>
<stop offset="0.5" stop-color="#000E33"/>
</linearGradient>
</defs>
</svg>
