<svg width="368" height="574" viewBox="0 0 368 574" fill="none" xmlns="http://www.w3.org/2000/svg">
<path fill-rule="evenodd" clip-rule="evenodd" d="M4 0C1.79086 0 0 1.79087 0 4.00001V554C0 556.209 1.79087 558 4.00001 558H48V574L64 558H356C358.209 558 360 556.209 360 554V4C360 1.79086 358.209 0 356 0H4Z" fill="#001B66"/>
<rect x="353.5" y="81.5" width="13" height="13" stroke="#FF5D00" stroke-width="3"/>
<circle cx="192" cy="558" r="8" stroke="#CCCCCD" stroke-width="3"/>
<path d="M51.9631 81H60.1449V75.4261C60.1449 71.4119 61.4744 68.267 63.392 65.25L58.5852 62.4119C55.0312 65.3011 51.9631 70.7983 51.9631 75.4773V81ZM64.875 81H73.0568V75.4261C73.0568 71.4119 74.3864 68.267 76.304 65.25L71.4972 62.4119C67.9432 65.3011 64.875 70.7983 64.875 75.4773V81Z" fill="#FF5D00"/>
</svg>
