<svg width="81" height="20" viewBox="0 0 81 20" fill="none" xmlns="http://www.w3.org/2000/svg">
<mask id="mask0" mask-type="alpha" maskUnits="userSpaceOnUse" x="0" y="0" width="18" height="20">
<path fill-rule="evenodd" clip-rule="evenodd" d="M0.000244141 0H17.1049V19.9999H0.000244141V0Z" fill="white"/>
</mask>
<g mask="url(#mask0)">
<path fill-rule="evenodd" clip-rule="evenodd" d="M8.55243 19.9999C8.55243 19.9999 17.1049 17.0891 17.1049 6.4043V2.55892C17.1049 2.1398 16.7787 1.80025 16.3669 1.77118C14.8138 1.69858 11.1319 1.38222 8.55243 0C5.97318 1.38222 2.29133 1.69858 0.737923 1.77118C0.326232 1.80025 0.000244141 2.1398 0.000244141 2.55892V6.4043C0.000244141 17.0891 8.55243 19.9999 8.55243 19.9999Z" fill="#00ADEE"/>
</g>
<mask id="mask1" mask-type="alpha" maskUnits="userSpaceOnUse" x="0" y="0" width="81" height="20">
<path fill-rule="evenodd" clip-rule="evenodd" d="M0 20H80.3424V0H0V20Z" fill="white"/>
</mask>
<g mask="url(#mask1)">
<path fill-rule="evenodd" clip-rule="evenodd" d="M35.2329 17.7881H38.8412V6.83113H35.2329V17.7881ZM39.1052 3.33273C39.1052 3.61149 39.0505 3.87188 38.9403 4.11369C38.8305 4.35594 38.6834 4.56496 38.5002 4.74074C38.3167 4.91697 38.0968 5.05646 37.8402 5.15899C37.5833 5.26175 37.3157 5.31313 37.0371 5.31313C36.4503 5.31313 35.959 5.11877 35.563 4.73003C35.1668 4.34152 34.9688 3.8756 34.9688 3.33273C34.9688 3.06861 35.0202 2.81565 35.1229 2.57384C35.2254 2.33159 35.3722 2.12257 35.563 1.94679C35.7535 1.77056 35.9736 1.6278 36.2232 1.51761C36.4723 1.40763 36.7435 1.35254 37.0371 1.35254C37.3157 1.35254 37.5833 1.40413 37.8402 1.50667C38.0968 1.60943 38.3167 1.74849 38.5002 1.92471C38.6834 2.10071 38.8305 2.30973 38.9403 2.55175C39.0505 2.79379 39.1052 3.0544 39.1052 3.33273Z" fill="#404042"/>
<path fill-rule="evenodd" clip-rule="evenodd" d="M45.3815 9.51473V13.7112C45.3815 14.2266 45.4804 14.6129 45.6787 14.8706C45.8768 15.1286 46.2323 15.2572 46.7454 15.2572C46.9215 15.2572 47.1086 15.2428 47.3067 15.213C47.5049 15.184 47.6698 15.14 47.8017 15.0812L47.8458 17.7215C47.5961 17.8093 47.2811 17.8863 46.8995 17.9523C46.518 18.0186 46.1367 18.0516 45.7556 18.0516C45.0217 18.0516 44.406 17.9593 43.9073 17.7758C43.4088 17.5923 43.0084 17.3275 42.7081 16.9816C42.4074 16.636 42.1912 16.2241 42.0593 15.7463C41.927 15.2684 41.8611 14.7353 41.8611 14.1469V9.51473H40.1008V6.83053H41.8394V3.94824H45.3815V6.83053H47.9557V9.51473H45.3815Z" fill="#404042"/>
<path fill-rule="evenodd" clip-rule="evenodd" d="M61.014 17.8114C59.9943 18.0607 58.8834 18.1856 57.6807 18.1856C56.4336 18.1856 55.2858 17.9878 54.2371 17.5913C53.1884 17.1954 52.2865 16.6381 51.5309 15.9194C50.7755 15.2007 50.1852 14.3388 49.7597 13.3341C49.3343 12.3297 49.1218 11.2108 49.1218 9.97883C49.1218 8.73216 49.3382 7.60247 49.7711 6.5904C50.2036 5.57833 50.8013 4.71668 51.5641 4.00524C52.3265 3.29402 53.2212 2.74764 54.2486 2.3659C55.2749 1.98481 56.3827 1.79395 57.5705 1.79395C58.8027 1.79395 59.9469 1.9811 61.0028 2.35518C62.0591 2.72905 62.917 3.23171 63.5774 3.86203L61.2009 6.56831C60.8341 6.14329 60.3502 5.79499 59.7488 5.52323C59.1474 5.25212 58.4652 5.11635 57.7026 5.11635C57.0425 5.11635 56.4336 5.23725 55.8763 5.47929C55.3188 5.72131 54.8347 6.05911 54.4241 6.49135C54.0136 6.92425 53.6943 7.4374 53.4671 8.03165C53.2395 8.62568 53.1263 9.2746 53.1263 9.97883C53.1263 10.6977 53.2288 11.3576 53.4344 11.9588C53.6396 12.5605 53.9438 13.0775 54.3474 13.51C54.7508 13.9429 55.2497 14.2803 55.8436 14.522C56.4374 14.7641 57.1157 14.8853 57.8786 14.8853C58.3187 14.8853 58.7368 14.8523 59.1328 14.7862C59.5287 14.7201 59.8955 14.6139 60.2331 14.4672V11.6291H57.2625V8.59267H63.6875V16.8433C62.9245 17.2395 62.0331 17.5623 61.014 17.8114Z" fill="#404042"/>
<path fill-rule="evenodd" clip-rule="evenodd" d="M73.7771 12.267C73.7771 11.9149 73.7186 11.5703 73.6013 11.233C73.4837 10.8956 73.3154 10.5985 73.0955 10.3416C72.8752 10.0851 72.6037 9.87611 72.2812 9.71454C71.9584 9.55341 71.5844 9.47273 71.1589 9.47273C70.7332 9.47273 70.3592 9.55341 70.0369 9.71454C69.7142 9.87611 69.4462 10.0851 69.2338 10.3416C69.0211 10.5985 68.8598 10.8956 68.75 11.233C68.6399 11.5703 68.5848 11.9149 68.5848 12.267C68.5848 12.6189 68.6399 12.9639 68.75 13.3009C68.8598 13.6384 69.0249 13.9428 69.2448 14.2141C69.4648 14.4856 69.7361 14.7018 70.0588 14.863C70.3814 15.0246 70.7556 15.1051 71.1811 15.1051C71.6063 15.1051 71.9801 15.0246 72.3031 14.863C72.6254 14.7018 72.8971 14.4856 73.117 14.2141C73.337 13.9428 73.5023 13.6384 73.6123 13.3009C73.7225 12.9639 73.7771 12.6189 73.7771 12.267ZM77.2537 12.267C77.2537 13.1617 77.0919 13.9721 76.7696 14.6981C76.4467 15.424 76.0065 16.0403 75.4493 16.5462C74.8918 17.0524 74.2463 17.4451 73.5132 17.7234C72.7798 18.0017 71.9952 18.1412 71.1589 18.1412C70.3375 18.1412 69.5563 18.0017 68.8161 17.7234C68.0749 17.4451 67.4299 17.0524 66.8795 16.5462C66.3298 16.0403 65.8926 15.424 65.5706 14.6981C65.2476 13.9721 65.0863 13.1617 65.0863 12.267C65.0863 11.3722 65.2476 10.5657 65.5706 9.84681C65.8926 9.12815 66.3298 8.51925 66.8795 8.02054C67.4299 7.52205 68.0749 7.14053 68.8161 6.87641C69.5563 6.6123 70.3375 6.48047 71.1589 6.48047C71.9952 6.48047 72.7798 6.6123 73.5132 6.87641C74.2463 7.14053 74.8918 7.52205 75.4493 8.02054C76.0065 8.51925 76.4467 9.12815 76.7696 9.84681C77.0919 10.5657 77.2537 11.3722 77.2537 12.267Z" fill="#404042"/>
<path fill-rule="evenodd" clip-rule="evenodd" d="M78.8139 16.8033H79.0766C79.3461 16.8033 79.4336 16.7259 79.4336 16.5676C79.4336 16.4296 79.366 16.3522 79.1135 16.3522H78.8139V16.8033ZM78.8139 17.6111H78.5916V16.1701H79.1438C79.4874 16.1701 79.6557 16.298 79.6557 16.5809C79.6557 16.8402 79.4939 16.9515 79.2786 16.9784L79.6894 17.6111H79.4472L79.0632 16.9849H78.8139V17.6111ZM79.08 15.8436C78.5008 15.8436 78.0531 16.2915 78.0531 16.8874C78.0531 17.4967 78.5008 17.9378 79.08 17.9378C79.6522 17.9378 80.1001 17.4967 80.1001 16.8874C80.1001 16.2915 79.6522 15.8436 79.08 15.8436ZM79.08 15.6416C79.76 15.6416 80.3424 16.1701 80.3424 16.8874C80.3424 17.6111 79.76 18.1398 79.08 18.1398C78.393 18.1398 77.8106 17.6111 77.8106 16.8874C77.8106 16.1701 78.393 15.6416 79.08 15.6416Z" fill="#404042"/>
<path fill-rule="evenodd" clip-rule="evenodd" d="M10.1684 8.23674C10.1603 9.3496 8.43238 9.20749 7.87616 9.20355L7.87201 7.23648C8.42822 7.2402 10.1767 7.07578 10.1684 8.23674ZM10.6052 11.3001C10.5969 12.5233 8.52224 12.3694 7.85453 12.3655L7.85103 10.1964C8.51896 10.2012 10.6142 10.0241 10.6052 11.3001ZM12.0084 7.80931C11.9043 6.64158 10.9049 6.24322 9.63401 6.12318L9.63991 4.49216L8.65473 4.49741L8.65823 6.07334C8.39915 6.0718 8.11995 6.07486 7.85692 6.07836L7.85802 4.48145L6.86518 4.48495L6.87174 6.10308C6.65836 6.10591 4.88566 6.11006 4.88566 6.11006L4.88391 7.14422L6.14566 7.14225L6.14151 12.3443L5.03761 12.3502L5.02865 13.5358C5.02865 13.5358 6.58905 13.529 6.81949 13.5324L6.82299 15.1693L7.79898 15.1743L7.80402 13.5567C8.07403 13.564 8.33574 13.5682 8.59089 13.57L8.58717 15.1819L9.58022 15.1818L9.57628 13.5546C11.2331 13.4713 12.3956 13.062 12.5506 11.508C12.6755 10.2561 12.0904 9.69309 11.1518 9.46067C11.725 9.17383 12.0859 8.66374 12.0082 7.80931H12.0084Z" fill="#FEFEFE"/>
<path fill-rule="evenodd" clip-rule="evenodd" d="M30.3413 12.9029C30.3413 12.2576 30.0995 11.8103 29.6152 11.5608C29.1314 11.3116 28.4857 11.1867 27.6792 11.1867H25.589V14.751H27.7013C27.9945 14.751 28.2986 14.7256 28.6143 14.6739C28.9294 14.6226 29.2156 14.531 29.4722 14.3992C29.7289 14.2669 29.9377 14.0801 30.0995 13.838C30.2606 13.5958 30.3413 13.2845 30.3413 12.9029ZM29.8353 6.72021C29.8353 6.19243 29.6336 5.80719 29.2302 5.56515C28.8265 5.32313 28.229 5.20222 27.4371 5.20222H25.589V8.41443H27.6132C28.3171 8.41443 28.8636 8.27144 29.2522 7.98525C29.6408 7.69927 29.8353 7.27773 29.8353 6.72021ZM34.1036 13.2548C34.1036 14.1057 33.935 14.8207 33.5976 15.4001C33.2601 15.9797 32.8127 16.4451 32.2555 16.7972C31.698 17.1492 31.0637 17.4024 30.3525 17.5563C29.6408 17.7102 28.9112 17.7874 28.1632 17.7874H21.9586V2.20996H28.1632C28.7645 2.20996 29.3803 2.27227 30.0114 2.39689C30.6419 2.52173 31.2139 2.73447 31.7275 3.03488C32.2408 3.33572 32.6588 3.74282 32.9815 4.25618C33.304 4.76976 33.4658 5.42216 33.4658 6.21429C33.4658 7.07987 33.2311 7.79503 32.7617 8.35933C32.292 8.92429 31.6758 9.33139 30.9134 9.58064V9.62458C31.3536 9.69804 31.7677 9.8336 32.1567 10.0315C32.5451 10.2295 32.8827 10.4827 33.1687 10.7908C33.4546 11.0986 33.6819 11.4585 33.8506 11.8689C34.0192 12.2795 34.1036 12.7417 34.1036 13.2548Z" fill="#404042"/>
</g>
</svg>
