<svg width="93" height="25" viewBox="0 0 93 25" fill="none" xmlns="http://www.w3.org/2000/svg">
<path fill-rule="evenodd" clip-rule="evenodd" d="M30.1205 15.7702C30.1205 16.2305 30.2069 16.661 30.3793 17.0627C30.5519 17.464 30.7857 17.8154 31.0814 18.1162C31.3774 18.4174 31.7241 18.6538 32.1226 18.8251C32.5209 18.9966 32.9461 19.0823 33.3979 19.0823C33.8495 19.0823 34.2745 18.9966 34.673 18.8251C35.0712 18.6538 35.4185 18.4174 35.7142 18.1162C36.0098 17.8154 36.2419 17.464 36.4104 17.0627C36.5787 16.661 36.663 16.2305 36.663 15.7702C36.663 15.3102 36.5787 14.8796 36.4104 14.478C36.2419 14.0766 36.0098 13.7253 35.7142 13.4242C35.4185 13.1232 35.0712 12.8868 34.673 12.7156C34.2745 12.5441 33.8495 12.4581 33.3979 12.4581C32.9461 12.4581 32.5209 12.5441 32.1226 12.7156C31.7241 12.8868 31.3774 13.1232 31.0814 13.4242C30.7857 13.7253 30.5519 14.0766 30.3793 14.478C30.2069 14.8796 30.1205 15.3102 30.1205 15.7702ZM27.3729 6.64801C27.3729 6.44784 27.4078 6.25993 27.4778 6.08452C27.5473 5.90911 27.644 5.75716 27.7673 5.62763C27.8904 5.49835 28.0361 5.39566 28.2046 5.3206C28.3728 5.24554 28.5557 5.20801 28.7529 5.20801C28.9501 5.20801 29.1306 5.24554 29.295 5.3206C29.4591 5.39566 29.603 5.49835 29.7263 5.62763C29.8494 5.75716 29.9438 5.90911 30.0097 6.08452C30.0754 6.25993 30.1082 6.44784 30.1082 6.64801V11.3561C30.2477 11.1142 30.4367 10.8888 30.675 10.68C30.9129 10.4715 31.1802 10.2898 31.4758 10.1353C31.7715 9.98099 32.0836 9.8598 32.4121 9.77223C32.7406 9.68465 33.0692 9.64061 33.3979 9.64061C34.2191 9.64061 34.9953 9.80168 35.7265 10.1228C36.4573 10.4444 37.0941 10.8825 37.6362 11.4377C38.1784 11.9928 38.6074 12.6421 38.9236 13.3849C39.2398 14.1279 39.398 14.9208 39.398 15.7639C39.398 16.6073 39.2398 17.3981 38.9236 18.137C38.6074 18.8756 38.1784 19.5204 37.6362 20.0714C37.0941 20.6224 36.4573 21.0587 35.7265 21.3801C34.9953 21.7014 34.2191 21.8622 33.3979 21.8622C32.5681 21.8622 31.79 21.7014 31.063 21.3801C30.3362 21.0587 29.6974 20.6224 29.147 20.0714C28.5967 19.5204 28.1633 18.8756 27.8474 18.137C27.5309 17.3981 27.3729 16.6073 27.3729 15.7639V6.64801ZM41.1969 11.0306C41.1969 10.8471 41.2336 10.6696 41.3072 10.4984C41.3808 10.3274 41.4811 10.1794 41.6078 10.054C41.7345 9.92866 41.884 9.82857 42.0555 9.75351C42.2274 9.67819 42.4071 9.64066 42.5951 9.64066C42.7833 9.64066 42.959 9.67819 43.1226 9.75351C43.286 9.82857 43.4273 9.92866 43.5458 10.054C43.6642 10.1794 43.7584 10.3274 43.8279 10.4984C43.8974 10.6696 43.9322 10.8471 43.9322 11.0306V20.4598C43.9322 20.6519 43.8974 20.8312 43.8279 20.998C43.7584 21.1651 43.6624 21.3111 43.5396 21.4364C43.4168 21.5615 43.2739 21.6598 43.1103 21.7307C42.9467 21.8013 42.771 21.837 42.5831 21.837C42.3948 21.837 42.2168 21.8013 42.0494 21.7307C41.8817 21.6598 41.7345 21.5615 41.6078 21.4364C41.4811 21.3111 41.3808 21.1651 41.3072 20.998C41.2336 20.8312 41.1969 20.6519 41.1969 20.4598V11.0306ZM41.0862 6.87351C41.0862 6.665 41.1249 6.46848 41.2026 6.285C41.2803 6.10125 41.3867 5.94044 41.5216 5.80283C41.6565 5.66521 41.814 5.55653 41.994 5.47729C42.174 5.39806 42.3705 5.35819 42.5831 5.35819C42.7874 5.35819 42.9795 5.39806 43.1595 5.47729C43.3396 5.55653 43.497 5.66521 43.6319 5.80283C43.7671 5.94044 43.8753 6.10125 43.9571 6.285C44.0389 6.46848 44.0799 6.665 44.0799 6.87351C44.0799 7.09062 44.0389 7.29078 43.9571 7.47453C43.8753 7.65828 43.7671 7.81883 43.6319 7.9567C43.497 8.09432 43.3396 8.203 43.1595 8.28223C42.9795 8.36173 42.7874 8.40108 42.5831 8.40108C42.3705 8.40108 42.174 8.36173 41.994 8.28223C41.814 8.203 41.6565 8.09432 41.5216 7.9567C41.3867 7.81883 41.2803 7.65828 41.2026 7.47453C41.1249 7.29078 41.0862 7.09062 41.0862 6.87351ZM45.7174 7.41185C45.7174 7.21168 45.7543 7.02585 45.8281 6.85461C45.9023 6.68364 46.0025 6.53534 46.13 6.41023C46.2574 6.28487 46.4031 6.18478 46.5675 6.10972C46.7316 6.0344 46.9083 5.99687 47.0973 5.99687C47.2861 5.99687 47.4669 6.03257 47.6394 6.10347C47.812 6.17436 47.9639 6.27444 48.0954 6.40372C48.2265 6.53351 48.3313 6.68364 48.4093 6.85461C48.4875 7.02585 48.5265 7.21168 48.5265 7.41185V9.42785H52.8512C53.04 9.42785 53.2187 9.46538 53.387 9.5407C53.5554 9.61577 53.7011 9.71585 53.8245 9.84122C53.9478 9.96632 54.0463 10.1146 54.1201 10.2856C54.194 10.4568 54.2309 10.6385 54.2309 10.8303C54.2309 11.0141 54.194 11.1874 54.1201 11.35C54.0463 11.5129 53.9478 11.655 53.8245 11.7756C53.7011 11.8968 53.5554 11.993 53.387 12.0639C53.2187 12.1348 53.04 12.1702 52.8512 12.1702H48.5265V15.8267C48.5265 16.2859 48.6086 16.7136 48.7729 17.1103C48.9371 17.5067 49.163 17.8531 49.4505 18.1494C49.738 18.4458 50.0767 18.6775 50.467 18.8443C50.8571 19.0114 51.282 19.0948 51.7421 19.0948C52.1445 19.0948 52.5184 19.0364 52.8635 18.9196C53.2085 18.8026 53.5288 18.6149 53.8245 18.3561C53.9886 18.2141 54.1489 18.0994 54.305 18.0116C54.461 17.924 54.6456 17.8802 54.8595 17.8802C55.0154 17.8802 55.1675 17.9138 55.3152 17.9803C55.4632 18.0473 55.5945 18.1411 55.7096 18.262C55.8245 18.3832 55.9168 18.525 55.9868 18.6879C56.0566 18.8505 56.0915 19.0241 56.0915 19.2076C56.0915 19.4247 56.0502 19.6332 55.9684 19.8337C55.886 20.0338 55.763 20.2137 55.5986 20.3721C55.0813 20.8728 54.4958 21.2486 53.8429 21.4991C53.19 21.7493 52.4896 21.8747 51.7421 21.8747C50.9045 21.8747 50.1201 21.7183 49.3889 21.405C48.6578 21.092 48.0213 20.6622 47.4792 20.1151C46.937 19.5686 46.5077 18.9259 46.1918 18.187C45.8753 17.4481 45.7174 16.6531 45.7174 15.8016V7.41185ZM57.8933 16.046C57.8933 15.1688 58.0598 14.3394 58.3924 13.558C58.725 12.7767 59.1766 12.0956 59.7477 11.5147C60.3183 10.934 60.9858 10.4745 61.7498 10.1359C62.5135 9.79761 63.3267 9.6282 64.1891 9.6282H64.214C64.6656 9.6282 65.0146 9.75826 65.2611 10.0181C65.5075 10.2782 65.6309 10.6095 65.6309 11.0119C65.6309 11.2134 65.594 11.3997 65.5198 11.5717C65.446 11.7435 65.3452 11.8905 65.218 12.012C65.0905 12.1337 64.9408 12.2301 64.7684 12.3013C64.5959 12.3724 64.411 12.4081 64.214 12.4081H64.1522C63.6842 12.4165 63.2385 12.5145 62.8156 12.7024C62.3924 12.8903 62.0209 13.1449 61.7006 13.4663C61.38 13.7877 61.1233 14.1611 60.9304 14.587C60.7373 15.0126 60.6365 15.4719 60.6286 15.9642V20.347C60.6286 20.5391 60.5935 20.7184 60.524 20.8855C60.454 21.0526 60.3593 21.1985 60.2406 21.3236C60.1213 21.449 59.9795 21.547 59.8154 21.6179C59.651 21.689 59.4784 21.7245 59.2979 21.7245C59.1089 21.7245 58.9301 21.689 58.7619 21.6179C58.5934 21.547 58.4437 21.4487 58.3124 21.3234C58.1808 21.1983 58.0782 21.0518 58.0041 20.8847C57.9302 20.7174 57.8933 20.5378 57.8933 20.3457V16.046ZM67.414 11.0182C67.414 10.8261 67.4488 10.6468 67.5186 10.4798C67.5884 10.3127 67.685 10.1667 67.8081 10.0414C67.9315 9.91628 68.0751 9.81828 68.2395 9.74713C68.4036 9.6765 68.5803 9.64079 68.7693 9.64079C68.958 9.64079 69.1368 9.6765 69.3053 9.74713C69.4735 9.81828 69.6194 9.91628 69.7425 10.0414C69.8659 10.1667 69.9643 10.3127 70.0382 10.4798C70.1123 10.6468 70.1492 10.8261 70.1492 11.0182V15.9768C70.1492 16.4194 70.2272 16.8283 70.3834 17.2041C70.5393 17.5797 70.755 17.9073 71.0301 18.187C71.3053 18.4666 71.6277 18.6858 71.9972 18.8443C72.367 19.003 72.7694 19.0822 73.2048 19.0822C73.6318 19.0822 74.018 19.0009 74.3629 18.838C74.7079 18.6754 75.0036 18.4544 75.25 18.1745C75.4964 17.8948 75.6852 17.5651 75.8167 17.1854C75.9481 16.8053 76.014 16.3943 76.014 15.9518V11.0182C76.014 10.8261 76.0509 10.6468 76.1247 10.4798C76.1986 10.3127 76.3012 10.1667 76.4327 10.0414C76.564 9.91628 76.712 9.81828 76.8764 9.74713C77.0405 9.6765 77.2172 9.64079 77.4062 9.64079C77.595 9.64079 77.7717 9.6765 77.9358 9.74713C78.1002 9.81828 78.242 9.91628 78.361 10.0414C78.48 10.1667 78.5746 10.3127 78.6443 10.4798C78.7141 10.6468 78.7492 10.8261 78.7492 11.0182V15.9518C78.7492 16.7699 78.6092 17.5359 78.3302 18.2495C78.0509 18.9634 77.665 19.5894 77.1721 20.1279C76.6792 20.6661 76.094 21.0902 75.4162 21.3988C74.7386 21.7079 74.0014 21.8622 73.2048 21.8622C72.3996 21.8622 71.6461 21.7079 70.944 21.3988C70.2416 21.0902 69.6274 20.6661 69.1019 20.1279C68.5762 19.5894 68.1636 18.9634 67.8638 18.2495C67.5637 17.5359 67.414 16.7699 67.414 15.9518V11.0182ZM83.6033 17.0161C83.71 17.3335 83.8624 17.6254 84.0593 17.8928C84.2565 18.16 84.4845 18.3896 84.7433 18.5814C85.002 18.7735 85.2895 18.9237 85.6057 19.0323C85.9216 19.1408 86.2524 19.195 86.5974 19.195C86.9672 19.195 87.2708 19.1637 87.5093 19.1011C87.7473 19.0383 87.9732 18.9406 88.1868 18.8069C88.4825 18.6315 88.7492 18.5439 88.9877 18.5439C89.1765 18.5439 89.3532 18.5835 89.5175 18.6628C89.6817 18.7422 89.8235 18.8488 89.9425 18.982C90.0615 19.1157 90.1561 19.27 90.2259 19.4454C90.2956 19.6208 90.3307 19.8004 90.3307 19.9839C90.3307 20.2677 90.2402 20.5265 90.0597 20.7601C89.8789 20.9939 89.6242 21.1922 89.2957 21.3551C88.9669 21.5177 88.5728 21.6431 88.113 21.7307C87.6529 21.8182 87.1477 21.862 86.5974 21.862C85.7678 21.862 84.9853 21.7015 84.2504 21.3801C83.5151 21.0588 82.8722 20.6225 82.3221 20.0715C81.7718 19.5205 81.3384 18.8757 81.0222 18.1371C80.706 17.3982 80.548 16.6074 80.548 15.764C80.548 14.9125 80.706 14.1155 81.0222 13.3722C81.3384 12.6293 81.7718 11.9825 82.3221 11.4312C82.8722 10.8802 83.5151 10.4442 84.2504 10.1228C84.9853 9.80147 85.7678 9.64066 86.5974 9.64066C87.4188 9.64066 88.193 9.79938 88.92 10.1166C89.6468 10.434 90.2833 10.8638 90.8298 11.4062C91.3758 11.9491 91.811 12.5897 92.1356 13.3284C92.46 14.0673 92.6303 14.8541 92.647 15.6889C92.647 16.0895 92.5216 16.4111 92.271 16.653C92.0205 16.8951 91.6981 17.0161 91.304 17.0161H83.6033ZM89.8379 14.687C89.7391 14.3365 89.5894 14.0154 89.388 13.723C89.1867 13.4308 88.9485 13.1782 88.6736 12.9653C88.3982 12.7526 88.0884 12.5876 87.7432 12.4706C87.3983 12.3539 87.0328 12.2955 86.6466 12.2955C86.2607 12.2955 85.897 12.358 85.5564 12.4834C85.2154 12.6085 84.9094 12.7774 84.6384 12.9903C84.3673 13.2033 84.1352 13.4558 83.9424 13.748C83.7493 14.0402 83.6074 14.3532 83.5172 14.687H89.8379Z" fill="#464547"/>
<path fill-rule="evenodd" clip-rule="evenodd" d="M18.4214 16.7185V4.25039L22.109 6.32593V18.7977L15.3609 22.6105L11.6769 20.5311L18.4214 16.7185ZM0.00376036 11.1559L3.68773 9.08037V16.6903H3.69149L14.7472 22.9208V22.9245L11.0632 25L0 18.7695L0.00376036 11.1559ZM11.0632 0H11.0669L17.8132 3.79579V7.95421L11.0632 4.15862V4.15495H11.0594L0.00376036 10.3889H0V6.23416H0.00376036L11.0632 0ZM6.92698 7.3949L9.43297 5.98918V11.2071C9.69204 11.0286 10.2834 10.5692 11.2065 10.5692C12.3886 10.5692 13.3956 10.9753 14.2272 11.7867C15.0583 12.5983 15.4743 13.5813 15.4743 14.7353C15.4743 15.8897 15.0583 16.8742 14.2272 17.6897C13.3956 18.505 12.3886 18.9129 11.2065 18.9129C10.0164 18.9129 9.00548 18.505 8.17424 17.6897C7.3428 16.8742 6.92698 15.8897 6.92698 14.7353V7.3949ZM9.95348 15.9585C10.3004 16.2975 10.7182 16.4668 11.2065 16.4668C11.687 16.4668 12.1007 16.2975 12.448 15.9585C12.7949 15.6198 12.9685 15.2121 12.9685 14.7353C12.9685 14.2589 12.7949 13.853 12.448 13.518C12.1007 13.1828 11.687 13.0155 11.2065 13.0155C10.7182 13.0155 10.3004 13.1828 9.95348 13.518C9.60614 13.853 9.43297 14.2589 9.43297 14.7353C9.43297 15.2121 9.60614 15.6198 9.95348 15.9585Z" fill="url(#paint0_linear)"/>
<defs>
<linearGradient id="paint0_linear" x1="11.0545" y1="0" x2="11.0545" y2="25" gradientUnits="userSpaceOnUse">
<stop stop-color="#FFE275"/>
<stop offset="1" stop-color="#F0B736"/>
</linearGradient>
</defs>
</svg>
