<svg width="126" height="34" viewBox="0 0 126 34" fill="none" xmlns="http://www.w3.org/2000/svg">
<path fill-rule="evenodd" clip-rule="evenodd" d="M40.964 21.4476C40.964 22.0736 41.0815 22.6591 41.3159 23.2054C41.5506 23.7512 41.8687 24.229 42.2708 24.6381C42.6733 25.0478 43.1448 25.3693 43.6868 25.6022C44.2285 25.8355 44.8067 25.9521 45.4213 25.9521C46.0354 25.9521 46.6134 25.8355 47.1553 25.6022C47.697 25.3693 48.1692 25.0478 48.5714 24.6381C48.9735 24.229 49.2891 23.7512 49.5183 23.2054C49.7471 22.6591 49.8618 22.0736 49.8618 21.4476C49.8618 20.8219 49.7471 20.2364 49.5183 19.6902C49.2891 19.1443 48.9735 18.6665 48.5714 18.2571C48.1692 17.8477 47.697 17.5262 47.1553 17.2933C46.6134 17.06 46.0354 16.9431 45.4213 16.9431C44.8067 16.9431 44.2285 17.06 43.6868 17.2933C43.1448 17.5262 42.6733 17.8477 42.2708 18.2571C41.8687 18.6665 41.5506 19.1443 41.3159 19.6902C41.0815 20.2364 40.964 20.8219 40.964 21.4476ZM37.2273 9.04141C37.2273 8.76918 37.2747 8.51362 37.3699 8.27506C37.4644 8.03651 37.5959 7.82986 37.7637 7.65369C37.9311 7.47788 38.1292 7.33822 38.3583 7.23614C38.5871 7.13405 38.8358 7.08301 39.104 7.08301C39.3722 7.08301 39.6177 7.13405 39.8413 7.23614C40.0645 7.33822 40.2602 7.47788 40.4279 7.65369C40.5953 7.82986 40.7237 8.03651 40.8133 8.27506C40.9026 8.51362 40.9472 8.76918 40.9472 9.04141V15.4444C41.137 15.1155 41.394 14.8089 41.718 14.5249C42.0417 14.2414 42.4051 13.9943 42.8072 13.7841C43.2094 13.5743 43.6338 13.4094 44.0806 13.2903C44.5274 13.1712 44.9741 13.1113 45.4213 13.1113C46.538 13.1113 47.5938 13.3304 48.5881 13.7671C49.5821 14.2045 50.4481 14.8004 51.1854 15.5554C51.9227 16.3104 52.5062 17.1933 52.9362 18.2035C53.3662 19.2141 53.5814 20.2924 53.5814 21.4391C53.5814 22.5861 53.3662 23.6615 52.9362 24.6664C52.5062 25.671 51.9227 26.5479 51.1854 27.2973C50.4481 28.0466 49.5821 28.64 48.5881 29.077C47.5938 29.5141 46.538 29.7328 45.4213 29.7328C44.2926 29.7328 43.2345 29.5141 42.2457 29.077C41.2573 28.64 40.3885 28.0466 39.6401 27.2973C38.8916 26.5479 38.3022 25.671 37.8725 24.6664C37.4421 23.6615 37.2273 22.5861 37.2273 21.4391V9.04141ZM56.0279 15.0018C56.0279 14.7522 56.0778 14.5108 56.1779 14.2779C56.278 14.0454 56.4144 13.8441 56.5867 13.6736C56.759 13.5031 56.9623 13.367 57.1956 13.2649C57.4293 13.1625 57.6738 13.1114 57.9294 13.1114C58.1854 13.1114 58.4243 13.1625 58.6469 13.2649C58.869 13.367 59.0612 13.5031 59.2223 13.6736C59.3835 13.8441 59.5115 14.0454 59.606 14.2779C59.7005 14.5108 59.7479 14.7522 59.7479 15.0018V27.8255C59.7479 28.0867 59.7005 28.3306 59.606 28.5574C59.5115 28.7847 59.381 28.9832 59.214 29.1536C59.0469 29.3238 58.8526 29.4574 58.6301 29.5538C58.4076 29.6499 58.1687 29.6985 57.913 29.6985C57.6571 29.6985 57.415 29.6499 57.1873 29.5538C56.9592 29.4574 56.759 29.3238 56.5867 29.1536C56.4144 28.9832 56.278 28.7847 56.1779 28.5574C56.0778 28.3306 56.0279 28.0867 56.0279 27.8255V15.0018ZM55.8773 9.34809C55.8773 9.06452 55.9299 8.79726 56.0356 8.54772C56.1413 8.29782 56.286 8.07912 56.4695 7.89196C56.6529 7.7048 56.8671 7.55699 57.1119 7.44924C57.3568 7.34148 57.6239 7.28725 57.913 7.28725C58.191 7.28725 58.4522 7.34148 58.6971 7.44924C58.9419 7.55699 59.1561 7.7048 59.3395 7.89196C59.5233 8.07912 59.6705 8.29782 59.7818 8.54772C59.893 8.79726 59.9488 9.06452 59.9488 9.34809C59.9488 9.64336 59.893 9.91558 59.7818 10.1655C59.6705 10.4154 59.5233 10.6337 59.3395 10.8212C59.1561 11.0084 58.9419 11.1562 58.6971 11.264C58.4522 11.3721 58.191 11.4256 57.913 11.4256C57.6239 11.4256 57.3568 11.3721 57.1119 11.264C56.8671 11.1562 56.6529 11.0084 56.4695 10.8212C56.286 10.6337 56.1413 10.4154 56.0356 10.1655C55.9299 9.91558 55.8773 9.64336 55.8773 9.34809ZM62.1757 10.0802C62.1757 9.808 62.2259 9.55527 62.3264 9.32239C62.4272 9.08986 62.5635 8.88818 62.7369 8.71803C62.9102 8.54754 63.1083 8.41142 63.3319 8.30934C63.5551 8.2069 63.7954 8.15586 64.0524 8.15586C64.3091 8.15586 64.555 8.20442 64.7897 8.30083C65.0245 8.39725 65.2309 8.53336 65.4099 8.70917C65.5881 8.88569 65.7307 9.08986 65.8367 9.32239C65.9431 9.55527 65.9961 9.808 65.9961 10.0802V12.822H71.8778C72.1345 12.822 72.3776 12.873 72.6064 12.9755C72.8355 13.0776 73.0336 13.2137 73.2014 13.3842C73.3691 13.5543 73.5031 13.756 73.6035 13.9885C73.7039 14.2214 73.7542 14.4685 73.7542 14.7294C73.7542 14.9792 73.7039 15.215 73.6035 15.4362C73.5031 15.6577 73.3691 15.8509 73.2014 16.015C73.0336 16.1798 72.8355 16.3106 72.6064 16.407C72.3776 16.5034 72.1345 16.5516 71.8778 16.5516H65.9961V21.5244C65.9961 22.1489 66.1077 22.7306 66.3313 23.2701C66.5545 23.8092 66.8618 24.2803 67.2527 24.6834C67.6437 25.0864 68.1044 25.4015 68.6353 25.6283C69.1658 25.8556 69.7437 25.969 70.3694 25.969C70.9166 25.969 71.4251 25.8896 71.8945 25.7308C72.3636 25.5716 72.7992 25.3164 73.2014 24.9644C73.4246 24.7713 73.6426 24.6153 73.855 24.4958C74.067 24.3767 74.3181 24.3172 74.609 24.3172C74.8211 24.3172 75.0279 24.3629 75.2288 24.4533C75.43 24.5444 75.6086 24.672 75.7652 24.8365C75.9214 25.0013 76.047 25.1941 76.1422 25.4157C76.2371 25.6369 76.2845 25.8729 76.2845 26.1225C76.2845 26.4177 76.2283 26.7013 76.1171 26.9739C76.0051 27.2461 75.8377 27.4907 75.6142 27.7062C74.9107 28.3871 74.1144 28.8983 73.2265 29.2389C72.3385 29.5792 71.386 29.7497 70.3694 29.7497C69.2303 29.7497 68.1634 29.537 67.169 29.1109C66.1747 28.6852 65.3091 28.1007 64.5718 27.3567C63.8345 26.6134 63.2506 25.7393 62.8209 24.7344C62.3906 23.7295 62.1757 22.6484 62.1757 21.4904V10.0802ZM78.735 21.8227C78.735 20.6296 78.9614 19.5017 79.4137 18.439C79.8661 17.3764 80.4803 16.4502 81.257 15.6601C82.033 14.8703 82.9408 14.2454 83.9798 13.785C85.0185 13.3249 86.1244 13.0945 87.2973 13.0945H87.3311C87.9453 13.0945 88.42 13.2713 88.7552 13.6247C89.0903 13.9785 89.2581 14.429 89.2581 14.9763C89.2581 15.2503 89.2079 15.5037 89.1071 15.7377C89.0066 15.9713 88.8696 16.1712 88.6966 16.3364C88.5232 16.5019 88.3196 16.6331 88.0852 16.7298C87.8505 16.8266 87.599 16.8752 87.3311 16.8752H87.2471C86.6106 16.8865 86.0044 17.0198 85.4293 17.2753C84.8538 17.5309 84.3485 17.8772 83.9128 18.3143C83.4769 18.7513 83.1278 19.2593 82.8655 19.8385C82.6029 20.4173 82.4658 21.0419 82.455 21.7114V27.6721C82.455 27.9333 82.4072 28.1772 82.3127 28.4044C82.2175 28.6316 82.0888 28.8301 81.9273 29.0002C81.7651 29.1707 81.5723 29.304 81.349 29.4004C81.1255 29.4972 80.8908 29.5454 80.6452 29.5454C80.3882 29.5454 80.1451 29.4972 79.9163 29.4004C79.6872 29.304 79.4835 29.1704 79.3049 28.9999C79.126 28.8297 78.9865 28.6305 78.8857 28.4033C78.7852 28.1758 78.735 27.9315 78.735 27.6703V21.8227ZM91.6831 14.9849C91.6831 14.7237 91.7305 14.4798 91.8254 14.2526C91.9203 14.0254 92.0517 13.8269 92.2191 13.6564C92.3869 13.4863 92.5822 13.353 92.8058 13.2562C93.029 13.1602 93.2693 13.1116 93.5263 13.1116C93.783 13.1116 94.0261 13.1602 94.2553 13.2562C94.4841 13.353 94.6825 13.4863 94.8499 13.6564C95.0177 13.8269 95.1516 14.0254 95.252 14.2526C95.3528 14.4798 95.4031 14.7237 95.4031 14.9849V21.7286C95.4031 22.3304 95.5091 22.8866 95.7215 23.3977C95.9335 23.9085 96.2269 24.3541 96.6011 24.7344C96.9753 25.1147 97.4137 25.4128 97.9163 25.6283C98.4192 25.8442 98.9664 25.952 99.5587 25.952C100.139 25.952 100.665 25.8414 101.134 25.6198C101.603 25.3987 102.005 25.0981 102.34 24.7174C102.675 24.337 102.932 23.8886 103.111 23.3722C103.289 22.8554 103.379 22.2964 103.379 21.6945V14.9849C103.379 14.7237 103.429 14.4798 103.53 14.2526C103.63 14.0254 103.77 13.8269 103.949 13.6564C104.127 13.4863 104.328 13.353 104.552 13.2562C104.775 13.1602 105.016 13.1116 105.273 13.1116C105.529 13.1116 105.77 13.1602 105.993 13.2562C106.216 13.353 106.409 13.4863 106.571 13.6564C106.733 13.8269 106.862 14.0254 106.956 14.2526C107.051 14.4798 107.099 14.7237 107.099 14.9849V21.6945C107.099 22.8072 106.909 23.8489 106.529 24.8195C106.149 25.7903 105.624 26.6418 104.954 27.3741C104.284 28.106 103.488 28.6827 102.566 29.1024C101.645 29.5228 100.642 29.7327 99.5587 29.7327C98.4635 29.7327 97.4388 29.5228 96.4839 29.1024C95.5286 28.6827 94.6933 28.106 93.9787 27.3741C93.2637 26.6418 92.7025 25.7903 92.2948 24.8195C91.8868 23.8489 91.6831 22.8072 91.6831 21.6945V14.9849ZM113.701 23.142C113.846 23.5737 114.053 23.9707 114.321 24.3344C114.589 24.6977 114.899 25.01 115.251 25.2709C115.603 25.5321 115.994 25.7363 116.424 25.8841C116.854 26.0315 117.303 26.1053 117.773 26.1053C118.275 26.1053 118.688 26.0627 119.013 25.9777C119.336 25.8922 119.644 25.7593 119.934 25.5775C120.336 25.3389 120.699 25.2198 121.023 25.2198C121.28 25.2198 121.52 25.2737 121.744 25.3815C121.967 25.4896 122.16 25.6346 122.322 25.8157C122.484 25.9975 122.612 26.2074 122.707 26.4459C122.802 26.6845 122.85 26.9287 122.85 27.1782C122.85 27.5642 122.727 27.9162 122.481 28.2338C122.235 28.5518 121.889 28.8215 121.442 29.0431C120.995 29.2642 120.459 29.4347 119.834 29.5538C119.208 29.6729 118.521 29.7325 117.773 29.7325C116.644 29.7325 115.58 29.5141 114.581 29.0771C113.581 28.64 112.706 28.0467 111.958 27.2973C111.21 26.548 110.62 25.6711 110.19 24.6665C109.76 23.6616 109.545 22.5862 109.545 21.4391C109.545 20.2811 109.76 19.1972 110.19 18.1862C110.62 17.176 111.21 16.2963 111.958 15.5466C112.706 14.7972 113.581 14.2042 114.581 13.7672C115.58 13.3301 116.644 13.1114 117.773 13.1114C118.89 13.1114 119.943 13.3273 120.931 13.7587C121.92 14.1904 122.785 14.7749 123.529 15.5125C124.271 16.2509 124.863 17.1221 125.305 18.1267C125.746 19.1316 125.977 20.2017 126 21.3371C126 21.8819 125.829 22.3193 125.489 22.6482C125.148 22.9775 124.71 23.142 124.173 23.142H113.701ZM122.18 19.9745C122.045 19.4978 121.842 19.0611 121.568 18.6633C121.294 18.266 120.97 17.9225 120.596 17.6329C120.222 17.3437 119.8 17.1193 119.331 16.9602C118.862 16.8014 118.365 16.722 117.839 16.722C117.315 16.722 116.82 16.807 116.357 16.9775C115.893 17.1477 115.477 17.3774 115.108 17.667C114.74 17.9566 114.424 18.3 114.162 18.6974C113.899 19.0947 113.706 19.5204 113.583 19.9745H122.18Z" fill="white"/>
<path fill-rule="evenodd" clip-rule="evenodd" d="M25.0531 22.7372V5.78053L30.0682 8.60326V25.5649L20.8908 30.7503L15.8806 27.9223L25.0531 22.7372ZM0.00511409 15.172L5.01531 12.3493V22.6988H5.02043L20.0561 31.1723V31.1773L15.0459 34L0 25.5265L0.00511409 15.172ZM15.0459 0H15.051L24.226 5.16227V10.8177L15.0459 5.65572V5.65073H15.0408L0.00511409 14.1289H0V8.47845H0.00511409L15.0459 0ZM9.4207 10.0571L12.8288 8.14529V15.2417C13.1812 14.9989 13.9854 14.3741 15.2408 14.3741C16.8485 14.3741 18.218 14.9264 19.349 16.0299C20.4793 17.1337 21.045 18.4706 21.045 20.04C21.045 21.61 20.4793 22.9489 19.349 24.058C18.218 25.1668 16.8485 25.7215 15.2408 25.7215C13.6223 25.7215 12.2474 25.1668 11.117 24.058C9.98621 22.9489 9.4207 21.61 9.4207 20.04V10.0571ZM13.5367 21.7035C14.0086 22.1646 14.5768 22.3948 15.2408 22.3948C15.8943 22.3948 16.4569 22.1646 16.9293 21.7035C17.4011 21.2429 17.6372 20.6885 17.6372 20.04C17.6372 19.3921 17.4011 18.84 16.9293 18.3844C16.4569 17.9286 15.8943 17.701 15.2408 17.701C14.5768 17.701 14.0086 17.9286 13.5367 18.3844C13.0644 18.84 12.8288 19.3921 12.8288 20.04C12.8288 20.6885 13.0644 21.2429 13.5367 21.7035Z" fill="white"/>
</svg>
