<svg width="137" height="15" viewBox="0 0 137 15" fill="none" xmlns="http://www.w3.org/2000/svg">
<path d="M1.29697 5.50781L0.605392 6.19939C0.413976 6.38328 0.261686 6.60395 0.157654 6.84812C0.0536231 7.09232 0 7.35503 0 7.62045C0 7.88587 0.0536231 8.14858 0.157654 8.39278C0.261686 8.63698 0.413976 8.85762 0.605392 9.04151L6.17686 14.668C6.30892 14.8031 6.46262 14.9151 6.6316 14.9996V8.1794L1.29697 5.50781Z" fill="#3D89F5"/>
<path d="M13.8609 5.50781L14.5524 6.19939C14.7439 6.38328 14.8961 6.60395 15.0002 6.84812C15.1042 7.09232 15.1578 7.35503 15.1578 7.62045C15.1578 7.88587 15.1042 8.14858 15.0002 8.39278C14.8961 8.63698 14.7439 8.85762 14.5524 9.04151L8.98098 14.668C8.84892 14.8031 8.69522 14.9151 8.52625 14.9996V8.1794L13.8609 5.50781Z" fill="#1656B9"/>
<path d="M12.5233 4.09703L9.03702 0.601237C8.85244 0.411008 8.63157 0.259767 8.38747 0.156491C8.14336 0.0532142 7.881 0 7.61596 0C7.35092 0 7.08853 0.0532142 6.84445 0.156491C6.60035 0.259767 6.37945 0.411008 6.1949 0.601237L2.6991 4.09703L7.59701 6.54125L12.5233 4.09703Z" fill="#85B5F8"/>
<path fill-rule="evenodd" clip-rule="evenodd" d="M88.3709 2.45044C88.3558 2.19481 88.4176 1.9405 88.5487 1.72045C88.6798 1.5004 88.8736 1.32474 89.1054 1.21622C89.3375 1.1077 89.5968 1.07131 89.8498 1.11176C90.1024 1.15221 90.3373 1.26765 90.524 1.44312C90.7103 1.61859 90.8401 1.84601 90.8957 2.09595C90.9515 2.34588 90.931 2.60681 90.8369 2.84495C90.7428 3.0831 90.5792 3.28749 90.3676 3.43165C90.1561 3.57584 89.906 3.65315 89.6499 3.65362C89.4869 3.65867 89.3246 3.63155 89.1721 3.57379C89.0195 3.51606 88.8796 3.42881 88.7609 3.31708C88.6422 3.20535 88.5465 3.07129 88.4799 2.92259C88.4129 2.77388 88.3756 2.61344 88.3709 2.45044ZM88.4657 4.75257H90.8246V13.2789H88.4657V4.75257ZM25.3897 1.91044H20.8423V13.2789H25.7118C28.2602 13.2789 29.6244 11.9431 29.6244 10.1336C29.6579 9.4365 29.4133 8.75458 28.9444 8.23766C28.4754 7.72075 27.8205 7.41112 27.1234 7.37679V7.2631C27.7039 7.1737 28.2323 6.87667 28.6104 6.42714C28.9885 5.97762 29.1906 5.40616 29.1792 4.81889C29.1792 3.12308 27.9002 1.91044 25.3897 1.91044ZM26.7444 5.20731C26.7444 6.10731 25.977 6.64731 25.0297 6.64731L23.2107 6.67573V3.83362H25.0676C26.1381 3.83362 26.7444 4.30731 26.7444 5.20731ZM27.0949 9.87785C27.0949 10.7305 26.5455 11.2894 25.2002 11.2894H23.2107V8.27679H25.2002C25.4322 8.24322 25.6687 8.25926 25.894 8.32381C26.1194 8.38836 26.3285 8.49996 26.5076 8.65126C26.6866 8.80258 26.8316 8.99013 26.9328 9.20155C27.0341 9.41297 27.0893 9.64347 27.0949 9.87785ZM30.7897 13.2789H33.1865L33.1486 1.91044H30.7897V13.2789ZM34.4276 9.04416C34.4276 6.401 36.0381 4.63889 38.6244 4.63889C41.2108 4.63889 42.8213 6.401 42.8213 9.04416C42.8213 11.6873 41.2108 13.44 38.6244 13.44C36.0381 13.44 34.4276 11.6779 34.4276 9.04416ZM40.415 9.03946C40.4137 7.55448 39.7979 6.45784 38.6339 6.45784C37.4686 6.45784 36.8244 7.55679 36.8244 9.04416C36.8244 10.5315 37.4402 11.621 38.6339 11.621C39.8263 11.621 40.4137 10.5244 40.415 9.03946ZM47.8992 4.63889C45.3129 4.63889 43.7118 6.42942 43.7118 9.04416C43.7118 11.64 45.2845 13.44 47.8992 13.44C50.1445 13.44 51.575 12.1136 51.6887 10.1526H49.4529C49.4286 10.5429 49.2543 10.9087 48.9666 11.1735C48.6786 11.4384 48.2996 11.5817 47.9087 11.5736C46.8003 11.5736 46.0897 10.5979 46.0897 9.01574C46.0897 7.43363 46.8097 6.48626 47.9087 6.48626C48.2996 6.47814 48.6786 6.62151 48.9666 6.88633C49.2543 7.15116 49.4286 7.51697 49.4529 7.90732H51.6887C51.6129 5.93678 50.1255 4.63889 47.8992 4.63889ZM52.9297 1.91044H55.2982V7.98311H55.4213L58.1592 4.75257H60.8687L57.7045 8.44732L61.0298 13.2789H58.2635L55.9329 9.83995L55.2982 10.5694V13.2789H52.9297V1.91044ZM65.2077 4.63889C62.6214 4.63889 61.0203 6.42942 61.0203 9.04416C61.0203 11.64 62.5929 13.44 65.2266 13.44C67.4814 13.44 68.9024 12.1136 69.0161 10.1526H66.7898C66.7629 10.5437 66.5867 10.9096 66.2975 11.1742C66.0082 11.4388 65.628 11.5819 65.2361 11.5736C64.1277 11.5736 63.4172 10.5979 63.4172 9.01574C63.4172 7.43363 64.1371 6.48626 65.2361 6.48626C65.628 6.47802 66.0082 6.62107 66.2975 6.88567C66.5867 7.1503 66.7629 7.51615 66.7898 7.90732H68.9972C68.9309 5.93678 67.434 4.63889 65.2077 4.63889ZM72.6066 13.2789H70.2477V1.91044H72.5403V6.25889H72.6445C72.8375 5.74984 73.1899 5.31692 73.6494 5.02488C74.1086 4.73286 74.6501 4.59742 75.193 4.63889C76.9646 4.63889 78.1393 5.85152 78.1393 7.85047V13.2789H75.7709V8.26732C75.8021 8.05454 75.7857 7.83746 75.7226 7.63185C75.6597 7.42624 75.5517 7.23724 75.4064 7.07852C75.2615 6.91981 75.0828 6.79536 74.8838 6.71423C74.6846 6.63307 74.4698 6.59729 74.2551 6.60942C74.028 6.60023 73.8016 6.63983 73.591 6.7255C73.3803 6.81118 73.1905 6.94097 73.0345 7.10612C72.8782 7.27128 72.7592 7.46799 72.6856 7.68298C72.6117 7.898 72.5849 8.12632 72.6066 8.35258V13.2789ZM82.4972 8.26729C80.8109 8.42834 79.2951 9.00624 79.2951 10.901C79.2951 12.5873 80.4983 13.4399 82.1277 13.4399C82.6283 13.4786 83.1294 13.3723 83.5715 13.1338C84.0133 12.8952 84.3771 12.5345 84.6193 12.0947H84.6856V13.2789H86.9309V7.51886C86.9309 5.48201 85.2067 4.62938 83.3119 4.62938C81.2656 4.62938 79.9298 5.60517 79.5982 7.15886L81.7867 7.33886C81.8928 7.03131 82.1012 6.76946 82.3769 6.59701C82.6529 6.42459 82.9794 6.35205 83.3025 6.39149C84.1077 6.39149 84.5625 6.79886 84.5625 7.49992C84.5625 8.05886 83.9846 8.12518 82.4972 8.26729ZM84.5814 9.28097V10.2283C84.5682 10.4463 84.5116 10.6595 84.415 10.8553C84.3184 11.051 84.1835 11.2255 84.0187 11.3685C83.8535 11.5115 83.6615 11.6201 83.454 11.6878C83.2466 11.7556 83.0274 11.7812 82.8098 11.7631C82.0804 11.7631 81.5593 11.4315 81.5593 10.7683C81.5593 10.1052 82.1088 9.77361 82.9425 9.65992C83.5043 9.61385 84.0563 9.48617 84.5814 9.28097ZM92.3688 13.2789H94.7751L94.7372 8.35255C94.711 8.12865 94.7338 7.90173 94.8036 7.68737C94.8733 7.47301 94.9886 7.2763 95.1418 7.1107C95.2946 6.94513 95.4816 6.81459 95.69 6.72806C95.8981 6.64153 96.1226 6.60105 96.3478 6.60939C96.5619 6.599 96.776 6.63598 96.9743 6.7177C97.1726 6.79943 97.3504 6.92388 97.4954 7.08219C97.64 7.24049 97.748 7.42877 97.8118 7.63362C97.8753 7.83847 97.8929 8.05482 97.8636 8.26729V13.2789H100.232V7.85044C100.232 5.86096 99.0667 4.63885 97.2857 4.63885C96.7419 4.60529 96.2012 4.7437 95.7405 5.03444C95.2798 5.32519 94.922 5.75356 94.7183 6.25886H94.6236V4.75254H92.3688V13.2789Z" fill="black"/>
<path fill-rule="evenodd" clip-rule="evenodd" d="M126.284 4.75288H124.03L124.02 13.2792H126.389V8.16341C126.369 7.96788 126.39 7.77041 126.45 7.58331C126.51 7.39623 126.608 7.22353 126.738 7.07596C126.868 6.92842 127.026 6.80918 127.204 6.72571C127.382 6.64222 127.575 6.5963 127.772 6.59078C127.951 6.58307 128.13 6.61399 128.296 6.68138C128.461 6.74877 128.611 6.85105 128.734 6.98132C128.857 7.11158 128.951 7.26679 129.009 7.43643C129.067 7.60604 129.087 7.78611 129.07 7.96447V13.2792H131.362V8.06868C131.342 7.87845 131.363 7.68607 131.423 7.50452C131.483 7.32297 131.582 7.15649 131.712 7.01637C131.842 6.87622 132.001 6.76573 132.178 6.69227C132.355 6.61885 132.545 6.58424 132.736 6.59078C132.92 6.58254 133.104 6.61456 133.274 6.68454C133.445 6.75455 133.598 6.86087 133.724 6.99613C133.849 7.13135 133.944 7.29227 134 7.4677C134.057 7.64309 134.075 7.82877 134.053 8.01184V13.2792H136.421V7.59499C136.44 6.96932 136.245 6.35599 135.868 5.85587C135.492 5.35575 134.957 4.99863 134.35 4.84319C133.744 4.68773 133.103 4.74325 132.532 5.00061C131.962 5.25795 131.496 5.7018 131.211 6.2592H131.078C130.934 5.7647 130.626 5.33431 130.203 5.03958C129.781 4.74486 129.271 4.60357 128.757 4.63919C128.24 4.61598 127.729 4.76147 127.302 5.05364C126.875 5.34584 126.554 5.76893 126.389 6.2592H126.284V4.75288ZM109.705 4.63919C107.119 4.63919 105.527 6.42973 105.527 9.04447C105.527 11.6403 107.091 13.4403 109.753 13.4403C112.007 13.4403 113.438 12.114 113.542 10.1529H111.316C111.289 10.544 111.113 10.9099 110.824 11.1745C110.534 11.4391 110.154 11.5822 109.762 11.574C108.663 11.574 107.943 10.5982 107.943 9.01605C107.943 7.43394 108.663 6.48657 109.762 6.48657C110.154 6.47836 110.534 6.62138 110.824 6.88601C111.113 7.15061 111.289 7.51645 111.316 7.90762H113.495C113.429 5.93709 111.932 4.63919 109.705 4.63919ZM102.234 11.1538C101.986 11.4005 101.845 11.7354 101.842 12.0855C101.841 12.2605 101.874 12.434 101.94 12.596C102.006 12.758 102.104 12.9053 102.227 13.0295C102.351 13.1537 102.497 13.2522 102.659 13.3195C102.82 13.3867 102.994 13.4213 103.169 13.4213C103.52 13.4213 103.858 13.2816 104.106 13.0328C104.355 12.7841 104.495 12.4468 104.495 12.095C104.495 11.7432 104.355 11.4059 104.106 11.1571C103.858 10.9084 103.52 10.7687 103.169 10.7687C102.818 10.7687 102.483 10.9071 102.234 11.1538ZM114.404 9.04447C114.404 6.4013 116.015 4.63919 118.601 4.63919C121.188 4.63919 122.789 6.4013 122.789 9.04447C122.789 11.6876 121.188 13.4403 118.601 13.4403C116.015 13.4403 114.404 11.6782 114.404 9.04447ZM120.392 9.0398C120.39 7.55479 119.775 6.45815 118.611 6.45815C117.445 6.45815 116.801 7.5571 116.801 9.04447C116.801 10.5318 117.417 11.6213 118.611 11.6213C119.803 11.6213 120.39 10.5247 120.392 9.0398Z" fill="#B1B8C7"/>
</svg>
