<svg width="210" height="23" viewBox="0 0 210 23" fill="none" xmlns="http://www.w3.org/2000/svg">
<path d="M1.98875 8.44531L0.928296 9.50577C0.634782 9.78773 0.401263 10.1261 0.241744 10.5005C0.0822245 10.875 0 11.2778 0 11.6848C0 12.0918 0.0822245 12.4946 0.241744 12.8691C0.401263 13.2435 0.634782 13.5818 0.928296 13.8638L9.47147 22.4913C9.67397 22.6985 9.90964 22.8703 10.1688 22.9998V12.5419L1.98875 8.44531Z" fill="white"/>
<path d="M21.2538 8.44531L22.3143 9.50577C22.6078 9.78773 22.8413 10.1261 23.0009 10.5005C23.1604 10.875 23.2426 11.2778 23.2426 11.6848C23.2426 12.0918 23.1604 12.4946 23.0009 12.8691C22.8413 13.2435 22.6078 13.5818 22.3143 13.8638L13.7711 22.4913C13.5686 22.6985 13.333 22.8703 13.0739 22.9998V12.5419L21.2538 8.44531Z" fill="white"/>
<path d="M19.203 6.2823L13.8571 0.921923C13.5741 0.63023 13.2354 0.398321 12.8611 0.239959C12.4868 0.0815974 12.0845 0 11.6781 0C11.2717 0 10.8693 0.0815974 10.4951 0.239959C10.1208 0.398321 9.78205 0.63023 9.49907 0.921923L4.13867 6.2823L11.649 10.0302L19.203 6.2823Z" fill="white"/>
<path fill-rule="evenodd" clip-rule="evenodd" d="M135.506 3.75799C135.483 3.36601 135.578 2.97606 135.779 2.63864C135.98 2.30122 136.277 2.03187 136.632 1.86547C136.988 1.69906 137.386 1.64326 137.774 1.70529C138.161 1.76732 138.521 1.94432 138.807 2.21339C139.093 2.48245 139.292 2.83117 139.377 3.21441C139.463 3.59765 139.432 3.99776 139.287 4.36293C139.143 4.7281 138.892 5.04151 138.568 5.26256C138.243 5.48365 137.86 5.60219 137.467 5.60292C137.217 5.61067 136.968 5.56907 136.735 5.48051C136.501 5.39199 136.286 5.2582 136.104 5.08688C135.922 4.91556 135.775 4.70999 135.673 4.48197C135.57 4.25395 135.513 4.00793 135.506 3.75799ZM135.651 7.28802H139.268V20.3621H135.651V7.28802ZM38.932 2.92997H31.9591V20.3621H39.4259C43.3336 20.3621 45.4254 18.3139 45.4254 15.5392C45.4768 14.4703 45.1017 13.4246 44.3827 12.632C43.6636 11.8394 42.6593 11.3646 41.5904 11.3119V11.1376C42.4806 11.0005 43.2908 10.5451 43.8705 9.85578C44.4503 9.16648 44.7602 8.29023 44.7427 7.38971C44.7427 4.7894 42.7816 2.92997 38.932 2.92997ZM41.0093 7.98531C41.0093 9.36536 39.8326 10.1934 38.3799 10.1934L35.5908 10.237V5.87893H38.4381C40.0796 5.87893 41.0093 6.60527 41.0093 7.98531ZM41.5468 15.147C41.5468 16.4544 40.7042 17.3115 38.6414 17.3115H35.5908V12.692H38.6414C38.9972 12.6405 39.3598 12.6651 39.7054 12.7641C40.0509 12.8631 40.3716 13.0342 40.6461 13.2662C40.9207 13.4982 41.1429 13.7858 41.2982 14.11C41.4534 14.4342 41.5382 14.7876 41.5468 15.147ZM47.2122 20.3621H50.8875L50.8294 2.92997H47.2122V20.3621ZM52.7905 13.8687C52.7905 9.81569 55.2601 7.1137 59.2259 7.1137C63.1917 7.1137 65.6613 9.81569 65.6613 13.8687C65.6613 17.9216 63.1917 20.6091 59.2259 20.6091C55.2601 20.6091 52.7905 17.9071 52.7905 13.8687ZM61.9714 13.8614C61.9695 11.5844 61.0253 9.90285 59.2404 9.90285C57.4536 9.90285 56.4658 11.588 56.4658 13.8687C56.4658 16.1494 57.41 17.8199 59.2404 17.8199C61.0688 17.8199 61.9695 16.1384 61.9714 13.8614ZM73.4476 7.1137C69.4818 7.1137 67.0268 9.85927 67.0268 13.8687C67.0268 17.849 69.4382 20.6091 73.4476 20.6091C76.8904 20.6091 79.084 18.5753 79.2583 15.5683H75.83C75.7927 16.1668 75.5254 16.7277 75.0843 17.1338C74.6427 17.5399 74.0616 17.7597 73.4621 17.7473C71.7625 17.7473 70.673 16.2511 70.673 13.8251C70.673 11.3991 71.777 9.94643 73.4621 9.94643C74.0616 9.93398 74.6427 10.1538 75.0843 10.5599C75.5254 10.966 75.7927 11.5269 75.83 12.1254H79.2583C79.1421 9.10387 76.8614 7.1137 73.4476 7.1137ZM81.1613 2.92997H84.793V12.2417H84.9819L89.1801 7.28802H93.3348L88.4828 12.9535L93.5817 20.3621H89.3399L85.7663 15.0889L84.793 16.2075V20.3621H81.1613V2.92997ZM99.988 7.1137C96.0222 7.1137 93.5672 9.85927 93.5672 13.8687C93.5672 17.849 95.9787 20.6091 100.017 20.6091C103.474 20.6091 105.653 18.5753 105.828 15.5683H102.414C102.373 16.1681 102.103 16.7291 101.659 17.1348C101.216 17.5405 100.633 17.7599 100.032 17.7473C98.332 17.7473 97.2425 16.2511 97.2425 13.8251C97.2425 11.3991 98.3465 9.94643 100.032 9.94643C100.633 9.93379 101.216 10.1531 101.659 10.5589C102.103 10.9647 102.373 11.5256 102.414 12.1254H105.799C105.697 9.10387 103.402 7.1137 99.988 7.1137ZM111.333 20.3621H107.716V2.92997H111.232V9.59778H111.392C111.687 8.81721 112.228 8.15339 112.932 7.70557C113.636 7.25781 114.467 7.05012 115.299 7.1137C118.016 7.1137 119.817 8.97313 119.817 12.0383V20.3621H116.185V12.6775C116.233 12.3512 116.208 12.0183 116.111 11.7031C116.015 11.3878 115.849 11.098 115.627 10.8546C115.404 10.6112 115.13 10.4204 114.825 10.296C114.52 10.1715 114.19 10.1167 113.861 10.1353C113.513 10.1212 113.166 10.1819 112.843 10.3133C112.52 10.4446 112.229 10.6437 111.99 10.8969C111.75 11.1502 111.567 11.4518 111.455 11.7815C111.341 12.1112 111.3 12.4613 111.333 12.8082V20.3621ZM126.499 12.6774C123.914 12.9244 121.589 13.8105 121.589 16.7159C121.589 19.3016 123.434 20.609 125.933 20.609C126.7 20.6684 127.469 20.5054 128.147 20.1396C128.824 19.7738 129.382 19.2206 129.753 18.5462H129.855V20.3621H133.298V11.5298C133.298 8.40654 130.654 7.09913 127.749 7.09913C124.611 7.09913 122.563 8.59539 122.054 10.9778L125.41 11.2538C125.573 10.7822 125.892 10.3807 126.315 10.1162C126.738 9.85186 127.239 9.74063 127.734 9.80111C128.969 9.80111 129.666 10.4258 129.666 11.5007C129.666 12.3578 128.78 12.4595 126.499 12.6774ZM129.695 14.2318V15.6845C129.675 16.0187 129.588 16.3455 129.44 16.6457C129.292 16.946 129.085 17.2136 128.832 17.4328C128.579 17.652 128.285 17.8185 127.967 17.9224C127.648 18.0263 127.312 18.0655 126.979 18.0378C125.86 18.0378 125.061 17.5294 125.061 16.5125C125.061 15.4956 125.904 14.9872 127.182 14.8129C128.044 14.7422 128.89 14.5464 129.695 14.2318ZM141.636 20.3621H145.326L145.268 12.8082C145.228 12.4648 145.263 12.1169 145.37 11.7882C145.477 11.4595 145.653 11.1579 145.888 10.9039C146.123 10.6501 146.409 10.4499 146.729 10.3172C147.048 10.1845 147.392 10.1224 147.738 10.1352C148.066 10.1193 148.394 10.176 148.698 10.3013C149.002 10.4266 149.275 10.6175 149.497 10.8602C149.719 11.103 149.885 11.3916 149.982 11.7058C150.08 12.0199 150.107 12.3516 150.062 12.6774V20.3621H153.694V12.0382C153.694 8.98761 151.907 7.11366 149.176 7.11366C148.342 7.06218 147.513 7.27442 146.806 7.72025C146.1 8.16607 145.551 8.82293 145.239 9.59774H145.094V7.28798H141.636V20.3621Z" fill="white"/>
<path fill-rule="evenodd" clip-rule="evenodd" d="M193.642 7.28808H190.184L190.17 20.3622H193.802V12.5177C193.772 12.2179 193.804 11.9151 193.896 11.6282C193.988 11.3413 194.138 11.0765 194.337 10.8502C194.536 10.624 194.78 10.4412 195.052 10.3132C195.325 10.1852 195.621 10.1147 195.922 10.1063C196.197 10.0945 196.471 10.1419 196.726 10.2452C196.98 10.3485 197.21 10.5054 197.398 10.7051C197.587 10.9049 197.731 11.1429 197.82 11.403C197.908 11.6631 197.94 11.9392 197.913 12.2127V20.3622H201.428V12.3725C201.397 12.0808 201.429 11.7858 201.521 11.5074C201.614 11.229 201.765 10.9737 201.965 10.7589C202.164 10.544 202.408 10.3745 202.678 10.2619C202.95 10.1493 203.242 10.0962 203.535 10.1063C203.817 10.0936 204.099 10.1427 204.36 10.25C204.622 10.3574 204.857 10.5204 205.049 10.7278C205.241 10.9352 205.386 11.1819 205.473 11.4509C205.561 11.7199 205.588 12.0046 205.554 12.2853V20.3622H209.185V11.6461C209.214 10.6867 208.915 9.74625 208.338 8.97938C207.76 8.21251 206.94 7.6649 206.01 7.42656C205.08 7.18818 204.097 7.27331 203.222 7.66795C202.347 8.06255 201.632 8.74313 201.196 9.59783H200.992C200.772 8.83959 200.299 8.17963 199.651 7.72771C199.004 7.27578 198.221 7.05913 197.433 7.11375C196.641 7.07816 195.858 7.30125 195.202 7.74925C194.548 8.19731 194.056 8.84607 193.802 9.59783H193.642V7.28808ZM168.22 7.11375C164.254 7.11375 161.814 9.85932 161.814 13.8687C161.814 17.8491 164.21 20.6091 168.293 20.6091C171.75 20.6091 173.943 18.5754 174.103 15.5683H170.689C170.648 16.1681 170.378 16.7291 169.935 17.1349C169.491 17.5406 168.908 17.76 168.307 17.7474C166.622 17.7474 165.518 16.2511 165.518 13.8251C165.518 11.3992 166.622 9.94648 168.307 9.94648C168.908 9.93389 169.491 10.1532 169.935 10.559C170.378 10.9647 170.648 11.5257 170.689 12.1255H174.031C173.929 9.10393 171.634 7.11375 168.22 7.11375ZM156.764 17.1031C156.382 17.4814 156.167 17.9949 156.163 18.5318C156.161 18.8001 156.212 19.0661 156.313 19.3146C156.414 19.563 156.564 19.7889 156.753 19.9793C156.942 20.1697 157.167 20.3208 157.415 20.4239C157.662 20.527 157.928 20.5801 158.196 20.5801C158.736 20.5801 159.253 20.3658 159.635 19.9844C160.016 19.603 160.23 19.0857 160.23 18.5463C160.23 18.007 160.016 17.4897 159.635 17.1082C159.253 16.7269 158.736 16.5126 158.196 16.5126C157.659 16.5125 157.145 16.7248 156.764 17.1031ZM175.425 13.8687C175.425 9.81574 177.895 7.11375 181.861 7.11375C185.826 7.11375 188.281 9.81574 188.281 13.8687C188.281 17.9217 185.826 20.6091 181.861 20.6091C177.895 20.6091 175.425 17.9072 175.425 13.8687ZM184.606 13.8615C184.604 11.5845 183.66 9.9029 181.875 9.9029C180.088 9.9029 179.1 11.588 179.1 13.8687C179.1 16.1494 180.045 17.82 181.875 17.82C183.704 17.82 184.604 16.1385 184.606 13.8615Z" fill="white"/>
</svg>
