<svg width="204" height="40" viewBox="0 0 204 40" fill="none" xmlns="http://www.w3.org/2000/svg">
<path d="M16.9066 0L0 9.75163V29.2549L16.9066 39.0065L33.7938 29.2549V9.75163L16.9066 0ZM32.3112 28.3935L16.9066 37.287L1.49884 28.3935V10.6098L16.9066 1.71304L32.3112 10.6098V28.3935Z" fill="white"/>
<path d="M23.5233 8.41895H10.2516L8.71375 15.1833H25.1229L23.5233 8.41895Z" fill="white"/>
<path d="M12.6055 24.4961V20.0006L8.67475 17.501L4.22375 20.8068L10.2906 31.3515H12.7128L15.5772 28.6861V27.3436L12.6055 24.4961Z" fill="white"/>
<path d="M21.2148 16.2041H12.6217L14.0685 19.9845L13.6263 24.2199H16.9036L20.2102 24.2037L19.7973 19.9845L21.2148 16.2041Z" fill="white"/>
<path d="M25.149 17.4678L21.2605 19.9999V24.4954L18.2888 27.3429V28.6854L21.1564 31.3216H23.5461L29.5805 20.8061L25.149 17.4678Z" fill="white"/>
<path d="M52.7132 28.5172C51.6867 28.5295 50.6682 28.3359 49.7179 27.9477C48.7677 27.5596 47.9049 26.9848 47.1807 26.2575C46.4565 25.5301 45.8856 24.6649 45.5017 23.7131C45.1179 22.7612 44.9289 21.7421 44.9459 20.7159C44.9459 16.4219 48.2459 12.8398 52.7489 12.8398C55.5938 12.8398 57.3593 13.8898 58.7508 15.4403L56.618 17.7417C55.5645 16.6332 54.4559 15.8661 52.7164 15.8661C50.2129 15.8661 48.3922 18.0277 48.3922 20.6704C48.3922 23.3716 50.239 25.5462 52.8855 25.5462C54.5111 25.5462 55.7011 24.7791 56.787 23.6707L58.8646 25.7185C57.3723 27.3503 55.6426 28.5172 52.7132 28.5172Z" fill="white"/>
<path d="M65.3867 28.5167H61.9436V12.8751H65.3867V16.5449C66.3263 14.2988 68.0592 12.7613 70.7058 12.8751V16.5157H70.5075C67.4903 16.5157 65.3867 18.466 65.3867 22.4577V28.5167Z" fill="white"/>
<path d="M88.7179 12.8467L81.1132 32.727H77.6245L79.286 28.5208L72.7704 12.8467H76.4411L80.8856 24.4251L85.1545 12.8467H88.7179Z" fill="white"/>
<path d="M99.6682 28.4873C97.194 28.4873 95.6301 27.2358 94.5767 25.8414V32.7228H91.1368V12.8359H94.5767V15.6509C95.6854 14.0841 97.2525 12.8359 99.6682 12.8359C103.225 12.8359 106.665 15.6509 106.665 20.6372C106.665 25.6236 103.251 28.4873 99.6682 28.4873ZM98.8716 15.8329C96.5405 15.8329 94.4922 17.7378 94.4922 20.6665C94.4922 23.5952 96.5405 25.5131 98.8716 25.5131C101.203 25.5131 103.167 23.6667 103.167 20.6795C103.167 17.6922 101.206 15.8329 98.8716 15.8329Z" fill="white"/>
<path d="M114.211 16.1197V23.4822C114.211 24.8182 114.887 25.3578 116.058 25.3578H117.407V28.4393H115.053C112.55 28.4393 110.768 27.3178 110.768 24.0315V16.1197H108.859V13.1617H110.768V9.04004H114.211V13.1617H117.407V16.1165L114.211 16.1197Z" fill="white"/>
<path d="M128.292 28.5166C123.715 28.5166 120.33 25.019 120.33 20.7153C120.33 16.4115 123.741 12.8359 128.351 12.8359C132.961 12.8359 136.343 16.3335 136.343 20.6372C136.343 24.941 132.929 28.5166 128.292 28.5166ZM128.292 15.8622C125.535 15.8622 123.77 18.0238 123.77 20.6665C123.77 23.3092 125.675 25.5423 128.351 25.5423C131.137 25.5423 132.903 23.3807 132.903 20.738C132.903 18.0953 130.994 15.8622 128.292 15.8622Z" fill="white"/>
<path d="M169.246 28.5166C164.664 28.5166 161.28 25.019 161.28 20.7153C161.28 16.4115 164.694 12.8359 169.301 12.8359C173.908 12.8359 177.292 16.3335 177.292 20.6372C177.292 24.941 173.882 28.5166 169.246 28.5166ZM169.246 15.8622C166.485 15.8622 164.723 18.0238 164.723 20.6665C164.723 23.3092 166.628 25.5423 169.301 25.5423C172.087 25.5423 173.853 23.3807 173.853 20.738C173.853 18.0953 171.947 15.8622 169.246 15.8622Z" fill="white"/>
<path d="M197.75 12.8359C201.02 12.8359 203.013 14.9098 203.013 18.5796V28.5035H199.57V19.6296C199.57 17.2404 198.462 15.963 196.527 15.963C194.651 15.963 193.315 17.2632 193.315 19.6881V28.5035H189.872V19.6166C189.872 17.2827 188.734 15.976 186.828 15.976C184.923 15.976 183.613 17.3964 183.613 19.7303V28.5068H180.173V12.8359H183.613V15.4364C184.588 14.0971 185.889 12.8359 188.194 12.8359C190.356 12.8359 191.865 13.8859 192.658 15.4786C193.884 13.8989 195.477 12.8359 197.75 12.8359Z" fill="white"/>
<path d="M142.64 25.3604V27.0929C142.641 27.1286 142.632 27.1638 142.615 27.1948C142.597 27.2257 142.571 27.2512 142.54 27.2684L141.041 28.1331C141.011 28.1522 140.976 28.1623 140.94 28.1623C140.904 28.1623 140.869 28.1522 140.839 28.1331L139.334 27.2684C139.304 27.25 139.279 27.2242 139.262 27.1935C139.245 27.1627 139.236 27.1281 139.236 27.0929V25.3604C139.237 25.3254 139.246 25.2911 139.263 25.2605C139.28 25.2299 139.305 25.2039 139.334 25.1848L140.839 24.3202C140.869 24.3011 140.904 24.291 140.94 24.291C140.976 24.291 141.011 24.3011 141.041 24.3202L142.556 25.1881C142.583 25.2075 142.605 25.2335 142.62 25.2635C142.635 25.2936 142.642 25.3269 142.64 25.3604Z" fill="white"/>
<path d="M153.119 28.4976C152.094 28.4904 151.08 28.2777 150.138 27.8721C149.196 27.4666 148.345 26.8764 147.635 26.1363C146.925 25.3963 146.371 24.5216 146.005 23.5637C145.639 22.6059 145.469 21.5845 145.505 20.5597C145.589 16.2658 148.954 12.7584 153.448 12.8332C156.292 12.8885 158.035 13.9741 159.401 15.5344L157.222 17.8098C156.192 16.6818 155.096 15.892 153.363 15.8595C150.86 15.8107 149 17.9366 148.948 20.5825C148.896 23.2837 150.704 25.4778 153.347 25.5298C154.972 25.5591 156.179 24.8147 157.281 23.729L159.316 25.8159C157.804 27.4216 156.049 28.5561 153.119 28.4976Z" fill="white"/>
</svg>
