<svg width="130" height="25" viewBox="0 0 130 25" fill="none" xmlns="http://www.w3.org/2000/svg">
<path d="M33.7535 18.2824C33.0968 18.2903 32.4451 18.1663 31.837 17.9178C31.2289 17.6694 30.6768 17.3014 30.2133 16.8357C29.7497 16.37 29.3841 15.816 29.1381 15.2065C28.8922 14.597 28.7708 13.9443 28.7811 13.287C28.7811 10.5336 30.894 8.2373 33.7723 8.2373C35.5931 8.2373 36.7236 8.91157 37.6163 9.89688L36.2502 11.3727C35.5744 10.6609 34.8652 10.1683 33.7473 10.1683C32.1454 10.1683 30.9795 11.5544 30.9795 13.2494C30.9795 14.982 32.1621 16.3682 33.8557 16.3682C34.8986 16.3682 35.6599 15.8755 36.3586 15.1637L37.6872 16.4767C36.734 17.533 35.6307 18.2824 33.7535 18.2824Z" fill="#002D74"/>
<path d="M41.8649 18.2826H39.6603V8.2626H41.8649V10.6131C42.4656 9.17276 43.5773 8.18954 45.2709 8.2626V10.5944H45.1437C43.2123 10.5944 41.8649 11.8469 41.8649 14.4061V18.2826Z" fill="#002D74"/>
<path d="M56.8072 8.23535L51.937 20.9796H49.7032L50.7669 18.2825L46.5955 8.23535H48.944L51.791 15.6564L54.5234 8.23535H56.8072Z" fill="#002D74"/>
<path d="M63.8194 18.2611C62.2343 18.2611 61.231 17.4595 60.5573 16.5661V20.977H58.3652V8.24316H60.5678V10.0468C61.279 9.04477 62.2802 8.24316 63.8299 8.24316C66.1054 8.24316 68.31 10.0468 68.31 13.2532C68.31 16.4596 66.1138 18.2611 63.8194 18.2611ZM63.3084 10.1407C61.8151 10.1407 60.5031 11.3619 60.5031 13.2386C60.5031 15.1152 61.8151 16.3385 63.3084 16.3385C64.8018 16.3385 66.0595 15.1528 66.0595 13.2386C66.0595 11.3243 64.8018 10.1407 63.3084 10.1407Z" fill="#002D74"/>
<path d="M73.1303 10.3312V15.0511C73.1303 15.909 73.5641 16.2535 74.315 16.2535H75.1785V18.2241H73.6705C72.0665 18.2241 70.9277 17.506 70.9277 15.3976V10.3312H69.7034V8.43784H70.9277V5.79297H73.1303V8.43784H75.1785V10.3312H73.1303Z" fill="#002D74"/>
<path d="M82.1427 18.2824C79.2102 18.2824 77.0431 16.0404 77.0431 13.287C77.0431 10.5336 79.2289 8.2373 82.1803 8.2373C85.1316 8.2373 87.2987 10.4793 87.2987 13.2473C87.2987 16.0154 85.1191 18.2824 82.1427 18.2824ZM82.1427 10.1682C80.3761 10.1682 79.2477 11.5544 79.2477 13.2494C79.2477 14.9445 80.4679 16.3682 82.1803 16.3682C83.9636 16.3682 85.1003 14.982 85.1003 13.287C85.1003 11.5919 83.8801 10.1662 82.1427 10.1662V10.1682Z" fill="#002D74"/>
<path d="M108.375 18.2824C105.442 18.2824 103.275 16.0404 103.275 13.287C103.275 10.5336 105.459 8.2373 108.41 8.2373C111.362 8.2373 113.529 10.4793 113.529 13.2473C113.529 16.0154 111.343 18.2824 108.375 18.2824ZM108.375 10.1682C106.608 10.1682 105.478 11.5544 105.478 13.2494C105.478 14.9445 106.698 16.3682 108.41 16.3682C110.196 16.3682 111.331 14.982 111.331 13.287C111.331 11.5919 110.104 10.1662 108.375 10.1662V10.1682Z" fill="#002D74"/>
<path d="M126.629 8.23535C128.715 8.23535 130 9.56509 130 11.9177V18.2825H127.795V12.592C127.795 11.0597 127.086 10.2394 125.847 10.2394C124.644 10.2394 123.789 11.0744 123.789 12.6275V18.2825H121.584V12.5732C121.584 11.0785 120.856 10.2394 119.636 10.2394C118.416 10.2394 117.577 11.1516 117.577 12.6463V18.2825H115.373V8.23535H117.577V9.89492C118.203 9.03695 119.037 8.23535 120.51 8.23535C121.895 8.23535 122.86 8.90962 123.369 9.93041C124.154 8.90962 125.174 8.23535 126.629 8.23535Z" fill="#002D74"/>
<path d="M91.3366 16.2555V17.3682C91.3372 17.3906 91.3317 17.4127 91.3207 17.4322C91.3097 17.4517 91.2935 17.4678 91.274 17.4788L90.3125 18.0341C90.2932 18.0463 90.2708 18.0528 90.2479 18.0528C90.225 18.0528 90.2026 18.0463 90.1832 18.0341L89.2217 17.4788C89.202 17.4679 89.1855 17.4519 89.1742 17.4324C89.1628 17.4129 89.1569 17.3907 89.157 17.3682V16.2555C89.1575 16.2331 89.1637 16.2112 89.175 16.1918C89.1863 16.1724 89.2024 16.1563 89.2217 16.1449L90.1832 15.5896C90.2029 15.5782 90.2252 15.5723 90.2479 15.5723C90.2706 15.5723 90.2929 15.5782 90.3125 15.5896L91.274 16.1449C91.2931 16.1564 91.3089 16.1726 91.3198 16.192C91.3308 16.2114 91.3366 16.2332 91.3366 16.2555Z" fill="#002D74"/>
<path d="M98.0486 18.2677C97.3918 18.263 96.7426 18.1267 96.1393 17.8666C95.5361 17.6066 94.991 17.2282 94.5364 16.7537C94.0818 16.2793 93.7268 15.7184 93.4925 15.1043C93.2582 14.4902 93.1492 13.8353 93.1721 13.1783C93.2243 10.427 95.3809 8.1683 98.2592 8.22467C100.08 8.26015 101.196 8.95738 102.07 9.9573L100.677 11.4081C100.015 10.6837 99.3146 10.1786 98.2029 10.1556C96.6011 10.1243 95.408 11.4874 95.3767 13.1825C95.3434 14.913 96.501 16.3138 98.1946 16.3534C99.2374 16.3743 100.007 15.8963 100.712 15.199L102.016 16.5371C101.05 17.5788 99.9237 18.3031 98.0486 18.2677Z" fill="#002D74"/>
<path d="M10.8104 0L0 6.25V18.75L10.8104 25L21.625 18.75V6.25L10.8104 0ZM10.8104 0L0 6.25V18.75L10.8104 25L21.625 18.75V6.25L10.8104 0Z" fill="white"/>
<path d="M10.8104 0L0 6.25V18.75L10.8104 25L21.625 18.75V6.25L10.8104 0ZM6.54505 5.40247H15.057L16.0831 9.74658H5.5585L6.54505 5.40247ZM9.97609 18.4139L8.13856 20.1278H6.57425L2.676 13.358L5.5293 11.235L8.05096 12.8382V15.7252L9.97609 17.5539V18.4139ZM8.72465 15.5478L9.00831 12.834L8.08016 10.4083H13.5823L12.673 12.834L12.9378 15.5478H10.8104H8.72465ZM15.0862 20.1069H13.5427L11.7052 18.4139V17.5539L13.6115 15.7252V12.8382L16.104 11.2141L18.9448 13.358L15.0862 20.1069Z" fill="#002D74"/>
<g style="mix-blend-mode:multiply">
<path style="mix-blend-mode:multiply" d="M10.8104 0V5.40247H15.057L16.0832 9.74658H10.8104V10.4021H13.5824L12.673 12.8277L12.9379 15.5415L10.8104 15.5478V25L21.625 18.75V6.25L10.8104 0ZM15.0695 20.1069H13.5427L11.7052 18.4139V17.5539L13.6116 15.7252V12.8382L16.104 11.2141L18.9448 13.358L15.0695 20.1069Z" fill="url(#paint0_linear)"/>
</g>
<path style="mix-blend-mode:multiply" d="M8.72465 15.5478L9.00831 12.834L8.08016 10.4083H10.8104V9.75284H5.5585L6.54505 5.40247H10.8104V0L0 6.25V18.75L10.8104 25V15.5478H8.72465ZM9.97609 18.4139L8.13856 20.1278H6.57425L2.676 13.358L5.5293 11.235L8.05096 12.8382V15.7252L9.97609 17.5539V18.4139Z" fill="url(#paint1_linear)"/>
<defs>
<linearGradient id="paint0_linear" x1="16.225" y1="22.3029" x2="16.225" y2="2.63444" gradientUnits="userSpaceOnUse">
<stop stop-color="#002D74"/>
<stop offset="1" stop-color="#002D74" stop-opacity="0"/>
</linearGradient>
<linearGradient id="paint1_linear" x1="5.40832" y1="22.3029" x2="5.40832" y2="2.63444" gradientUnits="userSpaceOnUse">
<stop stop-color="#002D74" stop-opacity="0"/>
<stop offset="1" stop-color="#002D74"/>
</linearGradient>
</defs>
</svg>
