<svg width="77" height="19" viewBox="0 0 77 19" fill="none" xmlns="http://www.w3.org/2000/svg">
<path d="M0 0.520501C0.0558848 0.517111 0.11177 0.509766 0.167654 0.509766C2.40826 0.509766 4.64868 0.509766 6.88892 0.509766C7.07222 0.509766 7.08172 0.509766 7.08228 0.702444C7.08563 1.5873 7.08228 2.47215 7.08228 3.35813C7.08228 3.39034 7.07613 3.42254 7.07166 3.46718H2.91216V7.51908H5.60748V10.485H2.89483V17.9723C1.91908 18.0051 0.959542 18.0198 0 17.9898V0.520501Z" fill="black"/>
<path d="M59.6537 17.9764H56.7711V0.508789H56.9304C57.7927 0.512179 58.655 0.51783 59.5179 0.5167C59.6296 0.5167 59.6799 0.544387 59.7151 0.65683C60.6492 3.66284 61.5854 6.66791 62.5239 9.67204C62.5362 9.71102 62.5546 9.74718 62.5686 9.78109C62.577 9.78168 62.5854 9.78168 62.5938 9.78109C62.5982 9.78109 62.6055 9.78109 62.6066 9.77713C62.6159 9.76114 62.6219 9.74348 62.6245 9.72515C62.6245 6.66339 62.6245 3.59805 62.6245 0.529131H65.5568C65.5855 6.34339 65.5881 12.1622 65.5646 17.9855H65.3858C64.4156 17.9855 63.4449 17.9855 62.4747 17.9888C62.354 17.9888 62.3071 17.9499 62.2724 17.8369C61.442 15.1597 60.6093 12.4835 59.7744 9.80821C59.7599 9.75273 59.7309 9.70219 59.6905 9.66186C59.6442 12.4289 59.6581 15.1942 59.6537 17.9764Z" fill="black"/>
<path d="M24.923 3.49029V17.9756H22.0074V0.519316C22.0712 0.513665 22.1388 0.50293 22.207 0.50293C23.5102 0.50745 24.8129 0.518186 26.1161 0.517621C28.2721 0.517621 29.8045 2.23421 30.0498 3.89147C30.0798 4.09252 30.0948 4.29557 30.0945 4.49889C30.0945 5.58263 30.0891 6.66638 30.0783 7.75013C30.081 8.82721 29.6819 9.86572 28.9606 10.6584C28.8681 10.759 28.7692 10.8534 28.6644 10.9409C28.6201 10.9745 28.5879 11.0219 28.573 11.0759C28.558 11.1298 28.5611 11.1873 28.5817 11.2392C29.1689 13.2689 29.7538 15.2989 30.3365 17.3292C30.3963 17.5372 30.4539 17.7451 30.5159 17.966C30.46 17.97 30.4181 17.9751 30.3773 17.9751C29.4636 17.9751 28.5493 17.9751 27.6356 17.9785C27.5238 17.9785 27.4853 17.9367 27.459 17.8344C26.8342 15.4341 26.2083 13.0331 25.5813 10.6313C25.5036 10.3346 25.4287 10.0368 25.3471 9.71985C25.4667 9.66787 25.5858 9.61758 25.7042 9.5656C26.3804 9.26782 26.884 8.80223 27.098 8.06937C27.144 7.90559 27.1673 7.73617 27.1673 7.56592C27.1757 6.5675 27.1757 5.56851 27.1768 4.57121C27.1768 4.05816 26.7403 3.53493 26.2368 3.49764C25.8082 3.46543 25.3762 3.49029 24.923 3.49029Z" fill="black"/>
<path d="M10.0112 9.25025C10.0112 7.58451 9.99775 5.91652 10.0151 4.25304C10.0307 2.75681 10.727 1.62165 11.971 0.853761C13.224 0.0790921 14.5663 0.032759 15.8645 0.698941C17.2941 1.43349 18.0826 2.64381 18.0999 4.29655C18.1139 5.89165 18.0999 7.48676 18.0999 9.08187C18.0999 10.8233 18.0932 12.5642 18.0999 14.3057C18.1033 15.1312 17.8205 15.8516 17.3589 16.5093C16.595 17.601 15.5315 18.1389 14.2254 18.2225C13.1206 18.2926 12.1773 17.9072 11.358 17.18C10.432 16.3579 10.0028 15.3109 10.0011 14.0763C10.0011 12.467 10.0011 10.8578 10.0011 9.24855L10.0112 9.25025ZM12.939 9.23895C12.939 10.9047 12.939 12.5727 12.9434 14.2362C12.9481 14.3817 12.9847 14.5243 13.0507 14.6537C13.2581 15.0696 13.6135 15.2583 14.0667 15.2679C14.211 15.27 14.3542 15.2431 14.488 15.1886C14.6218 15.1342 14.7436 15.0534 14.8463 14.9509C14.9489 14.8484 15.0303 14.7263 15.0858 14.5916C15.1412 14.457 15.1696 14.3125 15.1693 14.1667C15.1693 13.8644 15.1693 13.5615 15.1693 13.2586C15.1693 10.334 15.1684 7.40935 15.1665 4.48471C15.1665 4.25078 15.1693 4.01064 15.0358 3.79762C14.7848 3.39531 14.4294 3.2484 13.9594 3.23653C13.4732 3.2241 12.9256 3.84734 12.9317 4.26943C12.9529 5.92725 12.939 7.58225 12.939 9.23895Z" fill="black"/>
<path d="M47.7609 0.52544C47.7609 0.656529 47.7609 0.778577 47.7609 0.900626C47.7609 4.8446 47.7633 8.7882 47.7682 12.7314C47.7682 13.266 47.7905 13.801 47.8129 14.335C47.8185 14.4435 47.8491 14.5491 47.9023 14.6435C48.4349 15.5724 49.523 15.3493 49.8767 14.7102C49.9584 14.568 50.0045 14.4078 50.0108 14.2435C50.028 9.73671 50.0399 5.22996 50.0466 0.723203V0.521484H52.9699C52.9755 0.592679 52.9856 0.661614 52.9856 0.729984C52.9796 5.11846 52.9725 9.50693 52.9643 13.8954C52.9643 14.3779 52.9604 14.8594 52.8084 15.3278C52.2702 16.9833 50.7927 18.1801 48.9893 18.2315C47.007 18.288 45.1857 16.7675 44.9097 14.7887C44.886 14.6248 44.8736 14.4594 44.8728 14.2938C44.8668 9.74933 44.8624 5.20472 44.8594 0.659919V0.52544H47.7609Z" fill="black"/>
<path d="M69.4336 17.9726V0.522461H76.4974V3.47027H72.3804V7.51709H75.0288V10.4847H74.8611C74.0787 10.4847 73.2964 10.4847 72.514 10.4847C72.4117 10.4847 72.3743 10.5112 72.3743 10.6186C72.3765 12.0673 72.3765 13.5159 72.3743 14.9643C72.3763 14.9845 72.3797 15.0045 72.3843 15.0242H76.5008V17.9743L69.4336 17.9726Z" fill="black"/>
<path d="M33.337 3.45234V0.521484H41.4219V3.46365H38.8557V17.9744H35.9156V3.68853C35.9156 3.46251 35.9262 3.47551 35.7144 3.47382C34.9879 3.46741 34.2614 3.46025 33.5349 3.45234C33.474 3.45178 33.413 3.45234 33.337 3.45234Z" fill="black"/>
</svg>
