<svg width="127" height="15" viewBox="0 0 127 15" fill="none" xmlns="http://www.w3.org/2000/svg">
<path d="M26.6032 12.4826V5.42713C26.6032 5.07715 26.6032 4.75168 26.5851 4.4122C26.567 4.07272 26.549 3.73675 26.5093 3.40077H28.9356L28.9753 4.91966C29.2296 4.38765 29.6436 3.94242 30.1632 3.64225C30.7041 3.35225 31.3145 3.20614 31.9324 3.21878C32.5732 3.19599 33.205 3.36992 33.7377 3.71575C34.2087 4.02773 34.5582 4.48361 34.7306 5.01066C34.8394 4.73385 34.9997 4.47879 35.2036 4.25821C35.4059 4.03897 35.6407 3.85024 35.9005 3.69825C36.161 3.54827 36.44 3.43069 36.7309 3.34827C37.0179 3.26489 37.3159 3.22245 37.6155 3.22228C38.0992 3.20861 38.5803 3.29449 39.0273 3.47426C39.3943 3.63174 39.7173 3.87168 39.9696 4.17422C40.2178 4.4845 40.395 4.84239 40.4896 5.22414C40.5987 5.67249 40.652 6.1319 40.6484 6.59255V12.4826H38.0705V6.82003C38.0722 6.58523 38.0504 6.35082 38.0055 6.12008C37.9678 5.91649 37.8933 5.72098 37.7852 5.54262C37.6789 5.37422 37.5281 5.23646 37.3483 5.14365C37.1236 5.03856 36.8755 4.98925 36.6262 5.00016C36.3377 4.98969 36.0528 5.06544 35.8102 5.21714C35.5846 5.36191 35.3988 5.55769 35.2686 5.78761C35.1298 6.03321 35.0334 6.29922 34.9834 6.57505C34.9269 6.8611 34.8991 7.15176 34.9003 7.44299V12.4826H32.3332V6.82003C32.3347 6.58568 32.3166 6.3516 32.279 6.12008C32.2459 5.91585 32.1724 5.71977 32.0624 5.54262C31.9571 5.37344 31.806 5.23546 31.6255 5.14365C31.4005 5.03939 31.1526 4.99012 30.9034 5.00016C30.6139 4.9912 30.3284 5.0668 30.0838 5.21714C29.8582 5.36191 29.6723 5.55769 29.5422 5.78761C29.4006 6.03234 29.3029 6.29861 29.2533 6.57505C29.1969 6.8611 29.1691 7.15176 29.1703 7.44299V12.4826H26.6032Z" fill="#231F20"/>
<path d="M51.4982 12.483V5.42749C51.4982 5.07752 51.4982 4.75204 51.4982 4.41256C51.4982 4.07309 51.4621 3.73711 51.4224 3.40113H53.8523L53.8884 4.92003C54.1631 4.37708 54.6029 3.9288 55.1485 3.63562C55.6974 3.35346 56.3109 3.21021 56.9321 3.21914C58.0611 3.21914 58.8722 3.52362 59.3657 4.13258C59.8869 4.85375 60.1413 5.72445 60.0878 6.60341V12.483H57.5135V7.18087C57.514 6.91539 57.4983 6.65011 57.4665 6.38643C57.4426 6.14201 57.3702 5.90436 57.2535 5.68647C57.141 5.48594 56.9768 5.31712 56.7769 5.19651C56.5239 5.05924 56.2361 4.99375 55.9465 5.00752C55.6293 4.99536 55.315 5.07059 55.0402 5.22451C54.8006 5.36383 54.6018 5.5602 54.4625 5.79497C54.3158 6.03842 54.2144 6.30495 54.1628 6.58241C54.1059 6.87429 54.0781 7.17081 54.0798 7.46785V12.483H51.4982Z" fill="#231F20"/>
<path d="M86.0517 12.357C85.4649 12.1463 84.9317 11.8157 84.4884 11.3876C84.056 10.9586 83.7268 10.4423 83.5243 9.87567C83.3001 9.24184 83.1901 8.57531 83.1994 7.90531C83.1878 7.2287 83.3103 6.55623 83.5604 5.92444C83.7832 5.36637 84.131 4.86314 84.5786 4.45105C85.0243 4.0453 85.5516 3.73314 86.1276 3.53411C86.7631 3.31813 87.4327 3.21153 88.1062 3.21913C89.6226 3.21913 90.8262 3.62277 91.7168 4.43005C92.6074 5.23732 93.0455 6.39574 93.0311 7.90531C93.0416 8.5797 92.9279 9.25052 92.6953 9.88617C92.4811 10.4491 92.145 10.9611 91.7096 11.3876C91.2717 11.8131 90.743 12.1404 90.1606 12.3465C89.5047 12.5832 88.8097 12.7018 88.1098 12.6965C87.4046 12.7072 86.7029 12.5971 86.0373 12.371L86.0517 12.357ZM86.4272 10.0192C86.5956 10.2973 86.8248 10.5362 87.0988 10.7191C87.3989 10.9086 87.7519 11.0039 88.1098 10.9921C88.4708 11.0046 88.8276 10.9133 89.1352 10.7296C89.4116 10.5526 89.6385 10.3122 89.7959 10.0297C89.973 9.72282 90.095 9.38912 90.157 9.04273C90.2255 8.6696 90.2593 8.29129 90.2581 7.91231C90.2579 7.56006 90.224 7.20858 90.157 6.86238C90.0912 6.52583 89.9693 6.20193 89.7959 5.90345C89.638 5.62351 89.4141 5.38369 89.1424 5.20349C88.8305 5.01401 88.4668 4.92009 88.099 4.93401C87.7358 4.9214 87.3771 5.01532 87.0699 5.20349C86.796 5.38325 86.5696 5.62305 86.4092 5.90345C86.2339 6.2048 86.1119 6.53247 86.0481 6.87288C85.9062 7.58373 85.9062 8.31438 86.0481 9.02523C86.1167 9.3699 86.2385 9.7026 86.4092 10.0122" fill="#158A44"/>
<path d="M100.288 12.4832L100.231 10.9643C99.9558 11.5056 99.5209 11.9552 98.9813 12.2558C98.4384 12.5444 97.8275 12.6915 97.2084 12.6827C96.7152 12.6926 96.2247 12.6094 95.7642 12.4377C95.3825 12.2879 95.0459 12.0472 94.7857 11.7378C94.5286 11.4239 94.3417 11.0616 94.2369 10.6739C94.1145 10.2168 94.055 9.74612 94.06 9.27396V3.40137H96.6344V8.7C96.635 8.96894 96.6506 9.23765 96.6813 9.50495C96.706 9.74835 96.7757 9.98545 96.8871 10.2049C96.9953 10.405 97.156 10.574 97.3529 10.6949C97.6059 10.8321 97.8937 10.8976 98.1833 10.8839C98.4804 10.8953 98.7749 10.8268 99.0343 10.686C99.2937 10.5451 99.5077 10.3374 99.6528 10.0859C99.8022 9.83992 99.9038 9.56947 99.9525 9.28796C100.009 8.99368 100.037 8.69487 100.036 8.39552V3.40137H102.614V10.4394C102.614 10.7894 102.614 11.1183 102.614 11.4613C102.614 11.8043 102.65 12.1613 102.689 12.4832H100.288Z" fill="#158A44"/>
<path d="M103.866 12.4829V5.42739C103.866 5.07741 103.866 4.75543 103.848 4.42296C103.83 4.09048 103.809 3.7545 103.772 3.41853H106.199L106.257 5.1684C106.371 4.91076 106.511 4.6646 106.675 4.43346C106.842 4.20092 107.04 3.99135 107.264 3.8105C107.482 3.6308 107.725 3.48122 107.986 3.36603C108.266 3.24885 108.569 3.19041 108.874 3.19454C109.011 3.19454 109.138 3.19454 109.257 3.19454C109.38 3.20625 109.501 3.23089 109.618 3.26804L109.546 5.51138C109.287 5.42571 109.014 5.38312 108.741 5.38539C108.36 5.37259 107.984 5.46614 107.657 5.65487C107.363 5.82908 107.115 6.06906 106.935 6.35482C106.748 6.6562 106.615 6.98643 106.542 7.33126C106.462 7.68191 106.421 8.03968 106.419 8.39868V12.4829H103.866Z" fill="#158A44"/>
<path d="M117.431 12.3394C117.023 12.4659 116.604 12.5561 116.179 12.6089C115.739 12.6596 115.296 12.6842 114.853 12.6824C114.14 12.6913 113.431 12.5812 112.756 12.3569C112.151 12.1534 111.598 11.8291 111.131 11.405C110.673 10.9832 110.313 10.4713 110.077 9.90358C109.822 9.26696 109.699 8.58787 109.716 7.90522C109.704 7.22654 109.843 6.55342 110.124 5.93135C110.373 5.37139 110.742 4.86916 111.207 4.45795C111.688 4.04653 112.249 3.73241 112.857 3.53402C113.525 3.3189 114.225 3.21247 114.929 3.21904C115.36 3.21657 115.791 3.24112 116.218 3.29253C116.623 3.34586 117.022 3.43011 117.413 3.54451L117.301 5.31889C116.723 5.05539 116.092 4.91914 115.453 4.91992C115.018 4.91372 114.586 4.99103 114.182 5.1474C113.827 5.28597 113.506 5.49454 113.24 5.75986C112.979 6.0293 112.782 6.35055 112.662 6.7013C112.529 7.08938 112.463 7.49622 112.467 7.90522C112.464 8.30759 112.526 8.70792 112.651 9.09163C112.769 9.44673 112.964 9.77355 113.221 10.0506C113.483 10.3239 113.8 10.5419 114.153 10.691C114.559 10.8551 114.995 10.9349 115.435 10.9255C115.753 10.927 116.071 10.9 116.384 10.845C116.712 10.7869 117.032 10.693 117.338 10.565L117.431 12.3394Z" fill="#158A44"/>
<path d="M0 12.5526V0.485417H4.40494C5.04251 0.482964 5.67834 0.549878 6.30051 0.684903C6.86395 0.801668 7.40095 1.01628 7.88557 1.31836C8.33618 1.60854 8.70778 1.99995 8.96875 2.45928C9.2593 2.99831 9.39992 3.60141 9.37675 4.20916C9.39452 4.82986 9.2544 5.44525 8.96875 6.00104C8.70918 6.48046 8.3384 6.89496 7.88557 7.21195C7.40848 7.54174 6.87032 7.77939 6.30051 7.91191C5.68643 8.06006 5.05581 8.13412 4.423 8.13239H2.70796V12.5526H0ZM2.68629 6.29502H3.66477C4.02715 6.29504 4.3891 6.27049 4.74795 6.22152C5.08 6.18118 5.40175 6.08276 5.69754 5.93104C5.97277 5.78509 6.20228 5.56988 6.36189 5.30808C6.54713 4.97194 6.6345 4.59327 6.61463 4.21266C6.64517 3.9218 6.59342 3.62836 6.46493 3.36385C6.33643 3.09934 6.13605 2.87374 5.88529 2.71126C5.25314 2.39033 4.54345 2.24042 3.83086 2.27729H2.68629V6.29502Z" fill="#231F20"/>
<path d="M17.4898 11.524C17.4898 11.1985 17.4898 10.8241 17.4898 10.3481V6.74683C17.5077 6.17298 17.3968 5.6022 17.1648 5.07395C16.9591 4.64274 16.6435 4.26938 16.2478 3.98902C15.8407 3.70413 15.3773 3.50395 14.8866 3.40106C14.3145 3.27477 13.7293 3.2137 13.1426 3.21908C12.591 3.22563 12.0412 3.28069 11.4998 3.38357C11.0741 3.46197 10.6552 3.57196 10.2469 3.71254C10.2647 3.87646 10.2731 4.04119 10.2722 4.20601C10.2769 4.6317 10.2136 5.05553 10.0844 5.46242C10.9114 5.03536 11.8303 4.80279 12.7671 4.78347C13.345 4.74923 13.9195 4.89119 14.41 5.18944C14.6139 5.35394 14.7732 5.56434 14.8739 5.80227C14.9746 6.0402 15.0136 6.29841 14.9877 6.55435V6.88332C14.8143 6.88332 14.6266 6.86232 14.428 6.85883H13.8684C13.235 6.85705 12.6025 6.90268 11.9764 6.99532C11.417 7.07143 10.8743 7.23576 10.3697 7.48178C9.92318 7.69991 9.54069 8.02372 9.25761 8.42322C8.96868 8.86983 8.82641 9.39093 8.84961 9.91761C8.84553 10.3189 8.93049 10.7164 9.09875 11.083C9.26148 11.4191 9.49809 11.7165 9.79198 11.9545C10.0898 12.1924 10.4317 12.3729 10.7993 12.4864C11.1938 12.6088 11.6056 12.6702 12.0197 12.6684C12.6465 12.684 13.2672 12.5468 13.825 12.2695C14.3349 12.0011 14.7632 11.6077 15.0671 11.1285L15.1393 12.4829H17.5656C17.5259 12.168 17.5042 11.8495 17.4898 11.524ZM14.9877 8.53871C14.9886 8.86531 14.9425 9.19045 14.8504 9.50464C14.7665 9.80139 14.6283 10.0811 14.4424 10.3306C14.2522 10.5756 14.0047 10.7735 13.7203 10.908C13.4046 11.0571 13.0569 11.1315 12.7057 11.125C12.3447 11.1381 11.9917 11.0194 11.7164 10.7926C11.5789 10.6633 11.4724 10.5064 11.4044 10.3328C11.3364 10.1592 11.3085 9.97327 11.3229 9.78812C11.3093 9.48868 11.4095 9.19482 11.6045 8.96218C11.8014 8.74368 12.0489 8.57339 12.3266 8.46521C12.6534 8.34027 12.9957 8.25789 13.3448 8.22023C13.72 8.17842 14.0973 8.15739 14.4749 8.15724H14.9949L14.9877 8.53871Z" fill="#231F20"/>
<path d="M67.2911 10.481C67.1214 10.551 66.93 10.6175 66.7748 10.6735C66.6355 10.7283 66.4918 10.7716 66.3451 10.803C66.251 10.8244 66.1558 10.8408 66.0599 10.852C65.9613 10.8572 65.8624 10.8572 65.7638 10.852C65.5892 10.8763 65.4111 10.8516 65.2505 10.7809C65.09 10.7102 64.9536 10.5964 64.8575 10.453C64.7074 10.1486 64.6344 9.81388 64.6445 9.47661V5.04592H66.7351V3.40103H64.6301V0.741211L62.0521 1.55316V3.38353H61.9871H60.3732V5.02842H62.0521V9.46261C62.0504 9.8989 62.0879 10.3345 62.164 10.7645C62.2273 11.1279 62.3674 11.4746 62.5756 11.783C62.7795 12.0708 63.0603 12.2994 63.388 12.4444C63.7732 12.6007 64.1872 12.6793 64.6048 12.6754C64.6842 12.6754 64.7601 12.6754 64.8395 12.6754C65.336 12.6788 65.832 12.646 66.3234 12.5774C66.6509 12.5259 66.9743 12.4523 67.2911 12.3569V10.481Z" fill="#231F20"/>
<path d="M74.0825 11.1183C74.3321 10.6922 74.4569 10.2082 74.4436 9.71836C74.4616 9.27338 74.3516 8.8323 74.1259 8.44445C73.9117 8.12252 73.6285 7.84916 73.2954 7.643C72.9711 7.43238 72.6189 7.26521 72.2483 7.14604C71.8873 7.02354 71.5262 6.90805 71.2049 6.79606C70.9239 6.69921 70.656 6.56995 70.4069 6.41109C70.3077 6.3515 70.2262 6.26787 70.1705 6.16845C70.1148 6.06903 70.0868 5.95724 70.0892 5.84413C70.0816 5.67434 70.1352 5.50729 70.2408 5.37166C70.3374 5.25264 70.4609 5.15682 70.6019 5.09168C70.7592 5.02353 70.9258 4.97757 71.0966 4.95519C71.2664 4.93195 71.4377 4.92026 71.6093 4.92019C72.3303 4.91549 73.0465 5.03396 73.7251 5.27017C73.6645 5.16242 73.6102 5.05142 73.5626 4.93769C73.426 4.57341 73.3599 4.18781 73.3676 3.80027C73.3676 3.65328 73.3676 3.51679 73.3893 3.3803C73.2088 3.3453 73.0282 3.3138 72.8224 3.2823C72.381 3.22349 71.9357 3.19659 71.4901 3.20181C71.0408 3.20378 70.593 3.25188 70.1542 3.3453C69.7176 3.43651 69.2993 3.59609 68.9157 3.81777C68.5446 4.03195 68.2285 4.32516 67.9914 4.67521C67.7397 5.06194 67.6139 5.51314 67.6304 5.97012C67.6113 6.39618 67.7245 6.818 67.9553 7.18103C68.1696 7.49023 68.4459 7.75446 68.7677 7.95798C69.0953 8.16587 69.4467 8.33617 69.8148 8.46545C70.1759 8.59844 70.5369 8.72793 70.8583 8.85392C71.1475 8.96354 71.4206 9.10944 71.6706 9.28789C71.7732 9.35914 71.8566 9.45324 71.9138 9.56226C71.971 9.67129 72.0003 9.79204 71.9992 9.91434C72.0141 10.079 71.9789 10.2442 71.8981 10.3898C71.8173 10.5353 71.6943 10.6547 71.5443 10.7333C71.1764 10.9077 70.7691 10.9895 70.36 10.9713C69.5741 10.9732 68.7974 10.8071 68.0853 10.4848V12.3782C68.3926 12.4701 68.7063 12.5402 69.0241 12.5882C69.5154 12.6578 70.0115 12.6917 70.508 12.6897C70.9818 12.689 71.4541 12.6373 71.9162 12.5357C72.3626 12.4415 72.7888 12.2734 73.1763 12.0387C73.5494 11.8089 73.8602 11.4957 74.0825 11.1253" fill="#231F20"/>
<path d="M82.1992 7.67783C82.05 7.33382 81.8385 7.01852 81.5745 6.74689C81.3011 6.46764 80.9844 6.23148 80.6358 6.04694C80.2613 5.84836 79.8742 5.67302 79.4768 5.52197L78.6536 5.1965C78.2093 5.02491 77.7846 4.8091 77.3862 4.55254C77.2208 4.45229 77.085 4.31226 76.992 4.14606C76.899 3.97986 76.852 3.79315 76.8555 3.60411C76.8475 3.35574 76.9194 3.11111 77.0613 2.90415C77.1958 2.71685 77.3755 2.56426 77.5848 2.45968C77.8112 2.34631 78.0551 2.26947 78.3069 2.2322C78.5455 2.19211 78.787 2.17104 79.0291 2.1692C79.4751 2.17019 79.92 2.21237 80.3578 2.2952C80.8145 2.37982 81.261 2.51001 81.6901 2.68367L81.7803 0.604813C81.3518 0.458456 80.9071 0.360973 80.4552 0.314333C79.923 0.256445 79.3877 0.229565 78.8521 0.233838C78.3118 0.236212 77.7733 0.293691 77.2454 0.405326C76.7027 0.513847 76.1827 0.71025 75.7073 0.986286C75.236 1.2592 74.8387 1.63713 74.5483 2.08871C74.229 2.61092 74.0712 3.21097 74.0934 3.81759C74.0856 4.20513 74.1517 4.59073 74.2883 4.95501C74.4079 5.2733 74.5812 5.57014 74.801 5.83345C75.0133 6.08226 75.2657 6.29618 75.5484 6.46691C75.8393 6.64503 76.1448 6.79955 76.4619 6.92888L77.4693 7.34535C78.0287 7.54722 78.5561 7.82406 79.0363 8.16779C79.2039 8.28936 79.339 8.44819 79.4301 8.6309C79.5212 8.81361 79.5657 9.01486 79.5598 9.21772C79.5697 9.48497 79.4981 9.74911 79.354 9.97717C79.2223 10.1774 79.0443 10.3452 78.8341 10.4671C78.6164 10.5876 78.3797 10.6727 78.1336 10.7191C77.884 10.7675 77.63 10.7921 77.3754 10.7926C76.8762 10.7876 76.3789 10.7325 75.8914 10.6281C75.8517 10.6281 75.3282 10.4916 74.996 10.3796C74.9534 10.6836 74.8517 10.9769 74.6963 11.2441C74.4825 11.6026 74.1843 11.9072 73.8262 12.133C74.504 12.3322 75.1937 12.4912 75.8914 12.609C76.452 12.6763 77.0163 12.7102 77.5812 12.7105C78.1471 12.7074 78.7111 12.6464 79.2637 12.5285C79.8196 12.4149 80.3503 12.2063 80.8308 11.9125C81.3468 11.6066 81.7681 11.1714 82.0502 10.6527C82.3324 10.1341 82.4649 9.55129 82.4339 8.96574C82.4454 8.53462 82.3656 8.10579 82.1992 7.70582" fill="#158A44"/>
<path d="M50.1876 7.20913C50.1876 7.35962 50.1876 7.55911 50.1876 7.79359C50.1876 8.02807 50.1659 8.25906 50.1478 8.46904H43.9484C43.9424 8.82734 44.0061 9.18353 44.1362 9.51897C44.2552 9.80967 44.4389 10.0714 44.6742 10.2854C44.911 10.4983 45.1898 10.6626 45.4938 10.7684C45.8431 10.88 46.2092 10.9344 46.5769 10.9294C47.0673 10.9265 47.557 10.8926 48.0429 10.8279C48.5936 10.7493 49.1378 10.6323 49.6712 10.4779V12.2278C49.4293 12.2943 49.1694 12.3538 48.8841 12.4098C48.5989 12.4658 48.31 12.5113 48.0104 12.5533C47.7107 12.5953 47.4146 12.6268 47.1113 12.6478C46.808 12.6688 46.5156 12.6793 46.2339 12.6793C45.5784 12.688 44.9262 12.5874 44.3059 12.3818C43.7627 12.1992 43.269 11.9001 42.8616 11.5068C42.4528 11.0995 42.1421 10.6095 41.9518 10.0719C41.7311 9.4351 41.6248 8.76626 41.6376 8.09457C41.629 7.40712 41.7351 6.72285 41.9518 6.06821C42.1438 5.49763 42.4465 4.96784 42.8436 4.50732C43.2248 4.07482 43.701 3.73044 44.2373 3.49939C44.8149 3.25819 45.439 3.13889 46.0678 3.14941C46.6733 3.13724 47.2755 3.23947 47.8407 3.45039C48.3293 3.63417 48.7696 3.92109 49.1296 4.29033C49.481 4.66099 49.749 5.09837 49.9168 5.57474C50.0991 6.10132 50.1894 6.65371 50.1839 7.20913H50.1876ZM47.8876 6.89415C47.8974 6.57594 47.8498 6.25851 47.7468 5.95622C47.6608 5.7109 47.5231 5.48563 47.3424 5.29476C47.1773 5.12498 46.9749 4.9934 46.7503 4.90979C46.5196 4.82522 46.2748 4.78252 46.0281 4.7838C45.7683 4.77595 45.5096 4.82112 45.2689 4.91638C45.0282 5.01164 44.8108 5.15486 44.6308 5.33676C44.2383 5.76944 44.0091 6.31861 43.9809 6.89415H47.8876Z" fill="#231F20"/>
<path d="M126.628 7.20889C126.628 7.35938 126.628 7.55886 126.628 7.79335C126.628 8.02783 126.606 8.25881 126.584 8.4688H120.378C120.373 8.82732 120.438 9.18352 120.569 9.51873C120.687 9.80987 120.871 10.0717 121.107 10.2852C121.348 10.4973 121.632 10.6582 121.941 10.7576C122.29 10.8696 122.656 10.9241 123.024 10.9186C123.516 10.9157 124.007 10.8818 124.494 10.8171C125.045 10.7386 125.589 10.6216 126.122 10.4672V12.217C125.88 12.2835 125.617 12.343 125.331 12.399C125.046 12.455 124.757 12.5005 124.461 12.5425C124.165 12.5845 123.866 12.616 123.562 12.637C123.259 12.658 122.967 12.6685 122.681 12.6685C122.026 12.6767 121.374 12.5761 120.753 12.371C120.21 12.1876 119.717 11.8886 119.309 11.4961C118.901 11.0884 118.592 10.5984 118.403 10.0612C118.182 9.42435 118.076 8.75552 118.089 8.08383C118.08 7.39638 118.186 6.7121 118.403 6.05746C118.592 5.48649 118.894 4.95645 119.291 4.49657C119.673 4.06322 120.15 3.71873 120.688 3.48864C121.266 3.24672 121.89 3.12739 122.519 3.13867C123.123 3.1265 123.724 3.22874 124.288 3.43964C124.777 3.62343 125.217 3.91035 125.577 4.27959C125.935 4.65082 126.206 5.0925 126.371 5.5745C126.557 6.10046 126.648 6.65315 126.642 7.20889H126.628ZM124.342 6.89391C124.355 6.57582 124.308 6.25811 124.205 5.95597C124.118 5.71129 123.98 5.48628 123.801 5.29452C123.635 5.12546 123.433 4.994 123.208 4.90954C122.978 4.82529 122.733 4.78259 122.486 4.78355C122.226 4.77565 121.967 4.82078 121.725 4.91602C121.484 5.01127 121.266 5.15452 121.085 5.33651C120.687 5.7631 120.451 6.30898 120.417 6.88341L124.342 6.89391Z" fill="#158A44"/>
<path d="M25.8665 3.38379H23.469L22.0248 8.58443L19.9018 3.38379H17.2588L20.8947 10.8243L20.7141 11.3772C20.6117 11.7101 20.4256 12.0131 20.1726 12.2592C19.998 12.4156 19.7792 12.5179 19.5443 12.5532H19.2049V14.233H19.8584C20.2565 14.2405 20.6524 14.174 21.0247 14.0371C21.3556 13.9083 21.6573 13.7181 21.9129 13.4771C22.1842 13.2113 22.4119 12.9068 22.588 12.5742C22.7918 12.1762 22.9656 11.7645 23.108 11.3422L23.2596 10.8978L23.4077 10.5163L25.8665 3.38379Z" fill="#231F20"/>
</svg>
