<svg width="116" height="19" viewBox="0 0 116 19" fill="none" xmlns="http://www.w3.org/2000/svg">
<path d="M9.39464 7.89503C8.75935 8.33781 7.91229 8.54957 6.89197 8.54957H2.31016V2.63942H6.87272C7.75828 2.63942 8.45133 2.75493 8.95186 3.00519C9.87593 3.44797 10.338 4.31428 10.338 5.56562C10.338 6.68219 10.0299 7.4715 9.39464 7.89503ZM7.64277 0.675781H0V17.7325H2.31016V10.5132H7.64277C9.35614 10.5132 10.6075 10.0127 11.4353 9.03085C12.2631 8.04904 12.6866 6.89396 12.6866 5.54637C12.6866 4.00626 12.2246 2.79343 11.3005 1.94637C10.3572 1.09931 9.14438 0.675781 7.64277 0.675781Z" fill="#194C0B"/>
<path d="M19.54 8.85759L14.6502 0.675781H11.955L18.4042 10.8597V17.7325H20.7144V10.8597L27.1636 0.675781H24.4491L19.54 8.85759Z" fill="#194C0B"/>
<path d="M53.6727 14.4604L45.1636 0.676479H44.663H42.4491H41.3711L36.5005 15.0957L31.5914 0.676479H28.2802V17.7332H30.4941V7.66471C30.4941 7.26044 30.4748 6.62514 30.4556 5.77808C30.4363 4.93102 30.4171 4.27648 30.4171 3.8722V3.35241L35.3261 17.7332H37.617L42.4299 3.50643V17.7332H44.6245V3.96846L53.2491 17.7139H55.8481V0.657227H53.6342V14.4604H53.6727Z" fill="#194C0B"/>
<path d="M70.9026 0.675781H57.0609V2.69717H62.8171V17.7325H65.1465V2.69717H70.9026V0.675781Z" fill="#194C0B"/>
<path d="M82.4535 9.47404C81.8374 9.01201 80.9904 8.66548 79.8738 8.39596L77.5636 7.85693C76.0043 7.49115 75.0032 7.18313 74.5604 6.93286C73.8866 6.54783 73.5401 5.93179 73.5401 5.10398C73.5401 4.35318 73.8289 3.67939 74.3872 3.10185C74.9647 2.52431 75.8888 2.23554 77.1979 2.23554C78.815 2.23554 79.9701 2.67832 80.6438 3.56388C81.0096 4.04516 81.2406 4.75746 81.3561 5.66227H83.5315C83.5315 3.75639 82.9155 2.38954 81.7027 1.52323C80.4898 0.656924 79.0075 0.233398 77.2749 0.233398C75.3882 0.233398 73.9251 0.714678 72.8856 1.71575C71.846 2.69757 71.3455 3.9489 71.3455 5.48901C71.3455 6.91361 71.8652 7.97243 72.9241 8.68473C73.5401 9.08901 74.5604 9.47404 76.0235 9.82056L78.2567 10.3404C79.4695 10.6291 80.3551 10.9564 80.9326 11.3414C81.4909 11.7264 81.7797 12.4002 81.7797 13.3243C81.7797 14.5564 81.1251 15.4227 79.7968 15.904C79.1037 16.1543 78.3529 16.2698 77.5059 16.2698C75.6385 16.2698 74.3487 15.7115 73.5979 14.5756C73.2128 13.9789 72.9818 13.1895 72.9433 12.227H70.7679C70.7487 14.0751 71.3262 15.519 72.4813 16.597C73.6556 17.6751 75.2727 18.2334 77.3326 18.2334C79.1037 18.2334 80.6631 17.8291 82.0107 17.0206C83.3583 16.212 84.0128 14.8644 84.0128 12.9585C84.0321 11.4377 83.5123 10.2826 82.4535 9.47404Z" fill="#194C0B"/>
<path d="M94.3316 9.87887C94.9091 10.3409 95.2749 11.111 95.3904 12.2275H94.0428C93.9658 11.7077 93.7733 11.2842 93.4845 10.9569C93.1957 10.6104 92.7144 10.4564 92.0599 10.4564C91.1743 10.4564 90.539 10.8799 90.154 11.7462C89.9038 12.3045 89.7882 12.9976 89.7882 13.8254C89.7882 14.6532 89.9615 15.3462 90.308 15.9238C90.6546 16.4821 91.2128 16.7708 91.9636 16.7708C92.5412 16.7708 93.0032 16.5976 93.3305 16.2511C93.677 15.9045 93.908 15.4232 94.0235 14.8072H95.3711C95.2171 15.9045 94.8321 16.7131 94.2161 17.2136C93.6 17.7142 92.8107 17.9837 91.8289 17.9837C90.7508 17.9837 89.8845 17.5794 89.23 16.7901C88.5947 16.0008 88.2674 14.9997 88.2674 13.8254C88.2674 12.3623 88.6139 11.2457 89.3262 10.4179C90.0385 9.60935 90.9433 9.20508 92.0214 9.20508C92.984 9.20508 93.754 9.41684 94.3316 9.87887Z" fill="#A6A8AB"/>
<path d="M101.608 15.7698C101.955 15.0767 102.109 14.2874 102.109 13.4404C102.109 12.6703 101.993 12.035 101.743 11.5537C101.358 10.7837 100.684 10.4179 99.7411 10.4179C98.894 10.4179 98.278 10.7452 97.9122 11.3997C97.5272 12.0543 97.3347 12.8243 97.3347 13.7484C97.3347 14.6339 97.5272 15.3655 97.9122 15.9623C98.2972 16.5591 98.894 16.8478 99.7411 16.8478C100.646 16.8286 101.262 16.4628 101.608 15.7698ZM102.475 10.2639C103.206 10.9762 103.572 12.0158 103.572 13.4019C103.572 14.7302 103.245 15.8468 102.61 16.7131C101.955 17.5794 100.954 18.0222 99.6063 18.0222C98.4705 18.0222 97.585 17.6372 96.9112 16.8671C96.2374 16.097 95.9101 15.0575 95.9101 13.7676C95.9101 12.3815 96.2566 11.265 96.9689 10.4372C97.662 9.60935 98.6053 9.20508 99.7989 9.20508C100.838 9.20508 101.743 9.5516 102.475 10.2639Z" fill="#A6A8AB"/>
<path d="M104.323 9.43568H105.709V10.61C106.036 10.2057 106.344 9.89771 106.614 9.72445C107.076 9.41643 107.596 9.24316 108.173 9.24316C108.828 9.24316 109.367 9.39717 109.771 9.72445C110.002 9.91696 110.214 10.1865 110.387 10.5523C110.695 10.1095 111.061 9.7822 111.484 9.57044C111.908 9.35867 112.37 9.24316 112.89 9.24316C114.006 9.24316 114.757 9.64744 115.161 10.456C115.373 10.8988 115.489 11.4763 115.489 12.2079V17.733H114.045V11.9768C114.045 11.4186 113.91 11.0528 113.621 10.841C113.352 10.6293 113.005 10.533 112.62 10.533C112.081 10.533 111.6 10.7063 111.215 11.072C110.83 11.4378 110.618 12.0539 110.618 12.9009V17.733H109.194V12.3234C109.194 11.7651 109.136 11.3416 109.001 11.0913C108.789 10.7063 108.404 10.5138 107.827 10.5138C107.307 10.5138 106.826 10.7255 106.383 11.1298C105.959 11.5341 105.728 12.2849 105.728 13.3437V17.733H104.342V9.43568H104.323Z" fill="#A6A8AB"/>
<path d="M84.9177 16.5782C84.9177 15.9429 85.4374 15.4424 86.0535 15.4424C86.6888 15.4424 87.1893 15.9429 87.1893 16.5782C87.1893 17.2135 86.6888 17.7141 86.0535 17.7141C85.4182 17.7333 84.9177 17.2135 84.9177 16.5782Z" fill="#A6A8AB"/>
</svg>
