<svg width="147" height="42" viewBox="0 0 147 42" fill="none" xmlns="http://www.w3.org/2000/svg">
<path d="M15.5218 16.5692V33.1385H22.2947C22.8591 33.115 23.3001 32.6465 23.2824 32.0784V16.5692H15.5218ZM0.000511192 32.0784C-0.0171266 32.6406 0.423819 33.115 0.988229 33.1385H7.76115V16.5692H0.000511192V32.0784ZM23.2766 8.28169V1.05425C23.2942 0.491982 22.8532 0.0234277 22.2888 0H0.988229C0.423819 0.0234277 -0.0171266 0.491982 0.000511192 1.05425V8.28169H23.2766ZM60.0338 10.9759C59.0225 10.4136 57.5174 10.1325 55.5244 10.1325C53.4784 10.1266 51.4442 10.3668 49.457 10.8412V14.613C51.0444 14.408 52.6376 14.285 54.2368 14.2558C55.4303 14.2558 56.2769 14.3436 56.7943 14.5252C57.3058 14.7009 57.6644 15.105 57.8761 15.7258C58.0819 16.3467 58.1818 17.3834 58.1818 18.83V19.937C56.3004 19.8198 54.8306 19.7671 53.7782 19.7671C52.4201 19.7671 51.3618 19.9897 50.5975 20.4348C49.8391 20.8799 49.2923 21.6003 48.9572 22.6077C48.628 23.6151 48.4575 24.9915 48.4575 26.731C48.4575 29.0972 48.8396 30.8133 49.5981 31.8734C50.3624 32.9335 51.6147 33.4665 53.3608 33.4665H53.402C54.225 33.484 56.7414 33.402 57.9055 31.809C58.0936 31.5512 58.2582 31.276 58.3817 30.989L58.511 33.115H62.6677V19.0936C62.6677 16.7567 62.4796 14.9586 62.1092 13.7052C61.7388 12.4518 61.0391 11.5381 60.0338 10.9759ZM58.1759 24.5054C58.1759 26.4264 57.9819 27.6681 57.5939 28.2304C57.3528 28.5584 57.0236 28.8044 56.6414 28.9391C56.2122 29.0679 55.7595 29.1265 55.3127 29.1089C54.3191 29.1089 53.6665 28.9215 53.3608 28.5525C53.0551 28.1835 52.9022 27.4221 52.9022 26.2683C52.9022 25.4073 52.9669 24.7748 53.0904 24.3589C53.1668 24.0017 53.3961 23.6971 53.7136 23.5155C54.0016 23.3691 54.4543 23.293 55.0658 23.293H58.1818V24.5054H58.1759ZM96.2677 12.241C96.1796 12.0828 96.0796 11.9247 95.9679 11.7783C94.5628 9.8572 91.1998 10.1442 91.1998 10.1442C89.8711 10.1793 88.8246 10.5015 88.0779 11.1282C87.2901 11.7958 86.7257 12.9555 86.3964 14.6072C86.0672 16.2588 85.8967 18.6309 85.8967 21.7058C85.8967 24.7221 86.0554 27.0414 86.3729 28.6696C86.6904 30.2979 87.2372 31.4458 88.0132 32.1252C88.7893 32.8105 89.9122 33.156 91.3762 33.156H91.4938L91.482 33.1678C91.482 33.1678 94.5216 33.4137 96.0267 31.7972C96.0267 33.6539 95.9385 34.9717 95.7798 35.7389C95.6151 36.5413 95.2447 37.0802 94.6803 37.3555C94.11 37.6366 93.1341 37.7772 91.7524 37.7772L87.1078 37.6893V41.467C87.9662 41.6427 88.8305 41.7716 89.7065 41.8419C90.7706 41.9473 91.7936 42 92.7578 42C95.1154 42 96.8439 41.6017 97.9551 40.7993C99.0604 39.9969 99.7718 38.8138 100.077 37.25C100.383 35.6804 100.536 33.3435 100.536 30.2393V10.4898H96.3736L96.2677 12.241ZM95.7504 26.8599C95.6093 27.5978 95.3506 28.1191 94.9625 28.4119C94.5745 28.7048 94.0101 28.8571 93.2575 28.8571C92.3404 28.8571 91.6937 28.7165 91.3233 28.4354C90.9529 28.1542 90.7059 27.5393 90.5766 26.5963C90.4531 25.6475 90.3885 24.0251 90.3885 21.7175C90.3885 19.3513 90.4531 17.7113 90.5766 16.7918C90.7001 15.8781 90.9411 15.2807 91.3056 15.0172C91.6643 14.7536 92.3169 14.6189 93.2575 14.6189C94.063 14.6189 94.6568 14.7887 95.0448 15.1343C95.4329 15.4798 95.6974 16.1183 95.8268 17.0554C95.962 17.9163 96.0267 19.4684 96.0267 21.7175C96.0326 24.2887 95.9385 26.0047 95.7504 26.8599ZM116.963 11.2629C116.004 10.5073 114.417 10.1325 112.206 10.1325C109.961 10.1325 108.314 10.5249 107.262 11.3097C106.21 12.0945 105.528 13.2718 105.228 14.8356C104.922 16.4052 104.769 18.7422 104.769 21.8463C104.769 24.9798 104.928 27.3225 105.245 28.8746C105.563 30.4267 106.268 31.5805 107.368 32.3361C108.461 33.0916 110.172 33.4665 112.5 33.4665C113.617 33.4665 114.735 33.3962 115.846 33.2673C116.781 33.1736 117.704 33.0038 118.609 32.7519V28.9801C116.916 29.1909 115.205 29.3139 113.5 29.3373C112.112 29.3373 111.142 29.2085 110.59 28.9566C110.037 28.7048 109.678 28.2011 109.514 27.4514C109.349 26.7017 109.261 25.3605 109.261 23.4336H119.109V21.7936C119.109 18.5137 118.991 16.1241 118.756 14.6306C118.521 13.1371 117.915 12.0126 116.963 11.2629ZM114.817 19.896H109.249C109.279 18.1506 109.355 16.9089 109.478 16.171C109.602 15.433 109.861 14.9293 110.249 14.6599C110.637 14.3963 111.26 14.2616 112.118 14.2616C112.924 14.2616 113.494 14.3787 113.864 14.6189C114.235 14.859 114.476 15.3569 114.611 16.13C114.746 16.9031 114.817 18.1389 114.817 19.855V19.896ZM146.588 13.5295C146.324 12.3874 145.854 11.5381 145.172 10.9817C144.495 10.4253 143.502 10.1442 142.202 10.1383C142.144 10.1383 142.097 10.1442 142.032 10.1442C141.967 10.1442 138.663 9.93334 137.252 11.79C137.093 11.995 136.958 12.2175 136.846 12.4518C136.629 11.8368 136.241 11.3039 135.729 10.8997C135.077 10.4136 134.101 10.1735 132.819 10.15C131.538 10.1325 129.386 9.92163 128.039 11.7958C127.886 12.0067 127.751 12.2234 127.634 12.4577L127.522 10.5073H123.43V33.1326H127.916V21.3133C127.916 19.363 127.963 17.9515 128.063 17.0788C128.163 16.2061 128.386 15.5794 128.751 15.1929C129.115 14.8063 129.703 14.613 130.538 14.613C131.343 14.613 131.896 14.7243 132.202 14.9469C132.508 15.1694 132.707 15.6731 132.807 16.458C132.901 17.2428 132.954 18.6367 132.954 20.6515V33.115H137.44V21.3133C137.44 19.363 137.487 17.9515 137.587 17.0788C137.687 16.2061 137.922 15.5794 138.293 15.1929C138.669 14.8063 139.269 14.6189 140.104 14.613C140.909 14.613 141.462 14.7243 141.767 14.9469C142.073 15.1694 142.273 15.6731 142.367 16.458C142.461 17.2428 142.514 18.6367 142.514 20.6515V33.115H147V18.2033C146.982 16.2237 146.847 14.6657 146.588 13.5295ZM79.9351 10.9993C79.2296 10.4195 78.1831 10.1325 76.7956 10.1325H76.6604C76.6133 10.1325 73.2563 9.93334 71.8805 11.7783C71.7864 11.9071 71.6924 12.0477 71.6159 12.1883L71.516 10.4898H67.4064V33.115H71.8923V21.3133C71.8688 19.9077 71.9217 18.502 72.0393 17.0964C72.1333 16.2412 72.3802 15.6087 72.7624 15.2104C73.1504 14.8122 73.7854 14.613 74.6732 14.613C75.5021 14.613 76.0842 14.7243 76.4193 14.9469C76.7544 15.1694 76.972 15.679 77.0837 16.4755C77.1954 17.2721 77.2542 18.666 77.2542 20.6457V33.1092H81.7401V18.42C81.7401 16.3818 81.6166 14.777 81.3638 13.6056C81.1227 12.4401 80.6465 11.5733 79.9351 10.9993ZM43.1015 3.92414H38.6156V10.3668H35.8288V14.49H38.6156V33.115H43.1015V14.49H46.5056V10.3668H43.1015V3.92414Z" fill="white"/>
</svg>
