<svg width="85" height="25" viewBox="0 0 85 25" fill="none" xmlns="http://www.w3.org/2000/svg">
<path d="M8.95717 9.56162V19.1232H12.8656C13.1913 19.1097 13.4458 18.8393 13.4356 18.5115V9.56162H8.95717ZM0.000294994 18.5115C-0.00988328 18.836 0.244573 19.1097 0.570278 19.1232H4.47873V9.56162H0.000294994V18.5115ZM13.4322 4.77912V0.608375C13.4424 0.283908 13.1879 0.0135194 12.8622 0H0.570278C0.244573 0.0135194 -0.00988328 0.283908 0.000294994 0.608375V4.77912H13.4322ZM34.6437 6.33386C34.0602 6.00939 33.1916 5.84716 32.0415 5.84716C30.8608 5.84378 29.6869 5.98235 28.5402 6.25612V8.43275C29.4562 8.31446 30.3756 8.24348 31.2985 8.22658C31.9872 8.22658 32.4758 8.27728 32.7743 8.38205C33.0695 8.48345 33.2765 8.71666 33.3986 9.07492C33.5173 9.43319 33.575 10.0314 33.575 10.8662V11.505C32.4893 11.4374 31.6411 11.407 31.0338 11.407C30.2501 11.407 29.6394 11.5355 29.1984 11.7923C28.7607 12.0492 28.4452 12.4649 28.2518 13.0463C28.0618 13.6276 27.9634 14.4219 27.9634 15.4257C27.9634 16.7911 28.1839 17.7814 28.6216 18.3932C29.0627 19.005 29.7853 19.3125 30.793 19.3125H30.8167C31.2917 19.3227 32.7438 19.2753 33.4156 18.356C33.5241 18.2073 33.6191 18.0485 33.6904 17.8828L33.765 19.1097H36.1637V11.0183C36.1637 9.66978 36.0551 8.63216 35.8414 7.90887C35.6276 7.18558 35.2239 6.65832 34.6437 6.33386ZM33.5716 14.1413C33.5716 15.2499 33.4597 15.9665 33.2357 16.2909C33.0966 16.4802 32.9066 16.6222 32.6861 16.6999C32.4384 16.7742 32.1772 16.808 31.9194 16.7979C31.346 16.7979 30.9694 16.6897 30.793 16.4768C30.6165 16.2639 30.5283 15.8245 30.5283 15.1587C30.5283 14.6618 30.5656 14.2968 30.6369 14.0568C30.681 13.8507 30.8133 13.6749 30.9965 13.5701C31.1628 13.4856 31.424 13.4417 31.7769 13.4417H33.575V14.1413H33.5716ZM55.5533 7.06391C55.5024 6.97265 55.4447 6.88139 55.3803 6.7969C54.5694 5.6883 52.6287 5.85392 52.6287 5.85392C51.862 5.8742 51.2581 6.06009 50.8272 6.42173C50.3726 6.80704 50.0469 7.47625 49.8569 8.42937C49.6669 9.38249 49.5685 10.7513 49.5685 12.5258C49.5685 14.2664 49.6601 15.6048 49.8433 16.5444C50.0265 17.484 50.342 18.1465 50.7899 18.5385C51.2377 18.934 51.8857 19.1334 52.7305 19.1334H52.7984L52.7916 19.1401C52.7916 19.1401 54.5457 19.2821 55.4142 18.3493C55.4142 19.4207 55.3633 20.1811 55.2717 20.6239C55.1767 21.0869 54.963 21.3979 54.6373 21.5567C54.3082 21.719 53.745 21.8001 52.9477 21.8001L50.2674 21.7494V23.9294C50.7627 24.0308 51.2615 24.1052 51.767 24.1457C52.3811 24.2066 52.9714 24.237 53.5278 24.237C54.8883 24.237 55.8858 24.0071 56.527 23.5441C57.1649 23.0811 57.5754 22.3983 57.7518 21.4959C57.9282 20.5901 58.0164 19.2415 58.0164 17.4502V6.05333H55.6144L55.5533 7.06391ZM55.2547 15.5C55.1733 15.9259 55.024 16.2267 54.8001 16.3957C54.5762 16.5647 54.2505 16.6526 53.8162 16.6526C53.2869 16.6526 52.9137 16.5715 52.7 16.4092C52.4862 16.247 52.3438 15.8921 52.2691 15.3479C52.1979 14.8004 52.1605 13.8642 52.1605 12.5325C52.1605 11.1671 52.1979 10.2207 52.2691 9.69006C52.3404 9.1628 52.4795 8.81805 52.6898 8.66596C52.8968 8.51387 53.2734 8.43613 53.8162 8.43613C54.281 8.43613 54.6237 8.53415 54.8476 8.73356C55.0715 8.93297 55.2242 9.30137 55.2988 9.84215C55.3769 10.339 55.4142 11.2347 55.4142 12.5325C55.4176 14.0163 55.3633 15.0066 55.2547 15.5ZM67.4958 6.49947C66.9428 6.06347 66.0267 5.84716 64.7511 5.84716C63.455 5.84716 62.5051 6.07361 61.8978 6.52651C61.2905 6.97941 60.8969 7.65876 60.7239 8.56118C60.5474 9.46699 60.4592 10.8156 60.4592 12.6069C60.4592 14.4151 60.5508 15.767 60.734 16.6627C60.9172 17.5584 61.3244 18.2242 61.9588 18.6602C62.5899 19.0962 63.5772 19.3125 64.9207 19.3125C65.5653 19.3125 66.21 19.272 66.8512 19.1976C67.3906 19.1435 67.9233 19.0455 68.4458 18.9002V16.7235C67.4687 16.8452 66.4814 16.9162 65.4975 16.9297C64.6968 16.9297 64.137 16.8554 63.8181 16.71C63.4991 16.5647 63.2922 16.274 63.1972 15.8414C63.1022 15.4088 63.0513 14.6348 63.0513 13.5228H68.7342V12.5765C68.7342 10.6837 68.6663 9.30475 68.5306 8.44289C68.3949 7.58103 68.0454 6.93209 67.4958 6.49947ZM66.2574 11.4814H63.0445C63.0615 10.4742 63.1056 9.75766 63.1768 9.33179C63.2481 8.90593 63.3974 8.61526 63.6213 8.45979C63.8452 8.3077 64.2048 8.22996 64.7002 8.22996C65.165 8.22996 65.4941 8.29756 65.7078 8.43613C65.9216 8.5747 66.0607 8.86199 66.1387 9.30813C66.2167 9.75428 66.2574 10.4674 66.2574 11.4577V11.4814ZM84.5919 7.80748C84.4392 7.1484 84.1678 6.65832 83.7743 6.33724C83.3841 6.01615 82.8107 5.85392 82.0609 5.85054C82.027 5.85054 81.9998 5.85392 81.9625 5.85392C81.9252 5.85392 80.0185 5.73224 79.2042 6.80366C79.1126 6.92195 79.0346 7.05039 78.9701 7.18558C78.8446 6.8307 78.6207 6.52313 78.3255 6.28992C77.9489 6.00939 77.3857 5.87082 76.6461 5.8573C75.9065 5.84716 74.6647 5.72548 73.8878 6.80704C73.7996 6.92871 73.7215 7.05377 73.6537 7.18896L73.5892 6.06347H71.2278V19.1199H73.8165V12.2993C73.8165 11.1738 73.8437 10.3593 73.9013 9.85567C73.959 9.35207 74.0879 8.99043 74.2983 8.76736C74.5086 8.54429 74.8479 8.43275 75.3297 8.43275C75.7945 8.43275 76.1134 8.49697 76.2898 8.6254C76.4663 8.75384 76.5816 9.04451 76.6393 9.49741C76.6936 9.95031 76.7241 10.7547 76.7241 11.9174V19.1097H79.3128V12.2993C79.3128 11.1738 79.3399 10.3593 79.3976 9.85567C79.4553 9.35207 79.591 8.99043 79.8047 8.76736C80.0219 8.54429 80.3679 8.43613 80.8497 8.43275C81.3145 8.43275 81.6334 8.49697 81.8099 8.6254C81.9863 8.75384 82.1016 9.04451 82.1559 9.49741C82.2102 9.95031 82.2407 10.7547 82.2407 11.9174V19.1097H84.8294V10.5046C84.8192 9.36221 84.7412 8.46317 84.5919 7.80748ZM46.1282 6.34738C45.7211 6.01277 45.1172 5.84716 44.3165 5.84716H44.2385C44.2113 5.84716 42.274 5.73224 41.4801 6.7969C41.4259 6.87125 41.3716 6.95237 41.3275 7.03349L41.2698 6.05333H38.8983V19.1097H41.4869V12.2993C41.4734 11.4881 41.5039 10.677 41.5717 9.86581C41.626 9.37235 41.7685 9.00733 41.9891 8.7775C42.213 8.54767 42.5794 8.43275 43.0917 8.43275C43.5701 8.43275 43.906 8.49697 44.0994 8.6254C44.2927 8.75384 44.4183 9.04788 44.4827 9.50755C44.5472 9.96721 44.5811 10.7716 44.5811 11.914V19.1063H47.1698V10.6297C47.1698 9.45347 47.0985 8.52739 46.9527 7.85141C46.8136 7.17882 46.5387 6.6786 46.1282 6.34738ZM24.8726 2.26451H22.2839V5.98235H20.6758V8.36177H22.2839V19.1097H24.8726V8.36177H26.837V5.98235H24.8726V2.26451Z" fill="black"/>
</svg>
