<svg width="1440" height="1295" viewBox="0 0 1440 1295" fill="none" xmlns="http://www.w3.org/2000/svg">
<path d="M2.00042 976.41C-109.996 961.673 -209.964 909.356 -284.909 832.841L-284.973 832.906L-731.6 377.232C-703.601 372.663 -674.89 370.475 -645.598 370.861C-563.476 371.826 -487.368 391.775 -420.636 427.169C-376.924 450.335 -337.221 480.13 -302.432 515.588L-137.671 683.674C-136.637 684.768 -135.602 685.862 -134.567 686.956C-84.1951 738.309 -14.1653 770.549 63.6242 771.579C140.25 772.544 210.15 742.942 261.492 694.164L89.5539 861.156C54.5713 895.134 25.0851 933.874 2.00042 976.41Z" stroke="#001B66" stroke-width="6" stroke-miterlimit="10"/>
<path d="M408.018 843.459L-49.9247 1288C-54.5158 1260.14 -56.7144 1231.56 -56.3264 1202.41C-55.2918 1119.72 -34.7937 1043.08 1.61152 976.088C24.6962 933.487 54.1824 894.811 89.165 860.834L261.233 693.777C314.256 643.518 347.687 572.86 348.657 494.222C349.627 416.807 319.041 346.342 268.669 294.99L436.469 466.165C471.258 501.687 510.961 531.418 554.673 554.584C539.93 667.586 486.454 768.296 408.018 843.459Z" stroke="#001B66" stroke-width="6" stroke-miterlimit="10"/>
<path d="M-137.412 683.482L-302.173 515.395C-336.961 479.873 -376.664 450.143 -420.376 426.976C-405.892 316.227 -354.226 217.254 -278.441 142.671L179.436 -301.871C184.027 -274.071 186.226 -245.434 185.838 -216.283C184.868 -135.586 165.34 -60.6163 130.551 5.27975C107.078 49.7467 76.6869 90.0309 40.4111 125.231L-129.394 290.1C-180.995 340.23 -213.455 409.923 -214.425 487.402C-215.331 563.208 -185.974 632.322 -137.412 683.482Z" stroke="#001B66" stroke-width="6" stroke-miterlimit="10"/>
<path d="M179.5 -302C129.904 -89.1248 -33.9518 59.9136 -33.9518 59.9136L-200.782 221.887C-259.431 279.61 -299.393 356.189 -310.644 441.905C-310.644 441.905 -317.951 491.391 -310.45 507.158" stroke="#001B66" stroke-width="6" stroke-miterlimit="10"/>
<path d="M866.154 604.907C838.155 609.476 809.445 611.664 780.153 611.278C698.031 610.313 621.858 590.364 555.061 554.906C511.349 531.74 471.646 502.009 436.858 466.487L268.928 295.183C218.621 243.766 148.526 211.526 70.672 210.56C-7.18203 209.595 -77.9879 240.098 -129.589 290.292L40.1511 125.488C76.427 90.2873 106.819 49.9388 130.291 5.53613C243.193 19.8865 343.937 72.2688 419.399 149.233L866.154 604.907Z" stroke="#001B66" stroke-width="6" stroke-miterlimit="10"/>
<path d="M866.22 604.522C651.863 557.03 500.681 395.314 500.681 395.314L336.438 230.703C277.918 172.851 200.646 133.725 114.385 123.364C114.385 123.364 55.7362 117.959 39.9585 125.617" stroke="#001B66" stroke-width="6" stroke-miterlimit="10"/>
<path d="M-48.9541 1284.78C-1.23292 1071.46 161.265 921.003 161.265 921.003L326.672 757.55C384.804 699.312 424.119 622.411 434.53 536.566C434.53 536.566 439.962 478.199 432.267 462.498" stroke="#001B66" stroke-width="6" stroke-miterlimit="10"/>
<path d="M-731.6 377.232C-517.242 424.723 -366.06 586.439 -366.06 586.439L-201.817 751.051C-143.297 808.903 -66.0248 848.028 20.2354 858.389C20.2354 858.389 78.8846 863.795 94.6623 856.137" stroke="#001B66" stroke-width="6" stroke-miterlimit="10"/>
<path d="M1377.38 976.41C1265.38 961.673 1165.42 909.355 1090.47 832.841L1090.41 832.906L643.781 377.232C671.78 372.663 700.49 370.475 729.782 370.861C811.904 371.826 888.012 391.775 954.744 427.169C998.456 450.335 1038.16 480.13 1072.95 515.588L1237.71 683.674C1238.74 684.768 1239.78 685.862 1240.81 686.956C1291.19 738.309 1361.22 770.549 1439 771.578C1515.63 772.544 1585.53 742.942 1636.87 694.164L1464.93 861.156C1429.95 895.134 1400.47 933.873 1377.38 976.41Z" stroke="#001B66" stroke-width="6" stroke-miterlimit="10"/>
<path d="M1783.4 843.459L1325.46 1288C1320.87 1260.14 1318.67 1231.56 1319.05 1202.41C1320.09 1119.72 1340.59 1043.08 1376.99 976.088C1400.08 933.487 1429.56 894.811 1464.55 860.834L1636.61 693.777C1689.64 643.518 1723.07 572.86 1724.04 494.222C1725.01 416.807 1694.42 346.342 1644.05 294.99L1811.85 466.165C1846.64 501.687 1886.34 531.418 1930.05 554.584C1915.25 667.586 1861.77 768.296 1783.4 843.459Z" stroke="#001B66" stroke-width="6" stroke-miterlimit="10"/>
<path d="M1237.97 683.482L1073.21 515.395C1038.42 479.873 998.716 450.143 955.003 426.976C969.488 316.227 1021.15 217.254 1096.94 142.671L1554.82 -301.871C1559.41 -274.071 1561.61 -245.434 1561.22 -216.283C1560.25 -135.586 1540.72 -60.6163 1505.93 5.27975C1482.46 49.7467 1452.07 90.0309 1415.79 125.231L1245.99 290.1C1194.39 340.23 1161.92 409.923 1160.95 487.402C1160.05 563.208 1189.41 632.322 1237.97 683.482Z" stroke="#001B66" stroke-width="6" stroke-miterlimit="10"/>
<path d="M1554.88 -302C1505.22 -89.1248 1341.43 59.9136 1341.43 59.9136L1174.6 221.887C1115.95 279.61 1075.99 356.189 1064.74 441.905C1064.74 441.905 1057.43 491.391 1064.93 507.158" stroke="#001B66" stroke-width="6" stroke-miterlimit="10"/>
<path d="M2241.47 604.907C2213.47 609.476 2184.76 611.664 2155.47 611.278C2073.35 610.313 1997.17 590.364 1930.38 554.906C1886.67 531.74 1846.96 502.009 1812.17 466.487L1644.24 295.183C1593.94 243.766 1523.84 211.526 1445.99 210.561C1368.13 209.595 1297.33 240.098 1245.73 290.292L1415.47 125.488C1451.74 90.2873 1482.13 49.9388 1505.61 5.53613C1618.51 19.8866 1719.25 72.2688 1794.72 149.233L2241.47 604.907Z" stroke="#001B66" stroke-width="6" stroke-miterlimit="10"/>
<path d="M2241.6 604.522C2027.24 557.03 1876.06 395.314 1876.06 395.314L1711.82 230.703C1653.3 172.851 1576.03 133.725 1489.77 123.364C1489.77 123.364 1431.12 117.959 1415.34 125.617" stroke="#001B66" stroke-width="6" stroke-miterlimit="10"/>
<path d="M1326.43 1284.78C1374.15 1071.46 1536.65 921.002 1536.65 921.002L1702.05 757.549C1760.18 699.311 1799.5 622.411 1809.91 536.566C1809.91 536.566 1815.34 478.199 1807.65 462.497" stroke="#001B66" stroke-width="6" stroke-miterlimit="10"/>
<path d="M643.781 377.232C858.138 424.723 1009.32 586.439 1009.32 586.439L1173.56 751.051C1232.08 808.903 1309.36 848.028 1395.62 858.389C1395.62 858.389 1454.27 863.795 1470.04 856.137" stroke="#001B66" stroke-width="6" stroke-miterlimit="10"/>
<rect x="468.673" y="749.235" width="16.9119" height="17.2478" fill="#99EC79"/>
<rect width="16.992" height="17.1689" transform="matrix(0.869567 0.493815 -0.479211 0.8777 909.532 504.722)" fill="#FF5D00"/>
<rect x="1224.27" y="792.333" width="13.9119" height="14.2478" stroke="#FF5D00" stroke-width="3"/>
<rect x="1231.71" y="287.602" width="16.9119" height="17.2478" stroke="#CB68FD" stroke-width="3"/>
<path d="M293.523 185.129L303.861 203.392H283.184L293.523 185.129Z" fill="#CCCCCD"/>
<path d="M309.533 620.384L319.871 638.646H299.195L309.533 620.384Z" stroke="#0087FF" stroke-width="3"/>
<ellipse cx="688.03" cy="533.637" rx="7.46114" ry="7.60934" fill="#CCCCCD"/>
<ellipse cx="487.056" cy="218.103" rx="7.46114" ry="7.60934" stroke="#A803FC" stroke-width="3"/>
</svg>
