<?xml version="1.0" encoding="UTF-8" standalone="no"?>
<svg
   xmlns:dc="http://purl.org/dc/elements/1.1/"
   xmlns:cc="http://creativecommons.org/ns#"
   xmlns:rdf="http://www.w3.org/1999/02/22-rdf-syntax-ns#"
   xmlns:svg="http://www.w3.org/2000/svg"
   xmlns="http://www.w3.org/2000/svg"
   xmlns:sodipodi="http://sodipodi.sourceforge.net/DTD/sodipodi-0.dtd"
   xmlns:inkscape="http://www.inkscape.org/namespaces/inkscape"
   width="31.75mm"
   height="31.75mm"
   viewBox="0 0 31.75 31.75"
   version="1.1"
   id="svg8"
   inkscape:version="1.0.1 (3bc2e813f5, 2020-09-07)"
   sodipodi:docname="atomic.svg">
  <defs
     id="defs2">
    <linearGradient
       id="paint0_linear"
       x1="31.54"
       y1="-0.000488281"
       x2="31.54"
       y2="60.9995"
       gradientUnits="userSpaceOnUse">
      <stop
         stop-color="#42C1FD"
         id="stop74" />
      <stop
         offset="1"
         stop-color="#1F8EFA"
         id="stop76" />
    </linearGradient>
    <clipPath
       id="clip0">
      <rect
         width="63.0801"
         height="61"
         fill="white"
         transform="translate(0 -0.000488281)"
         id="rect79" />
    </clipPath>
  </defs>
  <sodipodi:namedview
     id="base"
     pagecolor="#ffffff"
     bordercolor="#666666"
     borderopacity="1.0"
     inkscape:pageopacity="0.0"
     inkscape:pageshadow="2"
     inkscape:zoom="1.979899"
     inkscape:cx="57.272625"
     inkscape:cy="55.392294"
     inkscape:document-units="mm"
     inkscape:current-layer="layer1"
     inkscape:document-rotation="0"
     showgrid="false"
     fit-margin-top="0"
     fit-margin-left="0"
     fit-margin-right="0"
     fit-margin-bottom="0"
     inkscape:pagecheckerboard="true"
     inkscape:window-width="1299"
     inkscape:window-height="713"
     inkscape:window-x="67"
     inkscape:window-y="27"
     inkscape:window-maximized="1" />
  <metadata
     id="metadata5">
    <rdf:RDF>
      <cc:Work
         rdf:about="">
        <dc:format>image/svg+xml</dc:format>
        <dc:type
           rdf:resource="http://purl.org/dc/dcmitype/StillImage" />
        <dc:title></dc:title>
      </cc:Work>
    </rdf:RDF>
  </metadata>
  <g
     inkscape:label="Layer 1"
     inkscape:groupmode="layer"
     id="layer1"
     transform="translate(-108.10119,-128.5119)">
    <g
       style="fill:none"
       id="g36"
       transform="matrix(0.26458333,0,0,0.26458333,108.10119,128.5119)">
      <circle
         cx="60"
         cy="60"
         r="60"
         fill="#ffffff"
         id="circle10" />
    </g>
    <g
       style="fill:none"
       id="g97"
       transform="matrix(0.26458333,0,0,0.26458333,115.63203,135.52618)">
      <path
         fill-rule="evenodd"
         clip-rule="evenodd"
         d="M 0,60.9995 18.716,9.51352 c 2.3785,-6.00956 6.8054,-9.4145272 12.6929,-9.514008281 0.0452,0 0.0859,0 0.1311,0 0.0453,0 0.0859,0 0.1312,0 C 37.5586,0.0989928 41.9855,3.49944 44.3595,9.51352 L 63.0801,60.9995 51.4905,56.9524 35.5012,12.9728 C 34.529,10.54 33.403,9.66274 31.54,9.62657 29.677,9.66727 28.5556,10.54 27.5789,12.9728 L 11.5895,56.9524 Z M 39.6839,41.3927 c 0,4.4993 -3.5994,8.1439 -8.0353,8.1439 -4.436,0 -8.0354,-3.6446 -8.0354,-8.1439 0,-4.4993 3.5994,-8.1439 8.0354,-8.1439 4.4359,0 8.0353,3.6492 8.0353,8.1439 z"
         fill="url(#paint0_linear)"
         id="path70"
         style="fill:url(#paint0_linear)" />
    </g>
  </g>
</svg>
