<?xml version="1.0" encoding="UTF-8" standalone="no"?>
<svg
   xmlns:dc="http://purl.org/dc/elements/1.1/"
   xmlns:cc="http://creativecommons.org/ns#"
   xmlns:rdf="http://www.w3.org/1999/02/22-rdf-syntax-ns#"
   xmlns:svg="http://www.w3.org/2000/svg"
   xmlns="http://www.w3.org/2000/svg"
   xmlns:sodipodi="http://sodipodi.sourceforge.net/DTD/sodipodi-0.dtd"
   xmlns:inkscape="http://www.inkscape.org/namespaces/inkscape"
   width="31.75mm"
   height="31.75mm"
   viewBox="0 0 31.75 31.75"
   version="1.1"
   id="svg8"
   inkscape:version="1.0.1 (3bc2e813f5, 2020-09-07)"
   sodipodi:docname="binance.svg">
  <defs
     id="defs2">
    <linearGradient
       id="paint0_linear"
       x1="31.54"
       y1="-0.000488281"
       x2="31.54"
       y2="60.9995"
       gradientUnits="userSpaceOnUse">
      <stop
         stop-color="#42C1FD"
         id="stop74" />
      <stop
         offset="1"
         stop-color="#1F8EFA"
         id="stop76" />
    </linearGradient>
    <clipPath
       id="clip0">
      <rect
         width="63.0801"
         height="61"
         fill="white"
         transform="translate(0 -0.000488281)"
         id="rect79" />
    </clipPath>
  </defs>
  <sodipodi:namedview
     id="base"
     pagecolor="#ffffff"
     bordercolor="#666666"
     borderopacity="1.0"
     inkscape:pageopacity="0.0"
     inkscape:pageshadow="2"
     inkscape:zoom="1.979899"
     inkscape:cx="57.272625"
     inkscape:cy="55.392294"
     inkscape:document-units="mm"
     inkscape:current-layer="layer1"
     inkscape:document-rotation="0"
     showgrid="false"
     fit-margin-top="0"
     fit-margin-left="0"
     fit-margin-right="0"
     fit-margin-bottom="0"
     inkscape:pagecheckerboard="true"
     inkscape:window-width="1299"
     inkscape:window-height="713"
     inkscape:window-x="67"
     inkscape:window-y="27"
     inkscape:window-maximized="1" />
  <metadata
     id="metadata5">
    <rdf:RDF>
      <cc:Work
         rdf:about="">
        <dc:format>image/svg+xml</dc:format>
        <dc:type
           rdf:resource="http://purl.org/dc/dcmitype/StillImage" />
        <dc:title></dc:title>
      </cc:Work>
    </rdf:RDF>
  </metadata>
  <g
     inkscape:label="Layer 1"
     inkscape:groupmode="layer"
     id="layer1"
     transform="translate(-108.10119,-128.5119)">
    <g
       style="fill:none"
       id="g36"
       transform="matrix(0.26458333,0,0,0.26458333,108.10119,128.5119)">
      <circle
         cx="60"
         cy="60"
         r="60"
         fill="#ffffff"
         id="circle10" />
    </g>
    <g
       style="fill:none"
       id="g97"
       transform="matrix(0.26458333,0,0,0.26458333,115.63203,135.52618)" />
    <g
       style="fill:none"
       id="g131"
       transform="matrix(0.3013845,0,0,0.29089783,115.30984,135.66439)">
      <path
         d="M 17.4301,23.9519 28.4999,12.882 39.5749,23.9566 46.0159,17.5156 28.4999,0 10.9896,17.5104 l 6.4407,6.441 z M 0,28.5 6.4412,22.0579 12.8819,28.4986 6.44075,34.9399 Z M 17.4301,33.0488 28.4999,44.118 39.5747,33.0436 46.0191,39.4812 46.0159,39.4846 28.4999,57 10.9896,39.4896 10.9804,39.4805 17.4308,33.0481 Z m 26.6877,-4.5461 6.4412,-6.4412 6.4408,6.4408 -6.441,6.4412 z"
         fill="#f3ba2f"
         id="path117" />
      <path
         d="m 35.0326,28.4965 h 0.0027 l -6.5354,-6.5358 -4.8306,4.8293 -0.5549,0.5551 -1.1446,1.1448 -0.0091,0.0089 0.0091,0.0094 6.5301,6.531 6.5358,-6.5358 0.0032,-0.0037 -0.0059,-0.0032"
         fill="#f3ba2f"
         id="path119" />
    </g>
  </g>
</svg>
