<svg width="120" height="120" viewBox="0 0 120 120" fill="none" xmlns="http://www.w3.org/2000/svg">
<circle cx="60" cy="60" r="60" fill="white"/>
<path d="M37.8 38H37C24.8 38 15 47.8 15 60V60.8C15 66.6348 17.3179 72.2305 21.4437 76.3563C25.5695 80.4822 31.1652 82.8 37 82.8H37.8C49.9 82.8 59.8 72.9 59.8 60.8V60C59.8 47.8 50 38 37.8 38ZM33.4 66.4C32.4 67.7 31 68.3 29.3 68.3C27.6 68.3 26.3 67.6 25.3 66.3C25.3 66.6 25.4 66.8 25.4 66.9C25.4 67.7 24.9 68.1 24 68.1C23 68.1 22.6 67.6 22.6 66.6V55.2C22.6 54.4 22.5 53.9 22.2 53.9C22.1 53.9 21.9 53.9 21.7 54H21.3C20.5 54 20.1 53.5 20.1 52.6C20.1 52.1 20.2 51.7 20.5 51.4C20.8 51.2 21.1 51 21.6 51C21.8 51 22.1 51 22.5 51.1C22.9 51.1 23.2 51.2 23.5 51.2C24 51.2 24.4 51.2 24.8 51.1C25.2 51 25.5 51 25.6 51C26.1 51 26.3 51.3 26.3 51.9V56.6C27.4 55.5 28.6 54.9 29.9 54.9C31.4 54.9 32.6 55.5 33.5 56.7C34.4 57.9 34.9 59.5 34.9 61.4C34.9 63.5 34.4 65.1 33.4 66.4ZM42.9 67.9C42.7 67.9 42.3 67.9 41.5 67.8C41 67.8 40.5 67.7 39.9 67.7C39.6 67.7 39.2 67.7 38.6 67.8C38 67.9 37.6 67.9 37.3 67.9C36.8 67.9 36.5 67.7 36.2 67.4C35.9 67.1 35.8 66.7 35.8 66.2C35.8 65.2 36.2 64.8 37 64.8L37.7 65H37.9C38.2 65 38.4 64.5 38.4 63.6V59.6C38.4 58.6 38.3 58.2 38 58.2C38 58.2 37.8 58.2 37.5 58.3H37.1C36.3 58.3 35.9 57.8 35.9 56.9C35.9 56.4 36 56 36.3 55.7C36.6 55.4 37 55.2 37.4 55.2C37.6 55.2 37.9 55.2 38.2 55.3C38.8 55.4 40.2 55.4 40.7 55.3C41.2 55.2 41.4 55.2 41.5 55.2C42 55.2 42.2 55.5 42.2 56.2V63.7C42.2 64.5 42.4 65 42.7 65C42.8 65 42.9 65 43.1 64.9C43.3 64.9 43.4 64.8 43.5 64.8C44.2 64.8 44.6 65.2 44.6 66.1C44.4 67.4 43.9 67.9 42.9 67.9ZM53.8 56.6C53.8 57.5 53.4 57.9 52.5 57.9H50.5C50.1 57.9 49.9 58 49.9 58.1C49.9 58.2 49.8 58.4 49.8 58.6V63.5C49.8 64.5 50.1 65 50.8 65C51.4 65 51.7 64.6 51.7 63.7V62.8C51.7 61.9 52.2 61.4 53.1 61.4C54.1 61.4 54.7 62.2 54.7 63.9C54.7 65.2 54.3 66.2 53.5 67C52.7 67.7 51.6 68.1 50.2 68.1C47.4 68.1 46.1 66.6 46.1 63.7C46.1 63.2 46.1 62.5 46.2 61.6C46.3 60.7 46.3 60 46.3 59.5V58.7C46.3 58.3 46.3 58 46.2 57.9C45.7 58 45.5 58 45.2 58H44.8C44.6434 58.0088 44.4871 57.9766 44.3468 57.9064C44.2065 57.8362 44.0869 57.7306 44 57.6C43.8 57.4 43.7 57 43.7 56.7C43.7 56.3 43.8 56 44 55.7C44.2 55.4 44.5 55.3 44.7 55.3H45.2C45.6 55.3 45.8 55.2 45.9 54.9C45.9 54.8 46 54.5 46 54.2V53C46 52.4 45.9 51.2 46.3 51C46.6 50.8 47.4 51 48.3 51C48.9 51 49.4 50.8 49.6 51C49.8 51.2 49.7 52.3 49.7 52.8V54.1C49.7 54.6 49.7 54.9 49.8 55C49.9 55.1 50.1 55.2 50.5 55.2H52.3C53.3 55.3 53.8 55.7 53.8 56.6Z" fill="#4F4677"/>
<path d="M28.2999 58.1C27.5999 58.1 27.0999 58.4 26.5999 59.1C26.1999 59.8 25.8999 60.6 25.8999 61.6C25.8999 64 26.6999 65.1 28.1999 65.1C29.5999 65.1 30.3999 63.9 30.3999 61.6C30.3999 59.3 29.6999 58.1 28.2999 58.1ZM103.4 61.7C103.1 61.2 102.6 60.9 102.1 60.6C101.6 60.3 100.8 60.1 99.6999 59.9C98.3999 59.7 97.4999 59.5 97.1999 59.3C96.8999 59.2 96.6999 58.9 96.6999 58.6C96.6999 57.9 97.1999 57.6 98.1999 57.6C98.9999 57.6 99.6999 58 100.3 58.7C100.8 59.3 101.3 59.7 102 59.7C102.9 59.7 103.3 59.3 103.3 58.4V57.3C103.3 57 103.3 56.8 103.4 56.5C103.5 56.2 103.5 56 103.5 55.8C103.5 55.2 103.1 54.9 102.2 54.9C101.4 54.9 100.9 55.3 100.8 55.9C99.8999 55.2 98.7999 54.8 97.5999 54.8C96.2999 54.8 95.1999 55.2 94.3999 56C93.5999 56.8 93.1999 57.8 93.1999 59C93.1999 59.7 93.2999 60.3 93.5999 60.9C93.8999 61.4 94.2999 61.8 94.7999 62.1C95.2999 62.4 96.0999 62.6 97.2999 62.9L98.7999 63.2C99.7999 63.4 100.2 63.8 100.2 64.3C100.2 65.1 99.5999 65.4 98.3999 65.4C97.6999 65.4 97.1999 65.3 96.8999 65.1C96.4999 64.9 96.1999 64.5 95.6999 63.9C95.3999 63.5 95.1999 63.3 94.8999 63.1C94.6999 63 94.2999 62.9 93.8999 62.9C92.9999 62.9 92.4999 63.3 92.4999 64V66.2C92.4999 66.5 92.3999 66.8 92.3999 67C92.3999 67.7 92.8999 68.1 93.7999 68.1C94.5999 68.1 95.0999 67.7 95.0999 66.9C96.2999 67.8 97.5999 68.3 99.0999 68.3C100.6 68.3 101.8 67.9 102.8 67C103.8 66.2 104.3 65.1 104.3 63.8C104.1 63 103.8 62.3 103.4 61.7ZM70.5999 54.9C69.2999 54.9 68.0999 55.5 66.9999 56.6V51.9C66.9999 51.3 66.7999 51 66.2999 51C66.0999 51 65.7999 51 65.3999 51.1C64.9999 51.2 64.5999 51.2 64.0999 51.2C63.8999 51.2 63.4999 51 63.1999 51.2C62.7999 51.4 63.1999 54.4 63.1999 55.2V66.6C63.1999 67.6 63.6999 68.1 64.5999 68.1C65.4999 68.1 65.9999 67.7 65.9999 66.9V66.3C66.9999 67.6 68.2999 68.3 69.9999 68.3C71.6999 68.3 73.0999 67.7 74.0999 66.4C75.0999 65.1 75.5999 63.5 75.5999 61.4C75.5999 59.5 75.0999 57.9 74.1999 56.7C73.1999 55.5 71.9999 54.9 70.5999 54.9ZM69.2999 65.1C67.7999 65.1 66.9999 63.9 66.9999 61.6C66.9999 60.6 67.1999 59.8 67.6999 59.1C68.0999 58.4 68.6999 58.1 69.3999 58.1C70.7999 58.1 71.4999 59.3 71.4999 61.6C71.4999 63.9 70.6999 65.1 69.2999 65.1ZM90.5999 65C90.2999 65 90.0999 64.6 90.0999 63.7V60C90.0999 58.6 89.8999 57.5 89.4999 56.8C88.7999 55.5 87.5999 54.9 85.7999 54.9C84.1999 54.9 82.6999 55.7 81.4999 57.2V56C81.4999 55.5 81.2999 55.3 80.7999 55.3C80.7999 55.3 80.4999 55.3 79.9999 55.4C79.4999 55.5 79.1999 55.5 78.9999 55.5C78.7999 55.5 78.5999 55.5 78.2999 55.4C77.8999 55.3 77.5999 55.3 77.4999 55.3C76.9999 55.3 76.6999 55.5 76.3999 55.8C76.1999 56 75.9999 56.5 75.9999 57C75.9999 57.9 76.3999 58.4 77.1999 58.4C77.2999 58.4 77.3999 58.4 77.5999 58.3C77.7999 58.2 77.8999 58.2 77.9999 58.2C78.2999 58.2 78.3999 58.7 78.3999 59.6V63.6C78.3999 64.5 78.2999 65 77.9999 65C77.8999 65 77.7999 65 77.5999 64.9C77.3999 64.8 77.2999 64.8 77.1999 64.8C76.3999 64.8 75.9999 65.3 75.9999 66.2C75.9999 67.3 76.4999 67.9 77.5999 67.9C77.8999 67.9 78.2999 67.9 78.8999 67.8C79.4999 67.7 79.8999 67.7 80.1999 67.7C80.4999 67.7 80.9999 67.7 81.5999 67.8C81.9999 67.9 82.2999 67.9 82.4999 67.9C83.3999 67.9 83.7999 67.4 83.7999 66.3C83.7999 65.5 83.4999 65 82.8999 65C82.5999 65 82.3999 64.8 82.2999 64.7C82.1999 64.5 82.1999 64.1 82.1999 63.3V60.7C82.1999 60 82.3999 59.4 82.8999 58.9C83.2999 58.4 83.8999 58.2 84.5999 58.2C85.1999 58.2 85.5999 58.4 85.8999 58.8C86.1999 59.2 86.2999 59.9 86.2999 60.8V64.3C86.2999 64.7 86.0999 64.9 85.5999 64.9C84.8999 64.9 84.5999 65.4 84.5999 66.3C84.5999 67.3 85.0999 67.8 86.0999 67.8C86.3999 67.8 86.7999 67.8 87.1999 67.7C87.6999 67.6 88.0999 67.6 88.4999 67.6C88.7999 67.6 89.1999 67.6 89.6999 67.7C90.1999 67.8 91.2999 68.2 91.2999 67C91.2999 66.1 91.4999 65.6 91.2999 64.9C91.2999 64.9 90.6999 65 90.5999 65Z" fill="#4F4677"/>
</svg>
