<svg width="120" height="120" viewBox="0 0 120 120" fill="none" xmlns="http://www.w3.org/2000/svg">
<circle cx="60" cy="60" r="60" fill="white"/>
<path d="M103 52.2834H98.4756L95.8572 63.3977L95.4897 64.9228C95.2371 64.9921 94.9844 65.0614 94.7318 65.1076C94.2724 65.2 93.7901 65.2462 93.2848 65.2462C92.7106 65.2462 92.2513 65.1538 91.9067 64.9921C91.5852 64.8303 91.3325 64.5993 91.1947 64.2758C91.0569 63.9754 91.011 63.6057 91.034 63.1898C91.0569 62.7738 91.1488 62.3117 91.2636 61.8496L92.6417 56.0729L93.5375 52.2372H88.9209L86.8308 61.1102C86.5782 62.1731 86.4404 63.1898 86.3944 64.1602C86.3485 65.1307 86.5093 65.9626 86.8308 66.7251C87.1524 67.4645 87.7266 68.0422 88.5075 68.4812C89.2884 68.9202 90.4138 69.1282 91.8378 69.1282C92.8255 69.1282 93.6982 69.0357 94.4332 68.874C94.4562 68.874 94.5021 68.8509 94.5251 68.8509C94.3184 69.7752 93.905 70.5146 93.2618 71.0922C92.5958 71.6699 91.6311 71.9703 90.3449 71.9703C89.7937 71.9703 89.2884 71.9472 88.829 71.8779L87.9333 75.6443C88.5305 75.7136 89.1965 75.7598 89.9315 75.7598C91.3096 75.7598 92.5039 75.598 93.5375 75.2977C94.571 74.9742 95.4438 74.512 96.2017 73.865C96.9367 73.2181 97.5569 72.4093 98.0621 71.4619C98.5674 70.4915 98.9579 69.3592 99.2565 68.019L102.38 54.802L103 52.2834Z" fill="#2A3F90"/>
<path d="M84.0183 61.7786C83.7427 62.934 83.6508 64.1124 83.7657 65.2677C83.8805 66.4462 84.3399 68.2254 84.7762 69.1265H80.4123C79.8841 68.2254 79.907 67.7864 79.7922 67.5091C79.218 67.9712 78.5979 68.364 77.9088 68.6644C77.2198 68.9648 76.4619 69.1265 75.5891 69.1265C74.5785 69.1265 73.7057 68.9417 72.9937 68.5951C72.2817 68.2485 71.6845 67.7633 71.2252 67.1625C70.7658 66.5617 70.4443 65.8685 70.2375 65.0598C70.0308 64.251 69.939 63.3961 69.939 62.4718C69.939 61.0623 70.1916 59.7452 70.6739 58.4975C71.1792 57.2497 71.8683 56.1637 72.7411 55.2394C73.6138 54.3152 75.7499 52.2587 79.241 52.2587C80.7569 52.2587 82.778 52.2587 86.2462 52.2587L84.0183 61.7786ZM80.8258 56.1175C78.7127 56.1175 78.3223 56.1175 77.4495 56.5565C76.8293 56.88 76.324 57.3652 75.8877 57.9198C75.4513 58.4744 75.0838 59.1214 74.8311 59.8608C74.5785 60.6002 74.4407 61.3627 74.4407 62.1483C74.4407 63.1188 74.6015 63.9044 74.923 64.4821C75.2446 65.0598 75.8417 65.3371 76.7145 65.3371C77.1739 65.3371 77.6103 65.2446 77.9777 65.0598C78.3452 64.8749 78.7587 64.5745 79.1721 64.1355C79.218 63.6272 79.2869 63.0957 79.3788 62.5411C79.4707 61.9866 79.5855 61.4551 79.6774 60.993L80.8258 56.1175Z" fill="#2A3F90"/>
<path d="M68.6996 58.9562C68.6996 60.4582 68.4469 61.8215 67.9646 63.0692C67.4823 64.317 66.7933 65.3799 65.9205 66.2811C65.0477 67.1822 64.0141 67.8754 62.7968 68.3838C61.5795 68.8921 60.2704 69.1463 58.8464 69.1463C58.1573 69.1463 57.4683 69.077 56.7563 68.9614L55.3782 74.5301H50.8535L56.1132 52.3015C56.8711 52.3015 60.9135 52.3015 62.1537 52.3015C63.3021 52.3015 64.2898 52.4864 65.0936 52.833C65.9205 53.1796 66.5865 53.6648 67.1378 54.2656C67.666 54.8664 68.0565 55.5827 68.3091 56.3914C68.5848 57.177 68.6996 58.032 68.6996 58.9562ZM57.6061 65.2644C57.9506 65.3568 58.387 65.3799 58.8923 65.3799C59.6962 65.3799 60.4082 65.2413 61.0742 64.9409C61.7173 64.6405 62.2915 64.2246 62.7509 63.6931C63.2103 63.1617 63.5548 62.5147 63.8304 61.7753C64.083 61.0358 64.2209 60.204 64.2209 59.3028C64.2209 58.4248 64.0371 57.6623 63.6467 57.0615C63.2562 56.4376 62.5901 56.1141 61.6255 56.1141C60.9594 56.1141 59.834 56.1141 59.834 56.1141L57.6061 65.2644Z" fill="#2A3F90"/>
<path d="M48.0997 65.2667C47.5255 65.2667 47.0662 65.1743 46.7216 65.0126C46.4001 64.8508 46.1474 64.6198 46.0096 64.2963C45.8718 63.9959 45.8259 63.6262 45.8489 63.2102C45.8718 62.7943 45.9637 62.3322 46.0785 61.8701L47.4566 56.0934H52.6014L53.5431 52.2577H48.3753L49.5697 47.4053L44.7464 48.1678L41.6917 61.1538C41.439 62.2167 41.3012 63.2334 41.2553 64.2038C41.2093 65.1743 41.3701 66.0062 41.6917 66.7687C42.0132 67.5081 42.5874 68.0858 43.3683 68.5248C44.1492 68.9638 45.2747 69.1718 46.6987 69.1718C47.6863 69.1718 48.5591 69.0794 49.294 68.9176C49.363 68.8945 49.4778 68.8714 49.5467 68.8483L50.4884 64.897C50.1668 65.0126 49.8453 65.0819 49.5467 65.1281C49.0873 65.2205 48.605 65.2667 48.0997 65.2667Z" fill="#2A3F90"/>
<path d="M36.6156 52.2799L32.6191 69.1478H37.1438L41.1173 52.2799H36.6156Z" fill="#2A3F90"/>
<path d="M41.6057 50.3398L42.2948 47.4053H37.7701L37.0811 50.3398H41.6057Z" fill="#2A3F90"/>
<path d="M26.5882 52.3017C27.5529 52.3017 28.4027 52.4866 29.1147 52.8332C29.8267 53.1798 30.4009 53.6419 30.8832 54.2427C31.3426 54.8435 31.6871 55.5367 31.9168 56.3223C32.1464 57.1079 32.2613 57.9629 32.2613 58.8871C32.2613 60.2966 32.0086 61.6137 31.4804 62.8846C30.9521 64.1323 30.2631 65.2415 29.3673 66.1657C28.4716 67.09 27.4151 67.8294 26.1978 68.3609C24.9805 68.8923 23.6713 69.1696 22.2473 69.1696C22.0635 69.1696 21.742 69.1696 21.2826 69.1465C20.8233 69.1465 20.295 69.1003 19.7208 69.0079C19.1236 68.9154 18.5035 68.7999 17.8604 68.6381C17.1943 68.4764 16.5742 68.2453 16 67.9681L21.2597 45.7394L25.9681 45L24.1077 52.8794C24.5211 52.6945 24.8886 52.5559 25.302 52.4635C25.6925 52.3479 26.1289 52.3017 26.5882 52.3017ZM22.6377 65.3801C23.3497 65.3801 24.0158 65.2184 24.6359 64.8487C25.2561 64.5021 25.8073 64.0399 26.2667 63.4622C26.726 62.8846 27.0935 62.2145 27.3462 61.4982C27.5988 60.7588 27.7366 59.9962 27.7366 59.2106C27.7366 58.2401 27.5758 57.4776 27.2543 56.9231C26.9327 56.3685 26.2667 56.1143 25.3939 56.1143C25.1183 56.1143 24.8197 56.1374 24.3603 56.253C23.901 56.3454 23.5105 56.5765 23.143 56.8999L21.1678 65.2877C21.7649 65.3801 22.4081 65.3801 22.6377 65.3801Z" fill="#2A3F90"/>
</svg>
