<svg width="120" height="120" viewBox="0 0 120 120" fill="none" xmlns="http://www.w3.org/2000/svg">
<circle cx="60" cy="60" r="60" fill="white"/>
<path d="M34.0062 34.0458C38.3657 33.9563 42.7292 34.0316 47.0907 34.0071C48.2014 34.0193 49.3122 33.9665 50.4208 34.0539C50.4452 42.8359 50.4249 51.6179 50.431 60.3999C50.4229 61.4902 50.429 62.5806 50.5083 63.6669C50.7382 64.9404 51.1369 66.1711 51.6923 67.3388C53.3075 70.3841 56.2673 72.7133 59.6646 73.3928C61.8372 73.8627 64.0546 73.4904 66.2495 73.5291C66.4855 73.7407 66.7154 73.9583 66.9371 74.1841C66.986 79.3085 66.9941 84.4389 66.9331 89.5633C61.0235 90.6211 54.7518 89.7545 49.4037 86.994C43.3822 83.9832 38.5732 78.6962 36.0609 72.457C34.9217 69.5195 34.1873 66.4071 34.0978 63.2519C33.9554 62.5887 34.0123 61.9052 34.0062 61.2319C34.0062 52.1692 34.0083 43.1085 34.0062 34.0458Z" fill="#121A23"/>
<path d="M58.682 34.1394C60.9218 33.9563 63.1737 33.9522 65.4135 34.1353C67.8505 34.4689 70.2632 35.0467 72.5436 35.9824C79.509 38.7673 85.2192 44.4755 88.0285 51.4328C88.8849 53.5993 89.4912 55.8614 89.8228 58.1683C90.4188 62.6233 89.9448 67.2147 88.4313 71.4501C85.9312 78.4683 80.5098 84.4694 73.6604 87.4476C73.634 80.2686 73.6563 73.0876 73.6482 65.9087C73.6177 63.5184 73.8293 61.0874 73.1763 58.7562C71.8703 54.3357 67.7956 50.8591 63.1737 50.4848C61.4629 50.4543 59.7521 50.4848 58.0433 50.5031C57.4208 50.4705 57.0566 49.8053 57.1217 49.2317C57.1217 44.3108 57.1075 39.3898 57.1278 34.4669C57.6303 34.2899 58.1653 34.2533 58.682 34.1394Z" fill="#121A23"/>
</svg>
