<svg width="120" height="120" viewBox="0 0 120 120" fill="none" xmlns="http://www.w3.org/2000/svg">
<circle cx="60" cy="60" r="60" fill="white"/>
<path d="M42.5 53.25C42.5 50 40.25 47 34.25 47H18.25C17.55 47 17 47.55 17 48.25V70.75C17 71.45 17.55 72 18.25 72H34.5C40.75 72 43.25 68.7 43.25 65.25C43.25 61.8 39.95 59.25 36.5 59.25C39.95 59.25 42.5 56.5 42.5 53.25ZM27.5 62H35C36.25 62 37.25 63 37.25 64.25C37.25 65.5 36.25 66.5 35 66.5H23V52.5H34.25C35.5 52.5 36.5 53.25 36.5 54.5C36.5 55.75 35.5 56.5 34.25 56.5H27.5C26.8 56.5 26.25 57.05 26.25 57.75V60.75C26.25 61.45 26.8 62 27.5 62ZM89.5 47H77.25C76.55 47 76 47.55 76 48.25V70.75C76 71.45 76.55 72 77.25 72H89.5C96.4 72 102 66.4 102 59.5C102 52.6 96.4 47 89.5 47ZM88.5 66.5H82.5V52.5H88.5C92.5 52.5 95.5 55.525 95.5 59.5C95.5 63.475 92.5 66.5 88.5 66.5ZM64.475 63.975L72.5 72H63.75L56.475 64.725C56 64.25 55.75 63.625 55.75 62.95V60.25C55.75 59.55 56.3 59 57 59H62.5C64.5 59 65.75 57.5 65.75 55.75C65.75 54 64.5 52.5 62.5 52.5H53V72H46.5V48.25C46.5 47.55 47.05 47 47.75 47H64C68.725 47 72.5 50.775 72.5 55.5C72.5 60.05 68.95 63.725 64.475 63.975Z" fill="url(#paint_logo_brd)"/>
<defs>
<linearGradient id="paint_logo_brd" x1="30.7186" y1="84.9864" x2="81.6913" y2="34.0136" gradientUnits="userSpaceOnUse">
<stop stop-color="#FF5193"/>
<stop offset="1" stop-color="#F9A43A"/>
</linearGradient>
</defs>
</svg>
