<svg width="120" height="120" viewBox="0 0 120 120" fill="none" xmlns="http://www.w3.org/2000/svg">
<circle cx="60" cy="60" r="60" fill="white"/>
<path d="M44.0331 53.3635C45.9998 53.4116 47.4808 53.9634 48.4764 55.0191C49.472 56.0753 49.9694 57.6768 49.9694 59.8241C49.9694 61.972 49.472 63.5738 48.4764 64.6291C47.4808 65.6851 45.9998 66.2369 44.0331 66.2853H39.563V53.3635H44.0331ZM43.4181 65.2354C44.3467 65.2354 45.1461 65.1359 45.816 64.9368C46.4853 64.7379 47.0377 64.4213 47.4718 63.9869C47.9062 63.5525 48.2256 62.9913 48.431 62.3037C48.6359 61.616 48.7384 60.7896 48.7384 59.8241C48.7384 58.8592 48.6359 58.0325 48.431 57.3448C48.2256 56.6569 47.9059 56.096 47.4718 55.6613C47.0377 55.227 46.4853 54.9106 45.816 54.7115C45.1461 54.5126 44.3467 54.4129 43.4181 54.4129H40.7935V65.2354H43.4181Z" fill="#2D2D48"/>
<path d="M51.6161 53.3635L54.5481 64.6748H54.5845L57.7333 53.3635H59.2714L62.4386 64.6748H62.475L65.425 53.3635H66.6555L63.0902 66.2853H61.787L58.5114 54.7208H58.475L55.2174 66.2853H53.8782L50.2949 53.3635H51.6161Z" fill="#2D2D48"/>
<path d="M67.3434 57.2725C67.5966 56.4644 67.9764 55.7494 68.4834 55.1278C68.9902 54.5066 69.6265 54.0121 70.3931 53.6435C71.1589 53.2758 72.0487 53.0917 73.0623 53.0917C74.0758 53.0917 74.9627 53.2758 75.7227 53.6435C76.483 54.0121 77.1163 54.5066 77.6228 55.1278C78.1299 55.7494 78.5096 56.4644 78.7631 57.2725C79.0164 58.0812 79.1431 58.9316 79.1431 59.8241C79.1431 60.7172 79.0164 61.5683 78.7631 62.3761C78.5096 63.1842 78.1296 63.8962 77.6228 64.5114C77.116 65.1269 76.4827 65.6187 75.7227 65.9864C74.9627 66.3544 74.0758 66.5382 73.0623 66.5382C72.0487 66.5382 71.1586 66.3544 70.3931 65.9864C69.6265 65.6187 68.9902 65.1269 68.4834 64.5114C67.9767 63.8959 67.5966 63.1842 67.3434 62.3761C67.0899 61.568 66.9634 60.7172 66.9634 59.8241C66.9634 58.9316 67.0896 58.0812 67.3434 57.2725ZM68.4744 61.8963C68.6613 62.5783 68.9509 63.1875 69.3432 63.7243C69.7349 64.2615 70.2387 64.6928 70.8543 65.0188C71.4698 65.3441 72.2055 65.5072 73.0623 65.5072C73.919 65.5072 74.652 65.3441 75.2613 65.0188C75.8702 64.6931 76.3713 64.2618 76.763 63.7243C77.1556 63.1875 77.4449 62.5783 77.6324 61.8963C77.8192 61.215 77.9124 60.5241 77.9124 59.8241C77.9124 59.1122 77.8192 58.4188 77.6324 57.7432C77.4452 57.0676 77.1556 56.4614 76.763 55.9242C76.3713 55.3877 75.8702 54.956 75.2613 54.6304C74.652 54.3044 73.919 54.1419 73.0623 54.1419C72.2055 54.1419 71.4698 54.3044 70.8543 54.6304C70.2387 54.956 69.7349 55.3877 69.3432 55.9242C68.9509 56.4614 68.6613 57.0676 68.4744 57.7432C68.287 58.4188 68.1939 59.1125 68.1939 59.8241C68.1939 60.5241 68.287 61.215 68.4744 61.8963Z" fill="#2D2D48"/>
<path d="M81.9297 53.3635V65.2354H89.1689V66.2853H80.6992V53.3635H81.9297Z" fill="#2D2D48"/>
<path d="M91.6484 53.3635V65.2354H98.8877V66.2853H90.418V53.3635H91.6484Z" fill="#2D2D48"/>
<path d="M104.933 53.3635L110 66.2853H108.679L107.104 62.2676H101.222L99.6657 66.2853H98.3628L103.557 53.3635H104.933ZM106.688 61.2177L104.19 54.594L101.602 61.2177H106.688Z" fill="#2D2D48"/>
<path d="M31.8475 52.8571L22.0518 47.2016C21.819 47.0673 21.5594 47 21.2999 47C21.0403 47 20.7804 47.0673 20.5479 47.2016L10.7519 52.8571C10.2866 53.1256 10 53.6222 10 54.1596V65.4706C10 66.008 10.2866 66.5046 10.7519 66.7732L20.5476 72.4287C20.7804 72.5629 21.04 72.6302 21.2996 72.6302C21.5591 72.6302 21.819 72.5629 22.0515 72.4287L31.8472 66.7732C32.3125 66.5046 32.5991 66.008 32.5991 65.4706V54.1596C32.5994 53.6222 32.3128 53.1256 31.8475 52.8571ZM14.878 56.9874V63.5228L11.5041 65.4706V54.1596L21.2999 48.5041V52.4116L15.6303 55.6848C15.1649 55.9534 14.878 56.4499 14.878 56.9874ZM20.5476 58.5125C20.0823 58.7811 19.7957 59.2777 19.7957 59.8151V66.3277L16.3822 68.2983V56.9874L26.1779 51.3319V55.2621L20.5476 58.5125ZM31.0953 65.4706L21.2999 71.1261V59.8151L31.0956 54.1596L31.0953 65.4706Z" fill="url(#paint_logo_dwolla)"/>
<defs>
<linearGradient id="paint_logo_dwolla" x1="10.7455" y1="70.3693" x2="32.2204" y2="48.8944" gradientUnits="userSpaceOnUse">
<stop stop-color="#F3904A"/>
<stop offset="0.9993" stop-color="#AA437F"/>
</linearGradient>
</defs>
</svg>
