<svg width="120" height="120" viewBox="0 0 120 120" fill="none" xmlns="http://www.w3.org/2000/svg">
<circle cx="60" cy="60" r="60" fill="white"/>
<path d="M42.7244 58.134H57.3001V74.2009C55.349 76.0095 53.0263 77.4105 50.3322 78.4038C47.6586 79.3927 44.8301 79.8972 41.9794 79.8937C38.9657 79.8937 36.3328 79.4148 34.0806 78.4569C31.8284 77.4991 29.9577 76.1516 28.4686 74.4146C26.9787 72.6767 25.8614 70.5754 25.1168 68.1107C24.3723 65.646 24 62.9241 24 59.9451C24 56.8597 24.4077 54.0936 25.2231 51.6466C26.0385 49.1996 27.2 47.1068 28.7077 45.3681C30.2127 43.6349 32.0966 42.2715 34.2134 41.3837C36.3763 40.4628 38.7879 40.0016 41.4482 40C43.8944 40 45.9956 40.3014 47.752 40.9043C49.5084 41.5072 50.9975 42.3408 52.2194 43.4049C53.4252 44.4464 54.4189 45.7107 55.1461 47.1285C55.8814 48.5722 56.4098 50.1123 56.7157 51.7033L48.8435 52.7139C48.6594 51.851 48.4012 51.0055 48.072 50.1868C47.7812 49.4773 47.3362 48.8413 46.7692 48.325C46.1534 47.782 45.4265 47.3799 44.6393 47.1466C43.7885 46.881 42.7248 46.7482 41.4482 46.7482C38.3637 46.7482 36.0583 47.9004 34.5322 50.205C33.006 52.5095 32.2437 55.7562 32.2453 59.9451C32.2453 64.1661 33.0165 67.4201 34.5587 69.7069C36.101 71.9937 38.6104 73.1371 42.0869 73.1371C43.7531 73.1371 45.1979 72.9689 46.4214 72.6324C47.6709 72.2845 48.8627 71.7557 49.9591 71.0628V64.7324H42.7244V58.134Z" fill="#0B5845"/>
<path d="M63.3389 40.954H77.5415C83.358 40.954 87.8886 42.5324 91.1332 45.6894C94.3779 48.8463 96.0003 53.5274 96.0003 59.7327C96.0003 62.8888 95.5483 65.655 94.6444 68.0311C93.7404 70.4073 92.4368 72.4108 90.7336 74.0416C89.0312 75.6716 86.9568 76.8951 84.5107 77.7121C82.0645 78.5291 79.2983 78.9372 76.2122 78.9364H63.3389V40.954ZM76.3716 72.1798C78.4274 72.1798 80.1825 71.8872 81.637 71.302C83.0916 70.7168 84.2708 69.8748 85.1747 68.7761C86.1039 67.6255 86.7825 66.2934 87.1669 64.8653C87.5919 63.3585 87.8044 61.6653 87.8044 59.7858C87.8234 58.092 87.6369 56.4022 87.249 54.7533C86.8772 53.2465 86.2835 51.9787 85.4681 50.95C84.6267 49.9031 83.539 49.0809 82.3023 48.557C81.008 47.9895 79.4211 47.7057 77.5415 47.7057H71.263V72.1798H76.3716Z" fill="#232626"/>
</svg>
