<svg width="120" height="120" viewBox="0 0 120 120" fill="none" xmlns="http://www.w3.org/2000/svg">
<circle cx="60" cy="60" r="60" fill="white"/>
<path fill-rule="evenodd" clip-rule="evenodd" d="M22.3381 57.865C22.2661 57.9044 22.1844 57.923 22.1024 57.9187H22.0376C21.5238 57.8919 20.8814 57.8561 20.1094 57.8122C19.2674 57.7681 18.4243 57.7469 17.5811 57.7487C17.1528 57.7487 16.7623 57.806 16.4132 57.9187C16.0682 58.0301 15.7606 58.2339 15.5243 58.5077C15.2813 58.7851 15.096 59.1601 14.9664 59.6291C14.8387 60.0999 14.7739 60.6843 14.7739 61.3834V64.0541C14.7739 64.7952 14.8495 65.4011 14.9988 65.871C15.1491 66.3418 15.3416 66.7123 15.5783 66.9826C15.8131 67.2529 16.0731 67.4391 16.3592 67.5384C16.6454 67.6377 16.9171 67.6879 17.1744 67.6879C17.7593 67.6879 18.309 67.6664 18.8237 67.6243V62.708C18.8224 62.5966 18.8647 62.4891 18.9415 62.4082C18.9774 62.3672 19.0218 62.3344 19.0717 62.3123C19.1216 62.2902 19.1758 62.2792 19.2304 62.2802H21.9746C22.0871 62.2802 22.1879 62.3222 22.2733 62.4082C22.3143 62.4467 22.347 62.4932 22.3693 62.5448C22.3915 62.5963 22.403 62.6519 22.4029 62.708V69.8896C22.4029 70.1599 22.2589 70.3246 21.9737 70.381C21.388 70.4955 20.7096 70.5994 19.9385 70.6907C19.1665 70.7837 18.2451 70.8303 17.1744 70.8303C16.774 70.8303 16.3422 70.7873 15.8779 70.7023C15.4052 70.6139 14.9446 70.4703 14.5058 70.2745C14.0386 70.0641 13.6026 69.791 13.2101 69.4627C12.7788 69.1012 12.4064 68.6755 12.1061 68.2007C11.7849 67.7022 11.5321 67.1079 11.3449 66.416C11.1596 65.726 11.0669 64.9303 11.0669 64.0326V61.3834C11.0669 60.014 11.2603 58.8925 11.6454 58.0163C12.0314 57.1392 12.5353 56.4446 13.157 55.9318C13.7678 55.4242 14.485 55.0591 15.2562 54.8631C16.0153 54.6657 16.7965 54.565 17.5811 54.5633C18.6518 54.5633 19.566 54.6251 20.3236 54.745C21.0803 54.8667 21.6597 54.9697 22.0601 55.0547C22.303 55.0976 22.4236 55.205 22.4236 55.376V57.6413C22.4236 57.755 22.3948 57.8301 22.3381 57.865V57.865ZM33.9512 61.4183C33.9512 60.1169 33.7335 59.1807 33.2989 58.6079C32.8625 58.0351 32.1949 57.7487 31.2952 57.7487C30.3954 57.7487 29.7305 58.0351 29.3022 58.6079C28.8739 59.1807 28.6598 60.1169 28.6598 61.4183V63.9744C28.6598 65.2767 28.8739 66.2147 29.3022 66.7857C29.7305 67.3585 30.3945 67.6449 31.2952 67.6449C32.1949 67.6449 32.8625 67.3585 33.2989 66.7857C33.7335 66.2147 33.9521 65.2767 33.9521 63.9753V61.4183H33.9512ZM37.6159 63.9691C37.6159 65.2087 37.4522 66.263 37.1238 67.1321C36.7954 68.002 36.3473 68.71 35.7759 69.2586C35.2075 69.8063 34.5196 70.2161 33.7659 70.4562C32.9638 70.7104 32.1262 70.8366 31.2844 70.8303C30.3999 70.8303 29.573 70.705 28.802 70.4562C28.0482 70.2161 27.3604 69.8063 26.7919 69.2586C26.2215 68.71 25.7725 68.002 25.4441 67.1321C25.1157 66.2639 24.9519 65.2087 24.9519 63.9691V61.4245C24.9519 60.1858 25.1157 59.1315 25.4441 58.2615C25.7725 57.3925 26.2215 56.6836 26.7919 56.135C27.3606 55.5875 28.0484 55.1778 28.802 54.9374C29.6044 54.6832 30.4422 54.5569 31.2844 54.5633C32.1679 54.5633 32.9948 54.6886 33.7659 54.9374C34.5352 55.1871 35.2055 55.5863 35.7759 56.135C36.3473 56.6836 36.7954 57.3925 37.1238 58.2615C37.4522 59.1315 37.6159 60.1858 37.6159 61.4245V63.9691V63.9691ZM75.7709 59.715C75.7709 58.9453 75.537 58.4012 75.0736 58.0798C74.6103 57.7585 73.9282 57.5992 73.0276 57.5992C72.9556 57.5992 72.835 57.6028 72.6632 57.61L72.1377 57.6305L71.624 57.652C71.5137 57.6581 71.4033 57.662 71.2929 57.6637V62.0242C71.3486 62.0242 71.4593 62.0269 71.624 62.034L72.1602 62.0555C72.3528 62.0636 72.5309 62.0663 72.6956 62.0663H73.0276C73.9849 62.0663 74.6813 61.8881 75.1168 61.5319C75.5532 61.1757 75.7709 60.6342 75.7709 59.9075V59.715V59.715ZM79.4347 59.9075C79.4347 60.9045 79.2521 61.7351 78.8859 62.3974C78.5409 63.0381 78.0436 63.585 77.4373 63.9905C76.8129 64.3987 76.1161 64.6848 75.384 64.8337C74.6183 64.9974 73.8338 65.0798 73.033 65.0798C72.7748 65.0798 72.4877 65.0735 72.1728 65.0592C71.8579 65.0449 71.5637 65.0306 71.2929 65.0162V70.21C71.2928 70.266 71.2813 70.3214 71.259 70.3728C71.2368 70.4242 71.2042 70.4705 71.1633 70.509C71.1248 70.5498 71.0782 70.5823 71.0265 70.6045C70.9748 70.6267 70.9191 70.638 70.8628 70.6379H68.0987C67.9873 70.6393 67.8797 70.5972 67.7991 70.5206C67.758 70.4846 67.7252 70.44 67.7031 70.3901C67.6811 70.3402 67.6702 70.286 67.6713 70.2315V55.8674C67.6713 55.4977 67.7496 55.248 67.9062 55.1191C68.0636 54.9911 68.3075 54.8989 68.6368 54.8417C69.3021 54.7435 69.9716 54.6757 70.6432 54.6385C71.4259 54.5887 72.21 54.5637 72.9943 54.5633C73.8095 54.5633 74.6049 54.6421 75.3768 54.7987C76.1119 54.9405 76.8121 55.2235 77.4382 55.632C78.0446 56.0373 78.542 56.5843 78.8868 57.2251C79.2521 57.8874 79.4347 58.718 79.4347 59.715V59.9075V59.9075ZM87.3625 57.9187C87.3442 57.8338 87.3155 57.7514 87.277 57.6735C87.2482 57.6234 87.1834 57.5992 87.0845 57.5992C86.927 57.5992 86.8262 57.7057 86.7839 57.9187L85.4766 63.8187H88.6689L87.3625 57.9187ZM93.8335 70.296C93.8335 70.5242 93.712 70.6379 93.4691 70.6379H90.4693C90.4179 70.64 90.3666 70.6315 90.3186 70.6131C90.2706 70.5946 90.227 70.5665 90.1904 70.5305C90.1159 70.4534 90.0643 70.3574 90.041 70.253L89.269 66.7472H84.8774L84.1063 70.253C84.0825 70.3574 84.0305 70.4533 83.956 70.5305C83.9194 70.5664 83.8757 70.5945 83.8278 70.613C83.7798 70.6315 83.7285 70.6399 83.6771 70.6379H80.6782C80.4353 70.6379 80.3138 70.5242 80.3138 70.296C80.3138 70.2816 80.3174 70.2673 80.3246 70.253C80.3329 70.2326 80.3366 70.2106 80.3354 70.1886L83.5277 56.9369C83.6555 56.4232 83.8408 56.0106 84.0838 55.6964C84.3267 55.3832 84.6092 55.1451 84.9295 54.9804C85.256 54.815 85.6073 54.7032 85.9697 54.6492C86.7044 54.5342 87.4528 54.5342 88.1875 54.6492C88.5519 54.7065 88.8939 54.8166 89.216 54.9804C89.5381 55.1451 89.8188 55.3832 90.0617 55.6964C90.3047 56.0106 90.49 56.4232 90.6196 56.9369L93.8128 70.1886C93.8128 70.2172 93.8155 70.2387 93.8227 70.253C93.8298 70.2662 93.8335 70.281 93.8335 70.296V70.296ZM107.44 55.0762C107.44 55.1478 107.432 55.1979 107.418 55.2265L104.183 62.6221C103.969 63.1215 103.747 63.492 103.518 63.7337C103.29 63.9753 103.048 64.1543 102.79 64.2671V70.21C102.79 70.3246 102.747 70.4239 102.661 70.509C102.623 70.5498 102.576 70.5824 102.525 70.6046C102.473 70.6267 102.418 70.6381 102.361 70.6379H99.5541C99.498 70.638 99.4424 70.6267 99.3908 70.6045C99.3393 70.5823 99.2929 70.5498 99.2545 70.509C99.2136 70.4706 99.1811 70.4242 99.159 70.3728C99.1368 70.3214 99.1256 70.266 99.1259 70.21V64.2671C98.8472 64.1382 98.5961 63.9571 98.3863 63.7337C98.1514 63.492 97.9256 63.1215 97.7114 62.6221L94.4759 55.2265C94.4586 55.1784 94.4515 55.1272 94.4552 55.0762C94.4552 54.9911 94.4831 54.916 94.5407 54.8524C94.5965 54.788 94.6829 54.7566 94.798 54.7566H97.8842C97.9967 54.7566 98.0893 54.7924 98.1613 54.8631C98.2333 54.9347 98.2828 55.0198 98.3116 55.1191L100.626 61.1471C100.682 61.2903 100.734 61.3798 100.775 61.4147C100.819 61.4505 100.875 61.4684 100.947 61.4684C101.019 61.4684 101.076 61.4505 101.118 61.4147C101.162 61.3789 101.211 61.2894 101.269 61.1462L103.582 55.1191C103.609 55.0223 103.661 54.9341 103.733 54.8631C103.769 54.8273 103.813 54.7993 103.861 54.7808C103.909 54.7624 103.96 54.7538 104.012 54.7557H107.098C107.211 54.7557 107.297 54.788 107.354 54.8515C107.41 54.9131 107.44 54.9933 107.44 55.0762" fill="black"/>
<path fill-rule="evenodd" clip-rule="evenodd" d="M43.6172 54.8899C43.6172 54.8899 42.7139 54.7512 42.5483 55.6077V69.3355C42.5483 69.3355 42.8525 70.6512 43.7657 70.6512H60.7387C60.7387 70.6512 61.8832 70.6217 62.0406 70.0721C62.0527 70.0299 62.0588 69.9862 62.0586 69.9423V66.2325H54.0445C54.0445 66.2325 53.098 65.7939 53.098 64.6465V60.2287C53.098 60.2287 53.0638 58.9811 54.417 58.9811H61.9902V55.5737C61.9902 55.5737 61.8886 54.8989 61.1445 54.8989L43.6172 54.8899ZM52.5527 53.6987L59.8632 53.6781L58.573 51.6759C58.573 51.6759 58.3894 51.4101 56.9561 52.0026C55.5219 52.5951 52.5527 53.6987 52.5527 53.6987V53.6987ZM47.8434 53.8615L56.0348 51.1658C56.0348 51.1658 54.8462 49.817 54.1498 50.021L47.8425 53.8615" fill="#5C9BC8"/>
<path fill-rule="evenodd" clip-rule="evenodd" d="M56.7312 63.3425C56.5226 63.3425 56.3226 63.2601 56.1751 63.1134C56.0276 62.9667 55.9448 62.7677 55.9448 62.5602C55.9448 62.3528 56.0276 62.1538 56.1751 62.0071C56.3226 61.8604 56.5226 61.778 56.7312 61.778C57.164 61.7789 57.5149 62.1288 57.5149 62.5611C57.5149 62.9925 57.164 63.3434 56.7321 63.3434L56.7312 63.3425ZM62.6201 60.1813L54.3486 60.1786V64.9526H62.6012C62.6012 64.9526 63.3435 64.9526 63.3435 64.2527V61.0432C63.3435 61.0432 63.4038 60.1813 62.6201 60.1813V60.1813Z" fill="#5C9BC8"/>
</svg>
