<svg width="120" height="120" viewBox="0 0 120 120" fill="none" xmlns="http://www.w3.org/2000/svg">
<circle cx="60" cy="60" r="60" fill="white"/>
<path d="M43.7397 32.4409C43.8821 32.2937 44.1361 31.7833 44.3521 32.1038C44.7747 32.7518 45.0666 33.4734 45.4203 34.1618C47.4831 38.5081 49.3749 42.9398 51.0389 47.4546C52.2091 50.849 53.1515 54.355 53.3556 57.9535C56.0379 54.1366 59.1879 50.6069 62.9644 47.8415C67.033 44.6228 71.7709 42.3772 76.6299 40.6302C80.5655 39.346 84.5344 38.0856 88.6361 37.4518C89.2509 37.3473 89.8752 37.3497 90.4924 37.4209C90.1197 38.1354 89.2557 38.2992 88.5792 38.6078C84.354 40.3382 80.0409 41.9666 76.1813 44.4447C73.8384 45.9236 71.6617 47.6445 69.5301 49.4105C66.582 52.0169 63.997 55.0054 61.628 58.1387C60.2774 59.881 58.8223 61.5473 57.6331 63.4083C55.5157 66.7244 53.5764 70.1592 51.9124 73.7269C52.5984 73.8788 53.2915 74.0188 53.9989 74.0283C56.2919 74.0687 58.6371 74.0331 60.8352 73.2925C65.7417 71.7092 70.0096 68.5759 73.5037 64.8373C76.0246 62.314 78.3817 59.6199 80.4255 56.6931C83.4852 52.2281 86.5995 47.6706 88.2469 42.4627C88.4581 41.9144 88.5127 41.2141 89.0966 40.9174C89.4646 42.6716 89.3032 44.4803 89.0634 46.2393C88.6077 48.7696 88.2231 51.3285 87.371 53.7663C85.98 57.5476 84.1213 61.196 81.5103 64.2866C77.8927 68.5308 73.5085 72.108 68.6661 74.871C66.4324 76.1457 63.9733 77.005 61.4595 77.5129C57.8111 78.066 54.0226 78.0518 50.4383 77.1141C49.0022 80.0314 48.6177 83.3238 47.2409 86.2624C46.8564 86.9983 46.3413 87.8861 45.4346 88C44.0768 87.8125 43.3338 86.4333 43.0632 85.2156C42.3487 81.3892 43.303 77.5129 44.4661 73.8764C40.1578 69.288 37.0933 63.4249 36.2056 57.1631C35.4317 50.6472 36.8726 43.9296 40.0249 38.1924C41.1524 36.2079 42.4009 34.29 43.7397 32.4409ZM39.1941 46.7472C38.6101 49.8663 38.1876 53.0684 38.622 56.235C39.4599 61.5545 42.0473 66.6295 46.0778 70.2375C47.3217 68.1486 47.6658 65.699 47.7822 63.311C47.8391 60.078 48.2569 56.8308 47.8462 53.6025C47.7015 51.0579 47.2884 48.5394 46.835 46.0327C46.244 41.8716 45.2542 37.7793 44.0982 33.7417C42.2087 37.9716 40.1815 42.1945 39.1941 46.7472Z" fill="#DD1C31"/>
<path d="M58.0013 38.5228C59.7776 37.9231 61.8239 39.8298 61.3272 41.6518C60.993 42.5811 60.3361 43.3479 59.7135 44.0964C59.0359 44.8357 58.0586 45.5819 56.9942 45.2775C55.0669 44.8472 54.378 42.1302 55.6117 40.6905C56.3167 39.8848 57.0308 39.0218 58.0013 38.5228Z" fill="#DD1C31"/>
</svg>
