<svg width="120" height="120" viewBox="0 0 120 120" fill="none" xmlns="http://www.w3.org/2000/svg">
<circle cx="60" cy="60" r="60" fill="white"/>
<path d="M84.2035 36.6985C84.2035 36.455 84.0766 36.2308 83.8706 36.1038C83.6646 35.9769 83.4067 35.9665 83.1891 36.0766L60.1044 47.8095L37.0209 36.0753C36.8046 35.9665 36.5467 35.9756 36.3394 36.1026C36.1322 36.2295 36.0065 36.4549 36.0065 36.6972L36 69.7981C36 70.0287 36.1127 70.2438 36.3032 70.3747L54.9894 83.1828C55.2032 83.3279 55.4804 83.3448 55.7097 83.2243C55.939 83.1038 56.0829 82.8654 56.0829 82.6063L56.088 74.1344C56.088 73.9025 55.974 73.6862 55.7823 73.5566L44.3202 65.7676V49.5935L59.7817 57.6689C59.9852 57.7738 60.2261 57.7738 60.4282 57.6689L75.8898 49.5935V65.7701L64.4342 73.5709C64.2437 73.7017 64.1284 73.9168 64.1284 74.1487L64.1271 82.6076C64.1271 82.8667 64.271 83.1051 64.5003 83.2256C64.6026 83.28 64.714 83.3059 64.8268 83.3059C64.9654 83.3059 65.1027 83.2644 65.2219 83.1841L83.9068 70.376C84.0973 70.2451 84.21 70.03 84.21 69.7994L84.2035 36.6985Z" fill="#4FC6E7"/>
</svg>
