<svg width="120" height="120" viewBox="0 0 120 120" fill="none" xmlns="http://www.w3.org/2000/svg">
<circle cx="60" cy="60" r="60" fill="white"/>
<path d="M74.391 66.2922C72.6448 65.3134 70.6757 65.0292 68.7275 64.9616C67.1021 64.9074 64.6523 63.8903 64.6523 61.0011C64.6523 58.8473 66.4496 57.1151 68.7275 57.0384C70.678 56.973 72.6448 56.6866 74.391 55.7078C75.9602 54.828 77.2634 53.5625 78.1696 52.0385C79.0757 50.5144 79.5527 48.7856 79.5528 47.0257C79.5529 45.2658 79.0761 43.5368 78.1701 42.0127C77.2642 40.4886 75.9611 39.2229 74.3919 38.343C72.8227 37.4631 71.0427 36.9999 69.2308 37C67.4188 37.0001 65.6389 37.4635 64.0698 38.3436C62.5007 39.2237 61.1978 40.4895 60.292 42.0137C59.3863 43.538 58.9096 45.267 58.9099 47.0269C58.9099 48.9687 59.6205 50.7572 60.5353 52.4149C61.2993 53.8088 61.6964 56.3957 59.0678 57.8639C57.1196 58.9555 54.6908 58.2654 53.4763 56.3776C52.45 54.7831 51.2124 53.29 49.4801 52.318C47.911 51.4385 46.1313 50.9757 44.3197 50.976C42.5081 50.9763 40.7285 51.4397 39.1597 52.3197C37.5909 53.1997 36.2882 54.4652 35.3825 55.9891C34.4768 57.513 34 59.2416 34 61.0011C34 62.7607 34.4768 64.4893 35.3825 66.0132C36.2882 67.5371 37.5909 68.8026 39.1597 69.6825C40.7285 70.5625 42.5081 71.0259 44.3197 71.0262C46.1313 71.0266 47.911 70.5637 49.4801 69.6843C51.2124 68.7122 52.45 67.2192 53.474 65.6246C54.3169 64.3165 56.4184 62.6498 59.0678 64.1361C61.0114 65.2277 61.6221 67.6184 60.5353 69.5873C59.6274 71.245 58.9099 73.0313 58.9099 74.9731C58.9096 76.733 59.3863 78.462 60.292 79.9863C61.1978 81.5105 62.5007 82.7763 64.0698 83.6564C65.6389 84.5365 67.4188 84.9999 69.2308 85C71.0427 85.0001 72.8227 84.5369 74.3919 83.657C75.9611 82.7771 77.2642 81.5114 78.1701 79.9873C79.0761 78.4632 79.5529 76.7342 79.5528 74.9743C79.5527 73.2144 79.0757 71.4856 78.1696 69.9615C77.2634 68.4375 75.9602 67.172 74.391 66.2922V66.2922Z" fill="url(#ripple_logo_linear)"/>
<defs>
<linearGradient id="ripple_logo_linear" x1="34" y1="37" x2="81.9344" y2="82.4905" gradientUnits="userSpaceOnUse">
<stop stop-color="#1DB4FF"/>
<stop offset="1" stop-color="#0F72E5"/>
</linearGradient>
</defs>
</svg>
