<svg width="120" height="120" viewBox="0 0 120 120" fill="none" xmlns="http://www.w3.org/2000/svg">
<circle cx="60" cy="60" r="60" fill="white"/>
<path d="M20.5581 57.5581V68.1161H25.1643C25.3428 68.1152 25.5136 68.0438 25.6397 67.9174C25.7657 67.7911 25.8367 67.6201 25.8371 67.4416V57.5581H20.5581Z" fill="black"/>
<path d="M10 67.4416C10.0005 67.6201 10.0714 67.7911 10.1975 67.9174C10.3235 68.0438 10.4943 68.1152 10.6728 68.1161H15.279V57.5581H10V67.4416Z" fill="black"/>
<path d="M25.8371 52.279V47.6728C25.8361 47.4943 25.7647 47.3235 25.6384 47.1975C25.512 47.0714 25.341 47.0005 25.1625 47H10.6728C10.4945 47.0005 10.3236 47.0715 10.1976 47.1976C10.0715 47.3236 10.0005 47.4945 10 47.6728V52.279H25.8371Z" fill="black"/>
<path d="M50.8428 53.9943C50.1537 53.6368 49.1316 53.4581 47.7767 53.4581C46.3881 53.4532 45.0034 53.6049 43.6488 53.9102V56.314C44.7274 56.1817 45.8123 56.1063 46.8989 56.088C47.7095 56.088 48.2894 56.1464 48.6387 56.2632C48.8135 56.322 48.9715 56.4222 49.0993 56.5552C49.2272 56.6882 49.321 56.8501 49.3728 57.0271C49.5153 57.4231 49.586 58.0824 49.5848 59.0052V59.706C48.3 59.6313 47.3013 59.5933 46.5888 59.5922C45.6648 59.5922 44.9436 59.7335 44.4249 60.0162C43.8906 60.3199 43.4917 60.8153 43.3089 61.4021C43.0823 62.0433 42.9695 62.9194 42.9707 64.0302C42.9707 65.537 43.2294 66.6297 43.7469 67.3083C44.2643 67.987 45.1176 68.3263 46.3067 68.3263H46.333C46.8954 68.3385 48.6107 68.2877 49.3991 67.275C49.528 67.1133 49.6374 66.9368 49.725 66.7494L49.8108 68.1038H52.6387V59.1682C52.6387 57.6812 52.5114 56.5365 52.2567 55.7341C52.1517 55.3632 51.9722 55.0176 51.7291 54.7185C51.486 54.4193 51.1844 54.1729 50.8428 53.9943ZM49.5848 62.618C49.5848 63.8433 49.4528 64.6346 49.1888 64.9921C49.0223 65.2044 48.7958 65.3618 48.5388 65.4441C48.2449 65.5271 47.9401 65.5655 47.6348 65.558C46.9561 65.558 46.5134 65.4412 46.3067 65.2076C46.0999 64.974 45.996 64.4886 45.9948 63.7516C45.9785 63.3422 46.0216 62.9327 46.1227 62.5357C46.1517 62.4215 46.2045 62.3147 46.2775 62.2224C46.3506 62.13 46.4423 62.054 46.5467 61.9995C46.8394 61.8884 47.1522 61.8401 47.4648 61.8576H49.5848V62.618Z" fill="black"/>
<path d="M75.4946 54.8003C75.4332 54.6983 75.3659 54.6 75.2931 54.5059C74.3365 53.2795 72.05 53.4669 72.05 53.4669C71.1477 53.4827 70.4328 53.693 69.9212 54.0942C69.3827 54.5182 69.0008 55.2582 68.7754 56.3141C68.5499 57.37 68.439 58.8791 68.4425 60.8415C68.4425 62.7629 68.5505 64.2428 68.7666 65.2812C68.9827 66.3196 69.3547 67.0543 69.8827 67.4853C70.4083 67.9199 71.174 68.1354 72.1744 68.1354H72.2532H72.2445C72.2445 68.1354 74.3102 68.293 75.3387 67.2593C75.3387 68.4402 75.2791 69.2795 75.1634 69.7683C75.0478 70.2571 74.8008 70.6216 74.4136 70.8003C74.0263 70.979 73.3623 71.0683 72.4214 71.0683L69.2537 71.0123V73.4161C69.8383 73.5275 70.4284 73.6076 71.0215 73.6562C71.7469 73.7216 72.4395 73.7543 73.0995 73.7543C74.7009 73.7543 75.8789 73.5002 76.6334 72.9921C77.388 72.484 77.8687 71.73 78.0754 70.7302C78.2822 69.7303 78.3855 68.2411 78.3855 66.2624V53.6842H75.5664L75.4946 54.8003ZM75.1442 64.1161C75.0496 64.5833 74.8703 64.9133 74.6063 65.106C74.3423 65.2987 73.9557 65.3957 73.4464 65.3969C72.8238 65.3969 72.3852 65.3075 72.1306 65.1288C71.876 64.9501 71.7066 64.5588 71.6225 63.9549C71.5175 62.9206 71.476 61.8808 71.4981 60.8415C71.4981 59.3347 71.5407 58.2887 71.626 57.7035C71.7113 57.1183 71.876 56.7416 72.1201 56.5734C72.3654 56.404 72.8087 56.3193 73.4499 56.3193C73.9966 56.3193 74.4013 56.4274 74.6641 56.6435C74.9269 56.8596 75.1062 57.2684 75.202 57.8699C75.2966 58.4166 75.3439 59.4059 75.3439 60.8379C75.3416 62.4756 75.2744 63.5683 75.1424 64.1161H75.1442Z" fill="black"/>
<path d="M89.5742 54.1836C88.9236 53.7035 87.8443 53.4635 86.3364 53.4635C84.8109 53.4635 83.6896 53.7129 82.9724 54.2116C82.2552 54.7104 81.7938 55.4603 81.5882 56.4613C81.3792 57.4623 81.2752 58.9516 81.2764 60.9291C81.2764 62.9265 81.385 64.4198 81.6023 65.4092C81.8195 66.3985 82.2996 67.1338 83.0425 67.6151C83.7877 68.0951 84.9517 68.3352 86.5344 68.3352C87.2953 68.3339 88.0556 68.2918 88.8121 68.209C89.4463 68.1494 90.0748 68.0405 90.6921 67.8831V65.4723C89.5381 65.6081 88.3778 65.6842 87.2159 65.7C86.2721 65.7 85.6122 65.6194 85.2361 65.4582C85.0438 65.3712 84.876 65.238 84.7476 65.0705C84.6193 64.903 84.5343 64.7064 84.5002 64.4981C84.3834 64.018 84.325 63.1654 84.325 61.9401H91.025V60.8888C91.025 58.7945 90.9449 57.2725 90.7849 56.3229C90.6249 55.3733 90.2213 54.6602 89.5742 54.1836ZM88.1182 59.6834H84.3303C84.3255 58.8888 84.377 58.0949 84.4844 57.3076C84.5703 56.8363 84.7437 56.5156 85.0101 56.3474C85.2764 56.1792 85.6969 56.0934 86.2821 56.0934C86.8287 56.0934 87.2247 56.1687 87.47 56.3194C87.7153 56.4701 87.8846 56.7901 87.9781 57.2795C88.0928 58.066 88.1402 58.8608 88.12 59.6554L88.1182 59.6834Z" fill="black"/>
<path d="M109.73 55.6202C109.551 54.8948 109.231 54.3528 108.77 53.9942C108.308 53.6356 107.634 53.4569 106.748 53.4581C106.709 53.4581 106.674 53.4581 106.636 53.4581C106.636 53.4581 104.346 53.3249 103.384 54.5093C103.277 54.6403 103.185 54.7818 103.107 54.9316C102.953 54.5357 102.689 54.1921 102.347 53.9417C101.902 53.6333 101.237 53.4774 100.365 53.4651C100.365 53.4651 98.0294 53.3214 97.1113 54.5164C97.0081 54.6486 96.916 54.7892 96.8363 54.9369L96.7574 53.6946H93.9541V68.1125H97.0062V60.5821C96.9918 59.6809 97.0252 58.7797 97.1061 57.8821C97.1715 57.3261 97.3269 56.9255 97.5721 56.6802C97.8174 56.4349 98.2228 56.3128 98.7881 56.314C99.3347 56.314 99.7114 56.3847 99.9182 56.526C100.127 56.6662 100.269 56.9868 100.328 57.4861C100.412 58.3742 100.445 59.2662 100.428 60.1581V68.102H103.482V60.5821C103.467 59.681 103.5 58.7797 103.58 57.8821C103.647 57.3261 103.807 56.9255 104.06 56.6802C104.314 56.4366 104.726 56.314 105.287 56.314C105.847 56.314 106.21 56.3841 106.418 56.526C106.627 56.6679 106.769 56.9868 106.828 57.4861C106.91 58.3743 106.943 59.2663 106.927 60.1581V68.102H109.98V58.604C109.993 57.3413 109.91 56.3467 109.73 55.6202Z" fill="black"/>
<path d="M64.3845 54.0084C63.9044 53.6404 63.1931 53.4565 62.2505 53.4565H62.1576C62.1576 53.4565 59.8396 53.3286 58.904 54.5077C58.8339 54.5971 58.7761 54.6829 58.7288 54.7688L58.6622 53.686H55.8589V68.1039H58.9128V60.5822C58.8986 59.6858 58.9314 58.7892 59.0109 57.8962C59.0775 57.3496 59.2422 56.9501 59.5067 56.6943C59.7713 56.4385 60.2076 56.3141 60.8068 56.3141C61.3733 56.3141 61.7692 56.3848 61.9947 56.5261C62.2207 56.6663 62.3714 56.9922 62.4467 57.5003C62.5412 58.3829 62.5798 59.2706 62.5623 60.1582V68.1021H65.6162V58.739C65.6417 57.7127 65.5577 56.6866 65.3657 55.6781C65.1928 54.934 64.8657 54.3775 64.3845 54.0084Z" fill="black"/>
<path d="M39.3226 49.5001H36.2705V53.6035H34.3765V56.2334H36.2705V68.102H39.3226V56.2334H41.6406V53.6035H39.3226V49.5001Z" fill="black"/>
</svg>
