<svg width="120" height="120" viewBox="0 0 120 120" fill="none" xmlns="http://www.w3.org/2000/svg">
<circle cx="60" cy="60" r="60" fill="white"/>
<path d="M19.2846 55.8526V69.8223C19.2846 69.9256 19.2436 70.0246 19.1706 70.0976C19.0976 70.1706 18.9986 70.2116 18.8953 70.2116H15.0297C14.927 70.2106 14.8287 70.1693 14.7562 70.0964C14.6837 70.0236 14.6427 69.9251 14.6423 69.8223V55.8526C14.6418 55.7495 14.6007 55.6508 14.5278 55.5779C14.4549 55.505 14.3561 55.4639 14.253 55.4634H10.3892C10.286 55.4634 10.187 55.4224 10.114 55.3494C10.041 55.2764 10 55.1774 10 55.0742V51.7174C10 51.6142 10.041 51.5152 10.114 51.4422C10.187 51.3692 10.286 51.3282 10.3892 51.3282H23.5305C23.5822 51.3272 23.6336 51.3366 23.6816 51.3557C23.7297 51.3749 23.7734 51.4034 23.8103 51.4396C23.8472 51.4759 23.8765 51.5191 23.8965 51.5668C23.9165 51.6145 23.9268 51.6657 23.9268 51.7174V55.0742C23.9268 55.1774 23.8858 55.2764 23.8128 55.3494C23.7398 55.4224 23.6408 55.4634 23.5376 55.4634H19.6684C19.5663 55.4653 19.4689 55.507 19.3972 55.5798C19.3254 55.6525 19.285 55.7505 19.2846 55.8526Z" fill="black"/>
<path d="M32.9614 59.3861L34.1309 59.345C35.4022 59.345 36.1449 58.4166 36.1449 57.4346C36.1449 56.4525 35.4022 55.5259 34.1309 55.5259H31.8955C31.7921 55.5263 31.6931 55.5678 31.6201 55.641C31.5472 55.7143 31.5062 55.8135 31.5062 55.9169V69.8527C31.5057 69.9558 31.4646 70.0545 31.3917 70.1274C31.3188 70.2003 31.2201 70.2414 31.117 70.2419H27.255C27.1519 70.2414 27.0531 70.2003 26.9802 70.1274C26.9074 70.0545 26.8662 69.9558 26.8657 69.8527V51.7531C26.8657 51.6499 26.9067 51.5509 26.9797 51.4779C27.0527 51.4049 27.1517 51.3639 27.255 51.3639H34.3434C38.5321 51.3639 40.7854 54.3332 40.7854 57.4346C40.7943 58.4008 40.5435 59.3516 40.0591 60.1878C39.5748 61.0239 38.8748 61.7145 38.0322 62.1875C37.9449 62.2366 37.8799 62.3175 37.8509 62.4134C37.822 62.5092 37.8313 62.6126 37.8769 62.7018L41.4907 69.6652C41.5217 69.7245 41.5369 69.7908 41.5348 69.8577C41.5327 69.9245 41.5134 69.9898 41.4788 70.047C41.4441 70.1043 41.3953 70.1516 41.3371 70.1845C41.2788 70.2174 41.213 70.2347 41.1461 70.2348H36.6574C36.583 70.2355 36.5099 70.215 36.4467 70.1758C36.3835 70.1366 36.3327 70.0803 36.3003 70.0134L32.9989 63.0785C32.9741 63.0267 32.9612 62.9699 32.9614 62.9125V59.3861Z" fill="black"/>
<path d="M44.394 69.8223V51.7174C44.394 51.6141 44.4351 51.5151 44.508 51.4421C44.581 51.3691 44.68 51.3281 44.7833 51.3281H48.6435C48.6947 51.3279 48.7454 51.3378 48.7927 51.3573C48.8401 51.3768 48.8831 51.4054 48.9193 51.4416C48.9555 51.4778 48.9841 51.5208 49.0036 51.5681C49.0231 51.6155 49.033 51.6662 49.0328 51.7174V69.8223C49.0328 69.9255 48.9917 70.0245 48.9187 70.0975C48.8458 70.1705 48.7467 70.2115 48.6435 70.2115H44.7833C44.6802 70.211 44.5815 70.1699 44.5086 70.097C44.4357 70.0241 44.3945 69.9253 44.394 69.8223Z" fill="black"/>
<path d="M58.4746 70.358C55.7285 70.358 53.461 69.8795 51.604 68.1476C51.5665 68.1108 51.5366 68.0669 51.5162 68.0185C51.4959 67.97 51.4854 67.918 51.4854 67.8655C51.4854 67.8129 51.4959 67.7609 51.5162 67.7124C51.5366 67.664 51.5665 67.6201 51.604 67.5833L54.0341 65.1533C54.105 65.0837 54.1995 65.0434 54.2988 65.0404C54.3981 65.0374 54.4948 65.072 54.5698 65.1372C55.5768 65.9335 57.1337 66.2228 58.5139 66.2228C60.3422 66.2228 61.2189 65.6122 61.2189 64.5248C61.243 64.1195 61.11 63.7204 60.8475 63.4106C60.6083 63.1732 60.2101 62.9875 59.5977 62.9071L57.3158 62.5965C55.6446 62.3572 54.3716 61.8019 53.5235 60.9252C52.6486 60.0325 52.2236 58.7523 52.2236 57.1346C52.2236 53.6886 54.8233 51.1693 59.1174 51.1693C61.6599 51.1693 63.6151 51.7317 65.1881 53.1334C65.2268 53.1697 65.2579 53.2135 65.2794 53.2621C65.3009 53.3107 65.3124 53.3631 65.3132 53.4162C65.3141 53.4694 65.3042 53.5221 65.2842 53.5714C65.2643 53.6206 65.2346 53.6654 65.197 53.7029L62.8169 56.0741C62.7456 56.1432 62.6509 56.1828 62.5516 56.1852C62.4523 56.1875 62.3558 56.1523 62.2813 56.0866C61.1332 55.1527 59.737 55.2206 58.9763 55.2206C57.3587 55.2206 56.6963 56.149 56.6963 56.9704C56.7 57.2995 56.8335 57.6139 57.0677 57.8453C57.4241 58.1736 57.8822 58.3701 58.3657 58.4023L60.6476 58.7202C62.3438 58.9576 63.5633 59.4897 64.3596 60.2843C65.3666 61.2645 65.763 62.6697 65.763 64.4195C65.7648 68.2708 62.4509 70.358 58.4746 70.358Z" fill="black"/>
<path d="M79.5486 70.2061C79.4655 70.206 79.3846 70.1792 79.3177 70.1297C79.2509 70.0802 79.2017 70.0107 79.1772 69.9312L78.3845 67.394L75.9384 59.6235C75.9136 59.5449 75.8644 59.4762 75.798 59.4274C75.7315 59.3786 75.6512 59.3523 75.5688 59.3523C75.4863 59.3523 75.406 59.3786 75.3396 59.4274C75.2731 59.4762 75.2239 59.5449 75.1992 59.6235L72.5816 67.394L71.7425 69.9383C71.7167 70.016 71.6671 70.0837 71.6008 70.1318C71.5345 70.1798 71.4548 70.2058 71.3729 70.2061H67.3573C67.2947 70.2058 67.2332 70.1905 67.1778 70.1615C67.1224 70.1324 67.0748 70.0905 67.0389 70.0393C67.003 69.988 66.98 69.9289 66.9717 69.8669C66.9634 69.8049 66.9701 69.7419 66.9913 69.683L73.5762 51.5835C73.6034 51.5084 73.6532 51.4435 73.7187 51.3978C73.7842 51.3521 73.8623 51.3278 73.9422 51.3281H76.9775C77.0574 51.3278 77.1355 51.3521 77.201 51.3978C77.2665 51.4435 77.3163 51.5084 77.3435 51.5835L83.9195 69.683C83.9404 69.7412 83.9473 69.8035 83.9394 69.8648C83.9316 69.9261 83.9093 69.9847 83.8745 70.0357C83.8397 70.0868 83.7932 70.1288 83.7389 70.1585C83.6847 70.1881 83.6242 70.2044 83.5624 70.2061H79.5486Z" fill="black"/>
<path d="M85.5444 53.6314C87.8299 50.2622 92.0793 48 96.9537 48C101.86 48 106.142 50.3015 108.413 53.7136" stroke="#26A9E0" stroke-width="1.34805" stroke-miterlimit="10"/>
<path d="M97 67.9923C97.0048 65.7827 97.5025 63.602 98.457 61.6092C100.56 57.174 104.474 54.2886 108.534 53.703" stroke="#26A9E0" stroke-width="1.34805" stroke-miterlimit="10"/>
<path d="M96.9609 53.6226V68.0672" stroke="#26A9E0" stroke-width="1.34805" stroke-miterlimit="10"/>
<path d="M85.5494 55.7758C86.7436 55.7758 87.7117 54.8077 87.7117 53.6135C87.7117 52.4194 86.7436 51.4513 85.5494 51.4513C84.3553 51.4513 83.3872 52.4194 83.3872 53.6135C83.3872 54.8077 84.3553 55.7758 85.5494 55.7758Z" fill="#26A9E0"/>
<path d="M96.9645 55.7491C98.1586 55.7491 99.1267 54.7811 99.1267 53.5869C99.1267 52.3927 98.1586 51.4247 96.9645 51.4247C95.7703 51.4247 94.8022 52.3927 94.8022 53.5869C94.8022 54.7811 95.7703 55.7491 96.9645 55.7491Z" fill="#26A9E0"/>
<path d="M108.377 55.7491C109.571 55.7491 110.539 54.7811 110.539 53.5869C110.539 52.3927 109.571 51.4247 108.377 51.4247C107.183 51.4247 106.215 52.3927 106.215 53.5869C106.215 54.7811 107.183 55.7491 108.377 55.7491Z" fill="#26A9E0"/>
<path d="M96.9928 70.2188C98.187 70.2188 99.155 69.2507 99.155 68.0565C99.155 66.8624 98.187 65.8943 96.9928 65.8943C95.7986 65.8943 94.8306 66.8624 94.8306 68.0565C94.8306 69.2507 95.7986 70.2188 96.9928 70.2188Z" fill="#26A9E0"/>
</svg>
