<svg width="120" height="120" viewBox="0 0 120 120" fill="none" xmlns="http://www.w3.org/2000/svg">
<circle cx="60" cy="60" r="60" fill="white"/>
<path d="M74.4878 29.3608C75.3578 28.9212 76.164 28.3588 77.0728 28C77.0883 31.1287 77.0712 34.2573 77.0836 37.386C77.0852 43.1772 77.0774 48.9669 77.0852 54.7582C77.079 58.1105 77.0836 61.4629 77.0821 64.8168C77.0712 70.5708 74.2983 76.2471 69.7684 79.7921C65.526 83.2034 59.7906 84.6777 54.4328 83.7068C49.3002 82.8322 44.5668 79.7796 41.6991 75.4269C40.5884 73.8299 39.8164 72.0264 39.195 70.1902C38.8455 69.0391 38.6388 67.8491 38.4959 66.6561C38.3903 65.839 38.4229 65.0156 38.4136 64.1954C38.4214 59.2011 38.3965 54.2067 38.426 49.2124C41.637 47.3917 44.8977 45.6581 48.1227 43.8607C48.7409 43.5221 49.3328 43.1275 50.007 42.9038C50.0722 47.8919 50.0148 52.8832 50.035 57.8713C50.0303 59.7727 50.0396 61.6726 50.0334 63.574C50.0303 64.3523 50.0054 65.1337 50.1049 65.9073C50.4622 67.6767 51.5138 69.3109 53.0285 70.3051C54.8491 71.5603 57.3144 71.7763 59.3479 70.9296C61.7293 69.9556 63.4677 67.5602 63.5562 64.9737C63.5795 63.4591 63.5515 61.9429 63.5609 60.4283C63.5686 56.2526 63.5764 52.0769 63.5593 47.9013C63.5624 43.7473 63.5469 39.5919 63.5671 35.4364C63.9694 35.1366 64.4028 34.8787 64.8518 34.6503C68.0736 32.9058 71.2737 31.1209 74.4878 29.3608Z" fill="#4E47F7"/>
<path d="M36.1778 68.2623C36.9452 67.7202 37.6334 67.0522 38.4955 66.6561C38.6385 67.8491 38.8451 69.0391 39.1946 70.1902C37.1969 71.0787 35.1758 71.9254 33.1268 72.6928C32.0611 73.106 31.0421 73.6326 29.9624 74.0148C28.9527 74.3612 28.033 74.9297 27 75.2109C27.4769 74.7527 28.016 74.3721 28.5535 73.9899C31.0918 72.0761 33.6503 70.1902 36.1778 68.2623Z" fill="#2FE9FE"/>
<path d="M83.23 32.9835C85.0429 31.7096 86.7284 30.2665 88.563 29.0222C88.6438 29.294 88.723 29.569 88.7168 29.8564C88.6966 35.8651 88.7153 41.8754 88.7075 47.8842C88.6951 48.5521 88.765 49.2248 88.6655 49.8881C88.577 50.2578 88.1405 50.3464 87.8469 50.5033C85.1532 51.5425 82.4797 52.6346 79.8264 53.7717C78.9114 54.0949 78.0555 54.6137 77.0846 54.7582C77.0768 48.9669 77.0846 43.1772 77.083 37.3859C77.9529 37.1048 78.5619 36.3933 79.2998 35.8946C80.6373 34.961 81.9174 33.9497 83.23 32.9835Z" fill="#2FE9FE"/>
<path d="M61.8458 49.0291C62.391 48.6174 62.9052 48.1374 63.5592 47.9012C63.5763 52.0769 63.5685 56.2526 63.5608 60.4283C61.097 61.3137 58.669 62.3033 56.2596 63.3317C54.1935 64.1519 52.1087 64.9426 50.1048 65.9073C50.0054 65.1337 50.0302 64.3523 50.0333 63.574C50.0395 61.6726 50.0302 59.7727 50.0349 57.8713C53.9744 54.9275 57.9093 51.9775 61.8458 49.0291Z" fill="#2FE9FE"/>
</svg>
