<svg width="140" height="26" viewBox="0 0 140 26" fill="none" xmlns="http://www.w3.org/2000/svg">
<path d="M3.91487 0.961135H0L8.6385 24.9661H12.823L21.4615 0.961135H17.5466L10.8655 20.512H10.5959L3.91487 0.961135Z" fill="#000E33"/>
<path d="M28.081 25.3646C31.0582 25.3646 32.7343 23.8526 33.4024 22.5046H33.543V24.9661H36.9656V13.0105C36.9656 7.77113 32.8398 6.72795 29.9798 6.72795C26.7213 6.72795 23.7207 8.04072 22.5486 11.3226L25.8422 12.0728C26.358 10.7952 27.6707 9.56447 30.0267 9.56447C32.2889 9.56447 33.4493 10.7483 33.4493 12.7878V12.8698C33.4493 14.1474 32.1365 14.124 28.9015 14.4991C25.4906 14.8976 21.9977 15.7884 21.9977 19.8791C21.9977 23.4189 24.6584 25.3646 28.081 25.3646ZM28.8429 22.5515C26.862 22.5515 25.432 21.6607 25.432 19.926C25.432 18.0506 27.0964 17.3825 29.1242 17.1129C30.2611 16.9605 32.957 16.6558 33.461 16.1518V18.4726C33.461 20.6058 31.7614 22.5515 28.8429 22.5515Z" fill="#000E33"/>
<path d="M45.1382 0.961135H41.6336V24.9661H45.1382V0.961135Z" fill="#000E33"/>
<path d="M49.853 24.9661H53.3577V6.96237H49.853V24.9661ZM51.6229 4.18446C52.8302 4.18446 53.8382 3.24676 53.8382 2.09809C53.8382 0.949414 52.8302 0 51.6229 0C50.4039 0 49.4076 0.949414 49.4076 2.09809C49.4076 3.24676 50.4039 4.18446 51.6229 4.18446Z" fill="#000E33"/>
<path d="M64.8122 25.3177C68.0941 25.3177 69.3834 23.3134 70.0164 22.1647H70.3094V24.9661H73.732V0.961135H70.2273V9.88094H70.0164C69.3834 8.76743 68.1879 6.72795 64.8356 6.72795C60.4871 6.72795 57.2872 10.1623 57.2872 15.9994C57.2872 21.8248 60.4402 25.3177 64.8122 25.3177ZM65.5858 22.3288C62.4562 22.3288 60.827 19.5743 60.827 15.9642C60.827 12.3893 62.4211 9.70512 65.5858 9.70512C68.645 9.70512 70.286 12.2017 70.286 15.9642C70.286 19.7502 68.6098 22.3288 65.5858 22.3288Z" fill="#000E33"/>
<path d="M83.9733 25.3646C86.9505 25.3646 88.6266 23.8526 89.2947 22.5046H89.4354V24.9661H92.858V13.0105C92.858 7.77113 88.7321 6.72795 85.8722 6.72795C82.6137 6.72795 79.6131 8.04072 78.441 11.3226L81.7346 12.0728C82.2503 10.7952 83.5631 9.56447 85.9191 9.56447C88.1812 9.56447 89.3416 10.7483 89.3416 12.7878V12.8698C89.3416 14.1474 88.0289 14.124 84.7938 14.4991C81.383 14.8976 77.8901 15.7884 77.8901 19.8791C77.8901 23.4189 80.5508 25.3646 83.9733 25.3646ZM84.7352 22.5515C82.7543 22.5515 81.3244 21.6607 81.3244 19.926C81.3244 18.0506 82.9888 17.3825 85.0165 17.1129C86.1535 16.9605 88.8493 16.6558 89.3534 16.1518V18.4726C89.3534 20.6058 87.6538 22.5515 84.7352 22.5515Z" fill="#000E33"/>
<path d="M105.93 6.96237H102.238V2.64898H98.7332V6.96237H96.0959V9.77545H98.7332V20.4065C98.7215 23.6768 101.218 25.2591 103.984 25.2005C105.098 25.1888 105.848 24.9778 106.258 24.8254L105.625 21.9303C105.391 21.9772 104.957 22.0827 104.395 22.0827C103.258 22.0827 102.238 21.7076 102.238 19.6798V9.77545H105.93V6.96237Z" fill="#000E33"/>
<path d="M117.197 25.3294C122.272 25.3294 125.589 21.6138 125.589 16.0463C125.589 10.4436 122.272 6.72795 117.197 6.72795C112.122 6.72795 108.805 10.4436 108.805 16.0463C108.805 21.6138 112.122 25.3294 117.197 25.3294ZM117.209 22.3874C113.892 22.3874 112.344 19.4923 112.344 16.0346C112.344 12.5885 113.892 9.65824 117.209 9.65824C120.502 9.65824 122.05 12.5885 122.05 16.0346C122.05 19.4923 120.502 22.3874 117.209 22.3874Z" fill="#000E33"/>
<path d="M129.501 24.9661H133.006V13.9716C133.006 11.6157 134.823 9.91611 137.308 9.91611C138.034 9.91611 138.855 10.045 139.136 10.1271V6.77483C138.784 6.72795 138.093 6.69278 137.647 6.69278C135.538 6.69278 133.733 7.88834 133.076 9.82234H132.889V6.96237H129.501V24.9661Z" fill="#000E33"/>
</svg>
