<svg width="53" height="53" viewBox="0 0 53 53" fill="none" xmlns="http://www.w3.org/2000/svg">
<circle cx="26.5" cy="26.5" r="26.5" fill="#001B66"/>
<path d="M24.7613 13.9996H16.2689L12 21.3713L16.2689 28.7884H24.7613L29.0302 21.3713L24.7613 13.9996Z" fill="#FF5D00"/>
<path d="M38.5376 24.4655H21.8709C20.7203 24.4655 19.7876 25.3982 19.7876 26.5488V36.9655C19.7876 38.116 20.7203 39.0488 21.8709 39.0488H38.5376C39.6882 39.0488 40.6209 38.116 40.6209 36.9655V26.5488C40.6209 25.3982 39.6882 24.4655 38.5376 24.4655Z" stroke="white" stroke-width="1.38" stroke-linecap="round" stroke-linejoin="round"/>
<path d="M34.3709 39.0485V22.3818C34.3709 21.8293 34.1514 21.2994 33.7607 20.9087C33.37 20.518 32.8401 20.2985 32.2876 20.2985H28.1209C27.5684 20.2985 27.0385 20.518 26.6478 20.9087C26.2571 21.2994 26.0376 21.8293 26.0376 22.3818V39.0485" stroke="white" stroke-width="1.38" stroke-linecap="round" stroke-linejoin="round"/>
<path d="M30.2881 34.2223H30.2979" stroke="white" stroke-width="1.38329" stroke-linecap="round" stroke-linejoin="round"/>
</svg>
