<svg xmlns="http://www.w3.org/2000/svg" fill="none" viewBox="0 0 53 53" height="53" width="53">
<circle fill="#001B66" r="26.5" cy="26.5" cx="26.5"></circle>
<rect fill="#A803FC" height="14.1297" width="14.1297" y="13.8262" x="26.1962"></rect>
<path stroke-linejoin="round" stroke-linecap="round" stroke-width="1.24469" stroke="white" d="M33.3857 25.8164H18.1244C16.9203 25.8164 15.9442 26.7925 15.9442 27.9966V35.6272C15.9442 36.8313 16.9203 37.8074 18.1244 37.8074H33.3857C34.5898 37.8074 35.5659 36.8313 35.5659 35.6272V27.9966C35.5659 26.7925 34.5898 25.8164 33.3857 25.8164Z"></path>
<path stroke-linejoin="round" stroke-linecap="round" stroke-width="1.24469" stroke="white" d="M20.3047 25.8177V21.4573C20.3047 20.0117 20.8789 18.6254 21.9011 17.6032C22.9233 16.5811 24.3096 16.0068 25.7552 16.0068C27.2007 16.0068 28.5871 16.5811 29.6092 17.6032C30.6314 18.6254 31.2056 20.0117 31.2056 21.4573V25.8177"></path>
</svg>
