<svg xmlns="http://www.w3.org/2000/svg" fill="none" viewBox="0 0 53 53" height="53" width="53">
<circle fill="#001B66" r="26.5" cy="26.5" cx="26.5"></circle>
<ellipse fill="#55DF20" ry="7.86098" rx="7.87778" cy="20.5348" cx="19.3995"></ellipse>
<path stroke-linejoin="round" stroke-linecap="round" stroke-width="1.38329" stroke="white" d="M29.584 38.0048C35.0582 38.0048 39.496 33.567 39.496 28.0927C39.496 22.6185 35.0582 18.1807 29.584 18.1807C24.1097 18.1807 19.6719 22.6185 19.6719 28.0927C19.6719 33.567 24.1097 38.0048 29.584 38.0048Z"></path>
<path stroke-linejoin="round" stroke-linecap="round" stroke-width="1.38329" stroke="white" d="M26.6993 25.1197C26.9324 24.4572 27.3923 23.8986 27.9978 23.5428C28.6032 23.187 29.315 23.0569 30.0072 23.1756C30.6993 23.2943 31.3271 23.6542 31.7794 24.1914C32.2316 24.7287 32.4791 25.4086 32.4781 26.1109C32.4781 28.0933 29.5045 29.0845 29.5045 29.0845"></path>
<path stroke-linejoin="round" stroke-linecap="round" stroke-width="1.38329" stroke="white" d="M29.5839 33.0488H29.5937"></path>
</svg>
