<svg width="327" height="65" viewBox="0 0 327 65" fill="none" xmlns="http://www.w3.org/2000/svg">
<g clip-path="url(#clip0)">
<path d="M100.942 29.6785C99.9737 31.4567 98.4536 32.8876 96.3855 33.9784C94.3174 35.0692 91.7156 35.6093 88.5693 35.6093H82.1566V50.196H74.4747V12.2089H88.5729C91.5353 12.2089 94.0594 12.7174 96.1451 13.731C98.2273 14.7446 99.7934 16.144 100.836 17.9222C101.879 19.7004 102.402 21.7135 102.402 23.9652C102.395 25.9959 101.911 27.9003 100.942 29.6785ZM92.96 28.0196C93.9816 27.0586 94.4942 25.7048 94.4942 23.9652C94.4942 20.265 92.412 18.4132 88.2406 18.4132H82.1566V29.4611H88.2476C90.3652 29.4611 91.9383 28.9806 92.96 28.0196Z" fill="white"/>
<path d="M105.743 26.841C106.969 24.4841 108.631 22.6674 110.734 21.3977C112.838 20.1281 115.185 19.4933 117.783 19.4933C120.049 19.4933 122.036 19.9492 123.737 20.8541C125.437 21.759 126.798 22.9058 127.823 24.2807V19.9843H135.558V50.1327H127.823V45.7241C126.837 47.1375 125.476 48.3089 123.737 49.2348C121.997 50.1607 119.996 50.6237 117.73 50.6237C115.167 50.6237 112.841 49.9713 110.738 48.6666C108.635 47.3619 106.969 45.5171 105.743 43.1427C104.516 40.7648 103.904 38.0362 103.904 34.9533C103.901 31.902 104.516 29.2014 105.743 26.841ZM126.724 30.2991C125.992 28.9734 125.002 27.9598 123.761 27.2513C122.517 26.5429 121.184 26.1886 119.756 26.1886C118.331 26.1886 117.013 26.5359 115.807 27.2233C114.602 27.9107 113.623 28.9208 112.873 30.243C112.124 31.5688 111.749 33.1365 111.749 34.9498C111.749 36.7665 112.124 38.3518 112.873 39.7126C113.619 41.0734 114.612 42.1151 115.836 42.8411C117.062 43.5671 118.367 43.9283 119.76 43.9283C121.184 43.9283 122.521 43.5741 123.761 42.8656C125.002 42.1572 125.992 41.1401 126.724 39.8178C127.456 38.4921 127.82 36.9068 127.82 35.055C127.82 33.2102 127.452 31.6249 126.724 30.2991Z" fill="white"/>
<path d="M181.967 49.2384C179.829 48.3336 178.135 47.0254 176.894 45.3208C175.65 43.6163 175.01 41.6031 174.975 39.2778H183.205C183.314 40.8386 183.873 42.0731 184.88 42.978C185.888 43.8829 187.267 44.3388 189.023 44.3388C190.816 44.3388 192.223 43.9144 193.248 43.0587C194.273 42.2099 194.782 41.0911 194.782 39.7127C194.782 38.5869 194.432 37.661 193.739 36.9385C193.046 36.2125 192.173 35.6443 191.134 35.2234C190.091 34.8096 188.656 34.3431 186.828 33.8346C184.339 33.1086 182.321 32.3896 180.765 31.6846C179.21 30.9762 177.874 29.9064 176.764 28.4755C175.647 27.041 175.088 25.1296 175.088 22.7341C175.088 20.486 175.657 18.5254 176.788 16.8559C177.923 15.1865 179.514 13.9098 181.564 13.019C183.611 12.1282 185.951 11.6827 188.585 11.6827C192.534 11.6827 195.744 12.6367 198.215 14.5412C200.682 16.4456 202.047 19.1041 202.301 22.5131H193.852C193.778 21.2085 193.223 20.1282 192.177 19.2759C191.134 18.4272 189.755 17.9958 188.034 17.9958C186.535 17.9958 185.336 18.3781 184.442 19.1392C183.544 19.9002 183.095 21.0085 183.095 22.457C183.095 23.4706 183.434 24.3159 184.11 24.9893C184.788 25.6627 185.626 26.2063 186.634 26.6201C187.641 27.0375 189.055 27.518 190.886 28.0651C193.372 28.7911 195.401 29.5171 196.978 30.2396C198.551 30.9656 199.905 32.0564 201.036 33.5049C202.171 34.9569 202.736 36.8613 202.736 39.2217C202.736 41.2559 202.206 43.1393 201.145 44.8824C200.085 46.622 198.529 48.0109 196.479 49.0455C194.429 50.0802 192 50.5993 189.183 50.5993C186.514 50.5993 184.106 50.1433 181.967 49.2384Z" fill="white"/>
<path d="M216.753 26.1818V40.7684C216.753 41.782 217.001 42.5186 217.492 42.9745C217.987 43.4304 218.818 43.6549 219.988 43.6549H223.551V50.0767H218.722C212.249 50.0767 209.011 46.9552 209.011 40.7158V26.1818H205.391V19.9248H209.011V12.4684H216.746V19.9248H223.548V26.1853L216.753 26.1818Z" fill="white"/>
<path d="M240.28 20.8541C241.871 19.9492 243.688 19.4933 245.738 19.4933V27.4933H243.709C241.294 27.4933 239.477 28.058 238.251 29.1803C237.024 30.3026 236.412 32.2667 236.412 35.0585V50.0801H228.73V19.9317H236.412V24.6139C237.406 23.0146 238.689 21.766 240.28 20.8541Z" fill="white"/>
<path d="M250.797 15.1723C249.899 14.3235 249.45 13.2608 249.45 11.9877C249.45 10.7181 249.899 9.65887 250.797 8.8031C251.695 7.95083 252.815 7.52295 254.169 7.52295C255.523 7.52295 256.647 7.94733 257.542 8.8031C258.44 9.65536 258.889 10.7181 258.889 11.9877C258.889 13.2573 258.44 14.3165 257.542 15.1723C256.644 16.0245 255.523 16.4524 254.169 16.4524C252.815 16.4524 251.691 16.0245 250.797 15.1723ZM257.955 20.0439V50.1922H250.273V20.0439H257.955Z" fill="white"/>
<path d="M288.969 22.8954C291.2 25.1646 292.313 28.3317 292.313 32.3931V50.0802H284.631V33.4277C284.631 31.0323 284.027 29.1909 282.821 27.9038C281.616 26.6166 279.969 25.9713 277.886 25.9713C275.765 25.9713 274.093 26.6166 272.866 27.9038C271.64 29.1909 271.028 31.0323 271.028 33.4277V50.0837H263.346V19.9283H271.028V23.681C272.05 22.3763 273.361 21.3522 274.952 20.6052C276.543 19.8651 278.289 19.4899 280.191 19.4899C283.815 19.4934 286.742 20.6262 288.969 22.8954Z" fill="white"/>
<path d="M315.207 20.8331C316.925 21.7239 318.279 22.8743 319.265 24.2877V19.9878H327V50.3572C327 53.1525 326.431 55.6426 325.3 57.8382C324.165 60.0337 322.464 61.7733 320.198 63.064C317.929 64.3546 315.189 64.9965 311.969 64.9965C307.652 64.9965 304.114 63.9969 301.353 62.0048C298.592 60.0092 297.026 57.2875 296.661 53.8399H304.287C304.69 55.2182 305.556 56.316 306.892 57.1332C308.228 57.9504 309.848 58.3572 311.746 58.3572C313.977 58.3572 315.787 57.6944 317.179 56.3686C318.569 55.0429 319.262 53.0402 319.262 50.3572V45.675C318.275 47.0884 316.914 48.2704 315.175 49.2103C313.436 50.1538 311.452 50.6237 309.222 50.6237C306.659 50.6237 304.322 49.9714 302.201 48.6667C300.08 47.362 298.408 45.5172 297.181 43.1428C295.954 40.7648 295.343 38.0362 295.343 34.9533C295.343 31.9055 295.954 29.2014 297.181 26.8445C298.408 24.4877 300.069 22.6709 302.176 21.4013C304.28 20.1316 306.627 19.4968 309.225 19.4968C311.495 19.4968 313.489 19.9422 315.207 20.8331ZM318.169 30.3027C317.437 28.9769 316.451 27.9633 315.207 27.2549C313.962 26.5464 312.63 26.1922 311.201 26.1922C309.773 26.1922 308.458 26.5394 307.253 27.2268C306.047 27.9142 305.068 28.9243 304.319 30.2466C303.569 31.5723 303.194 33.1401 303.194 34.9533C303.194 36.7701 303.569 38.3553 304.319 39.7162C305.065 41.077 306.058 42.1186 307.281 42.8446C308.508 43.5706 309.812 43.9319 311.205 43.9319C312.63 43.9319 313.966 43.5777 315.21 42.8692C316.455 42.1607 317.441 41.1436 318.173 39.8214C318.905 38.4956 319.269 36.9104 319.269 35.0585C319.265 33.2137 318.901 31.6249 318.169 30.3027Z" fill="white"/>
<path d="M161.934 37.142H161.951V36.8579C161.948 36.9561 161.944 37.0508 161.934 37.142Z" fill="white"/>
<path d="M169.647 19.9915V50.3643C169.647 53.1526 169.078 55.6497 167.947 57.8453C166.812 60.0408 165.112 61.7804 162.842 63.0676C160.576 64.3583 157.833 65.0001 154.616 65.0001C152.693 65.0001 150.925 64.8037 149.31 64.4039C147.309 63.9129 145.541 63.1167 144.011 62.0154C144.007 62.0119 144.003 62.0119 144 62.0084C141.239 60.0128 139.676 57.2911 139.309 53.8435H146.934C147.015 54.1241 147.114 54.3906 147.238 54.6467C147.705 55.6568 148.472 56.488 149.54 57.1368C150.71 57.8523 152.099 58.2556 153.707 58.3433C153.93 58.3538 154.163 58.3609 154.397 58.3609C156.627 58.3609 158.437 57.698 159.827 56.3758C161.216 55.05 161.912 53.0439 161.912 50.3643V45.6821C161.099 46.85 160.028 47.8531 158.703 48.7019C158.423 48.8842 158.126 49.0526 157.826 49.2174C157.72 49.2771 157.61 49.3332 157.501 49.3893H157.497C156.203 50.0346 154.779 50.431 153.22 50.5712C153.085 50.5747 152.944 50.5783 152.806 50.5783C149.182 50.5783 146.259 49.4419 144.028 47.1797C142.271 45.384 141.204 43.0376 140.836 40.1301C140.733 39.355 140.68 38.5343 140.68 37.6786V19.9915H148.359V36.6474C148.359 39.0394 148.963 40.8842 150.172 42.1679C151.007 43.0622 152.053 43.6444 153.312 43.9215C153.867 44.0407 154.467 44.1039 155.107 44.1039C157.232 44.1039 158.904 43.455 160.127 42.1679C161.205 41.0385 161.81 39.4778 161.934 37.4927H161.951V19.9915H169.647Z" fill="white"/>
<path d="M34.1743 51.5728C38.4907 51.0046 42.4854 49.009 45.5185 45.912L63.1836 27.9479C62.0594 27.7655 60.9211 27.6813 59.7828 27.6954C56.679 27.7129 53.6246 28.474 50.8813 29.9154C49.1527 30.8308 47.576 32.0093 46.2079 33.4017L39.6926 40.0234C39.6538 40.0654 39.6113 40.1075 39.5689 40.1531C37.5221 42.2364 34.7293 43.4359 31.7951 43.4885C28.861 43.5411 26.0258 42.4469 23.9047 40.4372L30.7099 47.0238C32.0886 48.3601 33.2587 49.8928 34.1743 51.5728Z" fill="url(#paint0_linear)"/>
<path d="M18.1001 46.3399L36.2071 63.8657C36.8964 59.657 36.1823 55.3361 34.1708 51.5658C33.2552 49.8858 32.0886 48.3531 30.7064 47.0204L23.9013 40.4337C22.8337 39.4236 21.9782 38.2171 21.3843 36.8774C20.7904 35.5376 20.4722 34.0961 20.4439 32.6336C20.4156 31.1711 20.6808 29.7191 21.2252 28.3582C21.7696 26.9974 22.5791 25.7594 23.6079 24.7107L16.9759 31.4622C15.6078 32.8581 14.0312 34.033 12.3025 34.9484C12.8681 39.2904 14.915 43.3097 18.1001 46.3399Z" fill="url(#paint1_linear)"/>
<path d="M0 36.9265C1.12417 37.1089 2.26249 37.1931 3.4008 37.1755C6.50465 37.1545 9.55901 36.3934 12.3023 34.9554C14.031 34.04 15.6112 32.8651 16.9757 31.4692L23.6182 24.7177C24.6399 23.6761 25.856 22.8484 27.2029 22.2732C28.5462 21.7015 29.9921 21.3964 31.4556 21.3753C32.9192 21.3578 34.3721 21.6243 35.7332 22.1645C37.0942 22.7046 38.3315 23.5042 39.3779 24.5178L32.6611 18.0189C31.2294 16.637 30.0239 15.0412 29.0942 13.2876C24.7495 13.8417 20.723 15.8409 17.6686 18.9588L0 36.9265Z" fill="url(#paint2_linear)"/>
<path d="M39.6926 40.0305L46.2079 33.4088C47.576 32.0129 49.1527 30.8379 50.8813 29.9226C50.3263 25.6683 48.3502 21.7226 45.2711 18.7134L27.1641 1.18408C26.9803 2.29939 26.8955 3.42873 26.9096 4.55806C26.9308 7.60236 27.6803 10.5941 29.0978 13.2946C30.0276 15.0483 31.2331 16.6441 32.6648 18.0259L39.378 24.5249C41.4708 26.5521 42.6798 29.3123 42.7399 32.2163C42.7965 35.1133 41.7041 37.9226 39.6926 40.0305Z" fill="url(#paint3_linear)"/>
</g>
<defs>
<linearGradient id="paint0_linear" x1="66.3226" y1="22.1137" x2="36.1989" y2="42.7371" gradientUnits="userSpaceOnUse">
<stop stop-color="#C906F9"/>
<stop offset="0.4483" stop-color="#A803FC"/>
<stop offset="0.8625" stop-color="#8700FF"/>
</linearGradient>
<linearGradient id="paint1_linear" x1="28.0689" y1="35.1364" x2="20.8156" y2="62.7028" gradientUnits="userSpaceOnUse">
<stop stop-color="#0044FF"/>
<stop offset="0.4896" stop-color="#0087FF"/>
<stop offset="1" stop-color="#00CAFF"/>
</linearGradient>
<linearGradient id="paint2_linear" x1="4.71969" y1="22.1442" x2="19.7671" y2="26.7531" gradientUnits="userSpaceOnUse">
<stop stop-color="#B0FF33"/>
<stop offset="0.4948" stop-color="#55DF20"/>
<stop offset="1" stop-color="#0AC222"/>
</linearGradient>
<linearGradient id="paint3_linear" x1="22.975" y1="23.0708" x2="48.4369" y2="16.9753" gradientUnits="userSpaceOnUse">
<stop stop-color="#FF8100"/>
<stop offset="0.0001" stop-color="#FF8100"/>
<stop offset="0.5" stop-color="#FF5D00"/>
<stop offset="1" stop-color="#FF3600"/>
</linearGradient>
<clipPath id="clip0">
<rect width="327" height="65" fill="white"/>
</clipPath>
</defs>
</svg>
