<svg width="1382" height="740" viewBox="0 0 1382 740" fill="none" xmlns="http://www.w3.org/2000/svg">
    <path d="M1040.24 676.975H1047.7C1051.62 676.975 1053.71 674.929 1053.71 672.151C1053.71 669.568 1051.86 668.009 1049.87 667.915V667.744C1051.69 667.335 1053.03 666.048 1053.03 663.994C1053.03 661.378 1051.08 659.52 1047.23 659.52H1040.24V676.975ZM1043.93 673.958V669.321H1047.03C1048.8 669.321 1049.9 670.344 1049.9 671.784C1049.9 673.097 1049 673.958 1046.94 673.958H1043.93ZM1043.93 666.824V662.503H1046.74C1048.37 662.503 1049.3 663.347 1049.3 664.608C1049.3 665.989 1048.18 666.824 1046.67 666.824H1043.93ZM1056.04 676.975H1059.67V669.568C1059.67 667.958 1060.85 666.85 1062.45 666.85C1062.95 666.85 1063.64 666.935 1063.98 667.046V663.824C1063.66 663.747 1063.21 663.696 1062.84 663.696C1061.38 663.696 1060.17 664.548 1059.7 666.168H1059.56V663.884H1056.04V676.975ZM1069.22 677.222C1071.15 677.222 1072.41 676.378 1073.05 675.159H1073.15V676.975H1076.59V668.145C1076.59 665.026 1073.95 663.713 1071.03 663.713C1067.9 663.713 1065.84 665.213 1065.33 667.6L1068.69 667.872C1068.94 667.003 1069.71 666.364 1071.02 666.364C1072.25 666.364 1072.96 666.986 1072.96 668.06V668.111C1072.96 668.955 1072.07 669.066 1069.79 669.287C1067.2 669.526 1064.87 670.395 1064.87 673.318C1064.87 675.909 1066.72 677.222 1069.22 677.222ZM1070.26 674.716C1069.14 674.716 1068.34 674.196 1068.34 673.199C1068.34 672.176 1069.19 671.673 1070.46 671.494C1071.26 671.384 1072.55 671.196 1072.99 670.906V672.296C1072.99 673.668 1071.85 674.716 1070.26 674.716ZM1091.14 663.884H1087.3L1084.59 673.25H1084.45L1081.74 663.884H1077.9L1082.48 676.975H1086.57L1091.14 663.884ZM1098.52 677.23C1101.76 677.23 1103.94 675.654 1104.45 673.225L1101.1 673.003C1100.73 674 1099.79 674.52 1098.58 674.52C1096.77 674.52 1095.62 673.318 1095.62 671.367V671.358H1104.53V670.361C1104.53 665.912 1101.84 663.713 1098.38 663.713C1094.53 663.713 1092.03 666.449 1092.03 670.489C1092.03 674.639 1094.49 677.23 1098.52 677.23ZM1095.62 669.108C1095.69 667.617 1096.83 666.423 1098.44 666.423C1100.01 666.423 1101.11 667.548 1101.11 669.108H1095.62Z" fill="white" />
    <g filter="url(#filter0_d)">
        <circle cx="1072.58" cy="544.815" r="68.5819" fill="white" />
        <path d="M1099.58 536.491L1097.61 531.128L1098.98 528.05C1099.07 527.856 1099.09 527.64 1099.05 527.431C1099.02 527.222 1098.91 527.03 1098.76 526.879L1095.03 523.105C1094.23 522.291 1093.22 521.722 1092.1 521.464C1090.99 521.206 1089.83 521.269 1088.75 521.646L1087.71 522.01L1082.01 515.83L1072.33 515.776H1072.27L1062.54 515.853L1056.84 522.081L1055.82 521.722C1054.74 521.341 1053.57 521.277 1052.45 521.538C1051.33 521.798 1050.31 522.373 1049.5 523.194L1045.7 527.04C1045.59 527.16 1045.5 527.314 1045.47 527.481C1045.44 527.647 1045.46 527.819 1045.53 527.974L1046.96 531.169L1045 536.527L1046.27 541.36L1052.06 563.385C1052.73 565.923 1054.26 568.146 1056.4 569.668C1056.4 569.668 1063.43 574.627 1070.36 579.132C1070.91 579.57 1071.59 579.809 1072.3 579.809C1073 579.809 1073.68 579.57 1074.23 579.132C1082.02 574.026 1088.18 569.65 1088.18 569.65C1090.32 568.127 1091.85 565.904 1092.52 563.367L1098.28 541.333L1099.58 536.491Z" fill="url(#paint0_linear)" />
        <path d="M1073.88 555.47C1073.51 555.304 1073.13 555.166 1072.74 555.057H1072.06C1071.67 555.166 1071.29 555.304 1070.92 555.47L1069.19 556.188C1068.64 556.416 1067.76 556.825 1067.24 557.085L1064.06 558.741C1063.95 558.778 1063.85 558.849 1063.77 558.945C1063.7 559.04 1063.65 559.156 1063.65 559.276C1063.64 559.397 1063.67 559.517 1063.73 559.622C1063.79 559.726 1063.88 559.81 1063.99 559.863L1066.75 561.811C1067.23 562.152 1067.99 562.753 1068.44 563.157L1069.22 563.826C1069.67 564.212 1070.4 564.853 1070.84 565.248L1071.58 565.899C1071.81 566.089 1072.09 566.192 1072.39 566.192C1072.68 566.192 1072.97 566.089 1073.2 565.899L1073.97 565.226L1075.59 563.808L1076.37 563.126C1076.82 562.735 1077.58 562.134 1078.06 561.779L1080.82 559.805C1080.93 559.752 1081.02 559.668 1081.08 559.563C1081.14 559.458 1081.17 559.338 1081.16 559.217C1081.15 559.096 1081.11 558.981 1081.03 558.886C1080.96 558.792 1080.85 558.722 1080.74 558.687L1077.57 557.076C1077.04 556.807 1076.16 556.403 1075.61 556.179L1073.88 555.47Z" fill="white" />
        <path d="M1093.44 537.689L1093.53 537.402C1093.54 537.018 1093.51 536.634 1093.46 536.253C1093.19 535.573 1092.85 534.926 1092.44 534.323L1090.64 531.689C1090.31 531.196 1089.75 530.415 1089.37 529.953L1086.96 526.942C1086.74 526.648 1086.5 526.369 1086.25 526.107H1086.2C1086.2 526.107 1085.71 526.192 1085.13 526.304L1081.46 527.013L1079.85 527.323C1079.31 527.348 1078.78 527.27 1078.27 527.094L1075.37 526.156C1074.8 525.972 1073.87 525.707 1073.29 525.582C1072.68 525.517 1072.07 525.517 1071.46 525.582C1070.88 525.716 1069.95 525.977 1069.38 526.161L1066.48 527.103C1065.97 527.279 1065.44 527.357 1064.9 527.332L1063.29 527.027L1059.61 526.322C1059.03 526.21 1058.55 526.12 1058.55 526.125H1058.5C1058.24 526.387 1058 526.666 1057.78 526.959L1055.38 529.971C1055.02 530.419 1054.44 531.218 1054.11 531.707L1052.31 534.341C1052 534.796 1051.72 535.268 1051.46 535.755C1051.31 536.298 1051.23 536.86 1051.22 537.424L1051.31 537.711C1051.35 537.896 1051.41 538.077 1051.48 538.254C1051.85 538.703 1052.49 539.448 1052.89 539.883L1059.17 546.561C1059.38 546.804 1059.52 547.099 1059.58 547.415C1059.63 547.73 1059.61 548.055 1059.49 548.356L1058.47 550.792C1058.23 551.438 1058.21 552.142 1058.42 552.798L1058.62 553.364C1058.96 554.282 1059.54 555.093 1060.3 555.711L1061.28 556.514C1061.54 556.699 1061.84 556.816 1062.15 556.853C1062.47 556.891 1062.78 556.848 1063.08 556.729L1066.59 555.055C1067.23 554.733 1067.83 554.334 1068.38 553.866L1071.19 551.331C1071.3 551.23 1071.39 551.107 1071.45 550.971C1071.52 550.834 1071.55 550.686 1071.56 550.535C1071.56 550.385 1071.54 550.235 1071.49 550.094C1071.43 549.953 1071.35 549.824 1071.25 549.715L1064.91 545.443C1064.67 545.273 1064.5 545.022 1064.43 544.736C1064.36 544.451 1064.39 544.149 1064.52 543.886L1066.98 539.264C1067.12 538.981 1067.2 538.673 1067.22 538.358C1067.24 538.044 1067.2 537.728 1067.1 537.429C1066.8 536.859 1066.3 536.412 1065.71 536.163L1058 533.251C1057.44 533.04 1057.47 532.802 1058.06 532.766L1062.59 532.318C1063.3 532.272 1064.01 532.336 1064.7 532.506L1068.64 533.605C1068.92 533.69 1069.16 533.873 1069.31 534.12C1069.47 534.368 1069.53 534.663 1069.48 534.952L1067.94 543.406C1067.83 543.874 1067.81 544.356 1067.86 544.833C1067.92 545.035 1068.45 545.282 1069.03 545.425L1071.43 545.937C1072.13 546.065 1072.84 546.065 1073.54 545.937L1075.7 545.448C1076.28 545.318 1076.8 545.044 1076.87 544.842C1076.92 544.365 1076.89 543.883 1076.79 543.415L1075.23 534.961C1075.18 534.672 1075.24 534.377 1075.4 534.129C1075.55 533.882 1075.79 533.699 1076.07 533.614L1080.01 532.51C1080.7 532.34 1081.42 532.277 1082.13 532.322L1086.65 532.744C1087.24 532.798 1087.27 533.018 1086.72 533.228L1079.02 536.15C1078.42 536.398 1077.93 536.845 1077.62 537.415C1077.42 538.019 1077.46 538.679 1077.74 539.251L1080.21 543.873C1080.34 544.135 1080.37 544.437 1080.3 544.723C1080.23 545.009 1080.06 545.26 1079.82 545.43L1073.48 549.711C1073.38 549.82 1073.3 549.948 1073.25 550.089C1073.19 550.23 1073.17 550.38 1073.17 550.531C1073.18 550.682 1073.21 550.83 1073.28 550.966C1073.34 551.103 1073.43 551.225 1073.54 551.326L1076.36 553.862C1076.9 554.328 1077.51 554.725 1078.15 555.047L1081.66 556.716C1081.95 556.834 1082.27 556.876 1082.58 556.838C1082.9 556.799 1083.2 556.682 1083.45 556.496L1084.44 555.688C1085.2 555.069 1085.78 554.257 1086.11 553.337L1086.32 552.771C1086.52 552.115 1086.5 551.411 1086.27 550.765L1085.24 548.329C1085.13 548.028 1085.1 547.703 1085.15 547.388C1085.21 547.072 1085.35 546.777 1085.56 546.534L1091.84 539.847C1092.25 539.399 1092.88 538.681 1093.25 538.219C1093.33 538.046 1093.39 537.87 1093.44 537.689Z" fill="white" />
    </g>
    <g filter="url(#filter1_d)">
        <circle cx="346.187" cy="241.187" r="68.1871" fill="white" />
        <circle cx="346" cy="241" r="68" fill="white" />
        <path d="M365.406 249.933C363.097 248.638 360.493 248.262 357.917 248.173C355.768 248.101 352.529 246.756 352.529 242.934C352.529 240.085 354.905 237.794 357.917 237.693C360.496 237.606 363.097 237.228 365.406 235.933C367.481 234.769 369.204 233.095 370.402 231.08C371.6 229.064 372.231 226.777 372.231 224.449C372.231 222.121 371.6 219.835 370.403 217.819C369.205 215.803 367.482 214.129 365.407 212.965C363.332 211.801 360.979 211.188 358.583 211.188C356.187 211.189 353.833 211.802 351.759 212.966C349.684 214.13 347.961 215.804 346.764 217.82C345.566 219.836 344.936 222.123 344.936 224.451C344.936 227.019 345.876 229.385 347.086 231.578C348.096 233.421 348.621 236.843 345.145 238.785C342.569 240.229 339.358 239.316 337.752 236.819C336.395 234.71 334.758 232.735 332.468 231.449C330.393 230.286 328.04 229.674 325.645 229.674C323.249 229.675 320.896 230.288 318.822 231.452C316.748 232.616 315.025 234.289 313.828 236.305C312.63 238.321 312 240.607 312 242.934C312 245.262 312.63 247.548 313.828 249.564C315.025 251.579 316.748 253.253 318.822 254.417C320.896 255.581 323.249 256.194 325.645 256.194C328.04 256.195 330.393 255.583 332.468 254.419C334.758 253.134 336.395 251.159 337.749 249.05C338.863 247.32 341.642 245.115 345.145 247.081C347.715 248.525 348.522 251.687 347.086 254.291C345.885 256.484 344.936 258.846 344.936 261.415C344.936 263.743 345.566 266.03 346.764 268.046C347.961 270.062 349.684 271.736 351.759 272.9C353.833 274.064 356.187 274.677 358.583 274.677C360.979 274.677 363.332 274.065 365.407 272.901C367.482 271.737 369.205 270.063 370.403 268.047C371.6 266.031 372.231 263.744 372.231 261.417C372.231 259.089 371.6 256.802 370.402 254.786C369.204 252.77 367.481 251.096 365.406 249.933Z" fill="url(#paint1_linear)" />
    </g>
    <path d="M311.124 359.945H314.814V353.758H317.507L320.814 359.945H324.888L321.18 353.161C323.166 352.309 324.266 350.579 324.266 348.192C324.266 344.724 321.973 342.491 318.01 342.491H311.124V359.945ZM314.814 350.792V345.508H317.303C319.433 345.508 320.464 346.454 320.464 348.192C320.464 349.923 319.433 350.792 317.32 350.792H314.814ZM326.805 359.945H330.436V346.854H326.805V359.945ZM328.629 345.167C329.712 345.167 330.598 344.34 330.598 343.326C330.598 342.32 329.712 341.494 328.629 341.494C327.555 341.494 326.669 342.32 326.669 343.326C326.669 344.34 327.555 345.167 328.629 345.167ZM333.344 364.854H336.975V357.849H337.086C337.589 358.94 338.688 360.158 340.802 360.158C343.785 360.158 346.111 357.798 346.111 353.417C346.111 348.917 343.683 346.684 340.81 346.684C338.62 346.684 337.572 347.988 337.086 349.053H336.924V346.854H333.344V364.854ZM336.898 353.4C336.898 351.065 337.887 349.573 339.651 349.573C341.45 349.573 342.404 351.133 342.404 353.4C342.404 355.684 341.433 357.269 339.651 357.269C337.904 357.269 336.898 355.735 336.898 353.4ZM348.532 364.854H352.163V357.849H352.273C352.776 358.94 353.876 360.158 355.989 360.158C358.972 360.158 361.299 357.798 361.299 353.417C361.299 348.917 358.87 346.684 355.998 346.684C353.808 346.684 352.759 347.988 352.273 349.053H352.111V346.854H348.532V364.854ZM352.086 353.4C352.086 351.065 353.075 349.573 354.839 349.573C356.637 349.573 357.592 351.133 357.592 353.4C357.592 355.684 356.62 357.269 354.839 357.269C353.092 357.269 352.086 355.735 352.086 353.4ZM367.35 342.491H363.719V359.945H367.35V342.491ZM376.224 360.201C379.463 360.201 381.645 358.624 382.156 356.195L378.798 355.974C378.432 356.971 377.494 357.491 376.284 357.491C374.469 357.491 373.318 356.289 373.318 354.337V354.329H382.233V353.332C382.233 348.883 379.54 346.684 376.08 346.684C372.227 346.684 369.73 349.42 369.73 353.46C369.73 357.61 372.193 360.201 376.224 360.201ZM373.318 352.079C373.395 350.587 374.528 349.394 376.139 349.394C377.716 349.394 378.807 350.519 378.815 352.079H373.318Z" fill="white" />
    <path d="M437.637 610.092H445.094C449.015 610.092 451.103 608.046 451.103 605.268C451.103 602.686 449.253 601.126 447.268 601.032V600.862C449.083 600.453 450.421 599.166 450.421 597.112C450.421 594.495 448.478 592.637 444.626 592.637H437.637V610.092ZM441.327 607.075V602.438H444.421C446.194 602.438 447.293 603.461 447.293 604.901C447.293 606.214 446.398 607.075 444.336 607.075H441.327ZM441.327 599.941V595.62H444.131C445.768 595.62 446.697 596.464 446.697 597.725C446.697 599.106 445.572 599.941 444.063 599.941H441.327ZM457.067 592.637H453.436V610.092H457.067V592.637ZM465.89 610.347C469.861 610.347 472.333 607.629 472.333 603.597C472.333 599.541 469.861 596.83 465.89 596.83C461.918 596.83 459.447 599.541 459.447 603.597C459.447 607.629 461.918 610.347 465.89 610.347ZM465.907 607.535C464.074 607.535 463.137 605.856 463.137 603.572C463.137 601.288 464.074 599.6 465.907 599.6C467.705 599.6 468.643 601.288 468.643 603.572C468.643 605.856 467.705 607.535 465.907 607.535ZM480.608 610.347C484.094 610.347 486.285 608.302 486.455 605.294H483.029C482.816 606.691 481.895 607.475 480.651 607.475C478.955 607.475 477.856 606.052 477.856 603.546C477.856 601.075 478.964 599.66 480.651 599.66C481.981 599.66 482.833 600.538 483.029 601.842H486.455C486.302 598.816 484.009 596.83 480.591 596.83C476.62 596.83 474.165 599.583 474.165 603.597C474.165 607.578 476.577 610.347 480.608 610.347ZM488.78 610.092H492.41V605.933L493.39 604.816L496.961 610.092H501.214L496.109 602.669L500.967 597.001H496.8L492.606 601.97H492.41V592.637H488.78V610.092ZM508.124 610.347C511.61 610.347 513.8 608.302 513.971 605.294H510.545C510.331 606.691 509.411 607.475 508.167 607.475C506.471 607.475 505.371 606.052 505.371 603.546C505.371 601.075 506.479 599.66 508.167 599.66C509.496 599.66 510.349 600.538 510.545 601.842H513.971C513.817 598.816 511.525 596.83 508.107 596.83C504.135 596.83 501.681 599.583 501.681 603.597C501.681 607.578 504.093 610.347 508.124 610.347ZM519.926 602.524C519.934 600.836 520.966 599.847 522.449 599.847C523.923 599.847 524.792 600.794 524.784 602.404V610.092H528.415V601.757C528.423 598.688 526.616 596.83 523.889 596.83C521.903 596.83 520.574 597.768 519.977 599.311H519.824V592.637H516.295V610.092H519.926V602.524ZM535.005 610.339C536.939 610.339 538.192 609.495 538.831 608.276H538.934V610.092H542.377V601.262C542.377 598.143 539.735 596.83 536.82 596.83C533.684 596.83 531.621 598.33 531.118 600.717L534.476 600.99C534.724 600.12 535.499 599.481 536.803 599.481C538.039 599.481 538.746 600.103 538.746 601.177V601.228C538.746 602.072 537.851 602.183 535.576 602.404C532.985 602.643 530.658 603.512 530.658 606.436C530.658 609.026 532.508 610.339 535.005 610.339ZM536.045 607.833C534.928 607.833 534.127 607.313 534.127 606.316C534.127 605.294 534.971 604.791 536.249 604.612C537.042 604.501 538.337 604.313 538.772 604.024V605.413C538.772 606.785 537.638 607.833 536.045 607.833ZM545.194 610.092H548.824V597.001H545.194V610.092ZM547.018 595.313C548.1 595.313 548.986 594.487 548.986 593.472C548.986 592.467 548.1 591.64 547.018 591.64C545.944 591.64 545.057 592.467 545.057 593.472C545.057 594.487 545.944 595.313 547.018 595.313ZM555.363 602.524C555.372 600.836 556.378 599.847 557.844 599.847C559.301 599.847 560.179 600.802 560.17 602.404V610.092H563.801V601.757C563.801 598.705 562.011 596.83 559.284 596.83C557.341 596.83 555.934 597.785 555.346 599.311H555.193V597.001H551.733V610.092H555.363V602.524ZM568.785 610.313C569.875 610.313 570.822 609.401 570.83 608.268C570.822 607.151 569.875 606.24 568.785 606.24C567.66 606.24 566.731 607.151 566.739 608.268C566.731 609.401 567.66 610.313 568.785 610.313ZM579.726 610.347C583.211 610.347 585.402 608.302 585.572 605.294H582.146C581.933 606.691 581.013 607.475 579.768 607.475C578.072 607.475 576.973 606.052 576.973 603.546C576.973 601.075 578.081 599.66 579.768 599.66C581.098 599.66 581.95 600.538 582.146 601.842H585.572C585.419 598.816 583.126 596.83 579.709 596.83C575.737 596.83 573.282 599.583 573.282 603.597C573.282 607.578 575.694 610.347 579.726 610.347ZM593.812 610.347C597.783 610.347 600.255 607.629 600.255 603.597C600.255 599.541 597.783 596.83 593.812 596.83C589.84 596.83 587.368 599.541 587.368 603.597C587.368 607.629 589.84 610.347 593.812 610.347ZM593.829 607.535C591.996 607.535 591.059 605.856 591.059 603.572C591.059 601.288 591.996 599.6 593.829 599.6C595.627 599.6 596.564 601.288 596.564 603.572C596.564 605.856 595.627 607.535 593.829 607.535ZM602.616 610.092H606.246V602.234C606.246 600.785 607.167 599.822 608.377 599.822C609.57 599.822 610.371 600.64 610.371 601.927V610.092H613.891V602.097C613.891 600.742 614.667 599.822 615.988 599.822C617.147 599.822 618.016 600.546 618.016 602.004V610.092H621.638V601.288C621.638 598.45 619.951 596.83 617.513 596.83C615.596 596.83 614.104 597.811 613.567 599.311H613.431C613.013 597.794 611.675 596.83 609.877 596.83C608.113 596.83 606.775 597.768 606.229 599.311H606.076V597.001H602.616V610.092Z" fill="white" />
    <g filter="url(#filter2_d)">
        <circle cx="529.418" cy="476.651" r="69.4177" fill="white" />
    </g>
    <path d="M503.305 468.532L500.476 471.361C499.693 472.113 499.07 473.016 498.645 474.014C498.219 475.013 498 476.088 498 477.173C498 478.259 498.219 479.334 498.645 480.333C499.07 481.331 499.693 482.234 500.476 482.986L523.265 506C523.805 506.552 524.434 507.011 525.125 507.356V479.46L503.305 468.532Z" fill="#3D89F5" />
    <path d="M554.695 468.532L557.524 471.361C558.307 472.113 558.93 473.016 559.355 474.014C559.781 475.013 560 476.088 560 477.173C560 478.259 559.781 479.334 559.355 480.333C558.93 481.331 558.307 482.234 557.524 482.986L534.735 506C534.195 506.552 533.566 507.011 532.875 507.356V479.46L554.695 468.532Z" fill="#1656B9" />
    <path d="M549.225 462.758L534.965 448.459C534.21 447.681 533.307 447.063 532.308 446.64C531.31 446.218 530.236 446 529.152 446C528.068 446 526.995 446.218 525.997 446.64C524.998 447.063 524.095 447.681 523.34 448.459L509.041 462.758L529.075 472.755L549.225 462.758Z" fill="#85B5F8" />
    <path d="M904.404 364.508H908.094V357.298H915.194V354.255H908.094V350.096H915.961V347.053H904.404V364.508ZM922.005 347.053H918.375V364.508H922.005V347.053ZM933.309 358.934C933.317 360.69 932.115 361.61 930.811 361.61C929.439 361.61 928.553 360.647 928.544 359.104V351.417H924.914V359.752C924.922 362.812 926.712 364.678 929.346 364.678C931.314 364.678 932.729 363.664 933.317 362.13H933.453V364.508H936.939V351.417H933.309V358.934ZM946.806 351.417H944.343V348.281H940.713V351.417H938.923V354.144H940.713V360.962C940.696 363.528 942.443 364.798 945.076 364.687C946.014 364.653 946.679 364.465 947.045 364.346L946.474 361.644C946.295 361.678 945.912 361.763 945.571 361.763C944.846 361.763 944.343 361.491 944.343 360.485V354.144H946.806V351.417ZM956.135 351.417H953.672V348.281H950.041V351.417H948.251V354.144H950.041V360.962C950.024 363.528 951.771 364.798 954.404 364.687C955.342 364.653 956.007 364.465 956.373 364.346L955.802 361.644C955.623 361.678 955.24 361.763 954.899 361.763C954.174 361.763 953.672 361.491 953.672 360.485V354.144H956.135V351.417ZM964.325 364.763C967.564 364.763 969.745 363.187 970.257 360.758L966.899 360.536C966.532 361.533 965.595 362.053 964.385 362.053C962.569 362.053 961.419 360.852 961.419 358.9V358.891H970.333V357.894C970.333 353.445 967.64 351.246 964.18 351.246C960.328 351.246 957.831 353.982 957.831 358.022C957.831 362.173 960.294 364.763 964.325 364.763ZM961.419 356.641C961.495 355.15 962.629 353.957 964.24 353.957C965.816 353.957 966.907 355.082 966.916 356.641H961.419ZM972.703 364.508H976.333V357.102C976.333 355.491 977.51 354.383 979.112 354.383C979.615 354.383 980.305 354.468 980.646 354.579V351.357C980.322 351.281 979.87 351.229 979.504 351.229C978.038 351.229 976.836 352.082 976.359 353.701H976.223V351.417H972.703V364.508ZM985.316 364.508H989.152L991.402 356.275H991.564L993.814 364.508H997.657L1001.21 351.417H997.547L995.552 360.161H995.441L993.294 351.417H989.689L987.575 360.212H987.456L985.427 351.417H981.754L985.316 364.508ZM1006.88 364.755C1008.82 364.755 1010.07 363.911 1010.71 362.692H1010.81V364.508H1014.25V355.678C1014.25 352.559 1011.61 351.246 1008.7 351.246C1005.56 351.246 1003.5 352.746 1002.99 355.133L1006.35 355.406C1006.6 354.536 1007.38 353.897 1008.68 353.897C1009.92 353.897 1010.62 354.519 1010.62 355.593V355.644C1010.62 356.488 1009.73 356.599 1007.45 356.82C1004.86 357.059 1002.53 357.928 1002.53 360.852C1002.53 363.442 1004.38 364.755 1006.88 364.755ZM1007.92 362.249C1006.8 362.249 1006 361.729 1006 360.732C1006 359.71 1006.85 359.207 1008.13 359.028C1008.92 358.917 1010.21 358.729 1010.65 358.44V359.829C1010.65 361.201 1009.51 362.249 1007.92 362.249ZM1028.81 351.417H1024.96L1022.25 360.783H1022.12L1019.4 351.417H1015.56L1020.14 364.508H1024.23L1028.81 351.417ZM1036.18 364.763C1039.42 364.763 1041.6 363.187 1042.12 360.758L1038.76 360.536C1038.39 361.533 1037.45 362.053 1036.24 362.053C1034.43 362.053 1033.28 360.852 1033.28 358.9V358.891H1042.19V357.894C1042.19 353.445 1039.5 351.246 1036.04 351.246C1032.19 351.246 1029.69 353.982 1029.69 358.022C1029.69 362.173 1032.15 364.763 1036.18 364.763ZM1033.28 356.641C1033.35 355.15 1034.49 353.957 1036.1 353.957C1037.68 353.957 1038.77 355.082 1038.78 356.641H1033.28Z" fill="white" />
    <g filter="url(#filter3_d)">
        <circle cx="973.318" cy="227.552" r="71.3185" fill="white" />
    </g>
    <path d="M976.325 198.907C982.515 196.158 989.35 194.653 996.132 195.16C999.072 195.379 1002.56 196.521 1003.56 199.617C1004.53 203.215 1002.86 206.829 1001.21 209.951C998.069 215.423 993.918 220.344 989.014 224.31C994.179 228.767 999.361 233.459 1002.72 239.496C1004.79 243.281 1006.55 247.562 1006.05 251.966C1005.81 254.736 1003.81 257.165 1001.22 258.104C996.506 259.903 991.244 258.974 986.666 257.213C976.309 253.145 967.451 245.566 961.347 236.31C959.484 236.166 957.638 235.909 955.808 235.541C958.887 244.386 960.85 253.855 959.874 263.245C959.191 245.891 951.107 229.675 940.237 216.453C938.775 214.926 938.775 212.487 939.384 210.613C940.968 209.866 942.558 210.96 943.535 212.161C946.294 215.556 948.321 219.453 950.6 223.168C952.062 218.903 954.559 215.038 957.675 211.803C962.883 206.236 969.388 201.998 976.325 198.907ZM984.745 200.386C976.81 203.418 969.714 208.521 963.993 214.766C966.741 214.691 969.527 214.761 972.189 215.535C976.202 216.431 979.676 218.684 983.363 220.371C985.748 219.196 987.536 217.12 989.419 215.289C992.44 212.017 995.508 208.563 997.071 204.33C997.765 202.66 997.674 200.21 995.721 199.468C992.146 198.144 988.235 199.307 984.745 200.386ZM962.195 219.666C960.605 220.179 959.655 221.929 960.146 223.541C960.818 225.613 963.076 226.755 965.162 226.691C969.223 226.734 973.235 225.57 976.89 223.867C976.688 222.986 975.61 222.794 974.964 222.324C971.112 220.333 966.571 218.236 962.195 219.666ZM982.707 228.831C977.616 231.933 972.104 234.377 966.272 235.717C971.656 241.776 978.294 246.996 986.063 249.574C988.571 250.306 991.522 251.154 993.934 249.692C995.887 248.485 995.556 245.816 994.996 243.927C993.197 238.231 989.137 233.619 984.916 229.541C984.308 229.045 983.507 228.084 982.707 228.831Z" fill="#F2B82D" />
    <g filter="url(#filter4_d)">
        <circle cx="656.957" cy="245.957" r="119.957" fill="white" />
    </g>
    <path d="M593.861 209.091H586.923L578.281 214.562V221.108L586.276 216.097H586.48V244H593.861V209.091ZM602.158 244H627.044V237.966H612.385V237.727L617.482 232.733C624.658 226.188 626.584 222.915 626.584 218.943C626.584 212.892 621.641 208.614 614.158 208.614C606.828 208.614 601.8 212.994 601.817 219.847H608.822C608.805 216.506 610.919 214.46 614.107 214.46C617.175 214.46 619.459 216.369 619.459 219.438C619.459 222.216 617.754 224.125 614.584 227.176L602.158 238.682V244ZM646.08 244.767C654.858 244.767 660.159 238.085 660.176 226.58C660.193 215.159 654.824 208.614 646.08 208.614C637.318 208.614 632 215.142 631.983 226.58C631.949 238.051 637.284 244.75 646.08 244.767ZM646.08 238.648C642.074 238.648 639.483 234.625 639.5 226.58C639.517 218.653 642.091 214.665 646.08 214.665C650.051 214.665 652.642 218.653 652.642 226.58C652.659 234.625 650.068 238.648 646.08 238.648ZM665.643 209.091V244H672.803V221.193H673.092L682.126 243.83H687.001L696.035 221.278H696.325V244H703.484V209.091H694.382L684.768 232.545H684.359L674.746 209.091H665.643ZM719.793 238.682H725.895V229.665H734.912V223.562H725.895V214.545H719.793V223.562H710.776V229.665H719.793V238.682Z" fill="url(#paint2_linear)" />
    <path d="M628.525 282.033C628.536 284.227 627.034 285.378 625.404 285.378C623.689 285.378 622.581 284.174 622.57 282.246V272.636H618.032V283.055C618.042 286.88 620.28 289.213 623.572 289.213C626.032 289.213 627.801 287.945 628.536 286.028H628.706V289H633.064V272.636H628.525V282.033ZM650.309 277.303C649.904 274.288 647.475 272.423 643.342 272.423C639.155 272.423 636.396 274.362 636.406 277.516C636.396 279.966 637.94 281.553 641.136 282.192L643.97 282.757C645.398 283.045 646.048 283.567 646.069 284.387C646.048 285.357 644.993 286.049 643.406 286.049C641.786 286.049 640.71 285.357 640.433 284.025L635.969 284.259C636.396 287.391 639.059 289.32 643.395 289.32C647.635 289.32 650.671 287.157 650.682 283.929C650.671 281.564 649.126 280.147 645.952 279.497L642.99 278.901C641.467 278.57 640.902 278.048 640.913 277.26C640.902 276.28 642.01 275.641 643.416 275.641C644.993 275.641 645.93 276.504 646.154 277.558L650.309 277.303ZM660.997 289.32C665.045 289.32 667.773 287.349 668.412 284.312L664.214 284.036C663.756 285.282 662.584 285.932 661.072 285.932C658.802 285.932 657.364 284.43 657.364 281.99V281.979H668.508V280.733C668.508 275.172 665.141 272.423 660.816 272.423C656.001 272.423 652.879 275.843 652.879 280.893C652.879 286.081 655.958 289.32 660.997 289.32ZM657.364 279.167C657.46 277.303 658.877 275.811 660.89 275.811C662.861 275.811 664.225 277.217 664.236 279.167H657.364ZM671.469 289H676.008V279.742C676.008 277.729 677.478 276.344 679.481 276.344C680.109 276.344 680.972 276.45 681.398 276.589V272.562C680.993 272.466 680.429 272.402 679.971 272.402C678.138 272.402 676.636 273.467 676.04 275.491H675.869V272.636H671.469V289ZM697.36 277.303C696.955 274.288 694.526 272.423 690.392 272.423C686.206 272.423 683.446 274.362 683.457 277.516C683.446 279.966 684.991 281.553 688.187 282.192L691.021 282.757C692.448 283.045 693.098 283.567 693.12 284.387C693.098 285.357 692.044 286.049 690.456 286.049C688.837 286.049 687.761 285.357 687.484 284.025L683.02 284.259C683.446 287.391 686.11 289.32 690.446 289.32C694.686 289.32 697.722 287.157 697.733 283.929C697.722 281.564 696.177 280.147 693.002 279.497L690.041 278.901C688.517 278.57 687.953 278.048 687.963 277.26C687.953 276.28 689.061 275.641 690.467 275.641C692.044 275.641 692.981 276.504 693.205 277.558L697.36 277.303Z" fill="#000E33" />
    <g filter="url(#filter5_d)">
        <circle cx="236.553" cy="545.324" r="92.0902" fill="white" />
    </g>
    <path d="M198.271 540.331H210.837V544.934H216.13V540.331H219.377V535.895H216.13V518.752H209.201L198.271 535.972V540.331ZM210.94 535.895H203.844V535.691L210.735 524.786H210.94V535.895ZM234.52 517.525H229.828L221.391 548.871H226.082L234.52 517.525ZM248.483 518.752H243.28L236.799 522.855V527.765L242.794 524.006H242.948V544.934H248.483V518.752ZM264.972 545.509C271.555 545.509 275.531 540.498 275.544 531.868C275.557 523.303 271.53 518.394 264.972 518.394C258.401 518.394 254.412 523.29 254.399 531.868C254.374 540.472 258.375 545.496 264.972 545.509ZM264.972 540.919C261.967 540.919 260.024 537.902 260.037 531.868C260.05 525.924 261.98 522.932 264.972 522.932C267.95 522.932 269.893 525.924 269.893 531.868C269.906 537.902 267.963 540.919 264.972 540.919Z" fill="url(#paint3_linear)" />
    <path d="M178.967 562.115H177.031V559.763H174.717V562.115H173.323V563.905H174.717V569.364C174.704 571.211 176.046 572.119 177.785 572.068C178.443 572.049 178.897 571.921 179.146 571.838L178.756 570.029C178.629 570.061 178.367 570.118 178.079 570.118C177.497 570.118 177.031 569.914 177.031 568.98V563.905H178.967V562.115ZM185.08 572.125C187.956 572.125 189.784 570.099 189.784 567.063C189.784 564.02 187.956 561.988 185.08 561.988C182.203 561.988 180.375 564.02 180.375 567.063C180.375 570.099 182.203 572.125 185.08 572.125ZM185.093 570.272C183.501 570.272 182.721 568.853 182.721 567.056C182.721 565.26 183.501 563.822 185.093 563.822C186.659 563.822 187.438 565.26 187.438 567.056C187.438 568.853 186.659 570.272 185.093 570.272ZM191.748 575.615H194.062V570.387H194.158C194.522 571.103 195.283 572.106 196.971 572.106C199.285 572.106 201.017 570.272 201.017 567.037C201.017 563.765 199.233 561.988 196.964 561.988C195.232 561.988 194.51 563.029 194.158 563.739H194.024V562.115H191.748V575.615ZM194.017 567.025C194.017 565.12 194.836 563.886 196.325 563.886C197.865 563.886 198.658 565.196 198.658 567.025C198.658 568.865 197.853 570.208 196.325 570.208C194.848 570.208 194.017 568.929 194.017 567.025ZM211.81 572.125C214.098 572.125 215.671 571.007 216.08 569.3L213.919 569.057C213.606 569.888 212.839 570.323 211.842 570.323C210.346 570.323 209.355 569.338 209.336 567.657H216.176V566.948C216.176 563.502 214.104 561.988 211.688 561.988C208.876 561.988 207.041 564.052 207.041 567.082C207.041 570.163 208.85 572.125 211.81 572.125ZM209.342 566.098C209.413 564.845 210.34 563.79 211.72 563.79C213.05 563.79 213.945 564.762 213.957 566.098H209.342ZM219.832 562.115H217.377L220.292 567.025L217.301 571.934H219.755L221.813 568.399L223.891 571.934H226.326L223.315 567.025L226.275 562.115H223.827L221.813 565.74L219.832 562.115ZM231.978 572.125C234.446 572.125 236.018 570.662 236.184 568.578H233.973C233.774 569.632 233.014 570.24 231.997 570.24C230.553 570.24 229.62 569.032 229.62 567.025C229.62 565.043 230.572 563.854 231.997 563.854C233.11 563.854 233.794 564.57 233.973 565.516H236.184C236.024 563.387 234.362 561.988 231.965 561.988C229.089 561.988 227.274 564.065 227.274 567.063C227.274 570.035 229.044 572.125 231.978 572.125ZM240.398 566.181C240.398 564.762 241.28 563.944 242.52 563.944C243.735 563.944 244.451 564.717 244.451 566.04V571.934H246.765V565.682C246.765 563.311 245.422 561.988 243.383 561.988C241.875 561.988 240.916 562.672 240.462 563.784H240.347V558.843H238.084V571.934H240.398V566.181ZM251.949 572.132C253.489 572.132 254.41 571.409 254.831 570.585H254.908V571.934H257.133V565.363C257.133 562.767 255.017 561.988 253.144 561.988C251.079 561.988 249.494 562.908 248.983 564.698L251.143 565.005C251.373 564.333 252.025 563.758 253.157 563.758C254.231 563.758 254.819 564.308 254.819 565.273V565.311C254.819 565.976 254.122 566.008 252.39 566.194C250.485 566.398 248.663 566.967 248.663 569.179C248.663 571.109 250.076 572.132 251.949 572.132ZM252.549 570.431C251.584 570.431 250.894 569.99 250.894 569.14C250.894 568.252 251.667 567.881 252.703 567.734C253.31 567.651 254.525 567.498 254.825 567.255V568.412C254.825 569.505 253.943 570.431 252.549 570.431ZM261.773 566.181C261.773 564.762 262.63 563.944 263.851 563.944C265.046 563.944 265.762 564.73 265.762 566.04V571.934H268.076V565.682C268.082 563.33 266.74 561.988 264.713 561.988C263.243 561.988 262.233 562.691 261.786 563.784H261.671V562.115H259.459V571.934H261.773V566.181ZM274.698 575.82C277.351 575.82 279.307 574.605 279.307 572.093V562.115H277.025V563.739H276.897C276.545 563.029 275.81 561.988 274.078 561.988C271.809 561.988 270.025 563.765 270.025 566.993C270.025 570.195 271.809 571.793 274.071 571.793C275.753 571.793 276.539 570.892 276.897 570.169H277.012V572.029C277.012 573.474 276.053 574.069 274.736 574.069C273.343 574.069 272.729 573.41 272.448 572.835L270.364 573.34C270.786 574.714 272.199 575.82 274.698 575.82ZM274.717 569.978C273.189 569.978 272.384 568.789 272.384 566.98C272.384 565.196 273.177 563.886 274.717 563.886C276.206 563.886 277.025 565.12 277.025 566.98C277.025 568.853 276.194 569.978 274.717 569.978ZM286.025 572.125C288.313 572.125 289.885 571.007 290.294 569.3L288.134 569.057C287.821 569.888 287.054 570.323 286.057 570.323C284.561 570.323 283.57 569.338 283.551 567.657H290.39V566.948C290.39 563.502 288.319 561.988 285.903 561.988C283.091 561.988 281.256 564.052 281.256 567.082C281.256 570.163 283.065 572.125 286.025 572.125ZM283.557 566.098C283.628 564.845 284.554 563.79 285.935 563.79C287.265 563.79 288.16 564.762 288.172 566.098H283.557ZM300.108 564.711C299.788 563.049 298.459 561.988 296.158 561.988C293.793 561.988 292.182 563.151 292.188 564.966C292.182 566.398 293.064 567.344 294.949 567.734L296.624 568.086C297.525 568.284 297.947 568.648 297.947 569.204C297.947 569.875 297.219 570.38 296.119 570.38C295.058 570.38 294.368 569.92 294.17 569.038L291.913 569.255C292.201 571.058 293.716 572.125 296.126 572.125C298.58 572.125 300.312 570.853 300.319 568.993C300.312 567.593 299.411 566.737 297.557 566.334L295.883 565.976C294.886 565.752 294.489 565.407 294.496 564.838C294.489 564.174 295.224 563.713 296.19 563.713C297.257 563.713 297.82 564.295 297.998 564.941L300.108 564.711Z" fill="#000E33" />
    <g filter="url(#filter6_d)">
        <circle cx="1247.55" cy="360.786" r="97.5522" fill="white" />
    </g>
    <path d="M1237.95 302.832H1231.01L1222.37 308.304V314.849L1230.36 309.838H1230.57V337.741H1237.95V302.832ZM1245.71 331.605H1262.47V337.741H1269.53V331.605H1273.86V325.69H1269.53V302.832H1260.29L1245.71 325.792V331.605ZM1262.61 325.69H1253.15V325.417L1262.33 310.878H1262.61V325.69Z" fill="url(#paint4_linear)" />
    <path d="M1211 368.423H1213.31V363.194H1213.41C1213.77 363.91 1214.53 364.914 1216.22 364.914C1218.53 364.914 1220.27 363.079 1220.27 359.845C1220.27 356.572 1218.48 354.795 1216.21 354.795C1214.48 354.795 1213.76 355.837 1213.41 356.547H1213.27V354.923H1211V368.423ZM1213.27 359.832C1213.27 357.927 1214.09 356.694 1215.58 356.694C1217.12 356.694 1217.91 358.004 1217.91 359.832C1217.91 361.673 1217.1 363.015 1215.58 363.015C1214.1 363.015 1213.27 361.737 1213.27 359.832ZM1225.07 364.939C1226.61 364.939 1227.53 364.217 1227.96 363.392H1228.03V364.741H1230.26V358.17C1230.26 355.575 1228.14 354.795 1226.27 354.795C1224.2 354.795 1222.62 355.716 1222.11 357.505L1224.27 357.812C1224.5 357.141 1225.15 356.566 1226.28 356.566C1227.36 356.566 1227.94 357.116 1227.94 358.081V358.119C1227.94 358.784 1227.25 358.816 1225.51 359.001C1223.61 359.206 1221.79 359.775 1221.79 361.986C1221.79 363.917 1223.2 364.939 1225.07 364.939ZM1225.67 363.239C1224.71 363.239 1224.02 362.798 1224.02 361.948C1224.02 361.059 1224.79 360.689 1225.83 360.542C1226.44 360.459 1227.65 360.305 1227.95 360.062V361.219C1227.95 362.312 1227.07 363.239 1225.67 363.239ZM1233.67 368.423C1235.47 368.423 1236.52 367.496 1237.07 365.93L1241.02 354.936L1238.54 354.923L1236.27 362.338H1236.17L1233.91 354.923H1231.45L1235.01 364.946L1234.82 365.476C1234.39 366.595 1233.71 366.672 1232.7 366.378L1232.16 368.18C1232.48 368.308 1233.04 368.423 1233.67 368.423ZM1242.62 364.741H1244.94V358.771C1244.94 357.563 1245.74 356.745 1246.74 356.745C1247.72 356.745 1248.39 357.403 1248.39 358.413V364.741H1250.66V358.618C1250.66 357.512 1251.31 356.745 1252.43 356.745C1253.37 356.745 1254.11 357.294 1254.11 358.509V364.741H1256.43V358.151C1256.43 355.959 1255.16 354.795 1253.36 354.795C1251.93 354.795 1250.85 355.498 1250.41 356.591H1250.31C1249.93 355.479 1248.98 354.795 1247.66 354.795C1246.34 354.795 1245.36 355.473 1244.95 356.591H1244.83V354.923H1242.62V364.741ZM1263.12 364.933C1265.41 364.933 1266.98 363.814 1267.39 362.108L1265.23 361.865C1264.92 362.696 1264.15 363.13 1263.15 363.13C1261.66 363.13 1260.67 362.146 1260.65 360.465H1267.49V359.755C1267.49 356.31 1265.42 354.795 1263 354.795C1260.19 354.795 1258.35 356.86 1258.35 359.89C1258.35 362.971 1260.16 364.933 1263.12 364.933ZM1260.66 358.905C1260.73 357.652 1261.65 356.598 1263.03 356.598C1264.36 356.598 1265.26 357.569 1265.27 358.905H1260.66ZM1271.76 358.988C1271.76 357.569 1272.62 356.751 1273.84 356.751C1275.03 356.751 1275.75 357.537 1275.75 358.848V364.741H1278.06V358.49C1278.07 356.138 1276.73 354.795 1274.7 354.795C1273.23 354.795 1272.22 355.498 1271.77 356.591H1271.66V354.923H1269.45V364.741H1271.76V358.988ZM1285.32 354.923H1283.38V352.571H1281.07V354.923H1279.67V356.713H1281.07V362.172C1281.05 364.019 1282.4 364.927 1284.13 364.875C1284.79 364.856 1285.25 364.728 1285.5 364.645L1285.11 362.836C1284.98 362.868 1284.72 362.926 1284.43 362.926C1283.85 362.926 1283.38 362.721 1283.38 361.788V356.713H1285.32V354.923ZM1210.69 385.988C1210.69 384.569 1211.55 383.751 1212.77 383.751C1213.97 383.751 1214.68 384.537 1214.68 385.848V391.741H1217V385.49C1217 383.138 1215.66 381.795 1213.63 381.795C1212.16 381.795 1211.15 382.498 1210.71 383.591H1210.59V381.923H1208.38V391.741H1210.69V385.988ZM1223.69 391.933C1225.98 391.933 1227.56 390.814 1227.96 389.108L1225.8 388.865C1225.49 389.696 1224.72 390.13 1223.73 390.13C1222.23 390.13 1221.24 389.146 1221.22 387.465H1228.06V386.755C1228.06 383.31 1225.99 381.795 1223.57 381.795C1220.76 381.795 1218.93 383.86 1218.93 386.89C1218.93 389.971 1220.74 391.933 1223.69 391.933ZM1221.23 385.905C1221.3 384.652 1222.22 383.598 1223.61 383.598C1224.93 383.598 1225.83 384.569 1225.84 385.905H1221.23ZM1234.92 381.923H1232.98V379.571H1230.67V381.923H1229.28V383.713H1230.67V389.172C1230.66 391.019 1232 391.927 1233.74 391.875C1234.4 391.856 1234.85 391.728 1235.1 391.645L1234.71 389.836C1234.58 389.868 1234.32 389.926 1234.03 389.926C1233.45 389.926 1232.98 389.721 1232.98 388.788V383.713H1234.92V381.923ZM1238.88 391.741H1241.3L1243.14 385.106H1243.27L1245.11 391.741H1247.52L1250.3 381.923H1247.94L1246.24 388.788H1246.14L1244.38 381.923H1242.05L1240.28 388.826H1240.19L1238.47 381.923H1236.11L1238.88 391.741ZM1255.94 391.933C1258.82 391.933 1260.64 389.907 1260.64 386.87C1260.64 383.828 1258.82 381.795 1255.94 381.795C1253.06 381.795 1251.23 383.828 1251.23 386.87C1251.23 389.907 1253.06 391.933 1255.94 391.933ZM1255.95 390.079C1254.36 390.079 1253.58 388.66 1253.58 386.864C1253.58 385.068 1254.36 383.63 1255.95 383.63C1257.52 383.63 1258.3 385.068 1258.3 386.864C1258.3 388.66 1257.52 390.079 1255.95 390.079ZM1262.61 391.741H1264.92V385.969C1264.92 384.723 1265.86 383.841 1267.13 383.841C1267.52 383.841 1268.01 383.911 1268.21 383.975V381.846C1268 381.808 1267.63 381.782 1267.38 381.782C1266.25 381.782 1265.31 382.422 1264.95 383.559H1264.85V381.923H1262.61V391.741ZM1269.74 391.741H1272.06V388.443L1272.9 387.542L1275.91 391.741H1278.67L1274.65 386.161L1278.45 381.923H1275.75L1272.22 385.867H1272.06V378.65H1269.74V391.741ZM1287.75 384.518C1287.43 382.856 1286.1 381.795 1283.8 381.795C1281.44 381.795 1279.83 382.959 1279.83 384.774C1279.83 386.206 1280.71 387.152 1282.59 387.542L1284.27 387.893C1285.17 388.091 1285.59 388.456 1285.59 389.012C1285.59 389.683 1284.86 390.188 1283.76 390.188C1282.7 390.188 1282.01 389.728 1281.81 388.846L1279.56 389.063C1279.85 390.866 1281.36 391.933 1283.77 391.933C1286.22 391.933 1287.96 390.661 1287.96 388.801C1287.96 387.401 1287.06 386.544 1285.2 386.142L1283.53 385.784C1282.53 385.56 1282.13 385.215 1282.14 384.646C1282.13 383.981 1282.87 383.521 1283.83 383.521C1284.9 383.521 1285.46 384.103 1285.64 384.748L1287.75 384.518ZM1206.87 418.933C1209.34 418.933 1210.91 417.469 1211.08 415.385H1208.86C1208.67 416.44 1207.91 417.047 1206.89 417.047C1205.44 417.047 1204.51 415.839 1204.51 413.832C1204.51 411.851 1205.46 410.662 1206.89 410.662C1208 410.662 1208.69 411.378 1208.86 412.324H1211.08C1210.92 410.195 1209.25 408.795 1206.86 408.795C1203.98 408.795 1202.17 410.873 1202.17 413.87C1202.17 416.843 1203.94 418.933 1206.87 418.933ZM1217.26 418.933C1220.14 418.933 1221.96 416.907 1221.96 413.87C1221.96 410.828 1220.14 408.795 1217.26 408.795C1214.38 408.795 1212.55 410.828 1212.55 413.87C1212.55 416.907 1214.38 418.933 1217.26 418.933ZM1217.27 417.079C1215.68 417.079 1214.9 415.66 1214.9 413.864C1214.9 412.068 1215.68 410.63 1217.27 410.63C1218.84 410.63 1219.62 412.068 1219.62 413.864C1219.62 415.66 1218.84 417.079 1217.27 417.079ZM1226.24 412.988C1226.24 411.569 1227.1 410.751 1228.32 410.751C1229.51 410.751 1230.23 411.537 1230.23 412.848V418.741H1232.54V412.49C1232.55 410.138 1231.21 408.795 1229.18 408.795C1227.71 408.795 1226.7 409.498 1226.25 410.591H1226.14V408.923H1223.93V418.741H1226.24V412.988ZM1237.21 412.988C1237.21 411.569 1238.07 410.751 1239.29 410.751C1240.48 410.751 1241.2 411.537 1241.2 412.848V418.741H1243.51V412.49C1243.52 410.138 1242.18 408.795 1240.15 408.795C1238.68 408.795 1237.67 409.498 1237.22 410.591H1237.11V408.923H1234.9V418.741H1237.21V412.988ZM1250.21 418.933C1252.5 418.933 1254.07 417.814 1254.48 416.108L1252.32 415.865C1252.01 416.696 1251.24 417.13 1250.24 417.13C1248.75 417.13 1247.76 416.146 1247.74 414.465H1254.58V413.755C1254.58 410.31 1252.51 408.795 1250.09 408.795C1247.28 408.795 1245.44 410.86 1245.44 413.89C1245.44 416.971 1247.25 418.933 1250.21 418.933ZM1247.74 412.905C1247.81 411.652 1248.74 410.598 1250.12 410.598C1251.45 410.598 1252.35 411.569 1252.36 412.905H1247.74ZM1260.82 418.933C1263.28 418.933 1264.86 417.469 1265.02 415.385H1262.81C1262.61 416.44 1261.85 417.047 1260.84 417.047C1259.39 417.047 1258.46 415.839 1258.46 413.832C1258.46 411.851 1259.41 410.662 1260.84 410.662C1261.95 410.662 1262.63 411.378 1262.81 412.324H1265.02C1264.86 410.195 1263.2 408.795 1260.8 408.795C1257.93 408.795 1256.11 410.873 1256.11 413.87C1256.11 416.843 1257.88 418.933 1260.82 418.933ZM1271.83 408.923H1269.89V406.571H1267.58V408.923H1266.18V410.713H1267.58V416.172C1267.56 418.019 1268.9 418.927 1270.64 418.875C1271.3 418.856 1271.76 418.728 1272 418.645L1271.62 416.836C1271.49 416.868 1271.23 416.926 1270.94 416.926C1270.36 416.926 1269.89 416.721 1269.89 415.788V410.713H1271.83V408.923ZM1278 418.933C1280.29 418.933 1281.86 417.814 1282.27 416.108L1280.11 415.865C1279.8 416.696 1279.03 417.13 1278.03 417.13C1276.54 417.13 1275.55 416.146 1275.53 414.465H1282.37V413.755C1282.37 410.31 1280.3 408.795 1277.88 408.795C1275.07 408.795 1273.23 410.86 1273.23 413.89C1273.23 416.971 1275.04 418.933 1278 418.933ZM1275.53 412.905C1275.61 411.652 1276.53 410.598 1277.91 410.598C1279.24 410.598 1280.14 411.569 1280.15 412.905H1275.53ZM1287.97 418.914C1289.66 418.914 1290.42 417.91 1290.78 417.194H1290.92V418.741H1293.2V405.65H1290.88V410.547H1290.78C1290.43 409.837 1289.71 408.795 1287.98 408.795C1285.71 408.795 1283.92 410.572 1283.92 413.845C1283.92 417.079 1285.66 418.914 1287.97 418.914ZM1288.61 417.015C1287.09 417.015 1286.28 415.673 1286.28 413.832C1286.28 412.004 1287.07 410.694 1288.61 410.694C1290.1 410.694 1290.92 411.927 1290.92 413.832C1290.92 415.737 1290.09 417.015 1288.61 417.015Z" fill="#000E33" />
    <g filter="url(#filter7_d)">
        <circle cx="798.886" cy="583.119" r="99.886" fill="white" />
    </g>
    <path d="M753.534 552.119H770.289V558.256H777.346V552.119H781.676V546.205H777.346V523.347H768.108L753.534 546.307V552.119ZM770.426 546.205H760.966V545.932L770.153 531.392H770.426V546.205ZM799.343 558.733C807.116 558.733 812.4 553.671 812.383 546.614C812.4 539.932 807.73 535.125 801.44 535.125C798.372 535.125 795.73 536.404 794.503 538.125H794.298L795.201 529.381H810.457V523.347H789.116L787.463 541.756L794.025 542.932C795.099 541.483 797.179 540.58 799.241 540.58C802.753 540.597 805.275 543.137 805.275 546.801C805.275 550.432 802.804 552.938 799.343 552.938C796.412 552.938 794.042 551.097 793.872 548.387H786.713C786.849 554.421 792.116 558.733 799.343 558.733ZM827.963 552.938H834.065V543.921H843.082V537.818H834.065V528.801H827.963V537.818H818.946V543.921H827.963V552.938Z" fill="url(#paint5_linear)" />
    <path d="M749.404 585.256H751.718V579.286C751.718 578.078 752.523 577.259 753.52 577.259C754.498 577.259 755.17 577.918 755.17 578.928V585.256H757.439V579.132C757.439 578.026 758.097 577.259 759.216 577.259C760.149 577.259 760.89 577.809 760.89 579.024V585.256H763.211V578.666C763.211 576.473 761.945 575.31 760.143 575.31C758.717 575.31 757.631 576.013 757.196 577.106H757.094C756.716 575.994 755.764 575.31 754.441 575.31C753.124 575.31 752.14 575.987 751.731 577.106H751.616V575.438H749.404V585.256ZM769.905 585.448C772.193 585.448 773.766 584.329 774.175 582.622L772.014 582.379C771.701 583.21 770.934 583.645 769.937 583.645C768.441 583.645 767.45 582.661 767.431 580.98H774.271V580.27C774.271 576.825 772.2 575.31 769.783 575.31C766.971 575.31 765.136 577.374 765.136 580.404C765.136 583.485 766.945 585.448 769.905 585.448ZM767.438 579.42C767.508 578.167 768.435 577.112 769.815 577.112C771.145 577.112 772.04 578.084 772.053 579.42H767.438ZM776.228 585.256H778.542V579.286C778.542 578.078 779.348 577.259 780.345 577.259C781.323 577.259 781.994 577.918 781.994 578.928V585.256H784.263V579.132C784.263 578.026 784.921 577.259 786.04 577.259C786.973 577.259 787.715 577.809 787.715 579.024V585.256H790.035V578.666C790.035 576.473 788.769 575.31 786.967 575.31C785.541 575.31 784.455 576.013 784.02 577.106H783.918C783.541 575.994 782.588 575.31 781.265 575.31C779.948 575.31 778.964 575.987 778.555 577.106H778.44V575.438H776.228V585.256ZM792.485 585.256H794.76V583.709H794.895C795.259 584.425 796.02 585.428 797.707 585.428C800.021 585.428 801.753 583.594 801.753 580.36C801.753 577.087 799.97 575.31 797.701 575.31C795.968 575.31 795.246 576.352 794.895 577.061H794.799V572.165H792.485V585.256ZM794.754 580.347C794.754 578.442 795.572 577.208 797.061 577.208C798.602 577.208 799.395 578.519 799.395 580.347C799.395 582.188 798.589 583.53 797.061 583.53C795.585 583.53 794.754 582.252 794.754 580.347ZM808.067 585.448C810.355 585.448 811.928 584.329 812.337 582.622L810.176 582.379C809.863 583.21 809.096 583.645 808.099 583.645C806.603 583.645 805.612 582.661 805.593 580.98H812.433V580.27C812.433 576.825 810.362 575.31 807.946 575.31C805.133 575.31 803.299 577.374 803.299 580.404C803.299 583.485 805.107 585.448 808.067 585.448ZM805.6 579.42C805.67 578.167 806.597 577.112 807.978 577.112C809.307 577.112 810.202 578.084 810.215 579.42H805.6ZM814.39 585.256H816.704V579.484C816.704 578.237 817.644 577.355 818.916 577.355C819.306 577.355 819.792 577.426 819.99 577.49V575.361C819.779 575.323 819.414 575.297 819.159 575.297C818.034 575.297 817.094 575.936 816.736 577.074H816.634V575.438H814.39V585.256ZM829.287 578.033C828.967 576.371 827.638 575.31 825.337 575.31C822.972 575.31 821.361 576.473 821.367 578.289C821.361 579.72 822.243 580.666 824.129 581.056L825.803 581.408C826.705 581.606 827.126 581.97 827.126 582.526C827.126 583.198 826.398 583.703 825.298 583.703C824.237 583.703 823.547 583.242 823.349 582.36L821.092 582.578C821.38 584.38 822.895 585.448 825.305 585.448C827.759 585.448 829.492 584.176 829.498 582.316C829.492 580.916 828.59 580.059 826.737 579.656L825.062 579.298C824.065 579.075 823.668 578.73 823.675 578.161C823.668 577.496 824.403 577.036 825.369 577.036C826.436 577.036 826.999 577.617 827.178 578.263L829.287 578.033ZM835.871 585.256H838.185V575.438H835.871V585.256ZM837.034 574.044C837.769 574.044 838.37 573.482 838.37 572.791C838.37 572.095 837.769 571.532 837.034 571.532C836.293 571.532 835.692 572.095 835.692 572.791C835.692 573.482 836.293 574.044 837.034 574.044ZM842.878 579.503C842.878 578.084 843.735 577.266 844.955 577.266C846.151 577.266 846.867 578.052 846.867 579.362V585.256H849.181V579.004C849.187 576.652 847.845 575.31 845.818 575.31C844.348 575.31 843.338 576.013 842.891 577.106H842.776V575.438H840.564V585.256H842.878V579.503ZM743.546 605.71C743.546 601.479 740.964 598.986 737.532 598.986C734.093 598.986 731.517 601.479 731.517 605.71C731.517 609.936 734.093 612.435 737.532 612.435C740.964 612.435 743.546 609.942 743.546 605.71ZM741.162 605.71C741.162 608.689 739.667 610.306 737.532 610.306C735.403 610.306 733.901 608.689 733.901 605.71C733.901 602.732 735.403 601.115 737.532 601.115C739.667 601.115 741.162 602.732 741.162 605.71ZM745.686 615.938H748V610.709H748.096C748.46 611.425 749.221 612.428 750.909 612.428C753.222 612.428 754.955 610.594 754.955 607.36C754.955 604.087 753.171 602.31 750.902 602.31C749.17 602.31 748.448 603.352 748.096 604.061H747.962V602.438H745.686V615.938ZM747.955 607.347C747.955 605.442 748.774 604.208 750.263 604.208C751.803 604.208 752.596 605.519 752.596 607.347C752.596 609.188 751.791 610.53 750.263 610.53C748.786 610.53 747.955 609.252 747.955 607.347ZM761.283 612.448C763.571 612.448 765.144 611.329 765.553 609.622L763.392 609.379C763.079 610.21 762.312 610.645 761.315 610.645C759.819 610.645 758.828 609.661 758.809 607.98H765.649V607.27C765.649 603.825 763.578 602.31 761.161 602.31C758.349 602.31 756.514 604.374 756.514 607.404C756.514 610.485 758.323 612.448 761.283 612.448ZM758.815 606.42C758.886 605.167 759.813 604.112 761.193 604.112C762.523 604.112 763.418 605.084 763.431 606.42H758.815ZM769.92 606.503C769.92 605.084 770.777 604.266 771.997 604.266C773.193 604.266 773.909 605.052 773.909 606.362V612.256H776.223V606.004C776.229 603.652 774.887 602.31 772.86 602.31C771.39 602.31 770.38 603.013 769.933 604.106H769.818V602.438H767.606V612.256H769.92V606.503ZM783.142 612.256H785.513V607.833H788.019C791.043 607.833 792.666 606.017 792.666 603.499C792.666 600.999 791.062 599.165 788.051 599.165H783.142V612.256ZM785.513 605.883V601.146H787.687C789.464 601.146 790.25 602.105 790.25 603.499C790.25 604.892 789.464 605.883 787.7 605.883H785.513ZM797.273 612.454C798.814 612.454 799.734 611.732 800.156 610.907H800.233V612.256H802.457V605.685C802.457 603.09 800.341 602.31 798.469 602.31C796.404 602.31 794.819 603.23 794.307 605.02L796.468 605.327C796.698 604.656 797.35 604.08 798.481 604.08C799.555 604.08 800.143 604.63 800.143 605.595V605.634C800.143 606.298 799.447 606.33 797.714 606.516C795.809 606.72 793.988 607.289 793.988 609.501C793.988 611.431 795.4 612.454 797.273 612.454ZM797.874 610.754C796.909 610.754 796.219 610.313 796.219 609.463C796.219 608.574 796.992 608.203 798.027 608.056C798.635 607.973 799.849 607.82 800.15 607.577V608.734C800.15 609.827 799.268 610.754 797.874 610.754ZM805.871 615.938C807.673 615.938 808.715 615.011 809.271 613.445L813.215 602.45L810.741 602.438L808.472 609.852H808.37L806.107 602.438H803.652L807.213 612.46L807.015 612.991C806.586 614.11 805.909 614.186 804.899 613.892L804.362 615.695C804.675 615.823 805.238 615.938 805.871 615.938ZM814.821 612.256H817.135V606.286C817.135 605.078 817.94 604.259 818.937 604.259C819.915 604.259 820.587 604.918 820.587 605.928V612.256H822.856V606.132C822.856 605.026 823.514 604.259 824.633 604.259C825.566 604.259 826.307 604.809 826.307 606.024V612.256H828.628V605.666C828.628 603.473 827.362 602.31 825.56 602.31C824.134 602.31 823.048 603.013 822.613 604.106H822.511C822.133 602.994 821.181 602.31 819.858 602.31C818.541 602.31 817.557 602.987 817.148 604.106H817.033V602.438H814.821V612.256ZM835.322 612.448C837.61 612.448 839.183 611.329 839.592 609.622L837.431 609.379C837.118 610.21 836.351 610.645 835.354 610.645C833.858 610.645 832.867 609.661 832.848 607.98H839.688V607.27C839.688 603.825 837.617 602.31 835.2 602.31C832.388 602.31 830.553 604.374 830.553 607.404C830.553 610.485 832.362 612.448 835.322 612.448ZM832.855 606.42C832.925 605.167 833.852 604.112 835.232 604.112C836.562 604.112 837.457 605.084 837.47 606.42H832.855ZM843.959 606.503C843.959 605.084 844.816 604.266 846.037 604.266C847.232 604.266 847.948 605.052 847.948 606.362V612.256H850.262V606.004C850.268 603.652 848.926 602.31 846.899 602.31C845.429 602.31 844.419 603.013 843.972 604.106H843.857V602.438H841.645V612.256H843.959V606.503ZM857.517 602.438H855.58V600.085H853.266V602.438H851.872V604.227H853.266V609.686C853.253 611.534 854.595 612.441 856.334 612.39C856.993 612.371 857.446 612.243 857.696 612.16L857.306 610.351C857.178 610.383 856.916 610.441 856.628 610.441C856.046 610.441 855.58 610.236 855.58 609.303V604.227H857.517V602.438ZM867.071 605.033C866.752 603.371 865.422 602.31 863.121 602.31C860.756 602.31 859.145 603.473 859.151 605.289C859.145 606.72 860.027 607.666 861.913 608.056L863.587 608.408C864.489 608.606 864.911 608.97 864.911 609.526C864.911 610.198 864.182 610.703 863.083 610.703C862.021 610.703 861.331 610.242 861.133 609.36L858.877 609.578C859.164 611.38 860.679 612.448 863.089 612.448C865.543 612.448 867.276 611.176 867.282 609.316C867.276 607.916 866.374 607.059 864.521 606.656L862.846 606.298C861.849 606.075 861.453 605.73 861.459 605.161C861.453 604.496 862.188 604.036 863.153 604.036C864.22 604.036 864.783 604.617 864.962 605.263L867.071 605.033ZM773.025 630.582C772.622 627.673 770.385 625.986 767.483 625.986C764.063 625.986 761.487 628.479 761.487 632.71C761.487 636.936 764.031 639.435 767.483 639.435C770.596 639.435 772.661 637.421 773.025 634.922L770.634 634.909C770.334 636.443 769.081 637.306 767.515 637.306C765.393 637.306 763.872 635.715 763.872 632.71C763.872 629.757 765.38 628.115 767.521 628.115C769.113 628.115 770.36 629.016 770.634 630.582H773.025ZM779.377 639.448C782.254 639.448 784.082 637.421 784.082 634.385C784.082 631.343 782.254 629.31 779.377 629.31C776.501 629.31 774.673 631.343 774.673 634.385C774.673 637.421 776.501 639.448 779.377 639.448ZM779.39 637.594C777.798 637.594 777.018 636.175 777.018 634.379C777.018 632.583 777.798 631.144 779.39 631.144C780.956 631.144 781.736 632.583 781.736 634.379C781.736 636.175 780.956 637.594 779.39 637.594ZM788.871 639.454C790.411 639.454 791.332 638.732 791.754 637.907H791.83V639.256H794.055V632.685C794.055 630.09 791.939 629.31 790.066 629.31C788.002 629.31 786.416 630.23 785.905 632.02L788.065 632.327C788.296 631.656 788.948 631.08 790.079 631.08C791.153 631.08 791.741 631.63 791.741 632.595V632.634C791.741 633.298 791.044 633.33 789.312 633.516C787.407 633.72 785.585 634.289 785.585 636.501C785.585 638.431 786.998 639.454 788.871 639.454ZM789.472 637.754C788.507 637.754 787.816 637.313 787.816 636.463C787.816 635.574 788.59 635.203 789.625 635.056C790.232 634.973 791.447 634.82 791.747 634.577V635.734C791.747 636.827 790.865 637.754 789.472 637.754ZM798.695 626.165H796.382V639.256H798.695V626.165ZM801.075 639.256H803.389V629.438H801.075V639.256ZM802.238 628.044C802.973 628.044 803.574 627.482 803.574 626.791C803.574 626.095 802.973 625.532 802.238 625.532C801.497 625.532 800.896 626.095 800.896 626.791C800.896 627.482 801.497 628.044 802.238 628.044ZM810.671 629.438H808.734V627.085H806.42V629.438H805.027V631.227H806.42V636.686C806.407 638.534 807.75 639.441 809.488 639.39C810.147 639.371 810.601 639.243 810.85 639.16L810.46 637.351C810.332 637.383 810.07 637.441 809.782 637.441C809.201 637.441 808.734 637.236 808.734 636.303V631.227H810.671V629.438ZM812.606 639.256H814.92V629.438H812.606V639.256ZM813.769 628.044C814.505 628.044 815.105 627.482 815.105 626.791C815.105 626.095 814.505 625.532 813.769 625.532C813.028 625.532 812.427 626.095 812.427 626.791C812.427 627.482 813.028 628.044 813.769 628.044ZM821.582 639.448C824.459 639.448 826.287 637.421 826.287 634.385C826.287 631.343 824.459 629.31 821.582 629.31C818.706 629.31 816.878 631.343 816.878 634.385C816.878 637.421 818.706 639.448 821.582 639.448ZM821.595 637.594C820.003 637.594 819.224 636.175 819.224 634.379C819.224 632.583 820.003 631.144 821.595 631.144C823.161 631.144 823.941 632.583 823.941 634.379C823.941 636.175 823.161 637.594 821.595 637.594ZM830.565 633.503C830.565 632.084 831.421 631.266 832.642 631.266C833.837 631.266 834.553 632.052 834.553 633.362V639.256H836.867V633.004C836.874 630.652 835.531 629.31 833.505 629.31C832.035 629.31 831.025 630.013 830.577 631.106H830.462V629.438H828.251V639.256H830.565V633.503Z" fill="#000E33" />
    <path d="M76.2511 395.654H80.0011C79.5238 392.203 76.4812 389.774 72.5352 389.774C67.9244 389.774 64.3704 393.097 64.3704 398.757C64.3704 404.279 67.6942 407.705 72.6119 407.705C77.0181 407.705 80.163 404.919 80.163 400.325V398.126H72.859V400.904H76.609C76.5579 403.069 75.0835 404.441 72.6289 404.441C69.859 404.441 68.1119 402.37 68.1119 398.722C68.1119 395.092 69.9272 393.038 72.5948 393.038C74.4954 393.038 75.7823 394.018 76.2511 395.654ZM88.7816 407.722C92.7532 407.722 95.2248 405.004 95.2248 400.972C95.2248 396.916 92.7532 394.205 88.7816 394.205C84.81 394.205 82.3384 396.916 82.3384 400.972C82.3384 405.004 84.81 407.722 88.7816 407.722ZM88.7987 404.91C86.9663 404.91 86.0288 403.231 86.0288 400.947C86.0288 398.663 86.9663 396.975 88.7987 396.975C90.5969 396.975 91.5344 398.663 91.5344 400.947C91.5344 403.231 90.5969 404.91 88.7987 404.91ZM97.6538 407.467H101.344V401.808H104.446C108.461 401.808 110.796 399.413 110.796 395.927C110.796 392.458 108.503 390.012 104.54 390.012H97.6538V407.467ZM101.344 398.85V393.029H103.833C105.963 393.029 106.995 394.188 106.995 395.927C106.995 397.657 105.963 398.85 103.85 398.85H101.344ZM116.506 407.714C118.441 407.714 119.694 406.87 120.333 405.651H120.435V407.467H123.878V398.637C123.878 395.518 121.236 394.205 118.321 394.205C115.185 394.205 113.123 395.705 112.62 398.092L115.978 398.365C116.225 397.495 117 396.856 118.304 396.856C119.54 396.856 120.248 397.478 120.248 398.552V398.603C120.248 399.447 119.353 399.558 117.077 399.779C114.486 400.018 112.159 400.887 112.159 403.811C112.159 406.401 114.009 407.714 116.506 407.714ZM117.546 405.208C116.429 405.208 115.628 404.688 115.628 403.691C115.628 402.669 116.472 402.166 117.75 401.987C118.543 401.876 119.838 401.688 120.273 401.399V402.788C120.273 404.16 119.14 405.208 117.546 405.208ZM128.468 412.376C131.169 412.376 132.601 410.995 133.343 408.882L138.431 394.393L134.587 394.376L131.851 403.99H131.715L129.005 394.376H125.186L129.882 407.842L129.669 408.396C129.192 409.623 128.28 409.683 127.002 409.291L126.184 412.001C126.703 412.222 127.547 412.376 128.468 412.376Z" fill="white" />
    <g filter="url(#filter8_d)">
        <circle cx="101.011" cy="294.244" r="56.0109" fill="white" />
    </g>
    <path d="M85.9931 313.421C75.1332 313.421 68.7097 306.097 69.0101 296.554C69.3798 284.354 80.1472 274.233 92.9942 274.233C98.4935 274.233 102.907 275.666 105.841 277.145L104.131 286.179C100.457 284.192 97.315 282.991 92.2086 282.991C84.2139 282.991 78.9226 288.952 78.7378 295.399C78.576 300.528 81.6722 304.78 87.6336 304.78C88.9737 304.78 90.545 304.572 91.6078 304.318L93.9416 291.979H103.045L99.5101 310.602C95.6514 312.382 90.5681 313.421 85.9931 313.421Z" fill="#1899D6" />
    <path d="M132.043 291.979L113.905 281.165L109.122 306.466L132.043 291.979Z" fill="#1899D6" />
    <defs>
        <filter id="filter0_d" x="949.134" y="448.801" width="246.895" height="246.895" filterUnits="userSpaceOnUse" color-interpolation-filters="sRGB">
            <feFlood flood-opacity="0" result="BackgroundImageFix" />
            <feColorMatrix in="SourceAlpha" type="matrix" values="0 0 0 0 0 0 0 0 0 0 0 0 0 0 0 0 0 0 127 0" />
            <feOffset dy="27.4328" />
            <feGaussianBlur stdDeviation="27.4328" />
            <feColorMatrix type="matrix" values="0 0 0 0 0 0 0 0 0 0 0 0 0 0 0 0 0 0 0.08 0" />
            <feBlend mode="normal" in2="BackgroundImageFix" result="effect1_dropShadow" />
            <feBlend mode="normal" in="SourceGraphic" in2="effect1_dropShadow" result="shape" />
        </filter>
        <filter id="filter1_d" x="223.45" y="145.725" width="245.474" height="245.474" filterUnits="userSpaceOnUse" color-interpolation-filters="sRGB">
            <feFlood flood-opacity="0" result="BackgroundImageFix" />
            <feColorMatrix in="SourceAlpha" type="matrix" values="0 0 0 0 0 0 0 0 0 0 0 0 0 0 0 0 0 0 127 0" />
            <feOffset dy="27.2748" />
            <feGaussianBlur stdDeviation="27.2748" />
            <feColorMatrix type="matrix" values="0 0 0 0 0 0 0 0 0 0 0 0 0 0 0 0 0 0 0.08 0" />
            <feBlend mode="normal" in2="BackgroundImageFix" result="effect1_dropShadow" />
            <feBlend mode="normal" in="SourceGraphic" in2="effect1_dropShadow" result="shape" />
        </filter>
        <filter id="filter2_d" x="404.466" y="379.466" width="249.904" height="249.904" filterUnits="userSpaceOnUse" color-interpolation-filters="sRGB">
            <feFlood flood-opacity="0" result="BackgroundImageFix" />
            <feColorMatrix in="SourceAlpha" type="matrix" values="0 0 0 0 0 0 0 0 0 0 0 0 0 0 0 0 0 0 127 0" />
            <feOffset dy="27.7671" />
            <feGaussianBlur stdDeviation="27.7671" />
            <feColorMatrix type="matrix" values="0 0 0 0 0 0 0 0 0 0 0 0 0 0 0 0 0 0 0.08 0" />
            <feBlend mode="normal" in2="BackgroundImageFix" result="effect1_dropShadow" />
            <feBlend mode="normal" in="SourceGraphic" in2="effect1_dropShadow" result="shape" />
        </filter>
        <filter id="filter3_d" x="834.614" y="122.54" width="277.409" height="277.409" filterUnits="userSpaceOnUse" color-interpolation-filters="sRGB">
            <feFlood flood-opacity="0" result="BackgroundImageFix" />
            <feColorMatrix in="SourceAlpha" type="matrix" values="0 0 0 0 0 0 0 0 0 0 0 0 0 0 0 0 0 0 127 0" />
            <feOffset dy="33.6931" />
            <feGaussianBlur stdDeviation="33.6931" />
            <feColorMatrix type="matrix" values="0 0 0 0 0 0 0 0 0 0 0 0 0 0 0 0 0 0 0.08 0" />
            <feBlend mode="normal" in2="BackgroundImageFix" result="effect1_dropShadow" />
            <feBlend mode="normal" in="SourceGraphic" in2="effect1_dropShadow" result="shape" />
        </filter>
        <filter id="filter4_d" x="486.492" y="100.746" width="340.929" height="340.929" filterUnits="userSpaceOnUse" color-interpolation-filters="sRGB">
            <feFlood flood-opacity="0" result="BackgroundImageFix" />
            <feColorMatrix in="SourceAlpha" type="matrix" values="0 0 0 0 0 0 0 0 0 0 0 0 0 0 0 0 0 0 127 0" />
            <feOffset dy="25.254" />
            <feGaussianBlur stdDeviation="25.254" />
            <feColorMatrix type="matrix" values="0 0 0 0 0 0 0 0 0 0 0 0 0 0 0 0 0 0 0.08 0" />
            <feBlend mode="normal" in2="BackgroundImageFix" result="effect1_dropShadow" />
            <feBlend mode="normal" in="SourceGraphic" in2="effect1_dropShadow" result="shape" />
        </filter>
        <filter id="filter5_d" x="105.688" y="433.846" width="261.73" height="261.73" filterUnits="userSpaceOnUse" color-interpolation-filters="sRGB">
            <feFlood flood-opacity="0" result="BackgroundImageFix" />
            <feColorMatrix in="SourceAlpha" type="matrix" values="0 0 0 0 0 0 0 0 0 0 0 0 0 0 0 0 0 0 127 0" />
            <feOffset dy="19.3874" />
            <feGaussianBlur stdDeviation="19.3874" />
            <feColorMatrix type="matrix" values="0 0 0 0 0 0 0 0 0 0 0 0 0 0 0 0 0 0 0.08 0" />
            <feBlend mode="normal" in2="BackgroundImageFix" result="effect1_dropShadow" />
            <feBlend mode="normal" in="SourceGraphic" in2="effect1_dropShadow" result="shape" />
        </filter>
        <filter id="filter6_d" x="1113.13" y="244.798" width="268.845" height="268.845" filterUnits="userSpaceOnUse" color-interpolation-filters="sRGB">
            <feFlood flood-opacity="0" result="BackgroundImageFix" />
            <feColorMatrix in="SourceAlpha" type="matrix" values="0 0 0 0 0 0 0 0 0 0 0 0 0 0 0 0 0 0 127 0" />
            <feOffset dy="18.4351" />
            <feGaussianBlur stdDeviation="18.4351" />
            <feColorMatrix type="matrix" values="0 0 0 0 0 0 0 0 0 0 0 0 0 0 0 0 0 0 0.08 0" />
            <feBlend mode="normal" in2="BackgroundImageFix" result="effect1_dropShadow" />
            <feBlend mode="normal" in="SourceGraphic" in2="effect1_dropShadow" result="shape" />
        </filter>
        <filter id="filter7_d" x="661.248" y="464.357" width="275.276" height="275.276" filterUnits="userSpaceOnUse" color-interpolation-filters="sRGB">
            <feFlood flood-opacity="0" result="BackgroundImageFix" />
            <feColorMatrix in="SourceAlpha" type="matrix" values="0 0 0 0 0 0 0 0 0 0 0 0 0 0 0 0 0 0 127 0" />
            <feOffset dy="18.8761" />
            <feGaussianBlur stdDeviation="18.8761" />
            <feColorMatrix type="matrix" values="0 0 0 0 0 0 0 0 0 0 0 0 0 0 0 0 0 0 0.08 0" />
            <feBlend mode="normal" in2="BackgroundImageFix" result="effect1_dropShadow" />
            <feBlend mode="normal" in="SourceGraphic" in2="effect1_dropShadow" result="shape" />
        </filter>
        <filter id="filter8_d" x="0.191315" y="215.829" width="201.639" height="201.639" filterUnits="userSpaceOnUse" color-interpolation-filters="sRGB">
            <feFlood flood-opacity="0" result="BackgroundImageFix" />
            <feColorMatrix in="SourceAlpha" type="matrix" values="0 0 0 0 0 0 0 0 0 0 0 0 0 0 0 0 0 0 127 0" />
            <feOffset dy="22.4043" />
            <feGaussianBlur stdDeviation="22.4043" />
            <feColorMatrix type="matrix" values="0 0 0 0 0 0 0 0 0 0 0 0 0 0 0 0 0 0 0.08 0" />
            <feBlend mode="normal" in2="BackgroundImageFix" result="effect1_dropShadow" />
            <feBlend mode="normal" in="SourceGraphic" in2="effect1_dropShadow" result="shape" />
        </filter>
        <linearGradient id="paint0_linear" x1="1045.02" y1="547.795" x2="1099.56" y2="547.795" gradientUnits="userSpaceOnUse">
            <stop stop-color="#F1562B" />
            <stop offset="0.3" stop-color="#F1542B" />
            <stop offset="0.41" stop-color="#F04D2A" />
            <stop offset="0.49" stop-color="#EF4229" />
            <stop offset="0.5" stop-color="#EF4029" />
            <stop offset="0.56" stop-color="#E83E28" />
            <stop offset="0.67" stop-color="#E13C26" />
            <stop offset="1" stop-color="#DF3C26" />
        </linearGradient>
        <linearGradient id="paint1_linear" x1="312" y1="211.188" x2="375.401" y2="271.336" gradientUnits="userSpaceOnUse">
            <stop stop-color="#1DB4FF" />
            <stop offset="1" stop-color="#0F72E5" />
        </linearGradient>
        <linearGradient id="paint2_linear" x1="747.443" y1="300.367" x2="603.034" y2="208.202" gradientUnits="userSpaceOnUse">
            <stop stop-color="#FF8100" />
            <stop offset="0.0001" stop-color="#FF8100" />
            <stop offset="0.5" stop-color="#FF5D00" />
            <stop offset="1" stop-color="#FF3600" />
        </linearGradient>
        <linearGradient id="paint3_linear" x1="-3.11584" y1="540.364" x2="17.0489" y2="459.31" gradientUnits="userSpaceOnUse">
            <stop stop-color="#B0FF33" />
            <stop offset="0.494792" stop-color="#55DF20" />
            <stop offset="1" stop-color="#0AC222" />
        </linearGradient>
        <linearGradient id="paint4_linear" x1="1311.8" y1="263.885" x2="1205.46" y2="369.489" gradientUnits="userSpaceOnUse">
            <stop stop-color="#C906F9" />
            <stop offset="0.494792" stop-color="#A803FC" />
            <stop offset="1" stop-color="#8700FF" />
        </linearGradient>
        <linearGradient id="paint5_linear" x1="860.621" y1="626.376" x2="695.523" y2="526.726" gradientUnits="userSpaceOnUse">
            <stop stop-color="#0044FF" />
            <stop offset="0.489583" stop-color="#0087FF" />
            <stop offset="1" stop-color="#00CAFF" />
        </linearGradient>
    </defs>
</svg>
