<svg width="120" height="120" viewBox="0 0 120 120" fill="none" xmlns="http://www.w3.org/2000/svg">
<circle cx="60" cy="60" r="60" fill="white"/>
<path d="M41.0302 37.4461C41.0428 35.6299 40.9849 33.8137 41.063 32C48.3303 32.0655 55.5976 32.0227 62.865 32.0252C66.0943 31.9244 69.4295 32.7305 72.0543 34.6651C74.2156 36.2294 75.7195 38.7006 76.0469 41.3531C76.1578 43.0484 76.2056 44.8167 75.5683 46.4238C74.6942 48.7766 72.805 50.6835 70.5202 51.6961C72.8226 52.5576 74.8983 54.1169 76.1628 56.2454C78.1453 59.5529 78.1427 63.941 76.1527 67.2434C74.6867 69.7372 72.1651 71.4955 69.4295 72.3444C67.3261 73.0749 65.0691 73.2135 62.8599 73.1782C55.5825 73.1832 48.3051 73.1681 41.0302 73.1883C41.0176 71.3544 41.0353 69.5206 41.0176 67.6893C43.446 67.7573 45.776 66.135 46.6753 63.9007C47.2547 62.611 47.1716 61.1676 47.096 59.7947C46.693 56.855 43.9976 54.53 41.0353 54.5325C41.0025 52.8876 41.0605 51.2452 41 49.6028C44.7332 49.7791 47.9197 45.8797 47.0028 42.2549C46.4436 39.5041 43.8238 37.4335 41.0302 37.4461ZM53.0283 37.9524C53.0434 41.7536 53.0711 45.5573 53.0182 49.3585C56.1266 49.3887 59.2326 49.3585 62.341 49.3736C64.5074 49.3786 66.7065 48.2375 67.7317 46.2903C68.4748 44.726 68.4748 42.8368 67.7997 41.2473C66.9055 39.2547 64.7341 38.0809 62.6131 37.9574C59.419 37.9474 56.2224 37.9625 53.0283 37.9524ZM53.0106 54.8197C53.0736 58.9408 53.0509 63.0669 53.0207 67.1905C56.2148 67.1955 59.4089 67.1905 62.603 67.1955C64.1547 67.1981 65.7744 66.9159 67.0566 65.9864C70.0265 64.0418 70.4648 59.3665 68.0491 56.8147C66.7921 55.4469 64.9205 54.8146 63.0917 54.8046C59.7313 54.7844 56.3685 54.7592 53.0106 54.8197Z" fill="#282828"/>
<path d="M41.0443 82.0602C53.2363 82.0451 65.4283 82.0451 77.6203 82.0627C77.6178 84.0401 77.653 86.0226 77.5926 88C65.4207 87.9849 53.2489 87.9698 41.0771 88C41.0116 86.0201 41.0443 84.0401 41.0443 82.0602Z" fill="#14A049"/>
</svg>
