<svg width="120" height="120" viewBox="0 0 120 120" fill="none" xmlns="http://www.w3.org/2000/svg">
<circle cx="60" cy="60" r="60" fill="white"/>
<path d="M83.7513 50.1162L82.0244 45.4262L83.2254 42.7339C83.3008 42.5641 83.3232 42.3754 83.2896 42.1926C83.256 42.0098 83.1679 41.8415 83.037 41.7096L79.7717 38.409C79.0707 37.6977 78.1821 37.2002 77.2094 36.9744C76.2367 36.7485 75.2198 36.8037 74.2772 37.1334L73.3627 37.4513L68.3745 32.0471L59.9129 32H59.858L51.3415 32.0667L46.3572 37.5141L45.4702 37.2002C44.5215 36.8665 43.4973 36.8104 42.5178 37.0384C41.5383 37.2665 40.6442 37.7691 39.9404 38.4875L36.6162 41.8509C36.5118 41.956 36.4418 42.0902 36.4152 42.2359C36.3885 42.3816 36.4066 42.532 36.467 42.6672L37.719 45.4616L36 50.1476L37.1107 54.3745L42.1774 73.6367C42.7611 75.8556 44.104 77.7997 45.9725 79.1312C45.9725 79.1312 52.1225 83.4679 58.19 87.4083C58.6698 87.7914 59.2656 88 59.8796 88C60.4935 88 61.0893 87.7914 61.5691 87.4083C68.3862 82.942 73.7787 79.1155 73.7787 79.1155C75.6458 77.7834 76.9873 75.8393 77.5699 73.621L82.6092 54.3509L83.7513 50.1162Z" fill="url(#paint-logo-brave)"/>
<path d="M61.2699 66.7137C60.9469 66.5691 60.6137 66.4484 60.273 66.3526H59.6726C59.3319 66.4484 58.9987 66.5691 58.6757 66.7137L57.1647 67.3416C56.6859 67.5418 55.9167 67.8989 55.4575 68.1265L52.6788 69.5747C52.5782 69.6074 52.4896 69.6694 52.4246 69.7528C52.3595 69.8362 52.3209 69.9372 52.3137 70.0428C52.3065 70.1483 52.3311 70.2536 52.3843 70.345C52.4375 70.4365 52.5168 70.5099 52.6121 70.5559L55.0258 72.2592C55.4496 72.5575 56.1168 73.0834 56.5093 73.4366L57.1883 74.0214C57.5807 74.3589 58.2204 74.9201 58.609 75.2655L59.2526 75.8346C59.4515 76.0003 59.7022 76.091 59.961 76.091C60.2199 76.091 60.4705 76.0003 60.6694 75.8346L61.3445 75.2459L62.7652 74.0057L63.4481 73.4091C63.8405 73.0677 64.5038 72.5418 64.9277 72.2317L67.3413 70.5049C67.4368 70.459 67.5162 70.3854 67.5692 70.2937C67.6221 70.202 67.6462 70.0964 67.6381 69.9908C67.63 69.8852 67.5903 69.7844 67.524 69.7018C67.4578 69.6192 67.3681 69.5585 67.2668 69.5276L64.492 68.1187C64.0289 67.8832 63.2597 67.53 62.777 67.3338L61.2699 66.7137Z" fill="white"/>
<path d="M78.3812 51.1638L78.4597 50.9126C78.4644 50.5766 78.4434 50.2407 78.3969 49.9079C78.1633 49.3134 77.8631 48.7473 77.5021 48.2203L75.9322 45.9165C75.6418 45.4848 75.1473 44.8019 74.8137 44.3977L72.7101 41.7642C72.5182 41.5076 72.3098 41.2637 72.0861 41.0343H72.0429C72.0429 41.0343 71.6191 41.1088 71.1089 41.2069L67.8946 41.827L66.4856 42.0978C66.0178 42.1198 65.5502 42.0519 65.1081 41.8977L62.5688 41.0774C62.0743 40.9165 61.258 40.685 60.7517 40.5751C60.2181 40.5184 59.6801 40.5184 59.1465 40.5751C58.6402 40.6928 57.8239 40.9204 57.3294 41.0813L54.7901 41.9055C54.348 42.0597 53.8803 42.1277 53.4126 42.1057L52.0036 41.8388L48.7854 41.2226C48.2752 41.1245 47.8553 41.046 47.8513 41.0499H47.8082C47.5845 41.2794 47.376 41.5233 47.1842 41.7799L45.0845 44.4134C44.7626 44.8058 44.2564 45.5044 43.9659 45.9322L42.3961 48.236C42.1249 48.6333 41.8773 49.0461 41.6543 49.4723C41.5198 49.9475 41.4486 50.4384 41.4424 50.9322L41.5209 51.1834C41.5587 51.3448 41.6072 51.5034 41.6661 51.6583C41.9918 52.0508 42.5491 52.7023 42.9063 53.0829L48.4008 58.9228C48.5832 59.1358 48.7053 59.3937 48.7543 59.6698C48.8033 59.9458 48.7774 60.23 48.6794 60.4927L47.7807 62.6238C47.5763 63.1884 47.5612 63.8041 47.7375 64.3781L47.9181 64.8726C48.213 65.6757 48.7187 66.3847 49.382 66.9252L50.2454 67.6277C50.4697 67.7895 50.7314 67.8917 51.006 67.9246C51.2806 67.9576 51.559 67.9202 51.8152 67.8161L54.8843 66.3522C55.4477 66.0702 55.9748 65.721 56.4542 65.3122L58.911 63.0947C59.0089 63.0064 59.088 62.8993 59.1437 62.7798C59.1994 62.6603 59.2306 62.5308 59.2354 62.3991C59.2401 62.2673 59.2184 62.136 59.1714 62.0128C59.1245 61.8896 59.0533 61.777 58.962 61.6819L53.4165 57.9456C53.2065 57.7966 53.057 57.5772 52.995 57.3273C52.9331 57.0774 52.9629 56.8135 53.079 56.5837L55.2297 52.5413C55.352 52.2939 55.4243 52.0247 55.4425 51.7493C55.4607 51.4739 55.4244 51.1975 55.3357 50.9362C55.0686 50.4375 54.6374 50.0466 54.1151 49.8294L47.3725 47.2823C46.8859 47.0978 46.9134 46.8898 47.4275 46.8584L51.3875 46.466C52.0084 46.4265 52.6318 46.4821 53.236 46.6308L56.6818 47.5923C56.9265 47.6661 57.1361 47.826 57.2717 48.0426C57.4074 48.2591 57.46 48.5174 57.4197 48.7697L56.0657 56.1638C55.9751 56.5733 55.9525 56.995 55.9989 57.4118C56.0539 57.5884 56.517 57.8043 57.0233 57.9299L59.123 58.3773C59.7327 58.4894 60.3578 58.4894 60.9675 58.3773L62.8553 57.9495C63.3616 57.8357 63.8208 57.5963 63.8796 57.4197C63.9248 57.0026 63.9009 56.581 63.809 56.1716L62.4471 48.7776C62.4068 48.5253 62.4594 48.2669 62.5951 48.0504C62.7307 47.8339 62.9403 47.6739 63.185 47.6002L66.6308 46.6347C67.235 46.4859 67.8584 46.4303 68.4793 46.4699L72.4393 46.8388C72.9574 46.8859 72.9809 47.0782 72.4982 47.2627L65.7595 49.8176C65.2373 50.0348 64.8061 50.4258 64.539 50.9244C64.3602 51.4524 64.3984 52.0297 64.6449 52.5296L66.7996 56.572C66.9157 56.8018 66.9455 57.0656 66.8835 57.3155C66.8216 57.5654 66.672 57.7848 66.4621 57.9338L60.9204 61.6779C60.8292 61.7731 60.758 61.8856 60.7111 62.0088C60.6641 62.132 60.6424 62.2634 60.6471 62.3952C60.6519 62.5269 60.6831 62.6564 60.7388 62.7759C60.7945 62.8954 60.8736 63.0025 60.9715 63.0908L63.4322 65.3082C63.9118 65.7157 64.4389 66.0636 65.0021 66.3444L68.0712 67.8043C68.3277 67.9079 68.6063 67.9446 68.8809 67.911C69.1555 67.8773 69.4171 67.7744 69.641 67.612L70.5045 66.9056C71.1684 66.3642 71.6742 65.6537 71.9684 64.8491L72.1489 64.3546C72.3252 63.7806 72.3101 63.1648 72.1057 62.6002L71.203 60.4691C71.1051 60.2064 71.0792 59.9223 71.1282 59.6462C71.1772 59.3701 71.2993 59.1122 71.4817 58.8993L76.9762 53.0515C77.3334 52.6591 77.8867 52.0311 78.2125 51.6269C78.2789 51.4764 78.3353 51.3217 78.3812 51.1638Z" fill="white"/>
<defs>
<linearGradient id="paint-logo-brave" x1="36.0157" y1="60.0024" x2="83.7356" y2="60.0024" gradientUnits="userSpaceOnUse">
<stop stop-color="#F1562B"/>
<stop offset="0.3" stop-color="#F1542B"/>
<stop offset="0.41" stop-color="#F04D2A"/>
<stop offset="0.49" stop-color="#EF4229"/>
<stop offset="0.5" stop-color="#EF4029"/>
<stop offset="0.56" stop-color="#E83E28"/>
<stop offset="0.67" stop-color="#E13C26"/>
<stop offset="1" stop-color="#DF3C26"/>
</linearGradient>
</defs>
</svg>
