<svg width="120" height="120" viewBox="0 0 120 120" fill="none" xmlns="http://www.w3.org/2000/svg">
<circle cx="60" cy="60" r="60" fill="white"/>
<path d="M48.346 51.0777C50.8089 47.413 54.8655 44.8713 59.2504 44.3109C64.8723 43.4374 70.9123 45.8542 74.2661 50.4713C72.9745 51.6666 71.6457 52.8181 70.3431 53.9981C68.8282 51.9468 66.8229 50.1407 64.3162 49.4467C60.8529 48.4878 56.8445 49.4029 54.3029 51.9906C52.3523 53.9784 51.0869 56.7214 51.1832 59.5389C51.0869 62.5885 52.1837 65.73 54.4014 67.8688C56.2425 69.7055 58.7841 70.9162 61.4112 70.8899C63.9682 70.9709 66.4923 69.9442 68.4232 68.2957C69.4105 67.466 70.1176 66.378 70.8269 65.3162C72.2061 66.3517 73.6466 67.3215 74.9317 68.4752C72.5608 72.129 68.6837 74.7823 64.3907 75.5748C57.6129 76.943 50.174 73.1776 47.2317 66.9275C44.8017 61.9317 45.1564 55.6618 48.346 51.0777Z" fill="white"/>
<path d="M58.0118 32.0995C59.796 31.9616 61.5912 31.9879 63.3798 32.0535C70.0612 32.568 76.4952 35.6526 81.1341 40.4798C85.2871 44.7137 88.0236 50.3202 88.7963 56.2004C89.7114 62.5162 88.3038 69.132 84.9784 74.5721C80.508 81.9782 72.4562 87.1403 63.8176 87.9021C61.1293 88.0576 58.4037 88.0817 55.7504 87.565C49.2726 86.3631 43.3004 82.7466 39.1716 77.6217C35.682 73.3002 33.4775 67.9279 33.0506 62.3805C32.9828 60.7802 32.9828 59.1777 33.0528 57.5774C33.5717 51.0536 36.5293 44.7772 41.1638 40.1645C45.6429 35.6613 51.6916 32.7519 58.0118 32.0995ZM58.4541 35.4096C53.0161 35.9744 47.773 38.3759 43.8609 42.2048C39.1169 46.719 36.2972 53.2056 36.306 59.7622C36.2184 64.3267 37.4925 68.8912 39.8525 72.7923C43.2764 78.4995 49.1018 82.705 55.6081 84.1214C60.652 85.2182 66.0506 84.7585 70.7946 82.6984C76.7864 80.1349 81.6639 75.0975 84.0195 69.0203C85.7271 64.7207 86.0927 59.9352 85.2805 55.3969C83.9451 48.0412 79.0325 41.4583 72.3774 38.0585C68.1303 35.8168 63.2221 34.952 58.4541 35.4096Z" fill="#EBA231"/>
<path d="M58.4541 35.4096C63.2222 34.9521 68.1303 35.8168 72.3774 38.0585C79.0325 41.4583 83.9451 48.0413 85.2805 55.397C86.0927 59.9352 85.7271 64.7208 84.0195 69.0203C81.664 75.0975 76.7864 80.1349 70.7946 82.6984C66.0506 84.7585 60.6521 85.2182 55.6081 84.1214C49.1018 82.705 43.2764 78.4996 39.8525 72.7923C37.4925 68.8912 36.2184 64.3267 36.306 59.7622C36.2972 53.2056 39.1169 46.719 43.8609 42.2049C47.773 38.376 53.0161 35.9744 58.4541 35.4096ZM48.3466 51.0777C45.1569 55.6619 44.8023 61.9317 47.2323 66.9275C50.1746 73.1776 57.6134 76.943 64.3912 75.5748C68.6842 74.7823 72.5613 72.129 74.9322 68.4752C73.6471 67.3215 72.2066 66.3517 70.8274 65.3162C70.1181 66.378 69.411 67.466 68.4237 68.2957C66.4928 69.9442 63.9687 70.9709 61.4117 70.8899C58.7847 70.9162 56.243 69.7056 54.4019 67.8688C52.1842 65.73 51.0874 62.5885 51.1838 59.5389C51.0874 56.7214 52.3528 53.9784 54.3034 51.9906C56.845 49.4029 60.8535 48.4879 64.3168 49.4467C66.8234 50.1407 68.8287 51.9468 70.3436 53.9981C71.6462 52.8181 72.975 51.6666 74.2667 50.4713C70.9128 45.8543 64.8728 43.4374 59.251 44.3109C54.866 44.8713 50.8094 47.413 48.3466 51.0777Z" fill="#1B5CC4"/>
</svg>
