<svg width="120" height="120" viewBox="0 0 120 120" fill="none" xmlns="http://www.w3.org/2000/svg">
<circle cx="60" cy="60" r="60" fill="white"/>
<path d="M59.8017 32H60.1526C64.0717 32.0337 67.9898 32.8637 71.5561 34.4986C77.6893 37.2582 82.7473 42.318 85.505 48.4521C87.1445 52.024 87.9643 55.9506 88.0055 59.8762V60.0625C87.9718 62.6424 87.6414 65.2262 86.9181 67.706C85.0895 74.2004 80.7915 79.9499 75.1047 83.5751C71.9277 85.6273 68.3221 87.0104 64.5911 87.6252C60.1835 88.3514 55.6009 88.022 51.3515 86.6398C47.9003 85.5225 44.6746 83.7202 41.9094 81.3732C38.7371 78.6884 36.1646 75.2924 34.4642 71.4987C31.7186 65.4666 31.2554 58.4445 33.1345 52.0923C34.3454 47.9468 36.5492 44.0988 39.4922 40.9396C41.9861 38.2576 45.0059 36.0641 48.3383 34.5435C51.9195 32.8862 55.8592 32.0393 59.8017 32ZM48.8146 36.7304C48.809 45.8506 48.8165 54.9708 48.8108 64.092C52.3706 61.8919 55.9359 59.7012 59.4994 57.5068C59.5181 49.7379 59.5022 41.969 59.5079 34.2C55.8152 34.2562 52.1432 35.1349 48.8146 36.7304ZM61.6948 34.2496C61.6939 47.2496 61.6976 60.2487 61.6929 73.2487C65.2115 71.0617 68.7366 68.887 72.2514 66.6953C72.2542 56.8901 72.2552 47.0859 72.2505 37.2816C69.0061 35.5251 65.3781 34.4808 61.6948 34.2496ZM39.0945 44.8606C37.2866 47.347 35.9269 50.1618 35.1146 53.1273C33.4311 59.1744 34.0553 65.8297 36.8552 71.4501C40.1099 69.4475 43.3617 67.4412 46.6183 65.4404C46.6361 56.2641 46.6192 47.0877 46.6267 37.9114C43.6977 39.7109 41.1074 42.07 39.0945 44.8606ZM74.4403 38.6029C74.4412 42.217 74.4403 45.831 74.4403 49.4459C76.7208 48.0965 79.0032 46.7509 81.2837 45.4014C79.4542 42.7326 77.1129 40.423 74.4403 38.6029ZM74.444 51.9838C74.4374 56.4363 74.4402 60.8897 74.4421 65.3431C78.2105 62.999 81.9874 60.6707 85.7521 58.3219C85.5106 54.4459 84.3699 50.6297 82.445 47.2571C79.778 48.832 77.1119 50.4098 74.444 51.9838ZM37.9108 73.3713C40.152 77.0527 43.3131 80.1782 47.0497 82.3305C51.2008 79.7449 55.3698 77.1883 59.5097 74.5887C59.506 69.7488 59.505 64.9089 59.5107 60.069C52.3107 64.5037 45.1089 68.9347 37.9108 73.3713ZM68.3033 71.7233C61.9671 75.6471 55.6402 79.5868 49.2984 83.5012C54.0784 85.6844 59.5322 86.3451 64.6968 85.384C68.6786 84.6616 72.4751 82.964 75.6839 80.501C78.4548 78.3777 80.7933 75.6902 82.503 72.6451C84.5299 69.062 85.6604 64.9828 85.7942 60.8691C79.9698 64.4962 74.1324 68.1037 68.3033 71.7233Z" fill="black"/>
</svg>
