<svg width="120" height="120" viewBox="0 0 120 120" fill="none" xmlns="http://www.w3.org/2000/svg">
<circle cx="60" cy="60" r="60" fill="white"/>
<path d="M62.6666 35.1577C67.7523 32.8999 73.3684 31.6635 78.9407 32.08C81.3563 32.2598 84.2192 33.198 85.0434 35.7408C85.8413 38.6957 84.4647 41.6638 83.11 44.2285C80.5321 48.7223 77.1212 52.7645 73.0922 56.0219C77.3361 59.6827 81.5931 63.5364 84.3507 68.4949C86.0561 71.6032 87.5029 75.1193 87.0908 78.7363C86.8891 81.0116 85.2451 83.0064 83.1188 83.778C79.2475 85.2555 74.9248 84.4927 71.1632 83.0459C62.6535 79.7052 55.3758 73.4797 50.3603 65.8775C48.8302 65.7591 47.3133 65.5487 45.8096 65.2462C48.3392 72.5108 49.9526 80.2883 49.1503 88C48.5891 73.7471 41.9471 60.428 33.0166 49.5684C31.8153 48.3146 31.8153 46.311 32.3151 44.7722C33.6172 44.1584 34.9237 45.0571 35.726 46.0436C37.9926 48.8319 39.6586 52.0323 41.5306 55.0837C42.7319 51.5808 44.7837 48.4066 47.344 45.7498C51.6229 41.1772 56.9672 37.6961 62.6666 35.1577ZM69.5849 36.3721C63.0656 38.8623 57.2347 43.0536 52.5349 48.183C54.7927 48.1217 57.0812 48.1787 59.2689 48.8144C62.5658 49.5509 65.4199 51.401 68.4494 52.7864C70.4091 51.8219 71.8778 50.1165 73.4254 48.6127C75.9068 45.9252 78.4277 43.0887 79.7123 39.612C80.2822 38.2398 80.2077 36.2274 78.6031 35.618C75.6657 34.5308 72.4521 35.4865 69.5849 36.3721ZM51.0574 52.2077C49.7509 52.6286 48.9705 54.0666 49.3739 55.3906C49.9263 57.0917 51.7808 58.0299 53.495 57.9773C56.8313 58.0123 60.1282 57.0566 63.1314 55.658C62.9648 54.9347 62.0792 54.7768 61.5487 54.391C58.3833 52.7557 54.6524 51.0328 51.0574 52.2077ZM67.9101 59.7353C63.7276 62.2825 59.1988 64.2905 54.4069 65.3909C58.8305 70.3669 64.2844 74.6546 70.6677 76.7722C72.7283 77.3728 75.1527 78.0699 77.1344 76.8686C78.739 75.8778 78.4672 73.6857 78.0068 72.1337C76.5294 67.4558 73.193 63.6679 69.7251 60.3184C69.2254 59.9107 68.5677 59.1215 67.9101 59.7353Z" fill="#F2B82D"/>
</svg>
