<svg width="120" height="120" viewBox="0 0 120 120" fill="none" xmlns="http://www.w3.org/2000/svg">
<circle cx="60" cy="60" r="60" fill="white"/>
<path d="M37.9435 44.9406C45.3165 40.5823 52.7411 36.2791 60.1692 32C68.2588 36.6477 76.3173 41.354 84.4241 45.9707C76.4896 50.522 68.5861 55.1249 60.655 59.6692L60.2863 59.8381C52.2553 55.242 44.2381 50.6115 36.3242 45.8295C36.81 45.4608 37.6713 45.509 37.9435 44.9406Z" fill="#322555"/>
<path d="M36.055 45.702L36.3238 45.8295C44.2376 50.6116 52.2549 55.242 60.2859 59.8381L60.6545 59.6693C60.5994 65.609 60.5787 71.5487 60.4133 77.4849C60.4857 80.7407 60.2755 84.0103 60.5546 87.2558C60.5718 87.3316 60.6132 87.4867 60.6338 87.5625C60.6132 87.6727 60.5787 87.8898 60.5615 88C59.049 86.6667 57.1506 85.9466 55.4452 84.913C50.0636 81.7916 44.6614 78.7115 39.2523 75.6348C38.2256 74.9595 36.9474 74.5633 36.1136 73.6434C35.962 68.2687 36.0895 62.8837 36.0171 57.5022C36.0619 53.5711 35.931 49.6365 36.055 45.702Z" fill="#D9EFEC"/>
<path d="M60.6542 59.6692C68.5853 55.1249 76.4888 50.522 84.4234 45.9707C84.4234 48.8923 84.3648 51.8139 84.5095 54.7321C84.5508 61.0611 84.4923 67.3902 84.6025 73.7192C78.1667 77.5263 71.6551 81.2127 65.1917 84.975C63.6861 85.8846 62.084 86.6425 60.6714 87.7071L60.6335 87.5624C60.6129 87.4866 60.5715 87.3316 60.5543 87.2558C60.2752 84.0103 60.4854 80.7407 60.413 77.4849C60.5784 71.5486 60.5991 65.6089 60.6542 59.6692Z" fill="#FBD845"/>
</svg>
