<svg width="120" height="120" viewBox="0 0 120 120" fill="none" xmlns="http://www.w3.org/2000/svg">
<circle cx="60" cy="60" r="60" fill="white"/>
<path d="M48.087 56.4C48.085 56.4156 48.148 56.4 48.083 56.4V71.0832H53.183V56.4C53.059 56.4 53.183 56.4 53.169 56.4C52.222 56.4 51.549 56.4 50.583 56.4C49.657 56.4 48.957 56.4 48.087 56.4Z" fill="black"/>
<path d="M53.3679 51.7748C53.3679 53.3073 52.1299 54.5496 50.6029 54.5496C49.0749 54.5496 47.8369 53.3073 47.8369 51.7748C47.8369 50.2423 49.0749 49 50.6029 49C52.1299 49 53.3679 50.2423 53.3679 51.7748Z" fill="black"/>
<path fill-rule="evenodd" clip-rule="evenodd" d="M62.1501 66.6486C62.1501 66.7208 62.2082 66.7793 62.2802 66.7793C63.3392 66.7793 65.6542 66.68 67.3082 65.2894C68.4992 64.2961 69.9281 62.4089 69.9281 59.9588C69.9281 57.5753 68.4992 56.0523 67.6392 55.1914C65.9852 53.5359 63.8352 53.3042 62.2802 53.3042C62.2082 53.3042 62.1501 53.3627 62.1501 53.4349V66.6486ZM62.8092 49C65.7202 49 68.7962 49.4304 71.5092 52.0461C73.4602 53.9333 74.6842 56.5158 74.6842 59.9588C74.6842 63.4353 73.4931 65.9516 71.6741 67.7727C68.6311 70.8515 64.8272 71.0832 62.9752 71.0832H57.0562V49H62.8092Z" fill="black"/>
<path fill-rule="evenodd" clip-rule="evenodd" d="M62.353 32.0926C58.209 31.7573 54.041 32.335 50.147 33.7846L49.609 33.985L51.354 38.6119C51.851 39.9295 53.3 40.5457 54.599 40.1933C56.919 39.5643 59.337 39.3396 61.743 39.5344C64.786 39.7806 67.737 40.691 70.384 42.2007C73.032 43.7103 75.311 45.7819 77.059 48.2674C78.349 50.1008 79.326 52.1261 79.957 54.2619C80.411 55.7964 81.917 56.9163 83.581 56.6325L88 55.8787L87.902 55.315C87.199 51.2432 85.598 47.376 83.217 43.9896C80.835 40.6032 77.729 37.781 74.123 35.7246C70.516 33.6681 66.498 32.428 62.353 32.0926ZM45.533 41.4516L42.685 38.031L42.243 38.3935C39.039 41.0267 36.46 44.3303 34.689 48.0684C32.918 51.8065 32 55.887 32 60.0184C32 64.1499 32.918 68.2304 34.689 71.9685C36.46 75.7066 39.039 79.0102 42.243 81.6434L42.685 82.0059L45.533 78.5853C46.614 77.2878 46.388 75.4223 45.273 74.2654C43.724 72.659 42.444 70.8102 41.486 68.7883C40.186 66.0448 39.513 63.0503 39.513 60.0184C39.513 56.9866 40.186 53.992 41.486 51.2486C42.444 49.2267 43.724 47.3779 45.273 45.7715C46.388 44.6146 46.614 42.7491 45.533 41.4516ZM83.581 63.3675C81.917 63.0837 80.411 64.2036 79.958 65.7381C79.326 67.8739 78.349 69.8992 77.059 71.7326C75.311 74.2181 73.032 76.2897 70.384 77.7993C67.737 79.309 64.786 80.2194 61.744 80.4656C59.496 80.6475 57.24 80.4636 55.062 79.9263C53.504 79.542 51.775 80.273 51.182 81.8457L49.609 86.015L50.147 86.2154C54.041 87.665 58.209 88.2427 62.353 87.9074C66.498 87.572 70.517 86.3319 74.123 84.2754C77.73 82.219 80.835 79.3968 83.217 76.0104C85.599 72.624 87.199 68.7568 87.903 64.685L88 64.1213L83.581 63.3675Z" fill="#0D51FF"/>
</svg>
