<svg width="120" height="120" viewBox="0 0 120 120" fill="none" xmlns="http://www.w3.org/2000/svg">
<circle cx="60" cy="60" r="60" fill="white"/>
<path d="M47.7836 51.4804C48.9615 49.6207 51.2321 48.6345 53.3931 48.7045C54.5132 48.668 55.8189 48.8202 56.5159 49.8185C56.6833 50.7986 56.7411 51.8426 56.4642 52.8044C55.8341 53.6962 54.8236 52.9505 54.014 52.8044C53.1892 52.4909 52.2121 53.0296 52.0691 53.9032C51.8469 55.2819 51.9686 56.6851 51.9778 58.073C52.5469 56.9773 53.5818 56.0003 54.8967 56.0398C56.7442 55.9303 58.3695 57.7473 58.0712 59.5736C57.8947 61.4819 55.6941 62.8942 53.8983 62.1424C52.9731 61.8746 52.4282 61.0376 51.9717 60.2523C51.9199 65.6031 51.9686 70.957 51.9473 76.3078C52.0143 76.9348 51.6247 77.7109 50.9186 77.7109C49.8624 77.7627 48.7849 77.8144 47.7349 77.6531C46.8948 77.3852 47.0652 76.3626 47.0226 75.6777C47.0531 70.75 47.0165 65.8192 47.0439 60.8915C46.0213 60.7423 44.5603 61.2841 43.9759 60.1458C43.632 59.1292 43.8176 58 44.1646 57.0077C45.1203 56.8555 46.0882 56.7916 47.0561 56.7277C47.0683 54.9715 46.8096 53.0509 47.7836 51.4804Z" fill="#FEFFFF"/>
<path d="M59.3222 57.236C59.8396 56.4964 60.8319 56.7308 61.6019 56.676C62.6977 56.7247 64.1708 56.4203 64.7917 57.6013C65.9088 59.4366 67.0228 61.278 68.0911 63.1438C69.2842 61.3024 70.2582 59.327 71.4057 57.4552C72.0722 56.3016 73.6215 56.7764 74.7142 56.6973C75.5664 56.5634 76.6165 57.4156 76.1995 58.3074C75.5481 59.7105 74.5072 60.8885 73.7128 62.2094C72.5623 63.8347 71.6187 65.6123 70.2765 67.0915C71.3052 68.242 71.0617 70.2295 69.6342 70.9296C68.8855 71.444 68.012 71.0666 67.2023 70.9783C66.3471 72.354 65.5892 73.7907 64.7461 75.1786C64.2378 75.9791 63.8817 76.9348 63.1086 77.5222C62.442 77.7809 61.7024 77.6805 61.0023 77.7079C60.3479 77.6744 59.5444 77.7749 59.1092 77.1631C58.677 76.4691 59.1944 75.7417 59.5718 75.1664C61.2124 72.7315 62.8042 70.2661 64.4478 67.8311C64.6883 67.4202 65.16 66.9089 64.7096 66.4615C63.0386 63.9778 61.2732 61.555 59.587 59.0805C59.2583 58.5509 58.7561 57.793 59.3222 57.236Z" fill="#FEFFFF"/>
<path d="M37.4202 32.1986C39.0517 32.5365 40.7409 31.5412 42.2658 32.4817C43.4011 32.083 44.7677 31.6721 45.8604 32.4026C46.5026 32.78 46.7522 33.5439 46.7431 34.2531C46.7826 35.8024 46.7218 37.3546 46.7522 38.9069C46.3109 38.8734 45.8695 38.8369 45.4312 38.8034C45.3612 37.1385 45.5926 35.4493 45.2943 33.8026C44.8286 32.8804 43.6111 33.273 42.8228 33.4831C42.7558 35.2606 42.7741 37.0411 42.7893 38.8187C42.3206 38.846 41.8519 38.8704 41.3801 38.8947C41.2888 37.2268 41.4958 35.5436 41.2644 33.8848C40.887 32.8743 39.6421 33.267 38.866 33.477C38.8082 35.2484 38.8325 37.0198 38.8325 38.7913C38.3608 38.8308 37.892 38.8704 37.4233 38.91C37.4142 36.6729 37.405 34.4357 37.4202 32.1986Z" fill="#9E9DA0"/>
<path d="M48.4258 33.2913C49.5246 31.5199 52.5865 31.6264 53.5514 33.4739C53.9501 34.1466 53.9075 34.9562 53.9745 35.708C52.3765 35.7323 50.7786 35.7019 49.1837 35.7354C49.4546 36.4233 49.6311 37.2785 50.3799 37.6164C51.3995 38.1399 52.4892 37.4551 53.4784 37.1842C53.5027 37.4886 53.5453 38.0973 53.5697 38.4017C52.2091 39.0195 50.5108 39.3635 49.1837 38.4808C47.5462 37.3668 47.4914 34.8801 48.4258 33.2913ZM49.1654 34.6853C50.2733 34.7371 51.3843 34.7401 52.4952 34.6975C52.2457 34.0066 51.8135 33.1787 50.946 33.2304C50.0298 33.1452 49.5216 33.9883 49.1654 34.6853Z" fill="#9E9DA0"/>
<path d="M54.7417 32.2382C55.2957 32.2504 55.8526 32.2717 56.4066 32.3173C57.0427 32.2686 57.6758 32.2108 58.3119 32.153C58.3241 32.6004 58.3393 33.0448 58.3515 33.4922C57.6576 33.4922 56.9636 33.4952 56.2696 33.5044C56.154 35.294 56.2179 37.0898 56.2057 38.8826C55.737 38.8795 55.2683 38.8734 54.7995 38.8704C54.7326 36.6607 54.8117 34.4479 54.7417 32.2382Z" fill="#9E9DA0"/>
<path d="M60.7836 32.2808C61.8976 31.8364 63.109 32.083 64.226 32.3782C64.2229 32.8378 64.2169 33.2974 64.2108 33.757C63.2429 33.4191 62.0802 32.8347 61.1275 33.5257C59.9192 34.5088 59.974 36.8098 61.3497 37.6194C62.2902 38.1216 63.3251 37.6012 64.2382 37.2998C64.2321 37.7534 64.226 38.2069 64.2169 38.6634C63.0207 38.9465 61.6997 39.26 60.534 38.706C57.9986 37.5859 58.163 33.1969 60.7836 32.2808Z" fill="#9E9DA0"/>
<path d="M65.6443 32.1925C66.0765 32.1986 66.5087 32.2017 66.9409 32.2078C66.9866 33.8118 66.8101 35.428 67.0201 37.0259C67.4523 38.143 68.8311 37.8386 69.7229 37.5677C69.7624 35.781 69.7381 33.9944 69.7472 32.2078C70.1916 32.2138 70.639 32.2199 71.0834 32.226C70.9556 34.4631 71.1412 36.7033 70.9951 38.9404C70.5325 38.8613 70.0698 38.7852 69.6072 38.7121C68.3106 39.1565 66.4418 39.2661 65.763 37.799C65.483 35.9515 65.7235 34.0583 65.6443 32.1925Z" fill="#9E9DA0"/>
<path d="M72.5993 32.1773C73.0955 32.2321 73.5916 32.2869 74.0877 32.3386C74.7665 32.2534 75.4452 32.2047 76.127 32.1804C76.1179 32.6217 76.1087 33.063 76.0966 33.5044C75.3691 33.4952 74.6417 33.4891 73.9142 33.4983C73.8138 35.2727 73.8594 37.0503 73.8594 38.8247C73.4425 38.8308 73.0224 38.8369 72.6054 38.843C72.5872 36.6211 72.5933 34.3992 72.5993 32.1773Z" fill="#9E9DA0"/>
<path d="M76.6748 32.1925C77.2014 32.2047 77.731 32.2199 78.2575 32.2351C78.8541 33.7631 79.4293 35.3001 80.032 36.825C80.5677 35.291 81.0395 33.7357 81.563 32.1956C82.0165 32.2138 82.47 32.2351 82.9266 32.2565C82.1382 34.6397 81.2008 36.9711 80.379 39.3422C80.0959 40.2066 79.6576 41.0101 79.058 41.698C78.5436 41.6858 78.0323 41.6736 77.5179 41.6645C77.5331 41.2323 77.5483 40.8031 77.5666 40.3709C77.8375 40.3466 78.3793 40.2948 78.6502 40.2705C78.8602 39.5887 79.4172 38.8704 79.0337 38.1521C78.2606 36.1615 77.317 34.2318 76.6748 32.1925Z" fill="#9E9DA0"/>
<path d="M57.2101 41.8441C61.5534 41.3327 66.0429 41.978 70.0027 43.8621C74.9792 46.1996 79.0821 50.3695 81.307 55.3976C83.7633 60.8428 83.955 67.2437 81.8944 72.8441C80.2904 77.227 77.3045 81.0834 73.4908 83.7679C69.114 86.8999 63.5988 88.373 58.2419 87.9195C53.7646 87.5603 49.3848 85.8802 45.8723 83.0709C41.3403 79.5707 38.2235 74.3142 37.2983 68.6651C36.5343 63.7891 37.2222 58.6422 39.5445 54.2563C42.9078 47.5388 49.7591 42.7633 57.2101 41.8441ZM47.7838 51.4804C46.8098 53.051 47.0685 54.9715 47.0563 56.7277C46.0884 56.7917 45.1205 56.8556 44.1648 57.0078C43.8178 58 43.6322 59.1292 43.9761 60.1458C44.5605 61.2842 46.0215 60.7424 47.0442 60.8915C47.0168 65.8193 47.0533 70.75 47.0229 75.6778C47.0655 76.3626 46.895 77.3853 47.7351 77.6531C48.7852 77.8144 49.8626 77.7627 50.9188 77.711C51.6249 77.711 52.0145 76.9348 51.9475 76.3078C51.9689 70.957 51.9202 65.6031 51.9719 60.2523C52.4285 61.0376 52.9733 61.8746 53.8986 62.1425C55.6943 62.8943 57.8949 61.482 58.0715 59.5736C58.3697 57.7474 56.7444 55.9303 54.8969 56.0399C53.582 56.0003 52.5472 56.9773 51.978 58.0731C51.9689 56.6851 51.8471 55.282 52.0693 53.9032C52.2123 53.0297 53.1894 52.4909 54.0142 52.8044C54.8238 52.9505 55.8343 53.6962 56.4644 52.8044C56.7414 51.8426 56.6835 50.7986 56.5161 49.8186C55.8191 48.8202 54.5134 48.668 53.3933 48.7046C51.2323 48.6346 48.9617 49.6207 47.7838 51.4804ZM59.3224 57.236C58.7563 57.793 59.2585 58.5509 59.5872 59.0805C61.2734 61.555 63.0388 63.9778 64.7097 66.4615C65.1602 66.9089 64.6884 67.4202 64.448 67.8311C62.8044 70.2661 61.2125 72.7315 59.572 75.1664C59.1946 75.7417 58.6771 76.4691 59.1094 77.1631C59.5446 77.7749 60.3481 77.6744 61.0025 77.7079C61.7026 77.6805 62.4422 77.781 63.1088 77.5223C63.8819 76.9348 64.238 75.9791 64.7463 75.1786C65.5894 73.7907 66.3473 72.3541 67.2025 70.9783C68.0122 71.0666 68.8857 71.444 69.6344 70.9296C71.0619 70.2296 71.3054 68.242 70.2767 67.0915C71.6189 65.6123 72.5625 63.8348 73.713 62.2094C74.5074 60.8885 75.5483 59.7106 76.1997 58.3074C76.6167 57.4156 75.5666 56.5634 74.7144 56.6973C73.6217 56.7764 72.0724 56.3016 71.4059 57.4552C70.2584 59.3271 69.2844 61.3024 68.0913 63.1438C67.023 61.2781 65.909 59.4366 64.7919 57.6013C64.171 56.4203 62.6979 56.7247 61.6021 56.676C60.8321 56.7308 59.8398 56.4964 59.3224 57.236ZM71.8016 70.9996C70.1975 71.514 69.2114 73.4163 69.8201 75.0173C70.4015 76.8587 72.8425 77.7536 74.4587 76.6578C76.2179 75.6565 76.3884 72.838 74.8239 71.587C74.0143 70.8596 72.8242 70.7105 71.8016 70.9996Z" fill="#E40E66"/>
</svg>
