<svg width="120" height="120" viewBox="0 0 120 120" fill="none" xmlns="http://www.w3.org/2000/svg">
<circle cx="60" cy="60" r="60" fill="white"/>
<path d="M36.1764 33.6296C35.971 33.1471 35.7982 32.1265 36.5481 32.0907C39.2576 31.9081 41.9867 32.0679 44.7059 32.0092C45.4917 32.0092 46.6101 31.9929 46.91 32.9123C50.0825 40.8419 53.2518 48.778 56.4275 56.7109C57.6763 59.6681 58.6968 62.7298 60.0956 65.6153C64.4092 54.81 68.7392 44.0111 73.0496 33.2058C73.2453 32.4917 73.93 31.9863 74.6701 32.0255C77.5165 32.0157 80.3662 31.9798 83.2094 32.045C84.0995 31.9603 84.3375 33.0134 83.9137 33.6329C76.5808 51.3147 69.2381 68.9932 61.9052 86.6718C61.5172 88.051 59.5772 88.439 58.6153 87.4412C58.123 86.7957 57.9013 85.9968 57.5785 85.2665C50.451 68.0509 43.3039 50.8452 36.1764 33.6296Z" fill="#3931AB"/>
</svg>
