<svg width="120" height="120" viewBox="0 0 120 120" fill="none" xmlns="http://www.w3.org/2000/svg">
<circle cx="60" cy="60" r="60" fill="white"/>
<path d="M110.095 52.0549C111.646 51.7086 113.298 53.051 113.225 54.6462C113.314 55.6001 112.711 56.4193 112.072 57.0587C111.154 57.9622 110.374 58.9921 109.459 59.8977C107.742 61.8096 106.031 63.7286 104.275 65.6056C103.888 66.0393 103.523 66.4978 103.075 66.8709C102.402 67.3828 101.479 67.4773 100.68 67.2553C99.7469 66.9675 99.197 66.1144 98.5145 65.4822C97.2769 64.184 96.0835 62.8447 94.81 61.5804C94.1861 60.9965 93.8191 60.1228 93.9157 59.2676C94.0514 58.2603 94.7802 57.3352 95.7598 57.0289C96.323 56.8171 96.9603 56.8017 97.5174 57.0464C98.1948 57.2961 98.6851 57.843 99.1672 58.3549C99.9083 59.0641 100.533 59.8843 101.299 60.5679C101.415 60.6131 101.559 60.6316 101.644 60.5165C102.235 59.9388 102.734 59.2748 103.334 58.7033C104.857 57.0073 106.382 55.3144 107.93 53.642C108.519 52.9646 109.147 52.1917 110.095 52.0549Z" fill="#0035F5"/>
<path d="M11.2593 52.3675C11.5923 52.1794 12.0199 52.1578 12.3571 52.3459C13.0365 52.6512 13.5432 53.2114 14.05 53.7367C14.9843 54.6484 15.8652 55.6177 16.8325 56.4934C17.6712 55.6526 18.5285 54.8283 19.3333 53.9546C19.9778 53.306 20.5966 52.5536 21.4857 52.2431C22.2207 52.0838 22.8333 52.6296 23.3482 53.0716C23.8838 53.602 24.446 54.1961 24.5899 54.9629C24.6074 55.483 24.2877 55.9487 23.9824 56.3444C22.8477 57.6714 21.5186 58.8134 20.3355 60.0941C21.4559 61.27 22.6606 62.3637 23.7512 63.5673C24.1623 64.0319 24.6105 64.5778 24.5879 65.2325C24.4604 65.9233 23.9681 66.468 23.4993 66.9594C23.0142 67.3911 22.4704 67.9143 21.7735 67.8834C21.2082 67.9225 20.7343 67.5401 20.3345 67.1865C19.1689 66.0219 18.0063 64.8522 16.8345 63.6927C16.4018 64.0073 16.0636 64.4256 15.6741 64.7885C14.8302 65.5902 14.0418 66.4475 13.1969 67.2472C12.7045 67.7292 11.9932 68.0592 11.3066 67.8135C10.6467 67.5175 10.1296 66.9943 9.65271 66.466C9.34537 66.0795 9.04214 65.6416 9.00308 65.1338C9.07298 64.401 9.59412 63.8181 10.0926 63.3176C11.0763 62.3483 12.0158 61.3358 13.0118 60.3778C13.127 60.2678 13.3181 60.0746 13.1383 59.9286C12.0765 58.8535 11.0147 57.7783 9.94463 56.7114C9.51189 56.2488 9.0627 55.7143 9 55.0585C9.05859 54.5076 9.37312 54.0152 9.7411 53.6143C10.1995 53.1466 10.6487 52.6399 11.2593 52.3675Z" fill="black"/>
<path d="M45.9021 54.2095C47.0636 53.1097 48.6342 52.3973 50.248 52.421C50.8606 52.4282 51.4835 52.3912 52.0858 52.531C53.1518 52.7098 54.119 53.2392 54.9639 53.896C55.9363 53.1148 57.1122 52.5556 58.3642 52.4405C58.947 52.4117 59.5318 52.4169 60.1157 52.4374C61.6678 52.5505 63.1777 53.2772 64.1933 54.4634C65.4062 55.8654 66.1093 57.7238 66.0517 59.5812C66.0548 61.637 66.0579 63.6917 66.0497 65.7475C66.0774 66.3663 65.7639 67.0827 65.1318 67.278C64.5222 67.5473 63.8438 67.4466 63.1983 67.4672C62.5333 67.4939 61.7819 67.3243 61.3512 66.7774C61.1148 66.4156 61.0428 65.9706 60.9935 65.5491C60.9698 63.4923 61.0058 61.4345 60.976 59.3777C60.8681 58.7486 60.606 58.06 60.0036 57.7536C59.6511 57.5378 59.2152 57.5316 58.8205 57.6005C58.0548 57.7999 57.5501 58.54 57.3959 59.2811C57.3661 61.4725 57.4031 63.664 57.3784 65.8554C57.2941 66.317 57.1379 66.8175 56.7422 67.1084C56.3146 67.3993 55.7903 67.4877 55.2815 67.4641C54.4859 67.4445 53.5948 67.5946 52.9102 67.0889C52.3438 66.6551 52.351 65.8791 52.2791 65.2366C52.2698 63.3505 52.2801 61.4633 52.2729 59.5761C52.277 58.8298 51.9008 58.0271 51.2029 57.6971C50.8873 57.5275 50.5111 57.5522 50.1678 57.5902C49.2345 57.7989 48.6856 58.7784 48.665 59.682C48.6589 61.3615 48.664 63.0411 48.663 64.7206C48.6506 65.3333 48.7421 65.9808 48.444 66.5462C48.2128 67.2328 47.4059 67.4713 46.7511 67.462C45.9555 67.4363 45.1024 67.5936 44.3705 67.1958C43.762 66.9049 43.613 66.1556 43.6089 65.545C43.6048 63.3844 43.5914 61.2248 43.6161 59.0642C43.7353 57.2418 44.5093 55.4234 45.9021 54.2095Z" fill="black"/>
<path d="M69.2718 55.0791C70.3634 53.6729 71.9968 52.6492 73.7801 52.4436C74.9766 52.3901 76.2172 52.3665 77.3438 52.8362C77.9996 53.0726 78.5814 53.4663 79.1221 53.9001C80.2825 52.9771 81.738 52.3572 83.2408 52.421C84.4856 52.3593 85.7632 52.5813 86.8476 53.2165C88.779 54.3246 89.9518 56.4811 90.1872 58.6551C90.2335 61.0192 90.2047 63.3844 90.2057 65.7485C90.2335 66.3385 89.9714 67.0262 89.3793 67.2461C88.7194 67.5792 87.9588 67.4342 87.2485 67.4641C86.5526 67.4836 85.72 67.2338 85.4076 66.5544C85.1876 66.1114 85.238 65.6067 85.1681 65.1318C85.1516 63.3145 85.1722 61.4962 85.1588 59.6789C85.164 59.0426 84.9347 58.3889 84.4671 57.9469C83.9182 57.4432 83.0249 57.437 82.436 57.8718C81.8141 58.321 81.5016 59.132 81.5499 59.8855C81.552 61.8066 81.552 63.7277 81.5509 65.6488C81.5643 66.0857 81.4111 66.5143 81.1768 66.8782C80.9311 67.205 80.5087 67.3191 80.1345 67.4281C79.4284 67.4918 78.715 67.4733 78.0068 67.4445C77.5443 67.351 77.019 67.1865 76.7733 66.7456C76.6007 66.4084 76.4937 66.0312 76.5009 65.6498C76.4886 63.6609 76.5051 61.6699 76.4927 59.6799C76.43 59.0447 76.245 58.3632 75.7393 57.9325C75.3487 57.5861 74.7936 57.4977 74.2941 57.5994C73.6599 57.7824 73.1799 58.3313 72.9763 58.946C72.744 59.6501 72.8314 60.3953 72.817 61.123C72.8098 62.7337 72.8304 64.3444 72.8067 65.9541C72.7379 66.3899 72.558 66.8556 72.1921 67.1269C71.8272 67.3181 71.4273 67.4733 71.01 67.4599C70.3912 67.463 69.7683 67.4918 69.1516 67.426C68.7671 67.3047 68.3272 67.1742 68.1031 66.8103C67.7896 66.2748 67.7465 65.6355 67.7547 65.029C67.7619 63.1079 67.7413 61.1868 67.766 59.2656C67.8688 57.7701 68.3416 56.2704 69.2718 55.0791Z" fill="black"/>
<path d="M38.4761 52.6872C39.2984 52.5988 40.1773 52.6297 40.9348 52.9966C41.4806 53.2937 41.5896 53.9824 41.6595 54.5405C41.678 56.6322 41.6677 58.724 41.6656 60.8147C41.5721 62.8232 40.7498 64.8769 39.1381 66.1422C37.8028 67.1259 36.1459 67.5494 34.5218 67.7365C33.0664 67.8136 31.5872 67.5998 30.2366 67.0406C29.5572 66.7446 28.9106 66.3458 28.4028 65.7989C27.1036 64.3691 26.4283 62.4275 26.4386 60.5053C26.4437 58.4485 26.4242 56.3907 26.4488 54.3339C26.5146 53.8015 26.7305 53.1806 27.2609 52.9483C27.9495 52.604 28.741 52.7458 29.4821 52.7211C30.1441 52.6811 30.8533 52.9411 31.2295 53.5095C31.4063 53.859 31.5019 54.2506 31.4875 54.6433C31.5081 56.5994 31.4875 58.5554 31.4978 60.5115C31.5718 61.2176 31.8144 61.9814 32.4363 62.3935C33.0818 62.8869 33.9401 62.8808 34.7079 62.7872C35.7687 62.5827 36.5858 61.5846 36.6136 60.5094C36.6259 58.4866 36.6105 56.4626 36.6208 54.4387C36.6023 54.0327 36.7894 53.6534 36.9918 53.3142C37.329 52.8466 37.9447 52.7561 38.4761 52.6872Z" fill="black"/>
</svg>
