<svg width="76" height="88" viewBox="0 0 76 88" fill="none" xmlns="http://www.w3.org/2000/svg">
<path d="M30.1305 37.035C27.6558 37.035 25.7021 39.2084 25.7021 41.8599C25.7021 44.5114 27.6992 46.6847 30.1305 46.6847C32.6051 46.6847 34.5588 44.5114 34.5588 41.8599C34.6022 39.2084 32.6051 37.035 30.1305 37.035ZM45.9769 37.035C43.5022 37.035 41.5486 39.2084 41.5486 41.8599C41.5486 44.5114 43.5456 46.6847 45.9769 46.6847C48.4515 46.6847 50.4052 44.5114 50.4052 41.8599C50.4052 39.2084 48.4515 37.035 45.9769 37.035Z" fill="white"/>
<path d="M67.0759 0.566406H8.90004C3.99416 0.566406 0 4.56537 0 9.52061V68.288C0 73.2432 3.99416 77.2422 8.90004 77.2422H58.1325L55.8315 69.2008L61.3886 74.3734L66.6418 79.2417L75.976 87.5004V9.52061C75.976 4.56537 71.9818 0.566406 67.0759 0.566406ZM50.3178 57.3343C50.3178 57.3343 48.7549 55.4652 47.4524 53.8135C53.1398 52.2052 55.3105 48.6409 55.3105 48.6409C53.5305 49.8145 51.8373 50.6404 50.3178 51.2055C48.147 52.1183 46.0631 52.7268 44.0226 53.0746C39.8548 53.857 36.0343 53.6396 32.7782 53.0311C30.3036 52.5529 28.1762 51.8575 26.3962 51.162C25.3977 50.7708 24.3123 50.2927 23.2269 49.6841C23.0967 49.5972 22.9664 49.5537 22.8362 49.4668C22.7494 49.4233 22.706 49.3799 22.6625 49.3364C21.8811 48.9017 21.4469 48.5974 21.4469 48.5974C21.4469 48.5974 23.5308 52.0748 29.0445 53.7266C27.7421 55.3783 26.1357 57.3343 26.1357 57.3343C16.541 57.03 12.8942 50.7273 12.8942 50.7273C12.8942 36.731 19.1459 25.3861 19.1459 25.3861C25.3977 20.6916 31.3455 20.822 31.3455 20.822L31.7797 21.3436C23.965 23.6039 20.3616 27.0378 20.3616 27.0378C20.3616 27.0378 21.3167 26.5162 22.923 25.7773C27.5684 23.7343 31.2587 23.1692 32.7782 23.0388C33.0387 22.9954 33.2558 22.9519 33.5162 22.9519C36.1646 22.6042 39.1602 22.5172 42.286 22.865C46.4104 23.3431 50.8388 24.5602 55.3539 27.0378C55.3539 27.0378 51.9241 23.7778 44.5436 21.5175L45.1514 20.822C45.1514 20.822 51.0993 20.6916 57.351 25.3861C57.351 25.3861 63.6027 36.731 63.6027 50.7273C63.6027 50.7273 59.9125 57.03 50.3178 57.3343Z" fill="white"/>
</svg>
