<svg width="125" height="26" viewBox="0 0 125 26" fill="none" xmlns="http://www.w3.org/2000/svg">
<path d="M18.5785 1.5068V16.6709C18.5785 18.4022 18.2045 19.9196 17.4564 21.2234C16.719 22.5165 15.645 23.5156 14.2344 24.221C12.8345 24.9156 11.1567 25.2629 9.20108 25.2629C6.29435 25.2629 4.03415 24.4935 2.42049 22.9546C0.806831 21.4157 0 19.2998 0 16.6068V1.5068H3.84714V16.3343C3.84714 18.2686 4.29597 19.6952 5.19364 20.6143C6.09131 21.5333 7.46986 21.9928 9.32932 21.9928C12.9414 21.9928 14.7474 20.096 14.7474 16.3023V1.5068H18.5785Z" fill="#242425"/>
<path d="M39.7698 24.9423H35.9868V14.0421C35.9868 12.6742 35.7089 11.6536 35.1532 10.9804C34.6082 10.3071 33.7373 9.9705 32.5404 9.9705C30.9481 9.9705 29.7833 10.4407 29.0459 11.3811C28.3085 12.3215 27.9399 13.8978 27.9399 16.1099V24.9423H24.1729V7.21339H27.1223L27.6513 9.5377H27.8437C28.378 8.69347 29.1367 8.04159 30.1199 7.58207C31.1031 7.12255 32.1931 6.89279 33.39 6.89279C37.6432 6.89279 39.7698 9.05681 39.7698 13.3848V24.9423Z" fill="#242425"/>
<path d="M48.7785 24.9423H45.0115V7.21339H48.7785V24.9423ZM44.7871 2.51667C44.7871 1.84342 44.9688 1.32513 45.3321 0.961785C45.7062 0.598444 46.2351 0.416774 46.9191 0.416774C47.5816 0.416774 48.0946 0.598444 48.4579 0.961785C48.832 1.32513 49.019 1.84342 49.019 2.51667C49.019 3.15786 48.832 3.66547 48.4579 4.0395C48.0946 4.40284 47.5816 4.58451 46.9191 4.58451C46.2351 4.58451 45.7062 4.40284 45.3321 4.0395C44.9688 3.66547 44.7871 3.15786 44.7871 2.51667Z" fill="#242425"/>
<path d="M66.0907 19.8929C66.0907 21.6241 65.4602 22.9546 64.1992 23.8843C62.9381 24.8034 61.1321 25.2629 58.7811 25.2629C56.4194 25.2629 54.5225 24.9049 53.0905 24.1889V20.9349C55.1744 21.8966 57.114 22.3775 58.9093 22.3775C61.2283 22.3775 62.3878 21.6776 62.3878 20.2776C62.3878 19.8288 62.2596 19.4548 62.0031 19.1556C61.7466 18.8563 61.3245 18.5464 60.7367 18.2258C60.149 17.9052 59.3314 17.5419 58.2842 17.1358C56.243 16.345 54.8591 15.5542 54.1325 14.7634C53.4165 13.9726 53.0585 12.9467 53.0585 11.6857C53.0585 10.1682 53.6676 8.99269 54.8859 8.15914C56.1148 7.31491 57.7819 6.89279 59.8871 6.89279C61.971 6.89279 63.9427 7.31491 65.8021 8.15914L64.5839 10.9964C62.671 10.2056 61.0627 9.81021 59.7589 9.81021C57.7712 9.81021 56.7774 10.3766 56.7774 11.5094C56.7774 12.0651 57.0338 12.5353 57.5468 12.92C58.0704 13.3047 59.2032 13.8337 60.9451 14.5069C62.4092 15.0733 63.4725 15.5916 64.135 16.0618C64.7976 16.532 65.2892 17.077 65.6098 17.6968C65.9304 18.306 66.0907 19.038 66.0907 19.8929Z" fill="#242425"/>
<path d="M77.9206 25.2629C75.1635 25.2629 73.0048 24.4614 71.4446 22.8584C69.8951 21.2448 69.1203 19.0273 69.1203 16.2061C69.1203 13.31 69.8416 11.0338 71.2843 9.3774C72.727 7.721 74.7093 6.89279 77.2313 6.89279C79.5717 6.89279 81.4205 7.60345 82.7776 9.02475C84.1348 10.4461 84.8134 12.4017 84.8134 14.8916V16.9274H72.9995C73.0529 18.6479 73.5178 19.9731 74.3941 20.9028C75.2704 21.8218 76.5047 22.2814 78.0969 22.2814C79.1442 22.2814 80.1167 22.1852 81.0144 21.9928C81.9227 21.7898 82.8952 21.4585 83.9318 20.999V24.0607C83.0127 24.4988 82.083 24.8087 81.1426 24.9904C80.2022 25.1721 79.1282 25.2629 77.9206 25.2629ZM77.2313 9.74609C76.0345 9.74609 75.0727 10.1255 74.346 10.8842C73.63 11.6429 73.2025 12.749 73.0636 14.2024H81.1105C81.0892 12.7383 80.7365 11.6323 80.0526 10.8842C79.3686 10.1255 78.4282 9.74609 77.2313 9.74609Z" fill="#242425"/>
<path d="M104.69 24.9423H100.907V14.0421C100.907 12.6742 100.629 11.6536 100.074 10.9804C99.5287 10.3071 98.6578 9.9705 97.4609 9.9705C95.8686 9.9705 94.7038 10.4407 93.9664 11.3811C93.229 12.3215 92.8603 13.8978 92.8603 16.1099V24.9423H89.0934V7.21339H92.0428L92.5718 9.5377H92.7642C93.2985 8.69347 94.0572 8.04159 95.0404 7.58207C96.0235 7.12255 97.1136 6.89279 98.3104 6.89279C102.564 6.89279 104.69 9.05681 104.69 13.3848V24.9423Z" fill="#242425"/>
<path d="M115.911 25.2629C113.699 25.2629 111.973 24.4614 110.734 22.8584C109.494 21.2554 108.874 19.0059 108.874 16.1099C108.874 13.2032 109.499 10.943 110.75 9.32932C112.011 7.70497 113.752 6.89279 115.975 6.89279C118.305 6.89279 120.079 7.75306 121.297 9.47358H121.489C121.308 8.20189 121.217 7.19736 121.217 6.45999V0H125V24.9423H122.051L121.393 22.618H121.217C120.009 24.3813 118.241 25.2629 115.911 25.2629ZM116.921 22.2172C118.471 22.2172 119.598 21.7844 120.303 20.9188C121.009 20.0425 121.372 18.6266 121.393 16.6709V16.142C121.393 13.9085 121.03 12.3215 120.303 11.3811C119.577 10.4407 118.438 9.9705 116.889 9.9705C115.564 9.9705 114.543 10.5102 113.827 11.5895C113.111 12.6582 112.753 14.1863 112.753 16.174C112.753 18.1403 113.101 19.6418 113.795 20.6784C114.49 21.7043 115.532 22.2172 116.921 22.2172Z" fill="#242425"/>
</svg>
