<svg viewBox="0 0 195 62" fill="none" xmlns="http://www.w3.org/2000/svg">
<path d="M68.1562 16.7296H80.909C89.0158 16.7296 92.6663 21.2288 92.6663 27.3598C92.6663 33.4909 89.0158 38.006 80.909 38.006H74.2719V48.0659H68.1562V16.7296ZM81.0039 32.3502C85.0652 32.3502 86.4558 30.2432 86.4558 27.3598C86.4558 24.4765 85.0652 22.4328 81.0039 22.4328H74.2719V32.3502H81.0039Z" fill="#000E33"/>
<path d="M94.25 36.4694C94.25 28.9443 99.5123 23.7638 107.003 23.7638C114.414 23.7638 119.566 28.7858 119.566 36.4061V48.0344H114.367V43.3926C112.929 46.8938 109.737 48.6681 106.023 48.6681C100.287 48.684 94.25 44.5649 94.25 36.4694ZM113.909 36.2476C113.909 32.0652 111.127 29.1027 106.955 29.1027C102.783 29.1027 100.002 32.0652 100.002 36.2476C100.002 40.43 102.815 43.3926 106.955 43.3926C111.096 43.3926 113.909 40.3984 113.909 36.2476Z" fill="#000E33"/>
<path d="M124.322 50.664H130.011C130.975 52.8661 132.84 53.8642 135.7 53.8642C139.572 53.8642 141.769 52.0106 141.769 47.4005V44.4221C140.33 47.0044 137.849 48.3985 134.752 48.3985C129.3 48.3985 124.148 44.8498 124.148 36.4216V24.3972H129.822V36.4216C129.822 40.9209 132.208 43.0755 135.795 43.0755C139.288 43.0755 141.769 40.8258 141.769 36.4216V24.3972H147.458V47.2579C147.458 55.4959 142.243 58.807 135.7 58.807C130.201 58.7912 125.65 56.2405 124.322 50.664Z" fill="#000E33"/>
<path d="M153.965 16.7296H160.096V48.0659H153.965V16.7296Z" fill="#000E33"/>
<path d="M166.531 16.7296H177.625C188.56 16.7296 194.312 23.0032 194.312 32.3977C194.312 41.7923 188.576 48.0659 177.625 48.0659H166.531V16.7296ZM177.625 42.4101C184.847 42.4101 188.086 38.4812 188.086 32.3977C188.086 26.3142 184.847 22.4328 177.625 22.4328H172.663V42.426L177.625 42.4101Z" fill="#000E33"/>
<path d="M33.2096 49.356C37.4031 48.7988 41.287 46.8461 44.2355 43.8126L61.4023 26.2172C60.3096 26.0381 59.2032 25.9552 58.096 25.9695C55.0799 25.9877 52.1128 26.7335 49.4467 28.1436C47.7654 29.0416 46.233 30.194 44.9038 31.5601L38.5722 38.0471C38.5348 38.0883 38.4935 38.1296 38.4522 38.1729C36.4622 40.2135 33.7477 41.3871 30.8978 41.439C28.0479 41.4909 25.2925 40.4169 23.2295 38.45L29.8423 44.9016C31.1838 46.2074 32.3191 47.7093 33.2096 49.356Z" fill="url(#paint0_linear)"/>
<path d="M17.5872 44.2294L35.1846 61.3963C35.8558 57.272 35.1614 53.0414 33.207 49.3482C32.3168 47.703 31.1821 46.2024 29.8417 44.8977L23.2289 38.4462C22.1911 37.4584 21.3597 36.2745 20.7828 34.9631C20.206 33.6516 19.8952 32.2387 19.8685 30.8063C19.8418 29.3738 20.0997 27.9503 20.6273 26.6183C21.1549 25.2863 21.9416 24.0722 22.9419 23.0465L16.4942 29.6573C15.1654 31.0232 13.6329 32.1751 11.9514 33.0718C12.5045 37.3243 14.4928 41.2605 17.5872 44.2294Z" fill="url(#paint1_linear)"/>
<path d="M0.000392914 35.01C1.09267 35.1875 2.1983 35.2697 3.30481 35.2557C6.32091 35.236 9.28781 34.4896 11.9541 33.0796C13.6356 32.1829 15.1681 31.031 16.4969 29.6651L22.9505 23.0504C23.9428 22.0313 25.1263 21.2177 26.4333 20.6563C27.7402 20.0948 29.145 19.7964 30.5673 19.7781C31.9896 19.7599 33.4016 20.0221 34.7225 20.5499C36.0435 21.0776 37.2474 21.8605 38.2656 22.8538L31.7413 16.4887C30.3498 15.136 29.1802 13.5724 28.2757 11.8554C24.0535 12.3996 20.1401 14.3577 17.1732 17.4106L0.000392914 35.01Z" fill="url(#paint2_linear)"/>
<path d="M38.5747 38.051L44.9064 31.564C46.2356 30.1979 47.7679 29.0455 49.4492 28.1475C48.9083 23.9812 46.9887 20.1158 43.9962 17.1669L26.3969 0C26.2184 1.09215 26.1361 2.19788 26.1512 3.30442C26.1701 6.28498 26.8985 9.21818 28.2762 11.8613C29.1807 13.5783 30.3502 15.1419 31.7418 16.4946L38.2661 22.8597C40.3011 24.8445 41.4741 27.55 41.5318 30.3921C41.5895 33.2342 40.5274 35.9851 38.5747 38.051Z" fill="url(#paint3_linear)"/>
<defs>
<linearGradient id="paint0_linear" x1="63.1274" y1="18.5511" x2="33.7064" y2="38.5348" gradientUnits="userSpaceOnUse">
<stop stop-color="#C906F9"/>
<stop offset="0.448312" stop-color="#A803FC"/>
<stop offset="0.862484" stop-color="#8700FF"/>
</linearGradient>
<linearGradient id="paint1_linear" x1="15.7775" y1="30.2069" x2="8.62377" y2="57.1804" gradientUnits="userSpaceOnUse">
<stop stop-color="#0044FF"/>
<stop offset="0.489583" stop-color="#0087FF"/>
<stop offset="1" stop-color="#00CAFF"/>
</linearGradient>
<linearGradient id="paint2_linear" x1="-0.0662823" y1="35.8433" x2="14.5762" y2="40.2927" gradientUnits="userSpaceOnUse">
<stop stop-color="#B0FF33"/>
<stop offset="0.494792" stop-color="#55DF20"/>
<stop offset="1" stop-color="#0AC222"/>
</linearGradient>
<linearGradient id="paint3_linear" x1="26.2212" y1="37.832" x2="50.9857" y2="31.9503" gradientUnits="userSpaceOnUse">
<stop stop-color="#FF8100"/>
<stop offset="0.0001" stop-color="#FF8100"/>
<stop offset="0.5" stop-color="#FF5D00"/>
<stop offset="1" stop-color="#FF3600"/>
</linearGradient>
</defs>
</svg>
