<svg width="130" height="42" viewBox="0 0 130 42" fill="none" xmlns="http://www.w3.org/2000/svg">
  <path d="M45.5989 11.1926H54.1309C59.5546 11.1926 61.9969 14.2028 61.9969 18.3046C61.9969 22.4065 59.5546 25.4272 54.1309 25.4272H49.6904V32.1576H45.5989V11.1926ZM54.1943 21.6433C56.9115 21.6433 57.8419 20.2337 57.8419 18.3046C57.8419 16.3756 56.9115 15.0083 54.1943 15.0083H49.6904V21.6433H54.1943Z" fill="currentColor"/>
  <path d="M63.0544 24.3991C63.0544 19.3646 66.5751 15.8987 71.5865 15.8987C76.545 15.8987 79.9916 19.2586 79.9916 24.3567V32.1365H76.5133V29.0309C75.5512 31.3733 73.4155 32.5604 70.931 32.5604C67.0932 32.571 63.0544 29.8153 63.0544 24.3991ZM76.2067 24.2507C76.2067 21.4526 74.3459 19.4705 71.5548 19.4705C68.7636 19.4705 66.9028 21.4526 66.9028 24.2507C66.9028 27.0489 68.7848 29.0309 71.5548 29.0309C74.3248 29.0309 76.2067 27.0277 76.2067 24.2507Z" fill="currentColor"/>
  <path d="M83.1744 33.8959H86.9805C87.6255 35.3692 88.873 36.0369 90.7867 36.0369C93.3769 36.0369 94.8465 34.7968 94.8465 31.7125V29.7198C93.8844 31.4475 92.2245 32.3802 90.1523 32.3802C86.5048 32.3802 83.0581 30.006 83.0581 24.3673V16.3226H86.8537V24.3673C86.8537 27.3774 88.4501 28.8189 90.8501 28.8189C93.1866 28.8189 94.8465 27.3139 94.8465 24.3673V16.3226H98.6527V31.6171C98.6527 37.1286 95.1637 39.3438 90.7867 39.3438C87.1074 39.3332 84.0625 37.6268 83.1744 33.8959Z" fill="currentColor"/>
  <path d="M103.008 11.1926H107.11V32.1576H103.008V11.1926Z" fill="currentColor"/>
  <path d="M111.414 11.1926H118.835C126.152 11.1926 130 15.3899 130 21.6751C130 27.9604 126.162 32.1576 118.835 32.1576H111.414V11.1926ZM118.835 28.3738C123.667 28.3738 125.835 25.7452 125.835 21.6751C125.835 17.6051 123.667 15.0083 118.835 15.0083H115.516V28.3844L118.835 28.3738Z" fill="currentColor"/>
  <path d="M18.8619 33.0208C16.0563 32.648 13.4578 31.3416 11.4852 29.3121L0 17.5402C0.731093 17.4203 1.47129 17.3649 2.21208 17.3745C4.22991 17.3866 6.21499 17.8856 7.99873 18.829C9.12356 19.4298 10.1488 20.2008 11.038 21.1148L15.2741 25.4547C15.2991 25.4824 15.3267 25.51 15.3544 25.5389C16.6858 26.9042 18.5019 27.6893 20.4085 27.7241C22.3152 27.7588 24.1586 27.0402 25.5389 25.7244L21.1147 30.0407C20.2172 30.9143 19.4576 31.9191 18.8619 33.0208Z" fill="url(#paint0_linear)"/>
  <path d="M29.3124 29.5909L17.5392 41.0761C17.0901 38.3169 17.5547 35.4865 18.8622 33.0156C19.4578 31.9149 20.2169 30.9109 21.1137 30.0381L25.5379 25.7217C26.2322 25.0609 26.7885 24.2689 27.1744 23.3915C27.5603 22.5141 27.7682 21.5688 27.7861 20.6104C27.804 19.6521 27.6314 18.6997 27.2784 17.8085C26.9255 16.9173 26.3991 16.1051 25.7299 15.4189L30.0436 19.8417C30.9326 20.7556 31.9579 21.5262 33.0829 22.1261C32.7128 24.9712 31.3826 27.6047 29.3124 29.5909Z" fill="url(#paint1_linear)"/>
  <path d="M41.0799 23.4228C40.3492 23.5416 39.6095 23.5966 38.8692 23.5872C36.8513 23.5741 34.8663 23.0747 33.0825 22.1313C31.9575 21.5314 30.9323 20.7608 30.0432 19.8469L25.7256 15.4214C25.0617 14.7396 24.2699 14.1954 23.3955 13.8197C22.5211 13.4441 21.5812 13.2444 20.6297 13.2322C19.6781 13.22 18.7334 13.3955 17.8497 13.7485C16.9659 14.1016 16.1605 14.6254 15.4792 15.2899L19.8442 11.0315C20.7752 10.1265 21.5577 9.08038 22.1628 7.93167C24.9876 8.29573 27.6058 9.60576 29.5908 11.6483L41.0799 23.4228Z" fill="url(#paint2_linear)"/>
  <path d="M15.273 25.4573L11.0369 21.1173C10.1476 20.2034 9.12239 19.4324 7.99756 18.8316C8.35947 16.0442 9.64373 13.4581 11.6458 11.4852L23.4203 0C23.5398 0.730684 23.5948 1.47045 23.5847 2.21077C23.5721 4.20485 23.0847 6.16726 22.163 7.93561C21.5579 9.08431 20.7754 10.1304 19.8444 11.0354L15.4794 15.2939C14.1179 16.6218 13.3332 18.4318 13.2946 20.3333C13.2559 22.2348 13.9665 24.0752 15.273 25.4573Z" fill="url(#paint3_linear)"/>
  <defs>
    <linearGradient id="paint0_linear" x1="20.8994" y1="31.1429" x2="0.932746" y2="17.0931" gradientUnits="userSpaceOnUse">
      <stop stop-color="#0044FF"/>
      <stop offset="0.489583" stop-color="#0087FF"/>
      <stop offset="1" stop-color="#00CAFF"/>
    </linearGradient>
    <linearGradient id="paint1_linear" x1="6.17076" y1="26.6722" x2="19.8393" y2="12.9408" gradientUnits="userSpaceOnUse">
      <stop stop-color="#B0FF33"/>
      <stop offset="0.494792" stop-color="#55DF20"/>
      <stop offset="1" stop-color="#0AC222"/>
    </linearGradient>
    <linearGradient id="paint2_linear" x1="41.0011" y1="23.4981" x2="20.5018" y2="10.497" gradientUnits="userSpaceOnUse">
      <stop stop-color="#FF8100"/>
      <stop offset="0.0001" stop-color="#FF8100"/>
      <stop offset="0.5" stop-color="#FF5D00"/>
      <stop offset="1" stop-color="#FF3600"/>
    </linearGradient>
    <linearGradient id="paint3_linear" x1="21.0813" y1="-3.94975" x2="6.36304" y2="2.44339" gradientUnits="userSpaceOnUse">
      <stop stop-color="#C906F9"/>
      <stop offset="0.494792" stop-color="#A803FC"/>
      <stop offset="1" stop-color="#8700FF"/>
    </linearGradient>
  </defs>
</svg>
