<svg width="375" height="621" viewBox="0 0 375 621" fill="none" xmlns="http://www.w3.org/2000/svg">
    <path d="M84.9009 168.089H87.3171C86.9144 165.52 84.69 163.73 81.7944 163.73C78.3683 163.73 75.7987 166.249 75.7987 170.467C75.7987 174.609 78.2532 177.179 81.8647 177.179C85.1055 177.179 87.4258 175.095 87.4258 171.72V170.148H82.114V172.001H85.131C85.0927 173.868 83.8462 175.05 81.8775 175.05C79.685 175.05 78.1829 173.408 78.1829 170.442C78.1829 167.495 79.7106 165.859 81.8263 165.859C83.4052 165.859 84.479 166.702 84.9009 168.089ZM93.8993 177.192C96.7757 177.192 98.6039 175.165 98.6039 172.129C98.6039 169.087 96.7757 167.054 93.8993 167.054C91.0229 167.054 89.1948 169.087 89.1948 172.129C89.1948 175.165 91.0229 177.192 93.8993 177.192ZM93.9121 175.338C92.3205 175.338 91.5407 173.919 91.5407 172.123C91.5407 170.327 92.3205 168.888 93.9121 168.888C95.4782 168.888 96.258 170.327 96.258 172.123C96.258 173.919 95.4782 175.338 93.9121 175.338ZM100.67 177H103.042V172.577H105.547C108.571 172.577 110.194 170.761 110.194 168.243C110.194 165.744 108.59 163.909 105.579 163.909H100.67V177ZM103.042 170.627V165.891H105.215C106.992 165.891 107.778 166.849 107.778 168.243C107.778 169.636 106.992 170.627 105.228 170.627H103.042ZM114.801 177.198C116.342 177.198 117.262 176.476 117.684 175.651H117.761V177H119.985V170.429C119.985 167.834 117.869 167.054 115.997 167.054C113.932 167.054 112.347 167.974 111.835 169.764L113.996 170.071C114.226 169.4 114.878 168.825 116.009 168.825C117.083 168.825 117.671 169.374 117.671 170.339V170.378C117.671 171.043 116.975 171.075 115.242 171.26C113.338 171.464 111.516 172.033 111.516 174.245C111.516 176.175 112.928 177.198 114.801 177.198ZM115.402 175.498C114.437 175.498 113.747 175.057 113.747 174.207C113.747 173.318 114.52 172.947 115.556 172.8C116.163 172.717 117.377 172.564 117.678 172.321V173.478C117.678 174.571 116.796 175.498 115.402 175.498ZM123.399 180.682C125.201 180.682 126.243 179.755 126.799 178.189L130.743 167.195L128.269 167.182L126 174.597H125.898L123.635 167.182H121.181L124.741 177.205L124.543 177.735C124.115 178.854 123.437 178.93 122.427 178.636L121.89 180.439C122.203 180.567 122.766 180.682 123.399 180.682Z" fill="white" />
    <g filter="url(#filter0_d)">
        <circle cx="103.05" cy="75.05" r="53.05" fill="white" />
    </g>
    <path d="M90.2212 92.8996C80.6193 92.8996 74.9399 86.4234 75.2055 77.986C75.5323 67.1992 85.0525 58.251 96.4114 58.251C101.274 58.251 105.176 59.5176 107.77 60.8251L106.258 68.8131C103.01 67.0561 100.232 65.9938 95.7168 65.9938C88.6481 65.9938 83.9698 71.2646 83.8063 76.9645C83.6633 81.4999 86.4009 85.2589 91.6717 85.2589C92.8566 85.2589 94.2459 85.0751 95.1856 84.8503L97.249 73.9409H105.298L102.173 90.4072C98.7608 91.9803 94.2663 92.8996 90.2212 92.8996Z" fill="#1899D6" />
    <path d="M130.938 73.94L114.9 64.3789L110.671 86.7493L130.938 73.94Z" fill="#1899D6" />
    <path d="M248.159 176H250.531V171.206H252.947L255.517 176H258.163L255.331 170.81C256.872 170.19 257.684 168.873 257.684 167.096C257.684 164.597 256.073 162.909 253.068 162.909H248.159V176ZM250.531 169.237V164.891H252.704C254.475 164.891 255.267 165.702 255.267 167.096C255.267 168.489 254.475 169.237 252.717 169.237H250.531ZM259.764 176H262.078V166.182H259.764V176ZM260.927 164.788C261.663 164.788 262.263 164.226 262.263 163.536C262.263 162.839 261.663 162.276 260.927 162.276C260.186 162.276 259.585 162.839 259.585 163.536C259.585 164.226 260.186 164.788 260.927 164.788ZM264.457 179.682H266.771V174.453H266.867C267.232 175.169 267.992 176.173 269.68 176.173C271.994 176.173 273.726 174.338 273.726 171.104C273.726 167.831 271.943 166.054 269.673 166.054C267.941 166.054 267.219 167.096 266.867 167.805H266.733V166.182H264.457V179.682ZM266.727 171.091C266.727 169.186 267.545 167.952 269.034 167.952C270.575 167.952 271.367 169.263 271.367 171.091C271.367 172.932 270.562 174.274 269.034 174.274C267.558 174.274 266.727 172.996 266.727 171.091ZM275.707 179.682H278.021V174.453H278.117C278.482 175.169 279.242 176.173 280.93 176.173C283.244 176.173 284.976 174.338 284.976 171.104C284.976 167.831 283.193 166.054 280.923 166.054C279.191 166.054 278.469 167.096 278.117 167.805H277.983V166.182H275.707V179.682ZM277.977 171.091C277.977 169.186 278.795 167.952 280.284 167.952C281.825 167.952 282.617 169.263 282.617 171.091C282.617 172.932 281.812 174.274 280.284 174.274C278.808 174.274 277.977 172.996 277.977 171.091ZM289.271 162.909H286.957V176H289.271V162.909ZM295.997 176.192C298.286 176.192 299.858 175.073 300.267 173.366L298.107 173.124C297.794 173.955 297.027 174.389 296.029 174.389C294.534 174.389 293.543 173.405 293.524 171.724H300.363V171.014C300.363 167.569 298.292 166.054 295.876 166.054C293.063 166.054 291.229 168.119 291.229 171.148C291.229 174.229 293.038 176.192 295.997 176.192ZM293.53 170.164C293.6 168.911 294.527 167.857 295.908 167.857C297.237 167.857 298.132 168.828 298.145 170.164H293.53Z" fill="white" />
    <g filter="url(#filter1_d)">
        <circle cx="274" cy="75" r="53" fill="white" />
        <circle cx="273.855" cy="74.8546" r="52.8546" fill="white" />
        <path d="M288.938 81.7975C287.144 80.7912 285.12 80.4991 283.118 80.4295C281.447 80.3738 278.929 79.3281 278.929 76.3578C278.929 74.1435 280.777 72.3627 283.118 72.2839C285.122 72.2166 287.144 71.9221 288.938 70.9158C290.551 70.0114 291.89 68.7103 292.821 67.1435C293.753 65.5766 294.243 63.7992 294.243 61.9899C294.243 60.1805 293.753 58.403 292.822 56.8361C291.891 55.2692 290.552 53.968 288.939 53.0633C287.326 52.1587 285.497 51.6825 283.635 51.6826C281.773 51.6827 279.943 52.1591 278.331 53.064C276.718 53.9688 275.379 55.2701 274.448 56.8372C273.517 58.4042 273.028 60.1818 273.028 61.9911C273.028 63.9875 273.758 65.8262 274.698 67.5305C275.483 68.9635 275.892 71.623 273.19 73.1325C271.188 74.2548 268.692 73.5452 267.444 71.6045C266.389 69.9651 265.117 68.4302 263.337 67.4308C261.724 66.5267 259.895 66.0508 258.033 66.0512C256.171 66.0515 254.342 66.5279 252.73 67.4326C251.118 68.3373 249.779 69.6383 248.848 71.205C247.917 72.7717 247.427 74.5488 247.427 76.3578C247.427 78.1668 247.917 79.944 248.848 81.5107C249.779 83.0773 251.118 84.3784 252.73 85.2831C254.342 86.1878 256.171 86.6642 258.033 86.6645C259.895 86.6648 261.724 86.189 263.337 85.2849C265.117 84.2855 266.389 82.7505 267.441 81.1112C268.307 79.7663 270.467 78.0528 273.19 79.5808C275.188 80.7031 275.815 83.1609 274.698 85.1852C273.765 86.8894 273.028 88.7259 273.028 90.7223C273.028 92.5316 273.517 94.3091 274.448 95.8762C275.379 97.4432 276.718 98.7446 278.331 99.6494C279.943 100.554 281.773 101.031 283.635 101.031C285.497 101.031 287.326 100.555 288.939 99.65C290.552 98.7454 291.891 97.4442 292.822 95.8773C293.753 94.3103 294.243 92.5328 294.243 90.7235C294.243 88.9142 293.753 87.1367 292.821 85.5699C291.89 84.0031 290.551 82.702 288.938 81.7975Z" fill="url(#paint0_linear)" />
    </g>
    <g filter="url(#filter2_d)">
        <circle cx="103" cy="320" r="67" fill="white" />
    </g>
    <path d="M71.6804 297.545H68.2116L63.8906 300.281V303.554L67.8878 301.048H67.9901V315H71.6804V297.545ZM75.8288 315H88.272V311.983H80.9425V311.864L83.4908 309.366C87.0788 306.094 88.0419 304.457 88.0419 302.472C88.0419 299.446 85.5703 297.307 81.8288 297.307C78.1641 297.307 75.6499 299.497 75.6584 302.923H79.1612C79.1527 301.253 80.2095 300.23 81.8033 300.23C83.3374 300.23 84.4794 301.185 84.4794 302.719C84.4794 304.108 83.6271 305.062 82.0419 306.588L75.8288 312.341V315ZM97.7898 315.384C102.179 315.384 104.83 312.043 104.838 306.29C104.847 300.58 102.162 297.307 97.7898 297.307C93.4091 297.307 90.75 300.571 90.7415 306.29C90.7244 312.026 93.392 315.375 97.7898 315.384ZM97.7898 312.324C95.7869 312.324 94.4915 310.312 94.5 306.29C94.5085 302.327 95.7955 300.332 97.7898 300.332C99.7756 300.332 101.071 302.327 101.071 306.29C101.08 310.312 99.7841 312.324 97.7898 312.324ZM107.572 297.545V315H111.151V303.597H111.296L115.813 314.915H118.251L122.768 303.639H122.913V315H126.492V297.545H121.941L117.134 309.273H116.93L112.123 297.545H107.572ZM134.646 312.341H137.697V307.832H142.206V304.781H137.697V300.273H134.646V304.781H130.138V307.832H134.646V312.341Z" fill="url(#paint1_linear)" />
    <path d="M86.6889 337.871C86.6889 339.366 85.6214 340.108 84.5987 340.108C83.4865 340.108 82.745 339.322 82.745 338.075V332.182H80.4311V338.433C80.4311 340.792 81.7734 342.128 83.7038 342.128C85.174 342.128 86.2095 341.354 86.657 340.255H86.7592V342H89.0028V332.182H86.6889V337.871ZM99.1422 334.777C98.8226 333.115 97.4931 332.054 95.1919 332.054C92.8269 332.054 91.2161 333.217 91.2225 335.033C91.2161 336.464 92.0982 337.411 93.9838 337.8L95.6586 338.152C96.5598 338.35 96.9817 338.714 96.9817 339.271C96.9817 339.942 96.253 340.447 95.1536 340.447C94.0925 340.447 93.4022 339.987 93.204 339.104L90.9476 339.322C91.2353 341.124 92.7502 342.192 95.16 342.192C97.6145 342.192 99.3468 340.92 99.3532 339.06C99.3468 337.66 98.4455 336.803 96.5918 336.401L94.9171 336.043C93.9199 335.819 93.5236 335.474 93.53 334.905C93.5236 334.24 94.2587 333.78 95.2239 333.78C96.2914 333.78 96.8539 334.362 97.0328 335.007L99.1422 334.777ZM105.608 342.192C107.896 342.192 109.469 341.073 109.878 339.366L107.717 339.124C107.404 339.955 106.637 340.389 105.64 340.389C104.144 340.389 103.153 339.405 103.134 337.724H109.974V337.014C109.974 333.569 107.903 332.054 105.486 332.054C102.674 332.054 100.839 334.119 100.839 337.148C100.839 340.229 102.648 342.192 105.608 342.192ZM103.14 336.164C103.211 334.911 104.138 333.857 105.518 333.857C106.848 333.857 107.743 334.828 107.756 336.164H103.14ZM111.931 342H114.245V336.228C114.245 334.982 115.185 334.099 116.457 334.099C116.847 334.099 117.332 334.17 117.531 334.234V332.105C117.32 332.067 116.955 332.041 116.7 332.041C115.575 332.041 114.635 332.68 114.277 333.818H114.175V332.182H111.931V342ZM126.828 334.777C126.508 333.115 125.179 332.054 122.877 332.054C120.512 332.054 118.902 333.217 118.908 335.033C118.902 336.464 119.784 337.411 121.669 337.8L123.344 338.152C124.245 338.35 124.667 338.714 124.667 339.271C124.667 339.942 123.939 340.447 122.839 340.447C121.778 340.447 121.088 339.987 120.89 339.104L118.633 339.322C118.921 341.124 120.436 342.192 122.846 342.192C125.3 342.192 127.032 340.92 127.039 339.06C127.032 337.66 126.131 336.803 124.277 336.401L122.603 336.043C121.605 335.819 121.209 335.474 121.216 334.905C121.209 334.24 121.944 333.78 122.909 333.78C123.977 333.78 124.539 334.362 124.718 335.007L126.828 334.777Z" fill="#000E33" />
    <g filter="url(#filter3_d)">
        <circle cx="274" cy="320" r="67" fill="white" />
    </g>
    <path d="M247.925 297.932H256.303V301H259.831V297.932H261.996V294.974H259.831V283.545H255.212L247.925 295.026V297.932ZM256.371 294.974H251.641V294.838L256.235 287.568H256.371V294.974ZM272.091 282.727H268.963L263.338 303.625H266.466L272.091 282.727ZM281.4 283.545H277.931L273.61 286.281V289.554L277.608 287.048H277.71V301H281.4V283.545ZM292.392 301.384C296.782 301.384 299.432 298.043 299.441 292.29C299.449 286.58 296.764 283.307 292.392 283.307C288.012 283.307 285.353 286.571 285.344 292.29C285.327 298.026 287.995 301.375 292.392 301.384ZM292.392 298.324C290.389 298.324 289.094 296.312 289.103 292.29C289.111 288.327 290.398 286.332 292.392 286.332C294.378 286.332 295.674 288.327 295.674 292.29C295.682 296.312 294.387 298.324 292.392 298.324Z" fill="url(#paint2_linear)" />
    <path d="M265.341 318.182H263.404V315.83H261.09V318.182H259.696V319.972H261.09V325.43C261.077 327.278 262.42 328.185 264.158 328.134C264.817 328.115 265.27 327.987 265.52 327.904L265.13 326.095C265.002 326.127 264.74 326.185 264.452 326.185C263.87 326.185 263.404 325.98 263.404 325.047V319.972H265.341V318.182ZM271.453 328.192C274.329 328.192 276.158 326.165 276.158 323.129C276.158 320.087 274.329 318.054 271.453 318.054C268.577 318.054 266.749 320.087 266.749 323.129C266.749 326.165 268.577 328.192 271.453 328.192ZM271.466 326.338C269.874 326.338 269.094 324.919 269.094 323.123C269.094 321.327 269.874 319.888 271.466 319.888C273.032 319.888 273.812 321.327 273.812 323.123C273.812 324.919 273.032 326.338 271.466 326.338ZM278.122 331.682H280.435V326.453H280.531C280.896 327.169 281.656 328.173 283.344 328.173C285.658 328.173 287.39 326.338 287.39 323.104C287.39 319.831 285.607 318.054 283.337 318.054C281.605 318.054 280.883 319.096 280.531 319.805H280.397V318.182H278.122V331.682ZM280.391 323.091C280.391 321.186 281.209 319.952 282.698 319.952C284.239 319.952 285.031 321.263 285.031 323.091C285.031 324.932 284.226 326.274 282.698 326.274C281.222 326.274 280.391 324.996 280.391 323.091ZM231.87 355.192C234.158 355.192 235.73 354.073 236.139 352.366L233.979 352.124C233.666 352.955 232.899 353.389 231.901 353.389C230.406 353.389 229.415 352.405 229.396 350.724H236.235V350.014C236.235 346.569 234.164 345.054 231.748 345.054C228.936 345.054 227.101 347.119 227.101 350.148C227.101 353.229 228.91 355.192 231.87 355.192ZM229.402 349.164C229.473 347.911 230.399 346.857 231.78 346.857C233.11 346.857 234.004 347.828 234.017 349.164H229.402ZM239.892 345.182H237.437L240.352 350.091L237.36 355H239.815L241.873 351.465L243.95 355H246.386L243.375 350.091L246.335 345.182H243.887L241.873 348.806L239.892 345.182ZM252.038 355.192C254.505 355.192 256.078 353.728 256.244 351.644H254.032C253.834 352.699 253.074 353.306 252.057 353.306C250.613 353.306 249.679 352.098 249.679 350.091C249.679 348.109 250.632 346.92 252.057 346.92C253.169 346.92 253.853 347.636 254.032 348.582H256.244C256.084 346.454 254.422 345.054 252.025 345.054C249.149 345.054 247.333 347.131 247.333 350.129C247.333 353.102 249.104 355.192 252.038 355.192ZM260.458 349.247C260.458 347.828 261.34 347.01 262.58 347.01C263.795 347.01 264.511 347.783 264.511 349.107V355H266.824V348.749C266.824 346.377 265.482 345.054 263.443 345.054C261.935 345.054 260.976 345.738 260.522 346.85H260.407V341.909H258.144V355H260.458V349.247ZM272.008 355.198C273.549 355.198 274.469 354.476 274.891 353.651H274.968V355H277.192V348.429C277.192 345.834 275.077 345.054 273.204 345.054C271.139 345.054 269.554 345.974 269.042 347.764L271.203 348.071C271.433 347.4 272.085 346.825 273.216 346.825C274.29 346.825 274.878 347.374 274.878 348.339V348.378C274.878 349.043 274.182 349.075 272.449 349.26C270.545 349.464 268.723 350.033 268.723 352.245C268.723 354.175 270.136 355.198 272.008 355.198ZM272.609 353.498C271.644 353.498 270.954 353.057 270.954 352.207C270.954 351.318 271.727 350.947 272.763 350.8C273.37 350.717 274.584 350.564 274.885 350.321V351.478C274.885 352.571 274.003 353.498 272.609 353.498ZM281.833 349.247C281.833 347.828 282.689 347.01 283.91 347.01C285.106 347.01 285.822 347.796 285.822 349.107V355H288.136V348.749C288.142 346.396 286.8 345.054 284.773 345.054C283.303 345.054 282.293 345.757 281.846 346.85H281.731V345.182H279.519V355H281.833V349.247ZM294.758 358.886C297.41 358.886 299.366 357.672 299.366 355.16V345.182H297.084V346.805H296.957C296.605 346.096 295.87 345.054 294.138 345.054C291.868 345.054 290.085 346.831 290.085 350.059C290.085 353.261 291.868 354.859 294.131 354.859C295.812 354.859 296.599 353.958 296.957 353.236H297.072V355.096C297.072 356.54 296.113 357.135 294.796 357.135C293.403 357.135 292.789 356.477 292.508 355.901L290.424 356.406C290.846 357.781 292.258 358.886 294.758 358.886ZM294.777 353.044C293.249 353.044 292.444 351.855 292.444 350.046C292.444 348.263 293.236 346.952 294.777 346.952C296.266 346.952 297.084 348.186 297.084 350.046C297.084 351.919 296.253 353.044 294.777 353.044ZM306.084 355.192C308.373 355.192 309.945 354.073 310.354 352.366L308.194 352.124C307.881 352.955 307.113 353.389 306.116 353.389C304.621 353.389 303.63 352.405 303.611 350.724H310.45V350.014C310.45 346.569 308.379 345.054 305.963 345.054C303.15 345.054 301.316 347.119 301.316 350.148C301.316 353.229 303.125 355.192 306.084 355.192ZM303.617 349.164C303.687 347.911 304.614 346.857 305.995 346.857C307.324 346.857 308.219 347.828 308.232 349.164H303.617ZM320.168 347.777C319.848 346.115 318.518 345.054 316.217 345.054C313.852 345.054 312.242 346.217 312.248 348.033C312.242 349.464 313.124 350.411 315.009 350.8L316.684 351.152C317.585 351.35 318.007 351.714 318.007 352.271C318.007 352.942 317.278 353.447 316.179 353.447C315.118 353.447 314.428 352.987 314.229 352.104L311.973 352.322C312.261 354.124 313.776 355.192 316.185 355.192C318.64 355.192 320.372 353.92 320.379 352.06C320.372 350.66 319.471 349.803 317.617 349.401L315.943 349.043C314.945 348.819 314.549 348.474 314.555 347.905C314.549 347.24 315.284 346.78 316.249 346.78C317.317 346.78 317.879 347.362 318.058 348.007L320.168 347.777Z" fill="#000E33" />
    <path d="M34.8674 605H40.1664C43.1642 605 44.6344 603.472 44.6344 601.433C44.6344 599.452 43.2282 598.288 41.8347 598.218V598.09C43.1131 597.79 44.123 596.895 44.123 595.303C44.123 593.354 42.7168 591.909 39.8787 591.909H34.8674V605ZM37.2388 603.018V599.183H39.8532C41.3169 599.183 42.2246 600.078 42.2246 601.248C42.2246 602.29 41.5087 603.018 39.7892 603.018H37.2388ZM37.2388 597.477V593.865H39.6358C41.0293 593.865 41.7516 594.6 41.7516 595.61C41.7516 596.761 40.8184 597.477 39.5847 597.477H37.2388ZM48.9091 591.909H46.5952V605H48.9091V591.909ZM55.5712 605.192C58.4476 605.192 60.2757 603.165 60.2757 600.129C60.2757 597.087 58.4476 595.054 55.5712 595.054C52.6948 595.054 50.8667 597.087 50.8667 600.129C50.8667 603.165 52.6948 605.192 55.5712 605.192ZM55.584 603.338C53.9924 603.338 53.2125 601.919 53.2125 600.123C53.2125 598.327 53.9924 596.888 55.584 596.888C57.15 596.888 57.9299 598.327 57.9299 600.123C57.9299 601.919 57.15 603.338 55.584 603.338ZM66.5224 605.192C68.9897 605.192 70.5621 603.728 70.7283 601.644H68.5167C68.3185 602.699 67.5579 603.306 66.5415 603.306C65.0969 603.306 64.1637 602.098 64.1637 600.091C64.1637 598.109 65.1161 596.92 66.5415 596.92C67.6538 596.92 68.3377 597.636 68.5167 598.582H70.7283C70.5685 596.454 68.9066 595.054 66.5096 595.054C63.6332 595.054 61.8178 597.131 61.8178 600.129C61.8178 603.102 63.5884 605.192 66.5224 605.192ZM72.6284 605H74.9423V601.702L75.786 600.8L78.7903 605H81.5581L77.5311 599.42L81.3343 595.182H78.6305L75.1021 599.126H74.9423V591.909H72.6284V605ZM86.7548 605.192C89.2221 605.192 90.7946 603.728 90.9608 601.644H88.7491C88.551 602.699 87.7903 603.306 86.774 603.306C85.3294 603.306 84.3961 602.098 84.3961 600.091C84.3961 598.109 85.3485 596.92 86.774 596.92C87.8862 596.92 88.5701 597.636 88.7491 598.582H90.9608C90.801 596.454 89.139 595.054 86.742 595.054C83.8656 595.054 82.0502 597.131 82.0502 600.129C82.0502 603.102 83.8208 605.192 86.7548 605.192ZM95.1747 599.247C95.1747 597.828 96.0568 597.01 97.2969 597.01C98.5114 597.01 99.2273 597.783 99.2273 599.107V605H101.541V598.749C101.541 596.377 100.199 595.054 98.1598 595.054C96.6513 595.054 95.6925 595.738 95.2386 596.85H95.1236V591.909H92.8608V605H95.1747V599.247ZM106.725 605.198C108.266 605.198 109.186 604.476 109.608 603.651H109.685V605H111.909V598.429C111.909 595.834 109.793 595.054 107.92 595.054C105.856 595.054 104.271 595.974 103.759 597.764L105.92 598.071C106.15 597.4 106.802 596.825 107.933 596.825C109.007 596.825 109.595 597.374 109.595 598.339V598.378C109.595 599.043 108.898 599.075 107.166 599.26C105.261 599.464 103.44 600.033 103.44 602.245C103.44 604.175 104.852 605.198 106.725 605.198ZM107.326 603.498C106.361 603.498 105.67 603.057 105.67 602.207C105.67 601.318 106.444 600.947 107.479 600.8C108.087 600.717 109.301 600.564 109.602 600.321V601.478C109.602 602.571 108.719 603.498 107.326 603.498ZM114.236 605H116.55V595.182H114.236V605ZM115.399 593.788C116.134 593.788 116.735 593.226 116.735 592.536C116.735 591.839 116.134 591.276 115.399 591.276C114.658 591.276 114.057 591.839 114.057 592.536C114.057 593.226 114.658 593.788 115.399 593.788ZM121.243 599.247C121.243 597.828 122.1 597.01 123.32 597.01C124.516 597.01 125.232 597.796 125.232 599.107V605H127.546V598.749C127.552 596.396 126.21 595.054 124.183 595.054C122.713 595.054 121.703 595.757 121.256 596.85H121.141V595.182H118.929V605H121.243V599.247ZM131.323 605.141C132.078 605.141 132.723 604.514 132.73 603.734C132.723 602.967 132.078 602.341 131.323 602.341C130.544 602.341 129.911 602.967 129.917 603.734C129.911 604.514 130.544 605.141 131.323 605.141ZM139.401 605.192C141.869 605.192 143.441 603.728 143.607 601.644H141.396C141.197 602.699 140.437 603.306 139.42 603.306C137.976 603.306 137.043 602.098 137.043 600.091C137.043 598.109 137.995 596.92 139.42 596.92C140.533 596.92 141.217 597.636 141.396 598.582H143.607C143.447 596.454 141.786 595.054 139.388 595.054C136.512 595.054 134.697 597.131 134.697 600.129C134.697 603.102 136.467 605.192 139.401 605.192ZM149.79 605.192C152.666 605.192 154.494 603.165 154.494 600.129C154.494 597.087 152.666 595.054 149.79 595.054C146.914 595.054 145.085 597.087 145.085 600.129C145.085 603.165 146.914 605.192 149.79 605.192ZM149.803 603.338C148.211 603.338 147.431 601.919 147.431 600.123C147.431 598.327 148.211 596.888 149.803 596.888C151.369 596.888 152.149 598.327 152.149 600.123C152.149 601.919 151.369 603.338 149.803 603.338ZM156.458 605H158.772V599.03C158.772 597.822 159.578 597.004 160.575 597.004C161.553 597.004 162.224 597.662 162.224 598.672V605H164.493V598.876C164.493 597.771 165.152 597.004 166.27 597.004C167.203 597.004 167.945 597.553 167.945 598.768V605H170.265V598.41C170.265 596.217 169 595.054 167.197 595.054C165.772 595.054 164.685 595.757 164.25 596.85H164.148C163.771 595.738 162.819 595.054 161.495 595.054C160.179 595.054 159.194 595.732 158.785 596.85H158.67V595.182H156.458V605Z" fill="white" />
    <g filter="url(#filter4_d)">
        <circle cx="102.05" cy="504.05" r="53.05" fill="white" />
    </g>
    <path d="M82.1071 497.444L79.9171 499.634C79.3109 500.217 78.8287 500.915 78.4992 501.689C78.1698 502.462 78 503.294 78 504.134C78 504.975 78.1698 505.807 78.4992 506.58C78.8287 507.353 79.3109 508.052 79.9171 508.634L97.56 526.451C97.9782 526.879 98.4649 527.234 99 527.501V505.904L82.1071 497.444Z" fill="#3D89F5" />
    <path d="M121.893 497.444L124.083 499.634C124.689 500.217 125.171 500.915 125.501 501.689C125.83 502.462 126 503.294 126 504.134C126 504.975 125.83 505.807 125.501 506.58C125.171 507.353 124.689 508.052 124.083 508.634L106.44 526.451C106.022 526.879 105.535 527.234 105 527.501V505.904L121.893 497.444Z" fill="#1656B9" />
    <path d="M117.658 492.974L106.618 481.904C106.034 481.302 105.334 480.823 104.561 480.496C103.788 480.169 102.957 480 102.118 480C101.279 480 100.448 480.169 99.675 480.496C98.902 480.823 98.2025 481.302 97.6181 481.904L86.5481 492.974L102.058 500.714L117.658 492.974Z" fill="#85B5F8" />
    <path d="M223.05 605H225.421V599.439H230.861V597.451H225.421V593.897H231.436V591.909H223.05V605ZM235.809 591.909H233.495V605H235.809V591.909ZM244.446 600.871C244.446 602.366 243.378 603.108 242.356 603.108C241.243 603.108 240.502 602.322 240.502 601.075V595.182H238.188V601.433C238.188 603.792 239.53 605.128 241.461 605.128C242.931 605.128 243.966 604.354 244.414 603.255H244.516V605H246.76V595.182H244.446V600.871ZM254.042 595.182H252.105V592.83H249.791V595.182H248.398V596.972H249.791V602.43C249.778 604.278 251.121 605.185 252.859 605.134C253.518 605.115 253.972 604.987 254.221 604.904L253.831 603.095C253.703 603.127 253.441 603.185 253.153 603.185C252.572 603.185 252.105 602.98 252.105 602.047V596.972H254.042V595.182ZM260.88 595.182H258.943V592.83H256.629V595.182H255.236V596.972H256.629V602.43C256.616 604.278 257.959 605.185 259.697 605.134C260.356 605.115 260.809 604.987 261.059 604.904L260.669 603.095C260.541 603.127 260.279 603.185 259.991 603.185C259.41 603.185 258.943 602.98 258.943 602.047V596.972H260.88V595.182ZM267.056 605.192C269.344 605.192 270.917 604.073 271.326 602.366L269.165 602.124C268.852 602.955 268.085 603.389 267.088 603.389C265.592 603.389 264.601 602.405 264.582 600.724H271.422V600.014C271.422 596.569 269.351 595.054 266.935 595.054C264.122 595.054 262.288 597.119 262.288 600.148C262.288 603.229 264.097 605.192 267.056 605.192ZM264.589 599.164C264.659 597.911 265.586 596.857 266.967 596.857C268.296 596.857 269.191 597.828 269.204 599.164H264.589ZM273.379 605H275.693V599.228C275.693 597.982 276.633 597.099 277.905 597.099C278.295 597.099 278.781 597.17 278.979 597.234V595.105C278.768 595.067 278.403 595.041 278.148 595.041C277.023 595.041 276.083 595.68 275.725 596.818H275.623V595.182H273.379V605ZM282.701 605H285.117L286.958 598.365H287.092L288.933 605H291.343L294.123 595.182H291.758L290.058 602.047H289.962L288.198 595.182H285.865L284.1 602.085H284.011L282.285 595.182H279.926L282.701 605ZM298.564 605.198C300.104 605.198 301.025 604.476 301.447 603.651H301.524V605H303.748V598.429C303.748 595.834 301.632 595.054 299.759 595.054C297.695 595.054 296.109 595.974 295.598 597.764L297.759 598.071C297.989 597.4 298.641 596.825 299.772 596.825C300.846 596.825 301.434 597.374 301.434 598.339V598.378C301.434 599.043 300.737 599.075 299.005 599.26C297.1 599.464 295.278 600.033 295.278 602.245C295.278 604.175 296.691 605.198 298.564 605.198ZM299.165 603.498C298.2 603.498 297.509 603.057 297.509 602.207C297.509 601.318 298.283 600.947 299.318 600.8C299.926 600.717 301.14 600.564 301.44 600.321V601.478C301.44 602.571 300.558 603.498 299.165 603.498ZM314.493 595.182H312.032L309.769 602.475H309.667L307.411 595.182H304.943L308.44 605H310.997L314.493 595.182ZM320.107 605.192C322.395 605.192 323.968 604.073 324.377 602.366L322.216 602.124C321.903 602.955 321.136 603.389 320.139 603.389C318.643 603.389 317.652 602.405 317.633 600.724H324.473V600.014C324.473 596.569 322.402 595.054 319.985 595.054C317.173 595.054 315.338 597.119 315.338 600.148C315.338 603.229 317.147 605.192 320.107 605.192ZM317.639 599.164C317.71 597.911 318.637 596.857 320.017 596.857C321.347 596.857 322.242 597.828 322.255 599.164H317.639Z" fill="white" />
    <g filter="url(#filter5_d)">
        <circle cx="274.05" cy="504.05" r="53.05" fill="white" />
    </g>
    <path d="M277.292 484.026C281.788 482.029 286.754 480.936 291.681 481.304C293.816 481.463 296.348 482.293 297.076 484.542C297.782 487.156 296.565 489.781 295.367 492.049C293.088 496.024 290.072 499.599 286.51 502.481C290.262 505.718 294.026 509.127 296.464 513.513C297.972 516.262 299.251 519.372 298.887 522.571C298.708 524.584 297.255 526.348 295.375 527.031C291.952 528.337 288.13 527.663 284.804 526.383C277.28 523.428 270.845 517.922 266.411 511.198C265.058 511.093 263.717 510.907 262.387 510.639C264.624 517.065 266.05 523.944 265.341 530.765C264.845 518.158 258.972 506.378 251.076 496.773C250.014 495.663 250.014 493.891 250.456 492.53C251.607 491.987 252.762 492.782 253.472 493.655C255.476 496.121 256.949 498.952 258.604 501.651C259.666 498.552 261.48 495.745 263.744 493.395C267.527 489.351 272.252 486.272 277.292 484.026ZM283.409 485.1C277.644 487.303 272.489 491.01 268.333 495.547C270.33 495.493 272.353 495.543 274.288 496.106C277.203 496.757 279.726 498.393 282.405 499.619C284.137 498.766 285.436 497.257 286.804 495.927C288.998 493.55 291.227 491.041 292.363 487.966C292.867 486.752 292.801 484.973 291.382 484.434C288.785 483.472 285.944 484.317 283.409 485.1ZM267.027 499.107C265.872 499.479 265.182 500.751 265.539 501.922C266.027 503.427 267.667 504.257 269.182 504.21C272.132 504.241 275.047 503.396 277.703 502.159C277.555 501.519 276.772 501.379 276.303 501.038C273.504 499.592 270.206 498.068 267.027 499.107ZM281.928 505.765C278.23 508.018 274.225 509.794 269.989 510.767C273.9 515.169 278.722 518.961 284.366 520.834C286.188 521.365 288.331 521.982 290.084 520.919C291.502 520.043 291.262 518.104 290.855 516.731C289.549 512.594 286.599 509.243 283.533 506.281C283.091 505.92 282.509 505.222 281.928 505.765Z" fill="#F2B82D" />
    <defs>
        <filter id="filter0_d" x="7.56001" y="0.780006" width="190.98" height="190.98" filterUnits="userSpaceOnUse" color-interpolation-filters="sRGB">
            <feFlood flood-opacity="0" result="BackgroundImageFix" />
            <feColorMatrix in="SourceAlpha" type="matrix" values="0 0 0 0 0 0 0 0 0 0 0 0 0 0 0 0 0 0 127 0" />
            <feOffset dy="21.22" />
            <feGaussianBlur stdDeviation="21.22" />
            <feColorMatrix type="matrix" values="0 0 0 0 0 0 0 0 0 0 0 0 0 0 0 0 0 0 0.08 0" />
            <feBlend mode="normal" in2="BackgroundImageFix" result="effect1_dropShadow" />
            <feBlend mode="normal" in="SourceGraphic" in2="effect1_dropShadow" result="shape" />
        </filter>
        <filter id="filter1_d" x="178.6" y="0.800001" width="190.8" height="190.8" filterUnits="userSpaceOnUse" color-interpolation-filters="sRGB">
            <feFlood flood-opacity="0" result="BackgroundImageFix" />
            <feColorMatrix in="SourceAlpha" type="matrix" values="0 0 0 0 0 0 0 0 0 0 0 0 0 0 0 0 0 0 127 0" />
            <feOffset dy="21.2" />
            <feGaussianBlur stdDeviation="21.2" />
            <feColorMatrix type="matrix" values="0 0 0 0 0 0 0 0 0 0 0 0 0 0 0 0 0 0 0.08 0" />
            <feBlend mode="normal" in2="BackgroundImageFix" result="effect1_dropShadow" />
            <feBlend mode="normal" in="SourceGraphic" in2="effect1_dropShadow" result="shape" />
        </filter>
        <filter id="filter2_d" x="0.422806" y="235.211" width="205.154" height="205.154" filterUnits="userSpaceOnUse" color-interpolation-filters="sRGB">
            <feFlood flood-opacity="0" result="BackgroundImageFix" />
            <feColorMatrix in="SourceAlpha" type="matrix" values="0 0 0 0 0 0 0 0 0 0 0 0 0 0 0 0 0 0 127 0" />
            <feOffset dy="17.7886" />
            <feGaussianBlur stdDeviation="17.7886" />
            <feColorMatrix type="matrix" values="0 0 0 0 0 0 0 0 0 0 0 0 0 0 0 0 0 0 0.08 0" />
            <feBlend mode="normal" in2="BackgroundImageFix" result="effect1_dropShadow" />
            <feBlend mode="normal" in="SourceGraphic" in2="effect1_dropShadow" result="shape" />
        </filter>
        <filter id="filter3_d" x="171.423" y="235.211" width="205.154" height="205.154" filterUnits="userSpaceOnUse" color-interpolation-filters="sRGB">
            <feFlood flood-opacity="0" result="BackgroundImageFix" />
            <feColorMatrix in="SourceAlpha" type="matrix" values="0 0 0 0 0 0 0 0 0 0 0 0 0 0 0 0 0 0 127 0" />
            <feOffset dy="17.7886" />
            <feGaussianBlur stdDeviation="17.7886" />
            <feColorMatrix type="matrix" values="0 0 0 0 0 0 0 0 0 0 0 0 0 0 0 0 0 0 0.08 0" />
            <feBlend mode="normal" in2="BackgroundImageFix" result="effect1_dropShadow" />
            <feBlend mode="normal" in="SourceGraphic" in2="effect1_dropShadow" result="shape" />
        </filter>
        <filter id="filter4_d" x="6.56001" y="429.78" width="190.98" height="190.98" filterUnits="userSpaceOnUse" color-interpolation-filters="sRGB">
            <feFlood flood-opacity="0" result="BackgroundImageFix" />
            <feColorMatrix in="SourceAlpha" type="matrix" values="0 0 0 0 0 0 0 0 0 0 0 0 0 0 0 0 0 0 127 0" />
            <feOffset dy="21.22" />
            <feGaussianBlur stdDeviation="21.22" />
            <feColorMatrix type="matrix" values="0 0 0 0 0 0 0 0 0 0 0 0 0 0 0 0 0 0 0.08 0" />
            <feBlend mode="normal" in2="BackgroundImageFix" result="effect1_dropShadow" />
            <feBlend mode="normal" in="SourceGraphic" in2="effect1_dropShadow" result="shape" />
        </filter>
        <filter id="filter5_d" x="178.56" y="429.78" width="190.98" height="190.98" filterUnits="userSpaceOnUse" color-interpolation-filters="sRGB">
            <feFlood flood-opacity="0" result="BackgroundImageFix" />
            <feColorMatrix in="SourceAlpha" type="matrix" values="0 0 0 0 0 0 0 0 0 0 0 0 0 0 0 0 0 0 127 0" />
            <feOffset dy="21.22" />
            <feGaussianBlur stdDeviation="21.22" />
            <feColorMatrix type="matrix" values="0 0 0 0 0 0 0 0 0 0 0 0 0 0 0 0 0 0 0.08 0" />
            <feBlend mode="normal" in2="BackgroundImageFix" result="effect1_dropShadow" />
            <feBlend mode="normal" in="SourceGraphic" in2="effect1_dropShadow" result="shape" />
        </filter>
        <linearGradient id="paint0_linear" x1="247.427" y1="51.6826" x2="296.707" y2="98.4336" gradientUnits="userSpaceOnUse">
            <stop stop-color="#1DB4FF" />
            <stop offset="1" stop-color="#0F72E5" />
        </linearGradient>
        <linearGradient id="paint1_linear" x1="153.689" y1="351.632" x2="71.1934" y2="301.135" gradientUnits="userSpaceOnUse">
            <stop stop-color="#FF8100" />
            <stop offset="0.0001" stop-color="#FF8100" />
            <stop offset="0.5" stop-color="#FF5D00" />
            <stop offset="1" stop-color="#FF3600" />
        </linearGradient>
        <linearGradient id="paint2_linear" x1="150.677" y1="314.351" x2="192.183" y2="239.273" gradientUnits="userSpaceOnUse">
            <stop stop-color="#B0FF33" />
            <stop offset="0.494792" stop-color="#55DF20" />
            <stop offset="1" stop-color="#0AC222" />
        </linearGradient>
    </defs>
</svg>
