<svg width="1440" height="1983" viewBox="0 0 1440 1983" fill="none" xmlns="http://www.w3.org/2000/svg">
<path d="M860.455 446.828H628.182C609.856 446.828 595 461.684 595 480.01V596.146C595 614.472 609.856 629.328 628.182 629.328H860.455C878.781 629.328 893.637 614.472 893.637 596.146V480.01C893.637 461.684 878.781 446.828 860.455 446.828Z" stroke="#002999" stroke-width="6" stroke-linecap="square" stroke-linejoin="bevel"/>
<path d="M661.398 446.828V380.464C661.398 358.463 670.138 337.363 685.695 321.806C701.252 306.249 722.352 297.51 744.353 297.51C766.354 297.51 787.454 306.249 803.011 321.806C818.568 337.363 827.308 358.463 827.308 380.464V446.828" stroke="#002999" stroke-width="6" stroke-linecap="square" stroke-linejoin="bevel"/>
<path d="M744.669 836.083C744.669 836.083 1009 703.917 1009 505.667V274.375L744.669 175.25L480.336 274.375V505.667C480.336 703.917 744.669 836.083 744.669 836.083Z" stroke="#002999" stroke-width="6" stroke-linecap="round" stroke-linejoin="round"/>
<path d="M609.809 1390.34C405.611 1363.2 216.492 1268.12 72.9182 1120.41V1120.41L-763 263.622C-709.789 254.9 -655.916 250.864 -602 251.561C-455.138 252.446 -310.659 288.763 -180.834 357.427C-98.9667 401.151 -24.3499 457.267 40.3736 523.788L348.686 839.662C350.505 841.672 352.515 843.682 354.525 845.788C451.429 945.154 583.606 1002.3 722.378 1004.83C861.15 1007.35 995.32 955.057 1095.78 859.284L773.776 1173.44C708.454 1237.02 653.168 1310.15 609.809 1390.34V1390.34Z" stroke="#001B66" stroke-width="6"/>
<path d="M1370.31 1140.71L513.427 1976.63C480.743 1775.81 514.555 1569.8 609.721 1389.97C653.067 1309.85 708.32 1236.79 773.592 1173.26L1095.59 859.105C1146.13 811.009 1186.61 753.361 1214.7 689.501C1242.79 625.642 1257.92 556.842 1259.22 487.091C1260.52 417.339 1247.96 348.024 1222.27 283.162C1196.58 218.301 1158.28 159.184 1109.57 109.239L1423.53 431.143C1488.23 497.656 1562.86 553.743 1644.74 597.408C1617.8 804.477 1520.99 996.147 1370.31 1140.71V1140.71Z" stroke="#001B66" stroke-width="6"/>
<path d="M2227 691.777C2173.81 700.42 2119.98 704.423 2066.1 703.742C1919.23 702.786 1774.76 666.439 1644.93 597.78C1563.05 554.115 1488.43 498.029 1423.72 431.516L1109.48 109.42C1061.16 59.7959 1003.53 20.1819 939.888 -7.15796C876.248 -34.4978 807.844 -49.0275 738.586 -49.9165C669.327 -50.8054 600.573 -38.0362 536.252 -12.3388C471.931 13.3587 413.306 51.4805 363.727 99.8477L681.42 -210.092C749.178 -275.959 806.129 -352.097 850.173 -435.703C1055.77 -409.206 1246.33 -313.859 1390.8 -165.2L2227 691.777Z" stroke="#001B66" stroke-width="6"/>
<path d="M348.524 839.857L40.2116 523.983C-24.5119 457.463 -99.1287 401.347 -180.996 357.622C-154.656 154.749 -61.1839 -33.4743 84.5298 -177.067L941.506 -1012.98C950.2 -959.804 954.204 -905.962 953.471 -852.08C952.551 -706.946 917.081 -564.117 849.998 -435.414C805.954 -351.808 749.004 -275.67 681.245 -209.803L363.552 100.137C264.46 196.787 207.344 328.526 204.532 466.919C201.721 605.312 253.439 739.262 348.524 839.857V839.857Z" stroke="#001B66" stroke-width="6"/>
</svg>
