<svg viewBox="0 0 69 62" fill="none" xmlns="http://www.w3.org/2000/svg">
<path d="M59.3539 0H40.1652L30.5195 16.6504L40.1652 33.4035H59.3539L68.9995 16.6504L59.3539 0Z" fill="#FF5D00"/>
<path d="M2 33.2144C2 18.1764 14.1764 6 29.2144 6C44.2525 6 56.4289 18.1764 56.4289 33.2144" stroke="#000E33" stroke-width="3" stroke-miterlimit="10" stroke-linecap="round" stroke-linejoin="round"/>
<path d="M28.375 15.2583C28.375 15.2583 61.7618 14.9778 39.3169 58.7453" stroke="#000E33" stroke-width="3" stroke-miterlimit="10" stroke-linecap="round" stroke-linejoin="round"/>
<path d="M21.0809 16.1001C18.1911 17.7554 15.6661 20.2805 13.9827 23.1702C12.2152 26.1442 11.8785 29.7354 11.2613 33.074C10.9246 34.9538 10.3915 37.03 8.96067 38.3766C7.30536 39.9478 5.34143 41.042 3.125 41.6312" stroke="#000E33" stroke-width="3" stroke-miterlimit="10" stroke-linecap="round" stroke-linejoin="round"/>
<path d="M28.6577 31.8115C29.7799 41.9398 23.2709 51.4227 14.9102 56.5009" stroke="#000E33" stroke-width="3" stroke-miterlimit="10" stroke-linecap="round" stroke-linejoin="round"/>
<path d="M37.0705 40.7891C35.4994 48.5606 31.1507 55.743 24.7539 60.4564" stroke="#000E33" stroke-width="3" stroke-miterlimit="10" stroke-linecap="round" stroke-linejoin="round"/>
<path d="M38.4456 32.9339C38.2772 30.6614 37.3233 28.473 35.7241 26.8457C31.2351 22.2165 23.3794 23.2265 20.7422 29.2024C19.2271 32.6253 19.9566 36.4129 18.7502 39.9199C16.9546 45.3066 12.2131 48.7295 7.05078 50.6093" stroke="#000E33" stroke-width="3" stroke-miterlimit="10" stroke-linecap="round" stroke-linejoin="round"/>
</svg>
