<svg width="67" height="59" viewBox="0 0 67 59" fill="none" xmlns="http://www.w3.org/2000/svg">
<path d="M62.0078 1V15.9333" stroke="#000E33" stroke-width="2" stroke-linecap="square" stroke-linejoin="round"/>
<path d="M65.3203 3.65479H60.228C59.5977 3.65479 58.9933 3.90827 58.5476 4.35946C58.1019 4.81066 57.8516 5.42262 57.8516 6.06071C57.8516 6.6988 58.1019 7.31076 58.5476 7.76196C58.9933 8.21316 59.5977 8.46664 60.228 8.46664H63.6229C64.2531 8.46664 64.8576 8.72012 65.3033 9.17132C65.7489 9.62252 65.9993 10.2345 65.9993 10.8726C65.9993 11.5107 65.7489 12.1226 65.3033 12.5738C64.8576 13.025 64.2531 13.2785 63.6229 13.2785H57.8516" stroke="#000E33" stroke-width="2" stroke-linecap="square" stroke-linejoin="round"/>
<ellipse cx="17.0568" cy="17.0204" rx="17.0568" ry="17.0204" fill="#55DF20"/>
<path d="M44.0089 10.9556H25.5518C24.328 10.9556 23.1543 11.4407 22.289 12.3042C21.4236 13.1677 20.9375 14.3388 20.9375 15.56V52.3956C20.9375 53.6167 21.4236 54.7879 22.289 55.6514C23.1543 56.5149 24.328 57 25.5518 57H53.2375C54.4613 57 55.6349 56.5149 56.5003 55.6514C57.3656 54.7879 57.8518 53.6167 57.8518 52.3956V24.7689L44.0089 10.9556Z" stroke="#000E33" stroke-width="3" stroke-linecap="round"/>
<path d="M44.0098 10.9556V24.7689H57.8526" stroke="#000E33" stroke-width="3" stroke-linecap="round"/>
<path d="M48.6232 36.28H30.166" stroke="#000E33" stroke-width="3" stroke-linecap="square"/>
<path d="M48.6232 45.4888H30.166" stroke="#000E33" stroke-width="3" stroke-linecap="square"/>
<path d="M34.7803 27.071H32.4732H30.166" stroke="#000E33" stroke-width="3" stroke-linecap="square"/>
</svg>
