<svg width="67" height="58" viewBox="0 0 67 58" fill="none" xmlns="http://www.w3.org/2000/svg">
<ellipse cx="50.1635" cy="16.8237" rx="16.8373" ry="16.8237" fill="#A803FC"/>
<path d="M49.7012 14.9374C48.4383 13.6749 46.9388 12.6734 45.2884 11.9901C43.6379 11.3068 41.869 10.9551 40.0825 10.9551C38.296 10.9551 36.527 11.3068 34.8766 11.9901C33.2262 12.6734 31.7267 13.6749 30.4638 14.9374L27.8427 17.5563L25.2217 14.9374C22.6706 12.3884 19.2107 10.9564 15.6029 10.9564C11.9952 10.9564 8.53525 12.3884 5.98421 14.9374C3.43316 17.4864 2 20.9435 2 24.5483C2 28.1531 3.43316 31.6103 5.98421 34.1593L8.60525 36.7782L27.8427 56.0001L47.0802 36.7782L49.7012 34.1593C50.9647 32.8974 51.9671 31.3991 52.6509 29.75C53.3348 28.1009 53.6867 26.3334 53.6867 24.5483C53.6867 22.7633 53.3348 20.9957 52.6509 19.3467C51.9671 17.6976 50.9647 16.1993 49.7012 14.9374V14.9374Z" stroke="#000E33" stroke-width="3" stroke-linecap="round" stroke-linejoin="round"/>
</svg>
