<svg width="75" height="59" viewBox="0 0 75 59" fill="none" xmlns="http://www.w3.org/2000/svg">
<path d="M5.11133 1V15.7368" stroke="#000E33" stroke-width="2" stroke-linecap="square" stroke-linejoin="round"/>
<path d="M8.3863 3.61987H3.35019C2.72688 3.61987 2.1291 3.87002 1.68835 4.31528C1.24761 4.76054 1 5.36445 1 5.99414C1 6.62384 1.24761 7.22774 1.68835 7.673C2.1291 8.11827 2.72688 8.36841 3.35019 8.36841H6.70759C7.3309 8.36841 7.92868 8.61856 8.36943 9.06382C8.81017 9.50908 9.05778 10.113 9.05778 10.7427C9.05778 11.3724 8.81017 11.9763 8.36943 12.4215C7.92868 12.8668 7.3309 13.117 6.70759 13.117H1" stroke="#000E33" stroke-width="2" stroke-linecap="square" stroke-linejoin="round"/>
<path d="M65.3539 1H46.1652L36.5195 17.6504L46.1652 34.4035H65.3539L74.9995 17.6504L65.3539 1Z" fill="#FF5D00"/>
<path d="M10.8672 25.0702L33.0672 7.8772L55.2672 25.0702V52.0877C55.2672 53.3905 54.7474 54.64 53.8222 55.5612C52.8971 56.4825 51.6423 57 50.3339 57H15.8005C14.4921 57 13.2373 56.4825 12.3121 55.5612C11.3869 54.64 10.8672 53.3905 10.8672 52.0877V25.0702Z" stroke="#000E33" stroke-width="3" stroke-linecap="square" stroke-linejoin="round"/>
<path d="M25.668 56.9999V32.4385H40.468V56.9999" stroke="#000E33" stroke-width="3" stroke-linecap="square" stroke-linejoin="round"/>
</svg>
