<svg width="62" height="58" viewBox="0 0 62 58" fill="none" xmlns="http://www.w3.org/2000/svg">
<rect width="33.3296" height="33.4035" fill="#55DF20"/>
<path d="M53.9289 55.9999V50.9784C53.9289 48.3149 52.871 45.7604 50.9879 43.877C49.1048 41.9936 46.5507 40.9355 43.8876 40.9355H23.805C21.1419 40.9355 18.5878 41.9936 16.7047 43.877C14.8216 45.7604 13.7637 48.3149 13.7637 50.9784V55.9999" stroke="#000E33" stroke-width="3" stroke-linecap="square" stroke-linejoin="round"/>
<path d="M33.846 30.8927C39.3917 30.8927 43.8873 26.3963 43.8873 20.8498C43.8873 15.3032 39.3917 10.8069 33.846 10.8069C28.3003 10.8069 23.8047 15.3032 23.8047 20.8498C23.8047 26.3963 28.3003 30.8927 33.846 30.8927Z" stroke="#000E33" stroke-width="3" stroke-linecap="square" stroke-linejoin="round"/>
<path d="M57.0781 1.96484V16.7017" stroke="#000E33" stroke-width="2" stroke-linecap="square" stroke-linejoin="round"/>
<path d="M60.3326 4.58496H55.3291C54.7098 4.58496 54.1159 4.83511 53.678 5.28037C53.2401 5.72563 52.9941 6.32953 52.9941 6.95923C52.9941 7.58893 53.2401 8.19283 53.678 8.63809C54.1159 9.08335 54.7098 9.3335 55.3291 9.3335H58.6648C59.2841 9.3335 59.878 9.58365 60.3159 10.0289C60.7538 10.4742 60.9998 11.0781 60.9998 11.7078C60.9998 12.3375 60.7538 12.9414 60.3159 13.3866C59.878 13.8319 59.2841 14.082 58.6648 14.082H52.9941" stroke="#000E33" stroke-width="2" stroke-linecap="square" stroke-linejoin="round"/>
</svg>

