<svg width="180" height="23" viewBox="0 0 180 23" fill="none" xmlns="http://www.w3.org/2000/svg">
<g clip-path="url(#clip0)">
<path d="M3.93957 21.8337C3.5441 21.8337 3.1345 21.7348 2.71079 21.5371C2.31531 21.3394 1.94809 21.0851 1.60911 20.7744C1.29838 20.4354 1.04415 20.0682 0.84641 19.6727C0.648673 19.249 0.549805 18.8253 0.549805 18.4016V3.95266C0.549805 3.52894 0.648673 3.11933 0.84641 2.72385C1.04415 2.30014 1.29838 1.93291 1.60911 1.62218C1.94809 1.28321 2.31531 1.01485 2.71079 0.817113C3.1345 0.619376 3.5441 0.520508 3.93957 0.520508H23.5579C23.9533 0.520508 24.3488 0.619376 24.7443 0.817113C25.1681 1.01485 25.5352 1.28321 25.8459 1.62218C26.1849 1.93291 26.4533 2.30014 26.651 2.72385C26.8488 3.11933 26.9476 3.52894 26.9476 3.95266V18.4016C26.9476 18.8253 26.8488 19.249 26.651 19.6727C26.4533 20.0682 26.1849 20.4354 25.8459 20.7744C25.5352 21.0851 25.1681 21.3394 24.7443 21.5371C24.3488 21.7348 23.9533 21.8337 23.5579 21.8337H3.93957ZM13.2191 16.1135H20.8461V7.13056L13.2191 16.1135ZM14.2784 6.24074H6.6514V15.2236L14.2784 6.24074Z" fill="url(#paint0_linear)"/>
<path d="M51.1119 13.783V16.1135H36.917V6.24074H57.2134V0.520508H34.2054C33.8097 0.520508 33.4003 0.619376 32.9765 0.817113C32.581 1.01485 32.2137 1.28321 31.8748 1.62218C31.564 1.93291 31.3097 2.30014 31.112 2.72385C30.9143 3.11933 30.8154 3.52894 30.8154 3.95266V18.4016C30.8154 18.8253 30.9143 19.249 31.112 19.6727C31.3097 20.0682 31.564 20.4354 31.8748 20.7744C32.2137 21.0851 32.581 21.3394 32.9765 21.5371C33.4003 21.7348 33.8097 21.8337 34.2054 21.8337H53.8235C54.219 21.8337 54.6146 21.7348 55.0101 21.5371C55.4337 21.3394 55.801 21.0851 56.1118 20.7744C56.4507 20.4354 56.7189 20.0682 56.9166 19.6727C57.1146 19.249 57.2134 18.8253 57.2134 18.4016V12.0034C57.2134 11.5796 57.1146 11.1701 56.9166 10.7746C56.7189 10.3508 56.4507 9.98363 56.1118 9.67289C55.801 9.33392 55.4337 9.06555 55.0101 8.86782C54.6146 8.6701 54.219 8.57121 53.8235 8.57121H40.8578V13.783H51.1119Z" fill="#041D5F"/>
<path d="M78.7016 7.63904V13.1898H71.7949L75.9474 8.1475C76.2016 7.86503 76.4842 7.58254 76.7948 7.30004C77.1339 7.01757 77.4587 6.87633 77.7695 6.87633C78.0519 6.87633 78.278 6.96107 78.4473 7.13056C78.6169 7.30007 78.7016 7.46955 78.7016 7.63904ZM84.8032 5.35093C84.8032 4.41876 84.6619 3.64193 84.3795 3.02046C84.0969 2.39901 83.7015 1.90467 83.193 1.53744C82.6847 1.17021 82.0773 0.915981 81.3711 0.774741C80.6649 0.605252 79.874 0.520508 78.9982 0.520508C77.8683 0.520508 76.7243 0.6335 75.5661 0.859485C74.436 1.08547 73.5463 1.48094 72.8966 2.04591L58.0664 21.8337H65.2273L68.0239 18.3168H78.7016V21.8337H84.8032V5.35093Z" fill="#041D5F"/>
<path d="M93.6055 21.8337V9.92712C94.9614 12.3282 96.2327 14.4186 97.419 16.1982C98.6338 17.9496 99.5377 19.2349 100.131 20.0541C100.696 20.845 101.176 21.3394 101.572 21.5371C101.995 21.7348 102.433 21.8337 102.885 21.8337H103.817C104.1 21.8337 104.481 21.7348 104.961 21.5371C105.47 21.3394 106.006 20.845 106.571 20.0541C107.165 19.2349 108.054 17.9496 109.241 16.1982C110.455 14.4186 111.741 12.3282 113.097 9.92712V21.8337H119.198V3.18995C119.198 2.87922 119.1 2.5685 118.902 2.25777C118.732 1.91879 118.492 1.62218 118.181 1.36795C117.871 1.11372 117.503 0.915981 117.08 0.774741C116.656 0.605252 116.204 0.520508 115.724 0.520508H114.071C113.309 0.633501 112.56 0.915983 111.826 1.36795C111.119 1.81992 110.554 2.39901 110.131 3.10521L103.351 14.2915L96.5716 3.10521C96.1478 2.39901 95.5688 1.81992 94.8344 1.36795C94.1282 0.915983 93.3936 0.633501 92.631 0.520508H90.9785C90.4982 0.520508 90.0462 0.605252 89.6226 0.774741C89.1988 0.915981 88.8317 1.11372 88.5209 1.36795C88.2101 1.62218 87.9559 1.91879 87.7582 2.25777C87.5888 2.5685 87.5039 2.87922 87.5039 3.18995V21.8337H93.6055Z" fill="#041D5F"/>
<path d="M141.932 8.57121V6.24074H127.991V16.1135H148.033V21.8337H125.28C124.884 21.8337 124.474 21.7348 124.051 21.5371C123.655 21.3394 123.288 21.0851 122.949 20.7744C122.638 20.4354 122.384 20.0682 122.186 19.6727C121.989 19.249 121.89 18.8253 121.89 18.4016V3.95266C121.89 3.52894 121.989 3.11933 122.186 2.72385C122.384 2.30014 122.638 1.93291 122.949 1.62218C123.288 1.28321 123.655 1.01485 124.051 0.817113C124.474 0.619376 124.884 0.520508 125.28 0.520508H144.643C145.039 0.520508 145.435 0.619376 145.83 0.817113C146.254 1.01485 146.621 1.28321 146.932 1.62218C147.271 1.93291 147.539 2.30014 147.737 2.72385C147.935 3.11933 148.033 3.52894 148.033 3.95266V10.3508C148.033 10.7746 147.935 11.1983 147.737 11.622C147.539 12.0175 147.271 12.3847 146.932 12.7237C146.621 13.0344 146.254 13.2887 145.83 13.4864C145.435 13.6841 145.039 13.783 144.643 13.783H130.322V8.57121H141.932Z" fill="#041D5F"/>
<path d="M172.935 13.783V16.1135H150.732V21.8337H175.647C176.043 21.8337 176.438 21.7348 176.834 21.5371C177.257 21.3394 177.625 21.0851 177.935 20.7744C178.274 20.4354 178.543 20.0682 178.74 19.6727C178.938 19.249 179.037 18.8253 179.037 18.4016V12.0034C179.037 11.5796 178.938 11.1701 178.74 10.7746C178.543 10.3508 178.274 9.98363 177.935 9.67289C177.625 9.33392 177.257 9.06555 176.834 8.86782C176.438 8.6701 176.043 8.57121 175.647 8.57121H159.249V6.24074H179.037V0.520508H156.537C156.142 0.520508 155.732 0.619376 155.309 0.817113C154.913 1.01485 154.546 1.28321 154.207 1.62218C153.896 1.93291 153.642 2.30014 153.444 2.72385C153.247 3.11933 153.148 3.52894 153.148 3.95266V10.3508C153.148 10.7746 153.247 11.1983 153.444 11.622C153.642 12.0175 153.896 12.3847 154.207 12.7237C154.546 13.0344 154.913 13.2887 155.309 13.4864C155.732 13.6841 156.142 13.783 156.537 13.783H172.935Z" fill="#041D5F"/>
</g>
<defs>
<linearGradient id="paint0_linear" x1="24.0322" y1="1.85627" x2="6.37855" y2="20.908" gradientUnits="userSpaceOnUse">
<stop stop-color="#FE7E00"/>
<stop offset="1" stop-color="#FF3B00"/>
</linearGradient>
<clipPath id="clip0">
<rect width="178.599" height="21.492" fill="white" transform="translate(0.549805 0.520508)"/>
</clipPath>
</defs>
</svg>
