<svg viewBox="0 0 216 216" fill="none" xmlns="http://www.w3.org/2000/svg">
<g filter="url(#filter0_d)">
<circle cx="108" cy="84" r="60" fill="white"/>
<path d="M92.5461 81.5495C92.2816 81.4639 91.724 81.4072 91.1663 81.4072C89.4933 81.4072 87.7024 82.7229 87.7024 84.3479V92.0989H83.8823V78.2707H87.5524V79.6677C88.4032 78.6411 89.9571 77.9849 91.6907 77.9849C92.1237 77.9871 92.5558 78.0243 92.9824 78.0961L92.5461 81.5495Z" fill="#000E33"/>
<path d="M96.7608 71C98.1406 71 99.256 72.0266 99.256 73.3668C99.256 74.707 98.1406 75.7325 96.7608 75.7325C95.381 75.7325 94.2656 74.7059 94.2656 73.3668C94.2656 72.0277 95.381 71 96.7608 71ZM98.6685 92.0988H94.8531V78.2706H98.6685V92.0988Z" fill="#000E33"/>
<path d="M109.941 77.9851C108.425 77.9653 106.949 78.4598 105.768 79.3831V78.2709H102.104V98.9415H105.921V91.1293C107.006 91.9627 108.354 92.4064 109.737 92.385C111.851 92.385 113.876 91.4719 115.138 90.0493C116.254 88.7947 116.928 87.0841 116.928 85.2023C116.927 81.1215 113.815 77.9851 109.941 77.9851ZM109.477 89.0194C107.107 89.0194 105.55 87.43 105.55 85.2112C105.55 82.9923 107.107 81.4029 109.477 81.4029C111.501 81.4029 113.142 83.108 113.142 85.2112C113.142 87.3144 111.501 89.0194 109.477 89.0194Z" fill="#000E33"/>
<path d="M140.088 92.0993H136.271V71.8569H140.088V92.0993Z" fill="#000E33"/>
<path d="M155.646 89.9034C154.266 91.4995 152.006 92.3837 149.806 92.3837C145.55 92.3837 142.35 89.533 142.35 85.1987C142.35 81.3493 145.05 77.9849 149.278 77.9849C153.211 77.9849 156 81.2103 156 85.0564C156.002 85.4097 155.973 85.7625 155.912 86.1107H146.046C146.251 88.0505 147.866 89.3896 149.892 89.3896C151.506 89.3896 152.798 88.5065 153.474 87.7935L155.646 89.9034ZM152.096 83.4025C151.982 82.179 150.836 80.979 149.278 80.979C147.692 80.979 146.401 82.1479 146.225 83.4025H152.096Z" fill="#000E33"/>
<path d="M127.025 77.985C125.511 77.9663 124.037 78.4607 122.857 79.3831V78.2708H119.193V98.9415H123.009V91.1292C124.095 91.9627 125.443 92.4063 126.826 92.3849C128.94 92.3849 130.964 91.4718 132.226 90.0493C133.343 88.7947 134.016 87.0841 134.016 85.2022C134.01 81.1215 130.899 77.985 127.025 77.985ZM126.567 89.0193C124.197 89.0193 122.638 87.43 122.638 85.2111C122.638 82.9922 124.197 81.4029 126.567 81.4029C128.591 81.4029 130.232 83.1079 130.232 85.2111C130.232 87.3143 128.585 89.0193 126.562 89.0193H126.567Z" fill="#000E33"/>
<path d="M75.9185 86.608C75.0574 86.1253 74.0864 85.9851 73.1256 85.9518C72.3241 85.9251 71.116 85.4235 71.116 83.9987C71.116 82.9365 72.0023 82.0824 73.1256 82.0445C74.0875 82.0123 75.0574 81.871 75.9185 81.3883C76.6924 80.9545 77.3351 80.3304 77.7819 79.5788C78.2288 78.8273 78.464 77.9747 78.4641 77.1068C78.4641 76.2389 78.229 75.3863 77.7822 74.6347C77.3354 73.8831 76.6928 73.2589 75.919 72.825C75.1452 72.3911 74.2674 72.1627 73.3738 72.1627C72.4803 72.1628 71.6025 72.3913 70.8287 72.8253C70.0549 73.2593 69.4124 73.8835 68.9657 74.6352C68.5191 75.3869 68.284 76.2395 68.2842 77.1074C68.2842 78.065 68.6346 78.947 69.0857 79.7645C69.4625 80.4518 69.6583 81.7276 68.362 82.4516C67.4013 82.9899 66.2035 82.6496 65.6046 81.7187C65.0985 80.9323 64.4882 80.196 63.6339 79.7167C62.8601 79.283 61.9824 79.0547 61.0891 79.0549C60.1957 79.055 59.3181 79.2836 58.5445 79.7175C57.7708 80.1515 57.1284 80.7756 56.6818 81.5271C56.2351 82.2786 56 83.131 56 83.9987C56 84.8664 56.2351 85.7189 56.6818 86.4704C57.1284 87.2219 57.7708 87.846 58.5445 88.2799C59.3181 88.7139 60.1957 88.9424 61.0891 88.9425C61.9824 88.9427 62.8601 88.7145 63.6339 88.2808C64.4882 87.8014 65.0985 87.0651 65.6035 86.2788C66.0192 85.6337 67.0555 84.8118 68.362 85.5447C69.3205 86.083 69.6216 87.262 69.0857 88.2329C68.638 89.0504 68.2842 89.9313 68.2842 90.8889C68.284 91.7568 68.5191 92.6094 68.9657 93.3611C69.4124 94.1128 70.0549 94.737 70.8287 95.171C71.6025 95.605 72.4803 95.8336 73.3738 95.8336C74.2674 95.8337 75.1452 95.6052 75.919 95.1713C76.6928 94.7374 77.3354 94.1132 77.7822 93.3616C78.229 92.61 78.4641 91.7574 78.4641 90.8895C78.464 90.0216 78.2288 89.1691 77.7819 88.4175C77.3351 87.6659 76.6924 87.0418 75.9185 86.608Z" fill="url(#paint0_linear)"/>
</g>
<defs>
<filter id="filter0_d" x="0" y="0"  filterUnits="userSpaceOnUse" color-interpolation-filters="sRGB">
<feFlood flood-opacity="0" result="BackgroundImageFix"/>
<feColorMatrix in="SourceAlpha" type="matrix" values="0 0 0 0 0 0 0 0 0 0 0 0 0 0 0 0 0 0 127 0"/>
<feOffset dy="24"/>
<feGaussianBlur stdDeviation="24"/>
<feColorMatrix type="matrix" values="0 0 0 0 0 0 0 0 0 0 0 0 0 0 0 0 0 0 0.08 0"/>
<feBlend mode="normal" in2="BackgroundImageFix" result="effect1_dropShadow"/>
<feBlend mode="normal" in="SourceGraphic" in2="effect1_dropShadow" result="shape"/>
</filter>
<linearGradient id="paint0_linear" x1="56" y1="72.1627" x2="79.6385" y2="94.5961" gradientUnits="userSpaceOnUse">
<stop stop-color="#1DB4FF"/>
<stop offset="1" stop-color="#0F72E5"/>
</linearGradient>
</defs>
</svg>
