<svg width="1440" height="1883" viewBox="0 0 1440 1883" fill="none" xmlns="http://www.w3.org/2000/svg">
<mask id="faq-mask0" mask-type="alpha" maskUnits="userSpaceOnUse" x="-782" y="-1029" width="3004" height="2912">
<path d="M597.809 1307.93C393.611 1281.62 204.492 1189.45 60.9182 1046.24V1046.24L-775 215.621C-721.789 207.166 -667.916 203.253 -614 203.929C-467.138 204.787 -322.659 239.995 -192.834 306.562C-110.967 348.951 -36.3499 403.353 28.3736 467.842L336.686 774.07C338.505 776.019 340.515 777.968 342.525 780.009C439.429 876.341 571.606 931.742 710.378 934.192C849.15 936.641 983.32 885.941 1083.78 793.093L761.776 1097.65C696.454 1159.29 641.168 1230.19 597.809 1307.93V1307.93Z" stroke="#001B66" stroke-width="6"/>
<path d="M1358.31 1065.93L501.427 1876.32C468.743 1681.63 502.555 1481.92 597.721 1307.57C641.067 1229.9 696.32 1159.07 761.592 1097.48L1083.59 792.92C1134.13 746.293 1174.61 690.405 1202.7 628.496C1230.79 566.587 1245.92 499.888 1247.22 432.267C1248.52 364.645 1235.96 297.446 1210.27 234.565C1184.58 171.685 1146.28 114.373 1097.57 65.9529L1411.53 378.027C1476.23 442.509 1550.86 496.883 1632.74 539.215C1605.8 739.96 1508.99 925.777 1358.31 1065.93V1065.93Z" stroke="#001B66" stroke-width="6"/>
<path d="M2215 630.702C2161.81 639.081 2107.98 642.962 2054.1 642.302C1907.23 641.375 1762.76 606.137 1632.93 539.576C1551.05 497.244 1476.43 442.87 1411.72 378.388L1097.48 66.1285C1049.15 18.0201 991.526 -20.3841 927.886 -46.8891C864.247 -73.394 795.843 -87.48 726.584 -88.3418C657.326 -89.2037 588.571 -76.8244 524.251 -51.9117C459.93 -26.999 401.305 9.95871 351.725 56.8488L669.418 -243.626C737.177 -307.482 794.128 -381.295 838.172 -462.347C1043.77 -436.659 1234.33 -344.224 1378.8 -200.104L2215 630.702Z" stroke="#001B66" stroke-width="6"/>
<path d="M336.525 774.26L28.2131 468.032C-36.5104 403.543 -111.127 349.14 -192.995 306.752C-166.654 110.074 -73.1825 -72.4018 72.5312 -211.609L929.508 -1022C938.201 -970.443 942.205 -918.246 941.473 -866.009C940.552 -725.307 905.083 -586.84 838 -462.067C793.956 -381.014 737.005 -307.201 669.246 -243.345L351.553 57.1293C252.461 150.828 195.346 278.544 192.534 412.711C189.722 546.878 241.44 676.737 336.525 774.26V774.26Z" stroke="#001B66" stroke-width="6"/>
<path d="M1099.79 496.861C1099.86 521.789 1093.85 546.38 1082.26 568.631C1068.51 595.295 1047.38 617.722 1021.23 633.4C995.081 649.078 964.944 657.389 934.197 657.4C908.484 657.465 883.118 651.641 860.166 640.402L749.12 676.287L786.135 568.631C774.542 546.38 768.534 521.789 768.601 496.861C768.613 467.053 777.185 437.837 793.357 412.485C809.529 387.133 832.663 366.646 860.166 353.32C883.118 342.081 908.484 336.257 934.197 336.322H943.938C984.545 338.494 1022.9 355.11 1051.66 382.989C1080.41 410.868 1097.55 448.051 1099.79 487.418V496.861Z" stroke="#001B66" stroke-width="6" stroke-linecap="round" stroke-linejoin="round"/>
<path d="M340 356.783C339.945 377.556 344.951 398.049 354.612 416.591C366.067 438.811 383.676 457.5 405.468 470.565C427.26 483.63 452.374 490.556 477.997 490.565C499.425 490.619 520.563 485.766 539.689 476.4L632.228 506.304L601.382 416.591C611.043 398.049 616.049 377.556 615.993 356.783C615.983 331.943 608.84 307.596 595.363 286.469C581.887 265.343 562.609 248.271 539.689 237.166C520.563 227.8 499.425 222.946 477.997 223H469.879C436.04 224.81 404.079 238.657 380.115 261.89C356.15 285.122 341.867 316.108 340 348.913V356.783Z" stroke="#001B66" stroke-width="6" stroke-linecap="round" stroke-linejoin="round"/>
</mask>
<g mask="url(#faq-mask0)">
<rect y="-0.187012" width="1440" height="1936" fill="url(#faq-paint0_linear)"/>
</g>
<defs>
<linearGradient id="faq-paint0_linear" x1="720" y1="-0.187012" x2="720" y2="1935.81" gradientUnits="userSpaceOnUse">
<stop stop-color="#001B66"/>
<stop offset="0.5" stop-color="#000E33"/>
</linearGradient>
</defs>
</svg>
