<svg width="1440" height="1883" viewBox="0 0 1440 1883" fill="none" xmlns="http://www.w3.org/2000/svg">
<mask id="faq-mask0" mask-type="alpha" maskUnits="userSpaceOnUse" x="-782" y="-1029" width="3004" height="2912">
<path d="M597.809 1307.93C393.611 1281.62 204.492 1189.45 60.9182 1046.24V1046.24L-775 215.621C-721.789 207.166 -667.916 203.253 -614 203.929C-467.138 204.787 -322.659 239.995 -192.834 306.562C-110.967 348.951 -36.3499 403.353 28.3736 467.842L336.686 774.07C338.505 776.019 340.515 777.968 342.525 780.009C439.429 876.341 571.606 931.742 710.378 934.192C849.15 936.641 983.32 885.941 1083.78 793.093L761.776 1097.65C696.454 1159.29 641.168 1230.19 597.809 1307.93V1307.93Z" stroke="#001B66" stroke-width="6"/>
<path d="M1358.31 1065.93L501.427 1876.32C468.743 1681.63 502.555 1481.92 597.721 1307.57C641.067 1229.9 696.32 1159.07 761.592 1097.48L1083.59 792.92C1134.13 746.293 1174.61 690.405 1202.7 628.496C1230.79 566.587 1245.92 499.888 1247.22 432.267C1248.52 364.645 1235.96 297.446 1210.27 234.565C1184.58 171.685 1146.28 114.373 1097.57 65.9529L1411.53 378.027C1476.23 442.509 1550.86 496.883 1632.74 539.215C1605.8 739.96 1508.99 925.777 1358.31 1065.93V1065.93Z" stroke="#001B66" stroke-width="6"/>
<path d="M2215 630.702C2161.81 639.081 2107.98 642.962 2054.1 642.302C1907.23 641.375 1762.76 606.137 1632.93 539.576C1551.05 497.244 1476.43 442.87 1411.72 378.388L1097.48 66.1285C1049.15 18.0201 991.526 -20.3841 927.886 -46.8891C864.247 -73.394 795.843 -87.48 726.584 -88.3418C657.326 -89.2037 588.571 -76.8244 524.251 -51.9117C459.93 -26.999 401.305 9.95871 351.725 56.8488L669.418 -243.626C737.177 -307.482 794.128 -381.295 838.172 -462.347C1043.77 -436.659 1234.33 -344.224 1378.8 -200.104L2215 630.702Z" stroke="#001B66" stroke-width="6"/>
<path d="M336.525 774.26L28.2129 468.032C-36.5105 403.543 -111.127 349.14 -192.995 306.752C-166.654 110.074 -73.1826 -72.4018 72.5311 -211.609L929.508 -1022C938.201 -970.443 942.205 -918.246 941.473 -866.009C940.552 -725.307 905.083 -586.84 838 -462.067C793.956 -381.014 737.005 -307.201 669.246 -243.345L351.553 57.1293C252.461 150.828 195.345 278.544 192.534 412.711C189.722 546.878 241.44 676.737 336.525 774.26V774.26Z" stroke="#001B66" stroke-width="6"/>
<path d="M1000 481.959C1000.05 499.02 995.934 515.85 988 531.078C978.592 549.327 964.13 564.676 946.232 575.406C928.335 586.136 907.71 591.824 886.666 591.831C869.068 591.876 851.708 587.89 836 580.198L760 604.758L785.333 531.078C777.399 515.85 773.287 499.02 773.333 481.959C773.341 461.558 779.208 441.563 790.276 424.212C801.344 406.861 817.177 392.841 836 383.72C851.708 376.028 869.068 372.042 886.666 372.087H893.333C921.124 373.573 947.374 384.945 967.055 404.025C986.736 423.106 998.466 448.553 1000 475.496V481.959Z" stroke="#001B66" stroke-width="6" stroke-linecap="round" stroke-linejoin="round"/>
<path d="M480 386.09C479.962 400.307 483.388 414.332 490 427.023C497.84 442.23 509.892 455.021 524.806 463.962C539.721 472.904 556.909 477.644 574.445 477.65C589.11 477.687 603.577 474.366 616.667 467.956L680 488.422L658.889 427.023C665.501 414.332 668.927 400.307 668.889 386.09C668.882 369.09 663.993 352.427 654.77 337.968C645.546 323.509 632.353 311.825 616.667 304.224C603.577 297.815 589.11 294.493 574.445 294.53H568.889C545.73 295.769 523.855 305.245 507.454 321.145C491.053 337.046 481.278 358.252 480 380.704V386.09Z" stroke="#001B66" stroke-width="6" stroke-linecap="round" stroke-linejoin="round"/>
</mask>
<g mask="url(#faq-mask0)">
<rect y="-0.187012" width="1440" height="1936" fill="url(#faq-paint0_linear)"/>
</g>
<rect x="1241" y="471" width="8" height="8" fill="#99EC79"/>
<rect width="8" height="8" transform="matrix(0.869567 0.493816 -0.479211 0.8777 631.834 309)" fill="#FF5D00"/>
<rect x="1332.49" y="292.414" width="10" height="10" transform="rotate(45 1332.49 292.414)" stroke="#CB68FD" stroke-width="2"/>
<path d="M104 537L109.196 546H98.8038L104 537Z" stroke="#0087FF" stroke-width="2"/>
<circle cx="999" cy="499" r="4" fill="#CCCCCD"/>
<circle cx="380" cy="31" r="6" stroke="#A803FC" stroke-width="2"/>
<defs>
<linearGradient id="faq-paint0_linear" x1="720" y1="-0.187012" x2="720" y2="1935.81" gradientUnits="userSpaceOnUse">
<stop stop-color="#001B66"/>
<stop offset="0.5" stop-color="#000E33"/>
</linearGradient>
</defs>
</svg>
