<svg width="1440" height="1285" viewBox="0 0 1440 1285" fill="none" xmlns="http://www.w3.org/2000/svg">
<path d="M1520.6 966.41C1632.6 951.673 1732.56 899.356 1807.51 822.841L1807.57 822.906L2254.2 367.232C2226.2 362.663 2197.49 360.475 2168.2 360.861C2086.08 361.826 2009.97 381.775 1943.24 417.169C1899.52 440.335 1859.82 470.13 1825.03 505.588L1660.27 673.674C1659.24 674.768 1658.2 675.862 1657.17 676.956C1606.8 728.309 1536.77 760.549 1458.98 761.579C1382.35 762.544 1312.45 732.942 1261.11 684.164L1433.05 851.156C1468.03 885.134 1497.52 923.874 1520.6 966.41Z" stroke="#001B66" stroke-width="6" stroke-miterlimit="10"/>
<path d="M1114.58 833.459L1572.52 1278C1577.12 1250.14 1579.31 1221.56 1578.93 1192.41C1577.89 1109.72 1557.39 1033.08 1520.99 966.088C1497.9 923.487 1468.42 884.811 1433.44 850.834L1261.37 683.777C1208.34 633.518 1174.91 562.86 1173.94 484.222C1172.97 406.807 1203.56 336.342 1253.93 284.99L1086.13 456.165C1051.34 491.687 1011.64 521.418 967.927 544.584C982.67 657.586 1036.15 758.296 1114.58 833.459Z" stroke="#001B66" stroke-width="6" stroke-miterlimit="10"/>
<path d="M1660.01 673.482L1824.77 505.395C1859.56 469.873 1899.26 440.143 1942.98 416.976C1928.49 306.227 1876.83 207.254 1801.04 132.671L1343.16 -311.871C1338.57 -284.071 1336.37 -255.434 1336.76 -226.283C1337.73 -145.586 1357.26 -70.6163 1392.05 -4.72025C1415.52 39.7467 1445.91 80.0309 1482.19 115.231L1651.99 280.1C1703.59 330.23 1736.06 399.923 1737.03 477.402C1737.93 553.208 1708.57 622.322 1660.01 673.482Z" stroke="#001B66" stroke-width="6" stroke-miterlimit="10"/>
<path d="M1343.1 -312C1392.7 -99.1248 1556.55 49.9136 1556.55 49.9136L1723.38 211.887C1782.03 269.61 1821.99 346.189 1833.24 431.905C1833.24 431.905 1840.55 481.391 1833.05 497.158" stroke="#001B66" stroke-width="6" stroke-miterlimit="10"/>
<path d="M656.445 594.907C684.444 599.476 713.154 601.664 742.447 601.278C824.569 600.313 900.741 580.364 967.538 544.906C1011.25 521.74 1050.95 492.009 1085.74 456.487L1253.67 285.183C1303.98 233.766 1374.07 201.526 1451.93 200.56C1529.78 199.595 1600.59 230.098 1652.19 280.292L1482.45 115.488C1446.17 80.2873 1415.78 39.9388 1392.31 -4.46387C1279.41 9.88655 1178.66 62.2688 1103.2 139.233L656.445 594.907Z" stroke="#001B66" stroke-width="6" stroke-miterlimit="10"/>
<path d="M656.38 594.522C870.737 547.03 1021.92 385.314 1021.92 385.314L1186.16 220.703C1244.68 162.851 1321.95 123.725 1408.21 113.364C1408.21 113.364 1466.86 107.959 1482.64 115.617" stroke="#001B66" stroke-width="6" stroke-miterlimit="10"/>
<path d="M1571.55 1274.78C1523.83 1061.46 1361.34 911.003 1361.34 911.003L1195.93 747.55C1137.8 689.312 1098.48 612.411 1088.07 526.566C1088.07 526.566 1082.64 468.199 1090.33 452.498" stroke="#001B66" stroke-width="6" stroke-miterlimit="10"/>
<path d="M2254.2 367.232C2039.84 414.723 1888.66 576.439 1888.66 576.439L1724.42 741.051C1665.9 798.903 1588.62 838.028 1502.36 848.389C1502.36 848.389 1443.72 853.795 1427.94 846.137" stroke="#001B66" stroke-width="6" stroke-miterlimit="10"/>
<path d="M145.219 966.41C257.215 951.673 357.184 899.355 432.128 822.841L432.193 822.906L878.819 367.232C850.82 362.663 822.11 360.475 792.818 360.861C710.696 361.826 634.588 381.775 567.856 417.169C524.144 440.335 484.441 470.13 449.652 505.588L284.891 673.674C283.856 674.768 282.822 675.862 281.787 676.956C231.415 728.309 161.385 760.549 83.5956 761.578C6.9701 762.544 -62.9305 732.942 -114.273 684.164L57.6657 851.156C92.6483 885.134 122.135 923.873 145.219 966.41Z" stroke="#001B66" stroke-width="6" stroke-miterlimit="10"/>
<path d="M-260.799 833.459L197.143 1278C201.734 1250.14 203.933 1221.56 203.545 1192.41C202.511 1109.72 182.012 1033.08 145.607 966.088C122.523 923.487 93.0363 884.811 58.0537 850.834L-114.014 683.777C-167.038 633.518 -200.468 562.86 -201.438 484.222C-202.408 406.807 -171.823 336.342 -121.45 284.99L-289.251 456.165C-324.039 491.687 -363.742 521.418 -407.454 544.584C-392.646 657.586 -339.17 758.296 -260.799 833.459Z" stroke="#001B66" stroke-width="6" stroke-miterlimit="10"/>
<path d="M284.632 673.482L449.393 505.395C484.182 469.873 523.885 440.143 567.597 416.976C553.112 306.227 501.447 207.254 425.662 132.671L-32.2161 -311.871C-36.8072 -284.071 -39.0056 -255.434 -38.6176 -226.283C-37.6477 -145.586 -18.1195 -70.6163 16.6691 -4.72025C40.1417 39.7467 70.5332 80.0309 106.809 115.231L276.614 280.1C328.215 330.23 360.676 399.923 361.645 477.402C362.551 553.208 333.194 622.322 284.632 673.482Z" stroke="#001B66" stroke-width="6" stroke-miterlimit="10"/>
<path d="M-32.2805 -312C17.3805 -99.1248 181.172 49.9136 181.172 49.9136L348.002 211.887C406.651 269.61 446.612 346.189 457.864 431.905C457.864 431.905 465.171 481.391 457.67 497.158" stroke="#001B66" stroke-width="6" stroke-miterlimit="10"/>
<path d="M-718.871 594.907C-690.872 599.476 -662.161 601.664 -632.869 601.278C-550.747 600.313 -474.574 580.364 -407.778 544.906C-364.065 521.74 -324.363 492.009 -289.574 456.487L-121.645 285.183C-71.3369 233.766 -1.2423 201.526 76.6118 200.561C154.466 199.595 225.272 230.098 276.873 280.292L107.133 115.488C70.8567 80.2873 40.4653 39.9388 16.9927 -4.46387C-95.9087 9.88655 -196.653 62.2688 -272.115 139.233L-718.871 594.907Z" stroke="#001B66" stroke-width="6" stroke-miterlimit="10"/>
<path d="M-719 594.522C-504.643 547.03 -353.461 385.314 -353.461 385.314L-189.217 220.703C-130.698 162.851 -53.4254 123.725 32.8349 113.364C32.8349 113.364 91.484 107.959 107.262 115.617" stroke="#001B66" stroke-width="6" stroke-miterlimit="10"/>
<path d="M196.174 1274.78C148.453 1061.46 -14.0449 911.002 -14.0449 911.002L-179.452 747.549C-237.584 689.311 -276.899 612.411 -287.31 526.566C-287.31 526.566 -292.742 468.199 -285.047 452.497" stroke="#001B66" stroke-width="6" stroke-miterlimit="10"/>
<path d="M878.819 367.232C664.462 414.723 513.28 576.439 513.28 576.439L349.037 741.051C290.517 798.903 213.244 838.028 126.984 848.389C126.984 848.389 68.3351 853.795 52.5573 846.137" stroke="#001B66" stroke-width="6" stroke-miterlimit="10"/>
<rect width="16.992" height="17.1689" transform="matrix(-0.869567 0.493815 0.479211 0.8777 739.776 409)" fill="#FF5D00"/>
<rect x="-1.5" y="1.5" width="13.9119" height="14.2478" transform="matrix(-1 0 0 1 431.912 662)" stroke="#FF5D00" stroke-width="3"/>
<rect width="16.9119" height="17.2478" transform="matrix(-1 0 0 1 309.912 149)" stroke="#CB68FD" stroke-width="3"/>
<path d="M1229.68 180.129L1219.34 198.392H1240.02L1229.68 180.129Z" fill="#CCCCCD"/>
<path d="M1224.67 615.384L1214.33 633.646H1235.01L1224.67 615.384Z" stroke="#0087FF" stroke-width="3"/>
<ellipse rx="7.46114" ry="7.60934" transform="matrix(-1 0 0 1 835.176 528.637)" fill="#CCCCCD"/>
<ellipse rx="7.46114" ry="7.60934" transform="matrix(-1 0 0 1 1038.15 213.103)" stroke="#A803FC" stroke-width="3"/>
</svg>
