<svg width="1440" height="1662" viewBox="0 0 1440 1662" fill="none" xmlns="http://www.w3.org/2000/svg">
<mask id="homepage-mask0" mask-type="alpha" maskUnits="userSpaceOnUse" x="-483" y="-718" width="2397" height="2380">
<path d="M813.322 1191.52C980.408 1169.59 1129.55 1091.72 1241.36 977.837L1241.46 977.932L1907.78 299.711C1866 292.91 1823.17 289.654 1779.47 290.229C1656.95 291.665 1543.41 321.357 1443.85 374.036C1378.64 408.517 1319.4 452.864 1267.5 505.639L1021.7 755.817C1020.15 757.446 1018.61 759.074 1017.07 760.702C941.917 837.135 837.44 885.121 721.386 886.653C607.069 888.09 502.785 844.031 426.188 771.43L682.702 1019.98C734.892 1070.55 778.882 1128.21 813.322 1191.52Z" stroke="#001B66" stroke-width="6" stroke-miterlimit="10"/>
<path d="M207.587 993.64L890.789 1655.29C897.638 1613.82 900.918 1571.29 900.339 1527.9C898.796 1404.83 868.215 1290.75 813.902 1191.04C779.462 1127.64 735.472 1070.07 683.282 1019.5L426.575 770.855C347.469 696.05 297.594 590.883 296.147 473.839C294.7 358.615 340.33 253.736 415.481 177.303L165.141 432.079C113.24 484.95 54.0071 529.2 -11.2067 563.681C10.885 731.872 90.6656 881.768 207.587 993.64Z" stroke="#001B66" stroke-width="6" stroke-miterlimit="10"/>
<path d="M1021.31 755.53L1267.12 505.352C1319.02 452.481 1378.25 408.23 1443.47 373.749C1421.86 208.911 1344.78 61.6008 1231.71 -49.4087L548.609 -711.06C541.759 -669.683 538.479 -627.061 539.058 -583.672C540.505 -463.564 569.639 -351.979 621.54 -253.9C656.559 -187.716 701.9 -127.757 756.02 -75.3653L1009.35 170.024C1086.33 244.637 1134.76 348.368 1136.21 463.687C1137.56 576.517 1093.76 679.385 1021.31 755.53Z" stroke="#001B66" stroke-width="6" stroke-miterlimit="10"/>
<path d="M548.513 -711.252C622.602 -394.41 866.961 -172.583 866.961 -172.583L1115.85 68.4968C1203.35 154.412 1262.97 268.391 1279.76 395.97C1279.76 395.97 1290.66 469.625 1279.47 493.092" stroke="#001B66" stroke-width="6" stroke-miterlimit="10"/>
<path d="M-475.808 638.582C-434.037 645.382 -391.204 648.639 -347.503 648.064C-224.986 646.627 -111.344 616.935 -11.6904 564.16C53.5234 529.679 112.756 485.429 164.657 432.558L415.19 177.59C490.243 101.062 594.817 53.0758 710.967 51.6391C827.117 50.2024 932.752 95.6023 1009.73 170.311L756.501 -74.9827C702.381 -127.375 657.04 -187.429 622.022 -253.518C453.585 -232.159 303.284 -154.193 190.704 -39.6398L-475.808 638.582Z" stroke="#001B66" stroke-width="6" stroke-miterlimit="10"/>
<path d="M-476 638.008C-156.202 567.322 69.3455 326.626 69.3455 326.626L314.38 81.619C401.685 -4.48764 516.967 -62.7222 645.658 -78.1428C645.658 -78.1428 733.156 -86.1884 756.695 -74.7905" stroke="#001B66" stroke-width="6" stroke-miterlimit="10"/>
<path d="M889.341 1650.5C818.146 1332.99 575.717 1109.06 575.717 1109.06L328.947 865.774C242.22 779.092 183.566 664.635 168.034 536.863C168.034 536.863 159.931 449.991 171.411 426.62" stroke="#001B66" stroke-width="6" stroke-miterlimit="10"/>
<path d="M1907.78 299.712C1587.98 370.398 1362.43 611.094 1362.43 611.094L1117.4 856.101C1030.09 942.207 914.809 1000.44 786.118 1015.86C786.118 1015.86 698.619 1023.91 675.081 1012.51" stroke="#001B66" stroke-width="6" stroke-miterlimit="10"/>
</mask>
<g mask="url(#homepage-mask0)">
<rect x="-390.223" y="-229.147" width="2168" height="2005" fill="#001B66"/>
<rect x="-4.22266" y="513.853" width="1440" height="1224" fill="url(#homepage-paint0-linear)"/>
</g>
<rect x="1238" y="252" width="16.9119" height="17.2478" fill="#99EC79"/>
<rect width="16.992" height="17.1689" transform="matrix(0.869567 0.493816 -0.479211 0.8777 1242.23 514)" fill="#FF5D00"/>
<rect x="1033.2" y="184.121" width="13.9119" height="14.2478" transform="rotate(45 1033.2 184.121)" stroke="#CB68FD" stroke-width="3"/>
<path d="M169.945 220.998L167.616 241.854L150.864 229.733L169.945 220.998Z" fill="#CCCCCD"/>
<path d="M176.938 573L187.276 591.262H166.599L176.938 573Z" stroke="#0087FF" stroke-width="3"/>
<ellipse cx="1103.46" cy="625.609" rx="7.46114" ry="7.60934" fill="#CCCCCD"/>
<ellipse cx="434.461" cy="159.609" rx="7.46114" ry="7.60934" stroke="#A803FC" stroke-width="3"/>
<defs>
<linearGradient id="homepage-paint0-linear" x1="767.777" y1="1179.15" x2="754.269" y2="385.366" gradientUnits="userSpaceOnUse">
<stop stop-color="#000E33"/>
<stop offset="1" stop-color="#000E33" stop-opacity="0"/>
</linearGradient>
</defs>
</svg>
