<svg viewBox="0 0 180 36" fill="none" xmlns="http://www.w3.org/2000/svg">
<path d="M55.5645 16.4373C55.0314 17.4221 54.1946 18.2146 53.0562 18.8188C51.9178 19.4229 50.4856 19.722 48.7537 19.722H45.2238V27.8008H40.9952V6.76178H48.7557C50.3864 6.76178 51.7758 7.04344 52.9239 7.60482C54.0701 8.16619 54.9321 8.94124 55.5062 9.92608C56.0802 10.9109 56.3682 12.0259 56.3682 13.273C56.3643 14.3977 56.0977 15.4524 55.5645 16.4373ZM51.1706 15.5185C51.733 14.9862 52.0151 14.2364 52.0151 13.273C52.0151 11.2237 50.869 10.198 48.5728 10.198H45.2238V16.3168H48.5766C49.7423 16.3168 50.6082 16.0507 51.1706 15.5185Z" fill="currentColor"/>
<path d="M58.207 14.8657C58.8822 13.5604 59.7968 12.5542 60.9546 11.851C62.1125 11.1478 63.4046 10.7962 64.8349 10.7962C66.0822 10.7962 67.1758 11.0488 68.1118 11.5499C69.0478 12.0511 69.797 12.6863 70.3613 13.4477V11.0682H74.6191V27.7657H70.3613V25.324C69.8184 26.1069 69.0692 26.7557 68.1118 27.2685C67.1544 27.7813 66.053 28.0377 64.8057 28.0377C63.3949 28.0377 62.1144 27.6764 60.9566 26.9538C59.7988 26.2312 58.8822 25.2094 58.207 23.8944C57.5317 22.5774 57.1951 21.0661 57.1951 19.3587C57.1931 17.6687 57.5317 16.173 58.207 14.8657ZM69.7562 16.781C69.3533 16.0468 68.8085 15.4854 68.1255 15.093C67.4405 14.7006 66.7069 14.5044 65.9207 14.5044C65.1365 14.5044 64.4106 14.6967 63.7471 15.0775C63.0835 15.4582 62.5445 16.0176 62.1319 16.7499C61.7194 17.4842 61.5131 18.3525 61.5131 19.3567C61.5131 20.363 61.7194 21.241 62.1319 21.9946C62.5425 22.7483 63.0893 23.3252 63.7626 23.7273C64.4379 24.1294 65.1559 24.3295 65.9226 24.3295C66.7069 24.3295 67.4424 24.1333 68.1255 23.7409C68.8085 23.3485 69.3533 22.7852 69.7562 22.0529C70.159 21.3187 70.3594 20.4406 70.3594 19.415C70.3594 18.3933 70.157 17.5153 69.7562 16.781Z" fill="currentColor"/>
<path d="M100.165 27.2705C98.9882 26.7693 98.0561 26.0447 97.3731 25.1007C96.6881 24.1567 96.3359 23.0417 96.3164 21.7538H100.847C100.907 22.6182 101.214 23.302 101.769 23.8031C102.324 24.3043 103.082 24.5568 104.05 24.5568C105.036 24.5568 105.811 24.3218 106.375 23.8478C106.939 23.3777 107.22 22.7581 107.22 21.9947C107.22 21.3711 107.027 20.8583 106.645 20.4582C106.264 20.0561 105.783 19.7414 105.211 19.5083C104.637 19.2791 103.847 19.0207 102.841 18.7391C101.471 18.337 100.36 17.9388 99.5039 17.5483C98.6477 17.156 97.9121 16.5635 97.3011 15.771C96.6861 14.9765 96.3787 13.9178 96.3787 12.5911C96.3787 11.346 96.692 10.2601 97.3147 9.33553C97.9393 8.41091 98.815 7.70384 99.9436 7.21045C101.07 6.71706 102.359 6.47037 103.808 6.47037C105.982 6.47037 107.749 6.99872 109.109 8.05349C110.467 9.10826 111.218 10.5807 111.359 12.4687H106.708C106.667 11.7461 106.361 11.1479 105.785 10.6758C105.211 10.2058 104.452 9.96683 103.505 9.96683C102.68 9.96683 102.02 10.1786 101.528 10.6001C101.033 11.0216 100.786 11.6354 100.786 12.4377C100.786 12.999 100.973 13.4672 101.345 13.8401C101.718 14.2131 102.18 14.5142 102.734 14.7434C103.289 14.9745 104.067 15.2407 105.075 15.5437C106.443 15.9458 107.56 16.3479 108.428 16.748C109.294 17.1501 110.039 17.7542 110.662 18.5565C111.287 19.3607 111.598 20.4154 111.598 21.7227C111.598 22.8494 111.306 23.8925 110.722 24.8579C110.138 25.8214 109.282 26.5906 108.154 27.1636C107.025 27.7366 105.688 28.0241 104.137 28.0241C102.668 28.0241 101.343 27.7716 100.165 27.2705Z" fill="currentColor"/>
<path d="M119.314 14.5006V22.5794C119.314 23.1408 119.45 23.5487 119.72 23.8012C119.993 24.0537 120.45 24.1781 121.094 24.1781H123.056V27.7347H120.397C116.834 27.7347 115.052 26.0059 115.052 22.5503V14.5006H113.059V11.0352H115.052V6.90552H119.31V11.0352H123.054V14.5026L119.314 14.5006Z" fill="currentColor"/>
<path d="M132.264 11.5499C133.14 11.0488 134.14 10.7962 135.269 10.7962V15.227H134.152C132.823 15.227 131.822 15.5398 131.147 16.1614C130.472 16.783 130.135 17.8707 130.135 19.417V27.7366H125.907V11.039H130.135V13.6323C130.682 12.7465 131.388 12.055 132.264 11.5499Z" fill="currentColor"/>
<path d="M138.053 8.40309C137.559 7.933 137.312 7.34443 137.312 6.63931C137.312 5.93613 137.559 5.34951 138.053 4.87554C138.547 4.40352 139.164 4.16653 139.91 4.16653C140.655 4.16653 141.274 4.40157 141.766 4.87554C142.26 5.34756 142.507 5.93613 142.507 6.63931C142.507 7.34249 142.26 7.92912 141.766 8.40309C141.272 8.87511 140.655 9.11209 139.91 9.11209C139.164 9.11209 138.545 8.87511 138.053 8.40309ZM141.994 11.1012V27.7988H137.765V11.1012H141.994Z" fill="currentColor"/>
<path d="M159.066 12.6805C160.293 13.9373 160.906 15.6913 160.906 17.9407V27.7367H156.678V18.5138C156.678 17.187 156.345 16.1672 155.682 15.4544C155.018 14.7415 154.111 14.384 152.965 14.384C151.797 14.384 150.877 14.7415 150.202 15.4544C149.526 16.1672 149.19 17.187 149.19 18.5138V27.7386H144.961V11.0372H149.19V13.1156C149.752 12.393 150.474 11.8258 151.35 11.4121C152.226 11.0022 153.187 10.7943 154.234 10.7943C156.228 10.7963 157.84 11.4237 159.066 12.6805Z" fill="currentColor"/>
<path d="M173.508 11.5383C174.454 12.0317 175.199 12.6688 175.742 13.4516V11.0701H180V27.8901C180 29.4382 179.687 30.8174 179.064 32.0334C178.439 33.2494 177.503 34.2129 176.256 34.9277C175.007 35.6425 173.499 35.998 171.726 35.998C169.35 35.998 167.402 35.4444 165.882 34.3411C164.362 33.2358 163.5 31.7284 163.3 29.819H167.497C167.719 30.5824 168.196 31.1903 168.931 31.6429C169.667 32.0955 170.558 32.3209 171.603 32.3209C172.831 32.3209 173.827 31.9537 174.594 31.2195C175.359 30.4852 175.74 29.3761 175.74 27.8901V25.2969C175.197 26.0797 174.448 26.7343 173.491 27.2549C172.533 27.7774 171.442 28.0377 170.214 28.0377C168.803 28.0377 167.517 27.6764 166.349 26.9538C165.182 26.2312 164.261 25.2095 163.586 23.8944C162.911 22.5774 162.574 21.0661 162.574 19.3587C162.574 17.6707 162.911 16.173 163.586 14.8677C164.261 13.5623 165.176 12.5561 166.336 11.853C167.493 11.1498 168.786 10.7982 170.216 10.7982C171.465 10.7982 172.563 11.0449 173.508 11.5383ZM175.139 16.783C174.736 16.0487 174.193 15.4873 173.508 15.095C172.823 14.7026 172.09 14.5064 171.304 14.5064C170.517 14.5064 169.794 14.6987 169.13 15.0794C168.466 15.4601 167.927 16.0196 167.515 16.7519C167.102 17.4861 166.896 18.3544 166.896 19.3587C166.896 20.3649 167.102 21.2429 167.515 21.9966C167.925 22.7503 168.472 23.3272 169.146 23.7293C169.821 24.1314 170.539 24.3315 171.306 24.3315C172.09 24.3315 172.825 24.1353 173.51 23.7429C174.195 23.3505 174.738 22.7872 175.141 22.0549C175.544 21.3206 175.744 20.4426 175.744 19.417C175.742 18.3952 175.542 17.5153 175.139 16.783Z" fill="currentColor"/>
<path d="M89.1377 20.5709H89.1474V20.4136C89.1455 20.468 89.1435 20.5204 89.1377 20.5709Z" fill="currentColor"/>
<path d="M93.3838 11.0721V27.894C93.3838 29.4383 93.0705 30.8213 92.4478 32.0373C91.8232 33.2533 90.8872 34.2168 89.6379 34.9297C88.3905 35.6445 86.8805 36 85.1097 36C84.0511 36 83.0781 35.8912 82.1888 35.6698C81.0874 35.3978 80.1144 34.9569 79.2718 34.347C79.2699 34.345 79.2679 34.345 79.266 34.3431C77.7462 33.2378 76.8861 31.7304 76.6837 29.821H80.8811C80.9259 29.9764 80.9804 30.124 81.0485 30.2658C81.3053 30.8252 81.7276 31.2856 82.3153 31.645C82.9594 32.0412 83.7241 32.2646 84.6095 32.3132C84.7321 32.319 84.8606 32.3229 84.989 32.3229C86.2169 32.3229 87.2132 31.9558 87.978 31.2234C88.7427 30.4892 89.1261 29.3781 89.1261 27.894V25.3008C88.6785 25.9477 88.0889 26.5032 87.3592 26.9733C87.2054 27.0743 87.042 27.1675 86.8766 27.2588C86.8182 27.2919 86.7579 27.3229 86.6975 27.354H86.6956C85.9834 27.7114 85.1992 27.9309 84.341 28.0086C84.2671 28.0106 84.1892 28.0125 84.1133 28.0125C82.1187 28.0125 80.5094 27.3832 79.2816 26.1303C78.3144 25.1357 77.7267 23.8362 77.5244 22.2259C77.4679 21.7966 77.4387 21.342 77.4387 20.8681V11.0721H81.6653V20.297C81.6653 21.6218 81.9981 22.6435 82.6636 23.3545C83.1228 23.8498 83.6988 24.1722 84.3916 24.3257C84.6971 24.3917 85.0279 24.4267 85.3801 24.4267C86.5497 24.4267 87.4701 24.0673 88.1434 23.3545C88.7369 22.729 89.0697 21.8646 89.1378 20.7651H89.1475V11.0721H93.3838Z" fill="currentColor"/>
<path d="M18.8115 28.5633C21.1875 28.2486 23.3865 27.1434 25.0561 25.4282L34.78 15.4788C34.1612 15.3778 33.5346 15.3311 32.908 15.3389C31.1994 15.3486 29.5181 15.7701 28.0081 16.5685C27.0565 17.0755 26.1886 17.7282 25.4355 18.4993L21.8492 22.1667C21.8278 22.19 21.8044 22.2133 21.7811 22.2386C20.6544 23.3924 19.1171 24.0568 17.5019 24.0859C15.8868 24.115 14.3261 23.509 13.1586 22.3959L16.9045 26.0439C17.6634 26.784 18.3075 27.6329 18.8115 28.5633Z" fill="url(#logo-paint0_linear)"/>
<path d="M9.96345 25.6652L19.9306 35.3717C20.31 33.0408 19.917 30.6476 18.8097 28.5595C18.3057 27.629 17.6636 26.7801 16.9027 26.042L13.1567 22.394C12.5691 21.8346 12.0981 21.1664 11.7712 20.4243C11.4443 19.6823 11.2692 18.884 11.2536 18.0739C11.238 17.2639 11.384 16.4597 11.6837 15.7061C11.9833 14.9524 12.429 14.2667 12.9952 13.6859L9.34464 17.4252C8.59155 18.1983 7.72366 18.849 6.77209 19.356C7.08345 21.7608 8.21015 23.9869 9.96345 25.6652Z" fill="url(#logo-paint1_linear)"/>
<path d="M0 20.4516C0.618811 20.5526 1.24541 20.5992 1.872 20.5895C3.58054 20.5778 5.26184 20.1563 6.77189 19.3599C7.72346 18.8529 8.5933 18.2022 9.34443 17.4291L13.0009 13.6898C13.5632 13.1129 14.2326 12.6545 14.9741 12.3359C15.7135 12.0193 16.5094 11.8503 17.315 11.8386C18.1206 11.8289 18.9204 11.9765 19.6696 12.2757C20.4188 12.5748 21.0999 13.0177 21.6759 13.5791L17.9786 9.97966C17.1905 9.21432 16.5269 8.33049 16.0151 7.35925C13.6236 7.66616 11.4071 8.77338 9.72584 10.5002L0 20.4516Z" fill="url(#logo-paint2_linear)"/>
<path d="M21.8491 22.1707L25.4355 18.5033C26.1886 17.7302 27.0565 17.0794 28.0081 16.5725C27.7025 14.2162 26.6148 12.0309 24.9198 10.3643L14.9527 0.655762C14.8515 1.27347 14.8048 1.89895 14.8126 2.52443C14.8243 4.2105 15.2368 5.86744 16.0171 7.36315C16.5289 8.33439 17.1925 9.21822 17.9806 9.98356L21.676 13.583C22.828 14.7057 23.4935 16.2345 23.5265 17.8428C23.5577 19.4473 22.9564 21.0033 21.8491 22.1707Z" fill="url(#logo-paint3_linear)"/>
<defs>
<linearGradient id="logo-paint0_linear" x1="36.5078" y1="12.2475" x2="19.8612" y2="23.5745" gradientUnits="userSpaceOnUse">
<stop stop-color="#C906F9"/>
<stop offset="0.4483" stop-color="#A803FC"/>
<stop offset="0.8625" stop-color="#8700FF"/>
</linearGradient>
<linearGradient id="logo-paint1_linear" x1="15.4509" y1="19.4601" x2="11.4122" y2="34.7155" gradientUnits="userSpaceOnUse">
<stop stop-color="#0044FF"/>
<stop offset="0.4896" stop-color="#0087FF"/>
<stop offset="1" stop-color="#00CAFF"/>
</linearGradient>
<linearGradient id="logo-paint2_linear" x1="2.59799" y1="12.2644" x2="10.8896" y2="14.7886" gradientUnits="userSpaceOnUse">
<stop stop-color="#B0FF33"/>
<stop offset="0.4948" stop-color="#55DF20"/>
<stop offset="1" stop-color="#0AC222"/>
</linearGradient>
<linearGradient id="logo-paint3_linear" x1="12.6467" y1="12.7776" x2="26.6718" y2="9.44064" gradientUnits="userSpaceOnUse">
<stop stop-color="#FF8100"/>
<stop offset="0.0001" stop-color="#FF8100"/>
<stop offset="0.5" stop-color="#FF5D00"/>
<stop offset="1" stop-color="#FF3600"/>
</linearGradient>
</defs>
</svg>
