<svg width="59" height="58" viewBox="0 0 59 58" fill="none" xmlns="http://www.w3.org/2000/svg">
<rect x="25" width="34" height="34" fill="#A803FC"/>
<path d="M13.7499 55.9997H6.69997C5.45346 55.9997 4.258 55.5045 3.37659 54.6231C2.49517 53.7417 2 52.5462 2 51.2997V34.8498C2 33.6033 2.49517 32.4079 3.37659 31.5265C4.258 30.645 5.45346 30.1499 6.69997 30.1499H13.7499M30.1998 25.4499V16.05C30.1998 14.1802 29.4571 12.387 28.1349 11.0649C26.8128 9.74276 25.0196 9 23.1499 9L13.7499 30.1499V55.9997H40.2578C41.3912 56.0125 42.4911 55.6153 43.3548 54.8811C44.2185 54.147 44.7878 53.1254 44.9577 52.0047L48.2007 30.8549C48.3029 30.1813 48.2575 29.4935 48.0676 28.8392C47.8776 28.1849 47.5476 27.5797 47.1006 27.0655C46.6535 26.5514 46.1 26.1406 45.4784 25.8617C44.8568 25.5827 44.182 25.4422 43.5007 25.4499H30.1998Z" stroke="white" stroke-width="3" stroke-linecap="round" stroke-linejoin="round"/>
</svg>
