<svg viewBox="0 0 328 885" fill="none" xmlns="http://www.w3.org/2000/svg">
<path d="M198.605 652.903L223.477 627.412C228.699 622.044 234.718 617.515 241.323 613.987C239.198 597.615 231.657 582.425 219.902 570.837L150.768 503.378C150.067 507.67 149.744 512.015 149.803 516.363C149.877 528.076 152.738 539.602 158.15 549.988C161.703 556.735 166.298 562.88 171.764 568.195L197.393 593.208C205.387 601.007 209.994 611.639 210.221 622.807C210.448 633.975 206.276 644.785 198.605 652.903Z" fill="url(#home-id-mobile-paint0)"/>
<path d="M168 550C168 231.722 99.3218 114.588 74 77" stroke="url(#home-id-mobile-paint1)" stroke-width="3.24255"/>
<path d="M47.0757 640.953C51.3664 641.651 55.7096 641.974 60.0562 641.919C71.9041 641.842 83.5587 638.909 94.0325 633.368C100.638 629.844 106.658 625.318 111.878 619.95L137.229 593.957C141.127 589.952 145.776 586.755 150.91 584.549C156.044 582.343 161.562 581.17 167.149 581.098C172.736 581.027 178.283 582.057 183.472 584.131C188.661 586.205 193.39 589.281 197.39 593.184L171.761 568.172C166.295 562.856 161.7 556.712 158.147 549.965C141.562 552.103 126.189 559.798 114.534 571.795L47.0757 640.953Z" fill="url(#home-id-mobile-paint2)"/>
<path d="M168 550C168 311.055 223.367 209.219 236 181" stroke="url(#home-id-mobile-paint3)" stroke-width="3.24255"/>
<path d="M80.5 322.5C132 361 168 497.5 168 559.5" stroke="url(#home-id-mobile-paint4)" stroke-width="3.24255"/>
<path d="M168 559L168 831" stroke="url(#home-id-mobile-paint5)" stroke-width="3.24255"/>
<path d="M168 561.5C168 477.388 221.335 435.933 241 426" stroke="url(#home-id-mobile-paint6)" stroke-width="3.24255"/>
<rect x="43" y="826.525" width="250" height="57.8995" rx="6.59486" fill="white"/>
<path d="M56.8667 864.25C58.8271 864.25 60.0966 863.395 60.7443 862.161L60.8479 862.161L60.8479 864L64.3369 864L64.3369 855.053C64.3369 851.892 61.6597 850.562 58.7062 850.562C55.5281 850.562 53.4382 852.082 52.9287 854.5L56.3313 854.777C56.5817 853.896 57.3676 853.248 58.6889 853.248C59.9411 853.248 60.6579 853.879 60.6579 854.967L60.6579 855.019C60.6579 855.873 59.7511 855.986 57.4453 856.21C54.82 856.452 52.4623 857.333 52.4623 860.295C52.4623 862.92 54.3363 864.25 56.8667 864.25ZM57.9203 861.711C56.789 861.711 55.9772 861.185 55.9772 860.174C55.9772 859.138 56.8322 858.628 58.1276 858.447C58.9307 858.335 60.2434 858.145 60.6838 857.851L60.6838 859.259C60.6838 860.649 59.5352 861.711 57.9203 861.711ZM70.8701 846.313L67.1911 846.313L67.1911 864L70.8701 864L70.8701 846.313ZM73.8171 864L77.4961 864L77.4961 850.735L73.8171 850.735L73.8171 864ZM75.6652 849.025C76.762 849.025 77.6602 848.187 77.6602 847.16C77.6602 846.141 76.762 845.303 75.6652 845.303C74.5771 845.303 73.6789 846.141 73.6789 847.16C73.6789 848.187 74.5771 849.025 75.6652 849.025ZM86.4366 864.259C89.9687 864.259 92.1882 862.186 92.3609 859.138L88.8892 859.138C88.6733 860.554 87.7406 861.349 86.4797 861.349C84.7612 861.349 83.6471 859.907 83.6471 857.368C83.6471 854.863 84.7698 853.429 86.4797 853.429C87.827 853.429 88.6906 854.319 88.8892 855.64L92.3609 855.64C92.2054 852.575 89.8823 850.562 86.4193 850.562C82.3949 850.562 79.9077 853.352 79.9077 857.419C79.9077 861.452 82.3517 864.259 86.4366 864.259ZM100.762 864.259C104.043 864.259 106.254 862.661 106.772 860.2L103.37 859.976C102.998 860.986 102.048 861.513 100.822 861.513C98.9826 861.513 97.8167 860.295 97.8167 858.317L97.8167 858.309L106.85 858.309L106.85 857.298C106.85 852.79 104.121 850.562 100.615 850.562C96.7113 850.562 94.1809 853.334 94.1809 857.428C94.1809 861.634 96.6768 864.259 100.762 864.259ZM97.8167 856.029C97.8945 854.518 99.043 853.309 100.675 853.309C102.273 853.309 103.378 854.449 103.387 856.029L97.8167 856.029ZM114.769 866.211L116.807 866.211L116.825 864.216C120.564 863.931 122.732 861.945 122.74 858.948C122.732 856.003 120.512 854.44 117.438 853.749L116.928 853.628L116.963 849.31C118.111 849.578 118.811 850.312 118.915 851.4L122.499 851.4C122.455 848.541 120.322 846.495 116.997 846.132L117.015 844.103L114.977 844.103L114.959 846.115C111.583 846.443 109.199 848.481 109.216 851.426C109.208 854.034 111.047 855.528 114.035 856.245L114.864 856.452L114.821 861.021C113.413 860.753 112.463 859.889 112.368 858.447L108.75 858.447C108.836 861.936 111.125 863.888 114.787 864.207L114.769 866.211ZM116.859 861.021L116.894 856.988C118.232 857.411 118.958 857.955 118.966 858.939C118.958 859.984 118.163 860.761 116.859 861.021ZM114.89 853.101C113.811 852.73 113.033 852.169 113.051 851.175C113.051 850.251 113.707 849.535 114.925 849.284L114.89 853.101ZM131.232 864.259C134.513 864.259 136.724 862.661 137.242 860.2L133.84 859.976C133.469 860.986 132.519 861.513 131.292 861.513C129.453 861.513 128.287 860.295 128.287 858.317L128.287 858.309L137.32 858.309L137.32 857.298C137.32 852.79 134.591 850.562 131.085 850.562C127.181 850.562 124.651 853.334 124.651 857.428C124.651 861.634 127.147 864.259 131.232 864.259ZM128.287 856.029C128.365 854.518 129.513 853.309 131.145 853.309C132.743 853.309 133.849 854.449 133.857 856.029L128.287 856.029ZM142.582 850.735L138.782 850.735L142.582 857.368L138.644 864L142.444 864L145.017 859.414L147.634 864L151.391 864L147.444 857.368L151.287 850.735L147.513 850.735L145.017 855.373L142.582 850.735ZM157.183 864.25C159.144 864.25 160.413 863.395 161.061 862.161L161.164 862.161L161.164 864L164.653 864L164.653 855.053C164.653 851.892 161.976 850.562 159.023 850.562C155.845 850.562 153.755 852.082 153.245 854.5L156.648 854.777C156.898 853.896 157.684 853.248 159.005 853.248C160.258 853.248 160.974 853.879 160.974 854.967L160.974 855.019C160.974 855.873 160.068 855.986 157.762 856.21C155.136 856.452 152.779 857.333 152.779 860.295C152.779 862.921 154.653 864.25 157.183 864.25ZM158.237 861.711C157.105 861.711 156.294 861.185 156.294 860.174C156.294 859.138 157.149 858.628 158.444 858.447C159.247 858.335 160.56 858.145 161 857.851L161 859.259C161 860.649 159.852 861.711 158.237 861.711ZM167.508 864L171.187 864L171.187 856.038C171.187 854.569 172.119 853.594 173.346 853.594C174.555 853.594 175.366 854.423 175.366 855.727L175.366 864L178.933 864L178.933 855.899C178.933 854.526 179.719 853.594 181.058 853.594C182.232 853.594 183.113 854.328 183.113 855.804L183.113 864L186.783 864L186.783 855.079C186.783 852.203 185.073 850.562 182.603 850.562C180.66 850.562 179.149 851.555 178.605 853.075L178.467 853.075C178.044 851.538 176.688 850.562 174.865 850.562C173.078 850.562 171.722 851.512 171.169 853.075L171.014 853.075L171.014 850.735L167.508 850.735L167.508 864ZM189.689 868.974L193.368 868.974L193.368 861.876L193.481 861.876C193.99 862.981 195.104 864.216 197.246 864.216C200.268 864.216 202.626 861.824 202.626 857.385C202.626 852.825 200.165 850.562 197.254 850.562C195.035 850.562 193.973 851.884 193.481 852.963L193.316 852.963L193.316 850.735L189.689 850.735L189.689 868.974ZM193.291 857.368C193.291 855.001 194.292 853.49 196.08 853.49C197.902 853.49 198.869 855.07 198.869 857.368C198.869 859.682 197.885 861.288 196.08 861.288C194.31 861.288 193.291 859.734 193.291 857.368ZM208.758 846.313L205.079 846.313L205.079 864L208.758 864L208.758 846.313ZM217.75 864.259C221.032 864.259 223.242 862.661 223.761 860.2L220.358 859.976C219.987 860.986 219.037 861.513 217.81 861.513C215.971 861.513 214.805 860.295 214.805 858.318L214.805 858.309L223.838 858.309L223.838 857.298C223.838 852.79 221.109 850.562 217.603 850.562C213.7 850.562 211.169 853.334 211.169 857.428C211.169 861.634 213.665 864.259 217.75 864.259ZM214.805 856.029C214.883 854.518 216.031 853.309 217.664 853.309C219.261 853.309 220.367 854.449 220.375 856.029L214.805 856.029ZM228.39 864.225C229.495 864.225 230.454 863.301 230.462 862.152C230.454 861.021 229.495 860.097 228.39 860.097C227.25 860.097 226.308 861.021 226.317 862.152C226.308 863.301 227.25 864.225 228.39 864.225ZM239.476 864.259C243.008 864.259 245.228 862.186 245.4 859.138L241.929 859.138C241.713 860.554 240.78 861.349 239.519 861.349C237.801 861.349 236.687 859.907 236.687 857.368C236.687 854.863 237.809 853.429 239.519 853.429C240.867 853.429 241.73 854.319 241.929 855.64L245.4 855.64C245.245 852.575 242.922 850.562 239.459 850.562C235.434 850.562 232.947 853.352 232.947 857.419C232.947 861.452 235.391 864.259 239.476 864.259ZM253.749 864.259C257.774 864.259 260.278 861.504 260.278 857.419C260.278 853.309 257.774 850.562 253.749 850.562C249.725 850.562 247.221 853.309 247.221 857.419C247.221 861.504 249.725 864.259 253.749 864.259ZM253.767 861.409C251.91 861.409 250.96 859.708 250.96 857.393C250.96 855.079 251.91 853.369 253.767 853.369C255.589 853.369 256.539 855.079 256.539 857.393C256.539 859.708 255.589 861.409 253.767 861.409ZM262.67 864L266.349 864L266.349 856.038C266.349 854.569 267.282 853.594 268.508 853.594C269.717 853.594 270.529 854.423 270.529 855.727L270.529 864L274.096 864L274.096 855.899C274.096 854.526 274.882 853.594 276.22 853.594C277.395 853.594 278.276 854.328 278.276 855.804L278.276 864L281.946 864L281.946 855.079C281.946 852.203 280.236 850.562 277.766 850.562C275.823 850.562 274.312 851.555 273.768 853.075L273.63 853.075C273.206 851.538 271.851 850.562 270.028 850.562C268.241 850.562 266.885 851.512 266.332 853.075L266.177 853.075L266.177 850.735L262.67 850.735L262.67 864Z" fill="url(#home-id-mobile-paint7)"/>
<path d="M177.531 697.328C194.004 695.139 209.26 687.465 220.843 675.545L288.278 606.402C283.985 605.698 279.639 605.372 275.29 605.429C263.442 605.5 251.787 608.431 241.313 613.972C234.709 617.501 228.689 622.029 223.468 627.397L198.596 652.889C198.449 653.051 198.287 653.213 198.125 653.383C190.307 661.402 179.644 666.014 168.449 666.217C157.254 666.421 146.431 662.201 138.327 654.472L164.303 679.824C169.573 684.955 174.033 690.857 177.531 697.328Z" fill="url(#home-id-mobile-paint8)"/>
<path d="M116.174 677.182L185.3 744.641C187.937 728.435 185.209 711.81 177.532 697.297C174.035 690.832 169.578 684.935 164.312 679.809L138.336 654.456C134.259 650.575 130.993 645.923 128.727 640.769C126.461 635.616 125.24 630.064 125.135 624.435C125.031 618.806 126.044 613.212 128.116 607.978C130.189 602.743 133.279 597.972 137.208 593.942L111.881 619.92C106.66 625.287 100.641 629.814 94.0352 633.337C96.2081 650.048 104.018 665.516 116.174 677.182Z" fill="url(#home-id-mobile-paint9)"/>
<rect y="222" width="177.539" height="103.778" rx="5.66726" fill="#8602CA"/>
<rect x="131.161" y="231.881" width="32.6093" height="10.5896" rx="2.12522" fill="#DC9AFE"/>
<rect x="13.4598" y="255.884" width="32.6093" height="21.1792" rx="2.12522" fill="#DC9AFE"/>
<path d="M15.5971 313.067L16.2089 311.187L19.1834 311.187L19.7952 313.067L21.6628 313.067L18.8211 304.823L16.5752 304.823L13.7295 313.067L15.5971 313.067ZM16.6516 309.826L17.6659 306.707L17.7303 306.707L18.7447 309.826L16.6516 309.826ZM24.3375 304.823L22.6228 304.823L22.6228 313.067L24.3375 313.067L24.3375 304.823ZM25.711 313.067L27.4257 313.067L27.4257 306.884L25.711 306.884L25.711 313.067ZM26.5724 306.087C27.0835 306.087 27.5022 305.697 27.5022 305.218C27.5022 304.743 27.0835 304.352 26.5724 304.352C26.0652 304.352 25.6466 304.743 25.6466 305.218C25.6466 305.697 26.0652 306.087 26.5724 306.087ZM31.5926 313.187C33.2388 313.187 34.2733 312.221 34.3538 310.801L32.7357 310.801C32.6351 311.461 32.2004 311.831 31.6127 311.831C30.8117 311.831 30.2925 311.159 30.2925 309.975C30.2925 308.808 30.8158 308.14 31.6127 308.14C32.2406 308.14 32.6431 308.555 32.7357 309.17L34.3538 309.17C34.2813 307.742 33.1986 306.804 31.5846 306.804C29.7089 306.804 28.5497 308.104 28.5497 310C28.5497 311.879 29.6888 313.187 31.5926 313.187ZM38.2691 313.187C39.7987 313.187 40.8291 312.443 41.0706 311.296L39.4847 311.191C39.3116 311.662 38.8689 311.907 38.2973 311.907C37.44 311.907 36.8966 311.34 36.8966 310.418L36.8966 310.414L41.1068 310.414L41.1068 309.943C41.1068 307.842 39.8349 306.804 38.2007 306.804C36.3814 306.804 35.2021 308.096 35.2021 310.004C35.2021 311.964 36.3653 313.187 38.2691 313.187ZM36.8966 309.352C36.9328 308.647 37.4682 308.084 38.2289 308.084C38.9735 308.084 39.4887 308.615 39.4928 309.352L36.8966 309.352Z" fill="white"/>
<path d="M17.7142 285.056L16.0761 285.056L14.0354 286.348L14.0354 287.894L15.9231 286.711L15.9714 286.711L15.9714 293.3L17.7142 293.3L17.7142 285.056ZM19.6734 293.3L25.55 293.3L25.55 291.875L22.0885 291.875L22.0885 291.818L23.292 290.639C24.9865 289.093 25.4413 288.321 25.4413 287.383C25.4413 285.954 24.2741 284.944 22.5071 284.944C20.7763 284.944 19.5889 285.978 19.5929 287.596L21.2472 287.596C21.2432 286.807 21.7423 286.324 22.495 286.324C23.2195 286.324 23.7589 286.775 23.7589 287.499C23.7589 288.156 23.3564 288.606 22.6077 289.327L19.6734 292.044L19.6734 293.3ZM29.8598 293.412C31.7113 293.412 33.0356 292.394 33.0316 290.985C33.0356 289.959 32.3835 289.226 31.172 289.073L31.172 289.009C32.0937 288.844 32.7297 288.192 32.7257 287.266C32.7297 285.966 31.5906 284.944 29.884 284.944C28.1935 284.944 26.9215 285.934 26.8974 287.359L28.5678 287.359C28.5879 286.731 29.1635 286.324 29.8759 286.324C30.5803 286.324 31.0512 286.751 31.0472 287.371C31.0512 288.019 30.4998 288.457 29.7069 288.457L28.9381 288.457L28.9381 289.737L29.7069 289.737C30.6407 289.737 31.2243 290.204 31.2203 290.868C31.2243 291.525 30.6608 291.975 29.8638 291.975C29.0951 291.975 28.5195 291.573 28.4873 290.969L26.7324 290.969C26.7605 292.41 28.0486 293.412 29.8598 293.412ZM34.1596 291.851L38.1162 291.851L38.1162 293.3L39.7826 293.3L39.7826 291.851L40.8049 291.851L40.8049 290.454L39.7826 290.454L39.7826 285.056L37.601 285.056L34.1596 290.478L34.1596 291.851ZM38.1484 290.454L35.9145 290.454L35.9145 290.389L38.084 286.956L38.1484 286.956L38.1484 290.454ZM52.8468 293.412C54.6823 293.412 55.93 292.217 55.926 290.55C55.93 288.973 54.8272 287.838 53.3419 287.838C52.6174 287.838 51.9935 288.139 51.7037 288.546L51.6554 288.546L51.8688 286.481L55.4712 286.481L55.4712 285.056L50.4318 285.056L50.0414 289.403L51.591 289.681C51.8446 289.339 52.3357 289.126 52.8227 289.126C53.6519 289.13 54.2476 289.729 54.2476 290.595C54.2476 291.452 53.6639 292.044 52.8469 292.044C52.1545 292.044 51.5951 291.609 51.5548 290.969L49.8643 290.969C49.8965 292.394 51.1402 293.412 52.8468 293.412ZM60.3053 293.412C62.1407 293.42 63.3925 292.217 63.3884 290.538C63.3925 288.993 62.3138 287.878 60.8527 287.878C59.947 287.878 59.146 288.313 58.7757 289.041L58.7194 289.041C58.7274 287.411 59.2909 286.413 60.3656 286.413C60.9976 286.413 61.4524 286.755 61.5852 287.359L63.3039 287.359C63.1389 285.974 62.0119 284.919 60.3656 284.919C58.329 284.919 57.0208 286.57 57.0128 289.363C57.0208 292.382 58.6107 293.404 60.3053 293.412ZM60.2972 292.044C59.4922 292.044 58.8965 291.396 58.8965 290.591C58.9005 289.79 59.5083 289.138 60.3093 289.138C61.1143 289.138 61.702 289.77 61.6979 290.587C61.702 291.412 61.1022 292.044 60.2972 292.044ZM68.2105 285.056L66.5723 285.056L64.5316 286.348L64.5316 287.894L66.4193 286.711L66.4676 286.711L66.4676 293.3L68.2104 293.3L68.2105 285.056ZM73.2448 293.412C75.1043 293.412 76.4407 292.418 76.4447 291.082C76.4407 290.051 75.6477 289.21 74.6576 289.045L74.6576 288.989C75.5189 288.812 76.1348 288.067 76.1388 287.161C76.1348 285.885 74.9111 284.944 73.2448 284.944C71.5744 284.944 70.3508 285.885 70.3548 287.161C70.3508 288.063 70.9585 288.812 71.836 288.989L71.836 289.045C70.8297 289.21 70.0449 290.051 70.0489 291.082C70.0449 292.418 71.3852 293.412 73.2448 293.412ZM73.2448 292.132C72.4156 292.132 71.8602 291.641 71.8602 290.945C71.8602 290.232 72.4438 289.717 73.2448 289.717C74.0417 289.717 74.6294 290.232 74.6294 290.945C74.6294 291.645 74.0699 292.132 73.2448 292.132ZM73.2448 288.449C72.5484 288.449 72.0534 287.995 72.0534 287.343C72.0534 286.698 72.5404 286.256 73.2448 286.256C73.9451 286.256 74.4362 286.703 74.4362 287.343C74.4362 287.995 73.9371 288.449 73.2448 288.449ZM85.5332 293.3L91.4098 293.3L91.4098 291.875L87.9483 291.875L87.9483 291.818L89.1518 290.639C90.8463 289.093 91.3011 288.321 91.3011 287.383C91.3011 285.954 90.1339 284.944 88.3669 284.944C86.6361 284.944 85.4487 285.978 85.4527 287.596L87.107 287.596C87.103 286.807 87.6021 286.324 88.3548 286.324C89.0793 286.324 89.6187 286.775 89.6187 287.499C89.6187 288.156 89.2162 288.606 88.4675 289.327L85.5332 292.044L85.5332 293.3ZM95.7196 293.412C97.5711 293.412 98.8954 292.394 98.8914 290.985C98.8954 289.959 98.2433 289.226 97.0318 289.073L97.0318 289.009C97.9535 288.844 98.5895 288.192 98.5854 287.266C98.5895 285.966 97.4504 284.944 95.7438 284.944C94.0532 284.944 92.7813 285.934 92.7572 287.359L94.4276 287.359C94.4477 286.731 95.0233 286.324 95.7357 286.324C96.4401 286.324 96.911 286.751 96.907 287.371C96.911 288.019 96.3596 288.457 95.5667 288.457L94.7979 288.457L94.7979 289.737L95.5667 289.737C96.5005 289.737 97.0841 290.204 97.0801 290.868C97.0841 291.525 96.5206 291.975 95.7236 291.975C94.9549 291.975 94.3793 291.573 94.3471 290.969L92.5922 290.969C92.6203 292.41 93.9083 293.412 95.7196 293.412ZM103.127 284.919C101.283 284.911 100.039 286.119 100.048 287.793C100.039 289.339 101.118 290.454 102.579 290.454C103.485 290.454 104.29 290.015 104.656 289.291L104.713 289.291C104.709 290.925 104.141 291.919 103.066 291.919C102.434 291.919 101.98 291.573 101.847 290.973L100.128 290.973C100.289 292.362 101.416 293.412 103.066 293.412C105.107 293.412 106.415 291.762 106.419 288.965C106.415 285.95 104.821 284.923 103.127 284.919ZM103.139 286.288C103.94 286.288 104.531 286.94 104.539 287.737C104.531 288.538 103.92 289.19 103.123 289.19C102.318 289.19 101.73 288.562 101.738 287.745C101.73 286.92 102.33 286.288 103.139 286.288ZM111.213 285.056L109.575 285.056L107.534 286.348L107.534 287.894L109.422 286.711L109.47 286.711L109.47 293.3L111.213 293.3L111.213 285.056ZM124.274 293.481C126.347 293.481 127.599 291.903 127.603 289.186C127.607 286.489 126.339 284.944 124.274 284.944C122.205 284.944 120.95 286.485 120.946 289.186C120.938 291.895 122.197 293.477 124.274 293.481ZM124.274 292.036C123.328 292.036 122.717 291.086 122.721 289.186C122.725 287.314 123.332 286.372 124.274 286.372C125.212 286.372 125.824 287.314 125.824 289.186C125.828 291.086 125.216 292.036 124.274 292.036ZM132.078 293.481C134.151 293.481 135.403 291.903 135.407 289.186C135.411 286.489 134.143 284.944 132.078 284.944C130.009 284.944 128.753 286.485 128.749 289.186C128.741 291.895 130.001 293.477 132.078 293.481ZM132.078 292.036C131.132 292.036 130.52 291.086 130.524 289.186C130.528 287.314 131.136 286.372 132.078 286.372C133.016 286.372 133.627 287.314 133.627 289.186C133.632 291.086 133.02 292.036 132.078 292.036ZM140.236 285.056L138.597 285.056L136.557 286.348L136.557 287.894L138.444 286.711L138.493 286.711L138.493 293.3L140.236 293.3L140.236 285.056ZM145.781 285.056L144.143 285.056L142.102 286.348L142.102 287.894L143.99 286.711L144.038 286.711L144.038 293.3L145.781 293.3L145.781 285.056Z" fill="white"/>
<path d="M146.32 313.61L143.876 313.61L145.403 304.061L147.847 304.061L146.32 313.61ZM141.82 304.061L139.49 310.629L139.214 309.214L139.214 309.215L138.392 304.921C138.392 304.921 138.293 304.061 137.233 304.061L133.381 304.061L133.336 304.223C133.336 304.223 134.514 304.472 135.892 305.314L138.015 313.61L140.562 313.61L144.45 304.061L141.82 304.061ZM161.042 313.61L163.286 313.61L161.33 304.061L159.365 304.061C158.458 304.061 158.237 304.773 158.237 304.773L154.592 313.61L157.14 313.61L157.649 312.191L160.756 312.191L161.042 313.61ZM158.353 310.232L159.637 306.659L160.359 310.232L158.353 310.232ZM154.783 306.357L155.132 304.307C155.132 304.307 154.056 303.891 152.934 303.891C151.721 303.891 148.841 304.43 148.841 307.052C148.841 309.518 152.221 309.549 152.221 310.845C152.221 312.14 149.189 311.908 148.189 311.091L147.825 313.235C147.825 313.235 148.917 313.774 150.584 313.774C152.252 313.774 154.768 312.896 154.768 310.505C154.768 308.023 151.357 307.792 151.357 306.712C151.357 305.633 153.737 305.771 154.783 306.357Z" fill="white"/>
<path d="M139.214 309.215L138.392 304.921C138.392 304.921 138.293 304.061 137.233 304.061L133.381 304.061L133.336 304.223C133.336 304.223 135.187 304.613 136.963 306.075C138.661 307.473 139.214 309.215 139.214 309.215Z" fill="#FED74C"/>
<rect x="2.70844" width="194.206" height="79.775" rx="5.66726" fill="#44B21A"/>
<rect x="15.7524" y="33.1807" width="121.741" height="10.5896" rx="2.12522" fill="#99EC79"/>
<path d="M22.6394 56.7047L20.9046 56.7047L20.9046 61.889L20.8322 61.889L17.2741 56.7047L15.7445 56.7047L15.7445 64.948L17.4874 64.948L17.4874 59.7597L17.5478 59.7597L21.1341 64.948L22.6394 64.948L22.6394 56.7047ZM24.0794 64.948L29.3562 64.948L29.3562 63.5111L25.8222 63.5111L25.8222 56.7047L24.0794 56.7047L24.0794 64.948ZM36.068 56.5679C34.2245 56.5598 32.9808 57.7673 32.9888 59.4417C32.9808 60.9874 34.0595 62.1023 35.5206 62.1023C36.4262 62.1023 37.2312 61.6636 37.5975 60.9391L37.6539 60.9391C37.6498 62.5732 37.0823 63.5674 36.0076 63.5674C35.3757 63.5674 34.9209 63.2213 34.788 62.6215L33.0693 62.6215C33.2303 64.0102 34.3573 65.0607 36.0076 65.0607C38.0483 65.0607 39.3565 63.4104 39.3605 60.613C39.3565 57.5983 37.7625 56.5719 36.068 56.5679ZM36.0801 57.9364C36.8811 57.9364 37.4727 58.5884 37.4808 59.3854C37.4727 60.1864 36.8609 60.8384 36.064 60.8384C35.259 60.8384 34.6713 60.2105 34.6794 59.3934C34.6713 58.5683 35.271 57.9364 36.0801 57.9364ZM44.1543 56.7047L42.5161 56.7047L40.4754 57.9968L40.4754 59.5424L42.3632 58.359L42.4115 58.359L42.4115 64.948L44.1543 64.948L44.1543 56.7047ZM50.206 64.948L50.8178 63.0683L53.7923 63.0683L54.4041 64.948L56.2717 64.948L53.43 56.7047L51.184 56.7047L48.3383 64.948L50.206 64.948ZM51.2605 61.7078L52.2748 58.5884L52.3392 58.5884L53.3535 61.7078L51.2605 61.7078ZM57.2639 64.948L60.7858 64.948C62.6373 64.948 63.6234 63.982 63.6234 62.6698C63.6234 61.4502 62.75 60.7137 61.8122 60.6694L61.8122 60.5889C62.6695 60.3957 63.3014 59.7879 63.3014 58.8179C63.3014 57.5822 62.3837 56.7047 60.5644 56.7047L57.2639 56.7047L57.2639 64.948ZM59.0067 63.5231L59.0067 61.3335L60.4678 61.3335C61.305 61.3335 61.8243 61.8165 61.8243 62.4968C61.8243 63.1166 61.4016 63.5231 60.4276 63.5231L59.0067 63.5231ZM59.0067 60.1542L59.0067 58.1135L60.331 58.1135C61.1038 58.1135 61.5425 58.512 61.5425 59.1077C61.5425 59.7597 61.0112 60.1542 60.2988 60.1542L59.0067 60.1542ZM71.6524 56.7047L69.9176 56.7047L69.9176 61.889L69.8452 61.889L66.287 56.7047L64.7575 56.7047L64.7575 64.948L66.5003 64.948L66.5003 59.7597L66.5607 59.7597L70.147 64.948L71.6524 64.948L71.6524 56.7047ZM74.5132 64.948L75.125 63.0683L78.0995 63.0683L78.7113 64.948L80.5789 64.948L77.7373 56.7047L75.4913 56.7047L72.6456 64.948L74.5132 64.948ZM75.5678 61.7078L76.5821 58.5884L76.6465 58.5884L77.6608 61.7078L75.5678 61.7078ZM84.7549 65.1291C86.8278 65.1291 88.0796 63.5513 88.0836 60.8344C88.0877 58.1376 86.8198 56.592 84.7549 56.592C82.6861 56.592 81.4302 58.1336 81.4262 60.8344C81.4182 63.5433 82.678 65.1251 84.7549 65.1291ZM84.7549 63.6841C83.809 63.6841 83.1972 62.7342 83.2013 60.8344C83.2053 58.9628 83.8131 58.0209 84.7549 58.0209C85.6928 58.0209 86.3046 58.9628 86.3046 60.8344C86.3086 62.7342 85.6968 63.6841 84.7549 63.6841ZM89.2016 63.499L93.1582 63.499L93.1582 64.948L94.8246 64.948L94.8246 63.499L95.8469 63.499L95.8469 62.1023L94.8246 62.1023L94.8246 56.7047L92.643 56.7047L89.2016 62.1265L89.2016 63.499ZM93.1904 62.1023L90.9565 62.1023L90.9565 62.0379L93.126 58.6045L93.1904 58.6045L93.1904 62.1023ZM100.484 56.7047L98.8456 56.7047L96.8049 57.9968L96.8049 59.5424L98.6927 58.359L98.741 58.359L98.741 64.948L100.484 64.948L100.484 56.7047ZM102.769 64.948L104.568 64.948L107.99 58.1497L107.99 56.7047L102.206 56.7047L102.206 58.1296L106.186 58.1296L106.186 58.1859L102.769 64.948ZM112.77 56.7047L111.132 56.7047L109.091 57.9968L109.091 59.5424L110.979 58.359L111.027 58.359L111.027 64.948L112.77 64.948L112.77 56.7047ZM117.893 65.0607C119.729 65.0688 120.98 63.8653 120.976 62.1868C120.98 60.6412 119.902 59.5263 118.441 59.5263C117.535 59.5263 116.734 59.961 116.364 60.6895L116.307 60.6895C116.315 59.0594 116.879 58.0612 117.954 58.0612C118.585 58.0612 119.04 58.4033 119.173 59.007L120.892 59.007C120.727 57.6224 119.6 56.5679 117.954 56.5679C115.917 56.5679 114.609 58.2181 114.601 61.0115C114.609 64.0303 116.199 65.0527 117.893 65.0607ZM117.885 63.6922C117.08 63.6922 116.484 63.0442 116.484 62.2392C116.488 61.4382 117.096 60.7861 117.897 60.7861C118.702 60.7861 119.29 61.4181 119.286 62.2351C119.29 63.0603 118.69 63.6922 117.885 63.6922ZM122.087 63.499L126.044 63.499L126.044 64.948L127.71 64.948L127.71 63.499L128.733 63.499L128.733 62.1023L127.71 62.1023L127.71 56.7047L125.529 56.7047L122.087 62.1265L122.087 63.499ZM126.076 62.1023L123.842 62.1023L123.842 62.0379L126.012 58.6045L126.076 58.6045L126.076 62.1023ZM132.941 65.0607C134.792 65.0607 136.117 64.0424 136.112 62.6336C136.117 61.6072 135.464 60.8747 134.253 60.7217L134.253 60.6573C135.175 60.4923 135.811 59.8402 135.807 58.9145C135.811 57.6144 134.672 56.592 132.965 56.592C131.274 56.592 130.002 57.5822 129.978 59.0071L131.649 59.0071C131.669 58.3791 132.244 57.9726 132.957 57.9726C133.661 57.9726 134.132 58.3993 134.128 59.0191C134.132 59.6672 133.581 60.1059 132.788 60.1059L132.019 60.1059L132.019 61.3859L132.788 61.3859C133.722 61.3859 134.305 61.8528 134.301 62.5169C134.305 63.173 133.742 63.6238 132.945 63.6238C132.176 63.6238 131.6 63.2213 131.568 62.6175L129.813 62.6175C129.841 64.0585 131.129 65.0607 132.941 65.0607ZM140.597 65.1291C142.67 65.1291 143.922 63.5513 143.926 60.8344C143.93 58.1376 142.662 56.592 140.597 56.592C138.529 56.592 137.273 58.1336 137.269 60.8344C137.261 63.5433 138.52 65.1251 140.597 65.1291ZM140.597 63.6842C139.652 63.6842 139.04 62.7342 139.044 60.8344C139.048 58.9628 139.656 58.0209 140.597 58.0209C141.535 58.0209 142.147 58.9628 142.147 60.8344C142.151 62.7342 141.539 63.6842 140.597 63.6842ZM148.401 65.1291C150.474 65.1291 151.726 63.5513 151.73 60.8344C151.734 58.1376 150.466 56.592 148.401 56.592C146.332 56.592 145.076 58.1336 145.072 60.8344C145.064 63.5433 146.324 65.1251 148.401 65.1291ZM148.401 63.6842C147.455 63.6842 146.843 62.7342 146.847 60.8344C146.851 58.9628 147.459 58.0209 148.401 58.0209C149.339 58.0209 149.951 58.9628 149.951 60.8344C149.955 62.7342 149.343 63.6842 148.401 63.6842Z" fill="white"/>
<path d="M20.8649 15.6392L22.7441 15.6392C22.7169 13.9865 21.3585 12.8454 19.2936 12.8454C17.2605 12.8454 15.7707 13.9683 15.7798 15.6528C15.7752 17.0203 16.7397 17.8037 18.3065 18.1795L19.3163 18.4331C20.326 18.6776 20.8875 18.9675 20.8921 19.5923C20.8875 20.2716 20.2445 20.7334 19.2483 20.7334C18.2295 20.7334 17.4959 20.2625 17.4325 19.3342L15.5352 19.3342C15.585 21.3402 17.0205 22.3772 19.271 22.3772C21.5351 22.3772 22.8663 21.2949 22.8709 19.5969C22.8663 18.0528 21.7026 17.2332 20.0906 16.8709L19.2574 16.6717C18.4514 16.486 17.7767 16.1872 17.7903 15.5215C17.7903 14.9238 18.3201 14.4846 19.28 14.4846C20.2174 14.4846 20.7924 14.9102 20.8649 15.6392ZM24.1897 22.2459L30.4567 22.2459L30.4567 20.6293L26.1504 20.6293L26.1504 18.415L30.1171 18.415L30.1171 16.7985L26.1504 16.7985L26.1504 14.5887L30.4386 14.5887L30.4386 12.9721L24.1897 12.9721L24.1897 22.2459ZM31.9974 22.2459L33.9581 22.2459L33.9581 19.2391L35.6064 19.2391C37.7391 19.2391 38.9799 17.9667 38.9799 16.1147C38.9799 14.2717 37.7618 12.9722 35.6562 12.9721L31.9974 12.9721L31.9974 22.2459ZM33.9581 17.6679L33.9581 14.5751L35.2803 14.5751C36.4124 14.5751 36.9603 15.191 36.9603 16.1147C36.9603 17.0339 36.4124 17.6679 35.2894 17.6679L33.9581 17.6679ZM40.7809 22.2459L41.4692 20.1312L44.8155 20.1312L45.5038 22.2459L47.6049 22.2459L44.408 12.9722L41.8813 12.9722L38.6799 22.2459L40.7809 22.2459ZM41.9673 18.6007L43.1084 15.0913L43.1809 15.0913L44.322 18.6007L41.9673 18.6007Z" fill="white"/>
<rect x="133" y="115" width="194.206" height="72.2575" rx="5.66726" fill="#CC4A00"/>
<path d="M151.335 156.018L149.185 156.018L146.507 157.714L146.507 159.742L148.984 158.189L149.048 158.189L149.048 166.837L151.335 166.837L151.335 156.018ZM153.907 166.837L161.62 166.837L161.62 164.967L157.076 164.967L157.076 164.893L158.656 163.345C160.88 161.317 161.477 160.302 161.477 159.071C161.477 157.196 159.945 155.87 157.626 155.87C155.354 155.87 153.796 157.228 153.801 159.351L155.972 159.351C155.967 158.316 156.622 157.682 157.61 157.682C158.561 157.682 159.269 158.274 159.269 159.225C159.269 160.086 158.741 160.677 157.758 161.623L153.907 165.189L153.907 166.837ZM165.612 166.99C166.812 166.99 167.588 166.467 167.984 165.712L168.048 165.712L168.048 166.837L170.182 166.837L170.182 161.364C170.182 159.431 168.544 158.617 166.738 158.617C164.793 158.617 163.515 159.547 163.203 161.026L165.285 161.195C165.438 160.656 165.919 160.26 166.727 160.26C167.493 160.26 167.931 160.646 167.931 161.311L167.931 161.343C167.931 161.866 167.377 161.935 165.966 162.072C164.36 162.22 162.918 162.759 162.918 164.571C162.918 166.177 164.064 166.99 165.612 166.99ZM166.257 165.437C165.565 165.437 165.068 165.115 165.068 164.497C165.068 163.863 165.591 163.551 166.384 163.44C166.875 163.372 167.678 163.255 167.947 163.076L167.947 163.937C167.947 164.787 167.245 165.437 166.257 165.437ZM174.178 156.018L171.928 156.018L171.928 166.837L174.178 166.837L174.178 156.018ZM180.202 167.075C182.923 167.075 184.566 165.004 184.571 161.438C184.576 157.899 182.912 155.87 180.202 155.87C177.487 155.87 175.839 157.893 175.833 161.438C175.823 164.993 177.476 167.07 180.202 167.075ZM180.202 165.178C178.961 165.178 178.158 163.932 178.163 161.438C178.168 158.982 178.966 157.745 180.202 157.745C181.433 157.745 182.236 158.982 182.236 161.438C182.241 163.932 181.438 165.178 180.202 165.178ZM190.201 166.985C192.632 166.985 194.37 165.649 194.364 163.8C194.37 162.452 193.514 161.491 191.924 161.29L191.924 161.206C193.133 160.989 193.968 160.133 193.963 158.918C193.968 157.212 192.473 155.87 190.233 155.87C188.014 155.87 186.345 157.17 186.313 159.04L188.506 159.04C188.532 158.216 189.287 157.682 190.223 157.682C191.147 157.682 191.765 158.242 191.76 159.055C191.765 159.906 191.041 160.482 190.001 160.482L188.992 160.482L188.992 162.162L190.001 162.162C191.226 162.162 191.992 162.775 191.987 163.646C191.992 164.507 191.253 165.099 190.207 165.099C189.198 165.099 188.442 164.571 188.4 163.778L186.097 163.778C186.134 165.67 187.824 166.985 190.201 166.985ZM199.907 166.837C203.204 166.837 205.201 164.798 205.201 161.417C205.201 158.046 203.204 156.018 199.939 156.018L196.072 156.018L196.072 166.837L199.907 166.837ZM198.359 164.877L198.359 157.978L199.818 157.978C201.846 157.978 202.919 159.013 202.919 161.417C202.919 163.831 201.846 164.877 199.812 164.877L198.359 164.877ZM210.519 166.996C212.68 166.996 214.038 165.728 214.143 163.863L212.02 163.863C211.888 164.729 211.317 165.215 210.546 165.215C209.494 165.215 208.813 164.333 208.813 162.78C208.813 161.248 209.5 160.371 210.546 160.371C211.37 160.371 211.898 160.915 212.02 161.723L214.143 161.723C214.048 159.848 212.627 158.617 210.509 158.617C208.047 158.617 206.525 160.323 206.525 162.812C206.525 165.279 208.021 166.996 210.519 166.996ZM215.584 166.837L217.835 166.837L217.835 158.723L215.584 158.723L215.584 166.837ZM216.715 157.677C217.386 157.677 217.935 157.164 217.935 156.536C217.935 155.912 217.386 155.4 216.715 155.4C216.049 155.4 215.5 155.912 215.5 156.536C215.5 157.164 216.049 157.677 216.715 157.677ZM223.336 166.996C225.343 166.996 226.695 166.018 227.012 164.513L224.931 164.375C224.704 164.993 224.123 165.316 223.373 165.316C222.247 165.316 221.534 164.571 221.534 163.361L221.534 163.356L227.06 163.356L227.06 162.738C227.06 159.98 225.391 158.617 223.246 158.617C220.858 158.617 219.31 160.313 219.31 162.817C219.31 165.39 220.837 166.996 223.336 166.996ZM221.534 161.961C221.582 161.037 222.284 160.297 223.283 160.297C224.26 160.297 224.936 160.994 224.942 161.961L221.534 161.961ZM230.779 156.018L228.529 156.018L228.529 166.837L230.779 166.837L230.779 156.018ZM236.475 155.838C234.056 155.828 232.423 157.413 232.434 159.61C232.423 161.639 233.839 163.102 235.757 163.102C236.946 163.102 238.002 162.526 238.483 161.575L238.557 161.575C238.552 163.72 237.807 165.025 236.396 165.025C235.567 165.025 234.97 164.571 234.795 163.784L232.54 163.784C232.751 165.606 234.23 166.985 236.396 166.985C239.075 166.985 240.792 164.819 240.797 161.148C240.792 157.191 238.7 155.844 236.475 155.838ZM236.491 157.634C237.543 157.634 238.319 158.49 238.33 159.536C238.319 160.588 237.516 161.443 236.47 161.443C235.414 161.443 234.642 160.619 234.653 159.547C234.642 158.464 235.429 157.634 236.491 157.634ZM246.624 167.075C249.344 167.075 250.987 165.004 250.993 161.438C250.998 157.899 249.334 155.87 246.624 155.87C243.908 155.87 242.26 157.893 242.255 161.438C242.244 164.993 243.898 167.07 246.624 167.075ZM246.624 165.178C245.382 165.178 244.579 163.932 244.585 161.438C244.59 158.982 245.388 157.745 246.624 157.745C247.855 157.745 248.658 158.982 248.658 161.438C248.663 163.932 247.86 165.178 246.624 165.178ZM256.311 166.996C258.472 166.996 259.83 165.728 259.935 163.863L257.812 163.863C257.68 164.729 257.109 165.215 256.338 165.215C255.286 165.215 254.605 164.333 254.605 162.78C254.605 161.248 255.292 160.371 256.338 160.371C257.162 160.371 257.69 160.915 257.812 161.723L259.935 161.723C259.84 159.848 258.419 158.617 256.301 158.617C253.839 158.617 252.317 160.323 252.317 162.812C252.317 165.279 253.812 166.996 256.311 166.996ZM263.69 166.99C264.889 166.99 265.666 166.467 266.062 165.712L266.126 165.712L266.126 166.837L268.26 166.837L268.26 161.364C268.26 159.431 266.622 158.617 264.815 158.617C262.871 158.617 261.593 159.547 261.281 161.026L263.363 161.195C263.516 160.656 263.997 160.26 264.805 160.26C265.571 160.26 266.009 160.646 266.009 161.311L266.009 161.343C266.009 161.866 265.455 161.935 264.044 162.072C262.438 162.22 260.996 162.759 260.996 164.571C260.996 166.177 262.142 166.99 263.69 166.99ZM264.335 165.437C263.643 165.437 263.146 165.115 263.146 164.497C263.146 163.863 263.669 163.551 264.461 163.44C264.953 163.372 265.756 163.255 266.025 163.076L266.025 163.937C266.025 164.787 265.323 165.437 264.335 165.437ZM270.048 166.837L272.336 166.837L272.336 162.368L276.736 162.368L276.736 160.482L272.336 160.482L272.336 157.904L277.212 157.904L277.212 156.018L270.048 156.018L270.048 166.837Z" fill="white"/>
<path d="M158.281 138.916C157.431 142.324 153.98 144.398 150.572 143.548C147.166 142.698 145.092 139.247 145.942 135.84C146.791 132.432 150.242 130.358 153.649 131.207C157.057 132.057 159.13 135.509 158.281 138.916Z" fill="#F7931A"/>
<path d="M154.915 136.471C155.042 135.625 154.398 135.17 153.516 134.867L153.802 133.72L153.104 133.546L152.826 134.663C152.643 134.617 152.454 134.574 152.267 134.531L152.547 133.407L151.85 133.233L151.564 134.379C151.412 134.345 151.263 134.311 151.118 134.275L151.119 134.271L150.157 134.031L149.971 134.776C149.971 134.776 150.489 134.895 150.478 134.902C150.76 134.973 150.811 135.16 150.803 135.308L150.477 136.614C150.497 136.619 150.522 136.626 150.55 136.637C150.527 136.632 150.502 136.625 150.476 136.619L150.02 138.449C149.985 138.535 149.898 138.663 149.7 138.615C149.707 138.625 149.193 138.488 149.193 138.488L148.846 139.287L149.754 139.513C149.923 139.556 150.089 139.6 150.252 139.642L149.963 140.801L150.66 140.975L150.946 139.828C151.137 139.88 151.321 139.927 151.502 139.972L151.217 141.114L151.915 141.288L152.204 140.131C153.394 140.356 154.289 140.265 154.666 139.189C154.969 138.322 154.65 137.822 154.024 137.496C154.48 137.391 154.824 137.091 154.915 136.471ZM153.321 138.707C153.105 139.574 151.646 139.106 151.173 138.988L151.556 137.452C152.029 137.57 153.546 137.804 153.321 138.707ZM153.537 136.459C153.34 137.247 152.125 136.847 151.732 136.749L152.079 135.355C152.473 135.453 153.742 135.637 153.537 136.459Z" fill="white"/>
<path d="M164.391 134.866C164.907 134.866 165.352 134.958 165.727 135.139C166.103 135.323 166.413 135.57 166.662 135.88C166.908 136.192 167.091 136.557 167.209 136.975C167.326 137.394 167.385 137.845 167.385 138.327C167.385 139.068 167.249 139.768 166.975 140.428C166.701 141.089 166.329 141.662 165.856 142.151C165.384 142.639 164.825 143.025 164.182 143.309C163.539 143.594 162.841 143.736 162.09 143.736C161.993 143.736 161.823 143.733 161.582 143.728C161.341 143.723 161.064 143.698 160.754 143.656C160.442 143.613 160.112 143.548 159.764 143.462C159.415 143.378 159.085 143.259 158.773 143.108L161.558 131.406L164.053 131.019L163.056 135.172C163.269 135.076 163.484 135.001 163.699 134.947C163.914 134.893 164.144 134.866 164.391 134.866ZM162.298 141.757C162.674 141.757 163.028 141.665 163.361 141.483C163.694 141.301 163.982 141.056 164.223 140.751C164.464 140.444 164.655 140.098 164.794 139.712C164.933 139.326 165.004 138.923 165.004 138.504C165.004 137.989 164.918 137.587 164.746 137.296C164.574 137.007 164.257 136.862 163.796 136.862C163.645 136.862 163.45 136.891 163.209 136.942C162.967 136.997 162.75 137.11 162.556 137.281L161.494 141.691C161.558 141.703 161.615 141.713 161.663 141.723C161.711 141.734 161.763 141.742 161.815 141.747C161.87 141.754 161.933 141.757 162.009 141.757C162.085 141.757 162.18 141.757 162.298 141.757Z" fill="white"/>
<path d="M169.972 143.512H167.589L169.602 135.045H172L169.972 143.512ZM171.131 134.014C170.799 134.014 170.497 133.915 170.23 133.716C169.96 133.519 169.827 133.216 169.827 132.806C169.827 132.581 169.872 132.37 169.963 132.171C170.055 131.972 170.175 131.801 170.326 131.656C170.476 131.512 170.651 131.396 170.849 131.309C171.048 131.224 171.26 131.181 171.485 131.181C171.818 131.181 172.118 131.28 172.386 131.479C172.654 131.678 172.788 131.981 172.788 132.388C172.788 132.614 172.743 132.826 172.651 133.025C172.561 133.223 172.44 133.395 172.29 133.54C172.14 133.685 171.964 133.799 171.767 133.886C171.568 133.972 171.356 134.014 171.131 134.014Z" fill="white"/>
<path d="M174.088 132.935L176.584 132.549L175.971 135.045H178.644L178.161 137.008H175.505L174.797 139.97C174.732 140.216 174.695 140.447 174.685 140.661C174.673 140.877 174.7 141.061 174.764 141.217C174.828 141.373 174.943 141.493 175.11 141.578C175.277 141.665 175.515 141.708 175.827 141.708C176.084 141.708 176.334 141.684 176.576 141.635C176.817 141.588 177.061 141.521 177.308 141.434L177.485 143.27C177.163 143.388 176.815 143.49 176.439 143.575C176.063 143.662 175.617 143.704 175.103 143.704C174.362 143.704 173.788 143.594 173.38 143.375C172.971 143.155 172.683 142.853 172.51 142.472C172.34 142.092 172.264 141.655 172.285 141.161C172.307 140.667 172.381 140.147 172.51 139.599L174.088 132.935Z" fill="white"/>
<path d="M178.539 140.131C178.539 139.402 178.657 138.714 178.893 138.07C179.129 137.426 179.468 136.862 179.908 136.379C180.347 135.897 180.881 135.516 181.51 135.236C182.136 134.958 182.838 134.818 183.61 134.818C184.094 134.818 184.526 134.863 184.906 134.955C185.287 135.047 185.633 135.167 185.945 135.317L185.123 137.185C184.908 137.098 184.686 137.021 184.455 136.952C184.225 136.881 183.943 136.847 183.61 136.847C182.815 136.847 182.186 137.121 181.718 137.667C181.252 138.214 181.018 138.95 181.018 139.873C181.018 140.42 181.136 140.863 181.373 141.201C181.608 141.54 182.044 141.708 182.676 141.708C182.988 141.708 183.289 141.676 183.578 141.612C183.868 141.548 184.125 141.467 184.351 141.371L184.529 143.286C184.227 143.403 183.895 143.508 183.531 143.601C183.165 143.69 182.73 143.736 182.226 143.736C181.56 143.736 180.997 143.639 180.536 143.447C180.075 143.252 179.694 142.994 179.394 142.666C179.092 142.338 178.875 141.955 178.741 141.514C178.607 141.075 178.539 140.613 178.539 140.131Z" fill="white"/>
<path d="M189.123 143.736C188.554 143.736 188.06 143.65 187.641 143.478C187.224 143.307 186.878 143.066 186.604 142.754C186.33 142.443 186.125 142.076 185.984 141.652C185.844 141.228 185.776 140.759 185.776 140.244C185.776 139.599 185.88 138.955 186.089 138.312C186.297 137.667 186.606 137.088 187.015 136.574C187.421 136.058 187.922 135.637 188.511 135.308C189.1 134.982 189.778 134.818 190.539 134.818C191.097 134.818 191.588 134.904 192.013 135.076C192.436 135.247 192.784 135.49 193.059 135.8C193.332 136.112 193.539 136.479 193.678 136.903C193.818 137.326 193.887 137.797 193.887 138.311C193.887 138.954 193.785 139.599 193.582 140.244C193.379 140.886 193.078 141.466 192.681 141.982C192.284 142.497 191.788 142.918 191.192 143.245C190.597 143.572 189.907 143.736 189.123 143.736ZM190.314 136.847C189.961 136.847 189.648 136.949 189.381 137.152C189.113 137.357 188.887 137.614 188.706 137.925C188.522 138.237 188.386 138.577 188.294 138.947C188.203 139.318 188.158 139.669 188.158 140.001C188.158 140.539 188.244 140.957 188.415 141.258C188.588 141.558 188.898 141.708 189.349 141.708C189.703 141.708 190.014 141.607 190.283 141.402C190.55 141.199 190.775 140.941 190.958 140.63C191.141 140.319 191.278 139.978 191.37 139.607C191.46 139.238 191.506 138.885 191.506 138.553C191.506 138.017 191.42 137.598 191.248 137.297C191.076 136.997 190.764 136.847 190.314 136.847Z" fill="white"/>
<path d="M196.483 143.512H194.099L196.111 135.045H198.511L196.483 143.512ZM197.641 134.014C197.309 134.014 197.007 133.915 196.74 133.716C196.472 133.519 196.337 133.216 196.337 132.806C196.337 132.581 196.383 132.37 196.474 132.171C196.565 131.972 196.686 131.801 196.837 131.656C196.986 131.512 197.162 131.396 197.36 131.309C197.558 131.224 197.77 131.181 197.995 131.181C198.328 131.181 198.629 131.28 198.897 131.479C199.165 131.678 199.3 131.981 199.3 132.388C199.3 132.614 199.252 132.826 199.162 133.025C199.072 133.223 198.951 133.395 198.801 133.54C198.65 133.685 198.476 133.799 198.278 133.886C198.079 133.972 197.867 134.014 197.641 134.014Z" fill="white"/>
<path d="M200.228 135.43C200.409 135.377 200.611 135.314 200.831 135.244C201.051 135.175 201.297 135.111 201.572 135.053C201.845 134.993 202.152 134.944 202.489 134.907C202.827 134.869 203.212 134.85 203.639 134.85C204.896 134.85 205.762 135.216 206.24 135.945C206.718 136.675 206.801 137.674 206.491 138.939L205.395 143.511H202.997L204.059 139.036C204.124 138.756 204.174 138.486 204.212 138.222C204.25 137.961 204.248 137.73 204.203 137.53C204.161 137.333 204.061 137.172 203.906 137.047C203.749 136.924 203.512 136.862 203.19 136.862C202.879 136.862 202.563 136.895 202.24 136.96L200.679 143.511H198.279L200.228 135.43Z" fill="white"/>
<rect x="155" y="361" width="171.742" height="72.2576" rx="5.66726" fill="#006CCC"/>
<path d="M175.734 417.371C177.239 417.371 178.713 417.017 179.374 416.642L178.851 415.11C178.285 415.342 177.07 415.649 175.855 415.649C172.411 415.649 170.541 413.821 170.53 410.482C170.541 407.46 172.263 405.183 175.776 405.183C178.317 405.183 180.679 406.398 180.673 409.716C180.679 411.782 180.298 412.722 179.569 412.722C179.205 412.722 178.983 412.447 178.977 411.956L178.977 406.8L177.324 406.8L177.324 407.391L177.25 407.391C177.07 406.927 175.95 406.488 174.762 406.668C173.351 406.874 171.83 408.031 171.819 410.482C171.83 412.97 173.246 414.243 174.915 414.333C176.114 414.402 177.192 413.9 177.44 413.261L177.504 413.261C177.62 413.99 178.106 414.486 179.331 414.397C181.614 414.27 182.485 412.431 182.48 409.837C182.485 406.081 180.002 403.482 175.802 403.482C171.259 403.482 168.655 406.298 168.649 410.545C168.655 414.861 171.238 417.371 175.734 417.371ZM175.491 412.595C174.112 412.595 173.647 411.539 173.642 410.419C173.647 409.214 174.307 408.427 175.48 408.427C176.817 408.427 177.218 409.135 177.224 410.403C177.239 411.84 176.785 412.595 175.491 412.595ZM185.883 414.254L186.686 411.787L190.591 411.787L191.394 414.254L193.845 414.254L190.115 403.435L187.167 403.435L183.432 414.254L185.883 414.254ZM187.268 410.001L188.599 405.907L188.683 405.907L190.015 410.001L187.268 410.001ZM197.355 403.435L195.105 403.435L195.105 414.254L197.355 414.254L197.355 403.435ZM199.158 414.254L201.409 414.254L201.409 406.139L199.158 406.139L199.158 414.254ZM200.289 405.093C200.959 405.093 201.509 404.581 201.509 403.952C201.509 403.329 200.959 402.816 200.289 402.816C199.623 402.816 199.073 403.329 199.073 403.952C199.073 404.581 199.623 405.093 200.289 405.093ZM206.878 414.412C209.038 414.412 210.396 413.145 210.502 411.28L208.378 411.28C208.246 412.146 207.675 412.632 206.904 412.632C205.853 412.632 205.171 411.75 205.171 410.197C205.171 408.665 205.858 407.788 206.904 407.788C207.728 407.788 208.256 408.332 208.378 409.14L210.502 409.14C210.407 407.265 208.985 406.034 206.867 406.034C204.405 406.034 202.884 407.74 202.884 410.228C202.884 412.695 204.379 414.412 206.878 414.412ZM215.641 414.412C217.648 414.412 219 413.435 219.317 411.929L217.236 411.792C217.009 412.41 216.428 412.732 215.678 412.732C214.552 412.732 213.839 411.988 213.839 410.778L213.839 410.773L219.365 410.773L219.365 410.154C219.365 407.397 217.696 406.034 215.551 406.034C213.163 406.034 211.615 407.73 211.615 410.234C211.615 412.806 213.142 414.412 215.641 414.412ZM213.839 409.378C213.887 408.453 214.589 407.714 215.588 407.714C216.565 407.714 217.241 408.411 217.247 409.378L213.839 409.378ZM220.876 414.254L223.163 414.254L223.163 411.179L224.289 409.806L227.252 414.254L229.989 414.254L225.926 408.279L229.941 403.435L227.199 403.435L223.306 408.205L223.163 408.205L223.163 403.435L220.876 403.435L220.876 414.254ZM235.311 414.492C238.032 414.492 239.675 412.421 239.68 408.855C239.686 405.315 238.021 403.287 235.311 403.287C232.596 403.287 230.948 405.31 230.942 408.855C230.932 412.41 232.585 414.486 235.311 414.492ZM235.311 412.595C234.07 412.595 233.267 411.348 233.272 408.855C233.277 406.398 234.075 405.162 235.311 405.162C236.542 405.162 237.345 406.398 237.345 408.855C237.351 411.348 236.548 412.595 235.311 412.595ZM241.311 414.254L249.024 414.254L249.024 412.384L244.481 412.384L244.481 412.31L246.061 410.762C248.285 408.733 248.882 407.719 248.882 406.488C248.882 404.613 247.35 403.287 245.031 403.287C242.759 403.287 241.2 404.644 241.206 406.768L243.377 406.768C243.372 405.733 244.027 405.099 245.015 405.099C245.966 405.099 246.673 405.69 246.673 406.641C246.673 407.502 246.145 408.094 245.163 409.04L241.311 412.606L241.311 414.254ZM254.681 414.402C257.111 414.402 258.849 413.065 258.844 411.216C258.849 409.869 257.993 408.908 256.403 408.707L256.403 408.622C257.613 408.406 258.448 407.55 258.442 406.335C258.448 404.629 256.953 403.287 254.713 403.287C252.494 403.287 250.824 404.586 250.793 406.456L252.985 406.456C253.012 405.632 253.767 405.099 254.702 405.099C255.627 405.099 256.245 405.659 256.239 406.472C256.245 407.323 255.521 407.899 254.48 407.899L253.471 407.899L253.471 409.579L254.48 409.579C255.706 409.579 256.472 410.191 256.467 411.063C256.472 411.924 255.732 412.516 254.686 412.516C253.677 412.516 252.922 411.988 252.88 411.195L250.576 411.195C250.613 413.086 252.304 414.402 254.681 414.402ZM260.324 412.352L265.517 412.352L265.517 414.254L267.705 414.254L267.705 412.352L269.046 412.352L269.046 410.519L267.705 410.519L267.705 403.435L264.841 403.435L260.324 410.551L260.324 412.352ZM265.56 410.519L262.628 410.519L262.628 410.434L265.475 405.928L265.56 405.928L265.56 410.519Z" fill="white"/>
<defs>
<linearGradient id="home-id-mobile-paint0" x1="150.078" y1="652.043" x2="247.362" y2="628.945" gradientUnits="userSpaceOnUse">
<stop stop-color="#FF8100"/>
<stop offset="0.0001" stop-color="#FF8100"/>
<stop offset="0.5" stop-color="#FF5D00"/>
<stop offset="1" stop-color="#FF3600"/>
</linearGradient>
<linearGradient id="home-id-mobile-paint1" x1="168.087" y1="515.932" x2="337.601" y2="355.136" gradientUnits="userSpaceOnUse">
<stop stop-color="#55DF20"/>
<stop offset="1" stop-color="#0AC222"/>
</linearGradient>
<linearGradient id="home-id-mobile-paint2" x1="46.8138" y1="644.228" x2="104.336" y2="661.701" gradientUnits="userSpaceOnUse">
<stop stop-color="#B0FF33"/>
<stop offset="0.494792" stop-color="#55DF20"/>
<stop offset="1" stop-color="#0AC222"/>
</linearGradient>
<linearGradient id="home-id-mobile-paint3" x1="168.209" y1="547.876" x2="244.173" y2="542.446" gradientUnits="userSpaceOnUse">
<stop stop-color="#FF8100"/>
<stop offset="0.0001" stop-color="#FF8100"/>
<stop offset="0.5" stop-color="#FF5D00"/>
<stop offset="1" stop-color="#FF3600"/>
</linearGradient>
<linearGradient id="home-id-mobile-paint4" x1="79.7383" y1="271.212" x2="28.396" y2="533.644" gradientUnits="userSpaceOnUse">
<stop stop-color="#8700FF"/>
<stop offset="0.494792" stop-color="#A803FC"/>
<stop offset="1" stop-color="#C906F9"/>
</linearGradient>
<linearGradient id="home-id-mobile-paint5" x1="168.5" y1="559" x2="168.5" y2="831" gradientUnits="userSpaceOnUse">
<stop offset="0.0260417" stop-color="#009DFF"/>
<stop offset="0.213542" stop-color="#0087FF"/>
<stop offset="0.515625" stop-color="#A803FC"/>
<stop offset="1" stop-color="#FF5D00"/>
</linearGradient>
<linearGradient id="home-id-mobile-paint6" x1="181.261" y1="545.238" x2="262.225" y2="526.433" gradientUnits="userSpaceOnUse">
<stop stop-color="#009DFF"/>
<stop offset="0.401042" stop-color="#0087FF"/>
<stop offset="0.75" stop-color="#0044FF"/>
</linearGradient>
<linearGradient id="home-id-mobile-paint7" x1="49" y1="857.961" x2="286.055" y2="857.961" gradientUnits="userSpaceOnUse">
<stop offset="0.0242741" stop-color="#FF5D00"/>
<stop offset="0.369792" stop-color="#A803FC"/>
<stop offset="0.6875" stop-color="#0990E8"/>
<stop offset="0.988939" stop-color="#55DF20"/>
</linearGradient>
<linearGradient id="home-id-mobile-paint8" x1="295.054" y1="576.277" x2="179.456" y2="654.767" gradientUnits="userSpaceOnUse">
<stop stop-color="#C906F9"/>
<stop offset="0.448312" stop-color="#A803FC"/>
<stop offset="0.862484" stop-color="#8700FF"/>
</linearGradient>
<linearGradient id="home-id-mobile-paint9" x1="109.065" y1="622.079" x2="80.9451" y2="728.07" gradientUnits="userSpaceOnUse">
<stop stop-color="#0044FF"/>
<stop offset="0.489583" stop-color="#0087FF"/>
<stop offset="1" stop-color="#00CAFF"/>
</linearGradient>
</defs>
</svg>
