<svg viewBox="0 0 1178 559" fill="none" xmlns="http://www.w3.org/2000/svg">
<path d="M379 329.654C387.06 330.965 395.218 331.571 403.383 331.468C425.638 331.323 447.531 325.813 467.205 315.405C479.612 308.786 490.92 300.284 500.726 290.201L548.346 241.375C555.668 233.852 564.401 227.847 574.045 223.703C583.688 219.558 594.054 217.356 604.549 217.221C615.044 217.086 625.463 219.022 635.21 222.917C644.957 226.813 653.841 232.592 661.354 239.924L613.212 192.94C602.944 182.955 594.314 171.413 587.64 158.74C556.485 162.756 527.608 177.21 505.715 199.745L379 329.654Z" fill="url(#home-id-paint0)"/>
<path d="M508.789 397.707L638.638 524.424C643.59 493.981 638.467 462.753 624.046 435.492C617.477 423.348 609.104 412.271 599.213 402.641L550.418 355.019C542.76 347.728 536.625 338.989 532.369 329.308C528.113 319.628 525.819 309.199 525.622 298.625C525.425 288.051 527.329 277.544 531.221 267.711C535.114 257.879 540.92 248.917 548.3 241.346L500.724 290.144C490.919 300.226 479.611 308.729 467.203 315.348C471.285 346.737 485.956 375.793 508.789 397.707Z" fill="url(#home-id-paint1)"/>
<path d="M95 69.3705C147.924 52.7972 269.108 15.3271 442.314 153.678C615.519 292.03 623.548 298.515 688.5 305" stroke="url(#home-id-paint2)" stroke-width="4"/>
<path d="M234 195.529C280.333 187.478 528.5 273.974 535 276.321C541.5 278.668 697 320.524 761 298.735" stroke="url(#home-id-paint3)" stroke-width="4"/>
<path d="M865 305H691" stroke="url(#home-id-paint4)" stroke-width="4"/>
<path d="M234 358.743C280.333 362.756 535 318.471 535 318.471C535 318.471 696 296.116 760 306.976" stroke="url(#home-id-paint5)" stroke-width="4"/>
<path d="M95 504.271C147.879 518.324 268.961 550.096 442.021 432.783C615.08 315.471 622.103 309.499 687 304" stroke="url(#home-id-paint6)" stroke-width="4"/>
<path d="M663.631 352.101L710.352 304.217C720.159 294.134 731.467 285.627 743.873 278.999C739.881 248.245 725.717 219.712 703.636 197.945L573.773 71.2283C572.455 79.29 571.848 87.4519 571.959 95.6198C572.099 117.621 577.474 139.272 587.639 158.782C594.314 171.456 602.944 182.998 613.212 192.983L661.354 239.967C676.37 254.618 685.025 274.588 685.451 295.567C685.877 316.546 678.04 336.852 663.631 352.101Z" fill="url(#home-id-paint7)"/>
<rect y="279" width="250.617" height="146.495" rx="8" fill="#8602CA"/>
<rect x="185.149" y="292.948" width="46.0318" height="14.9485" rx="3" fill="#DC9AFE"/>
<rect x="19" y="326.832" width="46.0318" height="29.8969" rx="3" fill="#DC9AFE"/>
<path d="M22.017 407.612L22.8807 404.958L27.0795 404.958L27.9432 407.612L30.5795 407.612L26.5682 395.975L23.3977 395.975L19.3807 407.612L22.017 407.612ZM23.5057 403.038L24.9375 398.634L25.0284 398.634L26.4602 403.038L23.5057 403.038ZM34.3551 395.975L31.9347 395.975L31.9347 407.612L34.3551 407.612L34.3551 395.975ZM36.294 407.612L38.7145 407.612L38.7145 398.884L36.294 398.884L36.294 407.612ZM37.5099 397.759C38.2315 397.759 38.8224 397.208 38.8224 396.532C38.8224 395.862 38.2315 395.31 37.5099 395.31C36.794 395.31 36.2031 395.862 36.2031 396.532C36.2031 397.208 36.794 397.759 37.5099 397.759ZM44.5966 407.782C46.9205 407.782 48.3807 406.418 48.4943 404.413L46.2102 404.413C46.0682 405.345 45.4545 405.867 44.625 405.867C43.4943 405.867 42.7614 404.918 42.7614 403.248C42.7614 401.6 43.5 400.657 44.625 400.657C45.5114 400.657 46.0795 401.242 46.2102 402.112L48.4943 402.112C48.392 400.095 46.8636 398.771 44.5852 398.771C41.9375 398.771 40.3011 400.606 40.3011 403.282C40.3011 405.935 41.9091 407.782 44.5966 407.782ZM54.0213 407.782C56.1804 407.782 57.6349 406.731 57.9759 405.112L55.7372 404.964C55.4929 405.629 54.8679 405.975 54.0611 405.975C52.8508 405.975 52.0838 405.174 52.0838 403.873L52.0838 403.867L58.027 403.867L58.027 403.202C58.027 400.237 56.2315 398.771 53.9247 398.771C51.3565 398.771 49.6918 400.595 49.6918 403.288C49.6918 406.055 51.3338 407.782 54.0213 407.782ZM52.0838 402.367C52.1349 401.373 52.8906 400.577 53.9645 400.577C55.0156 400.577 55.7429 401.327 55.7486 402.367L52.0838 402.367Z" fill="white"/>
<path d="M25.0057 368.072L22.6932 368.072L19.8125 369.896L19.8125 372.077L22.4773 370.407L22.5455 370.407L22.5455 379.708L25.0057 379.708L25.0057 368.072ZM27.7713 379.708L36.0668 379.708L36.0668 377.697L31.1804 377.697L31.1804 377.617L32.8793 375.952C35.2713 373.771 35.9134 372.68 35.9134 371.356C35.9134 369.339 34.2656 367.913 31.7713 367.913C29.3281 367.913 27.652 369.373 27.6577 371.657L29.9929 371.657C29.9872 370.543 30.6918 369.861 31.7543 369.861C32.777 369.861 33.5384 370.498 33.5384 371.521C33.5384 372.447 32.9702 373.083 31.9134 374.1L27.7713 377.935L27.7713 379.708ZM42.1506 379.867C44.7642 379.867 46.6335 378.43 46.6278 376.441C46.6335 374.992 45.7131 373.958 44.0028 373.742L44.0028 373.651C45.304 373.418 46.2017 372.498 46.196 371.191C46.2017 369.356 44.5937 367.913 42.1847 367.913C39.7983 367.913 38.0028 369.31 37.9687 371.322L40.3267 371.322C40.3551 370.435 41.1676 369.861 42.1733 369.861C43.1676 369.861 43.8324 370.464 43.8267 371.339C43.8324 372.253 43.054 372.873 41.9347 372.873L40.8494 372.873L40.8494 374.68L41.9347 374.68C43.2528 374.68 44.0767 375.339 44.071 376.276C44.0767 377.202 43.2812 377.839 42.1562 377.839C41.071 377.839 40.2585 377.271 40.2131 376.418L37.7358 376.418C37.7756 378.452 39.5937 379.867 42.1506 379.867ZM48.2202 377.663L53.8054 377.663L53.8054 379.708L56.1577 379.708L56.1577 377.663L57.6009 377.663L57.6009 375.691L56.1577 375.691L56.1577 368.072L53.0781 368.072L48.2202 375.725L48.2202 377.663ZM53.8509 375.691L50.6974 375.691L50.6974 375.6L53.7599 370.753L53.8509 370.753L53.8509 375.691ZM74.5994 379.867C77.1903 379.867 78.9517 378.18 78.946 375.827C78.9517 373.6 77.3949 371.998 75.2983 371.998C74.2756 371.998 73.3949 372.424 72.9858 372.998L72.9176 372.998L73.2187 370.083L78.304 370.083L78.304 368.072L71.1903 368.072L70.6392 374.208L72.8267 374.6C73.1847 374.117 73.8778 373.816 74.5653 373.816C75.7358 373.822 76.5767 374.668 76.5767 375.89C76.5767 377.1 75.7528 377.935 74.5994 377.935C73.6222 377.935 72.8324 377.322 72.7756 376.418L70.3892 376.418C70.4347 378.43 72.1903 379.867 74.5994 379.867ZM85.1278 379.867C87.7187 379.878 89.4858 378.18 89.4801 375.81C89.4858 373.628 87.9631 372.055 85.9006 372.055C84.6222 372.055 83.4915 372.668 82.9687 373.697L82.8892 373.697C82.9006 371.396 83.696 369.986 85.2131 369.986C86.1051 369.986 86.7472 370.469 86.9347 371.322L89.3608 371.322C89.1278 369.367 87.5369 367.878 85.2131 367.878C82.3381 367.878 80.4915 370.208 80.4801 374.151C80.4915 378.413 82.7358 379.856 85.1278 379.867ZM85.1165 377.935C83.9801 377.935 83.1392 377.021 83.1392 375.884C83.1449 374.753 84.0028 373.833 85.1335 373.833C86.2699 373.833 87.0994 374.725 87.0937 375.878C87.0994 377.043 86.2528 377.935 85.1165 377.935ZM96.2869 368.072L93.9744 368.072L91.0937 369.896L91.0937 372.077L93.7585 370.407L93.8267 370.407L93.8267 379.708L96.2869 379.708L96.2869 368.072ZM103.393 379.867C106.018 379.867 107.905 378.464 107.911 376.577C107.905 375.123 106.786 373.935 105.388 373.702L105.388 373.623C106.604 373.373 107.473 372.322 107.479 371.043C107.473 369.242 105.746 367.913 103.393 367.913C101.036 367.913 99.3082 369.242 99.3139 371.043C99.3082 372.316 100.166 373.373 101.405 373.623L101.405 373.702C99.9844 373.935 98.8764 375.123 98.8821 376.577C98.8764 378.464 100.768 379.867 103.393 379.867ZM103.393 378.06C102.223 378.06 101.439 377.367 101.439 376.384C101.439 375.378 102.263 374.651 103.393 374.651C104.518 374.651 105.348 375.378 105.348 376.384C105.348 377.373 104.558 378.06 103.393 378.06ZM103.393 372.861C102.411 372.861 101.712 372.219 101.712 371.299C101.712 370.39 102.399 369.765 103.393 369.765C104.382 369.765 105.075 370.396 105.075 371.299C105.075 372.219 104.371 372.861 103.393 372.861ZM120.74 379.708L129.036 379.708L129.036 377.697L124.149 377.697L124.149 377.617L125.848 375.952C128.24 373.771 128.882 372.68 128.882 371.356C128.882 369.339 127.234 367.913 124.74 367.913C122.297 367.913 120.621 369.373 120.626 371.657L122.962 371.657C122.956 370.543 123.661 369.861 124.723 369.861C125.746 369.861 126.507 370.498 126.507 371.521C126.507 372.447 125.939 373.083 124.882 374.1L120.74 377.935L120.74 379.708ZM135.119 379.867C137.733 379.867 139.602 378.43 139.597 376.441C139.602 374.992 138.682 373.958 136.972 373.742L136.972 373.651C138.273 373.418 139.17 372.498 139.165 371.191C139.17 369.356 137.562 367.913 135.153 367.913C132.767 367.913 130.972 369.31 130.937 371.322L133.295 371.322C133.324 370.435 134.136 369.861 135.142 369.861C136.136 369.861 136.801 370.464 136.795 371.339C136.801 372.253 136.023 372.873 134.903 372.873L133.818 372.873L133.818 374.68L134.903 374.68C136.222 374.68 137.045 375.339 137.04 376.276C137.045 377.202 136.25 377.839 135.125 377.839C134.04 377.839 133.227 377.271 133.182 376.418L130.705 376.418C130.744 378.452 132.562 379.867 135.119 379.867ZM145.575 367.878C142.973 367.867 141.217 369.572 141.229 371.935C141.217 374.117 142.74 375.691 144.803 375.691C146.081 375.691 147.217 375.072 147.734 374.049L147.814 374.049C147.808 376.356 147.007 377.759 145.49 377.759C144.598 377.759 143.956 377.271 143.768 376.424L141.342 376.424C141.57 378.384 143.161 379.867 145.49 379.867C148.371 379.867 150.217 377.538 150.223 373.589C150.217 369.333 147.967 367.884 145.575 367.878ZM145.592 369.81C146.723 369.81 147.558 370.731 147.57 371.856C147.558 372.986 146.695 373.907 145.57 373.907C144.433 373.907 143.604 373.021 143.615 371.867C143.604 370.702 144.45 369.81 145.592 369.81ZM156.99 368.072L154.678 368.072L151.797 369.896L151.797 372.077L154.462 370.407L154.53 370.407L154.53 379.708L156.99 379.708L156.99 368.072ZM175.428 379.964C178.354 379.964 180.121 377.736 180.126 373.901C180.132 370.094 178.342 367.913 175.428 367.913C172.507 367.913 170.734 370.089 170.729 373.901C170.717 377.725 172.496 379.958 175.428 379.964ZM175.428 377.924C174.092 377.924 173.229 376.583 173.234 373.901C173.24 371.259 174.098 369.93 175.428 369.93C176.751 369.93 177.615 371.259 177.615 373.901C177.621 376.583 176.757 377.924 175.428 377.924ZM186.443 379.964C189.369 379.964 191.136 377.736 191.142 373.901C191.148 370.094 189.358 367.913 186.443 367.913C183.523 367.913 181.75 370.089 181.744 373.901C181.733 377.725 183.511 379.958 186.443 379.964ZM186.443 377.924C185.108 377.924 184.244 376.583 184.25 373.901C184.256 371.259 185.114 369.93 186.443 369.93C187.767 369.93 188.631 371.259 188.631 373.901C188.636 376.583 187.773 377.924 186.443 377.924ZM197.959 368.072L195.646 368.072L192.766 369.896L192.766 372.077L195.43 370.407L195.499 370.407L195.499 379.708L197.959 379.708L197.959 368.072ZM205.787 368.072L203.474 368.072L200.594 369.896L200.594 372.077L203.259 370.407L203.327 370.407L203.327 379.708L205.787 379.708L205.787 368.072Z" fill="white"/>
<path d="M206.547 408.317L203.097 408.317L205.253 394.839L208.704 394.839L206.547 408.317ZM200.195 394.839L196.906 404.109L196.517 402.113L196.517 402.114L195.356 396.052C195.356 396.052 195.216 394.839 193.72 394.839L188.283 394.839L188.219 395.067C188.219 395.067 189.882 395.419 191.828 396.608L194.825 408.318L198.419 408.318L203.908 394.839L200.195 394.839ZM227.33 408.317L230.497 408.317L227.736 394.838L224.962 394.838C223.682 394.838 223.37 395.843 223.37 395.843L218.225 408.317L221.821 408.317L222.54 406.315L226.926 406.315L227.33 408.317ZM223.534 403.549L225.346 398.505L226.366 403.549L223.534 403.549ZM218.494 398.08L218.987 395.186C218.987 395.186 217.468 394.598 215.884 394.598C214.172 394.598 210.106 395.359 210.106 399.06C210.106 402.542 214.878 402.585 214.878 404.414C214.878 406.243 210.598 405.916 209.186 404.762L208.673 407.789C208.673 407.789 210.213 408.55 212.567 408.55C214.921 408.55 218.472 407.31 218.472 403.935C218.472 400.431 213.658 400.104 213.658 398.581C213.658 397.057 217.018 397.253 218.494 398.08Z" fill="white"/>
<path d="M196.517 402.114L195.356 396.053C195.356 396.053 195.216 394.839 193.72 394.839L188.283 394.839L188.219 395.068C188.219 395.068 190.832 395.618 193.339 397.683C195.736 399.655 196.517 402.114 196.517 402.114Z" fill="#FED74C"/>
<rect x="1" width="274.145" height="112.612" rx="8" fill="#44B21A"/>
<rect x="19.4131" y="46.8384" width="171.852" height="14.9485" rx="3" fill="#99EC79"/>
<path d="M29.1349 80.1058L26.6861 80.1058L26.6861 87.424L26.5838 87.424L21.5611 80.1058L19.402 80.1058L19.402 91.7422L21.8622 91.7422L21.8622 84.4183L21.9474 84.4183L27.0099 91.7422L29.1349 91.7422L29.1349 80.1058ZM31.1676 91.7422L38.6165 91.7422L38.6165 89.7138L33.6278 89.7138L33.6278 80.1058L31.1676 80.1058L31.1676 91.7422ZM48.0909 79.9126C45.4886 79.9013 43.733 81.6058 43.7443 83.9695C43.733 86.1513 45.2557 87.7251 47.3182 87.7251C48.5966 87.7251 49.733 87.1058 50.25 86.0831L50.3295 86.0831C50.3239 88.3899 49.5227 89.7933 48.0057 89.7933C47.1136 89.7933 46.4716 89.3047 46.2841 88.4581L43.858 88.4581C44.0852 90.4183 45.6761 91.9013 48.0057 91.9013C50.8864 91.9013 52.733 89.5717 52.7386 85.6229C52.733 81.3672 50.483 79.9183 48.0909 79.9126ZM48.108 81.8445C49.2386 81.8445 50.0739 82.7649 50.0852 83.8899C50.0739 85.0206 49.2102 85.9411 48.0852 85.9411C46.9489 85.9411 46.1193 85.0547 46.1307 83.9013C46.1193 82.7365 46.9659 81.8445 48.108 81.8445ZM59.5057 80.1058L57.1932 80.1058L54.3125 81.9297L54.3125 84.1115L56.9773 82.4411L57.0455 82.4411L57.0455 91.7422L59.5057 91.7422L59.5057 80.1058ZM68.0483 91.7422L68.9119 89.0888L73.1108 89.0888L73.9744 91.7422L76.6108 91.7422L72.5994 80.1058L69.429 80.1058L65.4119 91.7422L68.0483 91.7422ZM69.5369 87.1683L70.9687 82.7649L71.0597 82.7649L72.4915 87.1683L69.5369 87.1683ZM78.0114 91.7422L82.983 91.7422C85.5966 91.7422 86.9886 90.3786 86.9886 88.5263C86.9886 86.8047 85.7557 85.7649 84.4318 85.7024L84.4318 85.5888C85.642 85.3161 86.5341 84.4581 86.5341 83.0888C86.5341 81.3445 85.2386 80.1058 82.6705 80.1058L78.0114 80.1058L78.0114 91.7422ZM80.4716 89.7308L80.4716 86.6399L82.5341 86.6399C83.7159 86.6399 84.4489 87.3217 84.4489 88.282C84.4489 89.157 83.8523 89.7308 82.4773 89.7308L80.4716 89.7308ZM80.4716 84.9752L80.4716 82.0945L82.3409 82.0945C83.4318 82.0945 84.0511 82.657 84.0511 83.4979C84.0511 84.4183 83.3011 84.9752 82.2955 84.9752L80.4716 84.9752ZM98.3224 80.1058L95.8736 80.1058L95.8736 87.424L95.7713 87.424L90.7486 80.1058L88.5895 80.1058L88.5895 91.7422L91.0497 91.7422L91.0497 84.4183L91.1349 84.4183L96.1974 91.7422L98.3224 91.7422L98.3224 80.1058ZM102.361 91.7422L103.224 89.0888L107.423 89.0888L108.287 91.7422L110.923 91.7422L106.912 80.1058L103.741 80.1058L99.7244 91.7422L102.361 91.7422ZM103.849 87.1683L105.281 82.7649L105.372 82.7649L106.804 87.1683L103.849 87.1683ZM116.818 91.9979C119.744 91.9979 121.511 89.7706 121.517 85.9354C121.523 82.1286 119.733 79.9467 116.818 79.9467C113.898 79.9467 112.125 82.1229 112.119 85.9354C112.108 89.7592 113.886 91.9922 116.818 91.9979ZM116.818 89.9581C115.483 89.9581 114.619 88.6172 114.625 85.9354C114.631 83.2933 115.489 81.9638 116.818 81.9638C118.142 81.9638 119.006 83.2933 119.006 85.9354C119.011 88.6172 118.148 89.9581 116.818 89.9581ZM123.095 89.6968L128.68 89.6968L128.68 91.7422L131.033 91.7422L131.033 89.6968L132.476 89.6968L132.476 87.7252L131.033 87.7252L131.033 80.1058L127.953 80.1058L123.095 87.7593L123.095 89.6968ZM128.726 87.7252L125.572 87.7252L125.572 87.6343L128.635 82.7877L128.726 82.7877L128.726 87.7252ZM139.021 80.1058L136.709 80.1058L133.828 81.9297L133.828 84.1115L136.493 82.4411L136.561 82.4411L136.561 91.7422L139.021 91.7422L139.021 80.1058ZM142.247 91.7422L144.787 91.7422L149.616 82.1456L149.616 80.1058L141.452 80.1058L141.452 82.1172L147.071 82.1172L147.071 82.1968L142.247 91.7422ZM156.365 80.1058L154.053 80.1058L151.172 81.9297L151.172 84.1115L153.837 82.4411L153.905 82.4411L153.905 91.7422L156.365 91.7422L156.365 80.1058ZM163.597 91.9013C166.187 91.9127 167.955 90.2138 167.949 87.8445C167.955 85.6627 166.432 84.0888 164.369 84.0888C163.091 84.0888 161.96 84.7024 161.437 85.7308L161.358 85.7308C161.369 83.4297 162.165 82.0206 163.682 82.0206C164.574 82.0206 165.216 82.5036 165.403 83.3558L167.83 83.3558C167.597 81.4013 166.006 79.9127 163.682 79.9127C160.807 79.9127 158.96 82.2422 158.949 86.1854C158.96 90.4468 161.205 91.8899 163.597 91.9013ZM163.585 89.9695C162.449 89.9695 161.608 89.0547 161.608 87.9183C161.614 86.7877 162.472 85.8672 163.602 85.8672C164.739 85.8672 165.568 86.7593 165.562 87.9127C165.568 89.0774 164.722 89.9695 163.585 89.9695ZM169.517 89.6968L175.102 89.6968L175.102 91.7422L177.455 91.7422L177.455 89.6968L178.898 89.6968L178.898 87.7252L177.455 87.7252L177.455 80.1059L174.375 80.1059L169.517 87.7593L169.517 89.6968ZM175.148 87.7252L171.994 87.7252L171.994 87.6343L175.057 82.7877L175.148 82.7877L175.148 87.7252ZM184.838 91.9013C187.452 91.9013 189.321 90.4638 189.315 88.4752C189.321 87.0263 188.401 85.9922 186.69 85.7763L186.69 85.6854C187.991 85.4524 188.889 84.532 188.884 83.2252C188.889 81.3899 187.281 79.9468 184.872 79.9468C182.486 79.9468 180.69 81.3445 180.656 83.3559L183.014 83.3559C183.043 82.4695 183.855 81.8956 184.861 81.8956C185.855 81.8956 186.52 82.4979 186.514 83.3729C186.52 84.2877 185.741 84.907 184.622 84.907L183.537 84.907L183.537 86.7138L184.622 86.7138C185.94 86.7138 186.764 87.3729 186.759 88.3104C186.764 89.2365 185.969 89.8729 184.844 89.8729C183.759 89.8729 182.946 89.3047 182.901 88.4524L180.423 88.4524C180.463 90.4865 182.281 91.9013 184.838 91.9013ZM195.646 91.9979C198.572 91.9979 200.339 89.7706 200.345 85.9354C200.351 82.1286 198.561 79.9468 195.646 79.9468C192.726 79.9468 190.953 82.1229 190.947 85.9354C190.936 89.7593 192.714 91.9922 195.646 91.9979ZM195.646 89.9581C194.311 89.9581 193.447 88.6172 193.453 85.9354C193.459 83.2934 194.317 81.9638 195.646 81.9638C196.97 81.9638 197.834 83.2934 197.834 85.9354C197.839 88.6172 196.976 89.9581 195.646 89.9581ZM206.662 91.9979C209.588 91.9979 211.355 89.7706 211.361 85.9354C211.366 82.1286 209.577 79.9468 206.662 79.9468C203.741 79.9468 201.969 82.1229 201.963 85.9354C201.952 89.7593 203.73 91.9922 206.662 91.9979ZM206.662 89.9581C205.327 89.9581 204.463 88.6172 204.469 85.9354C204.474 83.2934 205.332 81.9638 206.662 81.9638C207.986 81.9638 208.849 83.2934 208.849 85.9354C208.855 88.6172 207.991 89.9581 206.662 89.9581Z" fill="white"/>
<path d="M26.63 22.7255L29.2827 22.7255C29.2443 20.3924 27.3267 18.7816 24.4119 18.7816C21.5419 18.7816 19.4389 20.3669 19.4517 22.7447C19.4453 24.6751 20.8068 25.7809 23.0185 26.3115L24.4439 26.6694C25.8693 27.0146 26.6619 27.4237 26.6683 28.3058C26.6619 29.2646 25.7543 29.9166 24.348 29.9166C22.9098 29.9166 21.8743 29.2518 21.7848 27.9414L19.1065 27.9414C19.1768 30.7731 21.2031 32.2369 24.38 32.2369C27.576 32.2369 29.4553 30.7092 29.4616 28.3122C29.4553 26.1325 27.8125 24.9755 25.5369 24.4642L24.3608 24.1829C23.223 23.9208 22.2706 23.499 22.2898 22.5593C22.2898 21.7156 23.0376 21.0955 24.3928 21.0955C25.7159 21.0955 26.5277 21.6964 26.63 22.7255ZM31.3233 32.0515L40.1699 32.0515L40.1699 29.7696L34.0911 29.7696L34.0911 26.6438L39.6905 26.6438L39.6905 24.3619L34.0911 24.3619L34.0911 21.2426L40.1444 21.2426L40.1444 18.9606L31.3233 18.9606L31.3233 32.0515ZM42.3448 32.0515L45.1126 32.0515L45.1126 27.8072L47.4393 27.8072C50.4499 27.8072 52.2013 26.011 52.2013 23.3967C52.2013 20.7951 50.4819 18.9606 47.5096 18.9606L42.3448 18.9606L42.3448 32.0515ZM45.1126 25.5892L45.1126 21.2234L46.979 21.2234C48.5771 21.2234 49.3505 22.0927 49.3505 23.3967C49.3505 24.6943 48.5771 25.5892 46.9918 25.5892L45.1126 25.5892ZM54.7438 32.0515L55.7154 29.0664L60.4391 29.0664L61.4107 32.0515L64.3766 32.0515L59.8638 18.9606L56.2971 18.9606L51.7779 32.0515L54.7438 32.0515ZM56.4185 26.9059L58.0293 21.9521L58.1316 21.9521L59.7424 26.9059L56.4185 26.9059Z" fill="white"/>
<path d="M624.048 435.549C654.991 431.436 683.65 417.023 705.407 394.631L832.079 264.75C824.015 263.428 815.851 262.816 807.681 262.922C785.426 263.056 763.532 268.561 743.859 278.97C731.453 285.598 720.146 294.105 710.338 304.189L663.618 352.072C663.342 352.377 663.037 352.682 662.733 353.001C648.048 368.064 628.019 376.727 606.99 377.11C585.961 377.493 565.629 369.565 550.406 355.047L599.201 402.669C609.1 412.307 617.478 423.394 624.048 435.549Z" fill="url(#home-id-paint8)"/>
<rect x="858" y="267" width="320" height="70.9999" rx="8.1354" fill="white"/>
<path d="M881.523 313.309C883.941 313.309 885.508 312.254 886.307 310.731L886.434 310.731L886.434 313L890.738 313L890.738 301.963C890.738 298.064 887.436 296.423 883.792 296.423C879.872 296.423 877.294 298.298 876.665 301.281L880.863 301.622C881.172 300.536 882.141 299.737 883.771 299.737C885.316 299.737 886.2 300.514 886.2 301.857L886.2 301.92C886.2 302.975 885.081 303.114 882.237 303.391C878.998 303.689 876.09 304.776 876.09 308.43C876.09 311.668 878.402 313.309 881.523 313.309ZM882.823 310.177C881.427 310.177 880.426 309.527 880.426 308.281C880.426 307.002 881.481 306.374 883.079 306.15C884.069 306.011 885.689 305.777 886.232 305.415L886.232 307.151C886.232 308.866 884.815 310.177 882.823 310.177ZM898.798 291.182L894.259 291.182L894.259 313L898.798 313L898.798 291.182ZM902.433 313L906.971 313L906.971 296.636L902.433 296.636L902.433 313ZM904.713 294.527C906.066 294.527 907.174 293.494 907.174 292.226C907.174 290.969 906.066 289.935 904.713 289.935C903.371 289.935 902.263 290.969 902.263 292.226C902.263 293.494 903.371 294.527 904.713 294.527ZM918 313.32C922.358 313.32 925.096 310.763 925.309 307.002L921.026 307.002C920.76 308.749 919.609 309.729 918.054 309.729C915.934 309.729 914.559 307.95 914.559 304.818C914.559 301.729 915.944 299.96 918.054 299.96C919.716 299.96 920.781 301.058 921.026 302.688L925.309 302.688C925.117 298.906 922.251 296.423 917.979 296.423C913.015 296.423 909.946 299.864 909.946 304.882C909.946 309.857 912.961 313.32 918 313.32ZM935.672 313.32C939.72 313.32 942.447 311.349 943.087 308.313L938.889 308.036C938.431 309.282 937.259 309.932 935.746 309.932C933.477 309.932 932.039 308.43 932.039 305.99L932.039 305.979L943.182 305.979L943.182 304.733C943.182 299.172 939.816 296.423 935.491 296.423C930.675 296.423 927.554 299.843 927.554 304.893C927.554 310.081 930.633 313.32 935.672 313.32ZM932.039 303.167C932.135 301.303 933.552 299.811 935.565 299.811C937.536 299.811 938.9 301.217 938.91 303.167L932.039 303.167ZM952.952 315.727L955.466 315.727L955.487 313.266C960.1 312.915 962.774 310.465 962.785 306.768C962.774 303.135 960.036 301.207 956.244 300.354L955.615 300.205L955.658 294.879C957.074 295.209 957.937 296.114 958.065 297.457L962.486 297.457C962.433 293.93 959.802 291.406 955.7 290.958L955.722 288.455L953.207 288.455L953.186 290.937C949.021 291.342 946.08 293.856 946.101 297.489C946.091 300.706 948.36 302.549 952.046 303.433L953.069 303.689L953.016 309.325C951.279 308.994 950.107 307.929 949.99 306.15L945.526 306.15C945.633 310.454 948.456 312.862 952.973 313.256L952.952 315.727ZM955.53 309.325L955.572 304.349C957.224 304.871 958.119 305.543 958.129 306.757C958.119 308.046 957.138 309.005 955.53 309.325ZM953.101 299.555C951.769 299.097 950.81 298.405 950.832 297.18C950.832 296.04 951.641 295.156 953.143 294.847L953.101 299.555ZM973.26 313.32C977.308 313.32 980.035 311.349 980.674 308.313L976.477 308.036C976.019 309.282 974.847 309.932 973.334 309.932C971.065 309.932 969.627 308.43 969.627 305.99L969.627 305.979L980.77 305.979L980.77 304.733C980.77 299.172 977.404 296.423 973.079 296.423C968.263 296.423 965.142 299.843 965.142 304.893C965.142 310.081 968.221 313.32 973.26 313.32ZM969.627 303.167C969.723 301.303 971.14 299.811 973.153 299.811C975.124 299.811 976.488 301.217 976.498 303.167L969.627 303.167ZM987.261 296.636L982.573 296.636L987.261 304.818L982.403 313L987.09 313L990.265 307.343L993.493 313L998.127 313L993.259 304.818L998 296.636L993.344 296.636L990.265 302.357L987.261 296.636ZM1005.27 313.309C1007.69 313.309 1009.26 312.254 1010.06 310.731L1010.18 310.731L1010.18 313L1014.49 313L1014.49 301.963C1014.49 298.064 1011.19 296.423 1007.54 296.423C1003.62 296.423 1001.04 298.298 1000.42 301.281L1004.61 301.622C1004.92 300.536 1005.89 299.737 1007.52 299.737C1009.07 299.737 1009.95 300.514 1009.95 301.857L1009.95 301.92C1009.95 302.975 1008.83 303.114 1005.99 303.391C1002.75 303.689 999.84 304.776 999.84 308.43C999.84 311.668 1002.15 313.309 1005.27 313.309ZM1006.57 310.177C1005.18 310.177 1004.18 309.527 1004.18 308.281C1004.18 307.002 1005.23 306.374 1006.83 306.15C1007.82 306.011 1009.44 305.777 1009.98 305.415L1009.98 307.151C1009.98 308.867 1008.57 310.177 1006.57 310.177ZM1018.01 313L1022.55 313L1022.55 303.178C1022.55 301.367 1023.7 300.163 1025.21 300.163C1026.7 300.163 1027.7 301.185 1027.7 302.794L1027.7 313L1032.1 313L1032.1 303.007C1032.1 301.313 1033.07 300.163 1034.72 300.163C1036.17 300.163 1037.26 301.068 1037.26 302.89L1037.26 313L1041.79 313L1041.79 301.995C1041.79 298.447 1039.68 296.423 1036.63 296.423C1034.23 296.423 1032.37 297.648 1031.7 299.523L1031.53 299.523C1031.01 297.627 1029.33 296.423 1027.09 296.423C1024.88 296.423 1023.21 297.595 1022.53 299.523L1022.33 299.523L1022.33 296.636L1018.01 296.636L1018.01 313ZM1045.37 319.136L1049.91 319.136L1049.91 310.379L1050.05 310.379C1050.68 311.743 1052.05 313.266 1054.69 313.266C1058.42 313.266 1061.33 310.315 1061.33 304.84C1061.33 299.215 1058.3 296.423 1054.7 296.423C1051.97 296.423 1050.66 298.053 1050.05 299.385L1049.85 299.385L1049.85 296.636L1045.37 296.636L1045.37 319.136ZM1049.82 304.818C1049.82 301.899 1051.05 300.035 1053.26 300.035C1055.5 300.035 1056.7 301.984 1056.7 304.818C1056.7 307.673 1055.48 309.655 1053.26 309.655C1051.07 309.655 1049.82 307.737 1049.82 304.818ZM1068.9 291.182L1064.36 291.182L1064.36 313L1068.9 313L1068.9 291.182ZM1079.99 313.32C1084.04 313.32 1086.76 311.349 1087.4 308.313L1083.21 308.036C1082.75 309.282 1081.58 309.932 1080.06 309.932C1077.79 309.932 1076.36 308.43 1076.36 305.99L1076.36 305.979L1087.5 305.979L1087.5 304.733C1087.5 299.172 1084.13 296.423 1079.81 296.423C1074.99 296.423 1071.87 299.843 1071.87 304.893C1071.87 310.081 1074.95 313.32 1079.99 313.32ZM1076.36 303.167C1076.45 301.303 1077.87 299.811 1079.88 299.811C1081.85 299.811 1083.22 301.217 1083.23 303.167L1076.36 303.167ZM1093.11 313.277C1094.48 313.277 1095.66 312.137 1095.67 310.72C1095.66 309.325 1094.48 308.185 1093.11 308.185C1091.71 308.185 1090.55 309.325 1090.56 310.72C1090.55 312.137 1091.71 313.277 1093.11 313.277ZM1106.79 313.32C1111.15 313.32 1113.88 310.763 1114.1 307.002L1109.82 307.002C1109.55 308.749 1108.4 309.729 1106.84 309.729C1104.72 309.729 1103.35 307.95 1103.35 304.818C1103.35 301.729 1104.73 299.96 1106.84 299.96C1108.5 299.96 1109.57 301.058 1109.82 302.688L1114.1 302.688C1113.91 298.906 1111.04 296.423 1106.77 296.423C1101.8 296.423 1098.74 299.864 1098.74 304.882C1098.74 309.857 1101.75 313.32 1106.79 313.32ZM1124.4 313.32C1129.36 313.32 1132.45 309.921 1132.45 304.882C1132.45 299.811 1129.36 296.423 1124.4 296.423C1119.43 296.423 1116.34 299.811 1116.34 304.882C1116.34 309.921 1119.43 313.32 1124.4 313.32ZM1124.42 309.804C1122.13 309.804 1120.96 307.705 1120.96 304.85C1120.96 301.995 1122.13 299.886 1124.42 299.886C1126.67 299.886 1127.84 301.995 1127.84 304.85C1127.84 307.705 1126.67 309.804 1124.42 309.804ZM1135.4 313L1139.94 313L1139.94 303.178C1139.94 301.367 1141.09 300.163 1142.6 300.163C1144.1 300.163 1145.1 301.185 1145.1 302.794L1145.1 313L1149.5 313L1149.5 303.007C1149.5 301.313 1150.47 300.163 1152.12 300.163C1153.57 300.163 1154.65 301.068 1154.65 302.89L1154.65 313L1159.18 313L1159.18 301.995C1159.18 298.447 1157.07 296.423 1154.02 296.423C1151.63 296.423 1149.76 297.648 1149.09 299.523L1148.92 299.523C1148.4 297.627 1146.73 296.423 1144.48 296.423C1142.27 296.423 1140.6 297.595 1139.92 299.523L1139.73 299.523L1139.73 296.636L1135.4 296.636L1135.4 313Z" fill="url(#home-id-paint9)"/>
<rect x="1" y="145" width="274.145" height="102" rx="8" fill="#CC4A00"/>
<path d="M26.8825 203.727L23.8473 203.727L20.0664 206.121L20.0664 208.985L23.5639 206.792L23.6534 206.792L23.6534 219L26.8825 219L26.8825 203.727ZM30.5123 219L41.4001 219L41.4001 216.36L34.9868 216.36L34.9868 216.256L37.2165 214.071C40.3561 211.207 41.1988 209.775 41.1988 208.038C41.1988 205.39 39.0361 203.518 35.7623 203.518C32.5557 203.518 30.3557 205.435 30.3632 208.433L33.4282 208.433C33.4207 206.971 34.3454 206.076 35.74 206.076C37.0823 206.076 38.0816 206.912 38.0816 208.254C38.0816 209.469 37.3358 210.305 35.9488 211.64L30.5123 216.673L30.5123 219ZM47.036 219.216C48.7289 219.216 49.8251 218.478 50.3844 217.412L50.4739 217.412L50.4739 219L53.4867 219L53.4867 211.274C53.4867 208.545 51.1749 207.396 48.6245 207.396C45.8801 207.396 44.0755 208.709 43.6355 210.797L46.5737 211.036C46.7899 210.275 47.4686 209.716 48.6096 209.716C49.6909 209.716 50.3098 210.26 50.3098 211.2L50.3098 211.244C50.3098 211.983 49.5268 212.08 47.5357 212.273C45.2686 212.482 43.2328 213.243 43.2328 215.801C43.2328 218.068 44.851 219.216 47.036 219.216ZM47.9458 217.024C46.9689 217.024 46.2679 216.569 46.2679 215.696C46.2679 214.801 47.0062 214.362 48.1248 214.205C48.8184 214.108 49.9519 213.944 50.3322 213.69L50.3322 214.906C50.3322 216.107 49.3404 217.024 47.9458 217.024ZM59.1282 203.727L55.9513 203.727L55.9513 219L59.1282 219L59.1282 203.727ZM67.6315 219.336C71.472 219.336 73.7913 216.412 73.7987 211.379C73.8062 206.382 71.4571 203.518 67.6315 203.518C63.7984 203.518 61.4717 206.375 61.4642 211.379C61.4493 216.397 63.7835 219.328 67.6315 219.336ZM67.6315 216.658C65.879 216.658 64.7455 214.898 64.7529 211.379C64.7604 207.911 65.8865 206.166 67.6315 206.166C69.3691 206.166 70.5026 207.911 70.5026 211.379C70.51 214.898 69.3765 216.658 67.6315 216.658ZM81.7464 219.209C85.1768 219.209 87.6303 217.322 87.6229 214.712C87.6303 212.81 86.4222 211.453 84.1776 211.17L84.1776 211.05C85.8853 210.745 87.0636 209.537 87.0561 207.821C87.0636 205.413 84.9531 203.518 81.7912 203.518C78.6591 203.518 76.3026 205.353 76.2578 207.993L79.3526 207.993C79.3899 206.83 80.4563 206.076 81.7763 206.076C83.0813 206.076 83.9538 206.867 83.9464 208.015C83.9538 209.216 82.9322 210.029 81.4631 210.029L80.0387 210.029L80.0387 212.4L81.4631 212.4C83.1932 212.4 84.2745 213.265 84.267 214.496C84.2745 215.711 83.2305 216.547 81.7539 216.547C80.3295 216.547 79.2631 215.801 79.2035 214.682L75.9521 214.682C76.0043 217.352 78.3906 219.209 81.7464 219.209ZM95.4475 219C100.101 219 102.92 216.121 102.92 211.349C102.92 206.591 100.101 203.727 95.4923 203.727L90.0335 203.727L90.0335 219L95.4475 219ZM93.2625 216.233L93.2625 206.494L95.3208 206.494C98.1844 206.494 99.6982 207.956 99.6982 211.349C99.6982 214.757 98.1844 216.233 95.3133 216.233L93.2625 216.233ZM110.428 219.224C113.478 219.224 115.394 217.434 115.543 214.802L112.545 214.802C112.359 216.025 111.554 216.711 110.465 216.711C108.981 216.711 108.019 215.465 108.019 213.273C108.019 211.11 108.988 209.872 110.465 209.872C111.628 209.872 112.374 210.64 112.545 211.781L115.543 211.781C115.409 209.134 113.403 207.396 110.413 207.396C106.937 207.396 104.79 209.805 104.79 213.317C104.79 216.8 106.9 219.224 110.428 219.224ZM117.577 219L120.754 219L120.754 207.545L117.577 207.545L117.577 219ZM119.173 206.069C120.12 206.069 120.896 205.346 120.896 204.458C120.896 203.578 120.12 202.855 119.173 202.855C118.234 202.855 117.458 203.578 117.458 204.458C117.458 205.346 118.234 206.069 119.173 206.069ZM128.519 219.224C131.353 219.224 133.262 217.844 133.71 215.719L130.771 215.525C130.451 216.397 129.63 216.852 128.571 216.852C126.983 216.852 125.976 215.801 125.976 214.093L125.976 214.086L133.777 214.086L133.777 213.213C133.777 209.32 131.42 207.396 128.392 207.396C125.022 207.396 122.837 209.79 122.837 213.325C122.837 216.957 124.992 219.224 128.519 219.224ZM125.976 212.117C126.043 210.812 127.035 209.768 128.445 209.768C129.824 209.768 130.779 210.752 130.786 212.117L125.976 212.117ZM139.027 203.727L135.85 203.727L135.85 219L139.027 219L139.027 203.727ZM147.068 203.474C143.652 203.459 141.348 205.696 141.363 208.798C141.348 211.662 143.346 213.728 146.053 213.728C147.731 213.728 149.223 212.915 149.901 211.572L150.006 211.572C149.998 214.6 148.947 216.442 146.956 216.442C145.785 216.442 144.942 215.801 144.696 214.69L141.512 214.69C141.81 217.262 143.898 219.209 146.956 219.209C150.737 219.209 153.16 216.151 153.168 210.968C153.16 205.383 150.207 203.481 147.068 203.474ZM147.09 206.009C148.574 206.009 149.67 207.217 149.685 208.694C149.67 210.178 148.537 211.386 147.06 211.386C145.569 211.386 144.48 210.223 144.495 208.709C144.48 207.18 145.591 206.009 147.09 206.009ZM161.393 219.336C165.234 219.336 167.553 216.412 167.56 211.379C167.568 206.382 165.219 203.518 161.393 203.518C157.56 203.518 155.233 206.375 155.226 211.379C155.211 216.397 157.545 219.328 161.393 219.336ZM161.393 216.658C159.641 216.658 158.507 214.898 158.515 211.379C158.522 207.911 159.648 206.166 161.393 206.166C163.131 206.166 164.264 207.911 164.264 211.379C164.272 214.898 163.138 216.658 161.393 216.658ZM175.068 219.224C178.118 219.224 180.035 217.434 180.184 214.802L177.186 214.802C177 216.025 176.194 216.711 175.105 216.711C173.621 216.711 172.659 215.465 172.659 213.273C172.659 211.11 173.629 209.872 175.105 209.872C176.269 209.872 177.015 210.64 177.186 211.781L180.184 211.781C180.05 209.134 178.044 207.396 175.053 207.396C171.578 207.396 169.43 209.805 169.43 213.317C169.43 216.8 171.541 219.224 175.068 219.224ZM185.484 219.216C187.177 219.216 188.273 218.478 188.833 217.412L188.922 217.412L188.922 219L191.935 219L191.935 211.274C191.935 208.545 189.623 207.396 187.073 207.396C184.328 207.396 182.524 208.709 182.084 210.797L185.022 211.036C185.238 210.275 185.917 209.716 187.058 209.716C188.139 209.716 188.758 210.26 188.758 211.2L188.758 211.244C188.758 211.983 187.975 212.08 185.984 212.273C183.717 212.482 181.681 213.243 181.681 215.801C181.681 218.068 183.299 219.216 185.484 219.216ZM186.394 217.024C185.417 217.024 184.716 216.569 184.716 215.696C184.716 214.802 185.454 214.362 186.573 214.205C187.267 214.108 188.4 213.944 188.78 213.69L188.78 214.906C188.78 216.107 187.789 217.024 186.394 217.024ZM194.459 219L197.688 219L197.688 212.691L203.9 212.691L203.9 210.029L197.688 210.029L197.688 206.39L204.571 206.39L204.571 203.727L194.459 203.727L194.459 219Z" fill="white"/>
<path d="M36.6866 178.761C35.4874 183.571 30.6156 186.498 25.8051 185.299C20.9965 184.099 18.0692 179.227 19.2689 174.418C20.4676 169.607 25.3393 166.68 30.1485 167.879C34.9588 169.078 37.8858 173.951 36.6866 178.761Z" fill="#F7931A"/>
<path d="M31.9362 175.31C32.1149 174.115 31.2053 173.473 29.9614 173.044L30.3649 171.426L29.3798 171.18L28.987 172.756C28.728 172.692 28.462 172.631 28.1977 172.57L28.5933 170.984L27.6088 170.739L27.205 172.357C26.9906 172.308 26.7802 172.26 26.5759 172.209L26.5771 172.204L25.2185 171.864L24.9564 172.917C24.9564 172.917 25.6873 173.084 25.6719 173.095C26.0709 173.194 26.143 173.458 26.1309 173.667L25.6713 175.511C25.6988 175.518 25.7345 175.528 25.7738 175.544C25.7409 175.536 25.7059 175.527 25.6697 175.518L25.0254 178.101C24.9766 178.222 24.8529 178.404 24.574 178.335C24.5838 178.349 23.858 178.156 23.858 178.156L23.3689 179.284L24.6509 179.603C24.8894 179.663 25.1231 179.726 25.3532 179.785L24.9455 181.422L25.9295 181.667L26.3332 180.048C26.602 180.121 26.863 180.188 27.1183 180.251L26.716 181.863L27.7011 182.109L28.1088 180.475C29.7886 180.793 31.0518 180.665 31.5835 179.145C32.0119 177.922 31.5622 177.216 30.6783 176.756C31.322 176.608 31.8068 176.184 31.9362 175.31ZM29.6853 178.466C29.3809 179.689 27.3212 179.028 26.6534 178.862L27.1943 176.694C27.8621 176.86 30.0035 177.19 29.6853 178.466ZM29.9901 175.292C29.7123 176.405 27.9979 175.839 27.4418 175.701L27.9323 173.734C28.4884 173.873 30.2793 174.131 29.9901 175.292Z" fill="white"/>
<path d="M45.3117 173.043C46.0399 173.043 46.6689 173.173 47.1975 173.429C47.7287 173.688 48.1669 174.036 48.5185 174.475C48.8653 174.915 49.1234 175.43 49.2901 176.02C49.4556 176.612 49.5387 177.248 49.5387 177.929C49.5387 178.975 49.3471 179.963 48.9601 180.895C48.5732 181.828 48.0483 182.637 47.3805 183.327C46.7132 184.016 45.9254 184.56 45.0169 184.961C44.1097 185.363 43.1235 185.564 42.0646 185.564C41.9277 185.564 41.6869 185.56 41.3468 185.553C41.0068 185.546 40.6159 185.511 40.1782 185.452C39.7377 185.39 39.272 185.3 38.7801 185.178C38.2885 185.058 37.8216 184.891 37.382 184.678L41.3135 168.159L44.8348 167.613L43.4271 173.475C43.7284 173.339 44.032 173.234 44.335 173.157C44.6383 173.082 44.9638 173.043 45.3117 173.043ZM42.3581 182.771C42.8884 182.771 43.3881 182.64 43.8575 182.384C44.3283 182.128 44.7346 181.781 45.0749 181.35C45.4153 180.917 45.6846 180.429 45.881 179.884C46.0775 179.339 46.1768 178.77 46.1768 178.178C46.1768 177.451 46.0553 176.884 45.8131 176.474C45.571 176.066 45.1229 175.86 44.4722 175.86C44.259 175.86 43.9843 175.901 43.6437 175.974C43.3019 176.051 42.9961 176.211 42.722 176.452L41.2231 182.678C41.3135 182.694 41.3934 182.709 41.4616 182.723C41.5284 182.739 41.6022 182.75 41.6757 182.757C41.7534 182.766 41.8424 182.77 41.9498 182.77C42.0573 182.77 42.1917 182.771 42.3581 182.771Z" fill="white"/>
<path d="M53.1904 185.248H49.827L52.6674 173.296H56.0537L53.1904 185.248ZM54.827 171.84C54.3576 171.84 53.9319 171.7 53.5543 171.42C53.1735 171.142 52.985 170.713 52.985 170.136C52.985 169.818 53.0495 169.52 53.1775 169.239C53.3074 168.959 53.4771 168.717 53.6898 168.512C53.9022 168.308 54.1483 168.145 54.4277 168.023C54.7089 167.902 55.008 167.842 55.3267 167.842C55.7958 167.842 56.2192 167.981 56.5983 168.261C56.976 168.543 57.1659 168.971 57.1659 169.546C57.1659 169.864 57.1017 170.163 56.9726 170.444C56.8444 170.725 56.6746 170.966 56.4619 171.171C56.2512 171.375 56.0029 171.538 55.724 171.659C55.4426 171.782 55.1446 171.84 54.827 171.84Z" fill="white"/>
<path d="M59.0011 170.318L62.5238 169.772L61.6587 173.295H65.4314L64.7502 176.067H61.0002L60.0013 180.247C59.9093 180.596 59.8571 180.921 59.8425 181.224C59.826 181.528 59.8644 181.789 59.9553 182.008C60.0457 182.229 60.2081 182.398 60.4438 182.518C60.6784 182.641 61.0142 182.702 61.4547 182.702C61.8175 182.702 62.1711 182.667 62.5128 182.599C62.8526 182.532 63.1969 182.438 63.5453 182.315L63.7962 184.907C63.3416 185.073 62.8495 185.217 62.3192 185.337C61.7881 185.46 61.1593 185.519 60.4326 185.519C59.3877 185.519 58.5777 185.364 58.0005 185.055C57.4242 184.743 57.0168 184.318 56.773 183.78C56.5325 183.244 56.425 182.626 56.4551 181.93C56.4862 181.231 56.5914 180.498 56.773 179.725L59.0011 170.318Z" fill="white"/>
<path d="M65.2836 180.475C65.2836 179.446 65.4503 178.475 65.7833 177.566C66.1158 176.657 66.5948 175.861 67.2163 175.179C67.8355 174.499 68.59 173.961 69.478 173.566C70.3619 173.173 71.3515 172.975 72.4421 172.975C73.1248 172.975 73.7345 173.04 74.2709 173.169C74.8097 173.299 75.297 173.468 75.7378 173.68L74.5779 176.317C74.2749 176.194 73.9603 176.086 73.6351 175.988C73.3097 175.888 72.9124 175.839 72.4424 175.839C71.3198 175.839 70.4323 176.226 69.7718 176.998C69.1138 177.769 68.7825 178.808 68.7825 180.112C68.7825 180.884 68.9491 181.509 69.2836 181.987C69.6164 182.464 70.2311 182.702 71.1237 182.702C71.5642 182.702 71.9892 182.656 72.3964 182.566C72.8066 182.475 73.1688 182.361 73.4878 182.226L73.739 184.929C73.3136 185.094 72.8445 185.243 72.3299 185.374C71.8142 185.5 71.2002 185.565 70.4884 185.565C69.5487 185.565 68.7533 185.428 68.1026 185.157C67.4517 184.882 66.9138 184.517 66.4901 184.054C66.0642 183.591 65.7584 183.05 65.5693 182.428C65.3802 181.808 65.2836 181.156 65.2836 180.475Z" fill="white"/>
<path d="M80.2242 185.565C79.4215 185.565 78.7242 185.443 78.1328 185.201C77.543 184.958 77.0545 184.619 76.6681 184.178C76.2812 183.74 75.9917 183.221 75.7933 182.622C75.5949 182.024 75.4995 181.361 75.4995 180.636C75.4995 179.725 75.6457 178.815 75.9411 177.907C76.2352 176.998 76.6715 176.18 77.2489 175.454C77.8219 174.726 78.5287 174.131 79.3609 173.668C80.1922 173.207 81.1485 172.975 82.2225 172.975C83.0107 172.975 83.7043 173.098 84.3039 173.34C84.9007 173.581 85.3923 173.924 85.7809 174.362C86.1653 174.803 86.4573 175.32 86.6537 175.919C86.8515 176.516 86.9492 177.18 86.9492 177.907C86.9492 178.815 86.805 179.725 86.5188 180.635C86.2323 181.541 85.8072 182.361 85.2461 183.089C84.686 183.815 83.9857 184.41 83.1445 184.871C82.3045 185.333 81.3303 185.565 80.2242 185.565ZM81.9052 175.84C81.4066 175.84 80.9658 175.984 80.5884 176.27C80.2096 176.56 79.8914 176.923 79.635 177.362C79.3757 177.802 79.1835 178.283 79.0536 178.805C78.9248 179.328 78.8617 179.823 78.8617 180.293C78.8617 181.051 78.9841 181.642 79.2245 182.067C79.4683 182.49 79.9063 182.702 80.543 182.702C81.0432 182.702 81.4818 182.559 81.8614 182.27C82.238 181.983 82.5564 181.619 82.8148 181.179C83.0724 180.741 83.2663 180.259 83.3962 179.736C83.5233 179.215 83.5881 178.717 83.5881 178.248C83.5881 177.492 83.4663 176.9 83.2236 176.475C82.9812 176.052 82.5413 175.84 81.9052 175.84Z" fill="white"/>
<path d="M90.6141 185.248H87.248L90.0883 173.296H93.4763L90.6141 185.248ZM92.2482 171.84C91.7791 171.84 91.3537 171.7 90.9766 171.42C90.5978 171.142 90.4076 170.713 90.4076 170.136C90.4076 169.818 90.473 169.52 90.6012 169.239C90.7294 168.959 90.9003 168.717 91.113 168.512C91.3243 168.308 91.5726 168.145 91.8515 168.023C92.1309 167.902 92.43 167.842 92.7476 167.842C93.2179 167.842 93.6427 167.981 94.0209 168.261C94.3994 168.543 94.5905 168.971 94.5905 169.546C94.5905 169.864 94.5226 170.163 94.3955 170.444C94.2684 170.725 94.0975 170.966 93.8857 171.171C93.6725 171.375 93.4272 171.538 93.1478 171.659C92.8661 171.782 92.5675 171.84 92.2482 171.84Z" fill="white"/>
<path d="M95.9004 173.84C96.1557 173.765 96.4408 173.675 96.7508 173.577C97.062 173.48 97.4096 173.389 97.798 173.307C98.1821 173.223 98.6156 173.154 99.0923 173.101C99.569 173.047 100.112 173.021 100.716 173.021C102.49 173.021 103.712 173.537 104.387 174.567C105.062 175.597 105.179 177.007 104.741 178.793L103.194 185.247H99.8083L101.308 178.929C101.399 178.535 101.471 178.153 101.524 177.781C101.578 177.412 101.575 177.086 101.512 176.804C101.452 176.526 101.311 176.298 101.093 176.122C100.871 175.948 100.536 175.861 100.081 175.861C99.6422 175.861 99.1961 175.908 98.7407 175.999L96.5362 185.247H93.1493L95.9004 173.84Z" fill="white"/>
<rect x="1" y="457" width="242.434" height="102" rx="8" fill="#006CCC"/>
<path d="M30.2681 537.4C32.3935 537.4 34.4741 536.9 35.4062 536.371L34.668 534.208C33.87 534.536 32.1548 534.969 30.4396 534.969C25.5774 534.969 22.9375 532.388 22.9226 527.675C22.9375 523.41 25.3686 520.196 30.3278 520.196C33.9148 520.196 37.2482 521.911 37.2408 526.594C37.2482 529.51 36.7113 530.837 35.6822 530.837C35.1676 530.837 34.8544 530.45 34.8469 529.756L34.8469 522.478L32.5128 522.478L32.5128 523.313L32.4084 523.313C32.1548 522.657 30.5739 522.038 28.896 522.291C26.9048 522.582 24.7571 524.215 24.7422 527.675C24.7571 531.188 26.7557 532.985 29.1122 533.112C30.805 533.209 32.3263 532.5 32.6768 531.598L32.7663 531.598C32.9304 532.627 33.6165 533.328 35.3466 533.201C38.5682 533.022 39.7986 530.427 39.7912 526.766C39.7986 521.463 36.2937 517.794 30.3651 517.794C23.9517 517.794 20.2752 521.769 20.2678 527.765C20.2752 533.858 23.9219 537.4 30.2681 537.4ZM29.9251 530.658C27.9787 530.658 27.3224 529.167 27.315 527.586C27.3224 525.886 28.2546 524.775 29.9102 524.775C31.7969 524.775 32.3636 525.774 32.3711 527.564C32.3935 529.592 31.7521 530.658 29.9251 530.658ZM44.5956 533L45.7291 529.517L51.2401 529.517L52.3737 533L55.8339 533L50.569 517.727L46.4078 517.727L41.1354 533L44.5956 533ZM46.5494 526.997L48.4287 521.217L48.548 521.217L50.4273 526.997L46.5494 526.997ZM60.7893 517.727L57.6125 517.727L57.6125 533L60.7893 533L60.7893 517.727ZM63.3342 533L66.511 533L66.511 521.545L63.3342 521.545L63.3342 533ZM64.93 520.069C65.8771 520.069 66.6527 519.346 66.6527 518.458C66.6527 517.578 65.8771 516.855 64.93 516.855C63.9904 516.855 63.2148 517.578 63.2148 518.458C63.2148 519.346 63.9904 520.069 64.93 520.069ZM74.2313 533.224C77.2813 533.224 79.1979 531.434 79.347 528.802L76.3492 528.802C76.1627 530.025 75.3573 530.711 74.2686 530.711C72.7845 530.711 71.8225 529.465 71.8225 527.273C71.8225 525.11 72.792 523.872 74.2686 523.872C75.4319 523.872 76.1776 524.64 76.3492 525.781L79.347 525.781C79.2128 523.134 77.2068 521.396 74.2164 521.396C70.7412 521.396 68.5935 523.805 68.5935 527.317C68.5935 530.8 70.7039 533.224 74.2313 533.224ZM86.6012 533.224C89.435 533.224 91.3441 531.844 91.7915 529.719L88.8533 529.525C88.5327 530.397 87.7124 530.852 86.6534 530.852C85.065 530.852 84.0582 529.801 84.0582 528.093L84.0582 528.086L91.8587 528.086L91.8587 527.213C91.8587 523.32 89.5021 521.396 86.4744 521.396C83.1037 521.396 80.9187 523.79 80.9187 527.325C80.9187 530.957 83.0739 533.224 86.6012 533.224ZM84.0582 526.117C84.1254 524.812 85.1172 523.768 86.5266 523.768C87.9062 523.768 88.8608 524.752 88.8683 526.117L84.0582 526.117ZM93.9915 533L97.2205 533L97.2205 528.66L98.8089 526.721L102.993 533L106.855 533L101.121 524.566L106.788 517.727L102.918 517.727L97.4219 524.461L97.2205 524.461L97.2205 517.727L93.9915 517.727L93.9915 533ZM114.369 533.336C118.209 533.336 120.529 530.412 120.536 525.379C120.544 520.382 118.194 517.518 114.369 517.518C110.536 517.518 108.209 520.375 108.202 525.379C108.187 530.397 110.521 533.328 114.369 533.336ZM114.369 530.658C112.616 530.658 111.483 528.898 111.49 525.379C111.498 521.911 112.624 520.166 114.369 520.166C116.106 520.166 117.24 521.911 117.24 525.379C117.247 528.898 116.114 530.658 114.369 530.658ZM122.839 533L133.726 533L133.726 530.36L127.313 530.36L127.313 530.256L129.543 528.071C132.682 525.207 133.525 523.775 133.525 522.038C133.525 519.39 131.362 517.518 128.089 517.518C124.882 517.518 122.682 519.435 122.689 522.433L125.754 522.433C125.747 520.971 126.672 520.076 128.066 520.076C129.408 520.076 130.408 520.912 130.408 522.254C130.408 523.469 129.662 524.305 128.275 525.64L122.839 530.673L122.839 533ZM141.711 533.209C145.142 533.209 147.595 531.322 147.588 528.712C147.595 526.81 146.387 525.453 144.142 525.17L144.142 525.05C145.85 524.745 147.028 523.537 147.021 521.821C147.028 519.413 144.918 517.518 141.756 517.518C138.624 517.518 136.267 519.353 136.223 521.993L139.317 521.993C139.355 520.83 140.421 520.076 141.741 520.076C143.046 520.076 143.919 520.867 143.911 522.015C143.919 523.216 142.897 524.029 141.428 524.029L140.004 524.029L140.004 526.4L141.428 526.4C143.158 526.4 144.239 527.265 144.232 528.496C144.239 529.711 143.195 530.547 141.719 530.547C140.294 530.547 139.228 529.801 139.168 528.682L135.917 528.682C135.969 531.352 138.355 533.209 141.711 533.209ZM149.678 530.315L157.008 530.315L157.008 533L160.096 533L160.096 530.315L161.99 530.315L161.99 527.728L160.096 527.728L160.096 517.727L156.054 517.727L149.678 527.772L149.678 530.315ZM157.068 527.728L152.929 527.728L152.929 527.608L156.949 521.247L157.068 521.247L157.068 527.728Z" fill="white"/>
<defs>
<linearGradient id="home-id-paint0" x1="378.508" y1="335.805" x2="486.559" y2="368.627" gradientUnits="userSpaceOnUse">
<stop stop-color="#B0FF33"/>
<stop offset="0.494792" stop-color="#55DF20"/>
<stop offset="1" stop-color="#0AC222"/>
</linearGradient>
<linearGradient id="home-id-paint1" x1="495.435" y1="294.201" x2="442.614" y2="493.296" gradientUnits="userSpaceOnUse">
<stop stop-color="#0044FF"/>
<stop offset="0.489583" stop-color="#0087FF"/>
<stop offset="1" stop-color="#00CAFF"/>
</linearGradient>
<linearGradient id="home-id-paint2" x1="-328.177" y1="194.034" x2="-262.566" y2="446.553" gradientUnits="userSpaceOnUse">
<stop stop-color="#0AC222"/>
<stop offset="0.494792" stop-color="#55DF20"/>
<stop offset="1" stop-color="#B0FF33"/>
</linearGradient>
<linearGradient id="home-id-paint3" x1="721.967" y1="304.466" x2="504.502" y2="498.576" gradientUnits="userSpaceOnUse">
<stop stop-color="#FF8100"/>
<stop offset="0.0001" stop-color="#FF8100"/>
<stop offset="0.5" stop-color="#FF5D00"/>
<stop offset="1" stop-color="#FF3600"/>
</linearGradient>
<linearGradient id="home-id-paint4" x1="865" y1="304.44" x2="690.959" y2="304.441" gradientUnits="userSpaceOnUse">
<stop offset="0.0242741" stop-color="#FF5D00"/>
<stop offset="0.369792" stop-color="#A803FC"/>
<stop offset="0.6875" stop-color="#0990E8"/>
<stop offset="0.988939" stop-color="#55DF20"/>
</linearGradient>
<linearGradient id="home-id-paint5" x1="675.487" y1="295.467" x2="662.933" y2="380.634" gradientUnits="userSpaceOnUse">
<stop stop-color="#C906F9"/>
<stop offset="0.494792" stop-color="#A803FC"/>
<stop offset="1" stop-color="#8700FF"/>
</linearGradient>
<linearGradient id="home-id-paint6" x1="244.849" y1="513.252" x2="699.318" y2="502.389" gradientUnits="userSpaceOnUse">
<stop stop-color="#0044FF"/>
<stop offset="0.489583" stop-color="#0087FF"/>
<stop offset="1" stop-color="#00CAFF"/>
</linearGradient>
<linearGradient id="home-id-paint7" x1="572.476" y1="350.484" x2="755.217" y2="307.098" gradientUnits="userSpaceOnUse">
<stop stop-color="#FF8100"/>
<stop offset="0.0001" stop-color="#FF8100"/>
<stop offset="0.5" stop-color="#FF5D00"/>
<stop offset="1" stop-color="#FF3600"/>
</linearGradient>
<linearGradient id="home-id-paint8" x1="844.807" y1="208.164" x2="627.665" y2="355.601" gradientUnits="userSpaceOnUse">
<stop stop-color="#C906F9"/>
<stop offset="0.448312" stop-color="#A803FC"/>
<stop offset="0.862484" stop-color="#8700FF"/>
</linearGradient>
<linearGradient id="home-id-paint9" x1="858" y1="305.562" x2="1178.07" y2="305.562" gradientUnits="userSpaceOnUse">
<stop offset="0.0242741" stop-color="#FF5D00"/>
<stop offset="0.369792" stop-color="#A803FC"/>
<stop offset="0.6875" stop-color="#0990E8"/>
<stop offset="0.988939" stop-color="#55DF20"/>
</linearGradient>
</defs>
</svg>
