<svg viewBox="0 0 1515 516" fill="none" xmlns="http://www.w3.org/2000/svg">
<path d="M862.616 379.383H870.073C873.994 379.383 876.082 377.337 876.082 374.559C876.082 371.977 874.232 370.417 872.246 370.323V370.153C874.062 369.744 875.4 368.457 875.4 366.403C875.4 363.786 873.457 361.928 869.604 361.928H862.616V379.383ZM866.306 376.366V371.73H869.4C871.173 371.73 872.272 372.752 872.272 374.193C872.272 375.505 871.377 376.366 869.315 376.366H866.306ZM866.306 369.232V364.911H869.11C870.746 364.911 871.675 365.755 871.675 367.016C871.675 368.397 870.55 369.232 869.042 369.232H866.306ZM878.415 379.383H882.045V371.977C882.045 370.366 883.222 369.258 884.824 369.258C885.327 369.258 886.017 369.343 886.358 369.454V366.232C886.034 366.156 885.582 366.105 885.216 366.105C883.75 366.105 882.548 366.957 882.071 368.576H881.935V366.292H878.415V379.383ZM891.593 379.63C893.528 379.63 894.781 378.786 895.42 377.568H895.522V379.383H898.965V370.553C898.965 367.434 896.323 366.122 893.408 366.122C890.272 366.122 888.209 367.622 887.707 370.008L891.065 370.281C891.312 369.411 892.087 368.772 893.391 368.772C894.627 368.772 895.334 369.394 895.334 370.468V370.519C895.334 371.363 894.44 371.474 892.164 371.695C889.573 371.934 887.246 372.803 887.246 375.727C887.246 378.318 889.096 379.63 891.593 379.63ZM892.633 377.124C891.516 377.124 890.715 376.605 890.715 375.607C890.715 374.585 891.559 374.082 892.837 373.903C893.63 373.792 894.925 373.605 895.36 373.315V374.704C895.36 376.076 894.227 377.124 892.633 377.124ZM913.518 366.292H909.674L906.964 375.659H906.827L904.109 366.292H900.273L904.85 379.383H908.941L913.518 366.292ZM920.896 379.639C924.135 379.639 926.317 378.062 926.828 375.633L923.47 375.411C923.104 376.409 922.166 376.928 920.956 376.928C919.141 376.928 917.99 375.727 917.99 373.775V373.766H926.905V372.769C926.905 368.32 924.212 366.122 920.751 366.122C916.899 366.122 914.402 368.857 914.402 372.897C914.402 377.048 916.865 379.639 920.896 379.639ZM917.99 371.516C918.067 370.025 919.2 368.832 920.811 368.832C922.388 368.832 923.479 369.957 923.487 371.516H917.99Z" fill="#000E33"/>
<g filter="url(#institutions-filter0)">
<circle cx="892.372" cy="238.362" r="74.3617" fill="white"/>
<path d="M921.809 229.336L919.669 223.521L921.157 220.183C921.25 219.973 921.278 219.739 921.237 219.512C921.195 219.286 921.086 219.077 920.923 218.913L916.877 214.821C916.008 213.939 914.907 213.323 913.701 213.043C912.495 212.763 911.235 212.831 910.067 213.24L908.934 213.634L902.751 206.934L892.264 206.875H892.196L881.641 206.958L875.464 213.712L874.365 213.323C873.189 212.909 871.919 212.839 870.706 213.122C869.492 213.405 868.383 214.028 867.511 214.919L863.391 219.089C863.262 219.219 863.175 219.385 863.142 219.566C863.109 219.747 863.132 219.933 863.206 220.101L864.758 223.565L862.628 229.375L864.004 234.615L870.284 258.497C871.007 261.248 872.671 263.658 874.987 265.309C874.987 265.309 882.609 270.686 890.129 275.571C890.724 276.046 891.462 276.304 892.223 276.304C892.984 276.304 893.722 276.046 894.317 275.571C902.766 270.034 909.449 265.289 909.449 265.289C911.763 263.638 913.426 261.228 914.148 258.477L920.393 234.586L921.809 229.336Z" fill="url(#institutions-paint0)"/>
<path d="M893.946 249.913C893.546 249.734 893.133 249.584 892.71 249.466H891.966C891.544 249.584 891.131 249.734 890.731 249.913L888.858 250.692C888.265 250.94 887.311 251.383 886.742 251.665L883.298 253.461C883.174 253.501 883.064 253.578 882.983 253.681C882.903 253.785 882.855 253.91 882.846 254.041C882.837 254.172 882.868 254.302 882.933 254.416C882.999 254.529 883.098 254.62 883.216 254.677L886.207 256.789C886.733 257.159 887.559 257.811 888.046 258.249L888.887 258.974C889.374 259.392 890.167 260.088 890.648 260.516L891.446 261.222C891.692 261.427 892.003 261.54 892.324 261.54C892.645 261.54 892.955 261.427 893.202 261.222L894.038 260.492L895.799 258.954L896.645 258.215C897.132 257.791 897.954 257.139 898.479 256.755L901.471 254.614C901.589 254.557 901.687 254.466 901.753 254.352C901.819 254.238 901.848 254.107 901.838 253.976C901.828 253.846 901.779 253.721 901.697 253.618C901.615 253.516 901.504 253.44 901.378 253.402L897.939 251.655C897.365 251.363 896.412 250.925 895.814 250.682L893.946 249.913Z" fill="white"/>
<path d="M915.154 230.635L915.251 230.324C915.257 229.907 915.231 229.491 915.173 229.078C914.884 228.341 914.511 227.639 914.064 226.986L912.118 224.13C911.759 223.594 911.146 222.748 910.732 222.247L908.125 218.982C907.887 218.664 907.629 218.361 907.352 218.077H907.298C907.298 218.077 906.773 218.169 906.141 218.291L902.157 219.06L900.411 219.395C899.831 219.423 899.251 219.338 898.703 219.147L895.556 218.13C894.943 217.931 893.932 217.644 893.304 217.507C892.643 217.437 891.976 217.437 891.315 217.507C890.687 217.653 889.676 217.936 889.063 218.135L885.916 219.157C885.368 219.348 884.788 219.432 884.208 219.405L882.462 219.074L878.474 218.31C877.841 218.189 877.321 218.091 877.316 218.096H877.263C876.985 218.381 876.727 218.683 876.489 219.001L873.887 222.266C873.488 222.753 872.861 223.619 872.501 224.149L870.555 227.005C870.219 227.498 869.912 228.009 869.636 228.538C869.469 229.127 869.381 229.736 869.373 230.348L869.47 230.659C869.517 230.859 869.577 231.056 869.65 231.248C870.054 231.735 870.745 232.542 871.187 233.014L877.997 240.254C878.223 240.518 878.374 240.838 878.435 241.18C878.496 241.523 878.464 241.875 878.342 242.201L877.229 244.843C876.975 245.543 876.956 246.306 877.175 247.018L877.399 247.631C877.764 248.626 878.391 249.505 879.213 250.175L880.283 251.046C880.561 251.247 880.886 251.374 881.226 251.414C881.566 251.455 881.911 251.409 882.229 251.28L886.032 249.465C886.731 249.115 887.384 248.682 887.978 248.176L891.023 245.427C891.144 245.317 891.242 245.184 891.311 245.036C891.38 244.888 891.419 244.727 891.425 244.564C891.431 244.401 891.404 244.238 891.346 244.085C891.288 243.932 891.199 243.793 891.086 243.675L884.213 239.043C883.953 238.858 883.768 238.586 883.691 238.276C883.614 237.966 883.651 237.639 883.795 237.354L886.461 232.343C886.612 232.036 886.702 231.702 886.724 231.361C886.747 231.019 886.702 230.677 886.592 230.353C886.261 229.735 885.726 229.25 885.079 228.981L876.723 225.823C876.12 225.594 876.154 225.336 876.791 225.297L881.699 224.811C882.468 224.762 883.241 224.831 883.99 225.015L888.26 226.207C888.563 226.299 888.823 226.497 888.991 226.765C889.16 227.034 889.225 227.354 889.175 227.667L887.497 236.834C887.384 237.342 887.356 237.864 887.414 238.381C887.482 238.6 888.056 238.868 888.683 239.023L891.286 239.578C892.041 239.717 892.816 239.717 893.572 239.578L895.911 239.048C896.539 238.907 897.108 238.61 897.181 238.391C897.237 237.874 897.207 237.351 897.093 236.844L895.406 227.677C895.356 227.364 895.421 227.044 895.589 226.775C895.757 226.507 896.017 226.308 896.32 226.217L900.591 225.02C901.339 224.836 902.112 224.767 902.882 224.816L907.789 225.273C908.432 225.331 908.461 225.57 907.862 225.799L899.511 228.966C898.864 229.235 898.329 229.72 897.998 230.338C897.777 230.993 897.824 231.708 898.129 232.328L900.8 237.34C900.944 237.625 900.981 237.952 900.904 238.262C900.827 238.571 900.642 238.843 900.381 239.028L893.513 243.67C893.4 243.788 893.312 243.928 893.254 244.08C893.196 244.233 893.169 244.396 893.175 244.559C893.181 244.723 893.219 244.883 893.288 245.031C893.357 245.179 893.455 245.312 893.577 245.422L896.626 248.171C897.221 248.676 897.874 249.107 898.572 249.455L902.376 251.265C902.694 251.394 903.039 251.439 903.379 251.397C903.72 251.356 904.044 251.228 904.321 251.027L905.391 250.151C906.214 249.48 906.841 248.599 907.206 247.601L907.43 246.988C907.648 246.277 907.629 245.513 907.376 244.813L906.257 242.171C906.136 241.846 906.104 241.493 906.165 241.151C906.225 240.809 906.377 240.489 906.603 240.225L913.412 232.975C913.855 232.489 914.541 231.71 914.944 231.209C915.027 231.023 915.097 230.831 915.154 230.635Z" fill="white"/>
</g>
<path d="M384.937 266.188H388.687C388.21 262.736 385.167 260.307 381.221 260.307C376.61 260.307 373.056 263.631 373.056 269.29C373.056 274.812 376.38 278.239 381.298 278.239C385.704 278.239 388.849 275.452 388.849 270.858V268.659H381.545V271.438H385.295C385.244 273.602 383.769 274.974 381.315 274.974C378.545 274.974 376.798 272.903 376.798 269.256C376.798 265.625 378.613 263.571 381.281 263.571C383.181 263.571 384.468 264.551 384.937 266.188ZM397.468 278.256C401.439 278.256 403.911 275.537 403.911 271.506C403.911 267.449 401.439 264.739 397.468 264.739C393.496 264.739 391.024 267.449 391.024 271.506C391.024 275.537 393.496 278.256 397.468 278.256ZM397.485 275.443C395.652 275.443 394.715 273.764 394.715 271.48C394.715 269.196 395.652 267.509 397.485 267.509C399.283 267.509 400.22 269.196 400.22 271.48C400.22 273.764 399.283 275.443 397.485 275.443ZM406.34 278H410.03V272.341H413.132C417.147 272.341 419.482 269.946 419.482 266.46C419.482 262.991 417.189 260.545 413.226 260.545H406.34V278ZM410.03 269.384V263.562H412.519C414.649 263.562 415.681 264.722 415.681 266.46C415.681 268.19 414.649 269.384 412.536 269.384H410.03ZM425.192 278.247C427.127 278.247 428.38 277.403 429.019 276.185H429.121V278H432.564V269.17C432.564 266.051 429.922 264.739 427.007 264.739C423.871 264.739 421.809 266.239 421.306 268.625L424.664 268.898C424.911 268.028 425.686 267.389 426.99 267.389C428.226 267.389 428.934 268.011 428.934 269.085V269.136C428.934 269.98 428.039 270.091 425.763 270.312C423.172 270.551 420.845 271.42 420.845 274.344C420.845 276.935 422.695 278.247 425.192 278.247ZM426.232 275.741C425.115 275.741 424.314 275.222 424.314 274.224C424.314 273.202 425.158 272.699 426.436 272.52C427.229 272.409 428.524 272.222 428.959 271.932V273.321C428.959 274.693 427.826 275.741 426.232 275.741ZM437.154 282.884C439.855 282.884 441.296 281.511 442.029 279.415L447.117 264.926L443.273 264.909L440.537 274.523H440.401L437.691 264.909H433.872L438.568 278.375L438.355 278.929C437.844 280.114 436.966 280.199 435.688 279.798L434.87 282.517C435.389 282.73 436.233 282.884 437.154 282.884Z" fill="#000E33"/>
<g filter="url(#institutions-filter1)">
<circle cx="408" cy="159" r="60" fill="white"/>
<g clip-path="url(#institutions-clip0)">
<path d="M387.665 136.643C396.717 132.629 407.525 133.343 416.303 137.728C415.447 141.398 414.741 145.104 414.133 148.827C407.136 145.033 398.261 143.198 390.842 146.877C383.122 150.538 379.037 161.672 384.595 168.756C387.877 172.92 393.629 172.735 398.367 172.074C399.32 166.815 400.352 161.557 401.331 156.299C405.134 156.273 408.936 156.282 412.739 156.317C411.142 164.072 409.713 171.853 408.301 179.643C400.493 182.916 391.459 184.513 383.219 181.99C375.499 179.67 369.906 171.968 370.047 163.913C369.315 152.25 377.176 141.222 387.665 136.643Z" fill="#1E6891"/>
<path d="M426.473 142.783C434.131 147.239 441.709 151.826 449.305 156.379C439.565 162.245 430.002 168.403 420.447 174.561C422.547 163.983 424.541 153.388 426.473 142.783Z" fill="#1E6891"/>
</g>
</g>
<path d="M1312.87 379.383H1316.56V372.173H1323.66V369.13H1316.56V364.971H1324.42V361.928H1312.87V379.383ZM1330.47 361.928H1326.84V379.383H1330.47V361.928ZM1341.77 373.809C1341.78 375.565 1340.58 376.485 1339.27 376.485C1337.9 376.485 1337.01 375.522 1337.01 373.98V366.292H1333.38V374.627C1333.38 377.687 1335.17 379.553 1337.81 379.553C1339.78 379.553 1341.19 378.539 1341.78 377.005H1341.92V379.383H1345.4V366.292H1341.77V373.809ZM1355.27 366.292H1352.81V363.156H1349.17V366.292H1347.38V369.019H1349.17V375.837C1349.16 378.403 1350.9 379.673 1353.54 379.562C1354.48 379.528 1355.14 379.34 1355.51 379.221L1354.94 376.519C1354.76 376.553 1354.37 376.639 1354.03 376.639C1353.31 376.639 1352.81 376.366 1352.81 375.36V369.019H1355.27V366.292ZM1364.6 366.292H1362.13V363.156H1358.5V366.292H1356.71V369.019H1358.5V375.837C1358.49 378.403 1360.23 379.673 1362.87 379.562C1363.8 379.528 1364.47 379.34 1364.84 379.221L1364.26 376.519C1364.09 376.553 1363.7 376.639 1363.36 376.639C1362.64 376.639 1362.13 376.366 1362.13 375.36V369.019H1364.6V366.292ZM1372.79 379.639C1376.03 379.639 1378.21 378.062 1378.72 375.633L1375.36 375.411C1374.99 376.409 1374.06 376.928 1372.85 376.928C1371.03 376.928 1369.88 375.727 1369.88 373.775V373.766H1378.8V372.769C1378.8 368.32 1376.1 366.122 1372.64 366.122C1368.79 366.122 1366.29 368.857 1366.29 372.897C1366.29 377.048 1368.76 379.639 1372.79 379.639ZM1369.88 371.516C1369.96 370.025 1371.09 368.832 1372.7 368.832C1374.28 368.832 1375.37 369.957 1375.38 371.516H1369.88ZM1381.16 379.383H1384.8V371.977C1384.8 370.366 1385.97 369.258 1387.57 369.258C1388.08 369.258 1388.77 369.343 1389.11 369.454V366.232C1388.78 366.156 1388.33 366.105 1387.97 366.105C1386.5 366.105 1385.3 366.957 1384.82 368.576H1384.68V366.292H1381.16V379.383ZM1393.78 379.383H1397.61L1399.86 371.15H1400.03L1402.28 379.383H1406.12L1409.67 366.292H1406.01L1404.01 375.036H1403.9L1401.76 366.292H1398.15L1396.04 375.087H1395.92L1393.89 366.292H1390.22L1393.78 379.383ZM1415.34 379.63C1417.28 379.63 1418.53 378.786 1419.17 377.568H1419.27V379.383H1422.72V370.553C1422.72 367.434 1420.07 366.122 1417.16 366.122C1414.02 366.122 1411.96 367.622 1411.46 370.008L1414.81 370.281C1415.06 369.411 1415.84 368.772 1417.14 368.772C1418.38 368.772 1419.08 369.394 1419.08 370.468V370.519C1419.08 371.363 1418.19 371.474 1415.91 371.695C1413.32 371.934 1411 372.803 1411 375.727C1411 378.318 1412.85 379.63 1415.34 379.63ZM1416.38 377.124C1415.27 377.124 1414.47 376.605 1414.47 375.607C1414.47 374.585 1415.31 374.082 1416.59 373.903C1417.38 373.792 1418.68 373.605 1419.11 373.315V374.704C1419.11 376.076 1417.98 377.124 1416.38 377.124ZM1437.27 366.292H1433.42L1430.71 375.659H1430.58L1427.86 366.292H1424.02L1428.6 379.383H1432.69L1437.27 366.292ZM1444.65 379.639C1447.88 379.639 1450.07 378.062 1450.58 375.633L1447.22 375.411C1446.85 376.409 1445.92 376.928 1444.71 376.928C1442.89 376.928 1441.74 375.727 1441.74 373.775V373.766H1450.65V372.769C1450.65 368.32 1447.96 366.122 1444.5 366.122C1440.65 366.122 1438.15 368.857 1438.15 372.897C1438.15 377.048 1440.61 379.639 1444.65 379.639ZM1441.74 371.516C1441.82 370.025 1442.95 368.832 1444.56 368.832C1446.14 368.832 1447.23 369.957 1447.24 371.516H1441.74Z" fill="#000E33"/>
<g filter="url(#institutions-filter2)">
<circle cx="1379.37" cy="238.362" r="74.3617" fill="white"/>
</g>
<path d="M1382.68 209.677C1388.98 206.877 1395.94 205.345 1402.85 205.861C1405.84 206.084 1409.39 207.247 1410.41 210.4C1411.4 214.063 1409.69 217.743 1408.01 220.923C1404.82 226.494 1400.59 231.506 1395.6 235.544C1400.86 240.083 1406.13 244.86 1409.55 251.008C1411.66 254.862 1413.46 259.221 1412.95 263.705C1412.7 266.526 1410.66 268.999 1408.02 269.956C1403.23 271.788 1397.87 270.842 1393.21 269.048C1382.66 264.906 1373.64 257.188 1367.42 247.763C1365.53 247.616 1363.65 247.355 1361.78 246.98C1364.92 255.987 1366.92 265.629 1365.93 275.19C1365.23 257.52 1357 241.007 1345.93 227.543C1344.44 225.989 1344.44 223.505 1345.06 221.597C1346.67 220.836 1348.29 221.95 1349.29 223.173C1352.1 226.63 1354.16 230.598 1356.48 234.381C1357.97 230.038 1360.51 226.103 1363.69 222.809C1368.99 217.14 1375.61 212.824 1382.68 209.677ZM1391.25 211.182C1383.17 214.27 1375.94 219.466 1370.12 225.825C1372.92 225.749 1375.75 225.82 1378.47 226.608C1382.55 227.521 1386.09 229.815 1389.84 231.533C1392.27 230.337 1394.09 228.223 1396.01 226.358C1399.09 223.026 1402.21 219.509 1403.8 215.199C1404.51 213.498 1404.42 211.003 1402.43 210.247C1398.79 208.899 1394.8 210.084 1391.25 211.182ZM1368.29 230.815C1366.67 231.337 1365.7 233.12 1366.2 234.761C1366.89 236.87 1369.19 238.034 1371.31 237.968C1375.44 238.012 1379.53 236.827 1383.25 235.093C1383.05 234.196 1381.95 234 1381.29 233.522C1377.37 231.495 1372.74 229.359 1368.29 230.815ZM1389.18 240.148C1383.99 243.306 1378.38 245.795 1372.44 247.16C1377.92 253.329 1384.68 258.645 1392.59 261.27C1395.15 262.015 1398.15 262.879 1400.61 261.39C1402.6 260.161 1402.26 257.444 1401.69 255.519C1399.86 249.72 1395.72 245.024 1391.42 240.871C1390.81 240.365 1389.99 239.387 1389.18 240.148Z" fill="#F2B82D"/>
<path d="M507.51 493.383H514.967C518.888 493.383 520.976 491.337 520.976 488.559C520.976 485.977 519.127 484.417 517.141 484.323V484.153C518.956 483.744 520.294 482.457 520.294 480.403C520.294 477.786 518.351 475.928 514.499 475.928H507.51V493.383ZM511.2 490.366V485.73H514.294C516.067 485.73 517.166 486.752 517.166 488.193C517.166 489.505 516.271 490.366 514.209 490.366H511.2ZM511.2 483.232V478.911H514.004C515.641 478.911 516.57 479.755 516.57 481.016C516.57 482.397 515.445 483.232 513.936 483.232H511.2ZM526.94 475.928H523.309V493.383H526.94V475.928ZM535.763 493.639C539.735 493.639 542.206 490.92 542.206 486.889C542.206 482.832 539.735 480.122 535.763 480.122C531.791 480.122 529.32 482.832 529.32 486.889C529.32 490.92 531.791 493.639 535.763 493.639ZM535.78 490.826C533.948 490.826 533.01 489.147 533.01 486.863C533.01 484.579 533.948 482.891 535.78 482.891C537.578 482.891 538.516 484.579 538.516 486.863C538.516 489.147 537.578 490.826 535.78 490.826ZM550.482 493.639C553.967 493.639 556.158 491.593 556.328 488.585H552.902C552.689 489.982 551.769 490.766 550.524 490.766C548.828 490.766 547.729 489.343 547.729 486.837C547.729 484.366 548.837 482.951 550.524 482.951C551.854 482.951 552.706 483.829 552.902 485.133H556.328C556.175 482.107 553.882 480.122 550.465 480.122C546.493 480.122 544.038 482.874 544.038 486.889C544.038 490.869 546.45 493.639 550.482 493.639ZM558.653 493.383H562.284V489.224L563.264 488.107L566.835 493.383H571.088L565.982 485.96L570.84 480.292H566.673L562.48 485.261H562.284V475.928H558.653V493.383ZM577.997 493.639C581.483 493.639 583.673 491.593 583.844 488.585H580.418C580.205 489.982 579.284 490.766 578.04 490.766C576.344 490.766 575.244 489.343 575.244 486.837C575.244 484.366 576.352 482.951 578.04 482.951C579.369 482.951 580.222 483.829 580.418 485.133H583.844C583.69 482.107 581.398 480.122 577.98 480.122C574.009 480.122 571.554 482.874 571.554 486.889C571.554 490.869 573.966 493.639 577.997 493.639ZM589.799 485.815C589.808 484.127 590.839 483.139 592.322 483.139C593.796 483.139 594.666 484.085 594.657 485.695V493.383H598.288V485.048C598.296 481.98 596.489 480.122 593.762 480.122C591.776 480.122 590.447 481.059 589.85 482.602H589.697V475.928H586.168V493.383H589.799V485.815ZM604.878 493.63C606.813 493.63 608.065 492.786 608.705 491.568H608.807V493.383H612.25V484.553C612.25 481.434 609.608 480.122 606.693 480.122C603.557 480.122 601.494 481.622 600.992 484.008L604.35 484.281C604.597 483.411 605.372 482.772 606.676 482.772C607.912 482.772 608.619 483.394 608.619 484.468V484.519C608.619 485.363 607.725 485.474 605.449 485.695C602.858 485.934 600.531 486.803 600.531 489.727C600.531 492.318 602.381 493.63 604.878 493.63ZM605.918 491.124C604.801 491.124 604 490.605 604 489.607C604 488.585 604.844 488.082 606.122 487.903C606.915 487.792 608.21 487.605 608.645 487.315V488.704C608.645 490.076 607.512 491.124 605.918 491.124ZM615.067 493.383H618.698V480.292H615.067V493.383ZM616.891 478.605C617.973 478.605 618.86 477.778 618.86 476.764C618.86 475.758 617.973 474.931 616.891 474.931C615.817 474.931 614.931 475.758 614.931 476.764C614.931 477.778 615.817 478.605 616.891 478.605ZM625.237 485.815C625.245 484.127 626.251 483.139 627.717 483.139C629.174 483.139 630.052 484.093 630.043 485.695V493.383H633.674V485.048C633.674 481.997 631.884 480.122 629.157 480.122C627.214 480.122 625.808 481.076 625.22 482.602H625.066V480.292H621.606V493.383H625.237V485.815ZM638.658 493.605C639.749 493.605 640.695 492.693 640.703 491.559C640.695 490.443 639.749 489.531 638.658 489.531C637.533 489.531 636.604 490.443 636.612 491.559C636.604 492.693 637.533 493.605 638.658 493.605ZM649.599 493.639C653.085 493.639 655.275 491.593 655.445 488.585H652.019C651.806 489.982 650.886 490.766 649.641 490.766C647.945 490.766 646.846 489.343 646.846 486.837C646.846 484.366 647.954 482.951 649.641 482.951C650.971 482.951 651.823 483.829 652.019 485.133H655.445C655.292 482.107 652.999 480.122 649.582 480.122C645.61 480.122 643.156 482.874 643.156 486.889C643.156 490.869 645.568 493.639 649.599 493.639ZM663.685 493.639C667.656 493.639 670.128 490.92 670.128 486.889C670.128 482.832 667.656 480.122 663.685 480.122C659.713 480.122 657.242 482.832 657.242 486.889C657.242 490.92 659.713 493.639 663.685 493.639ZM663.702 490.826C661.869 490.826 660.932 489.147 660.932 486.863C660.932 484.579 661.869 482.891 663.702 482.891C665.5 482.891 666.438 484.579 666.438 486.863C666.438 489.147 665.5 490.826 663.702 490.826ZM672.489 493.383H676.119V485.525C676.119 484.076 677.04 483.113 678.25 483.113C679.443 483.113 680.244 483.931 680.244 485.218V493.383H683.764V485.389C683.764 484.034 684.54 483.113 685.861 483.113C687.02 483.113 687.889 483.837 687.889 485.295V493.383H691.512V484.579C691.512 481.741 689.824 480.122 687.387 480.122C685.469 480.122 683.977 481.102 683.44 482.602H683.304C682.887 481.085 681.548 480.122 679.75 480.122C677.986 480.122 676.648 481.059 676.102 482.602H675.949V480.292H672.489V493.383Z" fill="#000E33"/>
<g filter="url(#institutions-filter3)">
<circle cx="597.372" cy="352.362" r="74.3617" fill="white"/>
</g>
<path d="M563.845 341.073L560.195 344.723C559.185 345.694 558.381 346.858 557.832 348.147C557.283 349.436 557 350.822 557 352.223C557 353.624 557.283 355.011 557.832 356.299C558.381 357.588 559.185 358.753 560.195 359.723L589.6 389.418C590.297 390.131 591.108 390.723 592 391.168V355.173L563.845 341.073Z" fill="#3D89F5"/>
<path d="M630.155 341.073L633.805 344.723C634.815 345.694 635.619 346.858 636.168 348.147C636.717 349.436 637 350.822 637 352.223C637 353.624 636.717 355.011 636.168 356.299C635.619 357.588 634.815 358.753 633.805 359.723L604.4 389.418C603.703 390.131 602.892 390.723 602 391.168V355.173L630.155 341.073Z" fill="#1656B9"/>
<path d="M623.095 333.623L604.695 315.173C603.721 314.169 602.555 313.371 601.267 312.826C599.979 312.281 598.594 312 597.195 312C595.796 312 594.412 312.281 593.123 312.826C591.835 313.371 590.669 314.169 589.695 315.173L571.245 333.623L597.095 346.523L623.095 333.623Z" fill="#85B5F8"/>
<path d="M103.303 245.383H106.994V238.173H114.485V245.383H118.167V227.928H114.485V235.13H106.994V227.928H103.303V245.383ZM129.536 239.809C129.545 241.565 128.343 242.485 127.039 242.485C125.667 242.485 124.78 241.522 124.772 239.98V232.292H121.141V240.627C121.15 243.687 122.94 245.553 125.573 245.553C127.542 245.553 128.957 244.539 129.545 243.005H129.681V245.383H133.167V232.292H129.536V239.809ZM141.986 245.639C145.957 245.639 148.429 242.92 148.429 238.889C148.429 234.832 145.957 232.122 141.986 232.122C138.014 232.122 135.543 234.832 135.543 238.889C135.543 242.92 138.014 245.639 141.986 245.639ZM142.003 242.826C140.17 242.826 139.233 241.147 139.233 238.863C139.233 236.579 140.17 234.891 142.003 234.891C143.801 234.891 144.739 236.579 144.739 238.863C144.739 241.147 143.801 242.826 142.003 242.826ZM150.858 245.383H154.437V243.286H154.599C155.102 244.377 156.202 245.596 158.315 245.596C161.298 245.596 163.625 243.235 163.625 238.855C163.625 234.355 161.196 232.122 158.324 232.122C156.133 232.122 155.085 233.426 154.599 234.491H154.489V227.928H150.858V245.383ZM154.412 238.837C154.412 236.502 155.4 235.011 157.165 235.011C158.963 235.011 159.918 236.57 159.918 238.837C159.918 241.122 158.946 242.707 157.165 242.707C155.418 242.707 154.412 241.173 154.412 238.837ZM166.047 245.383H169.678V232.292H166.047V245.383ZM167.871 230.605C168.954 230.605 169.84 229.778 169.84 228.764C169.84 227.758 168.954 226.931 167.871 226.931C166.797 226.931 165.911 227.758 165.911 228.764C165.911 229.778 166.797 230.605 167.871 230.605Z" fill="#000E33"/>
<g filter="url(#institutions-filter4)">
<circle cx="134.372" cy="104.362" r="74.3617" fill="white"/>
</g>
<g clip-path="url(#institutions-clip1)">
<path d="M119.707 94.6041V104.343H110.022V95.866C110.022 95.5314 109.889 95.2104 109.653 94.9737C109.416 94.7371 109.095 94.6041 108.76 94.6041H105.497V117.914C105.497 118.249 105.63 118.571 105.867 118.808C106.104 119.046 106.426 119.179 106.761 119.179H110.025V108.3H119.704V117.914C119.704 118.249 119.837 118.57 120.074 118.807C120.31 119.044 120.631 119.178 120.966 119.179H124.23V95.866C124.229 95.5311 124.095 95.2101 123.858 94.9736C123.621 94.737 123.3 94.6041 122.965 94.6041H119.707Z" fill="#1B2143"/>
<path d="M138.915 100.696V112.391C138.92 112.914 138.788 113.429 138.532 113.885C138.276 114.342 137.904 114.723 137.455 114.99C134.89 116.473 132.236 114.621 132.236 112.178V101.961C132.236 101.794 132.203 101.629 132.139 101.475C132.075 101.321 131.981 101.181 131.862 101.064C131.744 100.946 131.604 100.853 131.449 100.79C131.295 100.727 131.13 100.695 130.963 100.696H127.699V112.584C127.704 114.426 128.438 116.191 129.741 117.493C131.043 118.796 132.809 119.53 134.651 119.535H136.511C138.355 119.532 140.123 118.799 141.428 117.496C142.733 116.192 143.468 114.425 143.473 112.581V101.961C143.473 101.625 143.34 101.304 143.103 101.066C142.866 100.829 142.544 100.696 142.209 100.696H138.915Z" fill="#1B2143"/>
<path d="M188.467 119.179H191.731V102.635C191.731 102.3 191.598 101.979 191.361 101.743C191.124 101.506 190.803 101.373 190.469 101.373H187.205V117.914C187.205 118.249 187.338 118.57 187.575 118.807C187.811 119.044 188.132 119.178 188.467 119.179Z" fill="#2CA6E0"/>
<path d="M189.47 99.6273C190.867 99.6273 192 98.4949 192 97.098C192 95.7011 190.867 94.5687 189.47 94.5687C188.074 94.5687 186.941 95.7011 186.941 97.098C186.941 98.4949 188.074 99.6273 189.47 99.6273Z" fill="#2CA6E0"/>
<path d="M155.168 100.685C150.416 100.685 146.53 104.085 146.53 108.844V111.414C146.53 116.165 150.416 119.543 155.168 119.543C159.919 119.543 163.808 116.165 163.808 111.414V108.836C163.805 104.085 159.916 100.685 155.168 100.685ZM159.247 111.713C159.247 113.96 157.409 115.458 155.168 115.458C152.927 115.458 151.088 113.96 151.088 111.713V108.507C151.088 106.26 152.927 104.765 155.168 104.765C157.409 104.765 159.247 106.26 159.247 108.507V111.713Z" fill="#1B2143"/>
<path d="M175.511 100.685C174.087 100.68 172.681 101.001 171.401 101.624V95.8906C171.401 95.5559 171.268 95.2349 171.032 94.9983C170.795 94.7616 170.474 94.6287 170.139 94.6287H166.862V111.414C166.862 116.165 170.751 119.543 175.503 119.543C180.254 119.543 184.14 116.165 184.14 111.414V108.836C184.148 104.085 180.262 100.685 175.511 100.685ZM179.59 111.713C179.59 113.96 177.752 115.458 175.511 115.458C173.27 115.458 171.431 113.96 171.431 111.713V108.507C171.431 106.26 173.27 104.765 175.511 104.765C177.752 104.765 179.59 106.26 179.59 108.507V111.713Z" fill="#2CA6E0"/>
<path d="M91.7784 96.622C91.7784 91.6669 89.3634 87.4079 87.5276 86.0155C87.5276 86.0155 87.3862 85.9366 87.3998 86.1351C87.2448 95.711 82.3576 98.3028 79.6706 101.795C73.4698 109.856 79.2355 118.692 85.1099 120.326C88.3952 121.24 84.3511 118.695 83.8317 113.361C83.198 106.902 91.7784 101.972 91.7784 96.622Z" fill="#1B2143"/>
<path d="M94.5935 99.8775C94.5845 99.8688 94.5736 99.8624 94.5618 99.8586C94.5498 99.8548 94.5373 99.8538 94.5248 99.8556C94.5125 99.8575 94.5008 99.8621 94.4905 99.8692C94.4802 99.8763 94.4717 99.8856 94.4656 99.8966C94.365 101.101 93.1358 103.677 91.5774 106.043C86.2877 114.066 89.3011 117.941 90.9846 120.008C91.9691 121.216 90.9846 120.008 93.4458 118.776C94.9443 117.87 96.2064 116.621 97.1288 115.132C98.0511 113.644 98.6073 111.957 98.7518 110.212C98.9124 108.285 98.62 106.346 97.898 104.552C97.1761 102.757 96.0443 101.157 94.5935 99.8775Z" fill="#2CA6E0"/>
</g>
<path d="M1104.87 234.039C1104.38 230.008 1101.33 227.69 1097.29 227.69C1092.68 227.69 1089.16 230.945 1089.16 236.656C1089.16 242.349 1092.62 245.622 1097.29 245.622C1101.77 245.622 1104.47 242.647 1104.87 239.434L1101.13 239.417C1100.79 241.284 1099.32 242.357 1097.35 242.357C1094.7 242.357 1092.9 240.389 1092.9 236.656C1092.9 233.025 1094.67 230.954 1097.38 230.954C1099.4 230.954 1100.85 232.122 1101.13 234.039H1104.87ZM1113.36 245.639C1117.33 245.639 1119.8 242.92 1119.8 238.889C1119.8 234.832 1117.33 232.122 1113.36 232.122C1109.39 232.122 1106.92 234.832 1106.92 238.889C1106.92 242.92 1109.39 245.639 1113.36 245.639ZM1113.38 242.826C1111.55 242.826 1110.61 241.147 1110.61 238.863C1110.61 236.579 1111.55 234.891 1113.38 234.891C1115.18 234.891 1116.11 236.579 1116.11 238.863C1116.11 241.147 1115.18 242.826 1113.38 242.826ZM1122.16 245.383H1125.8V232.292H1122.16V245.383ZM1123.99 230.605C1125.07 230.605 1125.96 229.778 1125.96 228.764C1125.96 227.758 1125.07 226.931 1123.99 226.931C1122.91 226.931 1122.03 227.758 1122.03 228.764C1122.03 229.778 1122.91 230.605 1123.99 230.605ZM1132.33 237.815C1132.34 236.127 1133.35 235.139 1134.81 235.139C1136.27 235.139 1137.15 236.093 1137.14 237.695V245.383H1140.77V237.048C1140.77 233.997 1138.98 232.122 1136.25 232.122C1134.31 232.122 1132.91 233.076 1132.32 234.602H1132.16V232.292H1128.7V245.383H1132.33V237.815ZM1154.53 236.025C1154.2 233.613 1152.26 232.122 1148.95 232.122C1145.6 232.122 1143.39 233.673 1143.4 236.195C1143.39 238.156 1144.63 239.426 1147.19 239.937L1149.45 240.389C1150.6 240.619 1151.12 241.036 1151.13 241.693C1151.12 242.468 1150.27 243.022 1149 243.022C1147.71 243.022 1146.85 242.468 1146.62 241.403L1143.05 241.59C1143.39 244.096 1145.53 245.639 1148.99 245.639C1152.39 245.639 1154.82 243.909 1154.82 241.326C1154.82 239.434 1153.58 238.301 1151.04 237.781L1148.67 237.303C1147.45 237.039 1147 236.622 1147.01 235.991C1147 235.207 1147.89 234.695 1149.01 234.695C1150.27 234.695 1151.02 235.386 1151.2 236.23L1154.53 236.025ZM1159.23 245.605C1160.32 245.605 1161.27 244.693 1161.28 243.559C1161.27 242.443 1160.32 241.531 1159.23 241.531C1158.11 241.531 1157.18 242.443 1157.19 243.559C1157.18 244.693 1158.11 245.605 1159.23 245.605ZM1164.26 250.292H1167.89V243.286H1168C1168.5 244.377 1169.6 245.596 1171.72 245.596C1174.7 245.596 1177.03 243.235 1177.03 238.855C1177.03 234.355 1174.6 232.122 1171.72 232.122C1169.53 232.122 1168.49 233.426 1168 234.491H1167.84V232.292H1164.26V250.292ZM1167.81 238.837C1167.81 236.502 1168.8 235.011 1170.57 235.011C1172.36 235.011 1173.32 236.57 1173.32 238.837C1173.32 241.122 1172.35 242.707 1170.57 242.707C1168.82 242.707 1167.81 241.173 1167.81 238.837ZM1183.08 237.815C1183.09 236.127 1184.12 235.139 1185.6 235.139C1187.07 235.139 1187.94 236.085 1187.93 237.695V245.383H1191.57V237.048C1191.57 233.98 1189.77 232.122 1187.04 232.122C1185.05 232.122 1183.72 233.059 1183.13 234.602H1182.97V227.928H1179.45V245.383H1183.08V237.815Z" fill="#000E33"/>
<g filter="url(#institutions-filter5)">
<circle cx="1137.13" cy="104.362" r="74.3617" fill="white"/>
</g>
<path d="M1122.69 93.3037C1125.74 88.7618 1130.77 85.6118 1136.2 84.9172C1143.17 83.8346 1150.66 86.83 1154.81 92.5521C1153.21 94.0336 1151.57 95.4607 1149.95 96.9231C1148.07 94.3808 1145.59 92.1424 1142.48 91.2824C1138.19 90.094 1133.22 91.2281 1130.07 94.4351C1127.65 96.8987 1126.09 100.298 1126.21 103.79C1126.09 107.57 1127.45 111.463 1130.19 114.114C1132.48 116.39 1135.63 117.891 1138.88 117.858C1142.05 117.959 1145.18 116.686 1147.57 114.643C1148.8 113.615 1149.67 112.266 1150.55 110.95C1152.26 112.234 1154.05 113.436 1155.64 114.866C1152.7 119.394 1147.9 122.682 1142.57 123.664C1134.17 125.36 1124.96 120.694 1121.31 112.947C1118.3 106.756 1118.74 98.9852 1122.69 93.3037Z" fill="white"/>
<path d="M1134.67 69.7829C1136.88 69.6119 1139.1 69.6445 1141.32 69.7259C1149.6 70.3635 1157.58 74.1864 1163.33 80.169C1168.47 85.4164 1171.86 92.3649 1172.82 99.6526C1173.96 107.48 1172.21 115.679 1168.09 122.422C1162.55 131.601 1152.57 137.998 1141.86 138.943C1138.53 139.135 1135.15 139.165 1131.87 138.525C1123.84 137.035 1116.44 132.553 1111.32 126.201C1106.99 120.845 1104.26 114.187 1103.73 107.312C1103.65 105.329 1103.65 103.343 1103.74 101.359C1104.38 93.2738 1108.04 85.4951 1113.79 79.7783C1119.34 74.1973 1126.84 70.5914 1134.67 69.7829ZM1135.22 73.8853C1128.48 74.5853 1121.98 77.5616 1117.13 82.307C1111.25 87.9017 1107.76 95.9409 1107.77 104.067C1107.66 109.724 1109.24 115.381 1112.16 120.216C1116.41 127.289 1123.63 132.501 1131.69 134.257C1137.94 135.616 1144.63 135.046 1150.51 132.493C1157.94 129.316 1163.98 123.073 1166.9 115.541C1169.02 110.212 1169.47 104.281 1168.46 98.6568C1166.81 89.5405 1160.72 81.3818 1152.47 77.1682C1147.21 74.3899 1141.13 73.3182 1135.22 73.8853Z" fill="#EBA231"/>
<path d="M1135.22 73.8853C1141.13 73.3183 1147.21 74.39 1152.47 77.1683C1160.72 81.3819 1166.81 89.5405 1168.46 98.6569C1169.47 104.281 1169.02 110.212 1166.9 115.541C1163.98 123.073 1157.94 129.316 1150.51 132.493C1144.63 135.046 1137.94 135.616 1131.69 134.257C1123.63 132.501 1116.41 127.289 1112.16 120.216C1109.24 115.381 1107.66 109.724 1107.77 104.067C1107.76 95.941 1111.25 87.9018 1117.13 82.3071C1121.98 77.5617 1128.48 74.5853 1135.22 73.8853ZM1122.69 93.3038C1118.74 98.9852 1118.3 106.756 1121.31 112.947C1124.96 120.694 1134.18 125.36 1142.58 123.665C1147.9 122.682 1152.7 119.394 1155.64 114.866C1154.05 113.436 1152.26 112.234 1150.55 110.95C1149.67 112.266 1148.8 113.615 1147.57 114.643C1145.18 116.686 1142.05 117.959 1138.88 117.858C1135.63 117.891 1132.48 116.39 1130.19 114.114C1127.45 111.463 1126.09 107.57 1126.21 103.79C1126.09 100.298 1127.66 96.8988 1130.07 94.4352C1133.22 91.2282 1138.19 90.094 1142.48 91.2824C1145.59 92.1425 1148.07 94.3809 1149.95 96.9232C1151.57 95.4608 1153.21 94.0336 1154.81 92.5522C1150.66 86.83 1143.17 83.8347 1136.2 84.9172C1130.77 85.6118 1125.74 88.7619 1122.69 93.3038Z" fill="#1B5CC4"/>
<path d="M242.848 494H250.305C254.225 494 256.313 491.955 256.313 489.176C256.313 486.594 254.464 485.034 252.478 484.94V484.77C254.294 484.361 255.632 483.074 255.632 481.02C255.632 478.403 253.688 476.545 249.836 476.545H242.848V494ZM246.538 490.983V486.347H249.632C251.404 486.347 252.504 487.369 252.504 488.81C252.504 490.122 251.609 490.983 249.546 490.983H246.538ZM246.538 483.849V479.528H249.342C250.978 479.528 251.907 480.372 251.907 481.634C251.907 483.014 250.782 483.849 249.274 483.849H246.538ZM258.647 494H262.277V480.909H258.647V494ZM260.47 479.222C261.553 479.222 262.439 478.395 262.439 477.381C262.439 476.375 261.553 475.548 260.47 475.548C259.397 475.548 258.51 476.375 258.51 477.381C258.51 478.395 259.397 479.222 260.47 479.222ZM272.149 480.909H269.686V477.773H266.055V480.909H264.265V483.636H266.055V490.455C266.038 493.02 267.785 494.29 270.419 494.179C271.356 494.145 272.021 493.957 272.387 493.838L271.816 491.136C271.637 491.17 271.254 491.256 270.913 491.256C270.188 491.256 269.686 490.983 269.686 489.977V483.636H272.149V480.909ZM286.156 482.188H289.906C289.429 478.736 286.386 476.307 282.44 476.307C277.829 476.307 274.275 479.631 274.275 485.29C274.275 490.812 277.599 494.239 282.517 494.239C286.923 494.239 290.068 491.452 290.068 486.858V484.659H282.764V487.438H286.514C286.463 489.602 284.988 490.974 282.534 490.974C279.764 490.974 278.017 488.903 278.017 485.256C278.017 481.625 279.832 479.571 282.5 479.571C284.4 479.571 285.687 480.551 286.156 482.188ZM298.686 494.256C302.658 494.256 305.13 491.537 305.13 487.506C305.13 483.449 302.658 480.739 298.686 480.739C294.715 480.739 292.243 483.449 292.243 487.506C292.243 491.537 294.715 494.256 298.686 494.256ZM298.703 491.443C296.871 491.443 295.934 489.764 295.934 487.48C295.934 485.196 296.871 483.509 298.703 483.509C300.502 483.509 301.439 485.196 301.439 487.48C301.439 489.764 300.502 491.443 298.703 491.443Z" fill="#000E33"/>
<g filter="url(#institutions-filter6)">
<circle cx="272" cy="375" r="60" fill="white"/>
</g>
<path d="M249.89 351.975C257.417 351.502 265.127 350.448 271.933 347C278.728 350.46 286.443 351.502 293.965 351.972C295.024 352.079 295.893 353.076 295.855 354.14C295.848 357.942 295.848 361.746 295.853 365.547C295.841 373.905 293.645 382.382 288.872 389.309C284.695 395.368 278.764 400.288 271.902 403C264.199 399.892 257.631 394.096 253.468 386.918C249.873 380.746 248.178 373.597 248.005 366.49C248.002 362.37 248.007 358.253 248.002 354.133C247.948 353.069 248.841 352.077 249.89 351.975ZM267.238 359.609C267.238 361.112 267.238 362.617 267.238 364.12C265.398 364.122 263.558 364.118 261.72 364.122C261.717 365.07 261.717 366.02 261.72 366.967C262.886 366.972 264.054 366.967 265.22 366.969C265.22 371.837 265.222 376.705 265.22 381.573C264.192 381.573 263.164 381.573 262.135 381.575C262.121 382.66 262.176 383.75 262.078 384.835C263.76 384.84 265.438 384.833 267.119 384.838C267.122 386.362 267.117 387.884 267.122 389.406C268.01 389.408 268.9 389.408 269.791 389.408C269.791 387.901 269.788 386.393 269.791 384.887C270.543 384.906 271.294 384.932 272.046 384.97C272.049 386.469 272.044 387.967 272.046 389.468C272.956 389.468 273.865 389.468 274.777 389.468C274.777 387.948 274.777 386.431 274.775 384.914C276.99 384.74 279.391 384.522 281.193 383.085C283.017 381.565 283.432 378.875 282.907 376.669C282.468 374.915 280.794 373.858 279.122 373.487C279.937 373.032 280.725 372.445 281.131 371.578C282.034 369.646 281.639 367.034 279.873 365.718C278.448 364.642 276.617 364.369 274.893 364.16C274.896 362.643 274.993 361.128 274.955 359.609C274.043 359.609 273.134 359.609 272.225 359.609C272.222 361.093 272.227 362.577 272.222 364.063C271.472 364.061 270.722 364.061 269.971 364.061C269.966 362.579 269.969 361.095 269.969 359.611C269.059 359.606 268.15 359.606 267.238 359.609Z" fill="#00ADEE"/>
<path d="M269.969 367.209C271.755 367.228 273.683 367.048 275.305 367.941C276.698 368.658 276.898 370.847 275.689 371.825C274.06 373.015 271.928 372.761 270.028 372.785C270.062 370.925 269.924 369.069 269.969 367.209Z" fill="#00ADEE"/>
<path d="M269.907 375.52C272.123 375.556 274.53 375.266 276.527 376.437C277.66 377.087 278.014 378.659 277.422 379.789C276.997 380.568 276.154 380.993 275.335 381.238C273.592 381.76 271.759 381.615 269.969 381.632C269.99 379.595 269.862 377.557 269.907 375.52Z" fill="#00ADEE"/>
<path d="M657.664 211H665.121C669.042 211 671.13 208.955 671.13 206.176C671.13 203.594 669.28 202.034 667.295 201.94V201.77C669.11 201.361 670.448 200.074 670.448 198.02C670.448 195.403 668.505 193.545 664.653 193.545H657.664V211ZM661.354 207.983V203.347H664.448C666.221 203.347 667.32 204.369 667.32 205.81C667.32 207.122 666.425 207.983 664.363 207.983H661.354ZM661.354 200.849V196.528H664.158C665.795 196.528 666.724 197.372 666.724 198.634C666.724 200.014 665.599 200.849 664.09 200.849H661.354ZM673.531 211H677.222V204.812H679.915L683.222 211H687.295L683.588 204.216C685.574 203.364 686.673 201.634 686.673 199.247C686.673 195.778 684.381 193.545 680.418 193.545H673.531V211ZM677.222 201.847V196.562H679.71C681.841 196.562 682.872 197.509 682.872 199.247C682.872 200.977 681.841 201.847 679.727 201.847H677.222ZM695.469 211C700.787 211 704.008 207.71 704.008 202.256C704.008 196.818 700.787 193.545 695.52 193.545H689.281V211H695.469ZM692.972 207.838V196.707H695.324C698.597 196.707 700.327 198.378 700.327 202.256C700.327 206.151 698.597 207.838 695.315 207.838H692.972Z" fill="#000E33"/>
<g filter="url(#institutions-filter7)">
<circle cx="681" cy="92" r="60" fill="white"/>
</g>
<circle cx="681" cy="92" r="60" fill="white"/>
<path d="M664.5 85.25C664.5 82 662.25 79 656.25 79H640.25C639.55 79 639 79.55 639 80.25V102.75C639 103.45 639.55 104 640.25 104H656.5C662.75 104 665.25 100.7 665.25 97.25C665.25 93.8 661.95 91.25 658.5 91.25C661.95 91.25 664.5 88.5 664.5 85.25ZM649.5 94H657C658.25 94 659.25 95 659.25 96.25C659.25 97.5 658.25 98.5 657 98.5H645V84.5H656.25C657.5 84.5 658.5 85.25 658.5 86.5C658.5 87.75 657.5 88.5 656.25 88.5H649.5C648.8 88.5 648.25 89.05 648.25 89.75V92.75C648.25 93.45 648.8 94 649.5 94ZM711.5 79H699.25C698.55 79 698 79.55 698 80.25V102.75C698 103.45 698.55 104 699.25 104H711.5C718.4 104 724 98.4 724 91.5C724 84.6 718.4 79 711.5 79ZM710.5 98.5H704.5V84.5H710.5C714.5 84.5 717.5 87.525 717.5 91.5C717.5 95.475 714.5 98.5 710.5 98.5ZM686.475 95.975L694.5 104H685.75L678.475 96.725C678 96.25 677.75 95.625 677.75 94.95V92.25C677.75 91.55 678.3 91 679 91H684.5C686.5 91 687.75 89.5 687.75 87.75C687.75 86 686.5 84.5 684.5 84.5H675V104H668.5V80.25C668.5 79.55 669.05 79 669.75 79H686C690.725 79 694.5 82.775 694.5 87.5C694.5 92.05 690.95 95.725 686.475 95.975Z" fill="url(#institutions-paint1)"/>
<path d="M1069.75 476.545V494H1073.33V482.597H1073.47L1077.99 493.915H1080.42L1084.94 482.639H1085.09V494H1088.67V476.545H1084.12L1079.31 488.273H1079.1L1074.3 476.545H1069.75ZM1097.6 494.256C1100.84 494.256 1103.03 492.679 1103.54 490.25L1100.18 490.028C1099.81 491.026 1098.87 491.545 1097.66 491.545C1095.85 491.545 1094.7 490.344 1094.7 488.392V488.384H1103.61V487.386C1103.61 482.938 1100.92 480.739 1097.46 480.739C1093.61 480.739 1091.11 483.474 1091.11 487.514C1091.11 491.665 1093.57 494.256 1097.6 494.256ZM1094.7 486.134C1094.78 484.642 1095.91 483.449 1097.52 483.449C1099.1 483.449 1100.19 484.574 1100.2 486.134H1094.7ZM1105.98 494H1109.61V486.594C1109.61 484.983 1110.79 483.875 1112.39 483.875C1112.89 483.875 1113.58 483.96 1113.93 484.071V480.849C1113.6 480.773 1113.15 480.722 1112.78 480.722C1111.32 480.722 1110.12 481.574 1109.64 483.193H1109.5V480.909H1105.98V494ZM1121.11 494.256C1124.59 494.256 1126.78 492.21 1126.95 489.202H1123.53C1123.32 490.599 1122.4 491.384 1121.15 491.384C1119.45 491.384 1118.36 489.96 1118.36 487.455C1118.36 484.983 1119.46 483.568 1121.15 483.568C1122.48 483.568 1123.33 484.446 1123.53 485.75H1126.95C1126.8 482.724 1124.51 480.739 1121.09 480.739C1117.12 480.739 1114.67 483.491 1114.67 487.506C1114.67 491.486 1117.08 494.256 1121.11 494.256ZM1131.52 498.884C1134.22 498.884 1135.66 497.511 1136.4 495.415L1141.48 480.926L1137.64 480.909L1134.9 490.523H1134.77L1132.06 480.909H1128.24L1132.94 494.375L1132.72 494.929C1132.21 496.114 1131.33 496.199 1130.05 495.798L1129.24 498.517C1129.76 498.73 1130.6 498.884 1131.52 498.884ZM1158.81 482.656C1158.32 478.625 1155.27 476.307 1151.23 476.307C1146.62 476.307 1143.1 479.562 1143.1 485.273C1143.1 490.966 1146.56 494.239 1151.23 494.239C1155.71 494.239 1158.41 491.264 1158.81 488.051L1155.08 488.034C1154.73 489.901 1153.26 490.974 1151.29 490.974C1148.64 490.974 1146.84 489.006 1146.84 485.273C1146.84 481.642 1148.62 479.571 1151.32 479.571C1153.34 479.571 1154.8 480.739 1155.08 482.656H1158.81ZM1167.3 494.256C1171.28 494.256 1173.75 491.537 1173.75 487.506C1173.75 483.449 1171.28 480.739 1167.3 480.739C1163.33 480.739 1160.86 483.449 1160.86 487.506C1160.86 491.537 1163.33 494.256 1167.3 494.256ZM1167.32 491.443C1165.49 491.443 1164.55 489.764 1164.55 487.48C1164.55 485.196 1165.49 483.509 1167.32 483.509C1169.12 483.509 1170.06 485.196 1170.06 487.48C1170.06 489.764 1169.12 491.443 1167.32 491.443ZM1176.11 494H1179.74V486.594C1179.74 484.983 1180.91 483.875 1182.52 483.875C1183.02 483.875 1183.71 483.96 1184.05 484.071V480.849C1183.73 480.773 1183.28 480.722 1182.91 480.722C1181.44 480.722 1180.24 481.574 1179.76 483.193H1179.63V480.909H1176.11V494ZM1185.93 498.909H1189.56V491.903H1189.67C1190.17 492.994 1191.27 494.213 1193.39 494.213C1196.37 494.213 1198.69 491.852 1198.69 487.472C1198.69 482.972 1196.27 480.739 1193.39 480.739C1191.2 480.739 1190.16 482.043 1189.67 483.108H1189.51V480.909H1185.93V498.909ZM1189.48 487.455C1189.48 485.119 1190.47 483.628 1192.23 483.628C1194.03 483.628 1194.99 485.188 1194.99 487.455C1194.99 489.739 1194.02 491.324 1192.23 491.324C1190.49 491.324 1189.48 489.79 1189.48 487.455ZM1212.01 484.642C1211.68 482.23 1209.74 480.739 1206.43 480.739C1203.08 480.739 1200.88 482.29 1200.89 484.812C1200.88 486.773 1202.11 488.043 1204.67 488.554L1206.94 489.006C1208.08 489.236 1208.6 489.653 1208.62 490.31C1208.6 491.085 1207.75 491.639 1206.48 491.639C1205.19 491.639 1204.33 491.085 1204.11 490.02L1200.54 490.207C1200.88 492.713 1203.01 494.256 1206.48 494.256C1209.87 494.256 1212.3 492.526 1212.31 489.943C1212.3 488.051 1211.06 486.918 1208.52 486.398L1206.15 485.92C1204.93 485.656 1204.48 485.239 1204.49 484.608C1204.48 483.824 1205.37 483.312 1206.49 483.312C1207.75 483.312 1208.5 484.003 1208.68 484.847L1212.01 484.642Z" fill="#000E33"/>
<g filter="url(#institutions-filter8)">
<circle cx="1139" cy="375" r="60" fill="white"/>
</g>
<g clip-path="url(#institutions-clip2)">
<path d="M1118.74 351.441C1118.88 351.294 1119.14 350.783 1119.35 351.104C1119.77 351.752 1120.07 352.473 1120.42 353.162C1122.48 357.508 1124.37 361.94 1126.04 366.455C1127.21 369.849 1128.15 373.355 1128.36 376.954C1131.04 373.137 1134.19 369.607 1137.96 366.842C1142.03 363.623 1146.77 361.377 1151.63 359.63C1155.57 358.346 1159.53 357.086 1163.64 356.452C1164.25 356.347 1164.88 356.35 1165.49 356.421C1165.12 357.135 1164.26 357.299 1163.58 357.608C1159.35 359.338 1155.04 360.967 1151.18 363.445C1148.84 364.924 1146.66 366.644 1144.53 368.41C1141.58 371.017 1139 374.005 1136.63 377.139C1135.28 378.881 1133.82 380.547 1132.63 382.408C1130.52 385.724 1128.58 389.159 1126.91 392.727C1127.6 392.879 1128.29 393.019 1129 393.028C1131.29 393.069 1133.64 393.033 1135.84 392.292C1140.74 390.709 1145.01 387.576 1148.5 383.837C1151.02 381.314 1153.38 378.62 1155.43 375.693C1158.49 371.228 1161.6 366.671 1163.25 361.463C1163.46 360.914 1163.51 360.214 1164.1 359.917C1164.46 361.672 1164.3 363.48 1164.06 365.239C1163.61 367.77 1163.22 370.329 1162.37 372.766C1160.98 376.548 1159.12 380.196 1156.51 383.287C1152.89 387.531 1148.51 391.108 1143.67 393.871C1141.43 395.146 1138.97 396.005 1136.46 396.513C1132.81 397.066 1129.02 397.052 1125.44 396.114C1124 399.031 1123.62 402.324 1122.24 405.262C1121.86 405.998 1121.34 406.886 1120.43 407C1119.08 406.812 1118.33 405.433 1118.06 404.216C1117.35 400.389 1118.3 396.513 1119.47 392.876C1115.16 388.288 1112.09 382.425 1111.21 376.163C1110.43 369.647 1111.87 362.93 1115.02 357.192C1116.15 355.208 1117.4 353.29 1118.74 351.441ZM1114.19 365.747C1113.61 368.866 1113.19 372.068 1113.62 375.235C1114.46 380.555 1117.05 385.629 1121.08 389.237C1122.32 387.149 1122.67 384.699 1122.78 382.311C1122.84 379.078 1123.26 375.831 1122.85 372.603C1122.7 370.058 1122.29 367.539 1121.84 365.033C1121.24 360.872 1120.25 356.779 1119.1 352.742C1117.21 356.972 1115.18 361.194 1114.19 365.747Z" fill="#DD1C31"/>
<path d="M1133 357.523C1134.78 356.923 1136.82 358.83 1136.33 360.652C1135.99 361.581 1135.34 362.348 1134.71 363.096C1134.04 363.836 1133.06 364.582 1131.99 364.278C1130.07 363.847 1129.38 361.13 1130.61 359.691C1131.32 358.885 1132.03 358.022 1133 357.523Z" fill="#DD1C31"/>
</g>
<defs>
<filter id="institutions-filter0" x="758.521" y="134.255" width="267.702" height="267.702" filterUnits="userSpaceOnUse" color-interpolation-filters="sRGB">
<feFlood flood-opacity="0" result="BackgroundImageFix"/>
<feColorMatrix in="SourceAlpha" type="matrix" values="0 0 0 0 0 0 0 0 0 0 0 0 0 0 0 0 0 0 127 0"/>
<feOffset dy="29.7447"/>
<feGaussianBlur stdDeviation="29.7447"/>
<feColorMatrix type="matrix" values="0 0 0 0 0 0 0 0 0 0 0 0 0 0 0 0 0 0 0.08 0"/>
<feBlend mode="normal" in2="BackgroundImageFix" result="effect1_dropShadow"/>
<feBlend mode="normal" in="SourceGraphic" in2="effect1_dropShadow" result="shape"/>
</filter>
<filter id="institutions-filter1" x="300" y="75" width="216" height="216" filterUnits="userSpaceOnUse" color-interpolation-filters="sRGB">
<feFlood flood-opacity="0" result="BackgroundImageFix"/>
<feColorMatrix in="SourceAlpha" type="matrix" values="0 0 0 0 0 0 0 0 0 0 0 0 0 0 0 0 0 0 127 0"/>
<feOffset dy="24"/>
<feGaussianBlur stdDeviation="24"/>
<feColorMatrix type="matrix" values="0 0 0 0 0 0 0 0 0 0 0 0 0 0 0 0 0 0 0.08 0"/>
<feBlend mode="normal" in2="BackgroundImageFix" result="effect1_dropShadow"/>
<feBlend mode="normal" in="SourceGraphic" in2="effect1_dropShadow" result="shape"/>
</filter>
<filter id="institutions-filter2" x="1245.52" y="134.255" width="267.702" height="267.702" filterUnits="userSpaceOnUse" color-interpolation-filters="sRGB">
<feFlood flood-opacity="0" result="BackgroundImageFix"/>
<feColorMatrix in="SourceAlpha" type="matrix" values="0 0 0 0 0 0 0 0 0 0 0 0 0 0 0 0 0 0 127 0"/>
<feOffset dy="29.7447"/>
<feGaussianBlur stdDeviation="29.7447"/>
<feColorMatrix type="matrix" values="0 0 0 0 0 0 0 0 0 0 0 0 0 0 0 0 0 0 0.08 0"/>
<feBlend mode="normal" in2="BackgroundImageFix" result="effect1_dropShadow"/>
<feBlend mode="normal" in="SourceGraphic" in2="effect1_dropShadow" result="shape"/>
</filter>
<filter id="institutions-filter3" x="463.521" y="248.255" width="267.702" height="267.702" filterUnits="userSpaceOnUse" color-interpolation-filters="sRGB">
<feFlood flood-opacity="0" result="BackgroundImageFix"/>
<feColorMatrix in="SourceAlpha" type="matrix" values="0 0 0 0 0 0 0 0 0 0 0 0 0 0 0 0 0 0 127 0"/>
<feOffset dy="29.7447"/>
<feGaussianBlur stdDeviation="29.7447"/>
<feColorMatrix type="matrix" values="0 0 0 0 0 0 0 0 0 0 0 0 0 0 0 0 0 0 0.08 0"/>
<feBlend mode="normal" in2="BackgroundImageFix" result="effect1_dropShadow"/>
<feBlend mode="normal" in="SourceGraphic" in2="effect1_dropShadow" result="shape"/>
</filter>
<filter id="institutions-filter4" x="0.521263" y="0.255322" width="267.702" height="267.702" filterUnits="userSpaceOnUse" color-interpolation-filters="sRGB">
<feFlood flood-opacity="0" result="BackgroundImageFix"/>
<feColorMatrix in="SourceAlpha" type="matrix" values="0 0 0 0 0 0 0 0 0 0 0 0 0 0 0 0 0 0 127 0"/>
<feOffset dy="29.7447"/>
<feGaussianBlur stdDeviation="29.7447"/>
<feColorMatrix type="matrix" values="0 0 0 0 0 0 0 0 0 0 0 0 0 0 0 0 0 0 0.08 0"/>
<feBlend mode="normal" in2="BackgroundImageFix" result="effect1_dropShadow"/>
<feBlend mode="normal" in="SourceGraphic" in2="effect1_dropShadow" result="shape"/>
</filter>
<filter id="institutions-filter5" x="1003.28" y="0.255322" width="267.702" height="267.702" filterUnits="userSpaceOnUse" color-interpolation-filters="sRGB">
<feFlood flood-opacity="0" result="BackgroundImageFix"/>
<feColorMatrix in="SourceAlpha" type="matrix" values="0 0 0 0 0 0 0 0 0 0 0 0 0 0 0 0 0 0 127 0"/>
<feOffset dy="29.7447"/>
<feGaussianBlur stdDeviation="29.7447"/>
<feColorMatrix type="matrix" values="0 0 0 0 0 0 0 0 0 0 0 0 0 0 0 0 0 0 0.08 0"/>
<feBlend mode="normal" in2="BackgroundImageFix" result="effect1_dropShadow"/>
<feBlend mode="normal" in="SourceGraphic" in2="effect1_dropShadow" result="shape"/>
</filter>
<filter id="institutions-filter6" x="164" y="291" width="216" height="216" filterUnits="userSpaceOnUse" color-interpolation-filters="sRGB">
<feFlood flood-opacity="0" result="BackgroundImageFix"/>
<feColorMatrix in="SourceAlpha" type="matrix" values="0 0 0 0 0 0 0 0 0 0 0 0 0 0 0 0 0 0 127 0"/>
<feOffset dy="24"/>
<feGaussianBlur stdDeviation="24"/>
<feColorMatrix type="matrix" values="0 0 0 0 0 0 0 0 0 0 0 0 0 0 0 0 0 0 0.08 0"/>
<feBlend mode="normal" in2="BackgroundImageFix" result="effect1_dropShadow"/>
<feBlend mode="normal" in="SourceGraphic" in2="effect1_dropShadow" result="shape"/>
</filter>
<filter id="institutions-filter7" x="573" y="8" width="216" height="216" filterUnits="userSpaceOnUse" color-interpolation-filters="sRGB">
<feFlood flood-opacity="0" result="BackgroundImageFix"/>
<feColorMatrix in="SourceAlpha" type="matrix" values="0 0 0 0 0 0 0 0 0 0 0 0 0 0 0 0 0 0 127 0"/>
<feOffset dy="24"/>
<feGaussianBlur stdDeviation="24"/>
<feColorMatrix type="matrix" values="0 0 0 0 0 0 0 0 0 0 0 0 0 0 0 0 0 0 0.08 0"/>
<feBlend mode="normal" in2="BackgroundImageFix" result="effect1_dropShadow"/>
<feBlend mode="normal" in="SourceGraphic" in2="effect1_dropShadow" result="shape"/>
</filter>
<filter id="institutions-filter8" x="1031" y="291" width="216" height="216" filterUnits="userSpaceOnUse" color-interpolation-filters="sRGB">
<feFlood flood-opacity="0" result="BackgroundImageFix"/>
<feColorMatrix in="SourceAlpha" type="matrix" values="0 0 0 0 0 0 0 0 0 0 0 0 0 0 0 0 0 0 127 0"/>
<feOffset dy="24"/>
<feGaussianBlur stdDeviation="24"/>
<feColorMatrix type="matrix" values="0 0 0 0 0 0 0 0 0 0 0 0 0 0 0 0 0 0 0.08 0"/>
<feBlend mode="normal" in2="BackgroundImageFix" result="effect1_dropShadow"/>
<feBlend mode="normal" in="SourceGraphic" in2="effect1_dropShadow" result="shape"/>
</filter>
<linearGradient id="institutions-paint0" x1="862.647" y1="241.593" x2="921.789" y2="241.593" gradientUnits="userSpaceOnUse">
<stop stop-color="#F1562B"/>
<stop offset="0.3" stop-color="#F1542B"/>
<stop offset="0.41" stop-color="#F04D2A"/>
<stop offset="0.49" stop-color="#EF4229"/>
<stop offset="0.5" stop-color="#EF4029"/>
<stop offset="0.56" stop-color="#E83E28"/>
<stop offset="0.67" stop-color="#E13C26"/>
<stop offset="1" stop-color="#DF3C26"/>
</linearGradient>
<linearGradient id="institutions-paint1" x1="652.719" y1="116.986" x2="703.691" y2="66.0136" gradientUnits="userSpaceOnUse">
<stop stop-color="#FF5193"/>
<stop offset="1" stop-color="#F9A43A"/>
</linearGradient>
<clipPath id="institutions-clip0">
<rect width="80" height="49.2308" fill="white" transform="translate(370 134)"/>
</clipPath>
<clipPath id="institutions-clip1">
<rect width="115" height="35.65" fill="white" transform="translate(77 86)"/>
</clipPath>
<clipPath id="institutions-clip2">
<rect width="55" height="56" fill="white" transform="translate(1111 351)"/>
</clipPath>
</defs>
</svg>
