<svg width="1440" height="1661" viewBox="0 0 1440 1661" fill="none" xmlns="http://www.w3.org/2000/svg">
<mask id="homepage-mask0" mask-type="alpha" maskUnits="userSpaceOnUse" x="-483" y="-717" width="2397" height="2378">
<path d="M618.454 1191.1C451.367 1169.17 302.224 1091.33 190.416 977.49L190.319 977.586L-476 299.605C-434.228 292.807 -391.396 289.551 -347.695 290.126C-225.178 291.562 -111.632 321.243 -12.0752 373.904C53.1386 408.373 112.371 452.703 164.272 505.46L410.078 755.55C411.622 757.177 413.165 758.805 414.709 760.433C489.859 836.838 594.336 884.807 710.39 886.339C824.707 887.776 928.991 843.732 1005.59 771.156L749.074 1019.62C696.884 1070.17 652.894 1127.81 618.454 1191.1Z" stroke="#001B66" stroke-width="6" stroke-miterlimit="10"/>
<path d="M1224.19 993.288L540.987 1654.7C534.138 1613.25 530.858 1570.74 531.436 1527.36C532.98 1404.33 563.561 1290.29 617.874 1190.62C652.314 1127.24 696.304 1069.69 748.494 1019.14L1005.2 770.582C1084.31 695.804 1134.18 590.674 1135.63 473.671C1137.08 358.488 1091.45 253.646 1016.3 177.24L1266.64 431.926C1318.54 484.778 1377.77 529.013 1442.98 563.482C1420.89 731.613 1341.11 881.456 1224.19 993.288Z" stroke="#001B66" stroke-width="6" stroke-miterlimit="10"/>
<path d="M410.463 755.263L164.658 505.173C112.757 452.321 53.5239 408.086 -11.6899 373.617C9.91937 208.837 86.999 61.5791 200.062 -49.3912L883.167 -710.808C890.016 -669.446 893.296 -626.839 892.718 -583.465C891.27 -463.399 862.136 -351.855 810.236 -253.81C775.217 -187.649 729.876 -127.712 675.756 -75.3385L422.426 169.964C345.442 244.551 297.014 348.244 295.567 463.523C294.217 576.312 338.014 679.144 410.463 755.263Z" stroke="#001B66" stroke-width="6" stroke-miterlimit="10"/>
<path d="M883.263 -711C809.174 -394.27 564.815 -172.522 564.815 -172.522L315.922 68.4725C228.424 154.357 168.805 268.296 152.019 395.83C152.019 395.83 141.118 469.459 152.308 492.917" stroke="#001B66" stroke-width="6" stroke-miterlimit="10"/>
<path d="M1907.58 638.356C1865.81 645.154 1822.98 648.409 1779.28 647.835C1656.76 646.398 1543.12 616.717 1443.47 563.961C1378.25 529.492 1319.02 485.257 1267.12 432.405L1016.59 177.528C941.533 101.026 836.959 53.057 720.809 51.6208C604.659 50.1846 499.024 95.5685 422.041 170.251L675.275 -74.9561C729.395 -127.33 774.736 -187.363 809.754 -253.428C978.191 -232.076 1128.49 -154.139 1241.07 -39.6257L1907.58 638.356Z" stroke="#001B66" stroke-width="6" stroke-miterlimit="10"/>
<path d="M1907.78 637.782C1587.98 567.121 1362.43 326.51 1362.43 326.51L1117.4 81.59C1030.09 -4.48615 914.809 -62.7 786.118 -78.1152C786.118 -78.1152 698.62 -86.1579 675.081 -74.7641" stroke="#001B66" stroke-width="6" stroke-miterlimit="10"/>
<path d="M542.435 1649.92C613.63 1332.52 856.059 1108.66 856.059 1108.66L1102.83 865.467C1189.56 778.816 1248.21 664.399 1263.74 536.673C1263.74 536.673 1271.84 449.831 1260.37 426.469" stroke="#001B66" stroke-width="6" stroke-miterlimit="10"/>
<path d="M-476 299.606C-156.202 370.267 69.3455 610.878 69.3455 610.878L314.38 855.797C401.685 941.874 516.967 1000.09 645.658 1015.5C645.658 1015.5 733.156 1023.55 756.695 1012.15" stroke="#001B66" stroke-width="6" stroke-miterlimit="10"/>
</mask>
<g mask="url(#homepage-mask0)">
<rect x="-390.223" y="-229.147" width="2168" height="2005" fill="#001B66"/>
<rect x="-4.22266" y="513.853" width="1440" height="1224" fill="url(#homepage-paint0-linear)"/>
</g>
<rect x="1202" y="366" width="16.9119" height="17.2478" fill="#99EC79"/>
<rect width="16.992" height="17.1689" transform="matrix(0.869567 0.493816 -0.479211 0.8777 1253.23 555)" fill="#FF5D00"/>
<rect x="1351.2" y="307.121" width="13.9119" height="14.2478" transform="rotate(45 1351.2 307.121)" stroke="#CB68FD" stroke-width="3"/>
<path d="M198.945 239.998L196.616 260.854L179.864 248.733L198.945 239.998Z" fill="#CCCCCD"/>
<path d="M190.938 522L201.276 540.262H180.599L190.938 522Z" stroke="#0087FF" stroke-width="3"/>
<ellipse cx="1103.46" cy="625.609" rx="7.46114" ry="7.60934" fill="#CCCCCD"/>
<ellipse cx="431.461" cy="159.609" rx="7.46114" ry="7.60934" stroke="#A803FC" stroke-width="3"/>
<defs>
<linearGradient id="homepage-paint0-linear" x1="767.777" y1="1179.15" x2="754.269" y2="385.366" gradientUnits="userSpaceOnUse">
<stop stop-color="#000E33"/>
<stop offset="1" stop-color="#000E33" stop-opacity="0"/>
</linearGradient>
</defs>
</svg>
