<svg width="120" height="120" viewBox="0 0 120 120" fill="none" xmlns="http://www.w3.org/2000/svg">
<circle cx="60" cy="60" r="60" fill="white"/>
<path d="M37.8901 36.9746C45.4172 36.502 53.1272 35.4478 59.9325 32C66.7283 35.4596 74.443 36.502 81.9654 36.9722C83.0244 37.079 83.8935 38.0763 83.8555 39.1401C83.8484 42.9417 83.8484 46.7456 83.8531 50.5472C83.8413 58.9054 81.6448 67.3823 76.8721 74.3087C72.6954 80.3684 66.7639 85.2883 59.9016 88C52.1988 84.8918 45.6309 79.0957 41.4685 71.9176C37.8735 65.7463 36.1781 58.5967 36.0048 51.4898C36.0024 47.3701 36.0071 43.2527 36.0024 39.133C35.9478 38.0692 36.8406 37.0767 37.8901 36.9746ZM55.2381 44.6085C55.2381 46.1116 55.2381 47.617 55.2381 49.1201C53.3979 49.1225 51.5577 49.1177 49.7198 49.1225C49.7174 50.0699 49.7174 51.0197 49.7198 51.9671C50.8857 51.9718 52.0539 51.9671 53.2198 51.9695C53.2198 56.8372 53.2222 61.7049 53.2198 66.5726C52.1917 66.5726 51.1635 66.5726 50.1354 66.575C50.1211 67.6601 50.1757 68.75 50.0784 69.8351C51.7595 69.8399 53.4383 69.8328 55.1194 69.8375C55.1218 71.3619 55.117 72.884 55.1218 74.406C56.0098 74.4084 56.9003 74.4084 57.7907 74.4084C57.7907 72.9006 57.7883 71.3928 57.7907 69.8874C58.5434 69.9064 59.2938 69.9325 60.0465 69.9705C60.0489 71.4688 60.0441 72.9671 60.0465 74.4678C60.9559 74.4678 61.8653 74.4678 62.7771 74.4678C62.7771 72.9481 62.7771 71.4308 62.7748 69.9135C64.9902 69.7402 67.3908 69.5217 69.193 68.0851C71.0166 66.5655 71.4322 63.8752 70.9074 61.6693C70.4681 59.9145 68.7941 58.8579 67.1225 58.4874C67.9369 58.0315 68.7252 57.445 69.1313 56.5784C70.0336 54.6455 69.6394 52.0336 67.8728 50.7181C66.4481 49.6425 64.6174 49.3694 62.8935 49.1604C62.8959 47.6431 62.9932 46.1282 62.9552 44.6085C62.0434 44.6085 61.134 44.6085 60.2246 44.6085C60.2222 46.0926 60.2269 47.5767 60.2222 49.0631C59.4719 49.0607 58.7215 49.0607 57.9712 49.0607C57.9664 47.579 57.9688 46.095 57.9688 44.6109C57.0594 44.6062 56.1499 44.6062 55.2381 44.6085Z" fill="#00ADEE"/>
<path d="M57.9691 52.2093C59.7548 52.2283 61.6828 52.0478 63.3046 52.9406C64.6984 53.6577 64.8979 55.847 63.6893 56.8253C62.0604 58.0149 59.9281 57.7609 58.0285 57.7846C58.0617 55.9254 57.924 54.0685 57.9691 52.2093Z" fill="#00ADEE"/>
<path d="M57.9072 60.52C60.1226 60.5556 62.5303 60.266 64.5272 61.4366C65.6599 62.0872 66.0137 63.6591 65.4224 64.7894C64.9974 65.5682 64.1544 65.9932 63.3352 66.2378C61.5924 66.7602 59.7593 66.6153 57.9689 66.632C57.9903 64.5946 57.862 62.5573 57.9072 60.52Z" fill="#00ADEE"/>
</svg>
