<svg width="120" height="120" viewBox="0 0 120 120" fill="none" xmlns="http://www.w3.org/2000/svg">
<circle cx="60" cy="60" r="60" fill="white"/>
<path d="M36.1338 51.8049L33.3963 54.5424C32.6386 55.2703 32.0358 56.1438 31.624 57.1104C31.2123 58.077 31 59.1168 31 60.1674C31 61.2181 31.2123 62.2579 31.624 63.2245C32.0358 64.1911 32.6386 65.0646 33.3963 65.7924L55.45 88.0638C55.9727 88.5985 56.5811 89.0421 57.25 89.3763V62.3799L36.1338 51.8049Z" fill="#3D89F5"/>
<path d="M85.8662 51.8049L88.6037 54.5424C89.3613 55.2703 89.9642 56.1438 90.3759 57.1104C90.7878 58.077 91 59.1168 91 60.1674C91 61.2181 90.7878 62.2579 90.3759 63.2245C89.9642 64.1911 89.3613 65.0646 88.6037 65.7924L66.55 88.0638C66.0273 88.5985 65.4189 89.0421 64.75 89.3763V62.3799L85.8662 51.8049Z" fill="#1656B9"/>
<path d="M80.5713 46.2174L66.7713 32.3799C66.0408 31.6269 65.1664 31.0282 64.2002 30.6194C63.234 30.2106 62.1955 30 61.1463 30C60.0972 30 59.0586 30.2106 58.0924 30.6194C57.1262 31.0282 56.2519 31.6269 55.5213 32.3799L41.6838 46.2174L61.0713 55.8924L80.5713 46.2174Z" fill="#85B5F8"/>
</svg>
