<svg width="120" height="120" viewBox="0 0 120 120" fill="none" xmlns="http://www.w3.org/2000/svg">
<circle cx="60" cy="60" r="60" fill="white"/>
<path d="M91.289 64.7161H93.5155L88.5506 54.3318H87.5055L82.5557 64.7161H84.7822L85.2456 63.6619L86.4786 60.8568H86.4604L86.9966 59.6784L88.0205 57.4247L89.5987 60.8568H89.5805L90.6226 63.2257L91.289 64.7161Z" fill="#1C1D1E"/>
<path d="M12.4799 62.844C12.0411 62.8471 11.6059 62.7648 11.1986 62.6017C10.8073 62.4479 10.4509 62.2172 10.1504 61.9231C9.84634 61.6253 9.60438 61.2701 9.43856 60.878C9.09136 60.0108 9.09136 59.0432 9.43856 58.1759C9.59985 57.784 9.839 57.4289 10.1415 57.1321C10.444 56.8354 10.8036 56.603 11.1986 56.4493C11.6071 56.291 12.0418 56.2109 12.4799 56.213C12.8334 56.2101 13.1848 56.2675 13.519 56.3826C13.8454 56.4888 14.1523 56.6474 14.4278 56.8522C14.701 57.0567 14.9402 57.3031 15.1366 57.5822L16.7694 56.1978C16.0811 55.3751 15.1687 54.77 14.143 54.456C13.0383 54.1168 11.856 54.1252 10.7563 54.4802C10.2159 54.653 9.70516 54.9074 9.24166 55.2345C8.7899 55.5572 8.38954 55.9463 8.05419 56.3887C7.72015 56.8335 7.45843 57.3284 7.27869 57.8548C6.9071 58.9418 6.9071 60.1213 7.27869 61.2082C7.4606 61.7316 7.72329 62.2232 8.05721 62.6653C8.39269 63.1059 8.79307 63.493 9.24469 63.8134C9.70833 64.1395 10.2191 64.3929 10.7593 64.5647C11.3185 64.7431 11.902 64.8341 12.489 64.8343C13.0501 64.8335 13.6082 64.7518 14.146 64.5919C14.6602 64.4363 15.149 64.2067 15.5971 63.9103C16.036 63.6178 16.4317 63.265 16.7724 62.8622L15.1396 61.4748C14.7462 62.041 14.1812 62.4657 13.5281 62.6865C13.1899 62.7971 12.8357 62.8503 12.4799 62.844Z" fill="#0091D9"/>
<path d="M20.5048 54.3318H18.3843V64.7161H20.5048V54.3318Z" fill="#0091D9"/>
<path d="M22.686 54.3287V64.7161H24.7914V62.0503H26.5453C27.1584 62.0594 27.7699 61.985 28.3629 61.8292C28.8793 61.6964 29.3622 61.457 29.7806 61.1264C30.1818 60.7991 30.4943 60.3761 30.6893 59.8965C30.9199 59.3189 31.0322 58.7008 31.0195 58.079C31.0231 57.6962 30.9784 57.3145 30.8863 56.943C30.7996 56.5825 30.6564 56.2379 30.4622 55.9221C30.2613 55.6005 30.0012 55.3199 29.6958 55.0951C29.3481 54.8415 28.9569 54.6536 28.5416 54.5408C28.0259 54.3967 27.4927 54.3254 26.9573 54.3287H22.686ZM24.7914 60.2964V56.1463H26.6089C26.961 56.1395 27.3112 56.1981 27.6419 56.319C27.9014 56.4179 28.1339 56.5767 28.3205 56.7824C28.4897 56.9746 28.6157 57.2008 28.69 57.4458C28.7733 57.701 28.8142 57.9681 28.8112 58.2365C28.8188 58.6135 28.7258 58.9858 28.5416 59.3149C28.3492 59.6333 28.0637 59.8849 27.7237 60.0359C27.2854 60.2218 26.8123 60.3117 26.3363 60.2994L24.7914 60.2964Z" fill="#0091D9"/>
<path d="M39.3433 54.3318V59.3846H34.5571V54.3318H32.5093V64.7161H34.5571V61.1961H39.3433V64.7161H41.4062V54.3318H39.3433Z" fill="#0091D9"/>
<path d="M45.6019 62.8895V60.563H50.3003V58.7969H45.6019V56.1584H51.2151V54.3318H43.5571V64.7161H51.5241V62.8895H45.6019Z" fill="#0091D9"/>
<path d="M59.655 64.7161H62.1723L59.7489 61.6232C60.4002 61.3612 60.9495 60.8958 61.315 60.2964C61.694 59.6182 61.8805 58.8494 61.8542 58.0729C61.8578 57.6902 61.813 57.3085 61.7209 56.937C61.6342 56.5764 61.4911 56.2319 61.2968 55.9161C61.0959 55.5945 60.8359 55.3138 60.5304 55.0891C60.1828 54.8354 59.7916 54.6476 59.3763 54.5348C58.8592 54.3935 58.3249 54.3252 57.7889 54.3318H53.2178V64.7161H55.3383V56.1463H57.4587C57.8117 56.1399 58.1629 56.1984 58.4948 56.319C58.7534 56.418 58.9848 56.5768 59.1703 56.7825C59.3393 56.9753 59.4662 57.2012 59.5429 57.4459C59.6203 57.698 59.6581 57.9607 59.655 58.2244C59.6631 58.6025 59.57 58.9759 59.3854 59.3058C59.1939 59.6265 58.9083 59.8803 58.5675 60.0329C58.1306 60.224 57.6566 60.3151 57.18 60.2994H56.3773L59.655 64.7161Z" fill="#0091D9"/>
<path d="M71.7476 54.3318H63.0112V56.1584H66.3101V64.7161H68.4306V56.1584H71.7476V54.3318Z" fill="black"/>
<path d="M79.7297 64.7161H82.247L79.8236 61.6232C80.4743 61.3602 81.0233 60.895 81.3897 60.2964C81.7687 59.6182 81.9552 58.8493 81.9289 58.0729C81.9325 57.6901 81.8877 57.3084 81.7956 56.9369C81.709 56.5764 81.5658 56.2319 81.3715 55.916C81.1724 55.595 80.9145 55.3144 80.6112 55.0891C80.2639 54.8366 79.874 54.6488 79.4601 54.5347C78.9469 54.3941 78.4169 54.3247 77.8848 54.3287H73.2925V64.7161H75.3978V56.1463H77.5335C77.8855 56.1395 78.2357 56.1981 78.5664 56.3189C78.8259 56.4179 79.0584 56.5767 79.245 56.7824C79.414 56.9752 79.5409 57.2012 79.6176 57.4458C79.695 57.698 79.7328 57.9606 79.7297 58.2243C79.738 58.6021 79.646 58.9752 79.4631 59.3058C79.2696 59.6259 78.9833 59.8794 78.6422 60.0328C78.2053 60.224 77.7313 60.315 77.2548 60.2994H76.4399L79.7297 64.7161Z" fill="#1C1D1E"/>
<path d="M99.1716 62.844C98.7337 62.8473 98.2995 62.765 97.8932 62.6017C97.5007 62.4487 97.1431 62.2179 96.8421 61.9231C96.5379 61.6259 96.2969 61.2705 96.1332 60.878C95.786 60.0108 95.786 59.0432 96.1332 58.1759C96.2953 57.7817 96.5366 57.425 96.8421 57.1278C97.1437 56.8337 97.5011 56.603 97.8932 56.4492C98.3007 56.2907 98.7344 56.2106 99.1716 56.2129C99.525 56.2101 99.8764 56.2675 100.211 56.3826C100.537 56.489 100.844 56.6476 101.119 56.8521C101.388 57.0601 101.623 57.3084 101.816 57.5882L103.452 56.2039C103.111 55.7998 102.715 55.4451 102.277 55.1497C101.57 54.6819 100.768 54.3794 99.9289 54.2645C99.0898 54.1497 98.2356 54.2255 97.4298 54.4863C96.8893 54.6588 96.3785 54.9132 95.9151 55.2406C95.4618 55.5623 95.0603 55.9515 94.7246 56.3947C94.3899 56.8369 94.1281 57.3299 93.9491 57.8548C93.5736 58.9411 93.5736 60.1219 93.9491 61.2082C94.1288 61.7319 94.3905 62.2238 94.7246 62.6653C95.0604 63.1066 95.4619 63.4938 95.9151 63.8134C96.3786 64.1398 96.8894 64.3931 97.4298 64.5646C97.989 64.7429 98.5725 64.8338 99.1595 64.8342C99.7206 64.8336 100.279 64.752 100.816 64.5919C101.331 64.4356 101.821 64.2061 102.271 63.9103C102.708 63.6162 103.104 63.2635 103.446 62.8622L101.816 61.4748C101.424 62.0426 100.859 62.4678 100.205 62.6865C99.8712 62.7954 99.5222 62.8486 99.1716 62.844Z" fill="#1C1D1E"/>
<path d="M107.08 62.8895V60.563H111.779V58.7969H107.08V56.1584H112.691V54.3318H105.033V64.7161H113V62.8895H107.08Z" fill="#1C1D1E"/>
<path fill-rule="evenodd" clip-rule="evenodd" d="M62.9958 65.7642C68.3607 71.9954 74.9948 76.4121 78.8874 76.4121C82.78 76.4121 83.2677 72.0681 80.6474 65.9217C84.337 73.7494 83.9795 79.4383 79.2751 79.4383C74.5707 79.4383 66.8309 73.6827 60.4634 65.7642H62.9958Z" fill="#1C1D1E"/>
<path fill-rule="evenodd" clip-rule="evenodd" d="M54.6559 41C58.5728 41 64.5071 44.938 70.0385 50.7512C65.4098 46.1225 60.563 43.0569 57.3156 43.0569C53.4957 43.0569 52.9505 47.2766 55.4466 53.2837H52.7415C49.6455 46.0983 50.1938 41 54.6559 41Z" fill="#1C1D1E"/>
</svg>
