<svg width="120" height="120" viewBox="0 0 120 120" fill="none" xmlns="http://www.w3.org/2000/svg">
<circle cx="60" cy="60" r="60" fill="white"/>
<path d="M82.2451 51.4005C84.0899 51.4005 85.5854 49.9774 85.5854 48.2218C85.5854 46.4663 84.0899 45.0432 82.2451 45.0432C80.4003 45.0432 78.9048 46.4663 78.9048 48.2218C78.9048 49.9774 80.4003 51.4005 82.2451 51.4005Z" fill="black"/>
<path d="M79.7183 55.7752V73.9314C79.7183 74.9119 81.0328 75.1705 82.3474 75.1705C83.662 75.1705 84.9766 74.9119 84.9766 73.9314V55.7752C84.9766 54.466 83.662 54.2828 82.3474 54.2774C81.0328 54.2721 79.7183 54.4822 79.7183 55.7752Z" fill="black"/>
<path d="M90.7417 46.4978V73.9314C90.7417 74.9119 92.0563 75.1705 93.3708 75.1705C94.6854 75.1705 96 74.9119 96 73.9314V46.4978C96 45.1832 94.6854 45 93.3708 45C92.0563 45 90.7417 45.1832 90.7417 46.4978Z" fill="black"/>
<path d="M53.0337 64.3954C53.0337 58.6953 57.5862 53.6202 64.1591 53.6202C70.7319 53.6202 75.3707 58.6199 75.3707 64.3954C75.3707 70.5642 70.204 75.1706 64.2237 75.1706C57.6024 75.1706 53.0337 70.0901 53.0337 64.3954ZM64.1591 70.7851C67.661 70.7851 70.2848 67.8973 70.2848 64.3523C70.2848 60.8072 67.6395 57.9949 64.1591 57.9949C60.6787 57.9949 58.0711 60.8396 58.0711 64.3954C58.0711 67.9512 60.6356 70.7851 64.1591 70.7851Z" fill="black"/>
<path d="M50.0222 69.6165C50.0222 72.3749 43.5786 75.1711 39.0854 75.1711C36.3965 75.179 33.7537 74.473 31.427 73.1251C29.1004 71.7772 27.1733 69.8357 25.8427 67.4991C24.6251 65.2922 23.9909 62.811 24.0001 60.2905C23.9946 57.3381 24.8482 54.4478 26.4568 51.9721C28.374 49.083 31.2279 46.9426 34.5382 45.911C36.2344 45.3544 38.0061 45.0618 39.7911 45.0436C45.9815 45.0436 49.8605 49.3807 49.8605 53.1574C49.8605 55.7757 47.7594 59.4447 42.5873 59.4447C40.2221 59.4447 39.4194 58.4426 39.4194 57.2896C39.4194 55.7542 40.8579 53.9547 41.8923 53.9547C42.3287 53.9547 42.5927 54.3911 43.4439 54.2672C43.7921 54.2464 44.1188 54.0919 44.3558 53.8358C44.5927 53.5798 44.7216 53.2421 44.7154 52.8934C44.7154 51.5896 43.1584 49.8332 39.8666 49.8332C38.6025 49.8531 37.3482 50.0582 36.1437 50.442C33.8892 51.1864 31.9772 52.716 30.7561 54.7521C29.6944 56.3997 29.133 58.3197 29.1399 60.2798C29.1337 61.9352 29.549 63.5649 30.3467 65.0154C31.2287 66.554 32.5012 67.8325 34.0356 68.7218C35.57 69.611 37.3119 70.0795 39.0854 70.0798C44.1389 70.0798 45.5505 67.386 46.5795 66.9227C48.4005 66.1361 50.0222 68.3234 50.0222 69.6165Z" fill="black"/>
</svg>
