<svg width="120" height="120" viewBox="0 0 120 120" fill="none" xmlns="http://www.w3.org/2000/svg">
<circle cx="60" cy="60" r="60" fill="white"/>
<path d="M70.8846 32.3343C76.5971 31.3738 82.4389 32.5617 87.6809 34.8906C88.2691 34.1339 88.8454 33.3694 89.4178 32.6009C91.1037 35.765 92.7779 38.9368 94.5108 42.0734C90.5431 42.2067 86.5714 42.1205 82.6036 42.0577C83.3054 41.1168 84.0033 40.1719 84.6973 39.2191C81.5372 36.5295 77.342 35.1886 73.2096 35.4474C66.3836 35.7336 60.2555 39.3171 54.9272 43.3202C58.4912 37.7292 64.3331 33.5498 70.8846 32.3343Z" fill="#D61820"/>
<path d="M46.0546 40.5169C47.4426 40.4228 48.8344 40.4228 50.2184 40.5012C50.2145 51.6713 50.2028 62.8454 50.2263 74.0155C45.9841 74.0469 41.7379 74.0508 37.4996 74.0234C31.6695 73.8352 26.5334 69.1185 25.3689 63.4845C24.3456 58.9913 25.4748 54.0434 28.4624 50.5147C30.705 47.8996 34.0533 46.2333 37.5114 46.1314C40.3618 46.0725 43.216 46.1117 46.0703 46.1235C46.1017 44.2533 46.1017 42.3831 46.0546 40.5169ZM29.5955 58.2621C29.2583 60.4224 29.4073 62.7278 30.3835 64.7156C31.8577 67.613 34.9943 69.6321 38.2642 69.6165C40.8754 69.64 43.4866 69.6047 46.0938 69.6557C46.0703 63.2257 46.1134 56.7957 46.0742 50.3697C43.4905 50.401 40.9028 50.35 38.3191 50.3971C34.0337 50.5069 30.2659 54.0826 29.5955 58.2621Z" fill="#D61820"/>
<path d="M59.2674 48.127C62.7334 45.1708 68.4772 45.4531 71.5236 48.8719C73.1272 47.2684 75.2718 46.2176 77.5498 46.0765C80.4864 45.7942 83.8856 46.4842 85.7205 49.0013C87.5241 51.3106 87.6966 54.3806 87.6887 57.1917C87.6534 62.8023 87.7554 68.4167 87.6299 74.0273C86.0224 74.043 84.4189 74.0312 82.8114 74.0038C82.8427 67.8718 82.8192 61.7397 82.8231 55.6117C82.7918 54.0159 82.6271 52.1418 81.2235 51.1224C79.071 49.8482 75.8795 50.4324 74.5543 52.6358C73.6526 53.965 73.4761 55.6156 73.4644 57.1799C73.4683 62.7866 73.484 68.3971 73.4565 74.0038C71.8647 74.0234 70.2729 74.0273 68.6811 74.0312C68.7517 68.4089 68.7007 62.7866 68.7085 57.1643C68.634 55.5254 68.783 53.7415 67.8813 52.2908C66.8344 50.452 64.1134 49.9109 62.3922 51.0871C60.3221 52.6986 59.338 55.3843 59.3223 57.9523C59.2949 63.2963 59.2988 68.6402 59.3145 73.9842C57.7227 74.0547 56.1309 74.0351 54.543 74.0038C54.5469 64.8763 54.543 55.7489 54.543 46.6214C56.1309 46.6018 57.7187 46.5901 59.3066 46.5822C59.2949 47.0959 59.2831 47.6095 59.2674 48.127Z" fill="#D61820"/>
<path d="M55.1429 84.378C61.271 83.5429 66.76 80.3397 71.6178 76.6699C67.748 82.7156 61.1847 87.2009 53.951 87.8439C48.7756 88.4869 43.6238 87.0598 38.8758 85.0994C38.2956 85.8561 37.7231 86.6167 37.1625 87.3891C35.4883 84.1702 33.724 81.0023 32.0381 77.7912C35.9902 77.8382 39.9462 77.9676 43.8983 77.8539C43.3102 78.8537 42.628 79.7986 41.8948 80.7004C45.4313 83.8918 50.4929 85.0367 55.1429 84.378Z" fill="#D61820"/>
</svg>
