<svg width="120" height="120" viewBox="0 0 120 120" fill="none" xmlns="http://www.w3.org/2000/svg">
<circle cx="60" cy="60" r="60" fill="white"/>
<path d="M57.8143 32.0884C64.403 31.5518 71.1444 33.4747 76.4773 37.384C80.979 40.6709 84.4784 45.3217 86.3417 50.58C88.5106 56.6134 88.5218 63.4034 86.3342 69.4331C84.143 75.6454 79.6524 81.0006 73.9394 84.2725C68.8451 87.2315 62.7931 88.4837 56.9385 87.8315C50.3461 87.1421 44.0481 83.9819 39.55 79.1149C35.8159 75.1646 33.293 70.0852 32.3949 64.7263C31.3477 58.5587 32.3911 52.0446 35.4321 46.5627C39.8332 38.3865 48.5387 32.7294 57.8143 32.0884ZM56.3683 33.6387C49.9734 34.4809 43.9586 37.7865 39.7848 42.6982C34.9178 48.303 32.6185 56.0246 33.6023 63.3773C34.7464 73.4355 42.2257 82.3645 51.8852 85.357C58.6006 87.5147 66.1768 86.8737 72.4003 83.5347C78.1356 80.531 82.6821 75.3435 84.9218 69.2691C87.251 63.0419 87.1243 55.9315 84.5529 49.7937C82.3914 44.5652 78.5083 40.0709 73.6487 37.1716C68.5172 34.0636 62.3086 32.8189 56.3683 33.6387Z" fill="#3143CB"/>
<path d="M54.1138 49.6596C58.623 49.6484 63.1285 49.6484 67.6377 49.6633C67.6228 50.2297 67.6154 50.7999 67.6042 51.3701C64.3956 51.3626 61.1832 51.3626 57.9746 51.3701C61.0453 54.765 64.1123 58.1637 67.2129 61.5326C63.7769 61.5438 60.3373 61.5363 56.8976 61.5363C56.9013 64.7226 56.9348 67.9089 56.8827 71.0952C56.2268 71.0877 55.5709 71.084 54.9187 71.0803C54.9225 67.3238 54.9075 63.5674 54.9262 59.8146C57.7249 59.8221 60.5236 59.8146 63.3223 59.8146C60.2702 56.4159 57.1659 53.062 54.1138 49.6596Z" fill="#3143CB"/>
</svg>
