<svg width="120" height="120" viewBox="0 0 120 120" fill="none" xmlns="http://www.w3.org/2000/svg">
<circle cx="60" cy="60" r="60" fill="white"/>
<path d="M45.3532 42.1474C52.7078 38.8859 61.4888 39.4665 68.6211 43.0291C67.9258 46.0111 67.3523 49.0217 66.8577 52.0467C61.1734 48.9644 53.9622 47.4734 47.9338 50.4625C41.6616 53.4373 38.3428 62.4835 42.8587 68.2395C45.5253 71.6229 50.1989 71.4724 54.0482 70.9348C54.8224 66.6625 55.661 62.3903 56.4567 58.1181C59.5462 58.0966 62.6357 58.1038 65.7251 58.1324C64.4277 64.4332 63.2665 70.7556 62.1196 77.0851C55.7757 79.7444 48.4355 81.0419 41.7405 78.9918C35.4683 77.1066 30.9237 70.8488 31.0384 64.3042C30.4435 54.8279 36.8303 45.8677 45.3532 42.1474Z" fill="#1E6891"/>
<path d="M76.8841 47.1364C83.1061 50.7563 89.2635 54.4838 95.4353 58.1825C87.5217 62.9494 79.7514 67.9527 71.9883 72.9561C73.6943 64.3615 75.3143 55.7525 76.8841 47.1364Z" fill="#1E6891"/>
</svg>
