<svg width="120" height="120" viewBox="0 0 120 120" fill="none" xmlns="http://www.w3.org/2000/svg">
<circle cx="60" cy="60" r="60" fill="white"/>
<path d="M47.1364 52.4818V60.9505H38.715V53.5791C38.715 53.2881 38.5994 53.009 38.3936 52.8032C38.1878 52.5974 37.9087 52.4818 37.6177 52.4818H34.7798V72.7514C34.7798 73.043 34.8956 73.3227 35.1019 73.5289C35.3081 73.7352 35.5878 73.851 35.8795 73.851H38.7173V64.3914H47.134V72.7514C47.134 73.0426 47.2495 73.3219 47.4553 73.5281C47.661 73.7343 47.9401 73.8504 48.2313 73.851H51.0692V53.5791C51.0686 53.2879 50.9524 53.0088 50.7463 52.8031C50.5401 52.5973 50.2608 52.4818 49.9695 52.4818H47.1364Z" fill="#1B2143"/>
<path d="M63.8393 57.7792V67.9483C63.8438 68.4033 63.7289 68.8515 63.5061 69.2482C63.2832 69.6449 62.9602 69.9762 62.5693 70.2091C60.3392 71.498 58.0311 69.8875 58.0311 67.7638V58.8789C58.0311 58.7339 58.0024 58.5903 57.9467 58.4564C57.891 58.3225 57.8094 58.201 57.7065 58.0988C57.6036 57.9966 57.4815 57.9157 57.3473 57.8609C57.2131 57.806 57.0693 57.7783 56.9243 57.7792H54.0864V68.1162C54.0908 69.718 54.729 71.2529 55.8617 72.3856C56.9943 73.5182 58.5293 74.1565 60.1311 74.1608H61.7487C63.3524 74.1583 64.8897 73.5207 66.0244 72.3874C67.159 71.2541 67.7985 69.7175 67.8028 68.1138V58.8789C67.8028 58.5872 67.687 58.3075 67.4807 58.1013C67.2745 57.8951 66.9948 57.7792 66.7032 57.7792H63.8393Z" fill="#1B2143"/>
<path d="M106.928 73.851H109.766V59.4654C109.766 59.1743 109.65 58.8952 109.444 58.6894C109.239 58.4837 108.959 58.368 108.668 58.368H105.831V72.7514C105.831 73.0426 105.946 73.3219 106.152 73.5281C106.358 73.7343 106.637 73.8504 106.928 73.851Z" fill="#2CA6E0"/>
<path d="M107.8 56.8498C109.015 56.8498 110 55.8651 110 54.6504C110 53.4357 109.015 52.451 107.8 52.451C106.586 52.451 105.601 53.4357 105.601 54.6504C105.601 55.8651 106.586 56.8498 107.8 56.8498Z" fill="#2CA6E0"/>
<path d="M77.9719 57.7697C73.8404 57.7697 70.4609 60.7258 70.4609 64.8643V67.0992C70.4609 71.2307 73.8404 74.1679 77.9719 74.1679C82.1033 74.1679 85.4851 71.2307 85.4851 67.0992V64.8573C85.4828 60.7258 82.101 57.7697 77.9719 57.7697ZM81.5192 67.3593C81.5192 69.3127 79.9205 70.6158 77.9719 70.6158C76.0232 70.6158 74.4245 69.3127 74.4245 67.3593V64.5711C74.4245 62.6177 76.0232 61.317 77.9719 61.317C79.9205 61.317 81.5192 62.6177 81.5192 64.5711V67.3593Z" fill="#1B2143"/>
<path d="M95.6615 57.7698C94.4236 57.765 93.2012 58.0441 92.0881 58.5857V53.6005C92.0881 53.3095 91.9725 53.0304 91.7667 52.8246C91.5609 52.6188 91.2818 52.5032 90.9908 52.5032H88.1411V67.0993C88.1411 71.2308 91.5229 74.168 95.6544 74.168C99.7859 74.168 103.165 71.2308 103.165 67.0993V64.8574C103.172 60.7259 99.793 57.7698 95.6615 57.7698ZM99.2088 67.3595C99.2088 69.3129 97.6102 70.6159 95.6615 70.6159C93.7128 70.6159 92.1141 69.3129 92.1141 67.3595V64.5713C92.1141 62.6178 93.7128 61.3172 95.6615 61.3172C97.6102 61.3172 99.2088 62.6178 99.2088 64.5713V67.3595Z" fill="#2CA6E0"/>
<path d="M22.8508 54.2365C22.8508 49.9277 20.7508 46.2243 19.1545 45.0134C19.1545 45.0134 19.0315 44.9449 19.0433 45.1175C18.9085 53.4443 14.6588 55.6981 12.3223 58.7346C6.9303 65.7441 11.9439 73.4277 17.0521 74.849C19.9089 75.6436 16.3923 73.4301 15.9406 68.7925C15.3895 63.1759 22.8508 58.8883 22.8508 54.2365Z" fill="#1B2143"/>
<path d="M25.2987 57.0674C25.2909 57.0599 25.2814 57.0543 25.2711 57.051C25.2607 57.0477 25.2498 57.0468 25.239 57.0484C25.2283 57.05 25.2181 57.054 25.2091 57.0602C25.2002 57.0664 25.1928 57.0745 25.1875 57.084C25.1 58.1316 24.0311 60.3712 22.676 62.4287C18.0763 69.4051 20.6966 72.7751 22.1605 74.5724C23.0166 75.6224 22.1605 74.5724 24.3007 73.5011C25.6037 72.7129 26.7012 71.627 27.5033 70.3325C28.3053 69.0379 28.789 67.5717 28.9146 66.054C29.0543 64.3779 28.8 62.6924 28.1722 61.132C27.5444 59.5716 26.5603 58.1797 25.2987 57.0674Z" fill="#2CA6E0"/>
</svg>
