<svg width="120" height="120" viewBox="0 0 120 120" fill="none" xmlns="http://www.w3.org/2000/svg">
<circle cx="60" cy="60" r="60" fill="white"/>
<path d="M59.1148 66.6355C58.5679 66.6355 52.8602 58.77 50.8416 57.706C48.823 56.6321 45.7404 56.4233 43.1451 54.4842C42.29 53.9174 41.0171 53.102 39.635 52.217C37.4175 50.7255 35.1702 49.3334 32.903 47.981C32.8135 47.9313 32.7439 47.8816 32.6743 47.8418C32.6644 47.8418 32.6644 47.8318 32.6544 47.8318C32.6246 47.812 32.5749 47.7821 32.5451 47.7722C28.5477 45.3956 24.5105 43.1284 20.5429 40.6922C18.8127 39.6282 17.1024 38.4946 15.3921 37.371C13.8906 36.3866 12.4089 35.2928 11.0168 34.01C10.8279 37.7389 12.2498 41.7463 14.3679 44.8885C16.2969 47.7722 19.0215 50.3178 23.1184 52.6645C27.255 55.0212 35.0608 56.2343 39.4858 60.6891C34.7128 59.2871 29.9 58.1435 25.1469 56.7812C23.5857 56.3338 22.0246 55.8465 20.4733 55.3593C19.1011 54.9317 17.7388 54.4444 16.4163 53.818C16.8737 56.1945 18.7928 58.422 20.881 60.2317C22.7007 61.8128 26.5987 63.0458 29.0846 63.7618C32.7539 64.8158 39.8537 65.3329 43.2247 67.7194C39.7543 67.4509 36.2839 67.3316 32.8334 67.0631C31.5905 66.9636 30.3375 66.8344 29.0946 66.7051C28.0008 66.5957 26.9069 66.4267 25.8231 66.1582C26.36 67.9282 28.0008 69.38 29.7807 70.4241C31.849 71.6372 34.1758 71.9853 36.5723 72.1046C39.5156 72.2438 45.1935 70.2948 49.2804 73.1288C46.1282 74.1828 42.9761 75.4656 39.9631 76.5196C39.0582 76.8378 38.1533 77.1262 37.2485 77.4145C36.453 77.6731 35.6475 77.8918 34.8421 78.0311C35.4884 79.1249 36.8706 79.6519 38.2926 79.8508C39.9432 80.0795 41.6337 79.5525 43.4434 79.2144C47.1127 78.5382 53.4071 74.6303 56.5493 75.4755C56.5394 75.5053 56.5394 75.5252 56.5294 75.5551C53.8048 77.5637 51.8459 80.1292 49.5091 82.3069C49.0119 82.7742 48.4949 83.2217 47.9778 83.6692C47.5303 84.0669 47.0331 84.4448 46.4763 84.7729C47.8783 85.1906 49.4495 85.0613 50.772 84.7232C52.3133 84.3354 53.6159 83.6592 54.5108 82.7444C55.4257 81.8097 55.903 80.7258 56.4101 79.6519C56.8874 83.2018 58.8762 85.9463 59.1247 86.2844V66.6355H59.1148Z" fill="#003A5D"/>
<path d="M63.5693 77.9316C63.5593 77.9117 63.5593 77.8819 63.5494 77.862C64.0863 77.7228 64.7327 77.7328 65.4387 77.862V74.9684H61.312V79.095H64.9713C64.5238 78.6874 64.0664 78.2995 63.5693 77.9316Z" fill="#003A5D"/>
<path d="M65.4489 68.9127H61.3223V73.0394H65.4489V68.9127Z" fill="#005CB9"/>
<path d="M65.439 62.8469H64.5938C63.0127 64.7362 61.5709 66.5758 61.3223 66.5758V66.9736H65.4489V62.8469H65.439Z" fill="#003A5D"/>
<path d="M71.7932 77.4643V73.3376H67.6665V76.2611C68.8001 76.4799 70.0828 76.9373 71.3855 77.4643H71.7932V77.4643Z" fill="#005CB9"/>
<path d="M70.0034 81.1533V84.8126H73.5832C72.38 83.6293 71.2563 82.3565 70.0034 81.1533Z" fill="#003A5D"/>
<path d="M71.7932 62.8469H67.6665V66.9736H71.7932V62.8469Z" fill="#005CB9"/>
<path d="M73.9512 77.4643H78.0778V75.7042C76.7155 75.1871 75.3334 74.68 73.9512 74.2126V77.4643Z" fill="#003A5D"/>
<path d="M73.9512 68.9127V73.0394H75.9996C76.6758 72.8405 77.3718 72.7411 78.0679 72.7013V68.9127H73.9512Z" fill="#005CB9"/>
<path d="M78.0778 56.6023H73.9512V60.729H78.0778V56.6023Z" fill="#005CB9"/>
<path d="M78.0778 62.8469H73.9512V66.9736H78.0778V62.8469Z" fill="#00A0DF"/>
<path d="M81.2295 69.3403C81.4482 69.1911 81.6769 69.0519 81.9255 68.9127H80.3047V72.6913C81.7366 72.6217 83.1685 72.7908 84.4314 72.9399V69.1414C83.3574 69.2011 82.2934 69.2608 81.2295 69.3403Z" fill="#00A0DF"/>
<path d="M84.4214 54.345V50.2184H83.8745C82.8503 50.8747 81.9255 51.4713 81.2792 51.8989C80.961 52.1375 80.6328 52.3463 80.3047 52.5253V54.345H84.4214Z" fill="#003A5D"/>
<path d="M84.4216 56.6023H80.2949V60.729H84.4216V56.6023Z" fill="#00A0DF"/>
<path d="M80.4043 79.9502C80.7126 79.9602 81.0208 79.9502 81.3291 79.9105C82.5522 79.7414 83.7553 79.284 84.3122 78.3393C83.6161 78.22 82.9201 78.0311 82.2339 77.8123C81.876 77.7029 81.5279 77.5836 81.17 77.4742H80.4043V79.9502Z" fill="#003A5D"/>
<path d="M90.7063 50.2184H86.5796V54.345H90.7063V50.2184Z" fill="#005CB9"/>
<path d="M90.7063 61.4846H86.5796V64.6567C87.8922 64.2689 89.3141 63.9706 90.7063 63.7021V61.4846Z" fill="#005CB9"/>
<path d="M92.874 61.1466H97.0007V57.0199H94.5844C94.0176 57.179 93.4508 57.3282 92.884 57.4873V61.1466H92.874Z" fill="#00A0DF"/>
<path d="M98.9893 45.6343V49.7609H100.57C101.495 49.214 102.34 48.6572 103.106 48.0804V45.6343H98.9893Z" fill="#003A5D"/>
<path d="M102.47 57.02C103.186 56.0654 103.723 55.0511 103.931 53.9971C103.026 54.4247 102.092 54.7727 101.167 55.0909V57.02H102.47Z" fill="#00A0DF"/>
<path d="M108.734 37.1621C108.943 36.1081 109.042 35.0441 108.983 34C107.988 34.9148 106.944 35.7103 105.88 36.4362V37.1621H108.734Z" fill="#003A5D"/>
</svg>
