<svg width="120" height="120" viewBox="0 0 120 120" fill="none" xmlns="http://www.w3.org/2000/svg">
<circle cx="60" cy="60" r="60" fill="white"/>
<path d="M46.5009 48V61.9711C46.5009 62.6633 47.0672 63.2297 47.7595 63.2297H54.808V66.4393H46.4379C44.5499 66.4393 43.0396 64.9289 43.0396 63.0409V48H46.5009Z" fill="#2C3149"/>
<path d="M59.4649 53.4122H56.2554V66.5022H59.4649V53.4122Z" fill="#2C3149"/>
<path d="M58.5839 51.1466H57.0735C56.633 51.1466 56.2554 50.769 56.2554 50.3285V48.8181C56.2554 48.3776 56.633 48 57.0735 48H58.5839C59.0244 48 59.402 48.3776 59.402 48.8181V50.2656C59.4649 50.769 59.0873 51.1466 58.5839 51.1466Z" fill="#2C3149"/>
<path d="M93.4486 51.1466H91.9382C91.4977 51.1466 91.1201 50.769 91.1201 50.3285V48.8181C91.1201 48.3776 91.4977 48 91.9382 48H93.4486C93.8892 48 94.2668 48.3776 94.2668 48.8181V50.2656C94.3297 50.769 93.9521 51.1466 93.4486 51.1466Z" fill="#2C3149"/>
<path d="M71.6745 71.9144V64.9289C70.7305 66.3764 68.7166 66.754 67.3321 66.754C63.1786 66.754 60.7871 63.7332 60.7871 59.9572C60.7871 56.1183 63.4303 53.1605 67.458 53.1605C68.9054 53.1605 70.6676 53.7898 71.6745 55.2373L71.8633 53.4122H74.884V71.8515L71.6745 71.9144ZM71.3598 59.9572C71.3598 57.9434 69.9753 56.2442 67.6468 56.2442C65.3183 56.2442 63.9337 57.8804 63.9337 59.9572C63.9337 62.034 65.4441 63.6703 67.6468 63.6703C69.8494 63.6703 71.3598 61.9711 71.3598 59.9572Z" fill="#2C3149"/>
<path d="M79.6666 53.4122V60.209C79.6666 62.1599 80.7365 63.6703 82.8132 63.6703C84.7642 63.6703 86.1487 62.034 86.1487 60.0202V53.4122H89.3582V66.4393H86.4633L86.2745 64.6772C84.9529 65.9988 83.6943 66.6281 81.8692 66.6281C78.7855 66.6281 76.457 64.2996 76.457 60.209V53.4122H79.6666Z" fill="#2C3149"/>
<path d="M91.1201 53.4122V66.5022H94.3297V53.4122H91.1201Z" fill="#2C3149"/>
<path d="M110 48V66.4393H106.979L106.791 64.6142C105.784 66.1876 104.147 66.691 102.574 66.691C98.7352 66.691 95.8403 64.1737 95.8403 59.8943C95.8403 55.4261 98.6723 53.0976 102.448 53.0976C103.833 53.0976 105.973 53.8527 106.728 55.1743V48H110ZM99.1128 59.9572C99.1128 62.2228 100.749 63.7961 102.826 63.7961C104.84 63.7961 106.602 62.3487 106.602 59.9572C106.602 57.6916 104.84 56.1813 102.826 56.1813C100.749 56.1183 99.1128 57.5658 99.1128 59.9572Z" fill="#2C3149"/>
<path d="M17.426 48C16.9855 48 16.6079 48.3776 16.6079 48.8181V52.3424C16.6079 53.0346 17.1743 53.601 17.8666 53.601H20.3839C21.0761 53.601 21.6425 54.1674 21.6425 54.8597V58.7615C21.6425 59.4538 22.2089 60.0202 22.9012 60.0202H26.7401C27.4323 60.0202 27.9987 60.5865 27.9987 61.2788V63.7961C27.9987 64.4884 28.5651 65.0548 29.2574 65.0548H32.7816C33.2222 65.0548 33.5998 64.6772 33.5998 64.2366V48.8181C33.5998 48.3776 33.2222 48 32.7816 48C32.7816 48 17.426 48 17.426 48Z" fill="#0157FF"/>
<path d="M16.6079 64.2996V56.3071C16.6079 55.6149 16.0415 55.0485 15.3493 55.0485H10.8181C10.3776 55.0485 10 55.4261 10 55.8666V71.0334C10 71.4739 10.3776 71.8515 10.8181 71.8515H26.2996C26.7401 71.8515 27.1177 71.4739 27.1177 71.0334V66.8798C27.1177 66.1876 26.5513 65.6212 25.8591 65.6212H17.9295C17.1743 65.6212 16.6079 65.0548 16.6079 64.2996Z" fill="#0157FF"/>
<path fill-rule="evenodd" clip-rule="evenodd" d="M103.581 68.4531V68.7678C103.581 68.8307 103.518 68.9566 103.393 68.9566H103.078C103.015 68.9566 102.889 68.8937 102.889 68.7678V68.4531C102.889 68.3902 102.952 68.2643 103.078 68.2643H103.393C103.518 68.2643 103.581 68.3273 103.581 68.4531Z" fill="#0157FF"/>
<path fill-rule="evenodd" clip-rule="evenodd" d="M108.679 69.3342C107.86 69.3342 107.357 69.9006 107.357 70.6558C107.357 71.4739 107.86 71.9774 108.741 71.9774C109.119 71.9774 109.56 71.8515 109.811 71.5368L109.434 71.1592C109.308 71.2851 108.993 71.411 108.741 71.411C108.301 71.411 108.049 71.1592 107.986 70.8446H109.937C110.063 69.8377 109.497 69.3342 108.679 69.3342ZM107.986 70.3411C108.049 70.0265 108.364 69.8377 108.679 69.8377C109.056 69.8377 109.308 70.0265 109.308 70.3411H107.986Z" fill="#0157FF"/>
<path fill-rule="evenodd" clip-rule="evenodd" d="M106.728 70.5929V71.9144H106.098V70.5929C106.098 70.2153 105.91 69.9006 105.469 69.9006C105.092 69.9006 104.84 70.2153 104.84 70.5929V71.9144H104.21V69.3971H104.777L104.84 69.7118C105.092 69.4601 105.343 69.3342 105.658 69.3342C106.224 69.3342 106.728 69.7747 106.728 70.5929Z" fill="#0157FF"/>
<path d="M103.581 69.3971H102.952V71.9144H103.581V69.3971Z" fill="#0157FF"/>
<path fill-rule="evenodd" clip-rule="evenodd" d="M101.001 69.3342C100.183 69.3342 99.6792 69.9006 99.6792 70.6558C99.6792 71.411 100.183 71.9774 101.001 71.9774C101.819 71.9774 102.322 71.411 102.322 70.6558C102.322 69.9006 101.819 69.3342 101.001 69.3342ZM101.001 71.411C100.56 71.411 100.309 71.0334 100.309 70.6558C100.309 70.2782 100.56 69.9006 101.001 69.9006C101.441 69.9006 101.693 70.2782 101.693 70.6558C101.693 71.0334 101.441 71.411 101.001 71.411Z" fill="#0157FF"/>
<path fill-rule="evenodd" clip-rule="evenodd" d="M98.4206 69.3971H99.05V71.9144H98.4836L98.4206 71.5998C98.1689 71.8515 97.9172 71.9774 97.5396 71.9774C96.9103 71.9774 96.4697 71.5369 96.4697 70.7187V69.3971H97.0991V70.7187C97.0991 71.0963 97.2879 71.411 97.7284 71.411C98.106 71.411 98.3577 71.0963 98.3577 70.7187L98.4206 69.3971Z" fill="#0157FF"/>
<path d="M95.5888 71.2222C95.8406 70.9075 95.9035 70.467 95.9035 70.0265C95.9035 69.0825 95.3371 68.2014 94.0785 68.2014C92.8198 68.2014 92.2534 69.1454 92.2534 70.0894C92.2534 71.0334 92.8198 71.9774 94.0785 71.9774C94.4561 71.9774 94.8337 71.9144 95.0854 71.7256L95.5259 72.1662L96.0294 71.6627L95.5888 71.2222ZM94.0785 71.3481C93.3233 71.3481 92.8827 70.7187 92.8827 70.1523C92.8827 69.523 93.1974 68.8937 94.0785 68.8937C94.9595 68.8937 95.2112 69.523 95.2742 70.0894C95.2742 70.6558 94.8966 71.3481 94.0785 71.3481Z" fill="#0157FF"/>
<path fill-rule="evenodd" clip-rule="evenodd" d="M90.3024 69.3971H90.9946L89.4213 72.9843H88.729L89.2325 71.8515L88.2256 69.3971H88.9178L89.2954 70.467L89.5472 71.1593L89.7989 70.467L90.3024 69.3971Z" fill="#0157FF"/>
<path fill-rule="evenodd" clip-rule="evenodd" d="M86.2746 69.3342C86.0229 69.3342 85.5823 69.4601 85.4565 69.7118V68.3273H84.8271V71.9144H85.3935L85.4565 71.5368C85.6453 71.8515 85.9599 71.9144 86.2746 71.9144C87.0298 71.9144 87.5962 71.411 87.5962 70.5928C87.5962 69.7747 87.0298 69.3342 86.2746 69.3342ZM86.2117 71.411C85.8341 71.411 85.4565 71.0963 85.4565 70.6558C85.4565 70.2153 85.7711 69.9006 86.2117 69.9006C86.5893 69.9006 86.9039 70.1523 86.9039 70.6558C86.9669 71.0963 86.6522 71.411 86.2117 71.411Z" fill="#0157FF"/>
</svg>
