<svg width="120" height="120" viewBox="0 0 120 120" fill="none" xmlns="http://www.w3.org/2000/svg">
<circle cx="60" cy="60" r="60" fill="white"/>
<path d="M62.2561 32H63.4723C65.3352 32.3469 66.9002 34.0251 66.936 35.9464C67.0887 38.0676 65.6482 39.9362 63.9889 41.092C62.8765 41.9141 61.4171 42.4873 60.8307 43.8354C60.4762 44.55 60.9928 45.2552 61.3473 45.8529C62.3617 47.416 62.8614 49.2374 63.1876 51.0532C63.427 52.7502 63.2121 54.4735 62.9519 56.1554C62.7011 57.9372 61.8734 59.6003 61.8281 61.416C61.7451 63.4505 62.2505 65.4529 62.8501 67.3818C63.2404 68.6602 63.7947 69.9009 63.9418 71.2396C64.2585 73.8642 64.6338 76.4945 64.564 79.1456C64.5301 81.4271 65.1542 83.6539 65.2183 85.9278C65.2692 86.7461 65.0033 87.6983 64.1511 88H63.3026C62.488 87.6436 61.7527 87.1044 61.2342 86.3784C60.0557 84.789 59.441 82.8752 58.9263 80.9896C58.4888 79.204 58.1231 77.3921 58.0043 75.5556C57.9062 73.572 57.3123 71.6582 56.6882 69.7877C56.164 68.317 55.6492 66.8105 54.7178 65.5397C53.3923 67.9286 52.887 70.7022 51.371 72.9912C48.2203 77.1469 45.5202 81.6175 42.6712 85.9787C42.2168 86.6198 41.6153 87.357 40.7517 87.3325C40.0088 87.2835 39.496 86.6368 39.1886 86.0202C38.853 85.2151 39.0642 84.3214 39.2716 83.5125C39.8787 81.4422 40.7442 79.4605 41.5191 77.4505C42.4091 75.2765 43.1256 73.0252 44.2513 70.9568C45.7465 68.1737 46.5648 65.1079 47.4661 62.0986C48.3108 59.2251 48.9915 56.2874 49.2913 53.3045L49.2479 53.0933L49.3459 53.2593C49.8305 50.7006 50.3396 48.0646 51.7274 45.8171C52.0649 45.2665 52.4929 44.7763 52.985 44.3577C53.6487 44.1918 54.2936 43.8844 54.6971 43.3094C56.6787 40.8148 56.5996 37.3455 58.4115 34.7547C59.2977 33.4066 60.6421 32.3111 62.2561 32Z" fill="#7292CB"/>
<path d="M76.609 44.6349C77.4556 43.2811 78.8848 42.2384 80.5233 42.1932C82.1712 41.9122 83.8494 42.8229 84.6469 44.2597C85.4464 45.9208 84.6997 48.1948 83.0442 49.0074C81.1342 49.3676 79.0488 49.294 77.3254 50.3141C76.5656 50.9344 76.0829 51.8489 75.8114 52.7785C75.4456 52.7804 75.0798 52.7804 74.7178 52.7822C74.6763 49.986 75.0647 47.0295 76.609 44.6349Z" fill="#97CB3B"/>
<path d="M67.6944 42.9436C68.6466 42.5891 69.7854 42.6306 70.6509 43.1963C71.6973 43.8185 72.2969 44.9536 72.7118 46.0585C73.4169 48.191 73.7149 50.4668 73.532 52.7068C73.3302 52.7068 73.1303 52.7087 72.9324 52.7087C72.7438 50.859 71.6163 49.0772 69.8778 48.3305C68.9728 47.8837 67.8773 47.9629 67.0382 47.3746C66.2934 46.8711 66.1219 45.8586 66.2916 45.0309C66.4613 44.2012 66.8421 43.2698 67.6944 42.9436Z" fill="#97CB3B"/>
<path d="M50.0399 45.6229C50.8865 44.9422 51.916 44.5331 52.9851 44.3577C52.493 44.7763 52.065 45.2665 51.7275 45.8171C50.3397 48.0647 49.8306 50.7006 49.3461 53.2593L49.248 53.0934L49.2914 53.3045C45.756 56.1592 43.9271 60.494 40.7273 63.6542C40.139 64.1632 39.217 64.9175 38.4723 64.2556C37.7784 63.443 37.9914 62.2494 38.2196 61.2954C39.1548 58.0975 41.046 55.3088 42.7373 52.4749C43.3369 51.419 44.2193 50.5668 45.0942 49.7371C46.678 48.2909 48.3486 46.9428 50.0399 45.6229Z" fill="#97CB3B"/>
<path d="M61.3477 45.8529C63.516 47.1935 65.0282 49.3204 66.3877 51.4265C67.0344 52.341 67.7792 53.363 68.9425 53.6119C70.187 53.8513 71.3881 53.3158 72.6061 53.1499C74.007 52.95 75.4683 52.8331 76.8542 53.1933C77.5349 53.412 78.3494 53.8419 78.4305 54.6395C78.5493 55.2937 78.1043 55.8726 77.5895 56.2195C76.1754 57.1887 74.486 57.6167 72.855 58.073C71.0411 58.5104 69.1971 58.9083 67.3285 58.9969C65.4807 58.9083 64.027 57.5413 62.9522 56.1554C63.2124 54.4735 63.4274 52.7502 63.1879 51.0532C62.8617 49.2374 62.3621 47.416 61.3477 45.8529Z" fill="#F99839"/>
</svg>
