<svg width="120" height="120" viewBox="0 0 120 120" fill="none" xmlns="http://www.w3.org/2000/svg">
<circle cx="60" cy="60" r="60" fill="white"/>
<path d="M13.7656 54.3503C13.8823 54.5536 14.0415 54.7293 14.2323 54.8654C14.4317 55.0024 14.6542 55.102 14.8892 55.1593C15.1413 55.222 15.4003 55.2533 15.6601 55.2526C15.8612 55.252 16.0617 55.23 16.2582 55.1869C16.4584 55.1456 16.6517 55.0758 16.832 54.9795C17.001 54.8841 17.1472 54.7532 17.2607 54.5958C17.38 54.4198 17.4394 54.2101 17.4301 53.9977C17.4301 53.5932 17.1604 53.2856 16.6211 53.0851C15.8857 52.8267 15.1323 52.6222 14.3672 52.4732C13.9731 52.3867 13.5893 52.283 13.2125 52.162C12.8589 52.0502 12.5226 51.8897 12.2134 51.685C11.932 51.49 11.6961 51.2364 11.522 50.9417C11.3359 50.6071 11.2439 50.2284 11.2558 49.8458C11.2335 49.3016 11.3628 48.7618 11.6292 48.2867C11.8676 47.8879 12.2045 47.5569 12.6075 47.3256C13.0369 47.0826 13.5045 46.9142 13.9903 46.8278C14.4983 46.7392 15.0131 46.6964 15.5287 46.6999C16.0487 46.6993 16.5675 46.7503 17.0775 46.852C17.5523 46.944 18.0075 47.1183 18.4223 47.3671C18.8162 47.6102 19.1506 47.9386 19.4006 48.3282C19.6813 48.7855 19.8418 49.3064 19.8673 49.8424H17.2987C17.3067 49.6274 17.2559 49.4143 17.1517 49.226C17.0475 49.0378 16.894 48.8815 16.7076 48.7741C16.3164 48.5823 15.8848 48.4874 15.4492 48.4976C15.284 48.4984 15.1189 48.5088 14.9548 48.5287C14.7883 48.544 14.625 48.5848 14.4709 48.6497C14.3271 48.7124 14.1994 48.807 14.0975 48.9262C13.9813 49.0882 13.9287 49.2873 13.9497 49.4855C13.9708 49.6838 14.064 49.8674 14.2116 50.0014C14.4167 50.1679 14.6512 50.2945 14.903 50.3747C15.2241 50.4782 15.5507 50.5637 15.8813 50.6306C16.2512 50.7066 16.6246 50.7896 17.0049 50.8795C17.394 50.9662 17.7783 51.0735 18.1561 51.201C18.5129 51.3199 18.8505 51.4899 19.1586 51.7057C19.4425 51.9134 19.6784 52.1799 19.85 52.487C20.0389 52.8405 20.1308 53.2377 20.1162 53.6382C20.1413 54.1705 20.0242 54.6999 19.777 55.172C19.5297 55.6441 19.1611 56.0418 18.7092 56.3243C18.2689 56.5989 17.7811 56.7889 17.2711 56.8843C16.1747 57.1056 15.0452 57.1056 13.9489 56.8843C13.4328 56.7833 12.9396 56.5888 12.4934 56.3105C12.0705 56.0444 11.7154 55.6834 11.4563 55.2561C11.1649 54.7573 11.0077 54.1916 11 53.614H13.572C13.5714 53.8721 13.6381 54.1259 13.7656 54.3503V54.3503Z" fill="#009FDA"/>
<path d="M26.1663 48.7223C25.7827 48.7096 25.4043 48.8132 25.0808 49.0196C24.7894 49.2165 24.546 49.4765 24.3686 49.7801C24.1811 50.1014 24.049 50.452 23.978 50.8172C23.9028 51.1847 23.8646 51.5588 23.8639 51.9339C23.8649 52.2986 23.9032 52.6624 23.978 53.0194C24.0482 53.3697 24.173 53.7068 24.3479 54.0185C24.5176 54.3137 24.7545 54.5648 25.0393 54.7513C25.3599 54.9484 25.7314 55.0469 26.1075 55.0348C26.3801 55.0504 26.6529 55.0093 26.9088 54.9141C27.1647 54.8189 27.398 54.6717 27.5941 54.4817C27.9623 54.0788 28.1924 53.5689 28.2509 53.0263H30.861C30.7651 54.1872 30.2222 55.2655 29.3468 56.0339C28.43 56.7488 27.2899 57.1162 26.1283 57.071C25.4356 57.0784 24.7479 56.9528 24.1024 56.7011C23.5116 56.4688 22.9758 56.1155 22.5295 55.664C22.0913 55.2064 21.7493 54.6657 21.5235 54.0738C21.2817 53.4251 21.1644 52.7366 21.1778 52.0445C21.1756 51.3228 21.2924 50.6056 21.5235 49.9219C21.73 49.2954 22.0644 48.7186 22.5053 48.2279C22.9444 47.7461 23.4837 47.3662 24.0852 47.1148C24.7509 46.837 25.4657 46.696 26.187 46.6999C26.7561 46.6979 27.3226 46.7747 27.8706 46.9281C28.391 47.0698 28.8817 47.304 29.3191 47.6195C29.7673 47.9417 30.1351 48.3629 30.3941 48.8503C30.6531 49.3378 30.7963 49.8783 30.8126 50.4301H28.1679C27.9882 49.2938 27.3209 48.7246 26.1663 48.7223Z" fill="#009FDA"/>
<path d="M35.023 56.7979L31.6523 46.9523H34.5079L36.5821 53.6727H36.6201L38.6943 46.9523H41.377L38.0444 56.7979H35.023Z" fill="#69BE28"/>
<path d="M44.9999 54.4368C45.4833 54.857 46.1136 55.0683 46.7526 55.0245C47.2527 55.0388 47.7447 54.8962 48.1596 54.6166C48.4921 54.417 48.7478 54.1114 48.8856 53.7489H51.264C50.8837 54.9312 50.2995 55.7759 49.5113 56.2829C48.6542 56.8101 47.6615 57.0745 46.6558 57.0434C45.9404 57.0534 45.2295 56.9279 44.5608 56.6735C43.9636 56.4399 43.4245 56.0789 42.981 55.6157C42.5396 55.1434 42.1996 54.5857 41.9819 53.9771C41.7448 53.3116 41.6277 52.6093 41.6362 51.9028C41.628 51.1949 41.7511 50.4917 41.9992 49.8286C42.2229 49.216 42.5709 48.6563 43.0212 48.1845C43.4716 47.7127 44.0146 47.3392 44.6161 47.0872C45.2624 46.8199 45.9566 46.6881 46.6558 46.7C47.4147 46.6824 48.1666 46.8485 48.8475 47.184C49.4524 47.4951 49.9766 47.9424 50.379 48.4907C50.7857 49.0514 51.0803 49.6852 51.2467 50.3575C51.424 51.0726 51.4881 51.811 51.4369 52.5458H44.3327C44.3707 53.4066 44.5954 54.0427 44.9999 54.4368ZM48.0559 49.2513C47.8622 49.062 47.6303 48.9163 47.3757 48.8238C47.1211 48.7314 46.8498 48.6945 46.5797 48.7154C46.2089 48.7037 45.8406 48.7795 45.5046 48.9367C45.2364 49.0636 45.0001 49.249 44.8132 49.4795C44.6526 49.6843 44.535 49.9195 44.4675 50.1709C44.4042 50.3816 44.3625 50.5982 44.343 50.8173H48.7438C48.6641 50.2437 48.4258 49.7038 48.0559 49.2582V49.2513Z" fill="#69BE28"/>
<path d="M55.5958 46.9522V48.335H55.6512C55.9595 47.7936 56.4248 47.3585 56.9856 47.087C57.5114 46.8321 58.0882 46.6997 58.6726 46.6999C59.2795 46.6811 59.8843 46.7809 60.453 46.9937C60.8829 47.1659 61.2597 47.4485 61.5454 47.813C61.8243 48.1919 62.0167 48.6273 62.1089 49.0887C62.22 49.637 62.2733 50.1955 62.2679 50.755V56.7979H59.5645V51.2355C59.6073 50.6059 59.4757 49.9767 59.1843 49.4171C58.9319 49.0195 58.4928 48.819 57.8325 48.819C57.0974 48.819 56.565 49.038 56.2354 49.4759C55.9058 49.9137 55.7399 50.634 55.7376 51.6365V56.7979H53.0342V46.9522H55.5958Z" fill="#69BE28"/>
<path d="M69.6935 46.9523V48.7742H67.7161V53.6486C67.6773 53.9716 67.7585 54.2976 67.9442 54.5647C68.2101 54.7502 68.535 54.8314 68.8569 54.7929C69.009 54.7929 69.1542 54.7929 69.2959 54.7721C69.4294 54.7614 69.5621 54.7429 69.6935 54.7168V56.8118C69.4416 56.8517 69.1877 56.8771 68.9329 56.8878C68.6529 56.8878 68.3798 56.8878 68.1136 56.8878C67.7156 56.8899 67.318 56.861 66.9244 56.8014C66.5757 56.7509 66.2399 56.6335 65.9357 56.4557C65.6451 56.2944 65.4056 56.0549 65.2443 55.7643C65.0645 55.3909 64.9802 54.9787 64.9988 54.5647V48.7742H63.374V46.9523H65.0127V44H67.7161V46.9523H69.6935Z" fill="#69BE28"/>
<path d="M78.0946 56.7979V55.4151H78.0393C77.7305 55.9536 77.2651 56.3853 76.7049 56.6527C76.1807 56.901 75.6082 57.0308 75.0282 57.033C74.4221 57.0532 73.8177 56.957 73.2478 56.7495C72.8173 56.5835 72.4398 56.3039 72.1554 55.9406C71.8751 55.5625 71.6826 55.1267 71.5919 54.6649C71.4796 54.1167 71.4251 53.5582 71.4294 52.9986V46.9523H74.1363V52.5112C74.0932 53.1408 74.2248 53.77 74.5166 54.3296C74.7689 54.7306 75.208 54.9311 75.8683 54.9311C76.6058 54.9311 77.1382 54.7122 77.4654 54.2743C77.7927 53.8364 77.9586 53.1162 77.9632 52.1136V46.9523H80.6666V56.7979H78.0946Z" fill="#69BE28"/>
<path d="M85.0391 46.9523V48.7742H85.0806C85.2073 48.4676 85.3798 48.182 85.5922 47.9272C85.8058 47.6695 86.0563 47.4446 86.3355 47.26C86.6136 47.078 86.9147 46.9338 87.2308 46.8313C87.5506 46.7301 87.8841 46.6788 88.2196 46.6792C88.4203 46.682 88.6196 46.7146 88.8107 46.776V49.2893C88.6828 49.2616 88.5307 49.2409 88.3544 49.2201C88.1781 49.1994 88.0087 49.1925 87.8393 49.1925C87.4076 49.1796 86.9785 49.2647 86.5844 49.4414C86.2557 49.593 85.9704 49.8248 85.7547 50.1155C85.5436 50.4175 85.3977 50.7601 85.326 51.1215C85.2336 51.5275 85.1884 51.9428 85.1912 52.3591V56.7979H82.4878V46.9523H85.0391Z" fill="#69BE28"/>
<path d="M92.586 54.4368C93.0326 54.7845 93.5744 54.9879 94.1395 55.02C94.7046 55.0521 95.266 54.9114 95.7491 54.6166C96.0803 54.4164 96.3347 54.1108 96.4717 53.7489H98.8501C98.4698 54.9312 97.8867 55.7758 97.1008 56.2829C96.2436 56.8096 95.251 57.074 94.2453 57.0434C93.5299 57.0534 92.8191 56.9279 92.1504 56.6735C91.5522 56.4416 91.0127 56.0804 90.5705 55.6157C90.1281 55.1435 89.7869 54.5859 89.568 53.977C89.3308 53.3115 89.2138 52.6092 89.2223 51.9028C89.2086 51.196 89.3258 50.4927 89.568 49.8286C89.7932 49.2162 90.1421 48.6569 90.5929 48.1852C91.0438 47.7136 91.5869 47.3398 92.1884 47.0871C92.8378 46.8182 93.5357 46.6864 94.2384 46.7C94.9962 46.6827 95.7469 46.8487 96.4267 47.1839C97.0322 47.4941 97.5567 47.9416 97.9582 48.4907C98.3648 49.0513 98.6595 49.6852 98.8259 50.3575C99.0048 51.0723 99.069 51.8109 99.016 52.5458H91.9153C91.9545 53.4124 92.178 54.0427 92.586 54.4368ZM95.642 49.2512C95.4491 49.0619 95.2178 48.916 94.9637 48.8236C94.7097 48.7312 94.4388 48.6943 94.1693 48.7154C93.7974 48.7036 93.4279 48.7794 93.0907 48.9367C92.8428 49.059 92.6227 49.2311 92.4443 49.4423C92.2659 49.6534 92.1329 49.8991 92.0536 50.1639C91.9895 50.3743 91.949 50.5911 91.9326 50.8104H96.3299C96.2469 50.2385 96.0063 49.701 95.6351 49.2582L95.642 49.2512Z" fill="#69BE28"/>
<path d="M102.639 54.3503C102.756 54.5536 102.915 54.7293 103.106 54.8654C103.305 55.0017 103.528 55.1012 103.763 55.1593C104.015 55.222 104.274 55.2533 104.534 55.2526C104.736 55.2519 104.937 55.2299 105.135 55.1869C105.339 55.1521 105.537 55.0881 105.723 54.9968C105.892 54.9023 106.039 54.7712 106.151 54.6131C106.272 54.4375 106.333 54.2278 106.324 54.015C106.324 53.6105 106.055 53.3029 105.512 53.1023C104.776 52.844 104.023 52.6394 103.258 52.4905C102.864 52.4052 102.48 52.3015 102.107 52.1793C101.752 52.0682 101.414 51.9076 101.104 51.7022C100.822 51.5085 100.586 51.2547 100.413 50.959C100.224 50.6253 100.132 50.246 100.147 49.8631C100.123 49.3192 100.251 48.7795 100.516 48.304C100.756 47.905 101.094 47.5741 101.498 47.3429C101.927 47.0989 102.395 46.9305 102.881 46.8451C103.397 46.7506 103.92 46.7031 104.444 46.7034C104.965 46.7028 105.485 46.7537 105.996 46.8555C106.47 46.9479 106.923 47.1222 107.337 47.3706C107.732 47.6138 108.067 47.9421 108.319 48.3316C108.597 48.79 108.756 49.3104 108.782 49.8458H106.172C106.181 49.6303 106.13 49.4164 106.026 49.2275C105.922 49.0386 105.768 48.8818 105.581 48.7741C105.191 48.5826 104.761 48.4877 104.326 48.4976C104.161 48.4984 103.996 48.5087 103.832 48.5287C103.664 48.5435 103.5 48.5843 103.344 48.6497C103.201 48.7122 103.075 48.8068 102.974 48.9262C102.866 49.0648 102.812 49.2381 102.822 49.4137C102.819 49.5255 102.841 49.6365 102.887 49.7384C102.933 49.8403 103.002 49.9302 103.088 50.0014C103.293 50.1688 103.528 50.2955 103.78 50.3747C104.101 50.4783 104.428 50.5637 104.758 50.6306C105.128 50.7066 105.501 50.7896 105.882 50.8795C106.272 50.9667 106.657 51.074 107.036 51.201C107.392 51.3207 107.728 51.4906 108.035 51.7057C108.319 51.9134 108.555 52.1799 108.727 52.487C108.917 52.8401 109.01 53.2374 108.997 53.6382C109.022 54.171 108.905 54.7009 108.657 55.1731C108.409 55.6454 108.039 56.0428 107.586 56.3243C107.146 56.5989 106.658 56.7889 106.148 56.8843C105.052 57.1056 103.922 57.1056 102.826 56.8843C102.31 56.7827 101.817 56.5882 101.37 56.3105C100.949 56.0425 100.594 55.6819 100.333 55.2561C100.043 54.7546 99.8882 54.1864 99.8838 53.6071H102.456C102.451 53.8666 102.514 54.1229 102.639 54.3503V54.3503Z" fill="#69BE28"/>
<path d="M11.4844 67.5216H12.0168V70.0349C12.1409 69.7381 12.3536 69.4869 12.6258 69.3155C12.8981 69.1441 13.2166 69.0609 13.5379 69.0773C14.8688 69.0773 15.5084 70.1524 15.5084 71.3935C15.5084 72.6346 14.8688 73.7097 13.5379 73.7097C13.2116 73.7239 12.8886 73.6404 12.6102 73.4698C12.3318 73.2992 12.1107 73.0492 11.9753 72.7521H11.958V73.5852H11.4844V67.5216ZM13.5586 69.5267C12.4212 69.5267 12.0202 70.4843 12.0202 71.3935C12.0202 72.3027 12.4212 73.2603 13.5586 73.2603C14.575 73.2603 14.9933 72.3027 14.9933 71.3935C14.9933 70.4843 14.5715 69.5163 13.5551 69.5163L13.5586 69.5267Z" fill="#4F758B"/>
<path d="M15.6045 69.2018H16.1853L17.6269 72.9388L18.9786 69.2018H19.5109L17.6096 74.256C17.3054 74.9923 17.1256 75.2067 16.4549 75.2067C16.3175 75.2114 16.1801 75.1963 16.047 75.1617V74.7019C16.1673 74.7288 16.2902 74.7427 16.4134 74.7434C16.8871 74.7434 16.9977 74.4634 17.1774 74.052L17.3641 73.5542L15.6045 69.2018Z" fill="#4F758B"/>
<path d="M29.7266 72.9216H29.177C28.8036 72.9216 28.6515 72.6796 28.6515 72.3339V69.8932H29.7266V69.2018H28.6515V67.902H27.8633V72.3235C27.8633 73.2535 28.3404 73.6579 29.177 73.6579H29.7266V72.9216Z" fill="#4F758B"/>
<path d="M22.2524 71.5422V71.5906C22.2524 73.1739 23.5454 73.7478 24.7622 73.7478C25.9791 73.7478 27.1372 73.1739 27.1372 71.9225C27.1372 70.671 26.1381 70.3737 25.1944 70.1594L24.8487 70.0868C24.0121 69.9139 23.2826 69.7411 23.2826 69.1257C23.2826 68.2407 24.2057 68.137 24.5998 68.137C25.4606 68.137 25.9826 68.545 26.0517 69.3332V69.3608H26.8641V69.3262C26.8157 68.1025 26.0068 67.3972 24.6274 67.3972C23.5246 67.3972 22.4184 67.9503 22.4184 69.1845C22.4184 70.2838 23.3345 70.5673 24.3716 70.8024L24.5721 70.8508C25.4329 71.034 26.2522 71.1965 26.2522 71.9467C26.2522 72.8766 25.3223 72.9838 24.7657 72.9838C24.3406 72.997 23.9221 72.876 23.5696 72.6381C23.4114 72.5139 23.2844 72.3546 23.1985 72.1728C23.1127 71.991 23.0705 71.7916 23.0752 71.5906V71.5526L22.2524 71.5422Z" fill="#4F758B"/>
<path d="M34.4009 72.9459H34.3594C34.2917 72.9639 34.222 72.9732 34.152 72.9735C33.9653 72.9735 33.9549 72.8836 33.9549 72.5276V70.3047C33.9549 69.4888 33.4156 69.0844 32.2955 69.0844C31.6214 69.0844 30.4806 69.2745 30.4287 70.5674V70.602H31.2031V70.5743C31.2308 70.0281 31.5696 69.7827 32.2402 69.7827C32.9109 69.7827 33.184 70.0039 33.184 70.4741C33.184 70.8716 32.783 70.927 32.2264 71.003C32.0778 71.0237 31.9187 71.0549 31.7493 71.086C30.9888 71.2312 30.2524 71.4559 30.2524 72.4688C30.2524 73.2432 30.7917 73.7168 31.7217 73.7168C32.0028 73.7248 32.2823 73.6721 32.5412 73.5624C32.8001 73.4526 33.0324 73.2883 33.222 73.0807C33.2154 73.165 33.227 73.2498 33.256 73.3292C33.285 73.4087 33.3306 73.481 33.39 73.5413C33.4493 73.6016 33.5208 73.6485 33.5998 73.6787C33.6788 73.709 33.7633 73.722 33.8478 73.7168C34.0333 73.7254 34.2176 73.6823 34.3801 73.5923V73.5923L34.4009 72.9459ZM31.8876 72.9908C31.6456 72.9908 31.0787 72.9424 31.0787 72.3927C31.0787 71.8431 31.5073 71.7013 31.9256 71.6356C32.0536 71.6149 32.1884 71.5942 32.3128 71.5803C32.6109 71.5603 32.9039 71.4926 33.1806 71.3798V72.047C33.1806 72.4169 32.8279 72.9908 31.8876 72.9908Z" fill="#4F758B"/>
<path d="M35.0918 69.1984V73.6027H35.8662V71.1274C35.8662 70.2874 36.3363 69.7965 37.1176 69.7965C37.2306 69.7872 37.3443 69.8025 37.4508 69.8413C37.5573 69.8801 37.6541 69.9416 37.7346 70.0214C37.8151 70.1013 37.8773 70.1976 37.917 70.3038C37.9567 70.41 37.973 70.5235 37.9646 70.6365V73.6027H38.7355V70.7195C38.7355 69.634 38.2342 69.1016 37.211 69.1016C36.936 69.0889 36.6626 69.1502 36.4194 69.2791C36.1762 69.408 35.972 69.5998 35.8281 69.8345V69.1984H35.0918Z" fill="#4F758B"/>
<path d="M42.8703 67.5459V69.7411C42.7063 69.5333 42.4956 69.3671 42.2554 69.256C42.0151 69.1448 41.752 69.0919 41.4875 69.1016C40.2637 69.1016 39.4824 70.0039 39.4824 71.3936C39.4632 71.9722 39.6384 72.5407 39.9802 73.008C40.1635 73.2334 40.3966 73.4131 40.6611 73.5331C40.9257 73.653 41.2145 73.71 41.5048 73.6994C41.7714 73.7264 42.0404 73.6812 42.2836 73.5687C42.5269 73.4562 42.7354 73.2805 42.8876 73.0599V73.5923H43.6723V67.5459H42.8703ZM41.605 73.008C40.6993 73.008 40.2948 72.2198 40.2948 71.4454C40.2948 70.9442 40.4158 69.7964 41.5635 69.7964C42.7977 69.7964 42.8945 71.0306 42.8945 71.4109C42.8945 72.1818 42.5626 73.008 41.605 73.008Z" fill="#4F758B"/>
<path d="M48.5781 72.9734H48.5401C48.4737 72.9923 48.4052 73.0027 48.3361 73.0046C48.146 73.0046 48.1391 72.9147 48.1391 72.5586V70.3219C48.1391 69.5026 47.586 69.1016 46.4763 69.1016C45.7848 69.1016 44.6544 69.2917 44.6025 70.5846V70.6192H45.3907V70.5881C45.4184 70.0419 45.7364 69.7964 46.4279 69.7964C47.0674 69.7964 47.3578 70.0108 47.3578 70.4878C47.3578 70.8854 46.9706 70.9407 46.414 71.0202L45.9231 71.1032C45.1799 71.2484 44.4297 71.4731 44.4297 72.4653C44.4297 73.2396 44.9794 73.7167 45.8989 73.7167C46.1802 73.7271 46.4602 73.6751 46.719 73.5645C46.9778 73.454 47.2089 73.2875 47.3958 73.0772C47.3891 73.1629 47.401 73.249 47.4307 73.3297C47.4605 73.4103 47.5073 73.4836 47.5681 73.5444C47.6289 73.6052 47.7022 73.6521 47.7828 73.6818C47.8635 73.7116 47.9497 73.7235 48.0354 73.7167C48.2192 73.7252 48.4015 73.6809 48.5608 73.5888V73.5888L48.5781 72.9734ZM46.058 73.0184C45.816 73.0184 45.2663 72.97 45.2663 72.4203C45.2663 71.8706 45.6811 71.7289 46.096 71.6598L46.4935 71.6045C46.7885 71.5859 47.0783 71.5181 47.3509 71.4039V71.4039V72.0712C47.3509 72.4341 47.0086 73.008 46.058 73.008V73.0184Z" fill="#4F758B"/>
<path d="M51.5992 69.1016H51.5681C51.2397 69.0744 50.911 69.1508 50.6282 69.3201C50.3455 69.4893 50.1229 69.743 49.9917 70.0453V69.1984H49.2554V73.6026H50.0332V71.6356C50.0332 70.4671 50.5206 69.9071 51.5681 69.9071H51.5992V69.1016Z" fill="#4F758B"/>
<path d="M55.1121 67.5459V69.7411C54.947 69.5345 54.7361 69.3692 54.4961 69.2582C54.2561 69.1472 53.9936 69.0936 53.7293 69.1016C52.509 69.1016 51.7069 70.0039 51.7069 71.3936C51.6878 71.9755 51.8711 72.5461 52.2255 73.008C52.4079 73.2344 52.6408 73.4149 52.9056 73.5349C53.1703 73.655 53.4596 73.7113 53.75 73.6994C54.0137 73.7218 54.2786 73.6744 54.5183 73.5622C54.7579 73.45 54.9639 73.2767 55.1156 73.0599V73.5923H55.8968V67.5459H55.1121ZM53.8676 73.008C52.9549 73.008 52.5539 72.2198 52.5539 71.4454C52.5539 70.9442 52.6784 69.7964 53.8261 69.7964C55.0499 69.7964 55.1536 71.0306 55.1536 71.4109C55.1363 72.1818 54.7906 73.008 53.8676 73.008Z" fill="#4F758B"/>
<path d="M62.9557 71.283V71.3106C62.8762 72.3477 62.2193 73.0046 61.2617 73.0046C60.9685 73.0209 60.6758 72.9634 60.4106 72.8371C60.1455 72.7109 59.9163 72.52 59.7441 72.2821C59.4043 71.7715 59.2348 71.1664 59.2601 70.5535C59.243 69.9616 59.411 69.3791 59.7406 68.8873C59.9169 68.6518 60.1478 68.4626 60.4133 68.3362C60.6789 68.2097 60.9712 68.1497 61.2652 68.1613C62.1363 68.1613 62.7552 68.6176 62.9107 69.4127V69.4369H63.7646V69.4024C63.7304 69.1131 63.6383 68.8337 63.494 68.5808C63.3497 68.3278 63.1561 68.1064 62.9246 67.9297C62.3438 67.5349 61.6408 67.3614 60.9431 67.4406C60.2453 67.5199 59.5992 67.8468 59.1218 68.3618C58.63 69.0071 58.3738 69.8013 58.3958 70.6123C58.3958 72.5621 59.4641 73.7686 61.196 73.7686C61.8682 73.795 62.5245 73.561 63.0283 73.1152C63.4966 72.6387 63.7766 72.0087 63.8165 71.3418V71.3072L62.9557 71.283Z" fill="#4F758B"/>
<path d="M64.563 67.5389V73.606H65.3374V71.1204C65.3374 70.2838 65.811 69.7929 66.5854 69.7929C66.6989 69.7821 66.8133 69.7961 66.9209 69.834C67.0284 69.872 67.1264 69.9328 67.208 70.0125C67.2896 70.0921 67.3528 70.1886 67.3934 70.2951C67.4339 70.4017 67.4507 70.5158 67.4427 70.6295V73.606H68.2136V70.7125C68.2136 69.627 67.7227 69.0981 66.6891 69.0981C66.4253 69.0853 66.1626 69.1403 65.926 69.2576C65.6894 69.375 65.4868 69.551 65.3374 69.7687V67.5389H64.563Z" fill="#4F758B"/>
<path d="M69.8421 70.6123V70.5812C69.8698 70.0315 70.212 69.793 70.9034 69.793C71.5395 69.793 71.8196 70.0073 71.8196 70.4844C71.8196 70.8854 71.4427 70.9442 70.8862 71.0203L70.4022 71.0998C69.6347 71.245 68.9053 71.4697 68.9053 72.4618C68.9053 73.2397 69.448 73.7133 70.3745 73.7133C70.6537 73.7244 70.9318 73.6734 71.1889 73.564C71.4459 73.4546 71.6755 73.2895 71.861 73.0806C71.8542 73.1658 71.866 73.2513 71.8956 73.3314C71.9252 73.4115 71.9719 73.4842 72.0324 73.5444C72.093 73.6047 72.1659 73.651 72.2462 73.6801C72.3264 73.7093 72.4121 73.7206 72.4971 73.7133C72.6823 73.7224 72.8665 73.6806 73.0295 73.5923V72.9735L72.988 72.9908C72.9192 73.009 72.8483 73.0183 72.7772 73.0184C72.5905 73.0184 72.5801 72.9251 72.5801 72.569V70.3185C72.5801 69.4992 72.0339 69.0981 70.9311 69.0981C70.2397 69.0981 69.1092 69.2883 69.0608 70.5778V70.6123H69.8421ZM70.5335 73.0046C70.2915 73.0046 69.7177 72.9597 69.7177 72.4031C69.7177 71.8465 70.1498 71.7117 70.575 71.6529C70.6995 71.6287 70.8343 71.6114 70.9622 71.5976C71.2563 71.5804 71.5446 71.5089 71.8126 71.3867V71.3867V72.0539C71.8126 72.4273 71.4981 73.0046 70.5335 73.0046Z" fill="#4F758B"/>
<path d="M95.0058 73.6026V67.5459H94.2107V69.7377C94.0444 69.5325 93.8333 69.3682 93.5936 69.2573C93.3539 69.1464 93.0919 69.092 92.8279 69.0981C91.6145 69.0981 90.8159 69.9969 90.8159 71.3867C90.7962 71.9692 90.9781 72.5407 91.331 73.0046C91.5125 73.2293 91.7438 73.4087 92.0066 73.5287C92.2694 73.6487 92.5565 73.706 92.8452 73.696C93.1111 73.7193 93.3785 73.6729 93.621 73.5614C93.8635 73.4498 94.0727 73.277 94.228 73.0599V73.5957L95.0058 73.6026ZM92.9316 73.0046C92.0362 73.0046 91.6283 72.2129 91.6283 71.4385C91.6283 70.9442 91.7562 69.793 92.8901 69.793C94.1277 69.793 94.2315 71.0271 94.2315 71.4039C94.2349 72.1749 93.8892 73.0046 92.9316 73.0046V73.0046Z" fill="#4F758B"/>
<path d="M82.1873 72.2302C82.13 72.4691 81.9881 72.6791 81.7879 72.8215C81.5877 72.9638 81.3427 73.0289 81.0983 73.0045C80.9249 73.0171 80.7509 72.9927 80.5876 72.9332C80.4244 72.8736 80.2756 72.7801 80.1511 72.6588C80.0303 72.5227 79.9376 72.3641 79.8783 72.192C79.819 72.02 79.7942 71.8379 79.8054 71.6563H83.0584V71.6252C83.0856 71.2693 83.0418 70.9115 82.9297 70.5727C82.8175 70.2338 82.6392 69.9206 82.405 69.6512C82.2285 69.4709 82.016 69.3297 81.7813 69.2368C81.5467 69.1439 81.2951 69.1014 81.043 69.1119C79.8572 69.1119 78.9688 70.0695 78.9688 71.4005C79.0137 72.8732 79.7846 73.7167 81.0706 73.7167C81.5125 73.7484 81.9505 73.6155 82.3003 73.3436C82.65 73.0717 82.8868 72.6801 82.9651 72.244L82.1873 72.2302ZM80.9911 69.8102C81.3049 69.8089 81.6071 69.9285 81.835 70.1442C82.0628 70.3599 82.1989 70.655 82.2149 70.9684H79.795C79.8013 70.655 79.93 70.3566 80.1535 70.1369C80.3771 69.9173 80.6777 69.7938 80.9911 69.793V69.8102Z" fill="#4F758B"/>
<path d="M89.4365 72.2405C89.3821 72.4768 89.243 72.685 89.0456 72.8258C88.8481 72.9665 88.6059 73.0301 88.3648 73.0045C88.1894 73.0164 88.0135 72.9918 87.8481 72.9323C87.6827 72.8728 87.5314 72.7797 87.4038 72.6588C87.2819 72.5234 87.1884 72.3649 87.129 72.1926C87.0697 72.0204 87.0455 71.838 87.058 71.6562H90.3077V71.6251C90.3352 71.2697 90.2922 70.9124 90.1813 70.5737C90.0704 70.2349 89.8936 69.9214 89.6612 69.6512C89.4884 69.4706 89.2791 69.3291 89.0471 69.236C88.8152 69.143 88.5661 69.1007 88.3164 69.1119C87.1099 69.1119 86.2422 70.0695 86.2422 71.4004C86.2906 72.8731 87.0477 73.7166 88.351 73.7166C88.7882 73.7464 89.2209 73.6136 89.5662 73.3436C89.9114 73.0737 90.1447 72.6858 90.2212 72.2543L89.4365 72.2405ZM88.2542 69.7929C88.5668 69.7909 88.8679 69.9106 89.0938 70.1268C89.3196 70.343 89.4525 70.6386 89.4641 70.951H87.0442C87.0559 70.6386 87.1887 70.343 87.4146 70.1268C87.6404 69.9106 87.9416 69.7909 88.2542 69.7929V69.7929Z" fill="#4F758B"/>
<path d="M74.5092 73.606V71.6355C74.5092 70.4601 74.9863 69.907 76.0442 69.907H76.0787V69.098H76.0476C75.719 69.0669 75.389 69.1408 75.1051 69.3091C74.8212 69.4775 74.598 69.7316 74.4678 70.0349V69.1914H73.7349V73.606H74.5092Z" fill="#4F758B"/>
<path d="M84.5797 73.6027V71.6356C84.5797 70.4603 85.0637 69.9071 86.125 69.9071H86.1596V69.0982H86.1285C85.7987 69.0685 85.468 69.1429 85.1827 69.3109C84.8975 69.479 84.6721 69.7322 84.5382 70.035V69.195H83.7915V73.6027H84.5797Z" fill="#4F758B"/>
<path d="M78.5746 72.9181H78.018C77.6446 72.9181 77.496 72.6761 77.496 72.3269V69.907H78.5746V69.2156H77.496V67.8984H76.7285V72.3165C76.7285 73.2499 77.2021 73.6579 78.018 73.6579H78.5746V72.9181Z" fill="#4F758B"/>
<path d="M101.758 77.8134C101.419 78.0477 101.021 78.183 100.61 78.204C100.122 78.1996 99.6539 78.0101 99.3003 77.6739C98.9467 77.3376 98.734 76.8796 98.7051 76.3925L100.676 75.231L103.711 76.5861L101.758 77.8134Z" fill="#4F758B"/>
<path d="M106.878 74.536L102.909 72.8075C102.65 72.6865 102.46 72.5413 102.46 72.3685C102.46 72.1956 102.605 72.0919 102.806 71.964L103.573 71.5215L100.503 70.1698L100.24 70.3323C99.5248 70.7852 98.9717 71.3383 98.9717 72.4687C98.9717 73.5992 99.7495 74.3286 100.925 74.8368L105.55 76.911C106.473 77.2895 107.345 77.7782 108.15 78.3664C108.486 77.9311 108.665 77.3951 108.658 76.8453C108.669 75.6423 107.797 74.944 106.878 74.536Z" fill="#4F758B"/>
<path d="M106.957 69.6132L103.206 67.9573C102.898 67.8121 102.556 67.6392 102.556 67.4145C102.568 67.326 102.602 67.2422 102.657 67.1717C102.712 67.1012 102.784 67.0466 102.867 67.0135L104.34 66.1043C104.664 65.9457 104.936 65.6998 105.128 65.3944C105.319 65.0889 105.421 64.7361 105.422 64.3758C105.414 64.0532 105.321 63.7385 105.153 63.4631C104.985 63.1876 104.747 62.9611 104.464 62.8063L100.454 65.2711C100.034 65.4834 99.6824 65.809 99.438 66.211C99.1936 66.613 99.0666 67.0754 99.0714 67.5459C99.0714 68.704 99.8009 69.3746 100.973 69.8932L104.91 71.6217C105.208 71.7565 105.311 71.8706 105.311 72.04C105.311 72.2094 105.166 72.3477 104.724 72.5897L104.215 72.8835L107.268 74.2387L107.614 74.0278C107.982 73.8326 108.289 73.5381 108.499 73.1777C108.71 72.8173 108.815 72.4052 108.803 71.9882C108.796 70.7436 107.966 70.0557 106.957 69.6132Z" fill="#4F758B"/>
<path d="M107.51 69.0116L107.165 69.2225L104.091 67.8674L107.638 65.7136C107.922 65.8684 108.16 66.0947 108.329 66.37C108.499 66.6453 108.593 66.9601 108.603 67.2831C108.606 67.6458 108.505 68.0019 108.311 68.3085C108.118 68.6151 107.839 68.8592 107.51 69.0116V69.0116Z" fill="#4F758B"/>
</svg>
