<svg width="120" height="120" viewBox="0 0 120 120" fill="none" xmlns="http://www.w3.org/2000/svg">
<circle cx="60" cy="60" r="60" fill="white"/>
<path d="M32.8125 63.7497V63.1265H34.7041V63.9216C34.7041 65.4478 35.8218 66.3073 37.4552 66.3073C39.0241 66.3073 40.0989 65.4048 40.0989 63.9C40.0989 60.1602 33.1349 61.2994 33.1349 56.3988C33.1349 54.0131 34.6396 52.3581 37.4122 52.3581C40.1848 52.3581 41.7752 53.9485 41.7752 56.3558V57.1727H39.8839V56.2055C39.8839 54.959 38.9166 54.1634 37.4122 54.1634C35.9505 54.1634 35.048 54.959 35.048 56.2915C35.048 59.6015 41.9902 58.5267 42.0119 63.7282C42.0119 66.3073 40.3138 68.0698 37.4122 68.0698C34.5534 68.0698 32.8125 66.3503 32.8125 63.7497Z" fill="#040606"/>
<path d="M50.8027 62.2021V67.7905H48.9114V62.2236L45.021 52.6161H47.0201L49.8784 59.8594L52.7158 52.6161H54.6931L50.8027 62.2021Z" fill="#040606"/>
<path d="M65.1614 57.9247V56.6997C65.1614 55.0663 64.1514 54.1634 62.3888 54.1634C60.6047 54.1634 59.5947 55.0663 59.5947 56.6997V63.7282C59.5947 65.3402 60.6047 66.2643 62.3673 66.2643C64.1514 66.2643 65.1614 65.3402 65.1614 63.7282V61.6218H62.4315V59.8378H67.0313V63.7712C67.0313 66.3503 65.2687 68.0698 62.3888 68.0698C59.487 68.0698 57.7031 66.3503 57.7031 63.7712V56.6352C57.7031 54.0561 59.487 52.3581 62.3673 52.3581C65.2474 52.3581 67.0313 54.0561 67.0313 56.6352V57.9247H65.1614Z" fill="#040606"/>
<path d="M80.6379 52.6375V67.7905H78.9613L73.502 56.3989V67.7905H71.8257V52.6375H73.502L78.9613 64.0937V52.6375H80.6379Z" fill="#040606"/>
<path d="M85.2817 63.7712V52.6375H87.1733V63.7282C87.1733 65.3402 88.0114 66.2643 89.7952 66.2643C91.5793 66.2643 92.4389 65.3402 92.4389 63.7282V52.6375H94.3304V63.7712C94.3304 66.3503 92.6326 68.0698 89.8164 68.0698C86.9796 68.0698 85.2817 66.3503 85.2817 63.7712Z" fill="#040606"/>
<path d="M110 67.7905H108.367V55.5178L104.992 67.7905H103.573L100.199 55.5178V67.7905H98.5654V52.6375H100.779L104.283 64.2655L107.808 52.6375H110V67.7905Z" fill="#040606"/>
<path d="M21.4877 54.1807L12.2876 60.1569" stroke="#EF3064" stroke-width="0.79612" stroke-miterlimit="10"/>
<path d="M21.4948 66.1581L12.2876 60.1929" stroke="#EF3064" stroke-width="0.79612" stroke-miterlimit="10"/>
<path d="M19.4019 66.8394V65.6188C19.4019 64.6154 20.1947 64.0134 21.6219 64.0134C23.0486 64.0134 23.8414 64.6154 23.8414 65.6188V66.8394C23.8414 67.8429 23.0486 68.4532 21.6219 68.4532C20.1947 68.4532 19.4019 67.8429 19.4019 66.8394Z" fill="#EF3064"/>
<path d="M19.4019 54.8261V53.6052C19.4019 52.602 20.1947 52 21.6219 52C23.0486 52 23.8414 52.602 23.8414 53.6052V54.8261C23.8414 55.8295 23.0486 56.4398 21.6219 56.4398C20.1947 56.4398 19.4019 55.8295 19.4019 54.8261Z" fill="#EF3064"/>
<path d="M10 60.8328V59.612C10 58.6087 10.7927 58.0066 12.2199 58.0066C13.6468 58.0066 14.4398 58.6087 14.4398 59.612V60.8328C14.4398 61.8361 13.6468 62.4465 12.2199 62.4465C10.7927 62.4465 10 61.8361 10 60.8328Z" fill="#EF3064"/>
</svg>
