<svg viewBox="0 0 173 40" fill="none" xmlns="http://www.w3.org/2000/svg">
<path d="M16.2667 14.7936V38.7867C16.2667 38.964 16.1962 39.1341 16.0709 39.2595C15.9455 39.3848 15.7755 39.4553 15.5982 39.4553H8.95895C8.78243 39.4537 8.61364 39.3826 8.4891 39.2575C8.36457 39.1324 8.2943 38.9633 8.2935 38.7867V14.7936C8.29269 14.6165 8.222 14.447 8.0968 14.3218C7.9716 14.1966 7.80203 14.1259 7.62498 14.1251H0.988833C0.811531 14.1251 0.64149 14.0546 0.516118 13.9293C0.390746 13.8039 0.320313 13.6339 0.320312 13.4565L0.320313 7.69132C0.320313 7.51402 0.390746 7.34398 0.516118 7.21861C0.64149 7.09324 0.811531 7.0228 0.988833 7.0228H23.5591C23.6479 7.02117 23.7362 7.03726 23.8187 7.07013C23.9012 7.10299 23.9764 7.15198 24.0397 7.21422C24.1031 7.27646 24.1535 7.35071 24.1878 7.43263C24.2222 7.51454 24.2399 7.60249 24.2399 7.69132V13.4565C24.2399 13.6339 24.1694 13.8039 24.0441 13.9293C23.9187 14.0546 23.7487 14.1251 23.5713 14.1251H16.926C16.7506 14.1283 16.5833 14.2 16.4601 14.325C16.3369 14.4499 16.2675 14.6181 16.2667 14.7936Z" fill="black"/>
<path d="M39.7507 20.8624L41.7593 20.7919C43.9427 20.7919 45.2184 19.1972 45.2184 17.5106C45.2184 15.8239 43.9427 14.2324 41.7593 14.2324H37.9199C37.7423 14.2332 37.5723 14.3043 37.447 14.4302C37.3217 14.556 37.2514 14.7264 37.2514 14.904V38.8388C37.2506 39.0159 37.1799 39.1855 37.0547 39.3107C36.9295 39.4359 36.7599 39.5066 36.5828 39.5074H29.9498C29.7727 39.5066 29.6031 39.4359 29.4779 39.3107C29.3527 39.1855 29.2821 39.0159 29.2812 38.8388V7.75263C29.2812 7.57532 29.3517 7.40528 29.4771 7.27991C29.6024 7.15454 29.7725 7.08411 29.9498 7.08411H42.1242C49.3185 7.08411 53.1885 12.1839 53.1885 17.5106C53.2038 19.1701 52.773 20.8032 51.9411 22.2392C51.1093 23.6753 49.9069 24.8615 48.4598 25.6739C48.3098 25.7581 48.1983 25.8971 48.1485 26.0617C48.0988 26.2264 48.1147 26.4039 48.193 26.5571L54.3998 38.5169C54.4531 38.6187 54.4792 38.7326 54.4756 38.8474C54.472 38.9623 54.4389 39.0743 54.3794 39.1726C54.3199 39.271 54.2361 39.3523 54.136 39.4088C54.0359 39.4653 53.9229 39.495 53.808 39.4951H46.0985C45.9708 39.4963 45.8453 39.4612 45.7368 39.3939C45.6282 39.3265 45.541 39.2298 45.4852 39.1148L39.8151 27.2041C39.7724 27.1151 39.7504 27.0176 39.7507 26.9189V20.8624Z" fill="black"/>
<path d="M59.3945 38.7868V7.69134C59.3945 7.51404 59.465 7.344 59.5903 7.21862C59.7157 7.09325 59.8857 7.02282 60.063 7.02282H66.6931C66.781 7.02241 66.8681 7.03943 66.9494 7.07288C67.0307 7.10633 67.1045 7.15556 67.1667 7.21772C67.2288 7.27988 67.2781 7.35374 67.3115 7.43503C67.345 7.51632 67.362 7.60344 67.3616 7.69134V38.7868C67.3616 38.9641 67.2911 39.1341 67.1658 39.2595C67.0404 39.3849 66.8704 39.4553 66.6931 39.4553H60.063C59.886 39.4545 59.7164 39.3838 59.5912 39.2586C59.466 39.1334 59.3953 38.9638 59.3945 38.7868Z" fill="black"/>
<path d="M83.5745 39.7067C78.858 39.7067 74.9634 38.8849 71.7742 35.9103C71.7096 35.8472 71.6584 35.7718 71.6234 35.6886C71.5883 35.6054 71.5703 35.516 71.5703 35.4258C71.5703 35.3355 71.5883 35.2461 71.6234 35.1629C71.6584 35.0797 71.7096 35.0043 71.7742 34.9412L75.9478 30.7676C76.0695 30.648 76.2319 30.5788 76.4024 30.5737C76.573 30.5685 76.7391 30.6279 76.8678 30.74C78.5974 32.1077 81.2715 32.6045 83.642 32.6045C86.7822 32.6045 88.2879 31.5557 88.2879 29.6881C88.3293 28.992 88.1009 28.3066 87.65 27.7746C87.2391 27.3667 86.5552 27.0478 85.5034 26.9098L81.5843 26.3762C78.7139 25.9653 76.5274 25.0116 75.0708 23.5058C73.5681 21.9725 72.8383 19.7738 72.8383 16.9954C72.8383 11.0769 77.3033 6.74989 84.6785 6.74989C89.0453 6.74989 92.4033 7.71587 95.1049 10.1232C95.1715 10.1856 95.2249 10.2608 95.2618 10.3443C95.2987 10.4277 95.3185 10.5178 95.3199 10.609C95.3213 10.7003 95.3044 10.7909 95.2701 10.8755C95.2358 10.9601 95.1849 11.0369 95.1203 11.1014L91.0325 15.1739C90.91 15.2926 90.7472 15.3607 90.5767 15.3647C90.4062 15.3687 90.2404 15.3082 90.1125 15.1953C88.1407 13.5915 85.7426 13.708 84.4362 13.708C81.6579 13.708 80.5201 15.3027 80.5201 16.7133C80.5266 17.2786 80.7558 17.8186 81.158 18.2159C81.7703 18.7798 82.5569 19.1174 83.3874 19.1727L87.3066 19.7186C90.2198 20.1264 92.3143 21.0403 93.682 22.4049C95.4116 24.0885 96.0924 26.5019 96.0924 29.5072C96.0955 36.1219 90.4038 39.7067 83.5745 39.7067Z" fill="black"/>
<path d="M119.767 39.4461C119.624 39.4458 119.485 39.3998 119.371 39.3148C119.256 39.2299 119.171 39.1104 119.129 38.9738L117.768 34.6162L113.566 21.2703C113.524 21.1352 113.439 21.0172 113.325 20.9334C113.211 20.8497 113.073 20.8045 112.932 20.8045C112.79 20.8045 112.652 20.8497 112.538 20.9334C112.424 21.0172 112.339 21.1352 112.297 21.2703L107.801 34.6162L106.36 38.9861C106.316 39.1196 106.23 39.2358 106.117 39.3183C106.003 39.4008 105.866 39.4455 105.725 39.4461H98.8283C98.7209 39.4455 98.6152 39.4192 98.52 39.3694C98.4249 39.3195 98.3431 39.2475 98.2815 39.1595C98.2199 39.0715 98.1803 38.97 98.1661 38.8635C98.1518 38.757 98.1634 38.6487 98.1997 38.5476L109.509 7.46134C109.556 7.33235 109.642 7.22098 109.754 7.14248C109.867 7.06398 110.001 7.02218 110.138 7.02282H115.351C115.488 7.02218 115.622 7.06398 115.735 7.14248C115.848 7.22098 115.933 7.33235 115.98 7.46134L127.274 38.5476C127.31 38.6475 127.322 38.7545 127.308 38.8598C127.295 38.9651 127.257 39.0657 127.197 39.1534C127.137 39.2411 127.057 39.3133 126.964 39.3642C126.871 39.4151 126.767 39.4431 126.661 39.4461H119.767Z" fill="black"/>
<path d="M130.07 10.9787C133.996 5.19202 141.294 1.30663 149.666 1.30663C158.093 1.30663 165.447 5.25948 169.347 11.1198" stroke="#26A9E0" stroke-width="2.31529" stroke-miterlimit="10"/>
<path d="M149.746 35.6434C149.754 31.8484 150.609 28.103 152.248 24.6803C155.861 17.0629 162.583 12.1072 169.556 11.1014" stroke="#26A9E0" stroke-width="2.31529" stroke-miterlimit="10"/>
<path d="M149.68 10.9634V35.7722" stroke="#26A9E0" stroke-width="2.31529" stroke-miterlimit="10"/>
<path d="M130.085 14.6617C132.136 14.6617 133.798 12.999 133.798 10.948C133.798 8.89704 132.136 7.23438 130.085 7.23438C128.034 7.23438 126.371 8.89704 126.371 10.948C126.371 12.999 128.034 14.6617 130.085 14.6617Z" fill="#26A9E0"/>
<path d="M149.686 14.6157C151.737 14.6157 153.4 12.9531 153.4 10.9021C153.4 8.85108 151.737 7.18842 149.686 7.18842C147.635 7.18842 145.973 8.85108 145.973 10.9021C145.973 12.9531 147.635 14.6157 149.686 14.6157Z" fill="#26A9E0"/>
<path d="M169.284 14.6157C171.335 14.6157 172.998 12.9531 172.998 10.9021C172.998 8.85108 171.335 7.18842 169.284 7.18842C167.233 7.18842 165.57 8.85108 165.57 10.9021C165.57 12.9531 167.233 14.6157 169.284 14.6157Z" fill="#26A9E0"/>
<path d="M149.729 39.4675C151.78 39.4675 153.443 37.8049 153.443 35.7539C153.443 33.7029 151.78 32.0402 149.729 32.0402C147.678 32.0402 146.016 33.7029 146.016 35.7539C146.016 37.8049 147.678 39.4675 149.729 39.4675Z" fill="#26A9E0"/>
</svg>
